<?xml version="1.0" encoding="utf-8"?>
<!-- Generator: Adobe Illustrator 21.1.0, SVG Export Plug-In . SVG Version: 6.00 Build 0)  -->
<svg version="1.1" id="Layer_1" xmlns="http://www.w3.org/2000/svg" xmlns:xlink="http://www.w3.org/1999/xlink" x="0px" y="0px"
	 viewBox="0 0 528 396" style="enable-background:new 0 0 528 396;" xml:space="preserve">
<style type="text/css">
	.st0{clip-path:url(#SVGID_2_);}
	.st1{fill:#FFFFFF;}
	.st2{clip-path:url(#SVGID_4_);}
	.st3{fill:#B9896E;}
	.st4{fill:#E66A1F;}
</style>
<path d="M158.1,333.6h-9.9v-34.5h10.1c7.8,0,11.4,3.5,11.4,9c0.1,3.2-1.9,6.1-5,7.2c3.9,1.2,6.4,3.7,6.4,8.3
	C171.1,330.3,166.2,333.6,158.1,333.6z M157.9,304.1h-3.4v9.1h3.1c3.9,0,6-1.8,6-4.7C163.5,305.8,161.9,304.1,157.9,304.1
	L157.9,304.1z M158,318h-3.5v10.5h3.6c4.2,0,6.6-1.8,6.6-5.2S162.3,318,158,318L158,318z"/>
<path d="M179.3,305.4c-1.9,0.1-3.5-1.3-3.6-3.2c0-0.1,0-0.1,0-0.2c0.1-2,1.8-3.5,3.8-3.4c1.8,0.1,3.3,1.6,3.4,3.4
	c0,1.9-1.5,3.4-3.4,3.4C179.4,305.4,179.3,305.4,179.3,305.4L179.3,305.4z M176.2,333.6v-24.1h6v24.1H176.2z"/>
<path d="M194.6,319.7v13.9h-6v-24.1h5.1l0.8,4.9c1.6-2.8,4-5.1,7.8-5.4l1,6C199.7,315.1,196.6,316.8,194.6,319.7z"/>
<path d="M222.1,333.6l-0.5-3.4c-1.7,2.4-4.5,3.8-7.4,3.9c-5.1,0-9.1-3.8-9.1-11.9c0-9,5-13,10.6-13c1.9,0,3.8,0.3,5.6,0.9v-11.6l6-1
	v36.1L222.1,333.6z M221.3,315c-1.5-0.7-3.1-1.1-4.7-1c-3.1,0-5.4,2.5-5.4,7.9c0,4.7,2,6.9,4.6,6.9c2.2,0,3.9-1.3,5.5-3.3V315z"/>
<path d="M254.1,334c-3.8,0-7.5-0.8-10.9-2.4l1-6c3,1.9,6.5,2.9,10,3c3,0,5.1-1.5,5.1-4.2c0-2.5-1.2-3.6-6.2-5.8
	c-6.7-2.8-9.4-5-9.4-10.3c0-6.1,4.7-9.6,11.1-9.6c3.2-0.1,6.3,0.6,9.1,2.1l-1,6c-2.4-1.7-5.2-2.6-8.1-2.7c-3.3,0-4.8,1.6-4.8,3.7
	s1.1,3.2,5.9,5.2c7.1,2.9,9.7,5.4,9.7,10.7C265.7,330.5,260.8,334,254.1,334L254.1,334z"/>
<path d="M281.1,334c-6.8,0-11.5-4.5-11.5-12.4c0-8.4,5.2-12.7,11.7-12.7c2.7-0.1,5.3,0.6,7.5,2l-0.9,5.4c-1.8-1.5-4.1-2.3-6.4-2.2
	c-3.5,0-6,2.5-6,7.4c0,5,2.7,7.4,6.4,7.4c2.3,0,4.5-0.8,6.3-2.3l0.8,5.1C286.7,333.2,283.9,334.1,281.1,334z"/>
<path d="M303.5,334.1c-6.5,0-11.3-4.7-11.3-12.5s4.8-12.6,11.4-12.6s11.4,4.8,11.4,12.6S310.1,334.1,303.5,334.1z M303.5,313.9
	c-3.5,0-5.5,3.1-5.5,7.6s2,7.6,5.5,7.6c3.7,0,5.6-3.1,5.6-7.6S307.1,313.9,303.5,313.9z"/>
<path d="M335.2,333.6l-0.5-3.4c-2.2,2.1-4.9,3.9-8,3.9c-4.5,0-6.9-2.8-6.9-7.3v-17.4h6v15.8c0,2.1,0.9,3.5,3,3.5
	c1.9,0,3.8-1.2,5.5-3v-16.3h6v24.1H335.2z"/>
<path d="M355.6,334c-4.8,0-8-1.8-8-7.2v-12.4h-3.4v-4.9h3.4v-7.6l5.9-0.9v8.5h5l0.8,4.9h-5.7v11.4c0,2,0.9,3,3.2,3
	c0.6,0,1.3-0.1,1.9-0.2l0.8,5C358.2,333.9,356.9,334,355.6,334L355.6,334z"/>
<path d="M372,334c-3.3,0-6.5-0.8-9.4-2.4l0.8-5c2.6,1.8,5.7,2.7,8.8,2.9c2.6,0,4-1,4-2.5s-1-2.4-4.9-3.4c-5.9-1.5-8.3-3.2-8.3-7.6
	c0-4.1,3.3-7.1,8.9-7.1c2.9,0,5.8,0.5,8.5,1.7l-0.8,5c-2.3-1.3-5-2.1-7.6-2.2c-2.2,0-3.4,0.9-3.4,2.2s0.9,2,4.5,3
	c6.2,1.6,8.7,3.3,8.7,7.9C381.8,331.2,378.4,334,372,334L372,334z"/>
<g>
	<defs>
		<rect id="SVGID_1_" x="156.2" y="48.5" width="215.6" height="212.8"/>
	</defs>
	<clipPath id="SVGID_2_">
		<use xlink:href="#SVGID_1_"  style="overflow:visible;"/>
	</clipPath>
	<g class="st0">
		<path class="st1" d="M371.2,154.9c0,58.5-48,105.9-107.2,105.9s-107.2-47.4-107.2-105.9S204.8,49.1,264,49.1
			S371.2,96.5,371.2,154.9"/>
		<path d="M264,261.4c-59.4,0-107.8-47.7-107.8-106.4S204.6,48.5,264,48.5s107.8,47.7,107.8,106.4S323.4,261.4,264,261.4 M264,49.6
			c-58.8,0-106.7,47.2-106.7,105.3S205.2,260.3,264,260.3S370.7,213,370.7,154.9S322.8,49.6,264,49.6"/>
	</g>
</g>
<g>
	<defs>
		<rect id="SVGID_3_" x="154.1" y="48.5" width="219.8" height="213.7"/>
	</defs>
	<clipPath id="SVGID_4_">
		<use xlink:href="#SVGID_3_"  style="overflow:visible;"/>
	</clipPath>
	<g class="st2">
		<path d="M174.9,189.2c-0.5-1.3-0.8-2.8-0.8-4.2l2.5-0.5c0,1.3,0.1,2.6,0.5,3.8c0.4,1,0.9,1.3,1.4,1.1s0.6-0.6,0.5-1.8
			c-0.2-2.6-0.1-4.1,1.8-4.9s3.8,0.3,4.7,2.4c0.5,1.1,0.7,2.4,0.7,3.6l-2.4,0.5c0.1-1.1-0.1-2.2-0.4-3.2c-0.3-0.7-0.8-1-1.2-0.8
			s-0.6,0.6-0.5,1.8c0.3,2.8,0,4.1-1.8,4.8C177.7,192.7,175.8,191.6,174.9,189.2"/>
		<path d="M181.2,202.1c-1.6-2.9-0.9-5.7,2.2-7.5s6.1-0.8,7.6,1.9c0.6,0.9,0.9,1.9,0.9,2.9l-2.6,1c0.1-0.8,0-1.6-0.4-2.3
			c-0.7-1.3-2.1-1.8-4-0.7s-2.1,2.5-1.4,3.8c0.4,0.7,1.1,1.3,1.8,1.7l-2,1.5C182.5,203.8,181.7,203,181.2,202.1"/>
		<path d="M185.7,208.8l8.9-6.4l1.8,2.4l-8.9,6.4L185.7,208.8z"/>
		<path d="M191,215.5l8.1-7.4l5.1,5.4l-1.8,1.6l-3-3.2l-1.4,1.3l2.2,2.4l-1.5,1.8l-2.5-2.7l-1.5,1.4l3.1,3.3l-1.8,1.6L191,215.5z"/>
		<path d="M205.4,229l0.8-7.5l-4,4.9l-2.2-1.7l6.9-8.5l2.3,1.8l-0.8,7l3.8-4.6l2.2,1.7l-6.9,8.5L205.4,229z"/>
		<path d="M216.5,236.5c-2.9-1.6-3.7-4.5-1.9-7.6s4.9-3.7,7.5-2.2c0.9,0.5,1.7,1.2,2.3,2.1l-1.7,2.1c-0.3-0.7-0.9-1.4-1.6-1.8
			c-1.3-0.8-2.8-0.4-3.8,1.4s-0.6,3.2,0.7,4c0.7,0.4,1.6,0.6,2.4,0.6l-1,2.3C218.4,237.4,217.4,237.1,216.5,236.5"/>
		<path d="M224,240.1l4.2-10.1l6.9,2.8l-0.9,2.2l-4.1-1.6l-0.7,1.7l3.1,1.2l-0.6,2.3l-3.4-1.4l-0.8,1.9l4.2,1.7L231,243L224,240.1z"
			/>
		<path d="M242.3,246.3l5.5-10.2l3.9,0.6l1.9,11l-3.1,0.1l-0.3-2.4l-3.9-0.6l-1,2L242.3,246.3z M247.3,242.6l2.6,0.4l-0.6-4.4
			L247.3,242.6z"/>
		<path d="M263,248.6c-3.3,0-5.5-2.1-5.4-5.7c-0.2-2.9,2-5.4,4.9-5.6c0.2,0,0.4,0,0.5,0c1,0,2.1,0.2,3,0.7l-0.4,2.7
			c-0.6-0.5-1.4-0.8-2.2-0.8c-1.5,0-2.6,0.9-2.6,3s1.1,3.1,2.6,3.1c0.8,0,1.7-0.2,2.4-0.7l0.3,2.5
			C265.1,248.3,264.1,248.6,263,248.6"/>
		<path d="M275.5,239.3l1,8.2l-3.2,0.4l-1-8.2l-2.9,0.4l-0.3-2.6l8.9-1.1l0.7,2.6L275.5,239.3z"/>
		<path d="M284.3,246l-2.6-10.6l3-0.7l2.6,10.6L284.3,246z"/>
		<path d="M297.3,242.3c-2.8,1.1-5.7-0.2-7-3.4s0-6.1,2.8-7.2s5.7,0.2,7,3.4S300.1,241.2,297.3,242.3 M294.1,234.1
			c-1.3,0.5-1.5,2-0.9,3.7s1.9,2.7,3.2,2.2s1.5-2.1,0.8-3.7S295.3,233.6,294.1,234.1"/>
		<path d="M313,234.4l-6.8-3.4l3.2,5.4l-2.4,1.4l-5.6-9.4l2.5-1.5l6.4,3.1l-3-5.1l2.4-1.4l5.6,9.4L313,234.4z"/>
		<path d="M329.4,221.9c-2.4,2.3-5.4,2.2-7.9-0.3s-2.2-5.7,0-7.8c0.7-0.7,1.7-1.3,2.7-1.6l1.6,2.2c-0.8,0.1-1.6,0.4-2.2,1
			c-1.1,1-1.2,2.5,0.2,4s3,1.4,4,0.4c0.6-0.6,1-1.3,1.2-2.1l2,1.6C330.8,220.3,330.2,221.2,329.4,221.9"/>
		<path d="M334.9,215.8l-8.6-6.8l2-2.5l6.5,5.1l2.2-2.7l2.3,1.4L334.9,215.8z"/>
		<path d="M344.8,202.4c-1.5,2.5-3.7,3.2-6.3,1.7l-5.8-3.4l1.5-2.6l5.8,3.4c1,0.6,1.9,0.6,2.5-0.4s0.2-1.8-0.9-2.4l-5.8-3.4l1.6-2.6
			l5.8,3.3C345.9,197.6,346.3,199.9,344.8,202.4"/>
		<path d="M351.1,189.2l-1.6,3.9l-10.2-4l1.7-4.1c0.9-2.2,2.3-3.4,4.1-2.6c1,0.3,1.6,1.3,1.6,2.3c0.7-1,2-1.4,3.1-0.9
			C352,184.6,352.2,186.6,351.1,189.2 M342.8,186l-0.5,1.1l2.2,0.9l0.4-1.1c0.4-0.9,0.2-1.6-0.6-1.9S343.1,185.2,342.8,186
			 M346.7,187.5l-0.5,1.1l2.4,1l0.5-1.1c0.4-0.9,0.2-1.7-0.6-2S347.1,186.5,346.7,187.5"/>
		<path d="M178.7,162.4c0.3,2.6-1.5,4.6-4.4,5s-5.2-1.2-5.5-3.8c-0.2-1,0-1.9,0.4-2.8h1.2c-0.5,0.8-0.7,1.7-0.6,2.6
			c0.2,1.9,2,3,4.3,2.7s3.8-1.7,3.5-3.6c-0.1-1-0.6-1.9-1.3-2.6l1.1-0.3C178.1,160.4,178.6,161.3,178.7,162.4"/>
		<path d="M178,156.8l-9.7-3.9v-1.4l9.6-3.7l0.3,1.2l-3,1.1l-0.1,4.2l2.8,1.1L178,156.8z M174.1,154v-3.4l-4.6,1.6L174.1,154z"/>
		<path d="M178.5,144.4l-9.6-1.2l0.2-1.2l8.4,1.1l0.5-3.6l1.1,0L178.5,144.4z"/>
		<path d="M179.9,135.6l-9.4-2.1l0.3-1.2l9.4,2.1L179.9,135.6z"/>
		<path d="M173.7,126.1l2.9,0.9l1.1-3.3l1.1,0.2l-1.1,3.5l4.1,1.3l-0.4,1.2l-9.2-2.9l1.7-5.2l1.1,0.3L173.7,126.1z"/>
		<path d="M186.2,117.9c-1.1,2.3-3.7,3.2-6.4,1.9s-3.7-3.9-2.6-6.1s3.6-3.2,6.4-1.9S187.2,115.6,186.2,117.9 M178.1,114.2
			c-0.8,1.8,0.1,3.5,2.2,4.5s4.1,0.5,4.9-1.2s-0.1-3.5-2.2-4.5S178.9,112.4,178.1,114.2"/>
		<path d="M193,105.9l-4.9,0.2l-0.8,1.2l3.3,2.1l-0.7,1.1l-8.1-5.2l1.5-2.2c1.2-1.9,2.9-2.4,4.3-1.4c1.1,0.7,1.6,2.1,1.1,3.3
			l4.9-0.3L193,105.9z M184.2,103.6l-0.8,1.2l3,1.9l0.8-1.2c0.9-1.3,0.6-2.3-0.3-2.9S185,102.3,184.2,103.6"/>
		<path d="M200,97l-9.3-1.1l5.9,5l-0.8,0.9l-7.3-6.2l0.8-1l9,1l-5.7-4.8l0.8-0.9l7.3,6.2L200,97z"/>
		<path d="M204.1,92.9l-6.6-6.9l0.9-0.9L205,92L204.1,92.9z"/>
		<path d="M207.6,89.6l-2.9-10l1.1-0.8l8.9,5.3l-0.8,1l-2.7-1.6l-3.4,2.6l0.9,2.8L207.6,89.6z M207.4,84.8l2.7-2.1l-4.1-2.5
			L207.4,84.8z"/>
		<path d="M221.9,79.7l-0.8-10.3l1.2-0.6l7.6,6.9l-1,0.8l-2.3-2.1l-3.9,1.8l0.3,3L221.9,79.7z M222.7,75l3.1-1.5l-3.5-3.3L222.7,75z
			"/>
		<path d="M237,73.6c-2.6,0.8-4.9-0.5-5.8-3.3c-0.9-2.8,0.1-5.3,2.7-6.1c0.9-0.3,1.9-0.4,2.9-0.1l0.2,1.2c-0.9-0.3-1.8-0.3-2.7-0.1
			c-1.9,0.6-2.6,2.5-1.8,4.7s2.4,3.3,4.3,2.7c0.9-0.3,1.7-0.9,2.3-1.8l0.5,1C238.9,72.7,238,73.3,237,73.6"/>
		<path d="M242.3,71.8l1.9-10.2l1.4-0.3l5.6,8.6l-1.2,0.5l-1.7-2.6l-4.2,0.8l-0.5,2.9L242.3,71.8z M244.3,67.5l3.4-0.7l-2.6-4.1
			L244.3,67.5z"/>
		<path d="M257.4,69.6l-2.7,0.2l-0.6-9.5l2.7-0.2c3.3-0.2,5.2,1.7,5.4,4.5C262.4,67.3,260.6,69.4,257.4,69.6 M257,61.2l-1.5,0.1
			l0.4,7.3l1.5-0.1c2.3-0.1,3.7-1.5,3.6-3.9c0-1.9-1.5-3.5-3.4-3.5C257.3,61.1,257.1,61.1,257,61.2"/>
		<path d="M266.5,69.4l0.7-9.5l5.8,0.4l-0.1,1.1l-4.5-0.3l-0.2,2.9l3.6,0.3l0.1,1.1l-3.8-0.3l-0.2,3.3l4.6,0.3l-0.1,1.1L266.5,69.4z
			"/>
		<path d="M285.6,72.2l1.1-7.9l-4.8,7.2l-1.2-0.2l-1.3-8.5l-2.3,7.7l-1.1-0.2l2.8-9.1l1.7,0.4l1.3,8.5l4.8-7.2l1.7,0.4l-1.3,9.5
			L285.6,72.2z"/>
		<path d="M295.5,71.5l-1.4,3.6l-1.2-0.4l1.4-3.6l-1.2-6.4l1.3,0.2l0.9,5.4l4.2-3.3l1.3,0.5L295.5,71.5z"/>
		<path d="M309,82.8c-2.1-1.3-2.7-4-1.1-6.5c1.6-2.5,4.4-3.1,6.5-1.8s2.7,4,1.1,6.5S311.1,84.1,309,82.8 M313.8,75.4
			c-1.6-1-3.6-0.4-4.8,1.5s-1.1,3.9,0.6,5c1.6,1.1,3.5,0.3,4.8-1.6C315.6,78.5,315.5,76.5,313.8,75.4"/>
		<path d="M322.5,81.9l-2,2.3l2.6,2.2l-0.6,0.9l-2.8-2.4l-2.8,3.2l-1-0.8l6.3-7.2l4.2,3.6l-0.7,0.8L322.5,81.9z"/>
		<path d="M328.5,99.7c-0.7-0.8-1.2-1.8-1.5-2.8l1-0.6c0.2,1,0.7,2,1.3,2.8c0.9,1,1.9,1.2,2.6,0.6s0.6-1.2,0.1-2.8
			c-0.8-2-0.9-3,0.2-3.9c1.3-0.9,3-0.7,4,0.6c0,0,0,0,0,0.1c0.6,0.7,1,1.5,1.2,2.4l-1.1,0.6c-0.2-0.9-0.5-1.7-1.1-2.3
			c-0.5-0.8-1.5-1-2.3-0.5c0,0,0,0,0,0c-0.6,0.5-0.6,1.1,0,2.7c0.8,2.1,0.8,3.1-0.3,4C331.5,101.5,329.7,101.2,328.5,99.7"/>
		<path d="M335,108.6c-1.5-2.2-0.7-4.8,1.8-6.4s5.2-1.2,6.6,1c0.6,0.8,0.9,1.7,0.8,2.7l-1.1,0.5c0.1-0.9-0.1-1.8-0.6-2.6
			c-1.1-1.6-3.1-1.8-5-0.6s-2.6,3.2-1.5,4.8c0.6,0.8,1.4,1.4,2.3,1.7l-0.9,0.8C336.4,110.1,335.6,109.4,335,108.6"/>
		<path d="M338.6,114.4l8.6-4.4l0.6,1.1l-8.6,4.3L338.6,114.4z"/>
		<path d="M341.2,119.7l9-3.5l2.1,5.3l-1,0.4l-1.7-4.1l-2.7,1.1l1.4,3.3l-1,0.6l-1.4-3.5l-3.1,1.2l1.7,4.2l-1,0.4L341.2,119.7z"/>
		<path d="M346.2,135l6.2-6.9l-7.5,1.9l-0.3-1.1l9.3-2.4l0.3,1.2l-6,6.7l7.3-1.8l0.3,1.1l-9.4,2.4L346.2,135z"/>
		<path d="M347.6,144.3c-0.3-2.6,1.5-4.6,4.4-5s5.2,1.2,5.5,3.8c0.2,1,0,1.9-0.5,2.8h-1.2c0.5-0.8,0.7-1.7,0.6-2.6
			c-0.2-1.9-2-3-4.3-2.7s-3.8,1.7-3.5,3.6c0.1,1,0.6,1.9,1.3,2.6l-1.1,0.3C348.2,146.3,347.7,145.4,347.6,144.3"/>
		<path d="M348.3,150.9l9.6,0v5.7h-1.1v-4.4h-2.9v3.6l-1.1,0.2v-3.8l-3.3,0l0,4.6h-1.1L348.3,150.9z"/>
		<path d="M347.6,162.8c0.1-1.1,0.5-2.1,1-3l1.1,0.3c-0.6,0.9-1,1.8-1.1,2.9c-0.1,1.3,0.5,2.2,1.4,2.3s1.3-0.4,2.1-1.9
			c0.9-1.9,1.6-2.7,3-2.5c1.5,0.2,2.5,1.6,2.3,3.1c0,0.1,0,0.1,0,0.2c-0.1,0.9-0.4,1.8-0.9,2.5l-1.2-0.3c0.5-0.7,0.9-1.5,1-2.4
			c0.1-1.1-0.4-1.9-1.2-2s-1.2,0.4-1.9,1.9c-1,2-1.8,2.7-3.2,2.5C348.3,166.3,347.4,164.8,347.6,162.8"/>
		<path class="st3" d="M268.2,177.8c-0.9,1.6-2.7,3.5,0.2,4.3c1,0.3,2,0.2,3,0.5c0.7,0.2,2.8,2,1.3,2.6c-0.7,0.3-3.7-1.6-4.4-1.8
			c-1.3-0.7-2.7-1-4.2-1c-1.2,0.1-2.3,0.8-3.6,1c-0.8,0.2-9.4,2-9.5,1.7c-0.2-0.8,0.8-1.4,1.5-1.7c1.2-0.5,2.4-0.8,3.7-0.8
			c1.3-0.1,2.6-0.2,3.9-0.6c0.7-0.2,1.2-0.6,1.8-0.9s1.6-0.3,2.3-0.8c0.6-0.5,1.1-1.2,1.4-1.9c0.7-1.4,1.5-2.7,2.4-4
			c0.9-1.2,1.8-2.3,1.6-3.9c-0.3-1-0.8-1.9-1.5-2.6c-1.5-1.8-4-3.8-5-5.9c-0.7-1.5,0.6-3.8,2.6-3.4c1.8,0.1,3,2.4,3.5,3.8
			c0.7,1.8,0.4,3.3,1.8,4.9c0.6,0.7,1.4,1.4,1.3,2.3c-0.1,0.3-0.2,0.6-0.4,0.9C270.8,173,269.6,175.5,268.2,177.8"/>
		<g>
			<path class="st4" d="M317.8,193.5L293.9,159c-1.7,0.2-3.4,0.4-5.1,0.6l24.8,43.2C319.4,206,320.9,201,317.8,193.5"/>
			<path class="st4" d="M317,202.2l-26.1-42.9c-1.4,0.2-2.7,0.4-4.1,0.6l23.8,47.7C316.9,212.9,319.3,209.5,317,202.2"/>
			<path class="st4" d="M287.5,159.8c-1.6,0.3-3.2,0.6-4.7,1l19.7,44c6.5,7.2,10.3,6.3,8.8-0.6L287.5,159.8z"/>
			<path class="st4" d="M272.5,133.3c-4.2-4.1-8.2-7.7-13.8-10.4c-2.1-1-5.9-2.5-7.7-3.8c-5-3.6,0.2-7.3-0.1-15.1
				c-0.1-2.9-1.8-6.4-2.2-9.1c-0.3-2.3,0.1-11.9,3.1-14.6c-8.7-1.6-15.1,7.2-22.9,11.2c-6.8,3.5-13.2,8-11.7,16.5
				c0.6,2.9,2.1,5.6,4.3,7.6c1.9,1.7,4.7,5,4.3,8c-0.1,1.1-0.9,2.1-1.2,3.2c-5.4,18.7,4.6,34.1,37.2,38.2
				c19.4,2.4,22.5-7.4,26.9,8.7c-0.4-1.3,2.6-7.6,3.3-8.8c0.1-0.2,6.8,1.7,6.8,1.7S286.3,146.6,272.5,133.3"/>
		</g>
		<path class="st3" d="M257.3,179.6c-1.3,1.3-3.4,2.9-0.8,4.3c0.9,0.5,1.9,0.6,2.8,1.1c0.7,0.4,2.3,2.5,0.7,2.8
			c-0.7,0.1-3.2-2.3-3.9-2.7c-1.1-0.9-2.5-1.5-3.9-1.8c-1.2-0.1-3.9,1.4-5.1,1.4c-0.8,0-9,0.3-9,0c0-0.8,1.1-1.2,1.9-1.4
			c1.3-0.2,2.5-0.2,3.8,0c1.4,0,2.8-0.1,4.2-0.4c0.7-0.1,1.8-1.1,2.5-1.2c0.8,0,1.6-0.1,2.4-0.3c0.7-0.4,1.3-0.9,1.8-1.6
			c1-1.2,2.1-2.3,3.3-3.4c1.1-1,2.3-1.9,2.4-3.5c0-1-0.3-2-0.9-2.8c-1.1-2.1-3-4.6-3.6-6.8c-0.4-1.6,1.4-3.6,3.3-2.7
			c1.7,0.5,2.4,3,2.6,4.4c0.3,1.9-0.4,3.3,0.7,5.2c0.4,0.8,1.1,1.6,0.8,2.5c-0.1,0.3-0.3,0.6-0.5,0.8
			C260.9,175.5,259.1,177.7,257.3,179.6"/>
		<path d="M227.9,113.4c1.5-3,2.2-7.4,2.7-9.1c0.4-0.8,0.4-1.8,0-2.7c-0.6-0.6-1.3-0.9-2.1-1c-2.9-0.5-8.6-3.3-10,0
			c-1,2.3-1.5,4.9-1.2,7.4c0.5,2.8,2.9,7.4,6,8.2C225.4,116.8,226.8,115.4,227.9,113.4"/>
		<path class="st4" d="M270.9,127.1c-12.1-7.7-26.9-15.9-34.3,3.7c-1.8,4.9-0.9,10.4,2.2,14.5c2.9,3.8,7.2,4.2,11.7,6.2
			c9.6,4.2,18.2,5.9,28.6,7.8c5.3,1,5.2-0.5,10.1-0.1c2.3,0.1,4.6,0,6.9-0.1c0.1,0,5-0.7,4.6-1.2C298.5,154.8,286.4,137,270.9,127.1
			"/>
		<g>
			<path class="st3" d="M220.9,114.3c0-2.1-0.3-4.2-0.6-6.3l-0.1,0.1c-0.1-0.7-0.4-2.2-1.9-5.2c0,0-8.2,4.5-11.4,8.9
				C206.9,111.7,210.9,113.4,220.9,114.3"/>
			<path class="st3" d="M229.1,104.3c-0.2,1.3-1.5,2.2-2.8,2c-1.3-0.1-2.3-1.3-2.1-2.6c0,0,0,0,0,0c0.2-1.3,1.5-2.2,2.8-2
				C228.3,101.8,229.3,103,229.1,104.3C229.1,104.3,229.1,104.3,229.1,104.3"/>
			<path class="st3" d="M226.1,103.3c-0.1,0.3-0.4,0.5-0.7,0.5c-0.3,0-0.6-0.3-0.5-0.7c0,0,0,0,0,0c0.1-0.3,0.4-0.5,0.7-0.5
				C225.9,102.7,226.1,103,226.1,103.3C226.1,103.3,226.1,103.3,226.1,103.3"/>
		</g>
	</g>
</g>
</svg>
