<?xml version="1.0" encoding="UTF-8"?>
<svg width="150px" height="150px" viewBox="0 0 150 150" version="1.1" xmlns="https://www.w3.org/2000/svg" xmlns:xlink="https://www.w3.org/1999/xlink">
    <!-- Generator: Sketch 52.6 (67491) - https://www.bohemiancoding.com/sketch -->
    <title>Group 7</title>
    <desc>Created with Sketch.</desc>
    <g id="Group-7" stroke="none" stroke-width="1" fill="none" fill-rule="evenodd">
        <g fill-rule="nonzero">
            <rect id="Rectangle" x="16.6666667" y="0" width="16.6666667" height="16.6666667"></rect>
            <rect id="Rectangle-Copy-98" x="16.6666667" y="133.333333" width="16.6666667" height="16.6666667"></rect>
            <rect id="Rectangle-Copy-9" x="0" y="0" width="16.6666667" height="16.6666667"></rect>
            <rect id="Rectangle-Copy-99" x="0" y="133.333333" width="16.6666667" height="16.6666667"></rect>
            <rect id="Rectangle" fill="#000000" x="16.6666667" y="16.6666667" width="16.6666667" height="16.6666667"></rect>
            <rect id="Rectangle-Copy-10" x="0" y="16.6666667" width="16.6666667" height="16.6666667"></rect>
            <rect id="Rectangle" fill="#000000" x="16.6666667" y="33.3333333" width="16.6666667" height="16.6666667"></rect>
            <rect id="Rectangle-Copy-11" x="0" y="33.3333333" width="16.6666667" height="16.6666667"></rect>
            <rect id="Rectangle" fill="#000000" x="16.6666667" y="50" width="16.6666667" height="16.6666667"></rect>
            <rect id="Rectangle-Copy-12" x="0" y="50" width="16.6666667" height="16.6666667"></rect>
            <rect id="Rectangle" fill="#000000" x="16.6666667" y="66.6666667" width="16.6666667" height="16.6666667"></rect>
            <rect id="Rectangle-Copy-13" x="0" y="66.6666667" width="16.6666667" height="16.6666667"></rect>
            <rect id="Rectangle" fill="#000000" x="16.6666667" y="83.3333333" width="16.6666667" height="16.6666667"></rect>
            <rect id="Rectangle-Copy-14" x="0" y="83.3333333" width="16.6666667" height="16.6666667"></rect>
            <rect id="Rectangle" fill="#000000" x="16.6666667" y="100" width="16.6666667" height="16.6666667"></rect>
            <rect id="Rectangle-Copy-15" x="0" y="100" width="16.6666667" height="16.6666667"></rect>
            <rect id="Rectangle" fill="#000000" x="16.6666667" y="116.666667" width="16.6666667" height="16.6666667"></rect>
            <rect id="Rectangle-Copy-16" x="0" y="116.666667" width="16.6666667" height="16.6666667"></rect>
            <rect id="Rectangle" x="33.3333333" y="0" width="16.6666667" height="16.6666667"></rect>
            <rect id="Rectangle-Copy-100" x="33.3333333" y="133.333333" width="16.6666667" height="16.6666667"></rect>
            <rect id="Rectangle" fill="#000000" x="33.3333333" y="16.6666667" width="16.6666667" height="16.6666667"></rect>
            <rect id="Rectangle" fill="#000000" x="33.3333333" y="33.3333333" width="16.6666667" height="16.6666667"></rect>
            <rect id="Rectangle" x="33.3333333" y="50" width="16.6666667" height="16.6666667"></rect>
            <rect id="Rectangle" x="33.3333333" y="66.6666667" width="16.6666667" height="16.6666667"></rect>
            <rect id="Rectangle" x="33.3333333" y="83.3333333" width="16.6666667" height="16.6666667"></rect>
            <rect id="Rectangle" x="33.3333333" y="100" width="16.6666667" height="16.6666667"></rect>
            <rect id="Rectangle" fill="#000000" x="33.3333333" y="116.666667" width="16.6666667" height="16.6666667"></rect>
            <rect id="Rectangle" x="50" y="0" width="16.6666667" height="16.6666667"></rect>
            <rect id="Rectangle-Copy-101" x="50" y="133.333333" width="16.6666667" height="16.6666667"></rect>
            <rect id="Rectangle" fill="#000000" x="50" y="16.6666667" width="16.6666667" height="16.6666667"></rect>
            <rect id="Rectangle" x="50" y="33.3333333" width="16.6666667" height="16.6666667"></rect>
            <rect id="Rectangle" fill="#000000" x="50" y="50" width="16.6666667" height="16.6666667"></rect>
            <rect id="Rectangle" x="50" y="66.6666667" width="16.6666667" height="16.6666667"></rect>
            <rect id="Rectangle" x="50" y="83.3333333" width="16.6666667" height="16.6666667"></rect>
            <rect id="Rectangle" x="50" y="100" width="16.6666667" height="16.6666667"></rect>
            <rect id="Rectangle" fill="#000000" x="50" y="116.666667" width="16.6666667" height="16.6666667"></rect>
            <rect id="Rectangle" x="66.6666667" y="0" width="16.6666667" height="16.6666667"></rect>
            <rect id="Rectangle-Copy-102" x="66.6666667" y="133.333333" width="16.6666667" height="16.6666667"></rect>
            <rect id="Rectangle" fill="#000000" x="66.6666667" y="16.6666667" width="16.6666667" height="16.6666667"></rect>
            <rect id="Rectangle" x="66.6666667" y="33.3333333" width="16.6666667" height="16.6666667"></rect>
            <rect id="Rectangle" x="66.6666667" y="50" width="16.6666667" height="16.6666667"></rect>
            <rect id="Rectangle" fill="#000000" x="66.6666667" y="66.6666667" width="16.6666667" height="16.6666667"></rect>
            <rect id="Rectangle" x="66.6666667" y="83.3333333" width="16.6666667" height="16.6666667"></rect>
            <rect id="Rectangle" x="66.6666667" y="100" width="16.6666667" height="16.6666667"></rect>
            <rect id="Rectangle" fill="#000000" x="66.6666667" y="116.666667" width="16.6666667" height="16.6666667"></rect>
            <rect id="Rectangle" x="83.3333333" y="0" width="16.6666667" height="16.6666667"></rect>
            <rect id="Rectangle-Copy-103" x="83.3333333" y="133.333333" width="16.6666667" height="16.6666667"></rect>
            <rect id="Rectangle" fill="#000000" x="83.3333333" y="16.6666667" width="16.6666667" height="16.6666667"></rect>
            <rect id="Rectangle" x="83.3333333" y="33.3333333" width="16.6666667" height="16.6666667"></rect>
            <rect id="Rectangle" fill="#000000" x="83.3333333" y="50" width="16.6666667" height="16.6666667"></rect>
            <rect id="Rectangle" x="83.3333333" y="66.6666667" width="16.6666667" height="16.6666667"></rect>
            <rect id="Rectangle" x="83.3333333" y="83.3333333" width="16.6666667" height="16.6666667"></rect>
            <rect id="Rectangle" x="83.3333333" y="100" width="16.6666667" height="16.6666667"></rect>
            <rect id="Rectangle" fill="#000000" x="83.3333333" y="116.666667" width="16.6666667" height="16.6666667"></rect>
            <rect id="Rectangle" x="100" y="0" width="16.6666667" height="16.6666667"></rect>
            <rect id="Rectangle-Copy-104" x="100" y="133.333333" width="16.6666667" height="16.6666667"></rect>
            <rect id="Rectangle" fill="#000000" x="100" y="16.6666667" width="16.6666667" height="16.6666667"></rect>
            <rect id="Rectangle" fill="#000000" x="100" y="33.3333333" width="16.6666667" height="16.6666667"></rect>
            <rect id="Rectangle" x="100" y="50" width="16.6666667" height="16.6666667"></rect>
            <rect id="Rectangle" x="100" y="66.6666667" width="16.6666667" height="16.6666667"></rect>
            <rect id="Rectangle" x="100" y="83.3333333" width="16.6666667" height="16.6666667"></rect>
            <rect id="Rectangle" x="100" y="100" width="16.6666667" height="16.6666667"></rect>
            <rect id="Rectangle" fill="#000000" x="100" y="116.666667" width="16.6666667" height="16.6666667"></rect>
            <rect id="Rectangle" x="116.666667" y="0" width="16.6666667" height="16.6666667"></rect>
            <rect id="Rectangle-Copy-105" x="116.666667" y="133.333333" width="16.6666667" height="16.6666667"></rect>
            <rect id="Rectangle" fill="#000000" x="116.666667" y="16.6666667" width="16.6666667" height="16.6666667"></rect>
            <rect id="Rectangle" fill="#000000" x="116.666667" y="33.3333333" width="16.6666667" height="16.6666667"></rect>
            <rect id="Rectangle" fill="#000000" x="116.666667" y="50" width="16.6666667" height="16.6666667"></rect>
            <rect id="Rectangle" fill="#000000" x="116.666667" y="66.6666667" width="16.6666667" height="16.6666667"></rect>
            <rect id="Rectangle" fill="#000000" x="116.666667" y="83.3333333" width="16.6666667" height="16.6666667"></rect>
            <rect id="Rectangle" fill="#000000" x="116.666667" y="100" width="16.6666667" height="16.6666667"></rect>
            <rect id="Rectangle" fill="#000000" x="116.666667" y="116.666667" width="16.6666667" height="16.6666667"></rect>
            <rect id="Rectangle" x="133.333333" y="0" width="16.6666667" height="16.6666667"></rect>
            <rect id="Rectangle-Copy-106" x="133.333333" y="133.333333" width="16.6666667" height="16.6666667"></rect>
            <rect id="Rectangle" x="133.333333" y="16.6666667" width="16.6666667" height="16.6666667"></rect>
            <rect id="Rectangle" x="133.333333" y="33.3333333" width="16.6666667" height="16.6666667"></rect>
            <rect id="Rectangle" x="133.333333" y="50" width="16.6666667" height="16.6666667"></rect>
            <rect id="Rectangle" x="133.333333" y="66.6666667" width="16.6666667" height="16.6666667"></rect>
            <rect id="Rectangle" x="133.333333" y="83.3333333" width="16.6666667" height="16.6666667"></rect>
            <rect id="Rectangle" x="133.333333" y="100" width="16.6666667" height="16.6666667"></rect>
            <rect id="Rectangle" x="133.333333" y="116.666667" width="16.6666667" height="16.6666667"></rect>
        </g>
    </g>
</svg>