<?xml version="1.0" encoding="UTF-8"?>
<svg width="150px" height="150px" viewBox="0 0 150 150" version="1.1" xmlns="http://www.w3.org/2000/svg" xmlns:xlink="http://www.w3.org/1999/xlink">
    <!-- Generator: Sketch 52.6 (67491) - http://www.bohemiancoding.com/sketch -->
    <title>Group 8</title>
    <desc>Created with Sketch.</desc>
    <g id="Group-8" stroke="none" stroke-width="1" fill="none" fill-rule="evenodd">
        <g fill-rule="nonzero" id="Group-6">
            <g>
                <rect id="Rectangle-Copy-17" x="16.6666667" y="0" width="16.6666667" height="16.6666667"></rect>
                <rect id="Rectangle-Copy-89" x="16.6666667" y="133.333333" width="16.6666667" height="16.6666667"></rect>
                <rect id="Rectangle-Copy-18" x="0" y="0" width="16.6666667" height="16.6666667"></rect>
                <rect id="Rectangle-Copy-90" x="0" y="133.333333" width="16.6666667" height="16.6666667"></rect>
                <rect id="Rectangle-Copy-19" x="16.6666667" y="16.6666667" width="16.6666667" height="16.6666667"></rect>
                <rect id="Rectangle-Copy-20" x="0" y="16.6666667" width="16.6666667" height="16.6666667"></rect>
                <rect id="Rectangle-Copy-21" fill="#000000" x="16.6666667" y="33.3333333" width="16.6666667" height="16.6666667"></rect>
                <rect id="Rectangle-Copy-22" x="0" y="33.3333333" width="16.6666667" height="16.6666667"></rect>
                <rect id="Rectangle-Copy-23" fill="#000000" x="16.6666667" y="50" width="16.6666667" height="16.6666667"></rect>
                <rect id="Rectangle-Copy-24" x="0" y="50" width="16.6666667" height="16.6666667"></rect>
                <rect id="Rectangle-Copy-25" fill="#000000" x="16.6666667" y="66.6666667" width="16.6666667" height="16.6666667"></rect>
                <rect id="Rectangle-Copy-26" x="0" y="66.6666667" width="16.6666667" height="16.6666667"></rect>
                <rect id="Rectangle-Copy-27" x="16.6666667" y="83.3333333" width="16.6666667" height="16.6666667"></rect>
                <rect id="Rectangle-Copy-28" x="0" y="83.3333333" width="16.6666667" height="16.6666667"></rect>
                <rect id="Rectangle-Copy-29" x="16.6666667" y="100" width="16.6666667" height="16.6666667"></rect>
                <rect id="Rectangle-Copy-30" x="0" y="100" width="16.6666667" height="16.6666667"></rect>
                <rect id="Rectangle-Copy-31" x="16.6666667" y="116.666667" width="16.6666667" height="16.6666667"></rect>
                <rect id="Rectangle-Copy-32" x="0" y="116.666667" width="16.6666667" height="16.6666667"></rect>
                <rect id="Rectangle-Copy-33" x="33.3333333" y="0" width="16.6666667" height="16.6666667"></rect>
                <rect id="Rectangle-Copy-91" x="33.3333333" y="133.333333" width="16.6666667" height="16.6666667"></rect>
                <rect id="Rectangle-Copy-34" fill="#000000" x="33.3333333" y="16.6666667" width="16.6666667" height="16.6666667"></rect>
                <rect id="Rectangle-Copy-35" x="33.3333333" y="33.3333333" width="16.6666667" height="16.6666667"></rect>
                <rect id="Rectangle-Copy-36" x="33.3333333" y="50" width="16.6666667" height="16.6666667"></rect>
                <rect id="Rectangle-Copy-37" x="33.3333333" y="66.6666667" width="16.6666667" height="16.6666667"></rect>
                <rect id="Rectangle-Copy-38" fill="#000000" x="33.3333333" y="83.3333333" width="16.6666667" height="16.6666667"></rect>
                <rect id="Rectangle-Copy-39" x="33.3333333" y="100" width="16.6666667" height="16.6666667"></rect>
                <rect id="Rectangle-Copy-40" x="33.3333333" y="116.666667" width="16.6666667" height="16.6666667"></rect>
                <rect id="Rectangle-Copy-41" x="50" y="0" width="16.6666667" height="16.6666667"></rect>
                <rect id="Rectangle-Copy-92" x="50" y="133.333333" width="16.6666667" height="16.6666667"></rect>
                <rect id="Rectangle-Copy-42" fill="#000000" x="50" y="16.6666667" width="16.6666667" height="16.6666667"></rect>
                <rect id="Rectangle-Copy-43" x="50" y="33.3333333" width="16.6666667" height="16.6666667"></rect>
                <rect id="Rectangle-Copy-44" x="50" y="50" width="16.6666667" height="16.6666667"></rect>
                <rect id="Rectangle-Copy-45" x="50" y="66.6666667" width="16.6666667" height="16.6666667"></rect>
                <rect id="Rectangle-Copy-46" x="50" y="83.3333333" width="16.6666667" height="16.6666667"></rect>
                <rect id="Rectangle-Copy-47" fill="#000000" x="50" y="100" width="16.6666667" height="16.6666667"></rect>
                <rect id="Rectangle-Copy-48" x="50" y="116.666667" width="16.6666667" height="16.6666667"></rect>
                <rect id="Rectangle-Copy-49" x="66.6666667" y="0" width="16.6666667" height="16.6666667"></rect>
                <rect id="Rectangle-Copy-93" x="66.6666667" y="133.333333" width="16.6666667" height="16.6666667"></rect>
                <rect id="Rectangle-Copy-50" x="66.6666667" y="16.6666667" width="16.6666667" height="16.6666667"></rect>
                <rect id="Rectangle-Copy-51" fill="#000000" x="66.6666667" y="33.3333333" width="16.6666667" height="16.6666667"></rect>
                <rect id="Rectangle-Copy-52" x="66.6666667" y="50" width="16.6666667" height="16.6666667"></rect>
                <rect id="Rectangle-Copy-53" x="66.6666667" y="66.6666667" width="16.6666667" height="16.6666667"></rect>
                <rect id="Rectangle-Copy-54" x="66.6666667" y="83.3333333" width="16.6666667" height="16.6666667"></rect>
                <rect id="Rectangle-Copy-55" x="66.6666667" y="100" width="16.6666667" height="16.6666667"></rect>
                <rect id="Rectangle-Copy-56" fill="#000000" x="66.6666667" y="116.666667" width="16.6666667" height="16.6666667"></rect>
                <rect id="Rectangle-Copy-57" x="83.3333333" y="0" width="16.6666667" height="16.6666667"></rect>
                <rect id="Rectangle-Copy-94" x="83.3333333" y="133.333333" width="16.6666667" height="16.6666667"></rect>
                <rect id="Rectangle-Copy-58" fill="#000000" x="83.3333333" y="16.6666667" width="16.6666667" height="16.6666667"></rect>
                <rect id="Rectangle-Copy-59" x="83.3333333" y="33.3333333" width="16.6666667" height="16.6666667"></rect>
                <rect id="Rectangle-Copy-60" x="83.3333333" y="50" width="16.6666667" height="16.6666667"></rect>
                <rect id="Rectangle-Copy-61" x="83.3333333" y="66.6666667" width="16.6666667" height="16.6666667"></rect>
                <rect id="Rectangle-Copy-62" x="83.3333333" y="83.3333333" width="16.6666667" height="16.6666667"></rect>
                <rect id="Rectangle-Copy-63" fill="#000000" x="83.3333333" y="100" width="16.6666667" height="16.6666667"></rect>
                <rect id="Rectangle-Copy-64" x="83.3333333" y="116.666667" width="16.6666667" height="16.6666667"></rect>
                <rect id="Rectangle-Copy-65" x="100" y="0" width="16.6666667" height="16.6666667"></rect>
                <rect id="Rectangle-Copy-95" x="100" y="133.333333" width="16.6666667" height="16.6666667"></rect>
                <rect id="Rectangle-Copy-66" fill="#000000" x="100" y="16.6666667" width="16.6666667" height="16.6666667"></rect>
                <rect id="Rectangle-Copy-67" x="100" y="33.3333333" width="16.6666667" height="16.6666667"></rect>
                <rect id="Rectangle-Copy-68" x="100" y="50" width="16.6666667" height="16.6666667"></rect>
                <rect id="Rectangle-Copy-69" x="100" y="66.6666667" width="16.6666667" height="16.6666667"></rect>
                <rect id="Rectangle-Copy-70" fill="#000000" x="100" y="83.3333333" width="16.6666667" height="16.6666667"></rect>
                <rect id="Rectangle-Copy-71" x="100" y="100" width="16.6666667" height="16.6666667"></rect>
                <rect id="Rectangle-Copy-72" x="100" y="116.666667" width="16.6666667" height="16.6666667"></rect>
                <rect id="Rectangle-Copy-73" x="116.666667" y="0" width="16.6666667" height="16.6666667"></rect>
                <rect id="Rectangle-Copy-96" x="116.666667" y="133.333333" width="16.6666667" height="16.6666667"></rect>
                <rect id="Rectangle-Copy-74" x="116.666667" y="16.6666667" width="16.6666667" height="16.6666667"></rect>
                <rect id="Rectangle-Copy-75" fill="#000000" x="116.666667" y="33.3333333" width="16.6666667" height="16.6666667"></rect>
                <rect id="Rectangle-Copy-76" fill="#000000" x="116.666667" y="50" width="16.6666667" height="16.6666667"></rect>
                <rect id="Rectangle-Copy-77" fill="#000000" x="116.666667" y="66.6666667" width="16.6666667" height="16.6666667"></rect>
                <rect id="Rectangle-Copy-78" x="116.666667" y="83.3333333" width="16.6666667" height="16.6666667"></rect>
                <rect id="Rectangle-Copy-79" x="116.666667" y="100" width="16.6666667" height="16.6666667"></rect>
                <rect id="Rectangle-Copy-80" x="116.666667" y="116.666667" width="16.6666667" height="16.6666667"></rect>
                <rect id="Rectangle-Copy-81" x="133.333333" y="0" width="16.6666667" height="16.6666667"></rect>
                <rect id="Rectangle-Copy-97" x="133.333333" y="133.333333" width="16.6666667" height="16.6666667"></rect>
                <rect id="Rectangle-Copy-82" x="133.333333" y="16.6666667" width="16.6666667" height="16.6666667"></rect>
                <rect id="Rectangle-Copy-83" x="133.333333" y="33.3333333" width="16.6666667" height="16.6666667"></rect>
                <rect id="Rectangle-Copy-84" x="133.333333" y="50" width="16.6666667" height="16.6666667"></rect>
                <rect id="Rectangle-Copy-85" x="133.333333" y="66.6666667" width="16.6666667" height="16.6666667"></rect>
                <rect id="Rectangle-Copy-86" x="133.333333" y="83.3333333" width="16.6666667" height="16.6666667"></rect>
                <rect id="Rectangle-Copy-87" x="133.333333" y="100" width="16.6666667" height="16.6666667"></rect>
                <rect id="Rectangle-Copy-88" x="133.333333" y="116.666667" width="16.6666667" height="16.6666667"></rect>
            </g>
        </g>
    </g>
</svg>