<?xml version="1.0" encoding="utf-8"?>
<!-- Generator: Adobe Illustrator 21.1.0, SVG Export Plug-In . SVG Version: 6.00 Build 0)  -->
<svg version="1.1" id="Layer_1" xmlns="https://www.w3.org/2000/svg" xmlns:xlink="https://www.w3.org/1999/xlink" x="0px" y="0px"
	 viewBox="0 0 1600 663.5" style="enable-background:new 0 0 1600 663.5;" xml:space="preserve">
<style type="text/css">
	.st0{fill:#E86042;}
	.st1{fill:#D8533D;}
	.st2{fill:#EF6852;}
	.st3{fill:#4242E5;}
	.st4{fill:#3E3ED6;}
	.st5{fill:#5454ED;}
	.st6{fill:#C744E2;}
	.st7{fill:#B640D3;}
	.st8{fill:#CD54EA;}
	.st9{fill:#E2D344;}
	.st10{fill:#D3C140;}
	.st11{fill:#EAD854;}
	.st12{fill:#0080FF;}
	.st13{fill:#FFFFFF;}
	.st14{fill:#78D6FF;}
	.st15{fill:#F9F9F9;stroke:#E86042;stroke-width:6;stroke-miterlimit:10;}
	.st16{fill:#F9F9F9;stroke:#C744E2;stroke-width:6;stroke-miterlimit:10;}
	.st17{fill:#F9F9F9;stroke:#5454ED;stroke-width:6;stroke-miterlimit:10;}
	.st18{fill:#F9F9F9;stroke:#E2D344;stroke-width:6;stroke-miterlimit:10;}
</style>
<title>Artboard 14 copy@altertered-hat</title>
<g id="square1">
	<polygon class="st0" points="1056.6,609.4 1028.4,596.1 1028.4,567 1056.6,559.2 	"/>
	<polygon class="st1" points="1056.6,559.2 1084.9,566.9 1084.9,596.1 1056.6,609.4 	"/>
	<polygon class="st2" points="1084.9,566.9 1056.6,559.2 1028.4,567 1056.6,576.3 	"/>
</g>
<g>
	<polygon class="st0" points="928.8,80.5 904.8,69.2 904.8,44.4 928.8,37.7 	"/>
	<polygon class="st1" points="928.8,37.7 952.9,44.3 952.9,69.2 928.8,80.5 	"/>
	<polygon class="st2" points="952.9,44.3 928.8,37.7 904.8,44.4 928.8,52.3 	"/>
</g>
<g>
	<polygon class="st0" points="215.1,567 168.1,544.8 168.1,496.4 215.1,483.4 	"/>
	<polygon class="st1" points="215.1,483.4 262.2,496.3 262.2,544.8 215.1,567 	"/>
	<polygon class="st2" points="262.2,496.3 215.1,483.4 168.1,496.4 215.1,512 	"/>
</g>
<g>
	<polygon class="st0" points="1460.8,401 1435.4,389 1435.4,362.9 1460.8,355.9 	"/>
	<polygon class="st1" points="1460.8,355.9 1486.2,362.8 1486.2,389 1460.8,401 	"/>
	<polygon class="st2" points="1486.2,362.8 1460.8,355.9 1435.4,362.9 1460.8,371.3 	"/>
</g>
<g>
	<polygon class="st0" points="562.4,292.5 574.5,298.1 574.5,310.5 562.4,313.9 	"/>
	<polygon class="st1" points="562.4,313.9 550.4,310.6 550.4,298.1 562.4,292.5 	"/>
	<polygon class="st2" points="550.4,310.6 562.4,313.9 574.5,310.5 562.4,306.5 	"/>
</g>
<g>
	<polygon class="st3" points="427.5,17.5 473,39 473,85.7 427.5,98.3 	"/>
	<polygon class="st4" points="427.5,98.3 382,85.8 382,39 427.5,17.6 	"/>
	<polygon class="st5" points="382,85.8 427.5,98.3 473,85.7 427.5,70.7 	"/>
</g>
<g>
	<polygon class="st3" points="1265.8,196.5 1286,206 1286,226.8 1265.9,232.3 	"/>
	<polygon class="st4" points="1265.9,232.3 1245.7,226.8 1245.7,206 1265.8,196.5 	"/>
	<polygon class="st5" points="1245.7,226.8 1265.9,232.3 1286,226.8 1265.9,220.1 	"/>
</g>
<g>
	<polygon class="st3" points="725,590.2 703.5,580 703.5,558 725,552 	"/>
	<polygon class="st4" points="725,552 746.5,557.9 746.5,580 725,590.1 	"/>
	<polygon class="st5" points="746.5,557.9 725,552 703.5,558 725,565 	"/>
</g>
<g>
	<polygon class="st3" points="33.4,415.6 -0.5,399.6 -0.5,364.8 33.4,355.4 	"/>
	<polygon class="st4" points="33.4,355.4 67.3,364.7 67.3,399.6 33.4,415.6 	"/>
	<polygon class="st5" points="67.3,364.7 33.4,355.4 -0.5,364.8 33.4,376 	"/>
</g>
<g>
	<polygon class="st3" points="1051.8,357.7 1030.3,347.6 1030.3,325.5 1051.8,319.6 	"/>
	<polygon class="st4" points="1051.8,319.6 1073.3,325.4 1073.3,347.6 1051.8,357.7 	"/>
	<polygon class="st5" points="1073.3,325.4 1051.8,319.6 1030.3,325.5 1051.8,332.6 	"/>
</g>
<g>
	<polygon class="st3" points="1543.4,522 1554.5,527.2 1554.5,538.7 1543.4,541.7 	"/>
	<polygon class="st4" points="1543.4,541.7 1532.3,538.7 1532.3,527.2 1543.4,522 	"/>
	<polygon class="st5" points="1532.3,538.7 1543.4,541.7 1554.5,538.7 1543.4,535 	"/>
</g>
<g>
	<polygon class="st6" points="1148,72.5 1168,81.9 1168,102.5 1148,108.1 	"/>
	<polygon class="st7" points="1148,108.1 1127.9,102.6 1127.9,81.9 1148,72.5 	"/>
	<polygon class="st8" points="1127.9,102.6 1148,108.1 1168,102.5 1148,95.9 	"/>
</g>
<g>
	<polygon class="st6" points="428.3,415.9 410.4,407.5 410.4,389 428.3,384.1 	"/>
	<polygon class="st7" points="428.3,384.1 446.2,389 446.2,407.5 428.3,415.9 	"/>
	<polygon class="st8" points="446.2,389 428.3,384.1 410.4,389 428.3,395 	"/>
</g>
<g>
	<polygon class="st6" points="1544,146 1584.4,165 1584.4,206.6 1544.1,217.7 	"/>
	<polygon class="st7" points="1544.1,217.7 1503.6,206.6 1503.6,165 1544,146 	"/>
	<polygon class="st8" points="1503.6,206.6 1544.1,217.7 1584.4,206.6 1544,193.2 	"/>
</g>
<g>
	<polygon class="st9" points="458.8,628.7 430.5,615.3 430.5,586.2 458.8,578.4 	"/>
	<polygon class="st10" points="458.8,578.4 487.1,586.1 487.1,615.3 458.8,628.7 	"/>
	<polygon class="st11" points="487.1,586.1 458.8,578.4 430.5,586.2 458.8,595.6 	"/>
</g>
<g>
	<polygon class="st9" points="1219.6,464.5 1173,442.5 1173,394.5 1219.6,381.6 	"/>
	<polygon class="st10" points="1219.6,381.6 1266.3,394.4 1266.3,442.5 1219.6,464.5 	"/>
	<polygon class="st11" points="1266.3,394.4 1219.6,381.6 1173,394.5 1219.6,409.9 	"/>
</g>
<g>
	<polygon class="st9" points="53.2,71.8 73.8,81.5 73.8,102.8 53.2,108.4 	"/>
	<polygon class="st10" points="53.2,108.4 32.5,102.8 32.5,81.5 53.2,71.8 	"/>
	<polygon class="st11" points="32.5,102.8 53.2,108.4 73.8,102.8 53.2,95.9 	"/>
</g>
<g>
	<polygon class="st9" points="626,103.9 610.2,96.5 610.2,80.2 625.9,75.9 	"/>
	<polygon class="st10" points="625.9,75.9 641.7,80.2 641.7,96.5 626,103.9 	"/>
	<polygon class="st11" points="641.7,80.2 625.9,75.9 610.2,80.2 625.9,85.4 	"/>
</g>
<g>
	<polygon class="st6" points="260.5,188.5 292.9,203.8 292.9,237.2 260.5,246.2 	"/>
	<polygon class="st7" points="260.5,246.2 228,237.3 228,203.8 260.5,188.5 	"/>
	<polygon class="st8" points="228,237.3 260.5,246.2 292.9,237.2 260.5,226.5 	"/>
</g>
<g>
	<polygon class="st6" points="1331.3,577.7 1309.9,567.6 1309.9,545.6 1331.2,539.7 	"/>
	<polygon class="st7" points="1331.2,539.7 1352.6,545.6 1352.6,567.6 1331.3,577.7 	"/>
	<polygon class="st8" points="1352.6,545.6 1331.2,539.7 1309.9,545.6 1331.2,552.7 	"/>
</g>
<g>
	<polygon class="st9" points="1375,66.6 1390.8,74 1390.8,90.2 1375,94.6 	"/>
	<polygon class="st10" points="1375,94.6 1359.2,90.3 1359.2,74 1375,66.6 	"/>
	<polygon class="st11" points="1359.2,90.3 1375,94.6 1390.8,90.2 1375,85 	"/>
</g>
<g>
	<path class="st12" d="M940.8,170.6H671.6c-14.2,0-31.1,12.5-31.1,26.7v270.9c0,14.2,14.3,28.5,28.5,28.5h270.9
		c14.2,0,26.7-16.9,26.7-31.1V196.4C966.6,182.2,955.1,170.6,940.8,170.6C940.8,170.6,940.8,170.6,940.8,170.6z M954.1,453.2
		c0,14.2-11.5,25.8-25.7,25.8c0,0,0,0,0,0H684c-14.2,0-25.8-11.5-25.8-25.8V208.9c0-14.2,11.5-25.8,25.8-25.8c0,0,0,0,0,0h244.3
		c14.2,0,25.8,11.5,25.8,25.7c0,0,0,0,0,0V453.2z"/>
	<path class="st13" d="M654.8,190.2h288.6c2,0,3.6,1.6,3.6,3.6v288.6c0,2-1.6,3.6-3.6,3.6H654.8c-2,0-3.6-1.6-3.6-3.6V193.9
		C651.2,191.9,652.8,190.2,654.8,190.2z"/>
	<path class="st14" d="M933.7,177.8H664.5c-14.2,0-25.8,11.5-25.8,25.7c0,0,0,0,0,0v269.3c0,14.2,11.5,25.8,25.8,25.8h269.3
		c14.2,0,25.8-11.5,25.8-25.8V203.5C959.5,189.3,947.9,177.8,933.7,177.8C933.7,177.8,933.7,177.8,933.7,177.8z M947,470.4
		c0,8.7-7,15.7-15.7,15.7H666.9c-8.7,0-15.7-7-15.7-15.7V206c0-8.7,7-15.7,15.7-15.7h264.4c8.7,0,15.7,7,15.7,15.7V470.4z"/>
	<path class="st15" d="M665,202.7h55.4c0.8,0,1.4,0.6,1.4,1.4v55.4c0,0.8-0.6,1.4-1.4,1.4H665c-0.8,0-1.4-0.6-1.4-1.4v-55.4
		C663.6,203.3,664.2,202.7,665,202.7z"/>
	<path class="st15" d="M665,417.2h55.4c0.8,0,1.4,0.6,1.4,1.4V474c0,0.8-0.6,1.4-1.4,1.4H665c-0.8,0-1.4-0.6-1.4-1.4v-55.4
		C663.6,417.8,664.2,417.2,665,417.2z"/>
	<path class="st16" d="M665,345.7h55.4c0.8,0,1.4,0.6,1.4,1.4v55.4c0,0.8-0.6,1.4-1.4,1.4H665c-0.8,0-1.4-0.6-1.4-1.4v-55.4
		C663.6,346.3,664.2,345.7,665,345.7z"/>
	<path class="st17" d="M665,274.2h55.4c0.8,0,1.4,0.6,1.4,1.4V331c0,0.8-0.6,1.4-1.4,1.4H665c-0.8,0-1.4-0.6-1.4-1.4v-55.4
		C663.6,274.8,664.2,274.2,665,274.2z"/>
	<path class="st17" d="M736.5,417.2h55.4c0.8,0,1.4,0.6,1.4,1.4V474c0,0.8-0.6,1.4-1.4,1.4h-55.4c-0.8,0-1.4-0.6-1.4-1.4v-55.4
		C735.1,417.8,735.7,417.2,736.5,417.2z"/>
	<path class="st18" d="M736.5,345.7h55.4c0.8,0,1.4,0.6,1.4,1.4v55.4c0,0.8-0.6,1.4-1.4,1.4h-55.4c-0.8,0-1.4-0.6-1.4-1.4v-55.4
		C735.1,346.3,735.7,345.7,736.5,345.7z"/>
	<path class="st16" d="M736.5,274.2h55.4c0.8,0,1.4,0.6,1.4,1.4V331c0,0.8-0.6,1.4-1.4,1.4h-55.4c-0.8,0-1.4-0.6-1.4-1.4v-55.4
		C735.1,274.8,735.7,274.2,736.5,274.2z"/>
	<path class="st16" d="M808,417.2h55.4c0.8,0,1.4,0.6,1.4,1.4V474c0,0.8-0.6,1.4-1.4,1.4H808c-0.8,0-1.4-0.6-1.4-1.4v-55.4
		C806.7,417.8,807.3,417.2,808,417.2z"/>
	<path class="st15" d="M808,345.7h55.4c0.8,0,1.4,0.6,1.4,1.4v55.4c0,0.8-0.6,1.4-1.4,1.4H808c-0.8,0-1.4-0.6-1.4-1.4v-55.4
		C806.7,346.3,807.3,345.7,808,345.7z"/>
	<path class="st15" d="M808,274.2h55.4c0.8,0,1.4,0.6,1.4,1.4V331c0,0.8-0.6,1.4-1.4,1.4H808c-0.8,0-1.4-0.6-1.4-1.4v-55.4
		C806.7,274.8,807.3,274.2,808,274.2z"/>
	<path class="st18" d="M879.5,417.2H935c0.8,0,1.4,0.6,1.4,1.4V474c0,0.8-0.6,1.4-1.4,1.4h-55.4c-0.8,0-1.4-0.6-1.4-1.4v-55.4
		C878.2,417.8,878.8,417.2,879.5,417.2z"/>
	<path class="st17" d="M879.5,345.7H935c0.8,0,1.4,0.6,1.4,1.4v55.4c0,0.8-0.6,1.4-1.4,1.4h-55.4c-0.8,0-1.4-0.6-1.4-1.4v-55.4
		C878.2,346.3,878.8,345.7,879.5,345.7z"/>
	<path class="st18" d="M879.5,274.2H935c0.8,0,1.4,0.6,1.4,1.4V331c0,0.8-0.6,1.4-1.4,1.4h-55.4c-0.8,0-1.4-0.6-1.4-1.4v-55.4
		C878.2,274.8,878.8,274.2,879.5,274.2z"/>
	<path class="st18" d="M736.5,202.7h55.4c0.8,0,1.4,0.6,1.4,1.4v55.4c0,0.8-0.6,1.4-1.4,1.4h-55.4c-0.8,0-1.4-0.6-1.4-1.4v-55.4
		C735.1,203.3,735.7,202.7,736.5,202.7z"/>
	<path class="st17" d="M808,202.7h55.4c0.8,0,1.4,0.6,1.4,1.4v55.4c0,0.8-0.6,1.4-1.4,1.4H808c-0.8,0-1.4-0.6-1.4-1.4v-55.4
		C806.7,203.3,807.3,202.7,808,202.7z"/>
	<path class="st16" d="M879.5,202.7H935c0.8,0,1.4,0.6,1.4,1.4v55.4c0,0.8-0.6,1.4-1.4,1.4h-55.4c-0.8,0-1.4-0.6-1.4-1.4v-55.4
		C878.2,203.3,878.8,202.7,879.5,202.7z"/>
</g>
</svg>
