<svg id="Layer_1" data-name="Layer 1" xmlns="https://www.w3.org/2000/svg" viewBox="0 0 1200 349.7"><defs><style>.cls-1{fill:#e86042;}.cls-2{fill:#d8533d;}.cls-3{fill:#ef6852;}.cls-4{fill:#e8b180;}.cls-5{fill:#545353;}.cls-6{fill:#2d2d2d;}.cls-7{fill:#999696;}.cls-8{fill:#d8a57c;}.cls-11,.cls-9{fill:none;stroke-miterlimit:10;}.cls-9{stroke:#545353;stroke-width:5px;}.cls-10{font-size:23.64px;font-family:Nunito-SemiBold, Nunito;font-weight:700;}.cls-11{stroke:#000;stroke-width:2px;opacity:0.12;}.cls-12{opacity:0.24;}</style></defs><title>Artboard 9@altertered-hat</title><polygon class="cls-1" points="68.41 221.54 18.86 198.18 18.86 147.19 68.37 133.52 68.41 221.54"/><polygon class="cls-2" points="68.37 133.52 117.96 147.1 117.96 198.18 68.41 221.51 68.37 133.52"/><polygon class="cls-3" points="117.96 147.1 68.37 133.52 18.86 147.19 68.39 163.6 117.96 147.1"/><path class="cls-4" d="M171.86,171.23a85.35,85.35,0,0,1-1.89-9.69c-.79-5.7,1.54-10.54,4.13-15.63,4.47-8.81,12.52-17.17,23.07-17.17,16,0,29,19.45,29,43.45,0,7.92-2.12,14.46-4.09,21.92-1.57,5.92,1,11.1,4,16.5,6.34,11.42,16.11,20.56,25.61,29.33L294.7,279.7c3.13,2.89,6.52,6.34,6.42,10.6-.09,4.08-3.34,7.29-6.36,10l-28.53,25.91c-19-24.23-34.48-50.94-48.52-78.26-7-13.65-12.84-28.16-20.36-41.51-2.67-4.74-5.57-5.94-9.74-9-5.47-4-9.47-10.07-12.24-16.17A62.28,62.28,0,0,1,171.86,171.23Z"/><polygon class="cls-5" points="226.13 203.22 190.07 213.59 190.07 57.81 226.13 67.73 226.13 203.22"/><polygon class="cls-6" points="184.75 212.09 190.07 213.59 190.07 57.81 184.75 59.27 184.75 212.09"/><polygon class="cls-7" points="222.58 182.38 193.62 188.81 193.62 63.67 222.58 71.64 222.58 182.38"/><path class="cls-7" d="M212.47,197.16c0,3.17-1.37,6.12-3.1,6.61s-3.26-1.77-3.26-5.1,1.48-6.31,3.26-6.65S212.47,194,212.47,197.16Z"/><path class="cls-4" d="M215.62,127.73c1.16,2.78,7.21,2.9,13.5.27,1.56-.65,3.94-1.49,4.89-2.93a6.7,6.7,0,0,0,.35-5.64c-1.78-4.37-6.14-2.86-9.45-1.48C218.62,120.57,214.45,125,215.62,127.73Z"/><path class="cls-4" d="M216.34,137.91c1.16,2.78,7.21,2.9,13.5.27,1.56-.65,3.94-1.49,4.89-2.93a6.7,6.7,0,0,0,.35-5.64c-1.78-4.37-6.14-2.86-9.45-1.48C219.34,130.74,215.18,135.13,216.34,137.91Z"/><path class="cls-4" d="M216.34,148.08c1.16,2.78,7.21,2.9,13.5.27,1.56-.65,3.94-1.49,4.89-2.93a6.7,6.7,0,0,0,.35-5.64c-1.78-4.37-6.14-2.86-9.45-1.48C219.34,140.92,215.18,145.3,216.34,148.08Z"/><path class="cls-4" d="M216.34,158.25c1.16,2.78,7.21,2.9,13.5.27,1.56-.65,3.94-1.49,4.89-2.93a6.7,6.7,0,0,0,.35-5.64c-1.78-4.37-6.14-2.86-9.45-1.48C219.34,151.09,215.18,155.48,216.34,158.25Z"/><path class="cls-4" d="M186.2,145.62a12.19,12.19,0,0,1,1.36,3.67c1,6.51-2.68,12.2-4.08,18.3-1.34,5.81-1.6,10.86-6.77,14.91a107,107,0,0,1-8-45.84,12.89,12.89,0,0,1,1.23-5.72c2.25-4,9.65-5.35,13.49-7.18,5.72-2.72,11-6.18,16.62-9.17,2-1.09,4.61-2.18,6.54-.89a4.15,4.15,0,0,1,1.65,3.61,8.67,8.67,0,0,1-1.29,3.9c-4,7.06-10.44,7.49-16.67,11.33a11.53,11.53,0,0,0-5.3,8.32A8.25,8.25,0,0,0,186.2,145.62Z"/><path class="cls-8" d="M354.24,184.8c-8.31-15.4-15.27-32.16-14.62-47.91.14-3.36.74-6.35.17-9.67s-1.35-6.89-2-10.31c-1.22-6-2-12.72-5.3-18.07-2.68-4.38-7.1-7.34-11.38-9.89-3.93-2.34-7-5.84-10.16-9.14-1.3-1.37-2.26-3-3.49-4.44s-2.9-2.15-4.5-3.33c-2.23-1.65-4.11-3.7-6.28-5.39s-6.9-8.26-9.39-7.84c-3,.5-2,4.88-1.06,6.67a18.94,18.94,0,0,0,4.35,4.94c7.59,6.81,14.7,12.94,19,22.42a41.67,41.67,0,0,1,3.84,10.51c.89,4.25,1.76,8.23,1.41,12.62-.23,2.87-.89,7.32-2.24,9.76-1.29-3.95-4.94-5.06-6.89-8.19-1.42-2.27-1.33-5.39-1.42-8-.18-5.17.51-8.5-3-12.62-2.06-2.43-6-7.24-9.46-5.36.59,3.19,3.47,5.5,4.59,8.59s0,5.2-.12,8.3c-.29,6.11-2,14.9-.06,20.8a27.34,27.34,0,0,0,8.41,12.9c19.37,16.54,22.13,46,29,69.55,3.17,10.93,2.64,34.77,18,34.68,4.26,0,8.35-1.56,12.33-3.08l13.67-5.21c2.24-.85,4.65-1.85,5.82-3.94,2.62-4.68-12.89-21.73-15.6-26.25C363.49,200.85,358.68,193,354.24,184.8Z"/><path class="cls-9" d="M279.92,74.73a30.93,30.93,0,0,0-34,14.7c3,0,6.41.18,9.94,0l-11.17-.24-.12-14.8"/><text class="cls-10" transform="translate(16.44 37.21)">A</text><rect class="cls-11" x="0.33" y="6.38" width="399.58" height="336.93"/><path class="cls-4" d="M571.44,162.37a85.35,85.35,0,0,1-1.89-9.69c-.79-5.7,1.54-10.54,4.13-15.63,4.47-8.81,12.52-17.17,23.07-17.17,16,0,29,19.45,29,43.45,0,7.92-2.12,14.46-4.09,21.92-1.57,5.92,1,11.1,4,16.5,6.34,11.42,16.11,20.56,25.61,29.33l43.06,39.76c3.13,2.89,6.52,6.34,6.42,10.6-.09,4.08-3.34,7.29-6.36,10l-28.53,25.91c-19-24.23-34.48-50.94-48.52-78.26-7-13.65-12.84-28.16-20.36-41.51-2.67-4.74-5.57-5.94-9.74-9-5.47-4-9.47-10.07-12.24-16.17A62.28,62.28,0,0,1,571.44,162.37Z"/><polygon class="cls-5" points="625.71 194.35 589.66 204.72 589.66 48.94 625.71 58.86 625.71 194.35"/><polygon class="cls-6" points="584.34 203.22 589.66 204.72 589.66 48.94 584.34 50.41 584.34 203.22"/><polygon class="cls-7" points="622.17 173.51 593.2 179.94 593.2 54.81 622.17 62.77 622.17 173.51"/><path class="cls-7" d="M612,188.29c0,3.17-1.37,6.12-3.1,6.61s-3.26-1.77-3.26-5.1,1.48-6.31,3.26-6.65S612,185.12,612,188.29Z"/><path class="cls-4" d="M615.2,118.87c1.16,2.78,7.21,2.9,13.5.27,1.56-.65,3.94-1.49,4.89-2.93a6.7,6.7,0,0,0,.35-5.64c-1.78-4.37-6.14-2.86-9.45-1.48C618.2,111.7,614,116.09,615.2,118.87Z"/><path class="cls-4" d="M615.92,129c1.16,2.78,7.21,2.9,13.5.27,1.56-.65,3.94-1.49,4.89-2.93a6.7,6.7,0,0,0,.35-5.64c-1.78-4.37-6.14-2.86-9.45-1.48C618.93,121.88,614.76,126.26,615.92,129Z"/><path class="cls-4" d="M615.92,139.21c1.16,2.78,7.21,2.9,13.5.27,1.56-.65,3.94-1.49,4.89-2.93a6.7,6.7,0,0,0,.35-5.64c-1.78-4.37-6.14-2.86-9.45-1.48C618.93,132.05,614.76,136.44,615.92,139.21Z"/><path class="cls-4" d="M615.92,149.39c1.16,2.78,7.21,2.9,13.5.27,1.56-.65,3.94-1.49,4.89-2.93a6.7,6.7,0,0,0,.35-5.64c-1.78-4.37-6.14-2.86-9.45-1.48C618.93,142.23,614.76,146.61,615.92,149.39Z"/><path class="cls-4" d="M585.79,136.75a12.19,12.19,0,0,1,1.36,3.67c1,6.51-2.68,12.2-4.08,18.3-1.34,5.81-1.6,10.86-6.77,14.91a107,107,0,0,1-8-45.84,12.89,12.89,0,0,1,1.23-5.72c2.25-4,9.65-5.35,13.49-7.18,5.72-2.72,11-6.18,16.62-9.17,2-1.09,4.61-2.18,6.54-.89a4.15,4.15,0,0,1,1.65,3.61,8.67,8.67,0,0,1-1.29,3.9c-4,7.06-10.44,7.49-16.67,11.33a11.53,11.53,0,0,0-5.3,8.32A8.25,8.25,0,0,0,585.79,136.75Z"/><polygon class="cls-1" points="478.04 204.99 428.49 181.63 428.49 130.64 478 116.97 478.04 204.99"/><polygon class="cls-2" points="478 116.97 527.59 130.55 527.59 181.62 478.04 204.96 478 116.97"/><polygon class="cls-3" points="527.59 130.55 478 116.97 428.49 130.64 478.02 147.05 527.59 130.55"/><g class="cls-12"><polygon class="cls-1" points="478.04 210.96 421.77 184.43 421.77 126.53 478 111.01 478.04 210.96"/><polygon class="cls-2" points="478 111.01 534.3 126.42 534.3 184.42 478.04 210.92 478 111.01"/><polygon class="cls-3" points="534.3 126.42 478 111.01 421.77 126.53 478.02 145.16 534.3 126.42"/></g><ellipse class="cls-3" cx="604.73" cy="81.75" rx="5.02" ry="10.34"/><path class="cls-8" d="M726.46,151.59c-16-7.15-31.7-16.2-40.78-29.09-1.94-2.75-3.28-5.49-5.76-7.77s-5.27-4.64-7.9-6.93c-4.65-4-9.35-8.86-15.21-11.1a22.74,22.74,0,0,0-12.37-1.25c-7.49,1.27-12.83,1.13-19.56-3.07-4.5-2.81-9.19-5.43-13.54-8.45-2.49-1.73-4.29-4.31-6.72-5.88-6.52,8.35,14.95,19.11,20.84,22.41,6.3,3.53,13.43,6.75,18.94,11.47,3.3,2.82,6.41,5.46,8.81,9.15,1.57,2.42,3.75,6.35,4.17,9.1-3.43-2.34-7-1-10.46-2.3-2.5-.94-4.34-3.47-6-5.46-3.3-4-4.78-7.05-10-8.2-3.11-.68-9.14-2.1-10.77,1.51,2.41,2.17,6.1,2.25,8.87,4s3.19,4.11,5,6.66c3.49,5,7.52,13,12.62,16.53A27.34,27.34,0,0,0,661.1,148c25.44,1.31,45.58,23,65.33,37.52,9.17,6.74,23.27,26,35.41,16.54,3.36-2.61,5.67-6.32,7.9-10l7.67-12.45c1.25-2,2.56-4.3,2.21-6.67-.78-5.31-23.47-9.38-28.37-11.31C743.57,158.68,735,155.4,726.46,151.59Z"/><text class="cls-10" transform="translate(416.02 37.21)">B</text><rect class="cls-11" x="399.91" y="6.38" width="399.58" height="336.93"/><polygon class="cls-1" points="877.62 329.72 828.07 306.35 828.07 255.36 877.59 241.69 877.62 329.72"/><polygon class="cls-2" points="877.59 241.69 927.17 255.27 927.17 306.35 877.62 329.69 877.59 241.69"/><polygon class="cls-3" points="927.17 255.27 877.59 241.69 828.07 255.36 877.6 271.77 927.17 255.27"/><path class="cls-4" d="M971.62,146.41a85.35,85.35,0,0,1-1.89-9.69c-.79-5.7,1.54-10.54,4.13-15.63,4.47-8.81,12.52-17.17,23.07-17.17,16,0,29,19.45,29,43.45,0,7.92-2.12,14.46-4.09,21.92-1.57,5.92,1,11.1,4,16.5,6.34,11.42,16.11,20.56,25.61,29.33l43.06,39.76c3.13,2.89,6.52,6.34,6.42,10.6-.09,4.08-3.34,7.29-6.36,10L1066,301.42c-19-24.23-34.48-50.94-48.52-78.26-7-13.65-12.84-28.16-20.36-41.51-2.67-4.74-5.57-5.94-9.74-9-5.47-4-9.47-10.07-12.24-16.17A62.28,62.28,0,0,1,971.62,146.41Z"/><polygon class="cls-5" points="1025.89 178.4 989.83 188.76 989.83 32.98 1025.89 42.9 1025.89 178.4"/><polygon class="cls-6" points="984.51 187.26 989.83 188.76 989.83 32.98 984.51 34.45 984.51 187.26"/><polygon class="cls-7" points="1022.34 157.55 993.38 163.98 993.38 38.85 1022.34 46.81 1022.34 157.55"/><path class="cls-7" d="M1012.22,172.33c0,3.17-1.37,6.12-3.1,6.61s-3.26-1.77-3.26-5.1,1.48-6.31,3.26-6.65S1012.22,169.17,1012.22,172.33Z"/><path class="cls-4" d="M1015.37,102.91c1.16,2.78,7.21,2.9,13.5.27,1.56-.65,3.94-1.49,4.89-2.93a6.7,6.7,0,0,0,.35-5.64c-1.78-4.37-6.14-2.86-9.45-1.48C1018.37,95.74,1014.21,100.13,1015.37,102.91Z"/><path class="cls-4" d="M1016.1,113.08c1.16,2.78,7.21,2.9,13.5.27,1.56-.65,3.94-1.49,4.89-2.93a6.7,6.7,0,0,0,.35-5.64c-1.78-4.37-6.14-2.86-9.45-1.48C1019.1,105.92,1014.94,110.3,1016.1,113.08Z"/><path class="cls-4" d="M1016.1,123.25c1.16,2.78,7.21,2.9,13.5.27,1.56-.65,3.94-1.49,4.89-2.93a6.7,6.7,0,0,0,.35-5.64c-1.78-4.37-6.14-2.86-9.45-1.48C1019.1,116.09,1014.94,120.48,1016.1,123.25Z"/><path class="cls-4" d="M1016.1,133.43c1.16,2.78,7.21,2.9,13.5.27,1.56-.65,3.94-1.49,4.89-2.93a6.7,6.7,0,0,0,.35-5.64c-1.78-4.37-6.14-2.86-9.45-1.48C1019.1,126.27,1014.94,130.65,1016.1,133.43Z"/><path class="cls-4" d="M986,120.79a12.19,12.19,0,0,1,1.36,3.67c1,6.51-2.68,12.2-4.08,18.3-1.34,5.81-1.6,10.86-6.77,14.91a107,107,0,0,1-8-45.84,12.89,12.89,0,0,1,1.23-5.72c2.25-4,9.65-5.35,13.49-7.18,5.72-2.72,11-6.18,16.62-9.17,2-1.09,4.61-2.18,6.54-.89a4.15,4.15,0,0,1,1.65,3.61,8.67,8.67,0,0,1-1.29,3.9c-4,7.06-10.44,7.49-16.67,11.33a11.53,11.53,0,0,0-5.3,8.32A8.25,8.25,0,0,0,986,120.79Z"/><path class="cls-8" d="M1150.57,171.1c-7-16-12.58-33.3-10.63-48.95.42-3.34,1.26-6.26,1-9.62s-.78-7-1.19-10.44c-.72-6.12-1-12.84-3.8-18.44-2.32-4.58-6.47-7.9-10.53-10.79-3.73-2.66-6.54-6.4-9.38-9.94-1.18-1.48-2-3.19-3.12-4.71-1.22-1.68-2.72-2.38-4.21-3.69-2.09-1.82-3.79-4-5.82-5.89s-6.2-8.8-8.71-8.59c-3,.25-2.4,4.69-1.6,6.56a18.94,18.94,0,0,0,3.93,5.28c7,7.41,13.59,14.11,17.05,23.9a41.67,41.67,0,0,1,3,10.79c.54,4.31,1.07,8.35.37,12.69-.46,2.84-1.49,7.22-3,9.54-1-4-4.51-5.45-6.2-8.73-1.22-2.38-.88-5.48-.76-8.07.24-5.17,1.21-8.43-1.92-12.82-1.85-2.59-5.35-7.7-9-6.12.33,3.22,3,5.76,3.87,8.94s-.4,5.18-.8,8.26c-.79,6.07-3.17,14.69-1.77,20.72a27.34,27.34,0,0,0,7.32,13.55c17.95,18.07,18.27,47.68,23.15,71.7,2.26,11.15-.23,34.87,15.09,36,4.25.33,8.45-.87,12.54-2.06l14-4.07c2.3-.67,4.79-1.46,6.12-3.45,3-4.45-11.07-22.72-13.39-27.45C1158.47,187.85,1154.31,179.65,1150.57,171.1Z"/><g class="cls-12"><polygon class="cls-1" points="877.62 190.86 821.36 164.33 821.36 106.43 877.58 90.91 877.62 190.86"/><polygon class="cls-2" points="877.58 90.91 933.89 106.33 933.89 164.32 877.62 190.82 877.58 90.91"/><polygon class="cls-3" points="933.89 106.33 877.58 90.91 821.36 106.43 877.6 125.06 933.89 106.33"/></g><path class="cls-9" d="M1039.3,60.86a30.93,30.93,0,0,0,35.92-9c-2.92-.48-6.29-1.22-9.81-1.6l11,2-2.27,14.62"/><path class="cls-9" d="M877.57,199s-.07,32.7,0,32.49c.43-.43,8.6-7.34,8.6-7.34s-8.39,7.4-8.6,7.34c-2.81-2.28-5.91-4.58-8.72-6.86"/><text class="cls-10" transform="translate(816.19 37.21)">C</text><rect class="cls-11" x="800.09" y="6.38" width="399.58" height="336.93"/></svg>