<svg id="Layer_1" data-name="Layer 1" xmlns="http://www.w3.org/2000/svg" viewBox="0 0 1200 349.7"><defs><style>.cls-1{font-size:23.64px;font-family:Nunito-SemiBold, Nunito;font-weight:700;}.cls-2,.cls-9{fill:none;stroke-miterlimit:10;}.cls-2{stroke:#000;stroke-width:2px;opacity:0.12;}.cls-3{fill:#e8b180;}.cls-4{fill:#545353;}.cls-5{fill:#d8533d;}.cls-6{fill:#2d2d2d;}.cls-7{fill:#999696;}.cls-8{fill:#d8a57c;}.cls-9{stroke:#545353;stroke-width:5px;}.cls-10{fill:#e86042;}.cls-11{fill:#ef6852;}.cls-12{fill:#4242e5;}.cls-13{fill:#6c6cf4;}.cls-14{opacity:0.24;}.cls-15{fill:#5656e2;}.cls-16{fill:#d65641;}.cls-17{fill:#ef4d33;}</style></defs><title>Artboard 9 copy 2@altertered-hat</title><text class="cls-1" transform="translate(16.44 37.21)">A</text><rect class="cls-2" x="0.33" y="6.38" width="399.58" height="336.93"/><text class="cls-1" transform="translate(416.02 37.21)">B</text><rect class="cls-2" x="399.91" y="6.38" width="399.58" height="336.93"/><text class="cls-1" transform="translate(816.19 37.21)">C</text><rect class="cls-2" x="800.09" y="6.38" width="399.58" height="336.93"/><path class="cls-3" d="M104.81,240.91c-4.47-8.81-12.52-17.17-23.07-17.17-16,0-29,19.45-29,43.45,0,7.92,2.12,14.46,4.09,21.92,1.57,5.92-1,11.1-4,16.5,0,0,5.46,27.62,13.46,27.62,3.82,0,15.22-31.75,15.22-31.75,2.67-4.74,5.57-5.94,9.74-9,5.47-4,9.47-10.07,12.24-16.17A62.27,62.27,0,0,0,107,266.23a85.35,85.35,0,0,0,1.89-9.69C109.73,250.85,107.4,246,104.81,240.91Z"/><polygon class="cls-4" points="52.78 298.22 88.84 308.59 88.84 152.81 52.78 162.73 52.78 298.22"/><rect class="cls-5" x="88.84" y="152.81" height="155.78"/><polygon class="cls-6" points="94.16 307.09 88.84 308.59 88.84 152.81 94.16 154.27 94.16 307.09"/><polygon class="cls-7" points="56.33 277.38 85.29 283.81 85.29 158.68 56.33 166.64 56.33 277.38"/><path class="cls-7" d="M66.44,292.16c0,3.17,1.37,6.12,3.1,6.61s3.26-1.77,3.26-5.1-1.48-6.31-3.26-6.65S66.44,289,66.44,292.16Z"/><path class="cls-3" d="M63.29,222.73c-1.16,2.78-7.21,2.9-13.5.27-1.56-.65-3.94-1.49-4.89-2.93a6.7,6.7,0,0,1-.35-5.64c1.78-4.37,6.14-2.86,9.45-1.48C60.29,215.57,64.45,220,63.29,222.73Z"/><path class="cls-3" d="M62.57,232.91c-1.16,2.78-7.21,2.9-13.5.27-1.56-.65-3.94-1.49-4.89-2.93a6.7,6.7,0,0,1-.35-5.64c1.78-4.37,6.14-2.86,9.45-1.48C59.57,225.74,63.73,230.13,62.57,232.91Z"/><path class="cls-3" d="M62.57,243.08c-1.16,2.78-7.21,2.9-13.5.27-1.56-.65-3.94-1.49-4.89-2.93a6.7,6.7,0,0,1-.35-5.64c1.78-4.37,6.14-2.86,9.45-1.48C59.57,235.92,63.73,240.3,62.57,243.08Z"/><path class="cls-3" d="M62.57,253.25c-1.16,2.78-7.21,2.9-13.5.27-1.56-.65-3.94-1.49-4.89-2.93a6.7,6.7,0,0,1-.35-5.64c1.78-4.37,6.14-2.86,9.45-1.48C59.57,246.09,63.73,250.48,62.57,253.25Z"/><path class="cls-3" d="M92.71,240.62a12.19,12.19,0,0,0-1.36,3.67c-1,6.51,2.68,12.2,4.08,18.3,1.34,5.81,1.6,10.86,6.77,14.91a107,107,0,0,0,8-45.84,12.89,12.89,0,0,0-1.23-5.72c-2.25-4-9.65-5.35-13.49-7.18-5.72-2.72-11-6.18-16.62-9.17-2-1.09-4.61-2.18-6.54-.89a4.15,4.15,0,0,0-1.65,3.61,8.67,8.67,0,0,0,1.29,3.9c4,7.06,10.44,7.49,16.67,11.33a11.53,11.53,0,0,1,5.3,8.32A8.25,8.25,0,0,1,92.71,240.62Z"/><path class="cls-3" d="M215.33,238.91c4.47-8.81,12.52-17.17,23.07-17.17,16,0,29,19.45,29,43.45,0,7.92-2.12,14.46-4.09,21.92-1.57,5.92,1,11.1,4,16.5,0,0-5.46,27.62-13.46,27.62-3.82,0-15.22-31.75-15.22-31.75-2.67-4.74-5.57-5.94-9.74-9-5.47-4-9.47-10.07-12.24-16.17a62.27,62.27,0,0,1-3.52-10.09,85.35,85.35,0,0,1-1.89-9.69C210.41,248.85,212.75,244,215.33,238.91Z"/><polygon class="cls-4" points="267.36 296.22 231.31 306.59 231.31 150.81 267.36 160.73 267.36 296.22"/><polygon class="cls-6" points="225.99 305.09 231.31 306.59 231.31 150.81 225.99 152.27 225.99 305.09"/><polygon class="cls-7" points="263.82 275.38 234.85 281.81 234.85 156.68 263.82 164.64 263.82 275.38"/><path class="cls-7" d="M253.7,290.16c0,3.17-1.37,6.12-3.1,6.61s-3.26-1.77-3.26-5.1,1.48-6.31,3.26-6.65S253.7,287,253.7,290.16Z"/><path class="cls-3" d="M256.85,220.73c1.16,2.78,7.21,2.9,13.5.27,1.56-.65,3.94-1.49,4.89-2.93a6.7,6.7,0,0,0,.35-5.64c-1.78-4.37-6.14-2.86-9.45-1.48C259.85,213.57,255.69,218,256.85,220.73Z"/><path class="cls-3" d="M257.58,230.91c1.16,2.78,7.21,2.9,13.5.27,1.56-.65,3.94-1.49,4.89-2.93a6.7,6.7,0,0,0,.35-5.64c-1.78-4.37-6.14-2.86-9.45-1.48C260.58,223.74,256.41,228.13,257.58,230.91Z"/><path class="cls-3" d="M257.58,241.08c1.16,2.78,7.21,2.9,13.5.27,1.56-.65,3.94-1.49,4.89-2.93a6.7,6.7,0,0,0,.35-5.64c-1.78-4.37-6.14-2.86-9.45-1.48C260.58,233.92,256.41,238.3,257.58,241.08Z"/><path class="cls-3" d="M257.58,251.25c1.16,2.78,7.21,2.9,13.5.27,1.56-.65,3.94-1.49,4.89-2.93a6.7,6.7,0,0,0,.35-5.64c-1.78-4.37-6.14-2.86-9.45-1.48C260.58,244.09,256.41,248.48,257.58,251.25Z"/><path class="cls-3" d="M227.44,238.62a12.19,12.19,0,0,1,1.36,3.67c1,6.51-2.68,12.2-4.08,18.3-1.34,5.81-1.6,10.86-6.77,14.91a107,107,0,0,1-8-45.84,12.89,12.89,0,0,1,1.23-5.72c2.25-4,9.65-5.35,13.49-7.18,5.72-2.72,11-6.18,16.62-9.17,2-1.09,4.61-2.18,6.54-.89a4.15,4.15,0,0,1,1.65,3.61,8.67,8.67,0,0,1-1.29,3.9c-4,7.06-10.44,7.49-16.67,11.33a11.53,11.53,0,0,0-5.3,8.32A8.25,8.25,0,0,0,227.44,238.62Z"/><path class="cls-8" d="M320.48,151.81c2.49-.42,7.3,6.22,9.39,7.84s4.05,3.74,6.28,5.39c1.6,1.18,3.15,1.76,4.5,3.33s2.19,3.06,3.49,4.44c3.11,3.29,6.23,6.79,10.16,9.14,4.28,2.55,8.69,5.51,11.38,9.89,3.28,5.35,4.08,12,5.3,18.07.69,3.42,1.44,6.85,2,10.31s0,6.31-.17,9.67c0,0-2.91,29.66-11,31.34-8.68,1.78-24-26.05-24-26.05a27.34,27.34,0,0,1-8.41-12.9c-1.89-5.9-.22-14.69.06-20.8.15-3.1,1.29-5.09.12-8.3s-4-5.4-4.59-8.59c3.49-1.87,7.4,2.93,9.46,5.36,3.48,4.11,2.79,7.44,3,12.62.09,2.59,0,5.71,1.42,8,2,3.13,5.6,4.24,6.89,8.19,1.35-2.44,2-6.88,2.24-9.76.35-4.38-.52-8.37-1.41-12.62a41.67,41.67,0,0,0-3.84-10.51c-4.26-9.48-11.37-15.61-19-22.42a18.94,18.94,0,0,1-4.35-4.94C318.47,156.69,317.5,152.31,320.48,151.81Z"/><path class="cls-9" d="M313.15,167.73a30.93,30.93,0,0,0-34,14.7c3,0,6.41.18,9.94,0l-11.17-.24-.12-14.8"/><polygon class="cls-10" points="155.46 151.54 105.91 128.18 105.91 77.19 155.43 63.52 155.46 151.54"/><polygon class="cls-5" points="155.43 63.52 205.01 77.1 204.96 118.17 181.33 129.23 181.33 139.21 155.46 151.51 155.43 63.52"/><polygon class="cls-11" points="133.24 69.65 105.91 77.19 155.44 93.6 180.51 85.25 133.24 69.65"/><polygon class="cls-12" points="180.33 85.23 204.96 77.1 204.96 128.18 181.33 139.23 180.33 85.23"/><polygon class="cls-13" points="204.96 77.1 155.37 63.52 133.24 69.63 180.17 85.35 204.96 77.1"/><path class="cls-3" d="M566.81,233.91c-4.47-8.81-12.52-17.17-23.07-17.17-16,0-29,19.45-29,43.45,0,7.92,2.12,14.46,4.09,21.92,1.57,5.92-1,11.1-4,16.5,0,0,5.46,27.62,13.46,27.62,3.82,0,15.22-31.75,15.22-31.75,2.67-4.74,5.57-5.94,9.74-9,5.47-4,9.47-10.07,12.24-16.17A62.27,62.27,0,0,0,569,259.23a85.35,85.35,0,0,0,1.89-9.69C571.73,243.85,569.4,239,566.81,233.91Z"/><polygon class="cls-4" points="514.78 291.22 550.84 301.59 550.84 145.81 514.78 155.73 514.78 291.22"/><rect class="cls-5" x="550.84" y="145.81" height="155.78"/><polygon class="cls-6" points="556.16 300.09 550.84 301.59 550.84 145.81 556.16 147.27 556.16 300.09"/><polygon class="cls-7" points="518.33 270.38 547.29 276.81 547.29 151.68 518.33 159.64 518.33 270.38"/><path class="cls-7" d="M528.44,285.16c0,3.17,1.37,6.12,3.1,6.61s3.26-1.77,3.26-5.1-1.48-6.31-3.26-6.65S528.44,282,528.44,285.16Z"/><path class="cls-3" d="M525.29,215.73c-1.16,2.78-7.21,2.9-13.5.27-1.56-.65-3.94-1.49-4.89-2.93a6.7,6.7,0,0,1-.35-5.64c1.78-4.37,6.14-2.86,9.45-1.48C522.29,208.57,526.45,213,525.29,215.73Z"/><path class="cls-3" d="M524.57,225.91c-1.16,2.78-7.21,2.9-13.5.27-1.56-.65-3.94-1.49-4.89-2.93a6.7,6.7,0,0,1-.35-5.64c1.78-4.37,6.14-2.86,9.45-1.48C521.57,218.74,525.73,223.13,524.57,225.91Z"/><path class="cls-3" d="M524.57,236.08c-1.16,2.78-7.21,2.9-13.5.27-1.56-.65-3.94-1.49-4.89-2.93a6.7,6.7,0,0,1-.35-5.64c1.78-4.37,6.14-2.86,9.45-1.48C521.57,228.92,525.73,233.3,524.57,236.08Z"/><path class="cls-3" d="M524.57,246.25c-1.16,2.78-7.21,2.9-13.5.27-1.56-.65-3.94-1.49-4.89-2.93a6.7,6.7,0,0,1-.35-5.64c1.78-4.37,6.14-2.86,9.45-1.48C521.57,239.09,525.73,243.48,524.57,246.25Z"/><path class="cls-3" d="M554.71,233.62a12.19,12.19,0,0,0-1.36,3.67c-1,6.51,2.68,12.2,4.08,18.3,1.34,5.81,1.6,10.86,6.77,14.91a107,107,0,0,0,8-45.84,12.89,12.89,0,0,0-1.23-5.72c-2.25-4-9.65-5.35-13.49-7.18-5.72-2.72-11-6.18-16.62-9.17-2-1.09-4.61-2.18-6.54-.89a4.15,4.15,0,0,0-1.65,3.61,8.67,8.67,0,0,0,1.29,3.9c4,7.06,10.44,7.49,16.67,11.33a11.53,11.53,0,0,1,5.3,8.32A8.25,8.25,0,0,1,554.71,233.62Z"/><path class="cls-8" d="M461.67,146.81c-2.49-.42-7.3,6.22-9.39,7.84S448.23,158.4,446,160c-1.6,1.18-3.15,1.76-4.5,3.33s-2.19,3.06-3.49,4.44c-3.11,3.29-6.23,6.79-10.16,9.14-4.28,2.55-8.69,5.51-11.38,9.89-3.28,5.35-4.08,12-5.3,18.07-.69,3.42-1.44,6.85-2,10.31s0,6.31.17,9.67c0,0,2.91,29.66,11,31.34,8.68,1.78,24-26.05,24-26.05a27.34,27.34,0,0,0,8.41-12.9c1.89-5.9.22-14.69-.06-20.8-.15-3.1-1.29-5.09-.12-8.3s4-5.4,4.59-8.59c-3.49-1.87-7.4,2.93-9.46,5.36-3.48,4.11-2.79,7.44-3,12.62-.09,2.59,0,5.71-1.42,8-2,3.13-5.6,4.24-6.89,8.19-1.35-2.44-2-6.88-2.24-9.76-.35-4.38.52-8.37,1.41-12.62a41.67,41.67,0,0,1,3.84-10.51c4.26-9.48,11.37-15.61,19-22.42a18.94,18.94,0,0,0,4.35-4.94C463.68,151.69,464.64,147.31,461.67,146.81Z"/><path class="cls-9" d="M469,162.73a30.93,30.93,0,0,1,34,14.7c-3,0-6.41.18-9.94,0l11.17-.24.12-14.8"/><g class="cls-14"><polygon class="cls-15" points="602.67 151.96 546.4 125.43 546.4 47.53 602.63 32.01 602.67 151.96"/><polygon class="cls-12" points="602.63 32.01 658.93 47.42 658.93 125.42 602.67 151.92 602.63 32.01"/><polygon class="cls-13" points="658.93 47.42 602.63 32.01 546.4 47.53 602.64 66.16 658.93 47.42"/></g><polygon class="cls-10" points="601.46 142.54 551.91 119.18 551.91 68.19 601.42 54.52 601.46 142.54"/><polygon class="cls-5" points="601.42 54.52 651.01 68.1 650.96 109.17 627.33 120.23 627.33 130.21 601.46 142.51 601.42 54.52"/><polygon class="cls-15" points="626.33 66.23 579.24 50.63 579.24 60.65 626.52 76.25 626.33 66.23"/><polygon class="cls-11" points="579.24 60.65 551.91 68.19 601.44 84.6 626.51 76.25 579.24 60.65"/><polygon class="cls-12" points="626.33 66.23 650.96 58.1 650.96 109.17 627.33 120.23 626.33 66.23"/><polygon class="cls-13" points="650.96 58.1 601.37 44.52 579.24 50.63 626.17 66.35 650.96 58.1"/><path class="cls-3" d="M712.25,279.24c2-7.46,4.09-14,4.09-21.92,0-24-13-43.45-29-43.45-10.55,0-18.6,8.36-23.07,17.17-2.58,5.09-4.92,9.93-4.13,15.63a85.37,85.37,0,0,0,1.89,9.69,62.28,62.28,0,0,0,3.52,10.09c2.77,6.1,6.76,12.18,12.24,16.17,4.17,3,7.07,4.25,9.74,9,0,0,5.4,20.29,10.77,20.62,4.5.28,17.92-16.48,17.92-16.48C713.25,290.34,710.68,285.17,712.25,279.24Z"/><polygon class="cls-4" points="716.34 288.35 680.28 298.72 680.28 142.94 716.34 152.86 716.34 288.35"/><polygon class="cls-6" points="674.96 297.22 680.28 298.72 680.28 142.94 674.96 144.41 674.96 297.22"/><polygon class="cls-7" points="712.79 267.51 683.83 273.94 683.83 148.81 712.79 156.77 712.79 267.51"/><path class="cls-7" d="M702.68,282.29c0,3.17-1.37,6.12-3.1,6.61s-3.26-1.77-3.26-5.1,1.48-6.31,3.26-6.65S702.68,279.12,702.68,282.29Z"/><path class="cls-3" d="M705.83,212.87c1.16,2.78,7.21,2.9,13.5.27,1.56-.65,3.94-1.49,4.89-2.93a6.7,6.7,0,0,0,.35-5.64c-1.78-4.37-6.14-2.86-9.45-1.48C708.83,205.7,704.67,210.09,705.83,212.87Z"/><path class="cls-3" d="M706.55,223c1.16,2.78,7.21,2.9,13.5.27,1.56-.65,3.94-1.49,4.89-2.93a6.7,6.7,0,0,0,.35-5.64c-1.78-4.37-6.14-2.86-9.45-1.48C709.55,215.88,705.39,220.26,706.55,223Z"/><path class="cls-3" d="M706.55,233.21c1.16,2.78,7.21,2.9,13.5.27,1.56-.65,3.94-1.49,4.89-2.93a6.7,6.7,0,0,0,.35-5.64c-1.78-4.37-6.14-2.86-9.45-1.48C709.55,226.05,705.39,230.44,706.55,233.21Z"/><path class="cls-3" d="M706.55,243.39c1.16,2.78,7.21,2.9,13.5.27,1.56-.65,3.94-1.49,4.89-2.93a6.7,6.7,0,0,0,.35-5.64c-1.78-4.37-6.14-2.86-9.45-1.48C709.55,236.23,705.39,240.61,706.55,243.39Z"/><path class="cls-3" d="M676.41,230.75a12.19,12.19,0,0,1,1.36,3.67c1,6.51-2.68,12.2-4.08,18.3-1.34,5.81-1.6,10.86-6.77,14.91a107,107,0,0,1-8-45.84,12.89,12.89,0,0,1,1.23-5.72c2.25-4,9.65-5.35,13.49-7.18,5.72-2.72,11-6.18,16.62-9.17,2-1.09,4.61-2.18,6.54-.89a4.15,4.15,0,0,1,1.65,3.61,8.67,8.67,0,0,1-1.29,3.9c-4,7.06-10.44,7.49-16.67,11.33a11.53,11.53,0,0,0-5.3,8.32A8.25,8.25,0,0,0,676.41,230.75Z"/><ellipse class="cls-13" cx="696.36" cy="175.75" rx="5.02" ry="10.34"/><path class="cls-8" d="M770.55,208.73c-2.59-2.38-5.27-4.64-7.9-6.93-4.65-4-9.35-8.86-15.21-11.1a22.74,22.74,0,0,0-12.37-1.25c-7.49,1.27-12.83,1.13-19.56-3.07-4.5-2.81-9.19-5.43-13.54-8.45-2.49-1.73-4.29-4.31-6.72-5.88-6.52,8.35,14.95,19.11,20.84,22.41,6.3,3.53,13.43,6.75,18.94,11.47,3.3,2.82,6.41,5.46,8.81,9.15,1.57,2.42,3.75,6.34,4.17,9.1-3.43-2.34-7-1-10.46-2.3-2.5-.94-4.34-3.47-6-5.46-3.3-4-4.78-7.05-10-8.2-3.11-.68-9.14-2.1-10.77,1.51,2.41,2.17,6.1,2.25,8.87,4s3.19,4.11,5,6.66c3.49,5,7.52,13,12.62,16.53A27.34,27.34,0,0,0,751.73,242s22.58,8.92,27.6,2.18c4.21-5.66-3-27.73-3-27.73C774.37,213.75,773,211,770.55,208.73Z"/><path class="cls-3" d="M1117.25,284.24c2-7.46,4.09-14,4.09-21.92,0-24-13-43.45-29-43.45-10.55,0-18.6,8.36-23.07,17.17-2.58,5.09-4.92,9.93-4.13,15.63a85.37,85.37,0,0,0,1.89,9.69,62.28,62.28,0,0,0,3.52,10.09c2.77,6.1,6.76,12.18,12.24,16.17,4.17,3,7.07,4.25,9.74,9,0,0,5.4,20.29,10.77,20.62,4.5.28,17.92-16.48,17.92-16.48C1118.25,295.34,1115.68,290.17,1117.25,284.24Z"/><polygon class="cls-4" points="1121.34 293.35 1085.28 303.72 1085.28 147.94 1121.34 157.86 1121.34 293.35"/><polygon class="cls-6" points="1079.96 302.22 1085.28 303.72 1085.28 147.94 1079.96 149.41 1079.96 302.22"/><polygon class="cls-7" points="1117.79 272.51 1088.83 278.94 1088.83 153.81 1117.79 161.77 1117.79 272.51"/><path class="cls-7" d="M1107.68,287.29c0,3.17-1.37,6.12-3.1,6.61s-3.26-1.77-3.26-5.1,1.48-6.31,3.26-6.65S1107.68,284.12,1107.68,287.29Z"/><path class="cls-3" d="M1110.83,217.87c1.16,2.78,7.21,2.9,13.5.27,1.56-.65,3.94-1.49,4.89-2.93a6.7,6.7,0,0,0,.35-5.64c-1.78-4.37-6.14-2.86-9.45-1.48C1113.83,210.7,1109.67,215.09,1110.83,217.87Z"/><path class="cls-3" d="M1111.55,228c1.16,2.78,7.21,2.9,13.5.27,1.56-.65,3.94-1.49,4.89-2.93a6.7,6.7,0,0,0,.35-5.64c-1.78-4.37-6.14-2.86-9.45-1.48C1114.55,220.88,1110.39,225.26,1111.55,228Z"/><path class="cls-3" d="M1111.55,238.21c1.16,2.78,7.21,2.9,13.5.27,1.56-.65,3.94-1.49,4.89-2.93a6.7,6.7,0,0,0,.35-5.64c-1.78-4.37-6.14-2.86-9.45-1.48C1114.55,231.05,1110.39,235.44,1111.55,238.21Z"/><path class="cls-3" d="M1111.55,248.39c1.16,2.78,7.21,2.9,13.5.27,1.56-.65,3.94-1.49,4.89-2.93a6.7,6.7,0,0,0,.35-5.64c-1.78-4.37-6.14-2.86-9.45-1.48C1114.55,241.23,1110.39,245.61,1111.55,248.39Z"/><path class="cls-3" d="M1081.41,235.75a12.19,12.19,0,0,1,1.36,3.67c1,6.51-2.68,12.2-4.08,18.3-1.34,5.81-1.6,10.86-6.77,14.91a107,107,0,0,1-8-45.84,12.89,12.89,0,0,1,1.23-5.72c2.25-4,9.65-5.35,13.49-7.18,5.72-2.72,11-6.18,16.62-9.17,2-1.09,4.61-2.18,6.54-.89a4.15,4.15,0,0,1,1.65,3.61,8.67,8.67,0,0,1-1.29,3.9c-4,7.06-10.44,7.49-16.67,11.33a11.53,11.53,0,0,0-5.3,8.32A8.25,8.25,0,0,0,1081.41,235.75Z"/><ellipse class="cls-13" cx="1101.36" cy="180.75" rx="5.02" ry="10.34"/><path class="cls-8" d="M1175.55,213.73c-2.59-2.38-5.27-4.64-7.9-6.93-4.65-4-9.35-8.86-15.21-11.1a22.74,22.74,0,0,0-12.37-1.25c-7.49,1.27-12.83,1.13-19.56-3.07-4.5-2.81-9.19-5.43-13.54-8.45-2.49-1.73-4.29-4.31-6.72-5.88-6.52,8.35,14.95,19.11,20.84,22.41,6.3,3.53,13.43,6.75,18.94,11.47,3.3,2.82,6.41,5.46,8.81,9.15,1.57,2.42,3.75,6.34,4.17,9.1-3.43-2.34-7-1-10.46-2.3-2.5-.94-4.34-3.47-6-5.46-3.3-4-4.78-7.05-10-8.2-3.11-.68-9.14-2.1-10.77,1.51,2.41,2.17,6.1,2.25,8.87,4s3.19,4.11,5,6.66c3.49,5,7.52,13,12.62,16.53a27.34,27.34,0,0,0,14.53,5.11s22.58,8.92,27.6,2.18c4.21-5.66-3-27.73-3-27.73C1179.37,218.75,1178,216,1175.55,213.73Z"/><path class="cls-3" d="M886.25,284.24c-2-7.46-4.09-14-4.09-21.92,0-24,13-43.45,29-43.45,10.55,0,18.6,8.36,23.07,17.17,2.58,5.09,4.92,9.93,4.13,15.63a85.37,85.37,0,0,1-1.89,9.69,62.28,62.28,0,0,1-3.52,10.09c-2.77,6.1-6.76,12.18-12.24,16.17-4.17,3-7.07,4.25-9.74,9,0,0-5.4,20.29-10.77,20.62-4.5.28-17.92-16.48-17.92-16.48C885.25,295.34,887.82,290.17,886.25,284.24Z"/><polygon class="cls-4" points="882.16 293.35 918.22 303.72 918.22 147.94 882.16 157.86 882.16 293.35"/><rect class="cls-5" x="918.21" y="147.94" height="155.78"/><polygon class="cls-6" points="923.53 302.22 918.22 303.72 918.22 147.94 923.53 149.41 923.53 302.22"/><polygon class="cls-7" points="885.7 272.51 914.67 278.94 914.67 153.81 885.7 161.77 885.7 272.51"/><path class="cls-7" d="M895.82,287.29c0,3.17,1.37,6.12,3.1,6.61s3.26-1.77,3.26-5.1-1.48-6.31-3.26-6.65S895.82,284.12,895.82,287.29Z"/><path class="cls-3" d="M892.67,217.87c-1.16,2.78-7.21,2.9-13.5.27-1.56-.65-3.94-1.49-4.89-2.93a6.7,6.7,0,0,1-.35-5.64c1.78-4.37,6.14-2.86,9.45-1.48C889.67,210.7,893.83,215.09,892.67,217.87Z"/><path class="cls-3" d="M891.95,228c-1.16,2.78-7.21,2.9-13.5.27-1.56-.65-3.94-1.49-4.89-2.93a6.7,6.7,0,0,1-.35-5.64c1.78-4.37,6.14-2.86,9.45-1.48C888.94,220.88,893.11,225.26,891.95,228Z"/><path class="cls-3" d="M891.95,238.21c-1.16,2.78-7.21,2.9-13.5.27-1.56-.65-3.94-1.49-4.89-2.93a6.7,6.7,0,0,1-.35-5.64c1.78-4.37,6.14-2.86,9.45-1.48C888.94,231.05,893.11,235.44,891.95,238.21Z"/><path class="cls-3" d="M891.95,248.39c-1.16,2.78-7.21,2.9-13.5.27-1.56-.65-3.94-1.49-4.89-2.93a6.7,6.7,0,0,1-.35-5.64c1.78-4.37,6.14-2.86,9.45-1.48C888.94,241.23,893.11,245.61,891.95,248.39Z"/><path class="cls-3" d="M922.08,235.75a12.19,12.19,0,0,0-1.36,3.67c-1,6.51,2.68,12.2,4.08,18.3,1.34,5.81,1.6,10.86,6.77,14.91a107,107,0,0,0,8-45.84,12.89,12.89,0,0,0-1.23-5.72c-2.25-4-9.65-5.35-13.49-7.18-5.72-2.72-11-6.18-16.62-9.17-2-1.09-4.61-2.18-6.54-.89a4.15,4.15,0,0,0-1.65,3.61,8.67,8.67,0,0,0,1.29,3.9c4,7.06,10.44,7.49,16.67,11.33a11.53,11.53,0,0,1,5.3,8.32A8.25,8.25,0,0,1,922.08,235.75Z"/><ellipse class="cls-10" cx="902.14" cy="180.75" rx="5.02" ry="10.34"/><path class="cls-8" d="M827.95,213.73c2.59-2.38,5.27-4.64,7.9-6.93,4.65-4,9.35-8.86,15.21-11.1a22.74,22.74,0,0,1,12.37-1.25c7.49,1.27,12.83,1.13,19.56-3.07,4.5-2.81,9.19-5.43,13.54-8.45,2.49-1.73,4.29-4.31,6.72-5.88,6.52,8.35-14.95,19.11-20.84,22.41-6.3,3.53-13.43,6.75-18.94,11.47-3.3,2.82-6.41,5.46-8.81,9.15-1.57,2.42-3.75,6.34-4.17,9.1,3.43-2.34,7-1,10.46-2.3,2.5-.94,4.34-3.47,6-5.46,3.3-4,4.78-7.05,10-8.2,3.11-.68,9.14-2.1,10.77,1.51-2.41,2.17-6.1,2.25-8.87,4s-3.19,4.11-5,6.66c-3.49,5-7.52,13-12.62,16.53A27.34,27.34,0,0,1,846.77,247s-22.58,8.92-27.6,2.18c-4.21-5.66,3-27.73,3-27.73C824.13,218.75,825.47,216,827.95,213.73Z"/><g class="cls-14"><polygon class="cls-15" points="1001.67 155 945.4 128.46 945.4 58.57 1001.63 43.05 1001.67 155"/><polygon class="cls-12" points="1001.63 43.05 1057.93 58.46 1057.93 128.46 1001.67 154.96 1001.63 43.05"/><polygon class="cls-13" points="1057.93 58.46 1001.63 43.05 945.4 58.57 1001.64 77.2 1057.93 58.46"/></g><polygon class="cls-10" points="1000.46 143.58 950.91 120.22 950.91 69.23 1000.42 55.56 1000.46 143.58"/><polygon class="cls-5" points="1000.42 55.56 1050.01 69.14 1049.96 110.21 1026.33 121.27 1026.33 131.25 1000.46 143.55 1000.42 55.56"/><polygon class="cls-11" points="978.24 61.69 950.91 69.23 1000.44 85.64 1025.52 77.29 978.24 61.69"/><polygon class="cls-12" points="1025.33 77.27 1049.96 69.14 1049.96 120.21 1026.33 131.27 1025.33 77.27"/><polygon class="cls-13" points="1049.96 69.14 1000.37 55.56 978.24 61.67 1025.17 77.39 1049.96 69.14"/><g class="cls-14"><polygon class="cls-10" points="1001.67 161.03 939.33 131.64 939.33 54.2 1001.63 37.01 1001.67 161.03"/><polygon class="cls-16" points="1001.63 37.01 1064 54.09 1064 131.63 1001.67 161 1001.63 37.01"/><polygon class="cls-17" points="1064 54.09 1001.63 37.01 939.33 54.2 1001.64 74.84 1064 54.09"/></g></svg>