<?xml version="1.0" encoding="utf-8"?>
<!-- Generator: Adobe Illustrator 21.1.0, SVG Export Plug-In . SVG Version: 6.00 Build 0)  -->
<svg version="1.1" id="Layer_1" xmlns="http://www.w3.org/2000/svg" xmlns:xlink="http://www.w3.org/1999/xlink" x="0px" y="0px"
	 viewBox="0 0 528 396" style="enable-background:new 0 0 528 396;" xml:space="preserve">
<style type="text/css">
	.st0{fill:#FFFFFF;}
	.st1{clip-path:url(#SVGID_2_);}
	.st2{fill:#EFB321;}
	.st3{fill:#FEE36C;}
</style>
<rect class="st0" width="528" height="396"/>
<path d="M167.7,333.6h-9.9v-34.5h10.1c7.8,0,11.4,3.5,11.4,9c0.1,3.2-1.9,6.1-5,7.2c3.9,1.2,6.4,3.7,6.4,8.3
	C180.7,330.3,175.8,333.6,167.7,333.6z M167.5,304.1h-3.4v9.1h3c3.9,0,6-1.8,6-4.7C173.1,305.8,171.5,304.1,167.5,304.1L167.5,304.1
	z M167.6,318h-3.4v10.5h3.6c4.2,0,6.6-1.8,6.6-5.2S172,318,167.6,318L167.6,318z"/>
<path d="M201,333.6l-0.6-3.4c-2.2,2.1-4.9,3.9-8.1,3.9c-4.6,0-6.9-2.8-6.9-7.3v-17.4h6v15.8c0,2.1,0.9,3.5,3,3.5
	c1.9,0,3.8-1.2,5.6-3v-16.3h6v24.1H201z"/>
<path d="M221.2,342.7c-6.6,0-11.5-2-11.5-6c0-2.3,1.6-4,4.6-5.6c-0.9-0.6-1.4-1.6-1.4-2.6c0-1.4,1-2.6,3-3.8c-2.8-1.2-4.6-4-4.6-7.1
	c0-5.2,4.3-8.5,9.7-8.5c2.5-0.1,4.9,0.7,6.9,2.2l5.9-2.1l0.8,4.8l-4.4,0.3c0.4,1,0.6,2.1,0.6,3.1c0,5.2-4.4,8.3-9.6,8.3
	c-0.7,0-1.3,0-2-0.1c-0.6,0.4-0.9,0.9-0.9,1.2c0,0.8,0.8,1,4.5,1.5l3.1,0.3c5,0.7,8.1,2.2,8.1,6
	C233.9,339.8,228.2,342.7,221.2,342.7L221.2,342.7z M217.4,332.4c-1.8,1.2-2.6,2.4-2.6,3.6c0,1.8,2.1,3.1,6.7,3.1
	c4.3,0,6.8-1.5,6.8-3.2c0-1.3-1.1-2-4.1-2.5L221,333C219.8,332.9,218.6,332.7,217.4,332.4L217.4,332.4z M221.1,312.8
	c-2.6,0-4.2,2-4.2,4.7c-0.2,2.3,1.5,4.2,3.8,4.4c0.1,0,0.3,0,0.4,0c2.6,0,4.2-2,4.2-4.5c0.2-2.3-1.6-4.4-3.9-4.5
	C221.3,312.8,221.2,312.8,221.1,312.8L221.1,312.8z"/>
<path d="M258.9,334c-3.8,0-7.5-0.8-10.9-2.4l1-6c3,1.9,6.5,2.9,10,3c3,0,5.1-1.5,5.1-4.2c0-2.5-1.2-3.6-6.2-5.8
	c-6.7-2.8-9.4-5-9.4-10.3c0-6.1,4.7-9.6,11.1-9.6c3.2-0.1,6.3,0.6,9.1,2.1l-1,6c-2.4-1.7-5.2-2.6-8.1-2.7c-3.3,0-4.8,1.6-4.8,3.7
	s1.1,3.2,5.9,5.2c7.1,2.9,9.7,5.4,9.7,10.7C270.5,330.5,265.5,334,258.9,334L258.9,334z"/>
<path d="M289.6,333.6l-0.5-3.1c-2,2.3-4.9,3.6-8,3.6c-4.1,0-6.9-2.5-6.9-6.7c0-5.9,4.8-8.4,14.5-9.4v-0.7c0-2.6-1.5-3.6-4.1-3.6
	c-2.8,0.1-5.5,0.7-8,2l-0.8-4.8c3-1.3,6.3-2,9.6-2c6.2,0,9.4,2.3,9.4,8.1v16.5L289.6,333.6z M288.7,321.5c-7,0.9-8.6,2.9-8.6,5.2
	c-0.1,1.5,1,2.7,2.5,2.8c0.2,0,0.4,0,0.5,0c2.2-0.1,4.2-1,5.6-2.6L288.7,321.5z"/>
<path d="M311.2,302.8c-2,0-3.1,0.9-3.1,3v3.5h4.6l0.8,4.9H308v19.2h-6v-19.2h-3.5v-4.9h3.5v-4.1c0-5.4,3.4-7.4,8.4-7.4
	c0.8,0,1.6,0.1,2.5,0.2l0.8,4.9C312.8,302.9,312,302.8,311.2,302.8L311.2,302.8z"/>
<path d="M330.4,333.6l-0.5-3.1c-2,2.3-4.9,3.6-8,3.6c-4.1,0-6.9-2.5-6.9-6.7c0-5.9,4.8-8.4,14.5-9.4v-0.7c0-2.6-1.5-3.6-4.1-3.6
	c-2.8,0.1-5.5,0.7-8,2l-0.8-4.8c3-1.3,6.3-2,9.6-2c6.2,0,9.4,2.3,9.4,8.1v16.5L330.4,333.6z M329.5,321.5c-7,0.9-8.6,2.9-8.6,5.2
	c-0.1,1.5,1,2.7,2.5,2.8c0.2,0,0.4,0,0.5,0c2.2-0.1,4.2-1,5.6-2.6L329.5,321.5z"/>
<path d="M347.5,319.7v13.9h-6v-24.1h5.1l0.8,4.9c1.6-2.8,4-5.1,7.8-5.4l1,6C352.6,315.1,349.4,316.8,347.5,319.7z"/>
<path d="M363.1,305.4c-1.9,0.1-3.5-1.3-3.6-3.2c0-0.1,0-0.1,0-0.2c0.1-2,1.8-3.5,3.8-3.4c1.8,0.1,3.3,1.6,3.4,3.4
	c0,1.9-1.5,3.4-3.4,3.4C363.2,305.4,363.1,305.4,363.1,305.4z M360.1,333.6v-24.1h6v24.1H360.1z"/>
<g>
	<defs>
		<rect id="SVGID_1_" x="155" y="48.5" width="213.5" height="213.5"/>
	</defs>
	<clipPath id="SVGID_2_">
		<use xlink:href="#SVGID_1_"  style="overflow:visible;"/>
	</clipPath>
	<g class="st1">
		<path class="st0" d="M367.9,155.3c0,58.7-47.5,106.2-106.2,106.2s-106.2-47.5-106.2-106.2S203.1,49.1,261.7,49.1
			C320.4,49.1,367.9,96.6,367.9,155.3L367.9,155.3"/>
		<path d="M261.7,262c-59,0-106.7-47.8-106.7-106.7S202.8,48.5,261.7,48.5s106.7,47.8,106.7,106.7c0,0,0,0,0,0
			C368.4,214.2,320.6,261.9,261.7,262 M261.7,49.6c-58.4,0-105.7,47.3-105.7,105.7s47.3,105.7,105.7,105.7
			c58.4,0,105.7-47.3,105.7-105.6C367.3,97,320.1,49.7,261.7,49.6"/>
		<path d="M174.3,189.6c-0.5-1.3-0.8-2.8-0.8-4.2l2.5-0.5c0,1.3,0.1,2.6,0.5,3.8c0.4,1,0.9,1.3,1.4,1.1s0.6-0.6,0.5-1.8
			c-0.2-2.6-0.1-4.1,1.8-4.9s3.8,0.3,4.6,2.4c0.5,1.1,0.7,2.4,0.7,3.6l-2.4,0.5c0.1-1.1-0.1-2.2-0.4-3.2c-0.3-0.7-0.8-1-1.2-0.8
			s-0.6,0.6-0.5,1.8c0.3,2.8,0,4.1-1.8,4.8C177.2,193.1,175.3,192,174.3,189.6"/>
		<path d="M180.6,202.6c-1.6-2.9-0.9-5.8,2.2-7.5s6.1-0.8,7.6,1.9c0.6,0.9,0.9,1.9,0.9,3l-2.5,1c0.1-0.8,0-1.6-0.4-2.3
			c-0.7-1.3-2.1-1.8-3.9-0.7s-2.1,2.5-1.4,3.8c0.4,0.7,1,1.3,1.8,1.7l-2,1.5C181.9,204.3,181.1,203.6,180.6,202.6"/>
		<path d="M185.1,209.3l8.8-6.4l1.8,2.5l-8.8,6.4L185.1,209.3z"/>
		<path d="M190.3,216l8-7.4l5,5.5l-1.7,1.6l-3-3.2l-1.4,1.3l2.2,2.4L198,218l-2.5-2.7l-1.5,1.4l3.1,3.3l-1.7,1.6L190.3,216z"/>
		<path d="M204.6,229.6l0.8-7.5l-4,4.9l-2.1-1.7l6.9-8.5l2.2,1.8l-0.8,7l3.7-4.6l2.2,1.8l-6.9,8.5L204.6,229.6z"/>
		<path d="M215.6,237.1c-2.9-1.7-3.6-4.5-1.9-7.6s4.9-3.7,7.5-2.2c0.9,0.5,1.7,1.2,2.2,2.1l-1.7,2.1c-0.3-0.7-0.8-1.4-1.5-1.8
			c-1.3-0.8-2.7-0.4-3.8,1.4s-0.6,3.2,0.7,4c0.7,0.4,1.6,0.6,2.4,0.6l-0.9,2.3C217.5,238,216.5,237.7,215.6,237.1"/>
		<path d="M223,240.7l4.1-10.1l6.9,2.8l-0.9,2.2L229,234l-0.7,1.7l3.1,1.2l-0.6,2.3l-3.4-1.4l-0.8,1.9l4.2,1.7l-0.9,2.2L223,240.7z"
			/>
		<path d="M241.1,246.9l5.4-10.2l3.9,0.6l1.9,11l-3.1,0.1l-0.3-2.4l-3.8-0.6l-1,2L241.1,246.9z M246,243.2l2.6,0.4l-0.6-4.4
			L246,243.2z"/>
		<path d="M261.6,249.2c-3.3,0-5.4-2.1-5.4-5.7s2.4-5.6,5.4-5.6c1,0,2.1,0.2,3,0.7l-0.4,2.7c-0.6-0.5-1.4-0.8-2.2-0.8
			c-1.5,0-2.6,0.9-2.6,3s1.1,3.1,2.6,3.1c0.8,0,1.7-0.2,2.4-0.7l0.3,2.5C263.8,248.9,262.7,249.2,261.6,249.2"/>
		<path d="M274,239.9l1,8.2l-3.2,0.4l-1-8.2l-2.9,0.4l-0.3-2.6l8.8-1.1l0.7,2.6L274,239.9z"/>
		<path d="M280.1,236l3-0.7l2.6,10.6l-3,0.7L280.1,236z"/>
		<path d="M295.6,242.9c-2.8,1.1-5.7-0.2-6.9-3.4s0-6.1,2.8-7.2s5.7,0.2,6.9,3.4S298.4,241.8,295.6,242.9 M292.4,234.7
			c-1.3,0.5-1.5,2-0.8,3.8s1.9,2.7,3.2,2.2s1.5-2.1,0.8-3.7S293.7,234.2,292.4,234.7"/>
		<path d="M311.1,234.9l-6.7-3.4l3.2,5.4l-2.4,1.4l-5.5-9.4l2.5-1.5l6.3,3.1l-3-5.1l2.4-1.4l5.5,9.4L311.1,234.9z"/>
		<path d="M327.4,222.4c-2.4,2.3-5.4,2.2-7.8-0.3s-2.2-5.7,0-7.8c0.7-0.8,1.6-1.3,2.6-1.6l1.6,2.2c-0.8,0.1-1.6,0.4-2.1,1
			c-1.1,1-1.2,2.5,0.2,4s3,1.4,4,0.4c0.6-0.6,1-1.3,1.2-2.1l2,1.6C328.8,220.8,328.2,221.7,327.4,222.4"/>
		<path d="M332.9,216.4l-8.5-6.8l2-2.5l6.5,5.2l2.2-2.7l2.3,1.4L332.9,216.4z"/>
		<path d="M342.6,202.9c-1.5,2.5-3.7,3.2-6.2,1.7l-5.7-3.4l1.5-2.6l5.8,3.4c1,0.6,1.9,0.6,2.5-0.4s0.2-1.8-0.9-2.4l-5.8-3.4l1.5-2.6
			l5.7,3.4C343.7,198.1,344.1,200.4,342.6,202.9"/>
		<path d="M348.9,189.6l-1.5,3.9l-10.1-4l1.6-4.1c0.9-2.3,2.3-3.4,4.1-2.7c1,0.3,1.6,1.3,1.6,2.3c0.7-1,2-1.4,3.1-0.9
			C349.7,185,349.9,187.1,348.9,189.6 M340.6,186.5l-0.4,1.1l2.2,0.9l0.4-1.1c0.4-0.9,0.2-1.6-0.6-1.9S341,185.6,340.6,186.5
			 M344.6,188l-0.5,1.1l2.4,1l0.5-1.1c0.4-0.9,0.2-1.7-0.6-2S345,187,344.6,188"/>
		<path d="M178.1,162.7c0.3,2.6-1.5,4.6-4.4,5s-5.1-1.2-5.5-3.9c-0.2-1,0-1.9,0.4-2.8h1.2c-0.5,0.8-0.7,1.7-0.6,2.6
			c0.2,2,1.9,3,4.2,2.7s3.7-1.7,3.5-3.6c-0.1-1-0.6-1.9-1.3-2.6l1.1-0.3C177.6,160.7,178,161.7,178.1,162.7"/>
		<path d="M177.4,157.2l-9.6-3.9v-1.4l9.6-3.7l0.3,1.2l-2.9,1.1v4.2l2.8,1.1L177.4,157.2z M173.5,154.3v-3.4l-4.5,1.6L173.5,154.3z"
			/>
		<path d="M177.9,144.7l-9.5-1.2l0.2-1.3l8.4,1.1l0.5-3.6l1.1,0L177.9,144.7z"/>
		<path d="M170,133.8l0.3-1.2l9.3,2.1l-0.3,1.2L170,133.8z"/>
		<path d="M173.1,126.3l2.9,0.9l1.1-3.3l1.1,0.2l-1.1,3.5l4.1,1.3l-0.4,1.2l-9.1-2.9l1.7-5.3l1.1,0.3L173.1,126.3z"/>
		<path d="M185.5,118.1c-1.1,2.3-3.6,3.2-6.3,1.9s-3.7-3.9-2.6-6.1s3.6-3.2,6.4-1.9S186.6,115.9,185.5,118.1 M177.5,114.4
			c-0.8,1.8,0.1,3.6,2.2,4.5s4,0.5,4.9-1.2s-0.1-3.5-2.2-4.5S178.4,112.6,177.5,114.4"/>
		<path d="M192.3,106l-4.9,0.2l-0.8,1.2l3.3,2.1l-0.7,1.1l-8-5.2l1.5-2.3c1.2-1.9,2.8-2.4,4.3-1.4c1.1,0.7,1.5,2.1,1,3.3l4.8-0.3
			L192.3,106z M183.6,103.8l-0.8,1.2l3,1.9l0.8-1.2c0.9-1.3,0.6-2.3-0.3-2.9S184.5,102.5,183.6,103.8"/>
		<path d="M199.2,97.2l-9.2-1.1l5.9,5l-0.8,0.9l-7.3-6.2l0.8-1l8.9,1l-5.6-4.8l0.8-0.9l7.2,6.2L199.2,97.2z"/>
		<path d="M196.7,86.1l0.9-0.9l6.6,6.9l-0.9,0.9L196.7,86.1z"/>
		<path d="M206.8,89.7l-2.9-10l1.1-0.8l8.8,5.2L213,85l-2.7-1.6l-3.4,2.6l0.9,2.9L206.8,89.7z M206.6,84.9l2.7-2.1l-4.1-2.5
			L206.6,84.9z"/>
		<path d="M220.9,79.8l-0.8-10.4l1.2-0.6l7.6,6.9l-1,0.8l-2.3-2.1l-3.8,1.8l0.3,3L220.9,79.8z M221.7,75.1l3.1-1.5l-3.5-3.3
			L221.7,75.1z"/>
		<path d="M235.9,73.7c-2.5,0.8-4.8-0.5-5.8-3.3s0.1-5.3,2.6-6.1c0.9-0.3,1.9-0.4,2.8-0.1l0.2,1.2c-0.9-0.3-1.8-0.3-2.7-0.1
			c-1.9,0.6-2.5,2.5-1.8,4.7s2.4,3.3,4.3,2.7c0.9-0.3,1.7-0.9,2.3-1.8l0.5,1C237.7,72.7,236.9,73.3,235.9,73.7"/>
		<path d="M241.1,71.9l1.9-10.2l1.3-0.3l5.6,8.6l-1.2,0.5l-1.7-2.7l-4.2,0.8l-0.5,2.9L241.1,71.9z M243.1,67.5l3.3-0.7l-2.5-4.1
			L243.1,67.5z"/>
		<path d="M256,69.6l-2.7,0.2l-0.6-9.5l2.7-0.2c3.3-0.2,5.2,1.7,5.4,4.5C261,67.4,259.2,69.4,256,69.6 M255.6,61.2l-1.5,0.1l0.4,7.3
			l1.5-0.1c2.3-0.1,3.7-1.5,3.6-3.9c0-1.9-1.5-3.5-3.4-3.5C256,61.1,255.8,61.2,255.6,61.2"/>
		<path d="M265.1,69.5l0.7-9.5l5.7,0.4l-0.1,1.1l-4.5-0.3l-0.2,2.9l3.6,0.2l0.1,1.1l-3.8-0.3l-0.2,3.3l4.6,0.3l-0.1,1.1L265.1,69.5z
			"/>
		<path d="M284,72.3l1.1-8l-4.8,7.2l-1.2-0.2l-1.3-8.6l-2.3,7.7l-1.1-0.2l2.8-9.2l1.7,0.4l1.3,8.5l4.7-7.2l1.6,0.4l-1.3,9.5
			L284,72.3z"/>
		<path d="M293.8,71.6l-1.4,3.6l-1.2-0.4l1.4-3.6l-1.2-6.4l1.3,0.2l0.9,5.4l4.1-3.3l1.3,0.5L293.8,71.6z"/>
		<path d="M307.2,82.9c-2.1-1.4-2.7-4-1-6.5s4.3-3.1,6.4-1.8c2.1,1.4,2.7,4,1,6.6C311.9,83.7,309.2,84.3,307.2,82.9 M312,75.5
			c-1.6-1-3.5-0.4-4.8,1.5s-1,3.9,0.6,5s3.5,0.4,4.8-1.5C313.8,78.6,313.6,76.6,312,75.5"/>
		<path d="M320.5,82l-2,2.3l2.6,2.2l-0.6,0.9l-2.8-2.4l-2.8,3.2l-1-0.8l6.2-7.2l4.2,3.6l-0.7,0.8L320.5,82z"/>
		<path d="M326.5,99.9c-0.7-0.8-1.2-1.8-1.5-2.8l1-0.6c0.2,1,0.7,2,1.3,2.8c0.8,1,1.9,1.2,2.6,0.6s0.6-1.2,0.1-2.8
			c-0.8-2-0.9-3,0.2-3.9c1.2-0.9,3-0.7,3.9,0.5c0,0,0.1,0.1,0.1,0.1c0.6,0.7,1,1.5,1.2,2.4l-1,0.6c-0.2-0.9-0.5-1.7-1.1-2.3
			c-0.5-0.8-1.5-1-2.2-0.5c0,0,0,0,0,0c-0.6,0.5-0.6,1.1,0,2.7c0.8,2.1,0.7,3.1-0.3,4C329.5,101.7,327.8,101.4,326.5,99.9"/>
		<path d="M332.9,108.8c-1.5-2.2-0.7-4.8,1.7-6.4s5.1-1.2,6.6,1c0.6,0.8,0.9,1.7,0.8,2.7l-1.1,0.5c0.1-0.9-0.1-1.8-0.6-2.6
			c-1.1-1.7-3-1.8-5-0.6s-2.6,3.2-1.5,4.8c0.5,0.8,1.3,1.4,2.3,1.8l-0.9,0.8C334.3,110.4,333.5,109.7,332.9,108.8"/>
		<path d="M336.5,114.6l8.5-4.4l0.6,1.1l-8.5,4.4L336.5,114.6z"/>
		<path d="M339.1,120l8.9-3.5l2.1,5.3l-1,0.4l-1.6-4.1l-2.7,1.1l1.3,3.3l-1,0.6l-1.4-3.5l-3.1,1.2l1.7,4.3l-1,0.4L339.1,120z"/>
		<path d="M344.1,135.3l6.2-7l-7.5,1.9l-0.3-1.1l9.2-2.4l0.3,1.2l-5.9,6.7l7.2-1.9l0.3,1.1l-9.3,2.4L344.1,135.3z"/>
		<path d="M345.4,144.6c-0.3-2.6,1.5-4.6,4.4-5c2.9-0.4,5.1,1.2,5.5,3.8c0.2,1,0,1.9-0.4,2.8h-1.2c0.5-0.8,0.7-1.7,0.6-2.6
			c-0.2-1.9-1.9-3-4.2-2.7s-3.7,1.7-3.5,3.6c0.1,1,0.6,1.9,1.3,2.6l-1.1,0.3C346,146.6,345.5,145.7,345.4,144.6"/>
		<path d="M346.1,151.3h9.5v5.7h-1.1v-4.4l-2.9,0v3.6l-1.1,0.2v-3.8h-3.3l0,4.6h-1.1L346.1,151.3z"/>
		<path d="M345.4,163.2c0.1-1.1,0.5-2.1,1-3l1.1,0.3c-0.6,0.9-1,1.9-1.1,2.9c-0.1,1.3,0.5,2.2,1.4,2.3s1.3-0.4,2-1.9
			c0.9-1.9,1.6-2.7,3-2.6c1.5,0.2,2.5,1.7,2.3,3.2c0,0.1,0,0.1,0,0.2c-0.1,0.9-0.4,1.8-0.9,2.6l-1.2-0.3c0.5-0.7,0.9-1.5,1-2.4
			c0.1-1.1-0.4-1.9-1.2-2s-1.2,0.4-1.9,1.9c-1,2-1.8,2.7-3.1,2.6C346.2,166.7,345.2,165.2,345.4,163.2"/>
		<path class="st2" d="M218,151c1.5-0.6,3.1-1,4.7-1.3l11.4-2.5l21-4.5c1.9-0.4,4-0.8,5.8-0.1c0.2,0.1,0.4,0.2,0.6,0.4
			c0.1,0.2,0.1,0.4,0,0.6c-2.3,9.1-5.2,18.1-8.1,27.1c-0.3,1.2-0.7,2.4-1.1,3.6c-0.8,1.4-1.6,2.6-2.6,3.8c-1.7,2.5-3.6,4.8-5.5,7.1
			c-1,1.4-2.3,2.4-3.9,3c-1.1,0.2-2.2,0.2-3.3,0c-1.7-0.2-3.4-0.5-5-0.9c-3.2-1-6.3-2.4-9.1-4.2c-1.6-0.9-3.2-1.9-4.6-3
			c-2.2-2-4-4.3-5.5-6.8c-1.7-2.3-2.9-4.8-3.8-7.4c-0.6-2.5-0.5-5.1,0.3-7.5c0.4-1.2,1-2.4,1.7-3.4c0.8-1.1,1.9-1.2,3.1-1.9
			C215.3,152.7,216.5,151.7,218,151"/>
		<path class="st3" d="M262.6,135.5c-1.3-2.2-3.5-3.6-5.6-5c-2.7-1.8-5.5-3.4-8.4-4.7c-3.2-1.3-6.5-1.9-9.8-2.7l-0.4-0.1
			c-2.8-0.7-5.7-1.2-8.5-1.5c-3.8-0.5-7.6-0.9-11.4-1c-0.9,0-1.9,0-2.8,0.1c-4.6,0.2-9.1,1.2-13.3,2.9c-0.3,0.2-0.7,0.3-1,0.5
			c-1.8,0.7-3.5,1.7-5,2.9c-0.1,0.1-0.3,0.3-0.3,0.4c-0.1,0.4,0.2,0.8,0.5,1.2c3.4,3.4,6,7.5,7.6,12c0.8,2.1,1.3,4.4,2.2,6.5
			c0.4,1.1,1,2.1,1.5,3.1c1.2,2.2,2.1,5,3.5,7.1c2.3,3.6,8.8,2.7,12.1,1.6c2.9-1,5.8-2.7,8.8-3.1c3.3-0.7,6.5-1.7,9.6-2.9
			c0.5-0.2,1-0.3,1.6-0.5l0.9-0.3c1.1,0,2.1-0.3,3.1-0.7c1.9-0.9,3.7-1.9,5.3-3.2c2.4-1.6,5-3.1,7.6-4.4c0.7-0.3,1.3-0.7,1.9-1.1
			c1.9-1.7,1.8-4.8,0.6-7"/>
		<path class="st2" d="M254.1,177.8c-0.4,2.1-0.4,4.4-0.6,6.5c-0.2,2.4-0.5,5,0.5,7.3c0.9,1.9,2.4,3.4,4.1,4.6c4.9,3.4,11,5,17,5.6
			c1.5,0.2,3.1,0.2,4.6,0.1c2.9-0.4,5.7-1.2,8.4-2.3c4.2-1.2,7.6-4.1,9.3-8.1c0.5-0.8,0.9-1.7,1-2.6c0-1.3-0.5-2.6-1.4-3.6
			c-1.6-2.1-3.4-4.1-5.2-6c-7.9-8.5-14.9-18.1-19.1-28.9c-0.6-1.6-1.3-3.4-2.8-4.2c-0.1,0-4.4,6.8-4.8,7.4c-0.9,1.4-1.8,2.8-2.6,4.3
			c-0.8,1.8-1.5,3.7-2.1,5.6l-1.4,4.3c-0.3,1.2-0.7,2.4-1.4,3.4C256.1,173.2,254.9,175.5,254.1,177.8"/>
		<path d="M266.8,131.6c-0.1-0.7-0.2-1.4-0.2-2.1l-0.7-6.5l-0.4-3.3c-0.2-1.4-0.3-2.8-0.2-4.2c0-0.5,0.2-1.1,0.2-1.6
			s-0.1-0.9,0.1-1.3c0.1-0.2,0.3-0.3,0.5-0.2c0.8,0.2-0.1,3.4-0.1,4c0.1,1.5,0.2,3,0.5,4.5c0.6,4.4,0.2,9,2.1,13.1
			c0.2,0.4,0.3,0.8,0.3,1.2c-0.1,0.4-0.6,0.8-1,0.5c-0.1-0.1-0.2-0.2-0.2-0.4C267.2,134.2,266.9,132.9,266.8,131.6"/>
		<path d="M288.1,127.2c0.2-0.2,2.5-2.6,1.8-2.8c-0.4-0.2-0.9,0.2-1.2,0.5c-0.8,0.8-1.7,1.5-2.6,2.2c-1.6,1.4-3.4,2.6-5.3,3.6
			c-3,1.4-5.7,3.1-8.8,4.4c-0.7,0.3-1.9,0.5-2,1.4c0.1,0,0.2,0.1,0.3,0.1c0.1,0,0.2,0,0.3-0.1c2.2-0.8,4.2-2,6.3-3.1
			c2.3-1.1,4.6-2.3,6.8-3.6C285.4,129.1,286.8,128.3,288.1,127.2"/>
		<path class="st3" d="M327.2,174.9c-0.6-2.3-1.3-4.7-2.2-6.9c-1.4-3.4-4.1-6.3-6.7-8.8c-2.6-2.6-5.6-4.8-8.8-6.7
			c-1.4-0.8-2.8-1.7-4.2-2.5c-0.4-0.2-0.8-0.5-1.2-0.8c-0.5-0.6-1.1-1-1.8-1.4l-4.7-2.5c-1.4-0.8-2.8-1.5-4.2-2.2
			c-5.3-2.4-11.2-3.2-17-3.7c-1.1-0.2-2.3-0.2-3.4,0c-1.1,0.2-2.1,1-2.6,2c-0.5,1.3,0,2.5,0,3.8c-0.1,2.4,1,4,1.8,6.3l3,8.7
			c0.3,1,0.8,2.1,1.3,3c0.2,0.3,0.5,0.6,0.7,0.9c0.2,0.6,0.5,1.2,0.9,1.6c2.5,3.6,3.9,7.7,5.7,11.7s4,7.9,7.6,10.4
			c0.9,0.7,2,1.2,3.1,1.4c1.7,0.3,3.5,0.1,5.2-0.4c4.2-1,8.3-2.6,11.9-5c1-0.7,2-1.5,3-2.1c1.1-0.6,2.2-1.1,3.3-1.6
			c2.2-1.1,4.6-1.8,7.1-2.1c0.8,0.1,1.6-0.2,2.2-0.8C327.6,176.6,327.6,175.7,327.2,174.9"/>
		<path d="M271.3,145c1.5-3.2,1.5-6.9,0-10.1c-0.6-1.2-1.8-1.1-3-0.9c-0.6,0.1-1.2,0.2-1.8,0.4c-1,0.5-1.8,1.2-2.5,2
			c-1.2,1.2-2.2,2.6-2.8,4.2c-0.5,1.7-0.6,3.4-1,5.1c-0.8,3-2,5.9-3.1,8.8c-1.5,4.2-2.8,8.4-4,12.7c-0.5,1.8-0.9,3.6-1.4,5.4
			c-0.5,1.7-0.9,3.5-1.2,5.3c-0.1,0.4,0,0.8,0.2,1.1c0.1,0.1,0.3,0.2,0.5,0.2c1.1,0.2,2.1-0.9,2.8-1.6c6.4-6.9,7.9-16.9,12.7-25
			C268.3,150.1,270.1,147.7,271.3,145"/>
	</g>
</g>
</svg>
