<?xml version="1.0" encoding="utf-8"?>
<!-- Generator: Adobe Illustrator 21.1.0, SVG Export Plug-In . SVG Version: 6.00 Build 0)  -->
<svg version="1.1" id="Layer_1" xmlns="http://www.w3.org/2000/svg" xmlns:xlink="http://www.w3.org/1999/xlink" x="0px" y="0px"
	 viewBox="0 0 528 396" style="enable-background:new 0 0 528 396;" xml:space="preserve">
<style type="text/css">
	.st0{clip-path:url(#SVGID_2_);}
	.st1{fill:#FFFFFF;}
	.st2{fill:#57A4DA;}
	.st3{fill:#0194D3;}
	.st4{fill:#95C0E6;}
</style>
<title>Artboard 1@1</title>
<g>
	<defs>
		<rect id="SVGID_1_" x="155" y="49.4" width="213.5" height="213.5"/>
	</defs>
	<clipPath id="SVGID_2_">
		<use xlink:href="#SVGID_1_"  style="overflow:visible;"/>
	</clipPath>
	<g class="st0">
		<path class="st1" d="M367.9,156.2c0,58.7-47.5,106.2-106.2,106.2s-106.2-47.5-106.2-106.2C155.5,97.6,203,50,261.7,50c0,0,0,0,0,0
			C320.4,50,367.9,97.6,367.9,156.2"/>
		<path d="M261.7,262.9c-59,0-106.7-47.8-106.7-106.7S202.8,49.4,261.7,49.4s106.7,47.8,106.7,106.7
			C368.4,215.1,320.7,262.9,261.7,262.9 M261.7,50.5c-58.4,0-105.7,47.3-105.7,105.7s47.3,105.7,105.7,105.7s105.7-47.3,105.7-105.7
			v0C367.3,97.9,320.1,50.6,261.7,50.5"/>
		<path d="M174.3,190.5c-0.5-1.3-0.8-2.8-0.8-4.2l2.5-0.5c0,1.3,0.1,2.6,0.5,3.8c0.4,1,0.9,1.3,1.4,1.1s0.6-0.6,0.5-1.8
			c-0.2-2.6-0.1-4.1,1.8-4.9s3.8,0.3,4.6,2.4c0.5,1.1,0.7,2.4,0.7,3.6l-2.4,0.5c0.1-1.1-0.1-2.2-0.4-3.2c-0.3-0.7-0.8-1-1.2-0.8
			s-0.6,0.6-0.5,1.8c0.3,2.8,0,4.1-1.8,4.8C177.2,194,175.3,192.9,174.3,190.5"/>
		<path d="M180.6,203.5c-1.6-2.9-0.9-5.8,2.2-7.5s6.1-0.8,7.6,1.9c0.6,0.9,0.9,1.9,0.9,3l-2.5,1c0.1-0.8,0-1.6-0.4-2.3
			c-0.7-1.3-2.1-1.8-3.9-0.7s-2.1,2.5-1.4,3.8c0.4,0.7,1,1.3,1.8,1.7l-2,1.5C181.9,205.2,181.1,204.5,180.6,203.5"/>
		<rect x="184.9" y="206.7" transform="matrix(0.8082 -0.5889 0.5889 0.8082 -86.0761 152.0607)" width="10.9" height="3"/>
		<polygon points="190.3,217 198.3,209.6 203.3,215 201.6,216.6 198.6,213.4 197.3,214.7 199.5,217.1 198,218.9 195.6,216.2 
			194.1,217.6 197.1,220.9 195.4,222.5 		"/>
		<polygon points="204.6,230.5 205.4,223 201.4,227.9 199.2,226.2 206.1,217.7 208.3,219.5 207.6,226.5 211.3,221.9 213.5,223.6 
			206.6,232.1 		"/>
		<path d="M215.6,238c-2.9-1.7-3.6-4.5-1.9-7.6s4.9-3.7,7.5-2.2c0.9,0.5,1.7,1.2,2.2,2.1l-1.7,2.1c-0.3-0.7-0.8-1.4-1.5-1.8
			c-1.3-0.8-2.7-0.4-3.8,1.4s-0.6,3.2,0.7,4c0.7,0.4,1.6,0.6,2.4,0.6l-0.9,2.3C217.5,238.9,216.5,238.6,215.6,238"/>
		<polygon points="223,241.6 227.1,231.5 234,234.3 233.1,236.5 229,234.9 228.3,236.6 231.4,237.8 230.8,240.1 227.4,238.7 
			226.7,240.6 230.9,242.3 230,244.5 		"/>
		<path d="M241.1,247.8l5.4-10.2l3.9,0.6l1.9,11l-3.1,0.1l-0.3-2.4l-3.8-0.6l-1,2L241.1,247.8z M246,244.1l2.6,0.4l-0.6-4.4
			L246,244.1z"/>
		<path d="M261.6,250.1c-3.3,0-5.4-2.1-5.4-5.7s2.4-5.6,5.4-5.6c1,0,2.1,0.2,3,0.7l-0.4,2.7c-0.6-0.5-1.4-0.8-2.2-0.8
			c-1.5,0-2.6,0.9-2.6,3s1.1,3.1,2.6,3.1c0.8,0,1.7-0.2,2.4-0.7l0.3,2.5C263.8,249.8,262.7,250.1,261.6,250.1"/>
		<polygon points="274,240.8 275.1,249 271.9,249.4 270.9,241.2 268,241.5 267.6,238.9 276.5,237.8 277.2,240.4 		"/>
		<rect x="281.4" y="236.4" transform="matrix(0.9706 -0.2406 0.2406 0.9706 -49.8785 75.1617)" width="3" height="10.9"/>
		<path d="M295.6,243.8c-2.8,1.1-5.7-0.2-6.9-3.4s0-6.1,2.8-7.2s5.7,0.2,6.9,3.4S298.4,242.7,295.6,243.8 M292.4,235.6
			c-1.3,0.5-1.5,2-0.8,3.8s1.9,2.7,3.2,2.2s1.5-2.1,0.8-3.7S293.7,235.1,292.4,235.6"/>
		<polygon points="311.1,235.8 304.4,232.5 307.6,237.9 305.2,239.3 299.7,229.9 302.2,228.5 308.5,231.6 305.5,226.5 307.8,225.1 
			313.4,234.5 		"/>
		<path d="M327.4,223.3c-2.4,2.3-5.4,2.2-7.8-0.3s-2.2-5.7,0-7.8c0.7-0.8,1.6-1.3,2.6-1.6l1.6,2.2c-0.8,0.1-1.6,0.4-2.1,1
			c-1.1,1-1.2,2.5,0.2,4s3,1.4,4,0.4c0.6-0.6,1-1.3,1.2-2.1l2,1.6C328.8,221.7,328.2,222.6,327.4,223.3"/>
		<polygon points="332.9,217.3 324.4,210.4 326.3,208 332.8,213.1 335,210.4 337.3,211.8 		"/>
		<path d="M342.6,203.8c-1.5,2.5-3.7,3.2-6.2,1.7l-5.7-3.4l1.5-2.6l5.8,3.4c1,0.6,1.9,0.6,2.5-0.4s0.2-1.8-0.9-2.4l-5.8-3.4l1.5-2.6
			l5.7,3.4C343.7,199,344.1,201.3,342.6,203.8"/>
		<path d="M348.9,190.5l-1.5,3.9l-10.1-4l1.6-4.1c0.9-2.3,2.3-3.4,4.1-2.7c1,0.3,1.6,1.3,1.6,2.3c0.7-1,2-1.3,3.1-0.9
			C349.7,185.9,349.9,188,348.9,190.5 M340.6,187.4l-0.4,1.1l2.2,0.9l0.4-1.1c0.4-0.9,0.2-1.6-0.6-1.9S341,186.5,340.6,187.4
			 M344.6,188.9l-0.5,1.1l2.4,1l0.5-1.1c0.4-0.9,0.2-1.7-0.6-2S345,187.9,344.6,188.9"/>
		<path d="M178.1,163.6c0.3,2.6-1.5,4.6-4.4,5s-5.1-1.2-5.5-3.9c-0.2-1,0-1.9,0.4-2.8h1.2c-0.5,0.8-0.7,1.7-0.6,2.6
			c0.2,2,1.9,3,4.2,2.7s3.7-1.7,3.5-3.6c-0.1-1-0.6-1.9-1.3-2.6l1.1-0.3C177.6,161.6,178,162.6,178.1,163.6"/>
		<path d="M177.4,158l-9.6-3.9v-1.4l9.6-3.7l0.3,1.2l-2.9,1.1v4.2l2.8,1.1L177.4,158z M173.5,155.2v-3.4l-4.5,1.6L173.5,155.2z"/>
		<polygon points="177.9,145.6 168.4,144.4 168.6,143.1 177,144.2 177.4,140.6 178.6,140.6 		"/>
		<rect x="174.2" y="130.4" transform="matrix(0.2183 -0.9759 0.9759 0.2183 4.7448 276.2848)" width="1.3" height="9.6"/>
		<polygon points="173.1,127.2 176.1,128.2 177.1,124.9 178.2,125 177.1,128.5 181.2,129.8 180.8,131 171.7,128.1 173.4,122.8 
			174.4,123.2 		"/>
		<path d="M185.5,119c-1.1,2.3-3.6,3.2-6.3,1.9s-3.7-3.9-2.6-6.1s3.6-3.2,6.4-1.9S186.6,116.8,185.5,119 M177.5,115.3
			c-0.8,1.8,0.1,3.6,2.2,4.5s4,0.5,4.9-1.2s-0.1-3.5-2.1-4.5S178.4,113.5,177.5,115.3"/>
		<path d="M192.3,106.9l-4.9,0.2l-0.8,1.2l3.3,2.1l-0.7,1.1l-8-5.2l1.4-2.3c1.2-1.9,2.8-2.4,4.3-1.4c1.1,0.7,1.6,2.2,1,3.4l4.8-0.3
			L192.3,106.9z M183.6,104.7l-0.8,1.2l3,1.9l0.8-1.2c0.9-1.3,0.6-2.3-0.3-2.9S184.5,103.4,183.6,104.7"/>
		<polygon points="199.2,98.1 190,97 195.9,102 195.1,102.9 187.8,96.7 188.7,95.7 197.6,96.7 191.9,91.9 192.7,91 200,97.2 		"/>
		<rect x="199.8" y="85.3" transform="matrix(0.7242 -0.6896 0.6896 0.7242 -6.8095 163.0479)" width="1.3" height="9.6"/>
		<path d="M206.8,90.6l-2.9-10l1.1-0.8l8.8,5.3l-0.8,1l-2.7-1.6l-3.4,2.6l0.9,2.9L206.8,90.6z M206.6,85.8l2.7-2.1l-4.1-2.5
			L206.6,85.8z"/>
		<path d="M220.9,80.7l-0.8-10.4l1.2-0.6l7.6,6.9l-1,0.8l-2.3-2.1l-3.8,1.8l0.3,3L220.9,80.7z M221.7,76l3.1-1.5l-3.5-3.3L221.7,76z
			"/>
		<path d="M235.9,74.6c-2.5,0.8-4.8-0.5-5.8-3.3s0.1-5.3,2.6-6.1c0.9-0.3,1.9-0.4,2.8-0.1l0.2,1.2c-0.9-0.3-1.8-0.3-2.7-0.1
			c-1.9,0.6-2.5,2.5-1.8,4.7s2.4,3.3,4.3,2.7c0.9-0.3,1.7-0.9,2.3-1.8l0.5,1C237.7,73.6,236.9,74.2,235.9,74.6"/>
		<path d="M241.1,72.8l1.9-10.2l1.3-0.3l5.6,8.6l-1.2,0.5l-1.7-2.7l-4.2,0.8l-0.5,2.9L241.1,72.8z M243.1,68.4l3.3-0.7l-2.5-4.1
			L243.1,68.4z"/>
		<path d="M256,70.5l-2.7,0.2l-0.6-9.5l2.7-0.2c3.3-0.2,5.2,1.7,5.4,4.5C261,68.3,259.2,70.3,256,70.5 M255.6,62.1l-1.5,0.1l0.4,7.3
			l1.5-0.1c2.3-0.1,3.7-1.5,3.6-3.9c0-1.9-1.5-3.5-3.4-3.5C256,62,255.8,62.1,255.6,62.1"/>
		<polygon points="265.1,70.4 265.8,60.8 271.5,61.2 271.4,62.4 266.9,62 266.7,64.9 270.3,65.2 270.4,66.3 266.7,66.1 266.4,69.3 
			271,69.7 270.9,70.8 		"/>
		<polygon points="284,73.2 285.2,65.2 280.4,72.5 279.2,72.2 277.9,63.7 275.6,71.4 274.5,71.1 277.2,61.9 278.9,62.3 280.2,70.8 
			284.9,63.6 286.6,64 285.3,73.5 		"/>
		<polygon points="293.8,72.5 292.4,76.1 291.3,75.7 292.6,72.1 291.4,65.6 292.7,65.8 293.6,71.2 297.8,67.9 299.1,68.4 		"/>
		<path d="M307.2,83.8c-2.1-1.4-2.7-4-1-6.5s4.3-3.1,6.4-1.8c2.1,1.3,2.7,4,1,6.5C311.9,84.6,309.2,85.2,307.2,83.8 M312,76.4
			c-1.6-1-3.5-0.4-4.8,1.5s-1,3.9,0.6,5s3.5,0.4,4.8-1.5C313.8,79.5,313.6,77.5,312,76.4"/>
		<polygon points="320.5,82.9 318.6,85.2 321.2,87.5 320.6,88.4 317.9,86.1 315.1,89.3 314.1,88.5 320.3,81.2 324.5,84.8 
			323.8,85.7 		"/>
		<path d="M326.5,100.8c-0.7-0.8-1.2-1.8-1.5-2.8l1-0.6c0.2,1,0.7,2,1.3,2.8c0.8,1,1.9,1.2,2.6,0.6s0.6-1.2,0.1-2.8
			c-0.8-2-0.9-3,0.2-3.9c1.2-0.9,3-0.7,3.9,0.5c0,0,0.1,0.1,0.1,0.1c0.6,0.7,1,1.5,1.2,2.4l-1,0.6c-0.2-0.9-0.5-1.7-1.1-2.3
			c-0.5-0.8-1.5-1-2.2-0.5c0,0,0,0,0,0c-0.6,0.5-0.6,1.1,0,2.7c0.8,2.1,0.7,3.1-0.3,4C329.5,102.6,327.8,102.3,326.5,100.8"/>
		<path d="M332.9,109.7c-1.5-2.2-0.7-4.8,1.7-6.4s5.1-1.2,6.6,1c0.6,0.8,0.9,1.7,0.8,2.7l-1.1,0.5c0.1-0.9-0.1-1.8-0.6-2.6
			c-1.1-1.7-3-1.8-5-0.6s-2.6,3.2-1.5,4.8c0.5,0.8,1.3,1.4,2.3,1.7l-0.9,0.8C334.3,111.2,333.5,110.5,332.9,109.7"/>
		<polygon points="336.5,115.5 345,111.2 345.5,112.3 337,116.7 		"/>
		<polygon points="339.1,120.9 347.9,117.3 350,122.6 349,123 347.4,118.9 344.7,120 346,123.3 345,123.9 343.6,120.4 340.6,121.6 
			342.3,125.9 341.2,126.3 		"/>
		<polygon points="344.1,136.2 350.2,129.2 342.8,131.1 342.5,130 351.7,127.6 352,128.9 346.1,135.6 353.3,133.7 353.6,134.9 
			344.3,137.2 		"/>
		<path d="M345.4,145.5c-0.3-2.6,1.5-4.6,4.4-5c2.9-0.4,5.1,1.2,5.5,3.8c0.2,1,0,1.9-0.4,2.8h-1.2c0.5-0.8,0.7-1.7,0.6-2.6
			c-0.2-1.9-1.9-3-4.2-2.7s-3.7,1.7-3.5,3.6c0.1,1,0.6,1.9,1.3,2.6l-1.1,0.3C346,147.5,345.5,146.6,345.4,145.5"/>
		<polygon points="346.1,152.2 355.6,152.2 355.6,157.9 354.5,157.9 354.5,153.4 351.6,153.4 351.6,157 350.5,157.2 350.5,153.4 
			347.2,153.4 347.2,158 346.1,158 		"/>
		<path d="M345.4,164.1c0.1-1.1,0.5-2.1,1-3l1.1,0.3c-0.6,0.9-1,1.9-1.1,2.9c-0.1,1.3,0.5,2.2,1.4,2.3s1.3-0.4,2-1.9
			c0.9-1.9,1.6-2.7,3-2.6c1.5,0.2,2.5,1.7,2.3,3.2c0,0.1,0,0.1,0,0.2c-0.1,0.9-0.4,1.8-0.9,2.6l-1.2-0.3c0.5-0.7,0.9-1.5,1-2.4
			c0.1-1.1-0.4-1.9-1.2-2s-1.2,0.4-1.9,1.9c-1,2-1.8,2.7-3.1,2.6C346.2,167.6,345.2,166.1,345.4,164.1"/>
		<path class="st2" d="M235.8,168.7h-0.9c-10.2-0.3-18.9-4.7-22.7-10.9c-1.3,0.3-2.6,0.4-3.9,0.4h-0.4c-9.6-0.2-17.3-8.2-17-17.9
			c0.2-8.4,6.3-15.4,14.5-16.8c1.6-11.7,11.6-20.4,23.4-20.4h0.6c4.5,0.1,8.9,1.5,12.7,4.1c4.6-7,13.2-11.6,22.9-11.6h0.8
			c14.7,0.4,26.4,11.2,26.1,24.2c0,1.3-0.2,2.7-0.5,4c2.6,1,5,2.5,7,4.3c-3.2,1.3-5.9,3.6-7.8,6.5c-2.4-0.9-4.9-1.4-7.5-1.4
			c-9.7,0-17.8,6.7-18.4,15c-7,1.6-12,7.5-12,14.4c0,0.5,0,1,0.1,1.5C247.6,167.2,241.8,168.8,235.8,168.7"/>
		<path class="st3" d="M322,144.5l-0.7-0.2l0.1-1v-0.5c0-7.8-7-14.1-15.6-14.1c-2,0-4,0.4-5.9,1.1c-3.4,1.2-6.2,3.6-8,6.7l-0.4,0.8
			l-0.8-0.4c-2.4-1-4.9-1.6-7.5-1.6c-9,0-16.4,6.2-16.5,13.9v0.8l-0.8,0.1c-6.5,1.2-11.2,6.4-11.2,12.6v0.1
			c0.1,7,6.2,12.7,13.8,12.7c2.6,0,5.2-0.7,7.5-2.1l0.9-0.5l0.5,0.9c3.1,5.3,9.2,8.5,16,8.5s13.2-3.4,16.2-8.8l0.4-0.8l0.8,0.4
			c2,0.9,4.2,1.4,6.5,1.4c8.6,0.1,15.5-6.8,15.6-15.4C332.7,152.4,328.4,146.5,322,144.5"/>
		<path class="st4" d="M261.8,216.1c-5,0-9.4-2-11.5-5c-5.2,0.4-9.9,0.5-12,0.5c-6.4,0-11.7-4.4-11.7-10c0-4.1,2.9-7.6,7.1-9.1
			c-0.1-0.7-0.2-1.4-0.2-2.1c0-6.6,6.1-12,13.6-12c4.8-0.1,9.3,2.2,11.9,6.2c5.6-3.6,13-2,16.6,3.6c1,1.6,1.6,3.3,1.8,5.2
			c4.8,0.9,8,5.6,7,10.4c-0.8,4.2-4.5,7.2-8.8,7.2c-0.7,0-1.5-0.1-2.2-0.3c-2,3.1-6.5,5.3-11.7,5.3"/>
	</g>
</g>
<path d="M149,333.3c-10.1,0-16.4-7.1-16.4-17.8s6.6-17.9,16.3-17.9c3.4-0.1,6.7,0.8,9.6,2.5l-1,6.2c-2.4-1.9-5.3-3-8.4-3
	c-6.1,0-9.9,4.6-9.9,12.1s4,12.1,10.1,12.1c3.1-0.1,6.2-1.1,8.8-2.9l0.9,5.7C156.1,332.3,152.6,333.3,149,333.3z"/>
<path d="M164.4,332.7v-35.2l6-1v36.1L164.4,332.7z"/>
<path d="M186.8,333.2c-6.6,0-11.3-4.7-11.3-12.5s4.8-12.6,11.4-12.6s11.4,4.8,11.4,12.6S193.4,333.2,186.8,333.2z M186.8,313
	c-3.6,0-5.4,3.1-5.4,7.6s2,7.6,5.4,7.6c3.7,0,5.6-3.1,5.6-7.6S190.4,313,186.8,313L186.8,313z"/>
<path d="M218.5,332.7l-0.6-3.4c-2.2,2.1-4.9,3.9-8.1,3.9c-4.6,0-6.9-2.8-6.9-7.3v-17.4h6v15.8c0,2.1,0.9,3.5,3,3.5
	c1.9,0,3.8-1.2,5.6-3v-16.3h6v24.1L218.5,332.7z"/>
<path d="M245.5,332.7l-0.5-3.4c-1.7,2.4-4.5,3.8-7.4,3.9c-5.1,0-9.1-3.8-9.1-11.9c0-9,5-13,10.6-13c1.9,0,3.8,0.3,5.6,0.9v-11.7l6-1
	v36.1L245.5,332.7z M244.7,314.1c-1.5-0.7-3.1-1.1-4.7-1c-3.1,0-5.4,2.5-5.4,7.9c0,4.7,2,6.9,4.6,6.9c2.2,0,3.9-1.3,5.5-3.3V314.1z"
	/>
<path d="M289.8,331.1l9,3l-1.2,5.7l-19-7c-7.8-2.8-11.8-8.5-11.8-17.4c0-10.7,6.4-18,16.2-18s16.1,7,16.1,17.6
	C299.1,323.1,295.4,328.7,289.8,331.1z M282.9,303c-6,0-9.5,5-9.5,12.5s3.5,12.6,9.5,12.6s9.5-5.1,9.5-12.6S288.8,303,282.9,303z"/>
<path d="M319.9,332.7l-0.5-3.4c-2.2,2.1-4.9,3.9-8,3.9c-4.5,0-6.9-2.8-6.9-7.3v-17.4h6v15.8c0,2.1,0.9,3.5,3,3.5
	c1.9,0,3.8-1.2,5.5-3v-16.3h6v24.1L319.9,332.7z"/>
<path d="M341.6,333.2c-6.8,0-11.8-3.9-11.8-12.5c0-7.9,4.7-12.6,11-12.6c7.2,0,10.5,5.5,10.5,12.3c0,0.5,0,1.1,0,1.5h-15.6
	c0.3,4.8,2.9,6.8,6.5,6.8c3-0.1,5.9-1.1,8.3-3l0.7,4.7C348.4,332.2,345.1,333.2,341.6,333.2z M335.8,318h9.6
	c-0.4-3.8-1.9-5.9-4.8-5.9C338.3,312.2,336.3,314.1,335.8,318z"/>
<path d="M364.3,333.1c-3.3,0-6.5-0.8-9.4-2.4l0.8-5c2.6,1.8,5.7,2.7,8.8,2.9c2.6,0,4-1,4-2.5s-1-2.4-4.9-3.4
	c-5.9-1.5-8.3-3.2-8.3-7.6c0-4.1,3.3-7.1,8.9-7.1c2.9,0,5.8,0.5,8.5,1.7l-0.8,5c-2.3-1.3-5-2.1-7.6-2.2c-2.2,0-3.4,0.9-3.4,2.2
	s0.9,2,4.5,3c6.2,1.6,8.7,3.3,8.7,7.9C374.1,330.3,370.7,333.1,364.3,333.1z"/>
<path d="M388,333.1c-4.8,0-8-1.8-8-7.2v-12.4h-3.4v-4.9h3.4v-7.6l5.9-0.9v8.5h5l0.8,4.9h-5.7v11.4c0,2,0.9,3,3.2,3
	c0.6,0,1.3-0.1,1.9-0.2l0.8,5C390.6,332.9,389.3,333.1,388,333.1z"/>
</svg>
