<svg id="Layer_1" data-name="Layer 1" xmlns="http://www.w3.org/2000/svg" viewBox="0 0 1512 648"><defs><style>.cls-1{fill:#4a494a;}.cls-2{fill:#231f20;}.cls-3{fill:#e2c721;}.cls-3,.cls-6{stroke:#e2c721;}.cls-3,.cls-4,.cls-5,.cls-6,.cls-7,.cls-8,.cls-9{stroke-miterlimit:10;}.cls-3,.cls-4,.cls-5,.cls-6,.cls-7,.cls-8{stroke-width:10px;}.cls-4{fill:#e22456;}.cls-4,.cls-5{stroke:#e32455;}.cls-5,.cls-6,.cls-8,.cls-9{fill:#fff;}.cls-7{fill:#3d8fcd;}.cls-7,.cls-8{stroke:#3d8fcd;}.cls-9{stroke:#000;stroke-width:3px;}</style></defs><title>Artboard 1 copy 2@1</title><path class="cls-1" d="M267.57,255.6,170.12,222.7c-.76-.26-1.09.95-.33,1.21l97.45,32.89c.76.26,1.09-.95.33-1.21Z"/><path class="cls-1" d="M380.83,227.07c-32.56,10.5-61.44,31.57-95.06,38.8-.79.17-.45,1.37.33,1.21,33.62-7.23,62.51-28.3,95.06-38.8.76-.25.44-1.45-.33-1.21Z"/><path class="cls-1" d="M414.18,220.51c32.83-2.44,65.83-.87,98.71-2,.8,0,.81-1.28,0-1.25-32.88,1.16-65.88-.41-98.71,2-.8.06-.8,1.31,0,1.25Z"/><path class="cls-1" d="M624.69,259.68a447.6,447.6,0,0,1-104.45-43.51.63.63,0,0,0-.63,1.08,448.9,448.9,0,0,0,104.75,43.63.63.63,0,0,0,.33-1.21Z"/><path class="cls-1" d="M745.29,321.88a520.86,520.86,0,0,1-109.91-58.09c-.66-.46-1.29.62-.63,1.08A522.19,522.19,0,0,0,745,323.09c.75.29,1.08-.92.33-1.21Z"/><path class="cls-1" d="M867.18,325.08l-120.77-.9a.63.63,0,0,0,0,1.25l120.77.9a.63.63,0,0,0,0-1.25Z"/><path class="cls-1" d="M997,377.55,878.17,313.9c-.71-.38-1.34.7-.63,1.08l118.8,63.65c.71.38,1.34-.7.63-1.08Z"/><path class="cls-1" d="M1221.2,439.49a296.21,296.21,0,0,1-105.53-65.66c-.58-.56-1.47.32-.88.88a297.72,297.72,0,0,0,106.08,66c.76.27,1.09-.94.33-1.21Z"/><path class="cls-1" d="M156.15,227a.63.63,0,0,0,0-1.25.63.63,0,0,0,0,1.25Z"/><path class="cls-1" d="M247,262.78a.63.63,0,0,0,0-1.25.63.63,0,0,0,0,1.25Z"/><path class="cls-1" d="M268.23,266.31a.63.63,0,0,0,0-1.25.63.63,0,0,0,0,1.25Z"/><path class="cls-1" d="M401.44,319.68a.63.63,0,0,0,0-1.25.63.63,0,0,0,0,1.25Z"/><path class="cls-1" d="M515.76,361.1c-36.49-17.5-75-30.43-111.46-47.93-.72-.35-1.36.73-.63,1.08,36.49,17.5,75,30.43,111.46,47.93.72.35,1.36-.73.63-1.08Z"/><path class="cls-1" d="M630.4,364.58,515,359.87c-.8,0-.8,1.22,0,1.25l115.41,4.72c.8,0,.8-1.22,0-1.25Z"/><path class="cls-1" d="M743.08,428.59a570.53,570.53,0,0,1-105.63-69.28c-.62-.51-1.5.37-.88.88a572,572,0,0,0,105.89,69.47c.72.36,1.35-.72.63-1.08Z"/><path class="cls-1" d="M867.22,436.46l-116.57-8.13c-.8-.06-.8,1.19,0,1.25l116.57,8.13c.8.06.8-1.19,0-1.25Z"/><path class="cls-1" d="M969.15,386.58,869.93,439c-.71.38-.08,1.45.63,1.08l99.22-52.38c.71-.38.08-1.45-.63-1.08Z"/><path class="cls-1" d="M1111,451.69a1088.38,1088.38,0,0,1-132.3-81c-.66-.47-1.28.61-.63,1.08a1088.38,1088.38,0,0,0,132.3,81c.71.37,1.35-.71.63-1.08Z"/><path class="cls-1" d="M1222.92,510l-97-54.56a.63.63,0,0,0-.63,1.08l97,54.56a.63.63,0,0,0,.63-1.08Z"/><path class="cls-1" d="M396.55,267.31a1116.94,1116.94,0,0,1-125.09-41c-.75-.29-1.07.91-.33,1.21a1116.94,1116.94,0,0,0,125.09,41,.63.63,0,0,0,.33-1.21Z"/><path class="cls-1" d="M513.67,308,404.58,271.14c-.76-.26-1.09.95-.33,1.21L513.33,309.2c.76.26,1.09-.95.33-1.21Z"/><path class="cls-1" d="M633,307.6,510,302.07c-.8,0-.8,1.21,0,1.25L633,308.85c.8,0,.8-1.21,0-1.25Z"/><path class="cls-1" d="M745.13,367.27a789.57,789.57,0,0,1-110-56.68c-.69-.42-1.31.66-.63,1.08A791.55,791.55,0,0,0,744.8,368.48c.74.31,1.06-.9.33-1.21Z"/><path class="cls-1" d="M862.22,400.84l-115.43-39c-.76-.26-1.09.95-.33,1.21l115.43,39c.76.26,1.09-.95.33-1.21Z"/><path class="cls-1" d="M989,431.44,874.67,402.23a.63.63,0,0,0-.33,1.21l114.31,29.21a.63.63,0,0,0,.33-1.21Z"/><path class="cls-1" d="M1113.13,515.29l-112-76.68c-.67-.46-1.29.63-.63,1.08l112,76.68c.67.46,1.29-.63.63-1.08Z"/><path class="cls-1" d="M1218.86,573.65l-101.35-58.52a.63.63,0,0,0-.63,1.08l101.35,58.52a.63.63,0,0,0,.63-1.08Z"/><path class="cls-1" d="M128.11,225a.63.63,0,0,0,0-1.25.63.63,0,0,0,0,1.25Z"/><path class="cls-1" d="M262.05,218.29a.63.63,0,0,0,0-1.25.63.63,0,0,0,0,1.25Z"/><path class="cls-1" d="M1240.88,441.2h9.93a.63.63,0,0,0,0-1.25h-9.93a.63.63,0,0,0,0,1.25Z"/><path class="cls-1" d="M1261.74,441.2h8.94a.63.63,0,0,0,0-1.25h-8.94a.63.63,0,0,0,0,1.25Z"/><path class="cls-1" d="M1281.6,441.2h9.93a.63.63,0,0,0,0-1.25h-9.93a.63.63,0,0,0,0,1.25Z"/><path class="cls-1" d="M1236.91,510.72h10.92a.63.63,0,0,0,0-1.25h-10.92a.63.63,0,0,0,0,1.25Z"/><path class="cls-1" d="M1256.77,510.72h8.94a.63.63,0,0,0,0-1.25h-8.94a.63.63,0,0,0,0,1.25Z"/><path class="cls-1" d="M1275.64,510.72h10.92a.63.63,0,0,0,0-1.25h-10.92a.63.63,0,0,0,0,1.25Z"/><path class="cls-2" d="M131.83,18.36c-2.24-1.68-3.63-3.25-6.53-2.84a16.65,16.65,0,0,0-7.4,3.11,16.86,16.86,0,0,0-7,12.7c-.43,11.05,11.56,19.59,21.89,16.1,10.08-3.41,15.58-15.85,8.51-24.71-5.94-7.44-19.9-6.48-21.88,4-1.15,6.15,3.59,11.32,8.53,14.17,3.57,2.06,7.6,3.24,11.09,5.44,2.17,1.37,4.62,3.51,5.26,6.11.72,2.94-2.05,7.08-5.44,5.16-2.81-1.58-5.33,2.73-2.52,4.32,7.45,4.21,15.12-3.94,12.55-11.46-1.63-4.77-5.88-7.85-10.22-10-4.8-2.38-15.95-5.63-14.33-13,1.85-8.44,13.08-4.49,14.86,1.83s-3.48,12.79-9.7,13.82c-6.52,1.08-13.51-4.44-13.62-11.15a11.71,11.71,0,0,1,4.3-8.78c3.29-2.83,5.86-3,9.19-.54,2.57,1.93,5.07-2.41,2.52-4.32Z"/><path class="cls-2" d="M161.62,22.77l-.86,21.37h5l0-21.69A2.53,2.53,0,0,0,163.87,20c-6-1.09-11.9,3.17-11.53,9.54.19,3.2,5.19,3.22,5,0a4.44,4.44,0,0,1,5.2-4.72l-1.84-2.41,0,21.69c0,3.23,4.87,3.21,5,0l.86-21.37c.13-3.22-4.87-3.21-5,0Z"/><path class="cls-2" d="M164.35,42.24l-10.5,3.42c-3,1-1.74,5.82,1.33,4.82l10.5-3.42c3-1,1.74-5.82-1.33-4.82Z"/><path class="cls-2" d="M238.43,15.17c-9.49,2.21-16.4,12.71-12.49,22.21,3.5,8.5,14.61,12.86,22.94,9,8.63-4.06,12.49-15.74,7.11-23.85C251,15,236.61,13.41,234.82,24.39c-.9,5.52,3.67,9.86,8.13,12.2,2.82,1.48,5.93,2.32,8.7,3.89,1.61.91,4,2.33,4.44,4.27.4,1.65-1.14,5.54-3.3,4.55-2.9-1.34-5.45,3-2.52,4.32,6.77,3.11,12.94-4.79,10.24-11.21-1.55-3.68-5.3-5.88-8.78-7.43-3.9-1.73-16-5.76-10.73-11.88,5.56-6.44,13,3.13,12.45,8.94A11.69,11.69,0,0,1,242.13,42.8c-5.7,0-11.66-4.19-12.28-10.08-.64-6.15,4.24-11.41,9.9-12.73,3.13-.73,1.81-5.55-1.33-4.82Z"/><path class="cls-2" d="M270.27,26.51c-1.19-3.17,2.73-6.07,5.79-5.27,3.54.92,4.53,5.42,4.14,8.5-.78,6.2-6.67,10.4-11.31,13.85-1.9,1.41-1.4,4.63,1.26,4.66l24.62.31c3.22,0,3.22-5,0-5l-24.62-.31,1.26,4.66c8.1-6,19.59-17,11.26-27.78-5.88-7.58-21-2.34-17.22,7.72,1.12,3,6,1.69,4.82-1.33Z"/><path class="cls-2" d="M373.61,18.34c-9.68-3.51-22.09,2.21-23.89,12.86-1.86,11,8.46,21.47,19.45,19.85s19-13.66,13.58-23.95c-4.7-8.95-19.84-10.63-22.87.77-1.51,5.67,2.68,10.37,7.19,13.1,3.13,1.89,6.72,2.89,9.86,4.76,1.78,1.07,3.62,2.36,4.32,4.39.84,2.42-.89,6.19-3.89,5s-4.28,3.63-1.33,4.82c7.7,3.1,12.86-7.32,9.15-13.33-2.63-4.27-7.57-6.13-11.92-8.09-2.52-1.14-5.3-2.41-7.08-4.61-2.85-3.5-1.27-7.48,2.89-8.87,8.31-2.78,12.42,8.36,9,14.4s-11.41,8.83-17.44,5c-5.33-3.38-8-10.71-4.48-16.3,3.4-5.32,10.41-7.06,16.11-5,3,1.1,4.34-3.73,1.33-4.82Z"/><path class="cls-2" d="M394.34,29.2c-1-4.22,6.14-8.21,8-3.5,1.18,2.95-1.31,6-4.11,6.37-2.09.28-2.45,3.71-.6,4.57l14.94,6.95V39.26l-17.36,9.2c-2.84,1.51-.32,5.82,2.52,4.32l17.36-9.2c1.57-.83,1.7-3.53,0-4.32l-14.94-6.95-.6,4.57c7.52-1,11-11.89,4.73-16.65-6.89-5.24-16.66,2.45-14.79,10.3.74,3.13,5.57,1.8,4.82-1.33Z"/><path class="cls-2" d="M497.36,23.7c-8.39-6.27-22.5-3.22-26.59,6.8-4.31,10.58,5.15,22.9,16.18,23.12S507,42,504.31,31.33c-2.62-10.38-19.59-17.38-24.43-4.68-2.6,6.83,3.27,12.9,8.85,15.83,3.42,1.8,7.24,2.77,10.57,4.75,2.23,1.33,4.66,3.14,4.88,5.91.19,2.36-1.3,5.88-4.22,5.1-3.11-.83-4.44,4-1.33,4.82,9.27,2.46,13.34-10.13,8-16.31-4-4.67-10.15-5.83-15.38-8.6-3.51-1.86-8.19-5.29-6.45-9.72,1.86-4.73,7.94-4.32,11.25-1.39,11.7,10.35-5.93,29.29-17.46,17.72-4.84-4.85-5.46-12.63.48-16.86a13.4,13.4,0,0,1,15.75.11c2.58,1.93,5.07-2.41,2.52-4.32Z"/><path class="cls-2" d="M521.45,17.52c-5.49,7.73-8.4,21,1.84,26.4a13.67,13.67,0,0,0,11.48.69,9.37,9.37,0,0,0,4-3.11c1.81-2.52.9-3.85-.51-6.36-1.57-2.81-5.89-.29-4.32,2.52l1.35,2.41V37.55c-2.22,4.39-8.77,3.59-11.75.4-4.77-5.09-1.08-13.23,2.25-17.91,1.87-2.63-2.47-5.13-4.32-2.52Z"/><path class="cls-2" d="M528.33,34.71l-1.75,20.4c-.28,3.21,4.73,3.19,5,0l1.75-20.4c.28-3.21-4.73-3.19-5,0Z"/><path class="cls-2" d="M610.31,18.12c-8.33,2.15-15.2,10-14.1,18.92s10.28,16.11,19.31,14.51c8.27-1.47,15.12-10.06,13-18.57s-11.67-13.2-19.79-10.72c-3.07.94-1.76,5.76,1.33,4.82,5.26-1.61,11.82,1,13.49,6.61,1.92,6.4-4.22,13-10.48,13.08-5.83.11-11.58-4.86-12-10.74-.43-6.43,4.56-11.57,10.49-13.1,3.11-.8,1.79-5.63-1.33-4.82Z"/><path class="cls-2" d="M618.36,22.58c-8-4.81-15.66,4.87-12.69,12.49,2,5.11,6.62,8.21,10.93,11.22,2.56,1.79,5.47,3.68,7,6.48s1.5,7.55-2.31,8.64c-3.09.88-1.78,5.71,1.33,4.82,7.21-2.06,8.69-10.8,4.93-16.61-2.38-3.67-6.19-6-9.68-8.5-2.54-1.79-5.57-3.82-7-6.69-.87-1.74-1.51-3.69-.51-5.56s3.33-3.27,5.45-2c2.76,1.67,5.28-2.65,2.52-4.32Z"/><path class="cls-2" d="M636.14,20.38l-3.26,21.06a2.51,2.51,0,0,0,4.57,1.93c1.65-2.22,5.94-2.28,7.5.06,2.47,3.72-2.58,7-6,5.81-3-1.06-4.35,3.77-1.33,4.82,7.1,2.47,16-4.88,12.31-12.39-3.25-6.58-12.76-6.21-16.78-.83l4.57,1.93L641,21.7c.49-3.15-4.33-4.5-4.82-1.33Z"/><path class="cls-2" d="M654.12,18.63l-21,3.42c-3.17.51-1.82,5.33,1.33,4.82l21-3.42c3.17-.51,1.82-5.33-1.33-4.82Z"/><path class="cls-2" d="M737.78,29.51c11.47,2.37,11.38,20-1.41,19.62C731.36,49,726,45.74,726,40.2c0-6.45,6.32-11.23,12.42-10.61,3.2.33,3.17-4.67,0-5-8.63-.88-17,6.31-17.42,15.05-.38,8.14,6.74,13.81,14.35,14.42s15-4,15.94-11.91-4.37-15.85-12.21-17.47c-3.14-.65-4.48,4.17-1.33,4.82Z"/><path class="cls-2" d="M745.85,28.74c-4-7.73-15.76-2.65-16.15,4.92-.32,6.13,4.29,11,8.72,14.57,2.43,2,5.11,3.83,7.1,6.27,2.25,2.76,4.12,12.12-2.71,10.72-3.14-.64-4.48,4.18-1.33,4.82,8.85,1.81,13.71-8.52,9.93-15.68-2.56-4.84-7.3-7.63-11.26-11.17-2.62-2.33-7.14-6.92-5.1-10.84,1.09-2.11,5.17-3.62,6.47-1.08,1.47,2.86,5.79.34,4.32-2.52Z"/><path class="cls-2" d="M771,21.47c-6.73,4.28-14.31,9.44-15.38,18-.85,6.85,3.25,14,10.75,13.83,4.55-.09,12.07-4.69,9.22-10.11-3.38-6.43-13.5-6.48-18.87-3.32-2.77,1.63-.26,6,2.52,4.32a9.6,9.6,0,0,1,5.85-1.44c1,.09,5.89,1.18,6,2.78.06,1.19-2.43,2.29-3.19,2.52A5.37,5.37,0,0,1,761.65,46c-5.79-8.42,6.07-16.49,11.85-20.17,2.71-1.72.2-6.05-2.52-4.32Z"/><path class="cls-2" d="M855.48,22.34c-10.45-.57-20.78,9.32-17.79,20.13,2.56,9.29,14.06,14.86,22.89,10.94,9-4,12.8-16.52,6.69-24.52-5.94-7.78-21-8-22.75,3.48-.93,6,3.92,10.61,8.89,12.9,3.78,1.74,8.08,2.27,11.76,4.21,2.1,1.1,4.7,2.89,5.27,5.35.52,2.26-2.08,6.2-4.56,4.22s-6.05,1.53-3.54,3.54c6.31,5,15.06-1.48,12.92-9.08C874,49,869.86,46,865.77,44.3c-4.68-1.93-18.42-4-16.17-11.84,2.69-9.39,15.06-2.38,15.68,4.6.55,6.17-4.19,12.41-10.54,12.64-5.33.19-11.35-3.72-12.4-9.16-1.47-7.64,6.12-13.59,13.13-13.21,3.22.18,3.21-4.82,0-5Z"/><path class="cls-2" d="M885.23,24.52l16-.9-2.41-3.16c-2.94,10.1-7.85,19.17-12.68,28.45-1.48,2.85,2.83,5.38,4.32,2.52,5-9.68,10.11-19.12,13.18-29.64a2.52,2.52,0,0,0-2.41-3.16l-16,.9c-3.2.18-3.22,5.18,0,5Z"/><path class="cls-2" d="M897.24,35.7a16.81,16.81,0,0,0-18.23-1c-2.81,1.56-.29,5.88,2.52,4.32a11.91,11.91,0,0,1,13.18,1c2.58,1.93,5.07-2.41,2.52-4.32Z"/><path class="cls-2" d="M966.43,25.16c-6.3,8.05-5.33,20.27,3,26.7s21,3.73,27.1-4.43c6.26-8.43,2.63-21.23-6.82-25.59s-22.26,3.51-21.46,14.4c.47,6.41,6,10.74,11.18,13.59,4.06,2.22,8.83,3.85,12.07,7.3,1.81,1.93,3.18,4.63,2.55,7.28s-4.06,4.94-6.55,2.71-5.94,1.39-3.54,3.54c7.59,6.79,17.48-2.19,14.78-11-1.81-5.88-7.14-9.27-12.3-11.92-6.15-3.17-17.09-8.15-11.86-16.88,4.22-7,13.5-6.87,17.93-.22A12,12,0,0,1,989,47.73c-5.32,3.57-13,3.88-17.7-.83S965.8,34,970,28.7c2-2.51-1.55-6.07-3.54-3.54Z"/><path class="cls-2" d="M1011.54,38.71c6.23,1.2,13.21-4.91,10.14-11.44-2.43-5.17-10.44-5.71-14.13-1.64-4.24,4.68-.79,10.6,2.42,14.65,1.76,2.21,5.63,5.65,5.08,8.8-.38,2.17-3,2.84-4.79,2-3.71-1.74.43-6.28,3.51-4.74,2.87,1.43,5.41-2.88,2.52-4.32-5.46-2.73-13.5,1.25-12.58,8,.84,6.15,9.11,8.21,13.61,4.6,5-4,2.17-10.29-1-14.4-1.89-2.43-5.35-5.42-5.7-8.67-.24-2.21,1.41-3.63,3.56-3.62,4.77,0,3.33,6.85-1.3,6-3.14-.61-4.49,4.21-1.33,4.82Z"/><path class="cls-2" d="M1100,25.75a9.32,9.32,0,0,0-11.7-2.22c-4.23,2.28-6,7.42-5.45,12,1.07,9.74,11.47,16.75,20.94,14.9,9.69-1.89,16.68-12.83,13.22-22.32-3-8.26-16.1-13.31-20.73-3.44-2.47,5.28.71,11,4.82,14.42,2.8,2.3,6.13,3.74,9.06,5.83,2,1.43,4.6,3.55,5.17,6.12.64,2.92-2,6.68-5.12,4.59-2.67-1.81-5.17,2.52-2.52,4.32,5.76,3.91,13.26-1.58,12.84-8.12-.26-4-2.94-7.42-5.94-9.83-4.25-3.41-11.9-5.57-13.67-11.22-1.37-4.38,2.39-7.82,6.76-6.06a8.91,8.91,0,0,1,5.19,7.66c.48,5.4-3.21,10.69-8.2,12.58-5.23,2-11.23-.19-14.57-4.54a10.08,10.08,0,0,1-2.18-7.94c.72-4,5.4-7.24,8.56-3.18,2,2.54,5.49-1,3.54-3.54Z"/><path class="cls-2" d="M1140.37,33.4c6.33-1.79,7-10.58,1.28-13.69-8.54-4.63-15.45,4.42-18.74,11a2.57,2.57,0,0,0,.9,3.42,17.68,17.68,0,0,0,21.13-1.1l-4.18-2.43-3.16,17.06c-.58,3.15,4.23,4.49,4.82,1.33l3.16-17.06a2.52,2.52,0,0,0-4.18-2.43,12.64,12.64,0,0,1-15.07.32l.9,3.42c1.26-2.52,2.54-5.32,4.65-7.28a8.41,8.41,0,0,1,3.85-2.13q2.73-1.05,3.83,1.32,2.44,1.67-.52,3.46c-3.09.87-1.78,5.7,1.33,4.82Z"/><path class="cls-2" d="M1217.3,37.81a10.35,10.35,0,0,0,6.41-11.92c-1.26-6.12-7.42-9.27-13.3-8.9-12.3.77-18.52,14.33-13.82,25,5,11.45,19.73,12,28.26,4.14,4-3.7,6.6-9.51,5.06-15-1.47-5.21-7-10.25-12.63-9.53-6.83.87-8.64,8.54-6.21,14,1.55,3.52,4.54,6,7.55,8.23a37,37,0,0,1,6.28,5.24c1.14,1.35,2.52,3.42,2.49,5.2,0,2.14-2.69,5.85-5.34,3.64-2.45-2-6,1.47-3.54,3.54a8,8,0,0,0,10.61-.09c3.71-3,4-7.89,1.92-12-3-6-9.35-8.25-13.61-13.06-2.52-2.85-4.38-11.51,2.53-9.41,3.65,1.11,5.83,5.37,5.28,9-1.86,12.27-21.49,14.66-24.79,2.05-1.4-5.36.39-11.91,5.47-14.68,3-1.63,7.23-2,10.2-.15,3.38,2.13,4.18,8.08-.14,9.84-2.94,1.2-1.65,6,1.33,4.82Z"/><path class="cls-2" d="M1242.68,22.91l-5.25,23.8c-.69,3.14,4.13,4.47,4.82,1.33l5.25-23.8c.69-3.14-4.13-4.47-4.82-1.33Z"/><path class="cls-2" d="M1256.47,25.09c-5,4.2-5.28,12-1.45,17.12,4.36,5.79,12.42,5.74,17.62,1.09s6.16-12.85.48-17.63c-5.14-4.32-13.11-4.43-18,.19-2.35,2.2,1.19,5.73,3.54,3.54,2.91-2.73,7.7-2.57,10.86-.26,3.91,2.86,3,7.87-.46,10.7-7.77,6.32-16-5.35-9-11.21,2.47-2.06-1.08-5.58-3.54-3.54Z"/><circle class="cls-3" cx="153.14" cy="218.58" r="14.4"/><circle class="cls-4" cx="399.74" cy="266.48" r="14.4"/><circle class="cls-5" cx="515.76" cy="305.43" r="14.4"/><circle class="cls-4" cx="634.26" cy="305.43" r="14.4"/><circle class="cls-4" cx="747.04" cy="366.44" r="14.4"/><circle class="cls-4" cx="871.9" cy="403.52" r="14.4"/><circle class="cls-4" cx="991.22" cy="433.02" r="14.4"/><circle class="cls-4" cx="1115.23" cy="516.81" r="14.4"/><circle class="cls-4" cx="1225.08" cy="578.27" r="14.4"/><circle class="cls-6" cx="282.48" cy="262.5" r="14.4"/><circle class="cls-6" cx="399.74" cy="223.31" r="14.4"/><circle class="cls-3" cx="517" cy="218.58" r="14.4"/><circle class="cls-3" cx="634.92" cy="262.5" r="14.4"/><circle class="cls-6" cx="747.04" cy="320" r="14.4"/><circle class="cls-3" cx="875.48" cy="320" r="14.4"/><circle class="cls-3" cx="996.76" cy="377.54" r="14.4"/><circle class="cls-7" cx="1225.08" cy="438.73" r="14.4"/><path class="cls-2" d="M51.68,166.08l5.12,323,1.45,91.73c0,2.07,2.77,3.42,4.27,1.77l23.81-26.34-3.54-3.54L60.54,578.55l3.93.51L38.6,544.42c-1.9-2.55-6.25-.06-4.32,2.52l25.86,34.63c.88,1.18,2.77,1.85,3.93.51l22.25-25.81c2.08-2.42-1.36-5.94-3.54-3.54L59,579.08l4.27,1.77-5.12-323-1.45-91.73c-.05-3.21-5.05-3.22-5,0Z"/><path class="cls-2" d="M65.83,191.86,69,195,72,191a38.53,38.53,0,0,1-15.55-26.67,2.52,2.52,0,0,0-4.66-1.26L33.44,190.25c-1.81,2.67,2.52,5.18,4.32,2.52l18.35-27.14-4.66-1.26a44,44,0,0,0,18,31c2.33,1.7,5-2,3-3.93l-3.13-3.11c-2.29-2.27-5.83,1.27-3.54,3.54Z"/><path class="cls-2" d="M11,139.8c11.2,6.81,23.11-8.7,13-17.38-7.77-6.64-20.64.88-20.35,10.54.38,12.59,15.15,17.26,25.06,12.57s18.6-19.81,30.63-18.15c3.12.43,4.45-3.74,1.33-4.82-6.54-2.25-14.55-2.22-19.81,2.89-4.4,4.27-6.07,11.55-2.44,16.81a12,12,0,0,0,15.39,3.52c5.56-3.21,6.82-10.14,4.38-15.67l-3.93,3c9,11,26.44,3.67,25.14-10.4L74.76,124l8.69,15,.9-3.42a6.82,6.82,0,0,1-8.45-2.25l-3.42,3.42c10.07,5.68,23.69,1.52,28.45-9.16.91-2-1.13-5-3.42-3.42A8.31,8.31,0,0,0,100,139.08c9,2.37,14.3-7.1,13.49-14.78l-4.91.66,5.58,28.19c1.12,5.64,6.94,22.61-3.37,22.75-9.1.12-10.14-10.35-6.1-16.42,5-7.56,14.83-9.5,23.1-11.27,3.14-.68,1.81-5.5-1.33-4.82-10.67,2.29-22.65,5.51-27.6,16.36-3.67,8-1,17.91,8,20.57,9.39,2.75,15.47-4.73,14.77-13.69-.54-6.84-2.47-13.71-3.8-20.43l-4.47-22.55c-.54-2.73-5.21-2.15-4.91.66s.18,6.26-2.06,8.39c-1.12,1.07-3.54,2.05-5.1,1.56-2.4-.76-3.79-4.09-1.3-5.78l-3.42-3.42C93,133.22,82.89,136.89,75,132.43c-2-1.15-5,1.29-3.42,3.42a12,12,0,0,0,15.29,4,2.53,2.53,0,0,0,.9-3.42l-8.69-15c-1.17-2-4.89-1.29-4.66,1.26.91,9.85-10.33,14.52-16.61,6.87-1.95-2.38-5,.66-3.93,3C58.44,143,40.41,146,41.51,134.83c.87-8.95,11.14-9.75,17.84-7.44l1.33-4.82c-14.53-2-22,12.26-33.47,18.15-3.7,1.9-7.79,2.66-11.72.95-4.48-2-8.65-7.35-6-12.28,1.74-3.23,6.54-5.51,10-3.91,7.16,3.3,1.14,14.31-5.94,10-2.76-1.68-5.27,2.65-2.52,4.32Z"/><circle class="cls-8" cx="519.93" cy="362.58" r="14.4"/><circle class="cls-7" cx="635.06" cy="365.44" r="14.4"/><circle class="cls-8" cx="746.41" cy="427.73" r="14.4"/><circle class="cls-8" cx="875.48" cy="432.96" r="14.4"/><circle class="cls-3" cx="1115.23" cy="453.51" r="14.4"/><circle class="cls-3" cx="1225.08" cy="508.5" r="14.4"/><path d="M1328.24,417.43l-6.72,29.38,4.82,1.33c1.46-7.61,2.9-15.22,4.37-22.82.27-1.39.46-4.73,1.52-5.69l4.45-1a5.61,5.61,0,0,1-1,4.32c-1.4,2.48-3.49,4.43-4.57,7.11-3.35,8.34,2.26,18.14,10.87,20,3.14.68,4.48-4.13,1.33-4.82a10.22,10.22,0,0,1-7.88-7.66c-1-3.92.72-6.68,2.89-9.75,2.89-4.08,5.78-10.89.36-14.46-5.12-3.37-10.3,1.44-11.85,6.21-2.79,8.62-3.66,18.27-5.37,27.16-.6,3.13,4.1,4.49,4.82,1.33l6.72-29.38c.72-3.13-4.1-4.47-4.82-1.33Z"/><path d="M1347.35,435.41a9,9,0,0,0-6,9.57,8.15,8.15,0,0,0,8.68,7.13c4.3-.21,8.11-3.38,8.21-7.85.09-4.2-3-8.44-7.29-9a2.59,2.59,0,0,0-3.08,1.75,2.52,2.52,0,0,0,1.75,3.08c4.08.58,5.09,6.62.41,7.08-4.26.42-5.1-5.61-1.3-6.87,3-1,1.73-5.85-1.33-4.82Z"/><path d="M1363,441.11c-4.69,2.68-3.68,9.91,1.39,11.57,7.16,2.35,11.43-4.93,13.61-10.41,1-2.63-3.29-4.43-4.57-1.93-3.9,7.64,3.82,15.36,11.42,11.21,2.83-1.54.3-5.86-2.52-4.32-3,1.64-6.23-1.14-4.58-4.37l-4.57-1.93c-.78,2-1.67,4.45-3.36,5.86a5,5,0,0,1-2.82,1.26c-.91,0-3.37-1.54-1.46-2.63,2.79-1.6.28-5.92-2.52-4.32Z"/><path d="M1388.93,421.36l-.87,25.27c-.11,3.22,4.89,3.21,5,0l.87-25.27c.11-3.22-4.89-3.21-5,0Z"/><path d="M1398.9,422.69l-6.76,5.29a2.51,2.51,0,0,0,0,3.54,2.56,2.56,0,0,0,3.54,0l6.76-5.29a2.51,2.51,0,0,0,0-3.54,2.56,2.56,0,0,0-3.54,0Z"/><path d="M1393.94,447c5.92,2.32,14.19,2.14,16.25-5.2,1.56-5.57-3.26-10.48-8.82-8.49-5.74,2.06-7.27,8.74-3.62,13.41,5.44,7,14.59,4.83,21.72,2.24,3-1.09,1.71-5.92-1.33-4.82-4.48,1.63-15.57,5.35-17.15-2-.27-1.25-.24-2.72,1.09-3.49,2.24-1.3,4.21.79,2.87,2.87-2.11,3.29-6.82,1.84-9.68.72s-4.3,3.66-1.33,4.82Z"/><path d="M1430.34,419l-3.85,32.18c-.28,2.36,2.81,3,4.27,1.77l1.37-1.17c2.45-2.09-1.1-5.61-3.54-3.54l-1.37,1.17,4.27,1.77,3.85-32.18c.38-3.19-4.62-3.16-5,0Z"/><path d="M1329.18,497.69l-6.57,21.46,4.82,1.33a58.61,58.61,0,0,1,13.81-28.55h-3.54c1.24,1.51-4.4,8-5.07,9.79a18.22,18.22,0,0,0,9.21,22.52c2.92,1.29,5.46-3,2.52-4.32-6.38-2.82-9.87-10.84-6.69-17.34,2.34-4.77,8-8.78,3.56-14.19a2.51,2.51,0,0,0-3.54,0,63.44,63.44,0,0,0-15.1,30.76c-.58,3.13,3.87,4.45,4.82,1.33L1334,499c.94-3.08-3.88-4.4-4.82-1.33Z"/><path d="M1347.32,509a9.15,9.15,0,0,0-6.35,9.9,8.18,8.18,0,0,0,9,7c4.4-.37,8.29-3.8,8.05-8.44a9.22,9.22,0,0,0-8.91-8.74c-3.22,0-3.22,5,0,5a4.15,4.15,0,0,1,3.91,3.74c.21,2.09-1.64,3.35-3.53,3.47-4.49.28-4.77-6-.88-7.14,3.09-.89,1.77-5.72-1.33-4.82Z"/><path d="M1364.12,510.2c-5.09,3-5.86,11-.63,14.29,5.79,3.69,12.71-1.77,12.8-7.91,0-2.69-3.28-3.12-4.66-1.26-4.44,6,4.23,11.65,9.61,8.57,3.93-2.25,5.8-7.13,7.54-11a142.41,142.41,0,0,0,6.15-16.59c.87-2.87-3-4.12-4.57-1.93-5.65,7.93-12.05,21-1.47,28.22,8.32,5.66,17.14-3.13,15.45-11.79a2.48,2.48,0,0,0-1.75-1.75c-6.78-1.93-11.89,6.59-7.57,12,6.45,8,16.54,1.31,22-4,2.32-2.24-1.22-5.77-3.54-3.54s-4.94,5-8.17,5.86a7.1,7.1,0,0,1-3.77.09,2.23,2.23,0,0,1-2.28-2.55q-1.85-2.77,2-3.06l-1.75-1.75c.6,3.06-1.31,7-4.8,7.25-3.19.2-5.55-3.09-6.28-5.83-1.63-6.06,2.95-12,6.25-16.65l-4.57-1.93a133.85,133.85,0,0,1-5.28,14.57,60.16,60.16,0,0,1-2.91,6.17,14.32,14.32,0,0,1-2.08,3q-5.25,2.26-3.89-.87l-4.66-1.26c-.11,8-10.69,1.45-4.64-2.06,2.78-1.61.27-5.94-2.52-4.32Z"/><path d="M1410.68,493.26l-20.9,2.21c-3.17.34-3.2,5.34,0,5l20.9-2.21c3.17-.34,3.2-5.34,0-5Z"/><path d="M1426.65,510.21c-1.14-5.46,5.75-4.47,7.57-1.37,1.51,2.56.75,5.64-.6,8.06-2.34,4.21-6.8,6.62-10.83,8.95a2.52,2.52,0,0,0,1.26,4.66l22.93.75c3.22.11,3.21-4.89,0-5l-22.93-.75,1.26,4.66c8.16-4.71,20.35-14.81,12.32-25.17-5.68-7.34-17.82-3.05-15.81,6.54.66,3.15,5.48,1.82,4.82-1.33Z"/><path d="M1323.71,575.35l-2.3,26.19c-.29,3.24,4.62,3.13,5,0a65.49,65.49,0,0,1,7.89-24.25c.83-1.47,1.7-2.91,2.65-4.31a11.44,11.44,0,0,1,3-3.45q3,1.77,0,3.72c-2.09,2-4.82,3-6.68,5.35-7.41,9.32.66,22.43,12.1,21.12,3.16-.36,3.2-5.37,0-5-5.12.59-10.33-2.66-10-8.35.34-5.17,4.8-6.58,8.07-9.59,3.59-3.29,4.89-10.89-1.12-12.43-6.66-1.71-11.24,8.06-13.6,12.63a72.37,72.37,0,0,0-7.38,24.54h5l2.3-26.19c.28-3.2-4.72-3.19-5,0Z"/><path d="M1351.68,588.9c3.14,1.37,3.08,6.78-1,6.33-4.42-.49-3.4-6.44.63-6.35,3.22.07,3.22-4.93,0-5a8.71,8.71,0,0,0-8.61,7.85,8.21,8.21,0,0,0,16,2.87c1-3.82-.77-8.4-4.48-10-2.92-1.28-5.47,3-2.52,4.32Z"/><path d="M1364.21,589.51a6.31,6.31,0,0,0-1.18,11.37c6.85,4.1,12.43-3.42,14.83-8.84,1.11-2.52-1.71-5-3.93-3-7.27,6.62,1.17,16.31,9.45,14,11.18-3.1,14-19.06,14.78-28.79.26-3.21-4.73-3.18-5,0-.73,8.47-12.06,19.28-3.14,27.43a8.29,8.29,0,0,0,10.86.06c4.07-3.24,4.32-8.5,3.19-13.21a2.53,2.53,0,0,0-3.67-1.49c-5.43,2.73-7.2,10.89-2.29,15.06s12.44,1.21,14.58-4.48c1.13-3-3.7-4.32-4.82-1.33-1,2.79-4.94,3.77-6.8,1.39-1.74-2.23-.5-5.13,1.85-6.32l-3.67-1.49c.62,2.58,1.09,6.85-2,8.39a3.5,3.5,0,0,1-4.81-1.87,9.74,9.74,0,0,1,.12-7.2c1.89-5.23,5.13-9.21,5.62-14.93h-5a49.39,49.39,0,0,1-4,16.52c-1.07,2.34-2.37,4.7-4.55,6.19s-3.67,1.71-5.91.69c-2.08-1-3.56-2.92-1.19-5.09l-3.93-3a33.39,33.39,0,0,1-1.81,3.75l-1.2,1.72q-2.22,3.15-5-.66c3-1.08,1.71-5.91-1.33-4.82Z"/><path d="M1411.82,577.23h-27.5c-3.22,0-3.22,5,0,5h27.5c3.22,0,3.22-5,0-5Z"/><path d="M1428.89,580.47c.64-2.18,3.89-3.88,6-2.36,3.09,2.24-.28,6.54-3.16,6.46l.66,4.91c4.17-1.4,9.08,1.75,7,6.56s-7.7,3.51-9.63-.53c-1.39-2.9-5.7-.37-4.32,2.52,3.72,7.79,15.11,8.27,18.6,0s-4.78-16.11-13-13.34a2.51,2.51,0,0,0,.66,4.91c6.78.19,12.31-8.32,7.65-14-4.45-5.46-13.46-2.7-15.3,3.62-.9,3.09,3.92,4.42,4.82,1.33Z"/><path class="cls-2" d="M11.3,620.83,19,580.2l-4.82-1.33L8.55,620.14c-.3,2.15,2.36,4.59,4.18,2.43L28,604.42l-4.27-1.77C22.84,612.12,30,620.1,39.29,621c3.2.32,3.18-4.68,0-5a12,12,0,0,1-10.53-13.36c.2-2.1-2.91-3.37-4.27-1.77L9.2,619l4.18,2.43L19,580.2c.42-3.1-4.21-4.55-4.82-1.33L6.48,619.5c-.6,3.14,4.22,4.49,4.82,1.33Z"/><path class="cls-2" d="M60.49,611.38,60.11,601a2.54,2.54,0,0,0-3.16-2.41C45.92,601,39.11,613.29,43,623.94a2.53,2.53,0,0,0,4.18,1.1l10.48-11.26-3.93-.51c3.91,6.58,13,9.53,19.71,5.17s7.83-13.92,3.26-20.09l-3.93,3c7.72,8.92,18,29.36,33.09,19.95a10.33,10.33,0,0,0,4-13.54c-2.08-4.12-7.2-6.91-11.48-4.19a8.81,8.81,0,0,0-2.93,10.9c2.9,5.62,8.39,2.18,12.06-.64,10.45-8,14.9-22.72,10.28-35.09-.58-1.55-2.9-2.73-4.18-1.1-12,15.3-5,39.86,13.46,46.29,3,1.06,4.35-3.77,1.33-4.82-14.65-5.09-20.89-25.65-11.25-37.93l-4.18-1.1a25.84,25.84,0,0,1-1.16,20.79,26.28,26.28,0,0,1-6.82,8.64c-.49.4-4.19,3.42-5,3.08s-.25-2.94,0-3.5c2.42-4.64,8.1,2.77,4.6,6.77-3,3.4-8.27,2.91-11.85,1-7.51-4-11.18-12.86-16.54-19.06-1.83-2.12-5.63.74-3.93,3,2.93,4,2.92,10.19-1.46,13.25s-10.36.85-12.87-3.37a2.52,2.52,0,0,0-3.93-.51L43.65,621.5l4.18,1.1a14.62,14.62,0,0,1,10.44-19.23L55.11,601l.38,10.41c.12,3.21,5.12,3.22,5,0Z"/><path class="cls-1" d="M1108.69,380l-115.93-1.49a.63.63,0,0,0,0,1.25l115.93,1.49a.63.63,0,0,0,0-1.25Z"/><circle class="cls-8" cx="1115.04" cy="377.54" r="14.4"/><circle class="cls-8" cx="981.82" cy="378.09" r="14.4"/><path class="cls-1" d="M128.11,225a.63.63,0,0,0,0-1.25.63.63,0,0,0,0,1.25Z"/><path class="cls-1" d="M262.05,218.29a.63.63,0,0,0,0-1.25.63.63,0,0,0,0,1.25Z"/><path class="cls-1" d="M247.17,261.55,156.31,225.8c-.75-.29-1.07.91-.33,1.21l90.86,35.75c.75.29,1.07-.91.33-1.21Z"/><path class="cls-1" d="M401.6,318.45c-44.9-16.55-88.31-36.82-133.21-53.37-.76-.28-1.08.93-.33,1.21,44.9,16.55,88.31,36.82,133.21,53.37.76.28,1.08-.93.33-1.21Z"/><circle class="cls-7" cx="139.63" cy="218.58" r="14.4"/><circle class="cls-7" cx="263.02" cy="264.33" r="14.4"/><circle class="cls-7" cx="402.17" cy="314.44" r="14.4"/><path class="cls-1" d="M262.05,217l-133.94,6.73c-.8,0-.81,1.29,0,1.25l133.94-6.73c.8,0,.81-1.29,0-1.25Z"/><circle class="cls-5" cx="123.17" cy="219.88" r="14.4"/><circle class="cls-4" cx="267.41" cy="219.88" r="14.4"/><rect class="cls-9" x="1287.61" y="91.6" width="212.21" height="174.38" rx="7.53" ry="7.53"/><circle class="cls-5" cx="1316.88" cy="225.81" r="14.4"/><circle class="cls-8" cx="1336.24" cy="225.81" r="14.4"/><circle class="cls-6" cx="1355.61" cy="225.81" r="14.4"/><circle class="cls-4" cx="1316.88" cy="138.6" r="14.4"/><circle class="cls-7" cx="1336.24" cy="138.6" r="14.4"/><circle class="cls-3" cx="1355.61" cy="138.6" r="14.4"/><path class="cls-2" d="M1402.22,131.26c-4.66,0-7.66-3.46-7.66-8.57s3-8.62,7.7-8.62a8,8,0,0,1,4.71,1.37l-.34,2.3a7.1,7.1,0,0,0-4.39-1.61c-3.36,0-5.35,2.54-5.35,6.53s2,6.5,5.35,6.5a7.9,7.9,0,0,0,4.66-1.66l.34,2.14A8.74,8.74,0,0,1,1402.22,131.26Z"/><path class="cls-2" d="M1414.61,131.19c-3,0-5.26-2.18-5.26-6s2.21-6,5.26-6,5.33,2.21,5.33,6S1417.68,131.19,1414.61,131.19Zm0-10.13c-2.06,0-3.1,1.78-3.1,4.18s1.08,4.18,3.1,4.18,3.17-1.78,3.17-4.18S1416.67,121.06,1414.61,121.06Z"/><path class="cls-2" d="M1424.78,124.18v6.77h-2.14V119.5h1.71l.36,2.33a5.07,5.07,0,0,1,4-2.57l.34,2A5.24,5.24,0,0,0,1424.78,124.18Z"/><path class="cls-2" d="M1433.38,124.18v6.77h-2.14V119.5h1.71l.36,2.33a5.07,5.07,0,0,1,4-2.57l.34,2A5.24,5.24,0,0,0,1433.38,124.18Z"/><path class="cls-2" d="M1444.06,131.19c-3,0-5.3-1.8-5.3-6,0-3.67,2.16-5.93,5-5.93,3.34,0,4.87,2.57,4.87,5.74v.46h-7.78c.07,2.66,1.34,3.91,3.34,3.91a6.31,6.31,0,0,0,4.1-1.63l.31,1.92A7.13,7.13,0,0,1,1444.06,131.19Zm-3.07-7.34h5.52c-.26-1.85-1.08-2.9-2.74-2.9C1442.45,120.94,1441.32,121.9,1441,123.84Z"/><path class="cls-2" d="M1456.15,131.19c-3.07,0-5.33-2.14-5.33-6s2.4-6,5.38-6a6.21,6.21,0,0,1,3.74,1.06l-.31,2.09a5.18,5.18,0,0,0-3.46-1.27c-1.87,0-3.19,1.42-3.19,4.08s1.42,4.1,3.43,4.1a4.7,4.7,0,0,0,3.34-1.27l.31,1.92A6,6,0,0,1,1456.15,131.19Z"/><path class="cls-2" d="M1466.61,131.14c-2,0-3.34-.72-3.34-3V121.3h-1.73v-1.8h1.73v-3.82l2.09-.31v4.13h2.47l.29,1.8h-2.76v6.43c0,.94.38,1.51,1.58,1.51a5.66,5.66,0,0,0,1-.07l.29,1.82A8,8,0,0,1,1466.61,131.14Z"/><path class="cls-2" d="M1401.86,159.75l-.24-1.54a5.4,5.4,0,0,1-4,1.78,3.06,3.06,0,0,1-3.36-3.19c0-2.86,2.45-4,7.22-4.49v-.48c0-1.44-.86-1.94-2.18-1.94a9.84,9.84,0,0,0-4,1L1395,149a11.09,11.09,0,0,1,4.44-1c2.78,0,4.13,1.13,4.13,3.67v8Zm-.41-5.81c-4.22.41-5.11,1.56-5.11,2.74a1.5,1.5,0,0,0,1.7,1.54,4.86,4.86,0,0,0,3.41-1.61Z"/><path class="cls-2" d="M1414.1,159.75v-7.8c0-1.18-.5-2-1.75-2a4.9,4.9,0,0,0-3.31,1.85v7.92h-2.14V148.3h1.71l.26,1.66a6.15,6.15,0,0,1,4.06-1.9,3,3,0,0,1,3.31,3.36v8.33Z"/><path class="cls-2" d="M1423,160a9.39,9.39,0,0,1-4.18-1.08l.31-2a7.16,7.16,0,0,0,4,1.32c1.46,0,2.33-.55,2.33-1.51s-.65-1.44-2.71-1.94c-2.69-.67-3.77-1.49-3.77-3.53,0-1.82,1.54-3.17,4-3.17a9.25,9.25,0,0,1,3.77.77l-.34,2a7.3,7.3,0,0,0-3.48-1c-1.3,0-2,.5-2,1.32s.58,1.2,2.38,1.66c2.83.72,4.1,1.54,4.1,3.72S1426,160,1423,160Z"/><path class="cls-2" d="M1441.22,159.75h-1.68l-2.64-8.66-2.62,8.66h-1.66l-3.7-11.28,2-.34,2.52,8.47,2.54-8.31h1.8l2.54,8.31,2.45-8.31h2.09Z"/><path class="cls-2" d="M1451.54,160c-3,0-5.3-1.8-5.3-6,0-3.67,2.16-5.93,5-5.93,3.34,0,4.87,2.57,4.87,5.74v.46h-7.78c.07,2.66,1.34,3.91,3.34,3.91a6.31,6.31,0,0,0,4.1-1.63l.31,1.92A7.13,7.13,0,0,1,1451.54,160Zm-3.07-7.34H1454c-.26-1.85-1.08-2.9-2.74-2.9C1449.94,149.74,1448.81,150.7,1448.47,152.64Z"/><path class="cls-2" d="M1461,153v6.77h-2.14V148.3h1.71l.36,2.33a5.07,5.07,0,0,1,4-2.57l.34,2A5.24,5.24,0,0,0,1461,153Z"/><path class="cls-2" d="M1470.72,160a9.39,9.39,0,0,1-4.18-1.08l.31-2a7.16,7.16,0,0,0,4,1.32c1.46,0,2.33-.55,2.33-1.51s-.65-1.44-2.71-1.94c-2.69-.67-3.77-1.49-3.77-3.53,0-1.82,1.54-3.17,4-3.17a9.25,9.25,0,0,1,3.77.77l-.34,2a7.3,7.3,0,0,0-3.48-1c-1.3,0-2,.5-2,1.32s.58,1.2,2.38,1.66c2.83.72,4.1,1.54,4.1,3.72S1473.67,160,1470.72,160Z"/><path class="cls-2" d="M1395.38,218.15V201.59h2.26v16.56Z"/><path class="cls-2" d="M1408.66,218.15v-7.8c0-1.18-.5-2-1.75-2a4.9,4.9,0,0,0-3.31,1.85v7.92h-2.14V206.7h1.71l.26,1.66a6.15,6.15,0,0,1,4.06-1.9,3,3,0,0,1,3.31,3.36v8.33Z"/><path class="cls-2" d="M1418.88,218.39c-3.07,0-5.33-2.14-5.33-6s2.4-6,5.38-6a6.21,6.21,0,0,1,3.74,1.06l-.31,2.09a5.18,5.18,0,0,0-3.46-1.27c-1.87,0-3.19,1.42-3.19,4.08s1.42,4.1,3.43,4.1a4.7,4.7,0,0,0,3.34-1.27l.31,1.92A6,6,0,0,1,1418.88,218.39Z"/><path class="cls-2" d="M1429.85,218.39c-3,0-5.26-2.18-5.26-6s2.21-6,5.26-6,5.33,2.21,5.33,6S1432.92,218.39,1429.85,218.39Zm0-10.13c-2.06,0-3.1,1.78-3.1,4.18s1.08,4.18,3.1,4.18,3.17-1.78,3.17-4.18S1431.91,208.26,1429.85,208.26Z"/><path class="cls-2" d="M1440,211.38v6.77h-2.14V206.7h1.71L1440,209a5.07,5.07,0,0,1,4-2.57l.34,2A5.24,5.24,0,0,0,1440,211.38Z"/><path class="cls-2" d="M1448.61,211.38v6.77h-2.14V206.7h1.71l.36,2.33a5.07,5.07,0,0,1,4-2.57l.34,2A5.24,5.24,0,0,0,1448.61,211.38Z"/><path class="cls-2" d="M1459.29,218.39c-3,0-5.3-1.8-5.3-6,0-3.67,2.16-5.93,5-5.93,3.34,0,4.87,2.57,4.87,5.74v.46h-7.78c.07,2.66,1.34,3.91,3.34,3.91a6.31,6.31,0,0,0,4.1-1.63l.31,1.92A7.13,7.13,0,0,1,1459.29,218.39Zm-3.07-7.34h5.52c-.26-1.85-1.08-2.9-2.74-2.9C1457.69,208.14,1456.56,209.1,1456.22,211Z"/><path class="cls-2" d="M1471.39,218.39c-3.07,0-5.33-2.14-5.33-6s2.4-6,5.38-6a6.21,6.21,0,0,1,3.74,1.06l-.31,2.09a5.18,5.18,0,0,0-3.46-1.27c-1.87,0-3.19,1.42-3.19,4.08s1.42,4.1,3.43,4.1a4.7,4.7,0,0,0,3.34-1.27l.31,1.92A6,6,0,0,1,1471.39,218.39Z"/><path class="cls-2" d="M1481.85,218.34c-2,0-3.34-.72-3.34-3V208.5h-1.73v-1.8h1.73v-3.82l2.09-.31v4.13h2.47l.29,1.8h-2.76v6.43c0,.94.38,1.51,1.58,1.51a5.66,5.66,0,0,0,1-.07l.29,1.82A8,8,0,0,1,1481.85,218.34Z"/><path class="cls-2" d="M1401.86,247l-.24-1.54a5.4,5.4,0,0,1-4,1.78,3.06,3.06,0,0,1-3.36-3.19c0-2.86,2.45-4,7.22-4.49V239c0-1.44-.86-1.94-2.18-1.94a9.84,9.84,0,0,0-4,1l-.29-1.85a11.09,11.09,0,0,1,4.44-1c2.78,0,4.13,1.13,4.13,3.67v8Zm-.41-5.81c-4.22.41-5.11,1.56-5.11,2.74a1.5,1.5,0,0,0,1.7,1.54,4.86,4.86,0,0,0,3.41-1.61Z"/><path class="cls-2" d="M1414.1,247v-7.8c0-1.18-.5-2-1.75-2A4.9,4.9,0,0,0,1409,239V247h-2.14V235.5h1.71l.26,1.66a6.15,6.15,0,0,1,4.06-1.9,3,3,0,0,1,3.31,3.36V247Z"/><path class="cls-2" d="M1423,247.19a9.39,9.39,0,0,1-4.18-1.08l.31-2a7.16,7.16,0,0,0,4,1.32c1.46,0,2.33-.55,2.33-1.51s-.65-1.44-2.71-1.94c-2.69-.67-3.77-1.49-3.77-3.53,0-1.82,1.54-3.17,4-3.17a9.25,9.25,0,0,1,3.77.77l-.34,2a7.3,7.3,0,0,0-3.48-1c-1.3,0-2,.5-2,1.32s.58,1.2,2.38,1.66c2.83.72,4.1,1.54,4.1,3.72S1426,247.19,1423,247.19Z"/><path class="cls-2" d="M1441.22,247h-1.68l-2.64-8.66-2.62,8.66h-1.66l-3.7-11.28,2-.34,2.52,8.47,2.54-8.31h1.8l2.54,8.31,2.45-8.31h2.09Z"/><path class="cls-2" d="M1451.54,247.19c-3,0-5.3-1.8-5.3-6,0-3.67,2.16-5.93,5-5.93,3.34,0,4.87,2.57,4.87,5.74v.46h-7.78c.07,2.66,1.34,3.91,3.34,3.91a6.31,6.31,0,0,0,4.1-1.63l.31,1.92A7.13,7.13,0,0,1,1451.54,247.19Zm-3.07-7.34H1454c-.26-1.85-1.08-2.9-2.74-2.9C1449.94,236.94,1448.81,237.9,1448.47,239.85Z"/><path class="cls-2" d="M1461,240.18V247h-2.14V235.5h1.71l.36,2.33a5.07,5.07,0,0,1,4-2.57l.34,2A5.24,5.24,0,0,0,1461,240.18Z"/><path class="cls-2" d="M1470.72,247.19a9.39,9.39,0,0,1-4.18-1.08l.31-2a7.16,7.16,0,0,0,4,1.32c1.46,0,2.33-.55,2.33-1.51s-.65-1.44-2.71-1.94c-2.69-.67-3.77-1.49-3.77-3.53,0-1.82,1.54-3.17,4-3.17a9.25,9.25,0,0,1,3.77.77l-.34,2a7.3,7.3,0,0,0-3.48-1c-1.3,0-2,.5-2,1.32s.58,1.2,2.38,1.66c2.83.72,4.1,1.54,4.1,3.72S1473.67,247.19,1470.72,247.19Z"/></svg>