<?xml version="1.0" encoding="utf-8"?>
<!-- Generator: Adobe Illustrator 23.1.1, SVG Export Plug-In . SVG Version: 6.00 Build 0)  -->
<svg version="1.1" id="Layer_1" xmlns="http://www.w3.org/2000/svg" xmlns:xlink="http://www.w3.org/1999/xlink" x="0px" y="0px"
	 viewBox="0 0 577.3 207.3" style="enable-background:new 0 0 577.3 207.3;" xml:space="preserve">
<style type="text/css">
	.st0{clip-path:url(#SVGID_2_);}
	.st1{fill:#FFFFFF;}
	.st2{fill:#010101;}
	.st3{fill:#EFB320;}
	.st4{fill:#FEE36D;}
	.st5{clip-path:url(#SVGID_4_);}
	.st6{fill:#59A4DA;}
	.st7{fill:#0794D3;}
	.st8{fill:#96C0E7;}
	.st9{clip-path:url(#SVGID_6_);}
	.st10{clip-path:url(#SVGID_8_);}
	.st11{fill:#B8896E;}
	.st12{fill:#E56B25;}
</style>
<g>
	<defs>
		<rect id="SVGID_1_" x="20.5" y="18.9" width="169.6" height="169.6"/>
	</defs>
	<clipPath id="SVGID_2_">
		<use xlink:href="#SVGID_1_"  style="overflow:visible;"/>
	</clipPath>
	<g class="st0">
		<path class="st1" d="M189.7,103.7c0,46.6-37.8,84.4-84.4,84.4S21,150.3,21,103.7s37.8-84.4,84.4-84.4S189.7,57.1,189.7,103.7z"/>
		<g>
			<path class="st2" d="M105.4,188.5c-46.8,0-84.8-38-84.8-84.8s38-84.8,84.8-84.8s84.8,38,84.8,84.8
				C190.1,150.5,152.2,188.5,105.4,188.5 M105.4,19.7c-46.4,0-84,37.6-84,84s37.6,84,84,84s84-37.6,84-84S151.8,19.7,105.4,19.7"/>
			<path class="st2" d="M35.9,131c-0.4-1.1-0.6-2.2-0.6-3.3l2-0.4c0,1,0.1,2,0.4,3c0.3,0.8,0.7,1,1.1,0.9s0.5-0.5,0.4-1.4
				c-0.2-2.1-0.1-3.3,1.5-3.9s3,0.2,3.7,1.9c0.4,0.9,0.5,1.9,0.5,2.9l-1.9,0.4c0-0.9-0.1-1.8-0.4-2.6c-0.2-0.6-0.6-0.8-1-0.7
				s-0.5,0.5-0.4,1.4c0.2,2.2,0,3.3-1.4,3.8C38.2,133.7,36.7,132.9,35.9,131"/>
			<path class="st2" d="M40.9,141.3c-1.3-2.3-0.7-4.6,1.8-6c1.9-1.3,4.5-0.8,5.8,1.1c0.1,0.1,0.2,0.2,0.2,0.4
				c0.4,0.7,0.7,1.5,0.7,2.4l-2,0.8c0.1-0.6,0-1.3-0.3-1.8c-0.6-1-1.7-1.4-3.1-0.6s-1.7,2-1.1,3c0.3,0.6,0.8,1,1.4,1.4l-1.6,1.2
				C41.9,142.6,41.3,142,40.9,141.3"/>
			<path class="st2" d="M44.5,146.6l7-5.1l1.4,2l-7,5.1L44.5,146.6z"/>
			<path class="st2" d="M48.6,152l6.4-5.9l4,4.3l-1.4,1.3l-2.3-2.6l-1.1,1L56,152l-1.2,1.4l-2-2.1l-1.2,1.1L54,155l-1.4,1.3
				L48.6,152z"/>
			<path class="st2" d="M59.9,162.8l0.6-6l-3.2,3.9l-1.7-1.4l5.4-6.8l1.8,1.5l-0.6,5.6l3-3.7l1.7,1.4l-5.5,6.7L59.9,162.8z"/>
			<path class="st2" d="M68.7,168.7c-2.3-1.3-2.9-3.6-1.5-6c1-2.1,3.5-3,5.5-2c0.1,0.1,0.3,0.1,0.4,0.2c0.7,0.4,1.4,1,1.8,1.7
				l-1.3,1.7c-0.2-0.6-0.7-1.1-1.2-1.4c-1-0.6-2.2-0.4-3,1.1s-0.4,2.6,0.6,3.2c0.6,0.3,1.2,0.5,1.9,0.5l-0.8,1.8
				C70.2,169.4,69.4,169.2,68.7,168.7"/>
			<path class="st2" d="M74.6,171.6l3.3-8l5.4,2.2l-0.7,1.7l-3.2-1.3l-0.6,1.4l2.4,1l-0.4,1.8l-2.7-1.1l-0.6,1.5l3.3,1.4l-0.7,1.7
				L74.6,171.6z"/>
			<path class="st2" d="M88.9,176.5l4.3-8.1l3.1,0.5l1.5,8.7l-2.4,0.1l-0.3-1.9l-3-0.5l-0.8,1.6L88.9,176.5z M92.9,173.5l2,0.3
				l-0.5-3.5L92.9,173.5z"/>
			<path class="st2" d="M105.3,178.3c-2.6,0-4.3-1.7-4.2-4.5c-0.2-2.3,1.6-4.3,3.9-4.4h0.4c0.8,0,1.7,0.2,2.4,0.6l-0.3,2.1
				c-0.5-0.4-1.1-0.6-1.8-0.6c-1.2,0-2.1,0.8-2.1,2.4c0,1.6,0.9,2.4,2.1,2.5c0.7,0,1.3-0.2,1.9-0.5l0.2,2
				C107,178.1,106.1,178.3,105.3,178.3"/>
			<path class="st2" d="M115.2,170.9l0.8,6.5l-2.5,0.3l-0.8-6.5l-2.3,0.3l-0.3-2.1l7-0.9l0.6,2.1L115.2,170.9z"/>
			<path class="st2" d="M120,167.9l2.3-0.6l2.1,8.4l-2.3,0.6L120,167.9z"/>
			<path class="st2" d="M132.2,173.3c-2.3,1.1-5,0.1-6-2.1c-1.1-2.3-0.1-5,2.1-6c2.3-1.1,5-0.1,6,2.1c0.1,0.1,0.1,0.2,0.1,0.3
				c1,2.1,0.2,4.5-1.9,5.5C132.5,173.2,132.4,173.3,132.2,173.3 M129.7,166.8c-1,0.4-1.2,1.6-0.7,3s1.5,2.2,2.5,1.8s1.2-1.6,0.6-3
				S130.7,166.4,129.7,166.8"/>
			<path class="st2" d="M144.6,167l-5.4-2.7l2.6,4.3l-1.9,1.1l-4.4-7.4l2-1.2l5,2.5l-2.4-4l1.9-1.1l4.4,7.5L144.6,167z"/>
			<path class="st2" d="M157.5,157.1c-1.9,1.8-4.3,1.8-6.2-0.2c-1.7-1.5-1.9-4.1-0.4-5.8l0.4-0.4c0.6-0.6,1.3-1,2.1-1.2l1.3,1.8
				c-0.6,0.1-1.2,0.4-1.7,0.8c-0.9,0.8-0.9,2,0.2,3.2c1.1,1.2,2.3,1.1,3.2,0.3c0.5-0.5,0.8-1.1,1-1.7l1.6,1.2
				C158.7,155.8,158.2,156.5,157.5,157.1"/>
			<path class="st2" d="M161.9,152.2l-6.8-5.4l1.6-2l5.1,4.1l1.7-2.2l1.8,1.1L161.9,152.2z"/>
			<path class="st2" d="M169.7,141.6c-1.2,2-2.9,2.5-4.9,1.4l-4.6-2.7l1.2-2.1l4.6,2.7c0.8,0.5,1.5,0.5,2-0.3
				c0.5-0.8,0.1-1.4-0.7-1.9l-4.6-2.7l1.2-2.1l4.5,2.7C170.5,137.7,170.9,139.5,169.7,141.6"/>
			<path class="st2" d="M174.6,131l-1.2,3.1l-8.1-3.2l1.3-3.3c0.7-1.8,1.8-2.7,3.3-2.1c0.8,0.3,1.3,1,1.3,1.8
				c0.5-0.8,1.6-1.1,2.5-0.7C175.3,127.4,175.4,129,174.6,131 M168.1,128.5l-0.4,0.9l1.8,0.7l0.3-0.9c0.3-0.7,0.1-1.2-0.5-1.5
				S168.4,127.9,168.1,128.5 M171.2,129.7l-0.4,0.9l1.9,0.8l0.4-0.9c0.3-0.7,0.2-1.3-0.5-1.6C171.9,128.6,171.5,128.9,171.2,129.7"
				/>
			<path class="st2" d="M38.9,109.6c0.2,2.1-1.2,3.7-3.5,4s-4.1-1-4.3-3.1c-0.1-0.8,0-1.5,0.4-2.2h1c-0.4,0.6-0.6,1.4-0.5,2.1
				c0.2,1.6,1.5,2.4,3.3,2.1s3-1.3,2.8-2.9c-0.1-0.8-0.5-1.5-1-2l0.9-0.2C38.5,108,38.9,108.8,38.9,109.6"/>
			<path class="st2" d="M38.4,105.2l-7.6-3.1V101l7.6-2.9l0.2,1l-2.3,0.9v3.4l2.2,0.9L38.4,105.2z M35.3,103v-2.7l-3.6,1.3L35.3,103
				z"/>
			<path class="st2" d="M38.8,95.3l-7.5-1l0.1-1l6.6,0.9l0.4-2.9h0.9L38.8,95.3z"/>
			<path class="st2" d="M32.5,86.7l0.2-1l7.4,1.7l-0.2,1L32.5,86.7z"/>
			<path class="st2" d="M35,80.7l2.3,0.8l0.8-2.6L39,79l-0.9,2.8l3.2,1l-0.3,1l-7.2-2.3l1.3-4.2l0.8,0.3L35,80.7z"/>
			<path class="st2" d="M44.8,74.2c-0.8,1.8-2.9,2.5-5,1.5s-2.9-3.1-2.1-4.9s2.9-2.5,5-1.5S45.6,72.4,44.8,74.2 M38.5,71.2
				c-0.7,1.4,0.1,2.8,1.7,3.6s3.2,0.4,3.8-1s-0.1-2.8-1.7-3.6S39.1,69.8,38.5,71.2"/>
			<path class="st2" d="M50.2,64.6l-3.9,0.2l-0.6,0.9l2.6,1.7l-0.5,0.8l-6.4-4.1l1.2-1.8c1-1.5,2.2-1.9,3.4-1.2
				c0.9,0.6,1.2,1.7,0.8,2.7l3.8-0.2L50.2,64.6z M43.3,62.8l-0.6,1l2.3,1.5l0.6-0.9c0.7-1,0.5-1.8-0.2-2.3S43.9,61.8,43.3,62.8"/>
			<path class="st2" d="M55.7,57.5l-7.3-0.8l4.7,4l-0.6,0.7l-5.8-5l0.7-0.8l7.1,0.8L50,52.6l0.6-0.7l5.8,4.9L55.7,57.5z"/>
			<path class="st2" d="M53.7,48.7l0.7-0.7l5.2,5.5l-0.7,0.7L53.7,48.7z"/>
			<path class="st2" d="M61.7,51.6l-2.3-8l0.9-0.7l7,4.1l-0.6,0.8l-2.1-1.3l-2.7,2.1l0.7,2.3L61.7,51.6z M61.5,47.8l2.1-1.7l-3.2-2
				L61.5,47.8z"/>
			<path class="st2" d="M72.9,43.7l-0.6-8.2l1-0.5l6,5.5l-0.8,0.6l-1.8-1.7l-3,1.5l0.2,2.4L72.9,43.7z M73.6,40l2.4-1.2l-2.8-2.6
				L73.6,40z"/>
			<path class="st2" d="M84.8,38.9c-2,0.7-3.8-0.4-4.6-2.6s0.1-4.2,2.1-4.9c0.7-0.3,1.5-0.3,2.3-0.1l0.2,1c-0.7-0.2-1.4-0.2-2.1,0
				c-1.5,0.5-2,2-1.4,3.7s1.9,2.6,3.4,2.1c0.7-0.3,1.4-0.8,1.8-1.4l0.4,0.8C86.3,38.2,85.6,38.7,84.8,38.9"/>
			<path class="st2" d="M89,37.4l1.5-8.1l1.1-0.2l4.5,6.8l-0.9,0.4l-1.3-2.1l-3.3,0.6L90,37.2L89,37.4z M90.6,34l2.7-0.5l-2-3.2
				L90.6,34z"/>
			<path class="st2" d="M100.8,35.6l-2.1,0.1l-0.4-7.6l2.2-0.1c2.6-0.2,4.1,1.3,4.3,3.5S103.3,35.5,100.8,35.6 M100.5,28.9L99.3,29
				l0.3,5.8l1.2-0.1c1.5,0.1,2.8-1,2.9-2.5c0-0.2,0-0.4,0-0.6c0-1.5-1.2-2.7-2.7-2.8C100.8,28.9,100.6,28.9,100.5,28.9"/>
			<path class="st2" d="M108,35.5l0.5-7.6l4.5,0.3l-0.1,0.9l-3.5-0.2l-0.2,2.3l2.9,0.2l0.1,0.9l-3-0.2l-0.2,2.6l3.6,0.2l-0.1,0.9
				L108,35.5z"/>
			<path class="st2" d="M123.1,37.8l0.9-6.3l-3.8,5.7l-0.9-0.2l-1-6.8l-1.8,6.1l-0.9-0.2l2.2-7.3l1.3,0.3l1,6.8l3.8-5.7l1.3,0.3
				l-1,7.5L123.1,37.8z"/>
			<path class="st2" d="M130.9,37.2l-1.1,2.9l-0.9-0.3l1.1-2.9l-1-5.1l1,0.2l0.7,4.3l3.4-2.7l1,0.4L130.9,37.2z"/>
			<path class="st2" d="M141.5,46.2c-1.7-1.1-2.1-3.2-0.8-5.2s3.4-2.5,5.1-1.4s2.1,3.2,0.8,5.2S143.1,47.2,141.5,46.2 M145.3,40.3
				c-1.3-0.8-2.8-0.3-3.8,1.2s-0.8,3.1,0.4,4s2.8,0.3,3.8-1.2S146.6,41.2,145.3,40.3"/>
			<path class="st2" d="M152.1,45.5l-1.6,1.8l2.1,1.8l-0.4,0.8l-2.2-1.8l-2.2,2.6L147,50l4.9-5.8l3.3,2.8l-0.6,0.7L152.1,45.5z"/>
			<path class="st2" d="M156.8,59.7c-0.5-0.7-0.9-1.4-1.1-2.3l0.8-0.5c0.2,0.8,0.5,1.6,1,2.2c0.7,0.8,1.5,0.9,2.1,0.5s0.5-1,0.1-2.2
				c-0.6-1.6-0.7-2.4,0.2-3.1c1-0.7,2.4-0.6,3.1,0.4l0.1,0.1c0.5,0.5,0.8,1.2,1,1.9l-0.8,0.5c-0.1-0.7-0.4-1.3-0.8-1.8
				c-0.4-0.6-1.2-0.8-1.8-0.4c-0.5,0.4-0.4,0.9,0,2.1c0.6,1.7,0.6,2.5-0.3,3.2C159.3,61.1,157.9,60.8,156.8,59.7"/>
			<path class="st2" d="M161.9,66.8c-1.1-1.8-0.6-3.8,1.4-5.1s4.1-0.9,5.2,0.8c0.4,0.6,0.7,1.4,0.7,2.2l-0.9,0.4
				c0.1-0.7-0.1-1.5-0.5-2.1c-0.8-1.3-2.4-1.4-4-0.5s-2.1,2.5-1.2,3.8c0.4,0.7,1.1,1.2,1.8,1.4l-0.7,0.6
				C163,68,162.3,67.5,161.9,66.8"/>
			<path class="st2" d="M164.7,71.4l6.8-3.5l0.5,0.9l-6.8,3.5L164.7,71.4z"/>
			<path class="st2" d="M166.8,75.6l7-2.8l1.7,4.2l-0.8,0.3l-1.3-3.3l-2.1,0.9l1.1,2.7l-0.8,0.5l-1.1-2.8l-2.4,1l1.4,3.4l-0.8,0.3
				L166.8,75.6z"/>
			<path class="st2" d="M170.8,87.8l4.9-5.5l-5.9,1.5l-0.2-0.9L177,81l0.2,1l-4.7,5.3l5.7-1.5l0.2,0.9l-7.3,1.9L170.8,87.8z"/>
			<path class="st2" d="M171.8,95.2c-0.2-2.1,1.2-3.7,3.5-4s4.1,1,4.3,3c0.1,0.8,0,1.5-0.4,2.2h-1c0.4-0.6,0.6-1.4,0.5-2.1
				c-0.2-1.6-1.5-2.4-3.4-2.2s-2.9,1.3-2.8,2.9c0.1,0.8,0.5,1.5,1,2l-0.9,0.2c-0.5-0.6-0.9-1.4-1-2.2"/>
			<path class="st2" d="M172.4,100.5h7.6v4.5h-0.9v-3.5h-2.3v2.9l-0.9,0.1v-3h-2.6v3.6h-0.9L172.4,100.5z"/>
			<path class="st2" d="M171.9,110c0.1-0.8,0.4-1.6,0.8-2.4l0.9,0.2c-0.5,0.7-0.8,1.5-0.9,2.3c-0.1,1,0.4,1.8,1.1,1.8s1-0.3,1.6-1.5
				c0.7-1.5,1.3-2.1,2.4-2c1.2,0.2,2,1.3,1.8,2.5v0.1c-0.1,0.7-0.3,1.4-0.7,2l-0.9-0.3c0.4-0.6,0.7-1.2,0.8-1.9
				c0.2-0.7-0.3-1.4-1-1.6c-0.6-0.1-1,0.3-1.5,1.5c-0.8,1.6-1.4,2.1-2.5,2C172.4,112.7,171.6,111.6,171.9,110"/>
		</g>
		<path class="st3" d="M70.6,100.3c1.2-0.5,2.5-0.8,3.7-1.1l9.1-2l16.7-3.6c1.5-0.5,3.1-0.5,4.6-0.1c0.2,0.1,0.4,0.2,0.4,0.4
			c0.1,0.2,0.1,0.3,0,0.5c-1.9,7.3-4.2,14.4-6.5,21.6c-0.2,1-0.5,1.9-0.9,2.9c-0.6,1.1-1.3,2.1-2.1,3.1c-1.4,1.9-2.9,3.8-4.4,5.7
			c-0.8,1.1-1.8,1.9-3.1,2.3c-0.9,0.2-1.8,0.2-2.7,0c-1.3-0.2-2.7-0.4-4-0.7c-2.5-0.8-5-1.9-7.2-3.3c-1.3-0.7-2.5-1.5-3.7-2.4
			c-1.7-1.6-3.2-3.4-4.3-5.4c-1.3-1.8-2.3-3.8-3-5.9c-0.5-2-0.4-4,0.2-5.9c0.3-1,0.8-1.9,1.3-2.7c0.7-0.9,1.5-1,2.5-1.5
			C68.5,101.6,69.4,100.8,70.6,100.3"/>
		<path class="st4" d="M106.1,87.9c-1.2-1.7-2.7-3-4.5-4c-2.1-1.4-4.4-2.7-6.7-3.7c-2.5-0.9-5.2-1.6-7.8-2.1L86.7,78
			c-2.2-0.6-4.5-1-6.8-1.2c-3-0.4-6-0.7-9-0.8c-0.8,0-1.5,0-2.2,0.1c-3.6,0.2-7.2,1-10.6,2.3c-0.3,0.1-0.5,0.2-0.8,0.4
			c-1.4,0.6-2.8,1.3-4,2.3c-0.1,0.1-0.2,0.2-0.3,0.3c-0.1,0.3,0.2,0.7,0.4,0.9c2.7,2.7,4.7,6,6,9.5c0.6,1.7,1,3.5,1.7,5.1
			c0.4,0.8,0.8,1.7,1.2,2.5c0.9,1.8,1.7,4,2.8,5.6c1.9,2.9,7,2.2,9.6,1.2c2.3-0.8,4.6-2.1,7-2.5c2.6-0.6,5.2-1.3,7.6-2.3
			c0.4-0.1,0.8-0.3,1.3-0.4l0.7-0.2c0.9,0,1.7-0.2,2.5-0.6c1.5-0.7,2.9-1.5,4.2-2.5c1.9-1.3,3.9-2.5,6-3.5c0.5-0.2,1-0.5,1.5-0.9
			c1.5-1.3,1.5-3.8,0.4-5.6"/>
		<path class="st3" d="M99.3,121.6c-0.3,1.7-0.3,3.5-0.5,5.2c-0.4,1.9-0.2,3.9,0.4,5.8c0.7,1.5,1.9,2.7,3.3,3.6
			c4,2.6,8.7,4.1,13.5,4.4c1.2,0.1,2.4,0.2,3.6,0.1c2.3-0.3,4.5-0.9,6.6-1.9c3.3-0.9,6-3.3,7.4-6.4c0.4-0.6,0.7-1.3,0.8-2.1
			c0-1-0.4-2-1.1-2.8c-1.3-1.7-2.7-3.3-4.1-4.8c-6.3-6.8-11.8-14.4-15.2-23c-0.5-1.3-1-2.7-2.2-3.3c0,0-3.5,5.4-3.8,5.9
			c-1.7,2.4-3,5.1-3.7,7.9l-1.1,3.4c-0.2,1-0.6,1.9-1.1,2.7C100.8,117.9,99.9,119.7,99.3,121.6"/>
		<path class="st2" d="M109.4,84.9c-0.1-0.6-0.1-1.1-0.2-1.6l-0.6-5.2l-0.3-2.6c-0.2-1.1-0.2-2.2-0.2-3.3c0-0.4,0.1-0.8,0.2-1.3
			s-0.1-0.7,0.1-1.1c0.1-0.1,0.2-0.2,0.4-0.2c0.7,0.1-0.1,2.7-0.1,3.2c0.1,1.2,0.2,2.4,0.4,3.6c0.5,3.5,0.2,7.2,1.7,10.4
			c0.2,0.3,0.3,0.6,0.2,1c-0.1,0.3-0.5,0.6-0.8,0.4c-0.1-0.1-0.1-0.2-0.2-0.3C109.7,86.9,109.5,85.9,109.4,84.9"/>
		<path class="st2" d="M126.3,81.4c0.1-0.1,2-2,1.4-2.3c-0.3-0.1-0.7,0.1-1,0.4c-0.7,0.6-1.3,1.2-2,1.8c-1.3,1.1-2.7,2.1-4.2,2.8
			c-2.4,1.1-4.6,2.5-7,3.5c-0.5,0.2-1.5,0.4-1.6,1.1c0.1,0,0.2,0.1,0.2,0.1h0.3c1.7-0.7,3.4-1.5,5-2.4c1.8-0.9,3.6-1.9,5.4-2.9
			C124.1,83,125.2,82.2,126.3,81.4"/>
		<path class="st4" d="M157.4,119.3c-0.5-1.9-1.1-3.7-1.8-5.5c-1.3-2.7-3.1-5-5.3-7c-2.1-2.1-4.5-3.8-7-5.3c-1.1-0.7-2.2-1.3-3.4-2
			c-0.3-0.2-0.7-0.4-1-0.6c-0.4-0.4-0.9-0.8-1.5-1.1l-3.7-2c-1.1-0.6-2.2-1.2-3.4-1.7c-4.2-1.9-8.9-2.5-13.5-3
			c-0.9-0.1-1.8-0.1-2.7,0c-0.9,0.2-1.7,0.8-2.1,1.6c-0.4,1,0,2,0,3c-0.1,1.9,0.8,3.2,1.4,5l2.4,6.9c0.2,0.8,0.6,1.6,1,2.4
			c0.2,0.3,0.4,0.5,0.6,0.7c0.2,0.5,0.4,0.9,0.7,1.3c2,2.8,3.1,6.1,4.6,9.3s3.2,6.3,6,8.3c0.7,0.5,1.6,0.9,2.4,1.1
			c1.4,0.2,2.8,0.1,4.1-0.3c3.4-0.8,6.6-2.1,9.5-4c0.8-0.6,1.6-1.2,2.4-1.7s1.7-0.9,2.6-1.2c1.8-0.8,3.7-1.4,5.6-1.7
			c0.6,0,1.3-0.2,1.8-0.6c0.3-0.6,0.3-1.3,0.1-1.9"/>
		<path class="st2" d="M113,95.5c1.2-2.5,1.2-5.5,0-8c-0.4-1-1.4-0.8-2.4-0.7c-0.5,0.1-1,0.2-1.4,0.3c-0.8,0.4-1.4,0.9-1.9,1.6
			c-1,0.9-1.8,2-2.3,3.3c-0.4,1.3-0.5,2.7-0.8,4.1c-0.6,2.4-1.6,4.7-2.5,7c-1.2,3.3-2.2,6.7-3.2,10.1c-0.4,1.4-0.7,2.9-1.1,4.3
			s-0.7,2.8-0.9,4.2c-0.1,0.3,0,0.6,0.2,0.9c0.1,0.1,0.2,0.1,0.4,0.2c0.8,0.1,1.7-0.7,2.2-1.3c5.1-5.5,6.3-13.4,10.1-19.9
			C110.6,99.6,112,97.6,113,95.5"/>
	</g>
</g>
<g>
	<defs>
		<rect id="SVGID_3_" x="387.1" y="19.6" width="169.6" height="169.6"/>
	</defs>
	<clipPath id="SVGID_4_">
		<use xlink:href="#SVGID_3_"  style="overflow:visible;"/>
	</clipPath>
	<g class="st5">
		<path class="st1" d="M556.3,104.4c0,46.6-37.8,84.4-84.4,84.4s-84.4-37.8-84.4-84.4S425.3,20,471.9,20S556.3,57.8,556.3,104.4"/>
		<g>
			<path class="st2" d="M471.9,189.2c-46.8,0-84.8-38-84.8-84.8s38-84.8,84.8-84.8s84.8,38,84.8,84.8S518.8,189.2,471.9,189.2
				L471.9,189.2z M471.9,20.4c-46.4,0-84,37.6-84,84s37.6,84,84,84s84-37.6,84-84S518.3,20.5,471.9,20.4"/>
			<path class="st2" d="M402.5,131.7c-0.4-1.1-0.6-2.2-0.6-3.3l2-0.4c0,1,0.1,2,0.4,3c0.3,0.8,0.7,1,1.1,0.9s0.5-0.5,0.4-1.4
				c-0.2-2.1-0.1-3.3,1.5-3.9s3,0.2,3.7,1.9c0.4,0.9,0.5,1.9,0.5,2.9l-1.9,0.4c0-0.9-0.1-1.8-0.4-2.6c-0.2-0.6-0.6-0.8-1-0.7
				s-0.5,0.5-0.4,1.4c0.2,2.2,0,3.3-1.4,3.8C404.8,134.4,403.3,133.5,402.5,131.7"/>
			<path class="st2" d="M407.4,142c-1.3-2.3-0.7-4.6,1.8-6c1.9-1.3,4.5-0.8,5.8,1.1c0.1,0.1,0.2,0.2,0.2,0.4
				c0.4,0.7,0.7,1.5,0.7,2.4l-2,0.8c0.1-0.6,0-1.3-0.3-1.8c-0.6-1-1.7-1.4-3.1-0.6s-1.7,2-1.1,3c0.3,0.6,0.8,1,1.4,1.4l-1.6,1.2
				C408.4,143.4,407.8,142.7,407.4,142"/>
			<path class="st2" d="M411,147.3l7-5.1l1.4,2l-7,5.1L411,147.3z"/>
			<path class="st2" d="M415.1,152.7l6.4-5.9l4,4.3l-1.4,1.3l-2.4-2.6l-1.1,1l1.8,1.9l-1.2,1.4l-2-2.1l-1.2,1.1l2.4,2.6L419,157
				L415.1,152.7z"/>
			<path class="st2" d="M426.5,163.4l0.6-6l-3.2,3.9l-1.7-1.4l5.4-6.7l1.8,1.4l-0.6,5.6l3-3.7l1.7,1.4l-5.5,6.7L426.5,163.4z"/>
			<path class="st2" d="M435.2,169.4c-2.3-1.3-2.9-3.6-1.5-6c1-2.1,3.5-3,5.5-2c0.1,0.1,0.3,0.1,0.4,0.2c0.7,0.4,1.4,1,1.8,1.7
				l-1.3,1.7c-0.2-0.6-0.7-1.1-1.2-1.4c-1-0.6-2.2-0.4-3,1.1s-0.4,2.6,0.6,3.2c0.6,0.3,1.2,0.5,1.9,0.5l-0.8,1.9
				C436.8,170.1,436,169.9,435.2,169.4"/>
			<path class="st2" d="M441.1,172.3l3.3-8l5.5,2.2l-0.7,1.7l-3.2-1.3l-0.6,1.4l2.4,1l-0.4,1.8l-2.7-1.1l-0.6,1.5l3.3,1.4l-0.7,1.7
				L441.1,172.3z"/>
			<path class="st2" d="M455.5,177.2l4.3-8.1l3.1,0.5l1.5,8.7l-2.4,0.1l-0.3-1.9l-3-0.5l-0.8,1.6L455.5,177.2z M459.4,174.2l2,0.3
				l-0.5-3.5L459.4,174.2z"/>
			<path class="st2" d="M471.8,179c-2.6,0-4.3-1.7-4.2-4.5c-0.2-2.3,1.6-4.3,3.9-4.4h0.4c0.8,0,1.7,0.2,2.4,0.6l-0.3,2.1
				c-0.5-0.4-1.1-0.6-1.8-0.6c-1.2,0-2.1,0.8-2.1,2.4c0,1.6,0.9,2.4,2,2.5c0.7,0,1.3-0.2,1.9-0.5l0.2,2
				C473.5,178.8,472.7,179,471.8,179"/>
			<path class="st2" d="M481.7,171.6l0.8,6.5l-2.5,0.3l-0.8-6.5l-2.3,0.3l-0.3-2.1l7-0.9l0.6,2.1L481.7,171.6z"/>
			<path class="st2" d="M486.5,168.6l2.3-0.6l2.1,8.4l-2.3,0.6L486.5,168.6z"/>
			<path class="st2" d="M498.8,174c-2.3,1.1-5,0.1-6-2.1c-1.1-2.3-0.1-5,2.1-6c2.3-1.1,5-0.1,6,2.1c0.1,0.1,0.1,0.2,0.1,0.3
				c1,2.1,0.2,4.5-1.9,5.5C499.1,173.9,498.9,174,498.8,174 M496.3,167.4c-1,0.4-1.2,1.6-0.7,3s1.5,2.2,2.5,1.8s1.2-1.6,0.6-3
				S497.3,167,496.3,167.4"/>
			<path class="st2" d="M511.2,167.7l-5.4-2.7l2.6,4.3l-1.9,1.1l-4.4-7.5l2-1.2l5,2.5l-2.4-4.1l1.9-1.1l4.4,7.5L511.2,167.7z"/>
			<path class="st2" d="M524,157.7c-1.9,1.8-4.3,1.8-6.2-0.2c-1.7-1.5-1.9-4.1-0.4-5.8c0.1-0.1,0.2-0.2,0.4-0.4
				c0.6-0.6,1.3-1,2.1-1.2l1.3,1.8c-0.6,0.1-1.2,0.4-1.7,0.8c-0.9,0.8-1,2,0.2,3.2c1.2,1.2,2.3,1.1,3.2,0.3c0.5-0.5,0.8-1.1,1-1.7
				l1.6,1.2C525.2,156.4,524.7,157.2,524,157.7"/>
			<path class="st2" d="M528.4,152.9l-6.8-5.4l1.6-2l5.1,4.1l1.7-2.2l1.8,1.1L528.4,152.9z"/>
			<path class="st2" d="M536.2,142.2c-1.2,2-2.9,2.5-4.9,1.4l-4.5-2.7l1.2-2.1l4.6,2.7c0.8,0.5,1.5,0.5,2-0.3
				c0.5-0.8,0.1-1.4-0.7-1.9l-4.6-2.7l1.2-2.1l4.5,2.7C537,138.4,537.4,140.2,536.2,142.2"/>
			<path class="st2" d="M541.2,131.7l-1.2,3.1l-8.1-3.2l1.3-3.3c0.7-1.8,1.8-2.7,3.3-2.1c0.8,0.3,1.3,1,1.3,1.8
				c0.5-0.8,1.6-1.1,2.5-0.7C541.9,128,542,129.6,541.2,131.7 M534.6,129.2l-0.3,0.9l1.8,0.7l0.3-0.9c0.3-0.7,0.1-1.2-0.5-1.5
				C535.3,128.1,534.9,128.5,534.6,129.2 M537.7,130.4l-0.4,0.9l1.9,0.8l0.4-0.9c0.3-0.7,0.2-1.3-0.5-1.6
				C538.4,129.3,538,129.6,537.7,130.4"/>
			<path class="st2" d="M405.5,110.3c0.2,2.1-1.2,3.7-3.5,4s-4.1-1-4.3-3.1c-0.1-0.8,0-1.5,0.4-2.2h1c-0.4,0.6-0.6,1.4-0.5,2.1
				c0.2,1.6,1.5,2.4,3.4,2.1s3-1.3,2.8-2.9c-0.1-0.8-0.5-1.5-1-2l0.9-0.2C405.1,108.7,405.4,109.5,405.5,110.3"/>
			<path class="st2" d="M404.9,105.8l-7.6-3.1v-1.1l7.6-2.9l0.2,1l-2.3,0.9v3.4l2.2,0.9L404.9,105.8z M401.8,103.6v-2.7l-3.6,1.3
				L401.8,103.6z"/>
			<path class="st2" d="M405.3,96l-7.5-1l0.1-1l6.6,0.9l0.4-2.9h0.9L405.3,96z"/>
			<path class="st2" d="M398.8,87.2l0.2-1l7.5,1.4l-0.2,1L398.8,87.2z"/>
			<path class="st2" d="M401.5,81.4l2.3,0.8l0.8-2.6l0.9,0.1l-0.9,2.8l3.2,1.1l-0.3,0.9l-7.2-2.3l1.3-4.2l0.9,0.3L401.5,81.4z"/>
			<path class="st2" d="M411.4,74.8c-0.9,1.8-2.9,2.5-5,1.5s-2.9-3.1-2.1-4.9s2.9-2.5,5-1.5S412.2,73.1,411.4,74.8 M405,71.8
				c-0.7,1.4,0.1,2.8,1.7,3.6s3.2,0.4,3.9-1s-0.1-2.8-1.7-3.6S405.7,70.4,405,71.8"/>
			<path class="st2" d="M416.8,65.3l-3.9,0.2l-0.6,0.9l2.6,1.7l-0.5,0.8l-6.3-4.1l1.1-1.8c1-1.5,2.2-1.9,3.4-1.2
				c0.9,0.6,1.3,1.7,0.8,2.7l3.8-0.2L416.8,65.3z M409.8,63.5l-0.6,0.9l2.4,1.5l0.6-0.9c0.7-1,0.5-1.8-0.2-2.3
				S410.5,62.4,409.8,63.5"/>
			<path class="st2" d="M422.2,58.2l-7.3-0.8l4.6,4L419,62l-5.8-4.9l0.7-0.8l7.1,0.8l-4.5-3.8l0.6-0.7l5.8,4.9L422.2,58.2z"/>
			<path class="st2" d="M420.2,49.4l0.7-0.7l5.2,5.5l-0.7,0.7L420.2,49.4z"/>
			<path class="st2" d="M428.2,52.3l-2.3-7.9l0.9-0.7l7,4.2l-0.6,0.8l-2.2-1.3l-2.7,2.1l0.7,2.3L428.2,52.3z M428.1,48.5l2.1-1.7
				l-3.2-2L428.1,48.5z"/>
			<path class="st2" d="M439.5,44.4l-0.6-8.2l1-0.5l6,5.5l-0.8,0.6l-1.8-1.7l-3,1.5l0.2,2.4L439.5,44.4z M440.1,40.7l2.4-1.2
				l-2.8-2.6L440.1,40.7z"/>
			<path class="st2" d="M451.4,39.5c-2,0.7-3.8-0.4-4.6-2.6s0.1-4.2,2.1-4.9c0.7-0.3,1.5-0.3,2.3-0.1l0.2,1c-0.7-0.2-1.4-0.2-2.1,0
				c-1.5,0.5-2,2-1.4,3.7s1.9,2.6,3.4,2.1c0.7-0.3,1.4-0.8,1.8-1.4l0.4,0.8C452.9,38.9,452.2,39.4,451.4,39.5"/>
			<path class="st2" d="M455.5,38.1L457,30l1.1-0.2l4.4,6.8l-0.9,0.4l-1.3-2.1l-3.3,0.6l-0.4,2.3L455.5,38.1z M457.1,34.6l2.6-0.5
				l-2-3.2L457.1,34.6z"/>
			<path class="st2" d="M467.4,36.3l-2.1,0.1l-0.4-7.6l2.1-0.1c2.6-0.2,4.1,1.3,4.3,3.5S469.9,36.2,467.4,36.3 M467,29.6l-1.2,0.1
				l0.3,5.8l1.2-0.1c1.5,0.1,2.8-1,2.9-2.5c0-0.2,0-0.4,0-0.6c0-1.5-1.2-2.7-2.7-2.7C467.3,29.6,467.2,29.6,467,29.6"/>
			<path class="st2" d="M474.6,36.2l0.5-7.6l4.5,0.3l-0.1,0.9l-3.5-0.3l-0.2,2.3l2.9,0.2l0.1,0.9l-3-0.2l-0.2,2.6l3.6,0.3l-0.1,0.9
				L474.6,36.2z"/>
			<path class="st2" d="M489.6,38.5l0.9-6.3l-3.8,5.7l-0.9-0.2l-1-6.8L483,37l-0.9-0.2l2.2-7.3l1.3,0.3l1,6.8l3.8-5.7l1.3,0.3
				l-1,7.5L489.6,38.5z"/>
			<path class="st2" d="M497.4,37.9l-1.1,2.9l-0.9-0.3l1.1-2.9l-1-5.1l1,0.2l0.7,4.3l3.3-2.7l1,0.4L497.4,37.9z"/>
			<path class="st2" d="M508,46.9c-1.7-1.1-2.1-3.2-0.8-5.2s3.4-2.5,5.1-1.4c1.7,1.1,2.1,3.2,0.8,5.2S509.6,47.9,508,46.9 M511.9,41
				c-1.3-0.8-2.8-0.3-3.8,1.2s-0.8,3.1,0.5,4s2.8,0.3,3.8-1.2S513.1,41.9,511.9,41"/>
			<path class="st2" d="M518.6,46.2L517,48l2.1,1.8l-0.5,0.8l-2.2-1.9l-2.2,2.6l-0.8-0.7l4.9-5.8l3.3,2.9l-0.6,0.7L518.6,46.2z"/>
			<path class="st2" d="M523.3,60.3c-0.5-0.7-0.9-1.4-1.2-2.2l0.8-0.5c0.2,0.8,0.5,1.6,1,2.2c0.7,0.8,1.5,0.9,2.1,0.5s0.5-1,0.1-2.2
				c-0.6-1.6-0.7-2.4,0.2-3.1c1-0.7,2.4-0.6,3.1,0.4l0.1,0.1c0.5,0.5,0.8,1.2,1,1.9l-0.8,0.5c-0.1-0.7-0.4-1.3-0.8-1.8
				c-0.4-0.6-1.2-0.8-1.8-0.4c-0.5,0.4-0.4,0.9,0,2.1c0.6,1.7,0.6,2.5-0.3,3.2C525.8,61.8,524.4,61.5,523.3,60.3"/>
			<path class="st2" d="M528.5,67.4c-1.2-1.8-0.6-3.8,1.4-5.1s4.1-0.9,5.2,0.8c0.4,0.6,0.7,1.4,0.7,2.2l-0.9,0.4
				c0.1-0.7-0.1-1.5-0.5-2.1c-0.8-1.3-2.4-1.4-4-0.5s-2,2.5-1.2,3.8c0.4,0.6,1.1,1.1,1.8,1.4l-0.7,0.6
				C529.5,68.7,528.9,68.1,528.5,67.4"/>
			<path class="st2" d="M531.3,72.1l6.8-3.5l0.5,0.9l-6.7,3.5L531.3,72.1z"/>
			<path class="st2" d="M533.3,76.3l7-2.8l1.7,4.2l-0.8,0.3l-1.3-3.3l-2.2,0.9l1.1,2.7l-0.8,0.5l-1-2.8l-2.4,1l1.3,3.4l-0.8,0.3
				L533.3,76.3z"/>
			<path class="st2" d="M537.3,88.5l4.9-5.5l-5.9,1.5l-0.2-0.9l7.3-1.9l0.2,1L539,88l5.7-1.5l0.2,0.9l-7.4,1.9L537.3,88.5z"/>
			<path class="st2" d="M538.4,95.9c-0.2-2.1,1.2-3.7,3.5-4s4.1,1,4.3,3c0.1,0.8,0,1.5-0.3,2.2h-1c0.4-0.6,0.6-1.4,0.5-2.1
				c-0.2-1.6-1.5-2.4-3.3-2.2s-3,1.3-2.8,2.9c0.1,0.8,0.5,1.5,1,2l-0.9,0.2c-0.5-0.6-0.9-1.4-1-2.2"/>
			<path class="st2" d="M538.9,101.2h7.6v4.6h-0.9v-3.5h-2.3v2.9l-0.9,0.1v-3h-2.6v3.6h-0.9L538.9,101.2z"/>
			<path class="st2" d="M538.4,110.7c0.1-0.8,0.4-1.6,0.8-2.4l0.9,0.2c-0.5,0.7-0.8,1.5-0.9,2.3c-0.1,1,0.4,1.8,1.1,1.8
				s1-0.3,1.6-1.5c0.7-1.5,1.3-2.1,2.4-2c1.2,0.2,2,1.3,1.8,2.5v0.1c-0.1,0.7-0.3,1.4-0.7,2l-0.9-0.3c0.4-0.6,0.7-1.2,0.8-1.9
				c0.2-0.7-0.3-1.4-1-1.6c-0.6-0.1-1,0.3-1.5,1.5c-0.8,1.6-1.4,2.1-2.5,2C538.9,113.4,538.2,112.2,538.4,110.7"/>
		</g>
		<path class="st6" d="M451.3,114.4h-0.7c-8.1-0.2-15-3.8-18-8.7c-1,0.2-2.1,0.4-3.1,0.4h-0.3c-7.7-0.2-13.7-6.6-13.5-14.2
			c0.2-6.6,5-12.2,11.5-13.3c1.3-9.3,9.2-16.2,18.6-16.2h0.5c3.6,0.1,7.1,1.2,10.1,3.2c3.7-5.6,10.5-9.2,18.2-9.2h0.6
			c11.7,0.3,21,8.9,20.7,19.2c0,1.1-0.2,2.1-0.4,3.2c2.1,0.8,3.9,2,5.6,3.4c-2.5,1-4.7,2.8-6.2,5.1c-1.9-0.7-3.9-1.1-6-1.1
			c-7.7,0-14.1,5.3-14.6,11.9c-5.5,1.1-9.4,5.8-9.5,11.4c0,0.4,0,0.8,0.1,1.2C460.7,113.1,456,114.4,451.3,114.4"/>
		<path class="st7" d="M519.8,95.1l-0.6-0.2v-0.8v-0.4c0-6.2-5.6-11.2-12.4-11.2c-1.6,0-3.2,0.3-4.7,0.8c-2.7,1-4.9,2.8-6.4,5.3
			l-0.4,0.6l-0.6-0.3c-1.9-0.8-3.9-1.2-6-1.2c-7.1,0-13,5-13.1,11v0.6l-0.6,0.1c-5,0.7-8.7,5-8.9,10v0.1c0,5.6,5,10.1,11,10.1
			c2.1,0,4.2-0.6,6-1.6l0.7-0.4l0.4,0.7c2.4,4.2,7.3,6.8,12.7,6.8s10.5-2.7,12.9-7l0.4-0.6l0.6,0.3c1.6,0.7,3.4,1.1,5.1,1.1
			c6.8,0,12.3-5.4,12.4-12.2C528.3,101.3,524.9,96.6,519.8,95.1"/>
		<path class="st8" d="M471.9,152c-4,0-7.5-1.6-9.1-4c-4.1,0.4-7.8,0.4-9.5,0.4c-5.1,0-9.3-3.5-9.3-7.9c0-3.3,2.3-6.1,5.6-7.3
			c-0.1-0.5-0.2-1.1-0.2-1.6c0-5.2,4.8-9.5,10.8-9.5c3.8-0.1,7.4,1.8,9.5,4.9c4.4-2.8,10.3-1.6,13.2,2.9c0.8,1.2,1.3,2.7,1.5,4.1
			c3.9,0.6,6.5,4.1,6,8c-0.5,3.6-3.7,6.2-7.3,6c-0.6,0-1.2-0.1-1.7-0.2C479.7,150.2,476.1,152,471.9,152"/>
	</g>
</g>
<g>
	<defs>
		<rect id="SVGID_5_" x="203" y="19.8" width="171.3" height="169.1"/>
	</defs>
	<clipPath id="SVGID_6_">
		<use xlink:href="#SVGID_5_"  style="overflow:visible;"/>
	</clipPath>
	<g class="st9">
		<path class="st1" d="M373.8,104.4c0,46.5-38.1,84.1-85.2,84.1s-85.2-37.7-85.2-84.1s38.2-84.1,85.2-84.1S373.8,57.9,373.8,104.4"
			/>
		<path class="st2" d="M288.6,188.9c-47.2,0-85.6-37.9-85.6-84.6s38.4-84.6,85.6-84.6s85.6,37.9,85.6,84.6S335.9,188.9,288.6,188.9
			 M288.6,20.7c-46.8,0-84.8,37.5-84.8,83.7s38,83.7,84.8,83.7s84.8-37.6,84.8-83.7S335.4,20.7,288.6,20.7"/>
	</g>
</g>
<g>
	<defs>
		<rect id="SVGID_7_" x="201.3" y="19.8" width="174.6" height="169.8"/>
	</defs>
	<clipPath id="SVGID_8_">
		<use xlink:href="#SVGID_7_"  style="overflow:visible;"/>
	</clipPath>
	<g class="st10">
		<g>
			<path class="st2" d="M217.8,131.6c-0.4-1.1-0.6-2.2-0.6-3.3l2-0.4c0,1,0.1,2,0.4,3c0.3,0.8,0.7,1,1.1,0.9s0.5-0.5,0.4-1.4
				c-0.2-2.1-0.1-3.3,1.5-3.9s3,0.2,3.7,1.9c0.4,0.9,0.5,1.9,0.5,2.9l-1.9,0.4c0-0.9-0.1-1.7-0.4-2.6c-0.2-0.6-0.6-0.8-1-0.7
				s-0.5,0.5-0.4,1.4c0.2,2.2,0,3.2-1.4,3.8C220.1,134.3,218.5,133.5,217.8,131.6"/>
			<path class="st2" d="M222.8,141.8c-1.3-2.3-0.7-4.6,1.8-5.9c1.9-1.3,4.6-0.8,5.9,1.2c0.1,0.1,0.1,0.2,0.2,0.3
				c0.4,0.7,0.7,1.5,0.7,2.3l-2,0.8c0.1-0.6,0-1.3-0.3-1.8c-0.6-1-1.7-1.4-3.2-0.6s-1.7,2-1.1,3c0.3,0.6,0.8,1,1.4,1.4l-1.6,1.2
				C223.9,143.2,223.3,142.6,222.8,141.8"/>
			<path class="st2" d="M226.4,147.1l7.1-5.1l1.5,1.9l-7.1,5.1L226.4,147.1z"/>
			<path class="st2" d="M230.6,152.5l6.4-5.8l4,4.3l-1.4,1.3l-2.4-2.6l-1.1,1l1.8,1.9l-1.2,1.4l-2-2.1l-1.2,1.1l2.4,2.6l-1.4,1.3
				L230.6,152.5z"/>
			<path class="st2" d="M242.1,163.2l0.6-5.9l-3.2,3.9l-1.7-1.4l5.5-6.7l1.8,1.4l-0.6,5.6l3-3.6l1.7,1.4l-5.5,6.7L242.1,163.2z"/>
			<path class="st2" d="M250.9,169.2c-2.3-1.3-2.9-3.6-1.5-6c1-2.1,3.6-3,5.7-1.9c0.1,0.1,0.2,0.1,0.3,0.2c0.7,0.4,1.4,1,1.8,1.7
				l-1.3,1.7c-0.2-0.6-0.7-1.1-1.2-1.4c-1-0.6-2.2-0.4-3,1.1s-0.4,2.6,0.6,3.2c0.6,0.3,1.2,0.5,1.9,0.5l-0.8,1.9
				C252.5,169.9,251.6,169.7,250.9,169.2"/>
			<path class="st2" d="M256.8,172.1l3.3-8l5.5,2.2l-0.7,1.7l-3.3-1.3l-0.6,1.4l2.5,1l-0.4,1.8l-2.7-1.1l-0.6,1.5l3.4,1.4l-0.7,1.7
				L256.8,172.1z"/>
			<path class="st2" d="M271.4,177l4.4-8.1l3.1,0.5l1.5,8.7l-2.5,0.1l-0.3-1.9l-3.1-0.5l-0.8,1.6L271.4,177z M275.4,174.1l2,0.3
				l-0.5-3.5L275.4,174.1z"/>
			<path class="st2" d="M287.8,178.8c-2.6,0-4.3-1.7-4.3-4.5c-0.1-2.3,1.6-4.3,3.9-4.4h0.4c0.8,0,1.7,0.2,2.4,0.6l-0.3,2.1
				c-0.5-0.4-1.1-0.6-1.8-0.6c-1.2,0-2.1,0.8-2.1,2.4c0,1.6,0.9,2.4,2.1,2.5c0.7,0,1.3-0.2,1.9-0.5l0.2,2
				C289.5,178.6,288.7,178.8,287.8,178.8"/>
			<path class="st2" d="M297.8,171.4l0.8,6.5l-2.5,0.3l-0.8-6.5L293,172l-0.3-2.1l7.1-0.9l0.6,2L297.8,171.4z"/>
			<path class="st2" d="M304.8,176.8l-2.1-8.4l2.4-0.6l2.1,8.4L304.8,176.8z"/>
			<path class="st2" d="M315.1,173.8c-2.2,0.8-4.6-0.3-5.5-2.4c0-0.1-0.1-0.2-0.1-0.2c-1-2-0.2-4.5,1.9-5.5c0.1-0.1,0.3-0.1,0.4-0.2
				c2.2-0.8,4.6,0.3,5.5,2.4c0,0.1,0.1,0.2,0.1,0.2c1,2,0.2,4.5-1.9,5.5C315.3,173.7,315.2,173.7,315.1,173.8 M312.5,167.3
				c-1.1,0.4-1.2,1.6-0.7,3s1.5,2.1,2.5,1.8c1-0.3,1.2-1.6,0.7-3S313.5,166.9,312.5,167.3"/>
			<path class="st2" d="M327.6,167.5l-5.4-2.7l2.6,4.3l-1.9,1.1l-4.5-7.4l2-1.2l5,2.5l-2.4-4l1.9-1.1l4.5,7.4L327.6,167.5z"/>
			<path class="st2" d="M340.6,157.6c-1.9,1.8-4.3,1.8-6.3-0.2c-1.7-1.5-1.9-4.1-0.4-5.8c0.1-0.1,0.3-0.3,0.4-0.4
				c0.6-0.6,1.3-1,2.1-1.2l1.3,1.7c-0.6,0.1-1.2,0.3-1.7,0.8c-0.9,0.8-1,2,0.2,3.2c1.2,1.2,2.4,1.1,3.2,0.3c0.5-0.5,0.8-1,1-1.7
				l1.6,1.2C341.7,156.3,341.2,157,340.6,157.6"/>
			<path class="st2" d="M345,152.8l-6.8-5.4l1.6-2l5.2,4.1l1.8-2.1l1.8,1.1L345,152.8z"/>
			<path class="st2" d="M352.9,142.1c-1.2,2-2.9,2.5-5,1.4l-4.6-2.7l1.2-2.1l4.6,2.7c0.8,0.5,1.5,0.5,2-0.3c0.5-0.8,0.1-1.4-0.7-1.9
				l-4.6-2.7l1.2-2.1l4.6,2.6C353.7,138.3,354,140.1,352.9,142.1"/>
			<path class="st2" d="M357.9,131.6l-1.2,3.1l-8.1-3.2l1.3-3.2c0.7-1.8,1.8-2.7,3.3-2.1c0.8,0.3,1.3,1,1.3,1.8
				c0.6-0.8,1.6-1.1,2.5-0.7C358.6,127.9,358.7,129.5,357.9,131.6 M351.2,129.1l-0.4,0.9l1.8,0.7l0.3-0.9c0.3-0.7,0.1-1.2-0.5-1.5
				C351.8,128,351.5,128.4,351.2,129.1 M354.3,130.3l-0.4,0.9l1.9,0.8l0.4-0.9c0.3-0.7,0.2-1.3-0.5-1.6
				C355,129.2,354.7,129.4,354.3,130.3"/>
			<path class="st2" d="M220.8,110.3c0.2,2.1-1.2,3.7-3.5,4s-4.1-1-4.4-3c-0.1-0.8,0-1.5,0.4-2.2h1c-0.4,0.6-0.6,1.3-0.5,2.1
				c0.2,1.5,1.6,2.4,3.4,2.1s3-1.3,2.8-2.9c-0.1-0.8-0.5-1.5-1-2l0.9-0.2c0.5,0.6,0.9,1.4,1,2.2"/>
			<path class="st2" d="M220.3,105.9l-7.7-3.1v-1.1l7.7-2.9l0.2,1l-2.4,0.9v3.4l2.2,0.9V105.9z M217.2,103.6v-2.7l-3.6,1.3
				L217.2,103.6z"/>
			<path class="st2" d="M220.7,96l-7.6-1l0.1-1l6.7,0.9l0.4-2.9h0.9L220.7,96z"/>
			<path class="st2" d="M221.8,89l-7.5-1.6l0.2-1L222,88L221.8,89z"/>
			<path class="st2" d="M216.8,81.5l2.3,0.7l0.8-2.6l0.9,0.1l-0.9,2.8l3.3,1l-0.3,1l-7.3-2.3L217,78l0.9,0.3L216.8,81.5z"/>
			<path class="st2" d="M226.8,74.9c-0.9,1.8-2.9,2.5-5.1,1.5s-2.9-3.1-2.1-4.8s2.9-2.5,5.1-1.5S227.6,73.2,226.8,74.9 M220.4,71.9
				c-0.7,1.4,0.1,2.8,1.7,3.6s3.2,0.4,3.9-1s-0.1-2.8-1.7-3.6S221,70.5,220.4,71.9"/>
			<path class="st2" d="M232.2,65.4l-3.9,0.2l-0.6,0.9l2.6,1.7l-0.6,0.8l-6.4-4.1l1.2-1.8c1-1.5,2.3-1.9,3.4-1.2
				c0.9,0.5,1.3,1.7,0.9,2.7l3.9-0.2L232.2,65.4z M225.2,63.6l-0.6,0.9L227,66l0.6-0.9c0.7-1,0.5-1.8-0.2-2.3S225.9,62.6,225.2,63.6
				"/>
			<path class="st2" d="M237.8,58.3l-7.4-0.8l4.7,4l-0.6,0.7l-5.8-4.9l0.7-0.8l7.1,0.8l-4.5-3.8l0.6-0.7l5.8,4.9L237.8,58.3z"/>
			<path class="st2" d="M241,55.1l-5.3-5.5l0.7-0.7l5.3,5.5L241,55.1z"/>
			<path class="st2" d="M243.8,52.4l-2.3-7.9l0.9-0.7l7.1,4.2l-0.6,0.8l-2.1-1.3l-2.7,2.1l0.7,2.3L243.8,52.4z M243.7,48.6l2.1-1.6
				l-3.3-2L243.7,48.6z"/>
			<path class="st2" d="M255.2,44.6l-0.6-8.2l1-0.5l6,5.5l-0.8,0.6l-1.8-1.7l-3.1,1.5l0.2,2.4L255.2,44.6z M255.8,40.9l2.5-1.2
				l-2.8-2.6L255.8,40.9z"/>
			<path class="st2" d="M267.2,39.8c-2,0.7-3.9-0.4-4.6-2.6s0.1-4.2,2.1-4.8c0.7-0.3,1.5-0.3,2.3-0.1l0.2,1c-0.7-0.2-1.5-0.2-2.1,0
				c-1.5,0.5-2,2-1.5,3.7s1.9,2.6,3.4,2.1c0.7-0.3,1.4-0.7,1.8-1.4l0.4,0.8C268.7,39.1,268,39.6,267.2,39.8"/>
			<path class="st2" d="M271.4,38.3l1.5-8.1L274,30l4.5,6.8l-0.9,0.4l-1.3-2.1l-3.4,0.6l-0.4,2.3L271.4,38.3z M273,34.9l2.7-0.5
				l-2-3.2L273,34.9z"/>
			<path class="st2" d="M283.3,36.5l-2.1,0.1l-0.4-7.6l2.2-0.1c2.6-0.2,4.2,1.3,4.3,3.5S285.9,36.4,283.3,36.5 M283,29.9l-1.2,0.1
				l0.3,5.8l1.2-0.1c1.5,0.1,2.8-1,2.9-2.5c0-0.2,0-0.4,0-0.6c0-1.5-1.2-2.7-2.7-2.8C283.3,29.8,283.2,29.8,283,29.9"/>
			<path class="st2" d="M290.6,36.4l0.5-7.5l4.6,0.3l-0.1,0.9l-3.6-0.2l-0.2,2.3l2.9,0.2l0.1,0.9l-3-0.2l-0.2,2.6l3.7,0.2l-0.1,0.9
				L290.6,36.4z"/>
			<path class="st2" d="M305.8,38.7l0.9-6.3l-3.8,5.7l-0.9-0.2l-1.1-6.8l-1.9,6.1l-0.9-0.2l2.2-7.3l1.3,0.3l1,6.8l3.8-5.7l1.3,0.3
				l-1,7.5L305.8,38.7z"/>
			<path class="st2" d="M313.7,38.1l-1.1,2.9l-0.9-0.3l1.1-2.8l-1-5.1l1,0.2l0.7,4.3l3.3-2.6l1,0.4L313.7,38.1z"/>
			<path class="st2" d="M324.4,47.1c-1.7-1.1-2.1-3.2-0.9-5.2c0.9-1.8,3.2-2.5,4.9-1.5c0.1,0,0.1,0.1,0.2,0.1
				c1.7,1.1,2.1,3.2,0.8,5.2c-0.9,1.8-3.2,2.5-4.9,1.5C324.5,47.1,324.4,47.1,324.4,47.1 M328.2,41.2c-1.3-0.8-2.8-0.3-3.8,1.2
				s-0.8,3.1,0.5,4s2.8,0.3,3.8-1.2S329.5,42.1,328.2,41.2"/>
			<path class="st2" d="M335.1,46.3l-1.6,1.8l2.1,1.8l-0.5,0.8l-2.2-1.9l-2.2,2.6l-0.8-0.7l5-5.7l3.4,2.8l-0.6,0.7L335.1,46.3z"/>
			<path class="st2" d="M339.9,60.5c-0.5-0.7-0.9-1.4-1.2-2.2l0.8-0.5c0.2,0.8,0.5,1.6,1,2.2c0.7,0.8,1.5,0.9,2.1,0.5s0.5-1,0.1-2.2
				c-0.6-1.6-0.7-2.4,0.2-3.1c1-0.7,2.4-0.5,3.1,0.5c0.5,0.5,0.8,1.2,1,1.9l-0.8,0.5c-0.1-0.7-0.4-1.3-0.9-1.8
				c-0.4-0.6-1.2-0.8-1.8-0.4c-0.5,0.4-0.5,0.9,0,2.1c0.6,1.7,0.6,2.5-0.3,3.2c-1,0.8-2.4,0.6-3.5-0.6"/>
			<path class="st2" d="M345,67.6c-1.2-1.8-0.6-3.8,1.4-5.1s4.1-0.9,5.3,0.8c0.4,0.6,0.7,1.4,0.7,2.2l-0.9,0.4
				c0.1-0.7-0.1-1.5-0.5-2.1c-0.9-1.3-2.5-1.4-4-0.5s-2.1,2.5-1.2,3.8c0.4,0.6,1.1,1.1,1.8,1.4l-0.7,0.6
				C346.1,68.8,345.5,68.2,345,67.6"/>
			<path class="st2" d="M347.9,72.2l6.8-3.5l0.5,0.9l-6.8,3.5L347.9,72.2z"/>
			<path class="st2" d="M350,76.4l7.1-2.8l1.7,4.2l-0.8,0.3l-1.3-3.3l-2.2,0.8l1.1,2.7l-0.8,0.5l-1.2-2.8l-2.5,1l1.4,3.4l-0.8,0.3
				L350,76.4z"/>
			<path class="st2" d="M354,88.5l4.9-5.5l-6,1.5l-0.2-0.9l7.4-1.9l0.2,1l-4.8,5.3l5.8-1.5l0.2,0.9l-7.4,1.9L354,88.5z"/>
			<path class="st2" d="M355.1,95.9c-0.2-2.1,1.2-3.7,3.5-4s4.1,1,4.4,3c0.1,0.8,0,1.5-0.4,2.2h-1c0.4-0.6,0.6-1.3,0.5-2.1
				c-0.2-1.5-1.6-2.4-3.4-2.2s-3,1.3-2.8,2.9c0.1,0.8,0.5,1.5,1,2l-0.9,0.2c-0.5-0.6-0.9-1.4-1-2.2"/>
			<path class="st2" d="M355.6,101.2h7.7v4.5h-0.9v-3.5H360v2.8l-0.9,0.2v-3h-2.6v3.6h-0.9L355.6,101.2z"/>
			<path class="st2" d="M355.1,110.6c0.1-0.8,0.4-1.6,0.8-2.4l0.9,0.2c-0.5,0.7-0.8,1.5-0.9,2.3c-0.1,1,0.4,1.7,1.1,1.8
				s1.1-0.3,1.6-1.5c0.7-1.5,1.3-2.1,2.4-2c1.2,0.2,2,1.3,1.9,2.5v0.2c-0.1,0.7-0.3,1.4-0.7,2l-0.9-0.3c0.4-0.6,0.7-1.2,0.8-1.9
				c0.2-0.7-0.3-1.4-1-1.6c-0.6-0.1-1,0.3-1.5,1.5c-0.8,1.6-1.4,2.1-2.5,2C355.6,113.4,354.8,112.2,355.1,110.6"/>
		</g>
		<path class="st11" d="M291.9,122.5c-0.7,1.2-2.1,2.8,0.2,3.4c0.8,0.2,1.6,0.2,2.4,0.4c0.6,0.2,2.2,1.6,1,2.1
			c-0.5,0.2-2.9-1.2-3.5-1.4c-1-0.5-2.2-0.8-3.3-0.8c-1,0.1-1.9,0.6-2.8,0.8c-0.6,0.1-7.5,1.6-7.5,1.4c-0.1-0.6,0.6-1.1,1.2-1.4
			c0.9-0.4,1.9-0.6,2.9-0.6c1.1,0,2.1-0.2,3.1-0.4c0.5-0.2,1-0.5,1.5-0.7c0.6-0.1,1.2-0.3,1.8-0.6c0.5-0.4,0.8-0.9,1.1-1.5
			c0.6-1.1,1.2-2.2,1.9-3.2s1.4-1.9,1.2-3.1c-0.2-0.8-0.6-1.5-1.2-2.1c-1.2-1.4-3.2-3.1-4-4.7c-0.4-1,0-2.1,1-2.5
			c0.3-0.1,0.7-0.2,1-0.1c1.4,0.1,2.4,1.9,2.8,3c0.5,1.4,0.3,2.6,1.5,3.9c0.5,0.5,1.1,1.1,1,1.8c0,0.3-0.1,0.5-0.3,0.7
			C293.9,118.8,292.9,120.7,291.9,122.5"/>
		<g>
			<path class="st12" d="M331.4,135l-19-27.4c-1.4,0.1-2.7,0.3-4.1,0.5l19.7,34.3C332.7,144.9,333.8,141,331.4,135"/>
			<path class="st12" d="M330.7,141.9L310,107.8c-1.1,0.1-2.2,0.3-3.3,0.5l18.9,37.9C330.6,150.4,332.6,147.7,330.7,141.9"/>
			<path class="st12" d="M307.3,108.2c-1.3,0.2-2.5,0.5-3.8,0.8l15.7,35c5.2,5.7,8.2,5,7-0.5L307.3,108.2z"/>
			<path class="st12" d="M295.4,87.2c-3.4-3.2-6.5-6.1-10.9-8.3c-2.1-0.9-4.1-1.9-6.1-3c-4-2.9,0.2-5.8,0-12
				c-0.1-2.3-1.5-5.1-1.7-7.2c-0.2-1.8,0-9.5,2.5-11.6c-6.9-1.3-12,5.7-18.2,8.9c-5.4,2.8-10.5,6.4-9.3,13.1c0.5,2.3,1.6,4.4,3.4,6
				c1.5,1.4,3.7,4,3.4,6.4c-0.3,0.9-0.6,1.7-1,2.5c-4.3,14.8,3.6,27.1,29.6,30.3c15.4,1.9,17.9-5.9,21.4,6.9c-0.3-1,2.1-6,2.6-7
				c0.1-0.2,5.4,1.4,5.4,1.4S306.4,97.7,295.4,87.2"/>
		</g>
		<path class="st11" d="M283.3,124c-1,1.1-2.7,2.3-0.6,3.4c0.7,0.4,1.5,0.5,2.2,0.9c0.5,0.3,1.8,2,0.5,2.2c-0.6,0.1-2.6-1.8-3.1-2.1
			c-0.9-0.7-1.9-1.2-3.1-1.4c-1-0.1-3.1,1.1-4.1,1.1c-0.6,0-7.1,0.2-7.1,0c0-0.7,0.9-0.9,1.5-1.1c1-0.2,2-0.2,3,0
			c1.1,0,2.3-0.1,3.4-0.3c0.6,0,1.4-0.9,2-1c0.7,0,1.3-0.1,1.9-0.3c0.6-0.3,1-0.7,1.5-1.2c0.8-1,1.7-1.9,2.6-2.7s1.8-1.5,1.9-2.8
			c0-0.8-0.3-1.6-0.7-2.2c-0.9-1.6-2.4-3.6-2.8-5.4c-0.2-1.1,0.6-2.1,1.7-2.3c0.3,0,0.6,0,0.9,0.1c1.3,0.4,1.9,2.4,2,3.5
			c0.2,1.5-0.3,2.6,0.5,4.1c0.4,0.6,0.8,1.3,0.6,2c-0.1,0.2-0.2,0.5-0.4,0.6C286.1,120.7,284.8,122.5,283.3,124"/>
		<path class="st2" d="M259.9,71.3c1.2-2.4,1.7-5.9,2.2-7.2c0.3-0.7,0.3-1.5,0-2.1c-0.4-0.5-1-0.7-1.7-0.8c-2.3-0.4-6.8-2.6-7.9,0
			c-0.8,1.8-1.2,3.9-1,5.9c0.4,2.2,2.3,5.9,4.8,6.6C257.9,74.1,259.1,73,259.9,71.3"/>
		<path class="st12" d="M294.1,82.3c-9.6-6.1-21.4-12.7-27.3,2.9c-1.4,3.9-0.8,8.2,1.7,11.6c2.3,3,5.7,3.4,9.3,4.9
			c7.6,3.3,14.5,4.7,22.7,6.2c4.2,0.8,4.1-0.4,8-0.1c1.8,0.1,3.6,0,5.4-0.1c0.1,0,4-0.6,3.6-1C316,104.3,306.4,90.1,294.1,82.3"/>
		<path class="st11" d="M254.4,72.1c0-1.7-0.2-3.4-0.5-5h-0.1c-0.3-1.5-0.8-2.9-1.5-4.1c0,0-6.5,3.6-9,7.1
			C243.2,70,246.4,71.3,254.4,72.1"/>
		<path class="st11" d="M260.9,64.2c-0.2,1-1.2,1.7-2.3,1.6c-1-0.1-1.8-1.1-1.7-2.1c0.2-1.1,1.2-1.8,2.3-1.7S261,63.1,260.9,64.2"/>
		<path class="st11" d="M258.5,63.4c-0.1,0.3-0.3,0.4-0.6,0.4s-0.4-0.3-0.4-0.5c0.1-0.3,0.3-0.4,0.6-0.4S258.5,63.1,258.5,63.4z"/>
	</g>
</g>
</svg>
