<?xml version="1.0" encoding="utf-8"?>
<!-- Generator: Adobe Illustrator 23.1.1, SVG Export Plug-In . SVG Version: 6.00 Build 0)  -->
<svg version="1.1" id="Layer_1" xmlns="http://www.w3.org/2000/svg" xmlns:xlink="http://www.w3.org/1999/xlink" x="0px" y="0px"
	 viewBox="0 0 561.3 355.2" style="enable-background:new 0 0 561.3 355.2;" xml:space="preserve">
<style type="text/css">
	.st0{clip-path:url(#SVGID_2_);}
	.st1{fill:#FFFFFF;}
	.st2{fill:#010101;}
	.st3{fill:#EFB320;}
	.st4{fill:#FEE36D;}
	.st5{clip-path:url(#SVGID_4_);}
	.st6{fill:#59A4DA;}
	.st7{fill:#0794D3;}
	.st8{fill:#96C0E7;}
	.st9{clip-path:url(#SVGID_6_);}
	.st10{clip-path:url(#SVGID_8_);}
	.st11{fill:#B8896E;}
	.st12{fill:#E56B25;}
</style>
<g>
	<g>
		<defs>
			<rect id="SVGID_1_" x="12.5" y="92.9" width="169.6" height="169.6"/>
		</defs>
		<clipPath id="SVGID_2_">
			<use xlink:href="#SVGID_1_"  style="overflow:visible;"/>
		</clipPath>
		<g class="st0">
			<path class="st1" d="M181.7,177.7c0,46.6-37.8,84.4-84.4,84.4S13,224.3,13,177.7s37.8-84.4,84.4-84.4S181.7,131.1,181.7,177.7z"
				/>
			<g>
				<path class="st2" d="M97.4,262.5c-46.8,0-84.8-38-84.8-84.8s38-84.8,84.8-84.8s84.8,38,84.8,84.8
					C182.1,224.5,144.2,262.5,97.4,262.5 M97.4,93.7c-46.4,0-84,37.6-84,84s37.6,84,84,84s84-37.6,84-84S143.8,93.7,97.4,93.7"/>
				<path class="st2" d="M27.9,205c-0.4-1.1-0.6-2.2-0.6-3.3l2-0.4c0,1,0.1,2,0.4,3c0.3,0.8,0.7,1,1.1,0.9s0.5-0.5,0.4-1.4
					c-0.2-2.1-0.1-3.3,1.5-3.9s3,0.2,3.7,1.9c0.4,0.9,0.5,1.9,0.5,2.9l-1.9,0.4c0-0.9-0.1-1.8-0.4-2.6c-0.2-0.6-0.6-0.8-1-0.7
					s-0.5,0.5-0.4,1.4c0.2,2.2,0,3.3-1.4,3.8C30.2,207.7,28.7,206.9,27.9,205"/>
				<path class="st2" d="M32.9,215.3c-1.3-2.3-0.7-4.6,1.8-6c1.9-1.3,4.5-0.8,5.8,1.1c0.1,0.1,0.2,0.2,0.2,0.4
					c0.4,0.7,0.7,1.5,0.7,2.4l-2,0.8c0.1-0.6,0-1.3-0.3-1.8c-0.6-1-1.7-1.4-3.1-0.6s-1.7,2-1.1,3c0.3,0.6,0.8,1,1.4,1.4l-1.6,1.2
					C33.9,216.6,33.3,216,32.9,215.3"/>
				<path class="st2" d="M36.5,220.6l7-5.1l1.4,2l-7,5.1L36.5,220.6z"/>
				<path class="st2" d="M40.6,226l6.4-5.9l4,4.3l-1.4,1.3l-2.3-2.6l-1.1,1L48,226l-1.2,1.4l-2-2.1l-1.2,1.1L46,229l-1.4,1.3
					L40.6,226z"/>
				<path class="st2" d="M51.9,236.8l0.6-6l-3.2,3.9l-1.7-1.4l5.4-6.8l1.8,1.5l-0.6,5.6l3-3.7l1.7,1.4l-5.5,6.7L51.9,236.8z"/>
				<path class="st2" d="M60.7,242.7c-2.3-1.3-2.9-3.6-1.5-6c1-2.1,3.5-3,5.5-2c0.1,0.1,0.3,0.1,0.4,0.2c0.7,0.4,1.4,1,1.8,1.7
					l-1.3,1.7c-0.2-0.6-0.7-1.1-1.2-1.4c-1-0.6-2.2-0.4-3,1.1s-0.4,2.6,0.6,3.2c0.6,0.3,1.2,0.5,1.9,0.5l-0.8,1.8
					C62.2,243.4,61.4,243.2,60.7,242.7"/>
				<path class="st2" d="M66.6,245.6l3.3-8l5.4,2.2l-0.7,1.7l-3.2-1.3l-0.6,1.4l2.4,1l-0.4,1.8l-2.7-1.1l-0.6,1.5l3.3,1.4l-0.7,1.7
					L66.6,245.6z"/>
				<path class="st2" d="M80.9,250.5l4.3-8.1l3.1,0.5l1.5,8.7l-2.4,0.1l-0.3-1.9l-3-0.5l-0.8,1.6L80.9,250.5z M84.9,247.5l2,0.3
					l-0.5-3.5L84.9,247.5z"/>
				<path class="st2" d="M97.3,252.3c-2.6,0-4.3-1.7-4.2-4.5c-0.2-2.3,1.6-4.3,3.9-4.4h0.4c0.8,0,1.7,0.2,2.4,0.6l-0.3,2.1
					c-0.5-0.4-1.1-0.6-1.8-0.6c-1.2,0-2.1,0.8-2.1,2.4s0.9,2.4,2.1,2.5c0.7,0,1.3-0.2,1.9-0.5l0.2,2C99,252.1,98.1,252.3,97.3,252.3
					"/>
				<path class="st2" d="M107.2,244.9l0.8,6.5l-2.5,0.3l-0.8-6.5l-2.3,0.3l-0.3-2.1l7-0.9l0.6,2.1L107.2,244.9z"/>
				<path class="st2" d="M112,241.9l2.3-0.6l2.1,8.4l-2.3,0.6L112,241.9z"/>
				<path class="st2" d="M124.2,247.3c-2.3,1.1-5,0.1-6-2.1c-1.1-2.3-0.1-5,2.1-6c2.3-1.1,5-0.1,6,2.1c0.1,0.1,0.1,0.2,0.1,0.3
					c1,2.1,0.2,4.5-1.9,5.5C124.5,247.2,124.4,247.3,124.2,247.3 M121.7,240.8c-1,0.4-1.2,1.6-0.7,3s1.5,2.2,2.5,1.8s1.2-1.6,0.6-3
					S122.7,240.4,121.7,240.8"/>
				<path class="st2" d="M136.6,241l-5.4-2.7l2.6,4.3l-1.9,1.1l-4.4-7.4l2-1.2l5,2.5l-2.4-4l1.9-1.1l4.4,7.5L136.6,241z"/>
				<path class="st2" d="M149.5,231.1c-1.9,1.8-4.3,1.8-6.2-0.2c-1.7-1.5-1.9-4.1-0.4-5.8l0.4-0.4c0.6-0.6,1.3-1,2.1-1.2l1.3,1.8
					c-0.6,0.1-1.2,0.4-1.7,0.8c-0.9,0.8-0.9,2,0.2,3.2c1.1,1.2,2.3,1.1,3.2,0.3c0.5-0.5,0.8-1.1,1-1.7l1.6,1.2
					C150.7,229.8,150.2,230.5,149.5,231.1"/>
				<path class="st2" d="M153.9,226.2l-6.8-5.4l1.6-2l5.1,4.1l1.7-2.2l1.8,1.1L153.9,226.2z"/>
				<path class="st2" d="M161.7,215.6c-1.2,2-2.9,2.5-4.9,1.4l-4.6-2.7l1.2-2.1l4.6,2.7c0.8,0.5,1.5,0.5,2-0.3
					c0.5-0.8,0.1-1.4-0.7-1.9l-4.6-2.7l1.2-2.1l4.5,2.7C162.5,211.7,162.9,213.5,161.7,215.6"/>
				<path class="st2" d="M166.6,205l-1.2,3.1l-8.1-3.2l1.3-3.3c0.7-1.8,1.8-2.7,3.3-2.1c0.8,0.3,1.3,1,1.3,1.8
					c0.5-0.8,1.6-1.1,2.5-0.7C167.3,201.4,167.4,203,166.6,205 M160.1,202.5l-0.4,0.9l1.8,0.7l0.3-0.9c0.3-0.7,0.1-1.2-0.5-1.5
					C160.7,201.4,160.4,201.9,160.1,202.5 M163.2,203.7l-0.4,0.9l1.9,0.8l0.4-0.9c0.3-0.7,0.2-1.3-0.5-1.6
					C163.9,202.6,163.5,202.9,163.2,203.7"/>
				<path class="st2" d="M30.9,183.6c0.2,2.1-1.2,3.7-3.5,4s-4.1-1-4.3-3.1c-0.1-0.8,0-1.5,0.4-2.2h1c-0.4,0.6-0.6,1.4-0.5,2.1
					c0.2,1.6,1.5,2.4,3.3,2.1c1.8-0.3,3-1.3,2.8-2.9c-0.1-0.8-0.5-1.5-1-2l0.9-0.2C30.5,182,30.9,182.8,30.9,183.6"/>
				<path class="st2" d="M30.4,179.2l-7.6-3.1V175l7.6-2.9l0.2,1l-2.3,0.9v3.4l2.2,0.9L30.4,179.2z M27.3,177v-2.7l-3.6,1.3
					L27.3,177z"/>
				<path class="st2" d="M30.8,169.3l-7.5-1l0.1-1l6.6,0.9l0.4-2.9h0.9L30.8,169.3z"/>
				<path class="st2" d="M24.5,160.7l0.2-1l7.4,1.7l-0.2,1L24.5,160.7z"/>
				<path class="st2" d="M27,154.7l2.3,0.8l0.8-2.6L31,153l-0.9,2.8l3.2,1l-0.3,1l-7.2-2.3l1.3-4.2l0.8,0.3L27,154.7z"/>
				<path class="st2" d="M36.8,148.2c-0.8,1.8-2.9,2.5-5,1.5s-2.9-3.1-2.1-4.9s2.9-2.5,5-1.5S37.6,146.4,36.8,148.2 M30.5,145.2
					c-0.7,1.4,0.1,2.8,1.7,3.6s3.2,0.4,3.8-1s-0.1-2.8-1.7-3.6C32.7,143.4,31.1,143.8,30.5,145.2"/>
				<path class="st2" d="M42.2,138.6l-3.9,0.2l-0.6,0.9l2.6,1.7l-0.5,0.8l-6.4-4.1l1.2-1.8c1-1.5,2.2-1.9,3.4-1.2
					c0.9,0.6,1.2,1.7,0.8,2.7l3.8-0.2L42.2,138.6z M35.3,136.8l-0.6,1l2.3,1.5l0.6-0.9c0.7-1,0.5-1.8-0.2-2.3S35.9,135.8,35.3,136.8
					"/>
				<path class="st2" d="M47.7,131.5l-7.3-0.8l4.7,4l-0.6,0.7l-5.8-5l0.7-0.8l7.1,0.8l-4.5-3.8l0.6-0.7l5.8,4.9L47.7,131.5z"/>
				<path class="st2" d="M45.7,122.7l0.7-0.7l5.2,5.5l-0.7,0.7L45.7,122.7z"/>
				<path class="st2" d="M53.7,125.6l-2.3-8l0.9-0.7l7,4.1l-0.6,0.8l-2.1-1.3l-2.7,2.1l0.7,2.3L53.7,125.6z M53.5,121.8l2.1-1.7
					l-3.2-2L53.5,121.8z"/>
				<path class="st2" d="M64.9,117.7l-0.6-8.2l1-0.5l6,5.5l-0.8,0.6l-1.8-1.7l-3,1.5l0.2,2.4L64.9,117.7z M65.6,114l2.4-1.2
					l-2.8-2.6L65.6,114z"/>
				<path class="st2" d="M76.8,112.9c-2,0.7-3.8-0.4-4.6-2.6s0.1-4.2,2.1-4.9c0.7-0.3,1.5-0.3,2.3-0.1l0.2,1c-0.7-0.2-1.4-0.2-2.1,0
					c-1.5,0.5-2,2-1.4,3.7c0.6,1.7,1.9,2.6,3.4,2.1c0.7-0.3,1.4-0.8,1.8-1.4l0.4,0.8C78.3,112.2,77.6,112.7,76.8,112.9"/>
				<path class="st2" d="M81,111.4l1.5-8.1l1.1-0.2l4.5,6.8l-0.9,0.4l-1.3-2.1l-3.3,0.6l-0.6,2.4L81,111.4z M82.6,108l2.7-0.5
					l-2-3.2L82.6,108z"/>
				<path class="st2" d="M92.8,109.6l-2.1,0.1l-0.4-7.6l2.2-0.1c2.6-0.2,4.1,1.3,4.3,3.5C97,107.7,95.3,109.5,92.8,109.6
					 M92.5,102.9l-1.2,0.1l0.3,5.8l1.2-0.1c1.5,0.1,2.8-1,2.9-2.5c0-0.2,0-0.4,0-0.6c0-1.5-1.2-2.7-2.7-2.8
					C92.8,102.9,92.6,102.9,92.5,102.9"/>
				<path class="st2" d="M100,109.5l0.5-7.6l4.5,0.3l-0.1,0.9l-3.5-0.2l-0.2,2.3l2.9,0.2l0.1,0.9l-3-0.2l-0.2,2.6l3.6,0.2l-0.1,0.9
					L100,109.5z"/>
				<path class="st2" d="M115.1,111.8l0.9-6.3l-3.8,5.7l-0.9-0.2l-1-6.8l-1.8,6.1l-0.9-0.2l2.2-7.3l1.3,0.3l1,6.8l3.8-5.7l1.3,0.3
					l-1,7.5L115.1,111.8z"/>
				<path class="st2" d="M122.9,111.2l-1.1,2.9l-0.9-0.3l1.1-2.9l-1-5.1l1,0.2l0.7,4.3l3.4-2.7l1,0.4L122.9,111.2z"/>
				<path class="st2" d="M133.5,120.2c-1.7-1.1-2.1-3.2-0.8-5.2s3.4-2.5,5.1-1.4s2.1,3.2,0.8,5.2S135.1,121.2,133.5,120.2
					 M137.3,114.3c-1.3-0.8-2.8-0.3-3.8,1.2s-0.8,3.1,0.4,4s2.8,0.3,3.8-1.2S138.6,115.2,137.3,114.3"/>
				<path class="st2" d="M144.1,119.5l-1.6,1.8l2.1,1.8l-0.4,0.8l-2.2-1.8l-2.2,2.6L139,124l4.9-5.8l3.3,2.8l-0.6,0.7L144.1,119.5z"
					/>
				<path class="st2" d="M148.8,133.7c-0.5-0.7-0.9-1.4-1.1-2.3l0.8-0.5c0.2,0.8,0.5,1.6,1,2.2c0.7,0.8,1.5,0.9,2.1,0.5
					c0.6-0.4,0.5-1,0.1-2.2c-0.6-1.6-0.7-2.4,0.2-3.1c1-0.7,2.4-0.6,3.1,0.4l0.1,0.1c0.5,0.5,0.8,1.2,1,1.9l-0.8,0.5
					c-0.1-0.7-0.4-1.3-0.8-1.8c-0.4-0.6-1.2-0.8-1.8-0.4c-0.5,0.4-0.4,0.9,0,2.1c0.6,1.7,0.6,2.5-0.3,3.2
					C151.3,135.1,149.9,134.8,148.8,133.7"/>
				<path class="st2" d="M153.9,140.8c-1.1-1.8-0.6-3.8,1.4-5.1s4.1-0.9,5.2,0.8c0.4,0.6,0.7,1.4,0.7,2.2l-0.9,0.4
					c0.1-0.7-0.1-1.5-0.5-2.1c-0.8-1.3-2.4-1.4-4-0.5s-2.1,2.5-1.2,3.8c0.4,0.7,1.1,1.2,1.8,1.4l-0.7,0.6
					C155,142,154.3,141.5,153.9,140.8"/>
				<path class="st2" d="M156.7,145.4l6.8-3.5l0.5,0.9l-6.8,3.5L156.7,145.4z"/>
				<path class="st2" d="M158.8,149.6l7-2.8l1.7,4.2l-0.8,0.3l-1.3-3.3l-2.1,0.9l1.1,2.7l-0.8,0.5l-1.1-2.8l-2.4,1l1.4,3.4l-0.8,0.3
					L158.8,149.6z"/>
				<path class="st2" d="M162.8,161.8l4.9-5.5l-5.9,1.5l-0.2-0.9l7.4-1.9l0.2,1l-4.7,5.3l5.7-1.5l0.2,0.9l-7.3,1.9L162.8,161.8z"/>
				<path class="st2" d="M163.8,169.2c-0.2-2.1,1.2-3.7,3.5-4c2.3-0.3,4.1,1,4.3,3c0.1,0.8,0,1.5-0.4,2.2h-1
					c0.4-0.6,0.6-1.4,0.5-2.1c-0.2-1.6-1.5-2.4-3.4-2.2s-2.9,1.3-2.8,2.9c0.1,0.8,0.5,1.5,1,2l-0.9,0.2c-0.5-0.6-0.9-1.4-1-2.2"/>
				<path class="st2" d="M164.4,174.5h7.6v4.5h-0.9v-3.5h-2.3v2.9l-0.9,0.1v-3h-2.6v3.6h-0.9L164.4,174.5z"/>
				<path class="st2" d="M163.9,184c0.1-0.8,0.4-1.6,0.8-2.4l0.9,0.2c-0.5,0.7-0.8,1.5-0.9,2.3c-0.1,1,0.4,1.8,1.1,1.8
					s1-0.3,1.6-1.5c0.7-1.5,1.3-2.1,2.4-2c1.2,0.2,2,1.3,1.8,2.5v0.1c-0.1,0.7-0.3,1.4-0.7,2l-0.9-0.3c0.4-0.6,0.7-1.2,0.8-1.9
					c0.2-0.7-0.3-1.4-1-1.6c-0.6-0.1-1,0.3-1.5,1.5c-0.8,1.6-1.4,2.1-2.5,2C164.4,186.7,163.6,185.6,163.9,184"/>
			</g>
			<path class="st3" d="M62.6,174.3c1.2-0.5,2.5-0.8,3.7-1.1l9.1-2l16.7-3.6c1.5-0.5,3.1-0.5,4.6-0.1c0.2,0.1,0.4,0.2,0.4,0.4
				c0.1,0.2,0.1,0.3,0,0.5c-1.9,7.3-4.2,14.4-6.5,21.6c-0.2,1-0.5,1.9-0.9,2.9c-0.6,1.1-1.3,2.1-2.1,3.1c-1.4,1.9-2.9,3.8-4.4,5.7
				c-0.8,1.1-1.8,1.9-3.1,2.3c-0.9,0.2-1.8,0.2-2.7,0c-1.3-0.2-2.7-0.4-4-0.7c-2.5-0.8-5-1.9-7.2-3.3c-1.3-0.7-2.5-1.5-3.7-2.4
				c-1.7-1.6-3.2-3.4-4.3-5.4c-1.3-1.8-2.3-3.8-3-5.9c-0.5-2-0.4-4,0.2-5.9c0.3-1,0.8-1.9,1.3-2.7c0.7-0.9,1.5-1,2.5-1.5
				C60.5,175.6,61.4,174.8,62.6,174.3"/>
			<path class="st4" d="M98.1,161.9c-1.2-1.7-2.7-3-4.5-4c-2.1-1.4-4.4-2.7-6.7-3.7c-2.5-0.9-5.2-1.6-7.8-2.1l-0.4-0.1
				c-2.2-0.6-4.5-1-6.8-1.2c-3-0.4-6-0.7-9-0.8c-0.8,0-1.5,0-2.2,0.1c-3.6,0.2-7.2,1-10.6,2.3c-0.3,0.1-0.5,0.2-0.8,0.4
				c-1.4,0.6-2.8,1.3-4,2.3c-0.1,0.1-0.2,0.2-0.3,0.3c-0.1,0.3,0.2,0.7,0.4,0.9c2.7,2.7,4.7,6,6,9.5c0.6,1.7,1,3.5,1.7,5.1
				c0.4,0.8,0.8,1.7,1.2,2.5c0.9,1.8,1.7,4,2.8,5.6c1.9,2.9,7,2.2,9.6,1.2c2.3-0.8,4.6-2.1,7-2.5c2.6-0.6,5.2-1.3,7.6-2.3
				c0.4-0.1,0.8-0.3,1.3-0.4l0.7-0.2c0.9,0,1.7-0.2,2.5-0.6c1.5-0.7,2.9-1.5,4.2-2.5c1.9-1.3,3.9-2.5,6-3.5c0.5-0.2,1-0.5,1.5-0.9
				c1.5-1.3,1.5-3.8,0.4-5.6"/>
			<path class="st3" d="M91.3,195.6c-0.3,1.7-0.3,3.5-0.5,5.2c-0.4,1.9-0.2,3.9,0.4,5.8c0.7,1.5,1.9,2.7,3.3,3.6
				c4,2.6,8.7,4.1,13.5,4.4c1.2,0.1,2.4,0.2,3.6,0.1c2.3-0.3,4.5-0.9,6.6-1.9c3.3-0.9,6-3.3,7.4-6.4c0.4-0.6,0.7-1.3,0.8-2.1
				c0-1-0.4-2-1.1-2.8c-1.3-1.7-2.7-3.3-4.1-4.8c-6.3-6.8-11.8-14.4-15.2-23c-0.5-1.3-1-2.7-2.2-3.3c0,0-3.5,5.4-3.8,5.9
				c-1.7,2.4-3,5.1-3.7,7.9l-1.1,3.4c-0.2,1-0.6,1.9-1.1,2.7C92.8,191.9,91.9,193.7,91.3,195.6"/>
			<path class="st2" d="M101.4,158.9c-0.1-0.6-0.1-1.1-0.2-1.6l-0.6-5.2l-0.3-2.6c-0.2-1.1-0.2-2.2-0.2-3.3c0-0.4,0.1-0.8,0.2-1.3
				s-0.1-0.7,0.1-1.1c0.1-0.1,0.2-0.2,0.4-0.2c0.7,0.1-0.1,2.7-0.1,3.2c0.1,1.2,0.2,2.4,0.4,3.6c0.5,3.5,0.2,7.2,1.7,10.4
				c0.2,0.3,0.3,0.6,0.2,1c-0.1,0.3-0.5,0.6-0.8,0.4c-0.1-0.1-0.1-0.2-0.2-0.3C101.7,160.9,101.5,159.9,101.4,158.9"/>
			<path class="st2" d="M118.3,155.4c0.1-0.1,2-2,1.4-2.3c-0.3-0.1-0.7,0.1-1,0.4c-0.7,0.6-1.3,1.2-2,1.8c-1.3,1.1-2.7,2.1-4.2,2.8
				c-2.4,1.1-4.6,2.5-7,3.5c-0.5,0.2-1.5,0.4-1.6,1.1c0.1,0,0.2,0.1,0.2,0.1h0.3c1.7-0.7,3.4-1.5,5-2.4c1.8-0.9,3.6-1.9,5.4-2.9
				C116.1,157,117.2,156.2,118.3,155.4"/>
			<path class="st4" d="M149.4,193.3c-0.5-1.9-1.1-3.7-1.8-5.5c-1.3-2.7-3.1-5-5.3-7c-2.1-2.1-4.5-3.8-7-5.3c-1.1-0.7-2.2-1.3-3.4-2
				c-0.3-0.2-0.7-0.4-1-0.6c-0.4-0.4-0.9-0.8-1.5-1.1l-3.7-2c-1.1-0.6-2.2-1.2-3.4-1.7c-4.2-1.9-8.9-2.5-13.5-3
				c-0.9-0.1-1.8-0.1-2.7,0c-0.9,0.2-1.7,0.8-2.1,1.6c-0.4,1,0,2,0,3c-0.1,1.9,0.8,3.2,1.4,5l2.4,6.9c0.2,0.8,0.6,1.6,1,2.4
				c0.2,0.3,0.4,0.5,0.6,0.7c0.2,0.5,0.4,0.9,0.7,1.3c2,2.8,3.1,6.1,4.6,9.3s3.2,6.3,6,8.3c0.7,0.5,1.6,0.9,2.4,1.1
				c1.4,0.2,2.8,0.1,4.1-0.3c3.4-0.8,6.6-2.1,9.5-4c0.8-0.6,1.6-1.2,2.4-1.7s1.7-0.9,2.6-1.2c1.8-0.8,3.7-1.4,5.6-1.7
				c0.6,0,1.3-0.2,1.8-0.6c0.3-0.6,0.3-1.3,0.1-1.9"/>
			<path class="st2" d="M105,169.5c1.2-2.5,1.2-5.5,0-8c-0.4-1-1.4-0.8-2.4-0.7c-0.5,0.1-1,0.2-1.4,0.3c-0.8,0.4-1.4,0.9-1.9,1.6
				c-1,0.9-1.8,2-2.3,3.3c-0.4,1.3-0.5,2.7-0.8,4.1c-0.6,2.4-1.6,4.7-2.5,7c-1.2,3.3-2.2,6.7-3.2,10.1c-0.4,1.4-0.7,2.9-1.1,4.3
				s-0.7,2.8-0.9,4.2c-0.1,0.3,0,0.6,0.2,0.9c0.1,0.1,0.2,0.1,0.4,0.2c0.8,0.1,1.7-0.7,2.2-1.3c5.1-5.5,6.3-13.4,10.1-19.9
				C102.6,173.6,104,171.6,105,169.5"/>
		</g>
	</g>
</g>
<g>
	<g>
		<defs>
			<rect id="SVGID_3_" x="379.1" y="93.6" width="169.6" height="169.6"/>
		</defs>
		<clipPath id="SVGID_4_">
			<use xlink:href="#SVGID_3_"  style="overflow:visible;"/>
		</clipPath>
		<g class="st5">
			<path class="st1" d="M548.3,178.4c0,46.6-37.8,84.4-84.4,84.4s-84.4-37.8-84.4-84.4S417.3,94,463.9,94S548.3,131.8,548.3,178.4"
				/>
			<g>
				<path class="st2" d="M463.9,263.2c-46.8,0-84.8-38-84.8-84.8s38-84.8,84.8-84.8s84.8,38,84.8,84.8S510.8,263.2,463.9,263.2
					L463.9,263.2z M463.9,94.4c-46.4,0-84,37.6-84,84s37.6,84,84,84s84-37.6,84-84S510.3,94.5,463.9,94.4"/>
				<path class="st2" d="M394.5,205.7c-0.4-1.1-0.6-2.2-0.6-3.3l2-0.4c0,1,0.1,2,0.4,3c0.3,0.8,0.7,1,1.1,0.9s0.5-0.5,0.4-1.4
					c-0.2-2.1-0.1-3.3,1.5-3.9s3,0.2,3.7,1.9c0.4,0.9,0.5,1.9,0.5,2.9l-1.9,0.4c0-0.9-0.1-1.8-0.4-2.6c-0.2-0.6-0.6-0.8-1-0.7
					s-0.5,0.5-0.4,1.4c0.2,2.2,0,3.3-1.4,3.8C396.8,208.4,395.3,207.5,394.5,205.7"/>
				<path class="st2" d="M399.4,216c-1.3-2.3-0.7-4.6,1.8-6c1.9-1.3,4.5-0.8,5.8,1.1c0.1,0.1,0.2,0.2,0.2,0.4
					c0.4,0.7,0.7,1.5,0.7,2.4l-2,0.8c0.1-0.6,0-1.3-0.3-1.8c-0.6-1-1.7-1.4-3.1-0.6s-1.7,2-1.1,3c0.3,0.6,0.8,1,1.4,1.4l-1.6,1.2
					C400.4,217.4,399.8,216.7,399.4,216"/>
				<path class="st2" d="M403,221.3l7-5.1l1.4,2l-7,5.1L403,221.3z"/>
				<path class="st2" d="M407.1,226.7l6.4-5.9l4,4.3l-1.4,1.3l-2.4-2.6l-1.1,1l1.8,1.9l-1.2,1.4l-2-2.1l-1.2,1.1l2.4,2.6L411,231
					L407.1,226.7z"/>
				<path class="st2" d="M418.5,237.4l0.6-6l-3.2,3.9l-1.7-1.4l5.4-6.7l1.8,1.4l-0.6,5.6l3-3.7l1.7,1.4l-5.5,6.7L418.5,237.4z"/>
				<path class="st2" d="M427.2,243.4c-2.3-1.3-2.9-3.6-1.5-6c1-2.1,3.5-3,5.5-2c0.1,0.1,0.3,0.1,0.4,0.2c0.7,0.4,1.4,1,1.8,1.7
					l-1.3,1.7c-0.2-0.6-0.7-1.1-1.2-1.4c-1-0.6-2.2-0.4-3,1.1s-0.4,2.6,0.6,3.2c0.6,0.3,1.2,0.5,1.9,0.5l-0.8,1.9
					C428.8,244.1,428,243.9,427.2,243.4"/>
				<path class="st2" d="M433.1,246.3l3.3-8l5.5,2.2l-0.7,1.7l-3.2-1.3l-0.6,1.4l2.4,1l-0.4,1.8l-2.7-1.1l-0.6,1.5l3.3,1.4l-0.7,1.7
					L433.1,246.3z"/>
				<path class="st2" d="M447.5,251.2l4.3-8.1l3.1,0.5l1.5,8.7l-2.4,0.1l-0.3-1.9l-3-0.5l-0.8,1.6L447.5,251.2z M451.4,248.2l2,0.3
					l-0.5-3.5L451.4,248.2z"/>
				<path class="st2" d="M463.8,253c-2.6,0-4.3-1.7-4.2-4.5c-0.2-2.3,1.6-4.3,3.9-4.4h0.4c0.8,0,1.7,0.2,2.4,0.6l-0.3,2.1
					c-0.5-0.4-1.1-0.6-1.8-0.6c-1.2,0-2.1,0.8-2.1,2.4c0,1.6,0.9,2.4,2,2.5c0.7,0,1.3-0.2,1.9-0.5l0.2,2
					C465.5,252.8,464.7,253,463.8,253"/>
				<path class="st2" d="M473.7,245.6l0.8,6.5l-2.5,0.3l-0.8-6.5l-2.3,0.3l-0.3-2.1l7-0.9l0.6,2.1L473.7,245.6z"/>
				<path class="st2" d="M478.5,242.6l2.3-0.6l2.1,8.4l-2.3,0.6L478.5,242.6z"/>
				<path class="st2" d="M490.8,248c-2.3,1.1-5,0.1-6-2.1c-1.1-2.3-0.1-5,2.1-6c2.3-1.1,5-0.1,6,2.1c0.1,0.1,0.1,0.2,0.1,0.3
					c1,2.1,0.2,4.5-1.9,5.5C491.1,247.9,490.9,248,490.8,248 M488.3,241.4c-1,0.4-1.2,1.6-0.7,3s1.5,2.2,2.5,1.8s1.2-1.6,0.6-3
					S489.3,241,488.3,241.4"/>
				<path class="st2" d="M503.2,241.7l-5.4-2.7l2.6,4.3l-1.9,1.1l-4.4-7.5l2-1.2l5,2.5l-2.4-4.1l1.9-1.1l4.4,7.5L503.2,241.7z"/>
				<path class="st2" d="M516,231.7c-1.9,1.8-4.3,1.8-6.2-0.2c-1.7-1.5-1.9-4.1-0.4-5.8c0.1-0.1,0.2-0.2,0.4-0.4
					c0.6-0.6,1.3-1,2.1-1.2l1.3,1.8c-0.6,0.1-1.2,0.4-1.7,0.8c-0.9,0.8-1,2,0.2,3.2c1.2,1.2,2.3,1.1,3.2,0.3c0.5-0.5,0.8-1.1,1-1.7
					l1.6,1.2C517.2,230.4,516.7,231.2,516,231.7"/>
				<path class="st2" d="M520.4,226.9l-6.8-5.4l1.6-2l5.1,4.1l1.7-2.2l1.8,1.1L520.4,226.9z"/>
				<path class="st2" d="M528.2,216.2c-1.2,2-2.9,2.5-4.9,1.4l-4.5-2.7l1.2-2.1l4.6,2.7c0.8,0.5,1.5,0.5,2-0.3
					c0.5-0.8,0.1-1.4-0.7-1.9l-4.6-2.7l1.2-2.1l4.5,2.7C529,212.4,529.4,214.2,528.2,216.2"/>
				<path class="st2" d="M533.2,205.7l-1.2,3.1l-8.1-3.2l1.3-3.3c0.7-1.8,1.8-2.7,3.3-2.1c0.8,0.3,1.3,1,1.3,1.8
					c0.5-0.8,1.6-1.1,2.5-0.7C533.9,202,534,203.6,533.2,205.7 M526.6,203.2l-0.3,0.9l1.8,0.7l0.3-0.9c0.3-0.7,0.1-1.2-0.5-1.5
					C527.3,202.1,526.9,202.5,526.6,203.2 M529.7,204.4l-0.4,0.9l1.9,0.8l0.4-0.9c0.3-0.7,0.2-1.3-0.5-1.6S530,203.6,529.7,204.4"/>
				<path class="st2" d="M397.5,184.3c0.2,2.1-1.2,3.7-3.5,4c-2.3,0.3-4.1-1-4.3-3.1c-0.1-0.8,0-1.5,0.4-2.2h1
					c-0.4,0.6-0.6,1.4-0.5,2.1c0.2,1.6,1.5,2.4,3.4,2.1s3-1.3,2.8-2.9c-0.1-0.8-0.5-1.5-1-2l0.9-0.2
					C397.1,182.7,397.4,183.5,397.5,184.3"/>
				<path class="st2" d="M396.9,179.8l-7.6-3.1v-1.1l7.6-2.9l0.2,1l-2.3,0.9v3.4l2.2,0.9L396.9,179.8z M393.8,177.6v-2.7l-3.6,1.3
					L393.8,177.6z"/>
				<path class="st2" d="M397.3,170l-7.5-1l0.1-1l6.6,0.9l0.4-2.9h0.9L397.3,170z"/>
				<path class="st2" d="M390.8,161.2l0.2-1l7.5,1.4l-0.2,1L390.8,161.2z"/>
				<path class="st2" d="M393.5,155.4l2.3,0.8l0.8-2.6l0.9,0.1l-0.9,2.8l3.2,1.1l-0.3,0.9l-7.2-2.3l1.3-4.2l0.9,0.3L393.5,155.4z"/>
				<path class="st2" d="M403.4,148.8c-0.9,1.8-2.9,2.5-5,1.5s-2.9-3.1-2.1-4.9s2.9-2.5,5-1.5S404.2,147.1,403.4,148.8 M397,145.8
					c-0.7,1.4,0.1,2.8,1.7,3.6s3.2,0.4,3.9-1s-0.1-2.8-1.7-3.6C399.3,144,397.7,144.4,397,145.8"/>
				<path class="st2" d="M408.8,139.3l-3.9,0.2l-0.6,0.9l2.6,1.7l-0.5,0.8l-6.3-4.1l1.1-1.8c1-1.5,2.2-1.9,3.4-1.2
					c0.9,0.6,1.3,1.7,0.8,2.7l3.8-0.2L408.8,139.3z M401.8,137.5l-0.6,0.9l2.4,1.5l0.6-0.9c0.7-1,0.5-1.8-0.2-2.3
					S402.5,136.4,401.8,137.5"/>
				<path class="st2" d="M414.2,132.2l-7.3-0.8l4.6,4L411,136l-5.8-4.9l0.7-0.8l7.1,0.8l-4.5-3.8l0.6-0.7l5.8,4.9L414.2,132.2z"/>
				<path class="st2" d="M412.2,123.4l0.7-0.7l5.2,5.5l-0.7,0.7L412.2,123.4z"/>
				<path class="st2" d="M420.2,126.3l-2.3-7.9l0.9-0.7l7,4.2l-0.6,0.8l-2.2-1.3l-2.7,2.1l0.7,2.3L420.2,126.3z M420.1,122.5
					l2.1-1.7l-3.2-2L420.1,122.5z"/>
				<path class="st2" d="M431.5,118.4l-0.6-8.2l1-0.5l6,5.5l-0.8,0.6l-1.8-1.7l-3,1.5l0.2,2.4L431.5,118.4z M432.1,114.7l2.4-1.2
					l-2.8-2.6L432.1,114.7z"/>
				<path class="st2" d="M443.4,113.5c-2,0.7-3.8-0.4-4.6-2.6s0.1-4.2,2.1-4.9c0.7-0.3,1.5-0.3,2.3-0.1l0.2,1
					c-0.7-0.2-1.4-0.2-2.1,0c-1.5,0.5-2,2-1.4,3.7c0.6,1.7,1.9,2.6,3.4,2.1c0.7-0.3,1.4-0.8,1.8-1.4l0.4,0.8
					C444.9,112.9,444.2,113.4,443.4,113.5"/>
				<path class="st2" d="M447.5,112.1l1.5-8.1l1.1-0.2l4.4,6.8l-0.9,0.4l-1.3-2.1l-3.3,0.6l-0.4,2.3L447.5,112.1z M449.1,108.6
					l2.6-0.5l-2-3.2L449.1,108.6z"/>
				<path class="st2" d="M459.4,110.3l-2.1,0.1l-0.4-7.6l2.1-0.1c2.6-0.2,4.1,1.3,4.3,3.5S461.9,110.2,459.4,110.3 M459,103.6
					l-1.2,0.1l0.3,5.8l1.2-0.1c1.5,0.1,2.8-1,2.9-2.5c0-0.2,0-0.4,0-0.6c0-1.5-1.2-2.7-2.7-2.7C459.3,103.6,459.2,103.6,459,103.6"
					/>
				<path class="st2" d="M466.6,110.2l0.5-7.6l4.5,0.3l-0.1,0.9l-3.5-0.3l-0.2,2.3l2.9,0.2l0.1,0.9l-3-0.2l-0.2,2.6l3.6,0.3
					l-0.1,0.9L466.6,110.2z"/>
				<path class="st2" d="M481.6,112.5l0.9-6.3l-3.8,5.7l-0.9-0.2l-1-6.8L475,111l-0.9-0.2l2.2-7.3l1.3,0.3l1,6.8l3.8-5.7l1.3,0.3
					l-1,7.5L481.6,112.5z"/>
				<path class="st2" d="M489.4,111.9l-1.1,2.9l-0.9-0.3l1.1-2.9l-1-5.1l1,0.2l0.7,4.3l3.3-2.7l1,0.4L489.4,111.9z"/>
				<path class="st2" d="M500,120.9c-1.7-1.1-2.1-3.2-0.8-5.2s3.4-2.5,5.1-1.4c1.7,1.1,2.1,3.2,0.8,5.2S501.6,121.9,500,120.9
					 M503.9,115c-1.3-0.8-2.8-0.3-3.8,1.2s-0.8,3.1,0.5,4c1.3,0.9,2.8,0.3,3.8-1.2C505.4,117.5,505.1,115.9,503.9,115"/>
				<path class="st2" d="M510.6,120.2L509,122l2.1,1.8l-0.5,0.8l-2.2-1.9l-2.2,2.6l-0.8-0.7l4.9-5.8l3.3,2.9l-0.6,0.7L510.6,120.2z"
					/>
				<path class="st2" d="M515.3,134.3c-0.5-0.7-0.9-1.4-1.2-2.2l0.8-0.5c0.2,0.8,0.5,1.6,1,2.2c0.7,0.8,1.5,0.9,2.1,0.5
					c0.6-0.4,0.5-1,0.1-2.2c-0.6-1.6-0.7-2.4,0.2-3.1c1-0.7,2.4-0.6,3.1,0.4l0.1,0.1c0.5,0.5,0.8,1.2,1,1.9l-0.8,0.5
					c-0.1-0.7-0.4-1.3-0.8-1.8c-0.4-0.6-1.2-0.8-1.8-0.4c-0.5,0.4-0.4,0.9,0,2.1c0.6,1.7,0.6,2.5-0.3,3.2
					C517.8,135.8,516.4,135.5,515.3,134.3"/>
				<path class="st2" d="M520.5,141.4c-1.2-1.8-0.6-3.8,1.4-5.1c2-1.3,4.1-0.9,5.2,0.8c0.4,0.6,0.7,1.4,0.7,2.2l-0.9,0.4
					c0.1-0.7-0.1-1.5-0.5-2.1c-0.8-1.3-2.4-1.4-4-0.5c-1.6,0.9-2,2.5-1.2,3.8c0.4,0.6,1.1,1.1,1.8,1.4l-0.7,0.6
					C521.5,142.7,520.9,142.1,520.5,141.4"/>
				<path class="st2" d="M523.3,146.1l6.8-3.5l0.5,0.9l-6.7,3.5L523.3,146.1z"/>
				<path class="st2" d="M525.3,150.3l7-2.8l1.7,4.2l-0.8,0.3l-1.3-3.3l-2.2,0.9l1.1,2.7l-0.8,0.5l-1-2.8l-2.4,1l1.3,3.4l-0.8,0.3
					L525.3,150.3z"/>
				<path class="st2" d="M529.3,162.5l4.9-5.5l-5.9,1.5l-0.2-0.9l7.3-1.9l0.2,1L531,162l5.7-1.5l0.2,0.9l-7.4,1.9L529.3,162.5z"/>
				<path class="st2" d="M530.4,169.9c-0.2-2.1,1.2-3.7,3.5-4s4.1,1,4.3,3c0.1,0.8,0,1.5-0.3,2.2h-1c0.4-0.6,0.6-1.4,0.5-2.1
					c-0.2-1.6-1.5-2.4-3.3-2.2c-1.8,0.2-3,1.3-2.8,2.9c0.1,0.8,0.5,1.5,1,2l-0.9,0.2c-0.5-0.6-0.9-1.4-1-2.2"/>
				<path class="st2" d="M530.9,175.2h7.6v4.6h-0.9v-3.5h-2.3v2.9l-0.9,0.1v-3h-2.6v3.6h-0.9L530.9,175.2z"/>
				<path class="st2" d="M530.4,184.7c0.1-0.8,0.4-1.6,0.8-2.4l0.9,0.2c-0.5,0.7-0.8,1.5-0.9,2.3c-0.1,1,0.4,1.8,1.1,1.8
					s1-0.3,1.6-1.5c0.7-1.5,1.3-2.1,2.4-2c1.2,0.2,2,1.3,1.8,2.5v0.1c-0.1,0.7-0.3,1.4-0.7,2l-0.9-0.3c0.4-0.6,0.7-1.2,0.8-1.9
					c0.2-0.7-0.3-1.4-1-1.6c-0.6-0.1-1,0.3-1.5,1.5c-0.8,1.6-1.4,2.1-2.5,2C530.9,187.4,530.2,186.2,530.4,184.7"/>
			</g>
			<path class="st6" d="M443.3,188.4h-0.7c-8.1-0.2-15-3.8-18-8.7c-1,0.2-2.1,0.4-3.1,0.4h-0.3c-7.7-0.2-13.7-6.6-13.5-14.2
				c0.2-6.6,5-12.2,11.5-13.3c1.3-9.3,9.2-16.2,18.6-16.2h0.5c3.6,0.1,7.1,1.2,10.1,3.2c3.7-5.6,10.5-9.2,18.2-9.2h0.6
				c11.7,0.3,21,8.9,20.7,19.2c0,1.1-0.2,2.1-0.4,3.2c2.1,0.8,3.9,2,5.6,3.4c-2.5,1-4.7,2.8-6.2,5.1c-1.9-0.7-3.9-1.1-6-1.1
				c-7.7,0-14.1,5.3-14.6,11.9c-5.5,1.1-9.4,5.8-9.5,11.4c0,0.4,0,0.8,0.1,1.2C452.7,187.1,448,188.4,443.3,188.4"/>
			<path class="st7" d="M511.8,169.1l-0.6-0.2v-0.8v-0.4c0-6.2-5.6-11.2-12.4-11.2c-1.6,0-3.2,0.3-4.7,0.8c-2.7,1-4.9,2.8-6.4,5.3
				l-0.4,0.6l-0.6-0.3c-1.9-0.8-3.9-1.2-6-1.2c-7.1,0-13,5-13.1,11v0.6l-0.6,0.1c-5,0.7-8.7,5-8.9,10v0.1c0,5.6,5,10.1,11,10.1
				c2.1,0,4.2-0.6,6-1.6l0.7-0.4l0.4,0.7c2.4,4.2,7.3,6.8,12.7,6.8s10.5-2.7,12.9-7l0.4-0.6l0.6,0.3c1.6,0.7,3.4,1.1,5.1,1.1
				c6.8,0,12.3-5.4,12.4-12.2C520.3,175.3,516.9,170.6,511.8,169.1"/>
			<path class="st8" d="M463.9,226c-4,0-7.5-1.6-9.1-4c-4.1,0.4-7.8,0.4-9.5,0.4c-5.1,0-9.3-3.5-9.3-7.9c0-3.3,2.3-6.1,5.6-7.3
				c-0.1-0.5-0.2-1.1-0.2-1.6c0-5.2,4.8-9.5,10.8-9.5c3.8-0.1,7.4,1.8,9.5,4.9c4.4-2.8,10.3-1.6,13.2,2.9c0.8,1.2,1.3,2.7,1.5,4.1
				c3.9,0.6,6.5,4.1,6,8c-0.5,3.6-3.7,6.2-7.3,6c-0.6,0-1.2-0.1-1.7-0.2C471.7,224.2,468.1,226,463.9,226"/>
		</g>
	</g>
</g>
<g>
	<g>
		<defs>
			<rect id="SVGID_5_" x="195" y="93.8" width="171.3" height="169.1"/>
		</defs>
		<clipPath id="SVGID_6_">
			<use xlink:href="#SVGID_5_"  style="overflow:visible;"/>
		</clipPath>
		<g class="st9">
			<path class="st1" d="M365.8,178.4c0,46.5-38.1,84.1-85.2,84.1s-85.2-37.7-85.2-84.1s38.2-84.1,85.2-84.1S365.8,131.9,365.8,178.4
				"/>
			<path class="st2" d="M280.6,262.9c-47.2,0-85.6-37.9-85.6-84.6s38.4-84.6,85.6-84.6s85.6,37.9,85.6,84.6S327.9,262.9,280.6,262.9
				 M280.6,94.7c-46.8,0-84.8,37.5-84.8,83.7s38,83.7,84.8,83.7s84.8-37.6,84.8-83.7S327.4,94.7,280.6,94.7"/>
		</g>
	</g>
</g>
<g>
	<g>
		<defs>
			<rect id="SVGID_7_" x="193.3" y="93.8" width="174.6" height="169.8"/>
		</defs>
		<clipPath id="SVGID_8_">
			<use xlink:href="#SVGID_7_"  style="overflow:visible;"/>
		</clipPath>
		<g class="st10">
			<g>
				<path class="st2" d="M209.8,205.6c-0.4-1.1-0.6-2.2-0.6-3.3l2-0.4c0,1,0.1,2,0.4,3c0.3,0.8,0.7,1,1.1,0.9s0.5-0.5,0.4-1.4
					c-0.2-2.1-0.1-3.3,1.5-3.9s3,0.2,3.7,1.9c0.4,0.9,0.5,1.9,0.5,2.9l-1.9,0.4c0-0.9-0.1-1.7-0.4-2.6c-0.2-0.6-0.6-0.8-1-0.7
					s-0.5,0.5-0.4,1.4c0.2,2.2,0,3.2-1.4,3.8C212.1,208.3,210.5,207.5,209.8,205.6"/>
				<path class="st2" d="M214.8,215.8c-1.3-2.3-0.7-4.6,1.8-5.9c1.9-1.3,4.6-0.8,5.9,1.2c0.1,0.1,0.1,0.2,0.2,0.3
					c0.4,0.7,0.7,1.5,0.7,2.3l-2,0.8c0.1-0.6,0-1.3-0.3-1.8c-0.6-1-1.7-1.4-3.2-0.6s-1.7,2-1.1,3c0.3,0.6,0.8,1,1.4,1.4l-1.6,1.2
					C215.9,217.2,215.3,216.6,214.8,215.8"/>
				<path class="st2" d="M218.4,221.1l7.1-5.1l1.5,1.9l-7.1,5.1L218.4,221.1z"/>
				<path class="st2" d="M222.6,226.5l6.4-5.8l4,4.3l-1.4,1.3l-2.4-2.6l-1.1,1l1.8,1.9l-1.2,1.4l-2-2.1l-1.2,1.1l2.4,2.6l-1.4,1.3
					L222.6,226.5z"/>
				<path class="st2" d="M234.1,237.2l0.6-5.9l-3.2,3.9l-1.7-1.4l5.5-6.7l1.8,1.4l-0.6,5.6l3-3.6l1.7,1.4l-5.5,6.7L234.1,237.2z"/>
				<path class="st2" d="M242.9,243.2c-2.3-1.3-2.9-3.6-1.5-6c1-2.1,3.6-3,5.7-1.9c0.1,0.1,0.2,0.1,0.3,0.2c0.7,0.4,1.4,1,1.8,1.7
					l-1.3,1.7c-0.2-0.6-0.7-1.1-1.2-1.4c-1-0.6-2.2-0.4-3,1.1s-0.4,2.6,0.6,3.2c0.6,0.3,1.2,0.5,1.9,0.5l-0.8,1.9
					C244.5,243.9,243.6,243.7,242.9,243.2"/>
				<path class="st2" d="M248.8,246.1l3.3-8l5.5,2.2l-0.7,1.7l-3.3-1.3l-0.6,1.4l2.5,1l-0.4,1.8l-2.7-1.1l-0.6,1.5l3.4,1.4l-0.7,1.7
					L248.8,246.1z"/>
				<path class="st2" d="M263.4,251l4.4-8.1l3.1,0.5l1.5,8.7l-2.5,0.1l-0.3-1.9l-3.1-0.5l-0.8,1.6L263.4,251z M267.4,248.1l2,0.3
					l-0.5-3.5L267.4,248.1z"/>
				<path class="st2" d="M279.8,252.8c-2.6,0-4.3-1.7-4.3-4.5c-0.1-2.3,1.6-4.3,3.9-4.4h0.4c0.8,0,1.7,0.2,2.4,0.6l-0.3,2.1
					c-0.5-0.4-1.1-0.6-1.8-0.6c-1.2,0-2.1,0.8-2.1,2.4s0.9,2.4,2.1,2.5c0.7,0,1.3-0.2,1.9-0.5l0.2,2
					C281.5,252.6,280.7,252.8,279.8,252.8"/>
				<path class="st2" d="M289.8,245.4l0.8,6.5l-2.5,0.3l-0.8-6.5L285,246l-0.3-2.1l7.1-0.9l0.6,2L289.8,245.4z"/>
				<path class="st2" d="M296.8,250.8l-2.1-8.4l2.4-0.6l2.1,8.4L296.8,250.8z"/>
				<path class="st2" d="M307.1,247.8c-2.2,0.8-4.6-0.3-5.5-2.4c0-0.1-0.1-0.2-0.1-0.2c-1-2-0.2-4.5,1.9-5.5
					c0.1-0.1,0.3-0.1,0.4-0.2c2.2-0.8,4.6,0.3,5.5,2.4c0,0.1,0.1,0.2,0.1,0.2c1,2,0.2,4.5-1.9,5.5
					C307.3,247.7,307.2,247.7,307.1,247.8 M304.5,241.3c-1.1,0.4-1.2,1.6-0.7,3s1.5,2.1,2.5,1.8c1-0.3,1.2-1.6,0.7-3
					S305.5,240.9,304.5,241.3"/>
				<path class="st2" d="M319.6,241.5l-5.4-2.7l2.6,4.3l-1.9,1.1l-4.5-7.4l2-1.2l5,2.5l-2.4-4l1.9-1.1l4.5,7.4L319.6,241.5z"/>
				<path class="st2" d="M332.6,231.6c-1.9,1.8-4.3,1.8-6.3-0.2c-1.7-1.5-1.9-4.1-0.4-5.8c0.1-0.1,0.3-0.3,0.4-0.4
					c0.6-0.6,1.3-1,2.1-1.2l1.3,1.7c-0.6,0.1-1.2,0.3-1.7,0.8c-0.9,0.8-1,2,0.2,3.2c1.2,1.2,2.4,1.1,3.2,0.3c0.5-0.5,0.8-1,1-1.7
					l1.6,1.2C333.7,230.3,333.2,231,332.6,231.6"/>
				<path class="st2" d="M337,226.8l-6.8-5.4l1.6-2l5.2,4.1l1.8-2.1l1.8,1.1L337,226.8z"/>
				<path class="st2" d="M344.9,216.1c-1.2,2-2.9,2.5-5,1.4l-4.6-2.7l1.2-2.1l4.6,2.7c0.8,0.5,1.5,0.5,2-0.3
					c0.5-0.8,0.1-1.4-0.7-1.9l-4.6-2.7l1.2-2.1l4.6,2.6C345.7,212.3,346,214.1,344.9,216.1"/>
				<path class="st2" d="M349.9,205.6l-1.2,3.1l-8.1-3.2l1.3-3.2c0.7-1.8,1.8-2.7,3.3-2.1c0.8,0.3,1.3,1,1.3,1.8
					c0.6-0.8,1.6-1.1,2.5-0.7C350.6,201.9,350.7,203.5,349.9,205.6 M343.2,203.1l-0.4,0.9l1.8,0.7l0.3-0.9c0.3-0.7,0.1-1.2-0.5-1.5
					C343.8,202,343.5,202.4,343.2,203.1 M346.3,204.3l-0.4,0.9l1.9,0.8l0.4-0.9c0.3-0.7,0.2-1.3-0.5-1.6
					C347,203.2,346.7,203.4,346.3,204.3"/>
				<path class="st2" d="M212.8,184.3c0.2,2.1-1.2,3.7-3.5,4c-2.3,0.3-4.1-1-4.4-3c-0.1-0.8,0-1.5,0.4-2.2h1
					c-0.4,0.6-0.6,1.3-0.5,2.1c0.2,1.5,1.6,2.4,3.4,2.1c1.8-0.3,3-1.3,2.8-2.9c-0.1-0.8-0.5-1.5-1-2l0.9-0.2
					C212.4,182.8,212.8,183.6,212.8,184.3"/>
				<path class="st2" d="M212.3,179.9l-7.7-3.1v-1.1l7.7-2.9l0.2,1l-2.4,0.9v3.4l2.2,0.9V179.9z M209.2,177.6v-2.7l-3.6,1.3
					L209.2,177.6z"/>
				<path class="st2" d="M212.7,170l-7.6-1l0.1-1l6.7,0.9l0.4-2.9h0.9L212.7,170z"/>
				<path class="st2" d="M213.8,163l-7.5-1.6l0.2-1l7.5,1.6L213.8,163z"/>
				<path class="st2" d="M208.8,155.5l2.3,0.7l0.8-2.6l0.9,0.1l-0.9,2.8l3.3,1l-0.3,1l-7.3-2.3l1.4-4.2l0.9,0.3L208.8,155.5z"/>
				<path class="st2" d="M218.8,148.9c-0.9,1.8-2.9,2.5-5.1,1.5s-2.9-3.1-2.1-4.8s2.9-2.5,5.1-1.5S219.6,147.2,218.8,148.9
					 M212.4,145.9c-0.7,1.4,0.1,2.8,1.7,3.6c1.6,0.8,3.2,0.4,3.9-1c0.7-1.4-0.1-2.8-1.7-3.6S213,144.5,212.4,145.9"/>
				<path class="st2" d="M224.2,139.4l-3.9,0.2l-0.6,0.9l2.6,1.7l-0.6,0.8l-6.4-4.1l1.2-1.8c1-1.5,2.3-1.9,3.4-1.2
					c0.9,0.5,1.3,1.7,0.9,2.7l3.9-0.2L224.2,139.4z M217.2,137.6l-0.6,0.9l2.4,1.5l0.6-0.9c0.7-1,0.5-1.8-0.2-2.3
					S217.9,136.6,217.2,137.6"/>
				<path class="st2" d="M229.8,132.3l-7.4-0.8l4.7,4l-0.6,0.7l-5.8-4.9l0.7-0.8l7.1,0.8l-4.5-3.8l0.6-0.7l5.8,4.9L229.8,132.3z"/>
				<path class="st2" d="M233,129.1l-5.3-5.5l0.7-0.7l5.3,5.5L233,129.1z"/>
				<path class="st2" d="M235.8,126.4l-2.3-7.9l0.9-0.7l7.1,4.2l-0.6,0.8l-2.1-1.3l-2.7,2.1l0.7,2.3L235.8,126.4z M235.7,122.6
					l2.1-1.6l-3.3-2L235.7,122.6z"/>
				<path class="st2" d="M247.2,118.6l-0.6-8.2l1-0.5l6,5.5l-0.8,0.6l-1.8-1.7l-3.1,1.5l0.2,2.4L247.2,118.6z M247.8,114.9l2.5-1.2
					l-2.8-2.6L247.8,114.9z"/>
				<path class="st2" d="M259.2,113.8c-2,0.7-3.9-0.4-4.6-2.6s0.1-4.2,2.1-4.8c0.7-0.3,1.5-0.3,2.3-0.1l0.2,1
					c-0.7-0.2-1.5-0.2-2.1,0c-1.5,0.5-2,2-1.5,3.7c0.5,1.7,1.9,2.6,3.4,2.1c0.7-0.3,1.4-0.7,1.8-1.4l0.4,0.8
					C260.7,113.1,260,113.6,259.2,113.8"/>
				<path class="st2" d="M263.4,112.3l1.5-8.1l1.1-0.2l4.5,6.8l-0.9,0.4l-1.3-2.1l-3.4,0.6l-0.4,2.3L263.4,112.3z M265,108.9
					l2.7-0.5l-2-3.2L265,108.9z"/>
				<path class="st2" d="M275.3,110.5l-2.1,0.1l-0.4-7.6l2.2-0.1c2.6-0.2,4.2,1.3,4.3,3.5C279.4,108.6,277.9,110.4,275.3,110.5
					 M275,103.9l-1.2,0.1l0.3,5.8l1.2-0.1c1.5,0.1,2.8-1,2.9-2.5c0-0.2,0-0.4,0-0.6c0-1.5-1.2-2.7-2.7-2.8
					C275.3,103.8,275.2,103.8,275,103.9"/>
				<path class="st2" d="M282.6,110.4l0.5-7.5l4.6,0.3l-0.1,0.9l-3.6-0.2l-0.2,2.3l2.9,0.2l0.1,0.9l-3-0.2l-0.2,2.6l3.7,0.2
					l-0.1,0.9L282.6,110.4z"/>
				<path class="st2" d="M297.8,112.7l0.9-6.3l-3.8,5.7l-0.9-0.2l-1.1-6.8l-1.9,6.1l-0.9-0.2l2.2-7.3l1.3,0.3l1,6.8l3.8-5.7l1.3,0.3
					l-1,7.5L297.8,112.7z"/>
				<path class="st2" d="M305.7,112.1l-1.1,2.9l-0.9-0.3l1.1-2.8l-1-5.1l1,0.2l0.7,4.3l3.3-2.6l1,0.4L305.7,112.1z"/>
				<path class="st2" d="M316.4,121.1c-1.7-1.1-2.1-3.2-0.9-5.2c0.9-1.8,3.2-2.5,4.9-1.5c0.1,0,0.1,0.1,0.2,0.1
					c1.7,1.1,2.1,3.2,0.8,5.2c-0.9,1.8-3.2,2.5-4.9,1.5C316.5,121.1,316.4,121.1,316.4,121.1 M320.2,115.2c-1.3-0.8-2.8-0.3-3.8,1.2
					s-0.8,3.1,0.5,4s2.8,0.3,3.8-1.2S321.5,116.1,320.2,115.2"/>
				<path class="st2" d="M327.1,120.3l-1.6,1.8l2.1,1.8l-0.5,0.8l-2.2-1.9l-2.2,2.6l-0.8-0.7l5-5.7l3.4,2.8l-0.6,0.7L327.1,120.3z"
					/>
				<path class="st2" d="M331.9,134.5c-0.5-0.7-0.9-1.4-1.2-2.2l0.8-0.5c0.2,0.8,0.5,1.6,1,2.2c0.7,0.8,1.5,0.9,2.1,0.5
					c0.6-0.4,0.5-1,0.1-2.2c-0.6-1.6-0.7-2.4,0.2-3.1c1-0.7,2.4-0.5,3.1,0.5c0.5,0.5,0.8,1.2,1,1.9l-0.8,0.5
					c-0.1-0.7-0.4-1.3-0.9-1.8c-0.4-0.6-1.2-0.8-1.8-0.4c-0.5,0.4-0.5,0.9,0,2.1c0.6,1.7,0.6,2.5-0.3,3.2c-1,0.8-2.4,0.6-3.5-0.6"/>
				<path class="st2" d="M337,141.6c-1.2-1.8-0.6-3.8,1.4-5.1c2-1.3,4.1-0.9,5.3,0.8c0.4,0.6,0.7,1.4,0.7,2.2l-0.9,0.4
					c0.1-0.7-0.1-1.5-0.5-2.1c-0.9-1.3-2.5-1.4-4-0.5c-1.5,0.9-2.1,2.5-1.2,3.8c0.4,0.6,1.1,1.1,1.8,1.4l-0.7,0.6
					C338.1,142.8,337.5,142.2,337,141.6"/>
				<path class="st2" d="M339.9,146.2l6.8-3.5l0.5,0.9l-6.8,3.5L339.9,146.2z"/>
				<path class="st2" d="M342,150.4l7.1-2.8l1.7,4.2l-0.8,0.3l-1.3-3.3l-2.2,0.8l1.1,2.7l-0.8,0.5l-1.2-2.8l-2.5,1l1.4,3.4l-0.8,0.3
					L342,150.4z"/>
				<path class="st2" d="M346,162.5l4.9-5.5l-6,1.5l-0.2-0.9l7.4-1.9l0.2,1l-4.8,5.3l5.8-1.5l0.2,0.9l-7.4,1.9L346,162.5z"/>
				<path class="st2" d="M347.1,169.9c-0.2-2.1,1.2-3.7,3.5-4s4.1,1,4.4,3c0.1,0.8,0,1.5-0.4,2.2h-1c0.4-0.6,0.6-1.3,0.5-2.1
					c-0.2-1.5-1.6-2.4-3.4-2.2c-1.8,0.2-3,1.3-2.8,2.9c0.1,0.8,0.5,1.5,1,2l-0.9,0.2c-0.5-0.6-0.9-1.4-1-2.2"/>
				<path class="st2" d="M347.6,175.2h7.7v4.5h-0.9v-3.5H352v2.8l-0.9,0.2v-3h-2.6v3.6h-0.9V175.2z"/>
				<path class="st2" d="M347.1,184.6c0.1-0.8,0.4-1.6,0.8-2.4l0.9,0.2c-0.5,0.7-0.8,1.5-0.9,2.3c-0.1,1,0.4,1.7,1.1,1.8
					s1.1-0.3,1.6-1.5c0.7-1.5,1.3-2.1,2.4-2c1.2,0.2,2,1.3,1.9,2.5v0.2c-0.1,0.7-0.3,1.4-0.7,2l-0.9-0.3c0.4-0.6,0.7-1.2,0.8-1.9
					c0.2-0.7-0.3-1.4-1-1.6c-0.6-0.1-1,0.3-1.5,1.5c-0.8,1.6-1.4,2.1-2.5,2C347.6,187.4,346.8,186.2,347.1,184.6"/>
			</g>
			<path class="st11" d="M283.9,196.5c-0.7,1.2-2.1,2.8,0.2,3.4c0.8,0.2,1.6,0.2,2.4,0.4c0.6,0.2,2.2,1.6,1,2.1
				c-0.5,0.2-2.9-1.2-3.5-1.4c-1-0.5-2.2-0.8-3.3-0.8c-1,0.1-1.9,0.6-2.8,0.8c-0.6,0.1-7.5,1.6-7.5,1.4c-0.1-0.6,0.6-1.1,1.2-1.4
				c0.9-0.4,1.9-0.6,2.9-0.6c1.1,0,2.1-0.2,3.1-0.4c0.5-0.2,1-0.5,1.5-0.7c0.6-0.1,1.2-0.3,1.8-0.6c0.5-0.4,0.8-0.9,1.1-1.5
				c0.6-1.1,1.2-2.2,1.9-3.2s1.4-1.9,1.2-3.1c-0.2-0.8-0.6-1.5-1.2-2.1c-1.2-1.4-3.2-3.1-4-4.7c-0.4-1,0-2.1,1-2.5
				c0.3-0.1,0.7-0.2,1-0.1c1.4,0.1,2.4,1.9,2.8,3c0.5,1.4,0.3,2.6,1.5,3.9c0.5,0.5,1.1,1.1,1,1.8c0,0.3-0.1,0.5-0.3,0.7
				C285.9,192.8,284.9,194.7,283.9,196.5"/>
			<g>
				<path class="st12" d="M323.4,209l-19-27.4c-1.4,0.1-2.7,0.3-4.1,0.5l19.7,34.3C324.7,218.9,325.8,215,323.4,209"/>
				<path class="st12" d="M322.7,215.9L302,181.8c-1.1,0.1-2.2,0.3-3.3,0.5l18.9,37.9C322.6,224.4,324.6,221.7,322.7,215.9"/>
				<path class="st12" d="M299.3,182.2c-1.3,0.2-2.5,0.5-3.8,0.8l15.7,35c5.2,5.7,8.2,5,7-0.5L299.3,182.2z"/>
				<path class="st12" d="M287.4,161.2c-3.4-3.2-6.5-6.1-10.9-8.3c-2.1-0.9-4.1-1.9-6.1-3c-4-2.9,0.2-5.8,0-12
					c-0.1-2.3-1.5-5.1-1.7-7.2c-0.2-1.8,0-9.5,2.5-11.6c-6.9-1.3-12,5.7-18.2,8.9c-5.4,2.8-10.5,6.4-9.3,13.1c0.5,2.3,1.6,4.4,3.4,6
					c1.5,1.4,3.7,4,3.4,6.4c-0.3,0.9-0.6,1.7-1,2.5c-4.3,14.8,3.6,27.1,29.6,30.3c15.4,1.9,17.9-5.9,21.4,6.9c-0.3-1,2.1-6,2.6-7
					c0.1-0.2,5.4,1.4,5.4,1.4S298.4,171.7,287.4,161.2"/>
			</g>
			<path class="st11" d="M275.3,198c-1,1.1-2.7,2.3-0.6,3.4c0.7,0.4,1.5,0.5,2.2,0.9c0.5,0.3,1.8,2,0.5,2.2
				c-0.6,0.1-2.6-1.8-3.1-2.1c-0.9-0.7-1.9-1.2-3.1-1.4c-1-0.1-3.1,1.1-4.1,1.1c-0.6,0-7.1,0.2-7.1,0c0-0.7,0.9-0.9,1.5-1.1
				c1-0.2,2-0.2,3,0c1.1,0,2.3-0.1,3.4-0.3c0.6,0,1.4-0.9,2-1c0.7,0,1.3-0.1,1.9-0.3c0.6-0.3,1-0.7,1.5-1.2c0.8-1,1.7-1.9,2.6-2.7
				s1.8-1.5,1.9-2.8c0-0.8-0.3-1.6-0.7-2.2c-0.9-1.6-2.4-3.6-2.8-5.4c-0.2-1.1,0.6-2.1,1.7-2.3c0.3,0,0.6,0,0.9,0.1
				c1.3,0.4,1.9,2.4,2,3.5c0.2,1.5-0.3,2.6,0.5,4.1c0.4,0.6,0.8,1.3,0.6,2c-0.1,0.2-0.2,0.5-0.4,0.6
				C278.1,194.7,276.8,196.5,275.3,198"/>
			<path class="st2" d="M251.9,145.3c1.2-2.4,1.7-5.9,2.2-7.2c0.3-0.7,0.3-1.5,0-2.1c-0.4-0.5-1-0.7-1.7-0.8c-2.3-0.4-6.8-2.6-7.9,0
				c-0.8,1.8-1.2,3.9-1,5.9c0.4,2.2,2.3,5.9,4.8,6.6C249.9,148.1,251.1,147,251.9,145.3"/>
			<path class="st12" d="M286.1,156.3c-9.6-6.1-21.4-12.7-27.3,2.9c-1.4,3.9-0.8,8.2,1.7,11.6c2.3,3,5.7,3.4,9.3,4.9
				c7.6,3.3,14.5,4.7,22.7,6.2c4.2,0.8,4.1-0.4,8-0.1c1.8,0.1,3.6,0,5.4-0.1c0.1,0,4-0.6,3.6-1C308,178.3,298.4,164.1,286.1,156.3"
				/>
			<path class="st11" d="M246.4,146.1c0-1.7-0.2-3.4-0.5-5h-0.1c-0.3-1.5-0.8-2.9-1.5-4.1c0,0-6.5,3.6-9,7.1
				C235.2,144,238.4,145.3,246.4,146.1"/>
			<path class="st11" d="M252.9,138.2c-0.2,1-1.2,1.7-2.3,1.6c-1-0.1-1.8-1.1-1.7-2.1c0.2-1.1,1.2-1.8,2.3-1.7
				C252.3,136.1,253,137.1,252.9,138.2"/>
			<path class="st11" d="M250.5,137.4c-0.1,0.3-0.3,0.4-0.6,0.4s-0.4-0.3-0.4-0.5c0.1-0.3,0.3-0.4,0.6-0.4S250.5,137.1,250.5,137.4z
				"/>
		</g>
	</g>
</g>
</svg>
