<?xml version="1.0" encoding="utf-8"?>
<!-- Generator: Adobe Illustrator 23.1.1, SVG Export Plug-In . SVG Version: 6.00 Build 0)  -->
<svg version="1.1" id="Layer_1" xmlns="http://www.w3.org/2000/svg" xmlns:xlink="http://www.w3.org/1999/xlink" x="0px" y="0px"
	 viewBox="0 0 2101.2 900.5" style="enable-background:new 0 0 2101.2 900.5;" xml:space="preserve">
<style type="text/css">
	.st0{fill:#231F20;}
	.st1{fill:#E32455;}
	.st2{fill:#010101;}
	.st3{fill:#3D8FCD;}
	.st4{fill:none;stroke:#010101;stroke-width:9;stroke-linecap:round;stroke-miterlimit:10;}
</style>
<path class="st0" d="M210.8,548.6v-45.7h26.6v7.4h-17.9v10.9h13.8l1.2,7.4h-15v12.7H238v7.4L210.8,548.6z"/>
<path class="st0" d="M263.7,548.6v-21c0-2.8-1.2-4.7-4.1-4.7c-2.5,0-5,1.6-7.3,4v21.6h-8v-32h6.8l0.7,4.5c3-2.8,6.4-5.2,10.7-5.2
	c6,0,9.1,3.7,9.1,9.6v23.1L263.7,548.6z"/>
<path class="st0" d="M300.5,548.6l-0.7-4.4c-2.2,2.7-5.4,5.1-9.8,5.1c-6.7,0-12.1-5-12.1-15.8c0-11.9,6.6-17.2,14-17.2
	c2.5,0,5,0.4,7.4,1.2V502l8-1.3v47.9L300.5,548.6z M299.4,524c-1.9-1-4.1-1.5-6.2-1.4c-4.2,0-7.2,3.4-7.2,10.4
	c0,6.2,2.6,9.2,6.2,9.2c2.9,0,5.2-1.7,7.3-4.4L299.4,524z"/>
<path class="st0" d="M335.9,548.6l-0.7-4.5c-3,2.8-6.4,5.2-10.7,5.2c-6,0-9.1-3.7-9.1-9.7v-23h8v21c0,2.8,1.2,4.6,4,4.6
	c2.5,0,5-1.6,7.4-4v-21.6h8v32L335.9,548.6z"/>
<path class="st0" d="M358.7,530.2v18.4h-8v-32h6.8l1,6.4c2.1-3.7,5.3-6.8,10.3-7.1l1.3,7.9C365.4,524.1,361.3,526.4,358.7,530.2
	L358.7,530.2z"/>
<path class="st0" d="M379.4,511.2c-2.5,0.1-4.6-1.8-4.8-4.3c0-0.1,0-0.2,0-0.2c0-2.6,2.1-4.7,4.7-4.7c2.6,0,4.7,2.1,4.7,4.7
	c0,2.5-2,4.5-4.5,4.5C379.6,511.2,379.5,511.2,379.4,511.2L379.4,511.2z M375.4,548.6v-32h8v32H375.4z"/>
<path class="st0" d="M411.1,548.6v-21c0-2.8-1.2-4.7-4.1-4.7c-2.5,0-5,1.6-7.3,4v21.6h-8v-32h6.8l0.7,4.5c3-2.8,6.4-5.2,10.7-5.2
	c6,0,9.1,3.7,9.1,9.6v23.1L411.1,548.6z"/>
<path class="st0" d="M438.9,560.7c-8.7,0-15.2-2.7-15.2-8c0-3,2-5.3,6-7.5c-1.1-0.8-1.8-2.1-1.9-3.5c0-1.8,1.4-3.5,4-5
	c-3.7-1.6-6.1-5.4-6-9.4c0-7,5.7-11.3,12.9-11.3c3.3-0.1,6.5,1,9.1,3l7.8-2.8l1.1,6.4l-5.8,0.4c0.6,1.3,0.9,2.7,0.9,4.2
	c0,6.9-5.9,11-12.8,11c-0.9,0-1.8,0-2.6-0.1c-0.8,0.5-1.3,1.1-1.3,1.7c0,1.1,1,1.3,6,2l4.1,0.4c6.6,0.9,10.7,3,10.7,7.9
	C455.7,556.8,448.2,560.7,438.9,560.7L438.9,560.7z M433.9,547.1c-2.3,1.6-3.4,3.1-3.4,4.8c0,2.4,2.9,4.1,8.9,4.1c5.7,0,9-1.9,9-4.3
	c0-1.7-1.4-2.7-5.4-3.3l-4.3-0.5C437.1,547.6,435.5,547.4,433.9,547.1L433.9,547.1z M438.7,521.1c-3.5,0-5.6,2.7-5.6,6.2
	c0,3.3,2.1,5.8,5.6,5.8s5.6-2.6,5.6-6S442.1,521,438.7,521.1L438.7,521.1z"/>
<path class="st0" d="M125,634.5l-10.1-14.3h-3.4v14H107v-33.2h9c6.8,0,11,3.4,11,9.4c0,5-2.9,8-7.2,9.2l9.8,13.9L125,634.5z
	 M115.8,605h-4.3v11.4h3.8c4.4,0,7.2-2,7.2-5.7S120.2,605,115.8,605z"/>
<path class="st0" d="M142.1,634.7c-6.1,0-10.5-4.4-10.5-11.9s4.4-12,10.5-12s10.7,4.4,10.7,12S148.2,634.7,142.1,634.7z
	 M142.1,614.4c-4.1,0-6.2,3.5-6.2,8.3s2.2,8.3,6.2,8.3c4.2,0,6.3-3.5,6.3-8.3S146.2,614.4,142.1,614.4z"/>
<path class="st0" d="M167.4,634.3h-4.1l-8.1-22.7l4.3-0.7l6,18.1l5.8-17.8h4.4L167.4,634.3z"/>
<path class="st0" d="M188.6,634.7c-6,0-10.6-3.6-10.6-12c0-7.3,4.3-11.9,10.1-11.9c6.7,0,9.7,5.1,9.7,11.5v0.9h-15.6
	c0.1,5.3,2.7,7.8,6.7,7.8c3.3,0,5.7-1.3,8.2-3.3l0.6,3.8C195.1,633.7,191.9,634.7,188.6,634.7z M182.4,620h11
	c-0.5-3.7-2.2-5.8-5.5-5.8C185.3,614.2,183.1,616.1,182.4,620z"/>
<path class="st0" d="M207.5,620.7v13.5h-4.3v-22.9h3.4l0.7,4.7c1.6-2.9,4.6-4.9,8-5.1l0.7,4.1C212.3,615.2,209.1,617.4,207.5,620.7
	L207.5,620.7z"/>
<path class="st0" d="M237.9,634.7c-2.9-0.1-5.8-0.8-8.4-2.2l0.6-4c2.4,1.7,5.2,2.6,8.1,2.6c2.9,0,4.7-1.1,4.7-3
	c0-2.1-1.3-2.9-5.4-3.9c-5.4-1.3-7.5-3-7.5-7.1c0-3.7,3.1-6.3,8.1-6.3c2.6,0,5.2,0.5,7.5,1.5l-0.7,4c-2.1-1.2-4.5-1.9-7-2
	c-2.6,0-3.9,1-3.9,2.6s1.1,2.4,4.8,3.3c5.7,1.4,8.2,3.1,8.2,7.4C246.9,632,243.8,634.7,237.9,634.7z"/>
<path class="st0" d="M259.9,634.6c-4,0-6.7-1.4-6.7-6v-13.7h-3.5v-3.6h3.5v-7.6l4.2-0.6v8.3h4.9l0.6,3.6h-5.5v12.9
	c0,1.9,0.8,3,3.2,3c0.7,0,1.3,0,2-0.1l0.6,3.7C262.1,634.5,261,634.6,259.9,634.6z"/>
<path class="st0" d="M282.2,634.2l-0.5-3.1c-2.1,2.3-5,3.6-8.1,3.5c-4.1,0-6.7-2.5-6.7-6.4c0-5.7,4.9-8,14.5-9v-1
	c0-2.9-1.7-3.9-4.4-3.9c-2.8,0.1-5.4,0.8-7.9,2l-0.6-3.7c2.8-1.2,5.8-1.9,8.9-1.9c5.6,0,8.3,2.3,8.3,7.3v16L282.2,634.2z
	 M281.4,622.6c-8.5,0.8-10.2,3.1-10.2,5.5c0,1.9,1.2,3.1,3.4,3.1c2.6-0.1,5.1-1.3,6.8-3.2V622.6z"/>
<path class="st0" d="M301.3,636.2c-2,5.3-4.4,6.7-8.2,6.7c-0.5,0-1-0.1-1.5-0.2l-0.6-3.7c0.8,0.2,1.6,0.3,2.4,0.3
	c1.7,0.1,3.2-1,3.6-2.7l0.9-2.3l-8.4-22.7l4.2-0.7l6.2,18.2l6.1-17.9h4.4L301.3,636.2z"/>
<path class="st0" d="M321.5,634.7c-2.9-0.1-5.8-0.8-8.4-2.2l0.6-4c2.4,1.7,5.2,2.6,8.1,2.6c2.9,0,4.7-1.1,4.7-3
	c0-2.1-1.3-2.9-5.4-3.9c-5.4-1.3-7.5-3-7.5-7.1c0-3.7,3.1-6.3,8.1-6.3c2.6,0,5.2,0.5,7.5,1.5l-0.7,4c-2.1-1.2-4.5-1.9-7-2
	c-2.6,0-3.9,1-3.9,2.6s1.1,2.4,4.8,3.3c5.7,1.4,8.2,3.1,8.2,7.4C330.6,632,327.4,634.7,321.5,634.7L321.5,634.7z"/>
<path class="st0" d="M368.9,634.2h-3.4l-5.3-17.3l-5.2,17.3h-3.3l-7.4-22.6l4.1-0.7l5,17l5.1-16.6h3.6l5.1,16.6l4.9-16.6h4.2
	L368.9,634.2z"/>
<path class="st0" d="M383.5,606.7c-1.5,0-2.7-1.2-2.7-2.7c0-1.5,1.2-2.7,2.7-2.7c1.5,0,2.7,1.2,2.7,2.8
	C386.2,605.5,385,606.7,383.5,606.7C383.5,606.7,383.5,606.7,383.5,606.7z M381.4,634.2v-22.9h4.3v22.9H381.4z"/>
<path class="st0" d="M400.5,634.6c-4,0-6.7-1.4-6.7-6v-13.7h-3.5v-3.6h3.5v-7.6l4.2-0.7v8.3h4.9l0.6,3.6H398v12.9c0,1.9,0.8,3,3.2,3
	c0.7,0,1.3,0,2-0.1l0.6,3.7C402.7,634.5,401.6,634.6,400.5,634.6L400.5,634.6z"/>
<path class="st0" d="M423.3,634.2v-15.6c0-2.3-1-3.9-3.5-3.9c-2.3,0-4.6,1.5-6.6,3.7v15.8h-4.3v-34l4.3-0.7v14.8
	c1.9-1.7,4.5-3.5,7.8-3.5c4.3,0,6.6,2.6,6.6,6.7v16.7H423.3z"/>
<path class="st0" d="M459.9,634.2l-0.5-3.3c-2.2,2-4.9,3.8-8.1,3.8c-4.4,0-6.6-2.6-6.6-6.7v-16.7h4.3v15.6c0,2.3,1,3.9,3.5,3.9
	c2.3,0,4.6-1.5,6.6-3.7v-15.8h4.3v22.9H459.9z"/>
<path class="st0" d="M477,634.7c-2.9-0.1-5.8-0.8-8.4-2.2l0.6-4c2.4,1.7,5.2,2.6,8.1,2.6c2.9,0,4.7-1.1,4.7-3c0-2.1-1.3-2.9-5.4-3.9
	c-5.4-1.3-7.5-3-7.5-7.1c0-3.7,3.1-6.3,8.1-6.3c2.6,0,5.2,0.5,7.5,1.5l-0.7,4c-2.1-1.2-4.5-1.9-7-2c-2.6,0-3.9,1-3.9,2.6
	s1.1,2.4,4.8,3.3c5.7,1.4,8.2,3.1,8.2,7.4C486,632,482.9,634.7,477,634.7L477,634.7z"/>
<path class="st0" d="M500.5,634.7c-6,0-10.6-3.6-10.6-12c0-7.3,4.3-11.9,10.1-11.9c6.7,0,9.7,5.1,9.7,11.5v0.9h-15.5
	c0.1,5.3,2.7,7.8,6.7,7.8c3.3,0,5.7-1.3,8.2-3.3l0.6,3.8C507.1,633.7,503.9,634.7,500.5,634.7z M494.4,620h11
	c-0.5-3.7-2.2-5.8-5.5-5.8C497.3,614.2,495.1,616.1,494.4,620z"/>
<path class="st0" d="M519.5,620.7v13.5h-4.3v-22.9h3.4l0.7,4.7c1.6-2.9,4.6-4.9,8-5.1l0.7,4.1C524.3,615.2,521.1,617.4,519.5,620.7
	L519.5,620.7z"/>
<path class="st0" d="M538.9,634.7c-2.9-0.1-5.8-0.8-8.3-2.2l0.6-4c2.4,1.7,5.2,2.6,8.1,2.6c2.9,0,4.7-1.1,4.7-3
	c0-2.1-1.3-2.9-5.4-3.9c-5.4-1.3-7.5-3-7.5-7.1c0-3.7,3.1-6.3,8.1-6.3c2.6,0,5.2,0.5,7.5,1.5l-0.7,4c-2.1-1.2-4.5-1.9-7-2
	c-2.6,0-3.9,1-3.9,2.6s1.2,2.4,4.8,3.3c5.7,1.4,8.2,3.1,8.2,7.4C547.9,632,544.8,634.7,538.9,634.7L538.9,634.7z"/>
<path class="st0" d="M63.3,701.2l-0.5-3.1c-2.1,2.3-5,3.6-8.1,3.5c-4.1,0-6.7-2.5-6.7-6.4c0-5.7,4.9-8,14.5-9v-1
	c0-2.9-1.7-3.9-4.4-3.9c-2.8,0.1-5.4,0.8-7.9,2l-0.6-3.7c2.8-1.2,5.8-1.9,8.9-1.9c5.6,0,8.3,2.3,8.3,7.3v16L63.3,701.2z M62.5,689.6
	c-8.5,0.8-10.2,3.1-10.2,5.5c0,1.9,1.2,3.1,3.4,3.1c2.6-0.1,5.1-1.3,6.8-3.2V689.6z"/>
<path class="st0" d="M83,701.7c-6.1,0-10.7-4.3-10.7-11.9c0-7.8,4.8-12,10.8-12c2.7-0.1,5.3,0.6,7.5,2.1L90,684
	c-1.9-1.7-4.4-2.6-7-2.5c-3.7,0-6.4,2.8-6.4,8.2c0,5.6,2.8,8.2,6.9,8.2c2.5,0.1,4.9-0.8,6.7-2.5l0.6,3.8
	C88.5,700.9,85.8,701.8,83,701.7L83,701.7z"/>
<path class="st0" d="M100.4,687.7v13.5h-4.3v-22.9h3.4l0.7,4.7c1.6-2.9,4.6-4.9,8-5.1l0.7,4.1C105.3,682.2,102,684.4,100.4,687.7
	L100.4,687.7z"/>
<path class="st0" d="M121.7,701.7c-6.1,0-10.5-4.4-10.5-11.9s4.4-12,10.5-12s10.7,4.4,10.7,12S127.8,701.7,121.7,701.7z
	 M121.7,681.4c-4.1,0-6.2,3.5-6.2,8.3s2.2,8.3,6.2,8.3c4.2,0,6.3-3.5,6.3-8.3S125.8,681.4,121.7,681.4z"/>
<path class="st0" d="M144.7,701.7c-2.9-0.1-5.8-0.8-8.4-2.2l0.6-4c2.4,1.7,5.2,2.6,8.1,2.6c2.9,0,4.7-1.1,4.7-3
	c0-2.1-1.3-2.9-5.4-3.9c-5.4-1.3-7.5-3-7.5-7.1c0-3.7,3.1-6.3,8.1-6.3c2.6,0,5.2,0.5,7.5,1.5l-0.7,4c-2.1-1.2-4.5-1.9-7-2
	c-2.6,0-3.9,1-3.9,2.6s1.1,2.4,4.8,3.3c5.7,1.4,8.2,3.1,8.2,7.4C153.7,699,150.6,701.7,144.7,701.7z"/>
<path class="st0" d="M165.7,701.7c-2.9-0.1-5.8-0.8-8.4-2.2l0.6-4c2.4,1.7,5.2,2.6,8.1,2.6c2.9,0,4.7-1.1,4.7-3
	c0-2.1-1.3-2.9-5.4-3.9c-5.4-1.3-7.5-3-7.5-7.1c0-3.7,3.1-6.3,8.1-6.3c2.6,0,5.2,0.5,7.5,1.5l-0.7,4c-2.1-1.2-4.5-1.9-7-2
	c-2.6,0-3.9,1-3.9,2.6s1.1,2.4,4.8,3.3c5.7,1.4,8.2,3.1,8.2,7.4C174.8,699,171.6,701.7,165.7,701.7z"/>
<path class="st0" d="M194.8,687.7v13.5h-4.3v-22.9h3.4l0.7,4.7c1.6-2.9,4.6-4.9,8-5.1l0.7,4.1C199.7,682.2,196.4,684.4,194.8,687.7
	L194.8,687.7z"/>
<path class="st0" d="M210.2,673.7c-1.5,0-2.7-1.2-2.7-2.7c0-1.5,1.2-2.7,2.7-2.7c1.5,0,2.7,1.2,2.7,2.8
	C212.9,672.5,211.7,673.7,210.2,673.7C210.2,673.7,210.2,673.7,210.2,673.7z M208.1,701.2v-22.9h4.3v22.9H208.1z"/>
<path class="st0" d="M235.1,701.2l-0.5-3.3c-1.8,2.3-4.5,3.7-7.4,3.8c-4.9,0-9-3.6-9-11.3c0-8.3,4.8-12.4,10.4-12.4
	c2,0,3.9,0.3,5.8,1v-11.8l4.3-0.7v34.7L235.1,701.2z M234.2,682.9c-1.7-0.9-3.7-1.4-5.6-1.3c-3.6,0-6.2,2.9-6.2,8.6
	c0,5,2.3,7.7,5.3,7.7c2.6,0,4.7-1.6,6.5-4V682.9z"/>
<path class="st0" d="M254.5,701.7c-6,0-10.6-3.6-10.6-12c0-7.3,4.3-11.9,10.1-11.9c6.7,0,9.7,5.1,9.7,11.5v0.9h-15.6
	c0.1,5.3,2.7,7.8,6.7,7.8c3.3,0,5.7-1.3,8.2-3.3l0.6,3.8C261.1,700.7,257.8,701.7,254.5,701.7L254.5,701.7z M248.4,687h11
	c-0.5-3.7-2.2-5.8-5.5-5.8C251.3,681.2,249,683.1,248.4,687L248.4,687z"/>
<path class="st0" d="M276.1,701.7c-2.9-0.1-5.8-0.8-8.4-2.2l0.6-4c2.4,1.7,5.2,2.6,8.1,2.6c2.9,0,4.7-1.1,4.7-3
	c0-2.1-1.3-2.9-5.4-3.9c-5.4-1.3-7.5-3-7.5-7.1c0-3.7,3.1-6.3,8.1-6.3c2.6,0,5.2,0.5,7.5,1.5l-0.7,4c-2.1-1.2-4.5-1.9-7-2
	c-2.6,0-3.9,1-3.9,2.6s1.1,2.4,4.8,3.3c5.7,1.4,8.2,3.1,8.2,7.4C285.1,699,282,701.7,276.1,701.7L276.1,701.7z"/>
<path class="st0" d="M290.1,701.2v-5.7h4.8v5.7H290.1z"/>
<path class="st0" d="M333.7,701.2v-15.3H317v15.3h-4.5v-33.1h4.5v13.7h16.8v-13.7h4.5v33.1L333.7,701.2z"/>
<path class="st0" d="M354.9,701.7c-6,0-10.6-3.6-10.6-12c0-7.3,4.3-11.9,10.1-11.9c6.7,0,9.7,5.1,9.7,11.5v0.9h-15.5
	c0.1,5.3,2.7,7.8,6.7,7.8c3.3,0,5.7-1.3,8.2-3.3l0.6,3.8C361.4,700.7,358.2,701.7,354.9,701.7L354.9,701.7z M348.7,687h11
	c-0.5-3.7-2.2-5.8-5.5-5.8C351.7,681.2,349.4,683.1,348.7,687z"/>
<path class="st0" d="M384.4,687.7v13.5h-4.3v-22.9h3.4l0.7,4.7c1.6-2.9,4.6-4.9,8-5.1l0.7,4.1C389.2,682.2,386,684.4,384.4,687.7
	L384.4,687.7z"/>
<path class="st0" d="M405.7,701.7c-6,0-10.6-3.6-10.6-12c0-7.3,4.3-11.9,10.1-11.9c6.7,0,9.7,5.1,9.7,11.5v0.9h-15.5
	c0.1,5.3,2.7,7.8,6.7,7.8c3.3,0,5.7-1.3,8.2-3.3l0.6,3.8C412.3,700.7,409,701.7,405.7,701.7L405.7,701.7z M399.6,687h11
	c-0.5-3.7-2.2-5.8-5.5-5.8C402.5,681.2,400.2,683.1,399.6,687z"/>
<path class="st0" d="M448.6,701.2v-15.6c0-2.3-0.9-3.9-3.4-3.9c-2.3,0-4.4,1.5-6.5,3.7v15.8h-4.3v-15.6c0-2.3-0.9-3.9-3.4-3.9
	c-2.3,0-4.4,1.5-6.5,3.7v15.8h-4.3v-22.9h3.4l0.5,3.3c2.2-2,4.8-3.8,8-3.8s5.2,1.4,6,3.8c2.1-2,4.9-3.8,8.1-3.8
	c4.4,0,6.5,2.6,6.5,6.7v16.7L448.6,701.2z"/>
<path class="st0" d="M468.8,701.7c-6,0-10.6-3.6-10.6-12c0-7.3,4.3-11.9,10.1-11.9c6.7,0,9.7,5.1,9.7,11.5v0.9h-15.5
	c0.1,5.3,2.7,7.8,6.7,7.8c3.3,0,5.7-1.3,8.2-3.3l0.6,3.8C475.3,700.7,472.1,701.7,468.8,701.7L468.8,701.7z M462.6,687h11
	c-0.5-3.7-2.2-5.8-5.5-5.8C465.6,681.2,463.3,683.1,462.6,687z"/>
<path class="st0" d="M511.6,701.2v-15.6c0-2.3-0.9-3.9-3.4-3.9c-2.3,0-4.4,1.5-6.5,3.7v15.8h-4.3v-15.6c0-2.3-0.9-3.9-3.4-3.9
	c-2.3,0-4.4,1.5-6.5,3.7v15.8h-4.3v-22.9h3.4l0.5,3.3c2.2-2,4.8-3.8,8-3.8s5.2,1.4,6,3.8c2.1-2,4.9-3.8,8.1-3.8
	c4.4,0,6.5,2.6,6.5,6.7v16.7L511.6,701.2z"/>
<path class="st0" d="M531.5,701.5c-3,0-6-0.5-8.9-1.4v-32.8l4.3-0.7V681c1.7-2,4.2-3.1,6.9-3.2c4.9,0,9,3.7,9,11.3
	C542.7,697.4,538.1,701.5,531.5,701.5z M533,681.6c-2.4,0-4.5,1.6-6.2,3.7v11.7c1.5,0.6,3,0.8,4.6,0.8c4.5,0,7-2.6,7-8.5
	C538.4,684.3,536.1,681.6,533,681.6L533,681.6z"/>
<path class="st0" d="M557.4,701.7c-6,0-10.6-3.6-10.6-12c0-7.3,4.3-11.9,10.1-11.9c6.7,0,9.8,5.1,9.8,11.5v0.9h-15.6
	c0.1,5.3,2.7,7.8,6.7,7.8c3.3,0,5.7-1.3,8.2-3.3l0.6,3.8C564,700.7,560.8,701.7,557.4,701.7L557.4,701.7z M551.3,687h11
	c-0.5-3.7-2.2-5.8-5.5-5.8C554.2,681.2,552,683.1,551.3,687z"/>
<path class="st0" d="M576.3,687.7v13.5h-4.3v-22.9h3.4l0.7,4.7c1.6-2.9,4.6-4.9,8-5.1l0.7,4.1C581.2,682.2,578,684.4,576.3,687.7
	L576.3,687.7z"/>
<path class="st0" d="M595.8,701.7c-2.9-0.1-5.8-0.8-8.3-2.2l0.6-4c2.4,1.7,5.2,2.6,8.1,2.6c2.9,0,4.7-1.1,4.7-3
	c0-2.1-1.3-2.9-5.4-3.9c-5.4-1.3-7.5-3-7.5-7.1c0-3.7,3.1-6.3,8.1-6.3c2.6,0,5.2,0.5,7.5,1.5l-0.7,4c-2.1-1.2-4.5-1.9-7-2
	c-2.6,0-3.9,1-3.9,2.6s1.2,2.4,4.8,3.3c5.7,1.4,8.2,3.1,8.2,7.4C604.8,699,601.7,701.7,595.8,701.7L595.8,701.7z"/>
<path class="st0" d="M108.2,768.5c-2,0-3.9-0.3-5.8-1v9l-4.3,0.6v-31.8h3.4l0.5,3.3c1.8-2.3,4.5-3.7,7.4-3.8c4.9,0,9,3.7,9,11.3
	C118.6,764.4,113.8,768.5,108.2,768.5L108.2,768.5z M108.9,748.6c-2.6,0-4.6,1.6-6.4,4v11c1.7,0.9,3.6,1.3,5.6,1.2
	c3.6,0,6.2-2.9,6.2-8.6C114.3,751.3,112,748.6,108.9,748.6L108.9,748.6z"/>
<path class="st0" d="M137.9,768.2l-0.5-3.1c-2.1,2.3-5,3.6-8.1,3.5c-4.1,0-6.7-2.5-6.7-6.4c0-5.7,4.9-8,14.4-9v-1
	c0-2.9-1.7-3.9-4.4-3.9c-2.8,0.1-5.4,0.8-7.9,2l-0.6-3.7c2.8-1.2,5.8-1.9,8.9-1.9c5.6,0,8.3,2.3,8.3,7.3v16L137.9,768.2z
	 M137.1,756.6c-8.4,0.8-10.2,3.1-10.2,5.5c0,1.9,1.2,3.1,3.4,3.1c2.6-0.1,5.1-1.3,6.8-3.2L137.1,756.6z"/>
<path class="st0" d="M154.9,768.7c-2.9-0.1-5.8-0.8-8.4-2.2l0.6-4c2.4,1.7,5.2,2.6,8.1,2.6c2.9,0,4.7-1.1,4.7-3
	c0-2.1-1.3-2.9-5.4-3.9c-5.4-1.3-7.5-3-7.5-7.1c0-3.7,3.1-6.3,8.1-6.3c2.6,0,5.2,0.5,7.5,1.5l-0.7,4c-2.1-1.2-4.5-1.9-7-2
	c-2.6,0-3.9,1-3.9,2.6s1.1,2.4,4.8,3.3c5.7,1.4,8.2,3.1,8.2,7.4C163.9,766,160.8,768.7,154.9,768.7z"/>
<path class="st0" d="M177,768.6c-4,0-6.7-1.4-6.7-6v-13.7h-3.5v-3.6h3.5v-7.6l4.2-0.6v8.3h4.9l0.6,3.6h-5.5v12.9c0,1.9,0.8,3,3.2,3
	c0.7,0,1.3,0,2-0.1l0.6,3.7C179.2,768.5,178.1,768.6,177,768.6z"/>
<path class="st0" d="M205.5,768.7c-6.1,0-10.7-4.3-10.7-11.9c0-7.8,4.8-12,10.8-12c2.7-0.1,5.3,0.6,7.5,2.1l-0.6,4.2
	c-1.9-1.7-4.4-2.6-6.9-2.5c-3.7,0-6.4,2.8-6.4,8.2c0,5.6,2.8,8.2,6.9,8.2c2.5,0.1,4.9-0.8,6.7-2.5l0.6,3.8
	C211,767.9,208.3,768.8,205.5,768.7L205.5,768.7z"/>
<path class="st0" d="M227.4,768.7c-6.1,0-10.5-4.4-10.5-11.9s4.4-12,10.5-12s10.7,4.4,10.7,12S233.5,768.7,227.4,768.7z
	 M227.4,748.4c-4.1,0-6.2,3.5-6.2,8.3s2.2,8.3,6.2,8.3c4.2,0,6.3-3.5,6.3-8.3S231.5,748.4,227.4,748.4z"/>
<path class="st0" d="M257.9,768.2v-15.6c0-2.3-1-3.9-3.5-3.9c-2.3,0-4.6,1.5-6.6,3.7v15.8h-4.3v-22.9h3.4l0.5,3.3
	c2.2-2,4.9-3.8,8.1-3.8c4.3,0,6.6,2.6,6.6,6.7v16.7H257.9z"/>
<path class="st0" d="M278.4,768.3h-4.1l-8.1-22.7l4.3-0.7l6,18.1l5.8-17.8h4.4L278.4,768.3z"/>
<path class="st0" d="M299.5,768.7c-6,0-10.6-3.6-10.6-12c0-7.3,4.3-11.9,10.1-11.9c6.7,0,9.7,5.1,9.7,11.5v0.9h-15.5
	c0.1,5.3,2.7,7.8,6.7,7.8c3.3,0,5.7-1.3,8.2-3.3l0.6,3.8C306.1,767.7,302.8,768.7,299.5,768.7L299.5,768.7z M293.3,754h11
	c-0.5-3.7-2.2-5.8-5.5-5.8C296.3,748.2,294,750.1,293.3,754z"/>
<path class="st0" d="M318.4,754.7v13.5h-4.3v-22.9h3.4l0.7,4.7c1.6-2.9,4.6-4.9,8-5.1l0.7,4.1C323.3,749.2,320,751.4,318.4,754.7
	L318.4,754.7z"/>
<path class="st0" d="M337.9,768.7c-2.9-0.1-5.8-0.8-8.4-2.2l0.6-4c2.4,1.7,5.2,2.6,8.1,2.6c2.9,0,4.7-1.1,4.7-3
	c0-2.1-1.3-2.9-5.4-3.9c-5.4-1.3-7.5-3-7.5-7.1c0-3.7,3.1-6.3,8.1-6.3c2.6,0,5.2,0.5,7.5,1.5l-0.7,4c-2.1-1.2-4.5-1.9-7-2
	c-2.6,0-3.9,1-3.9,2.6s1.1,2.4,4.8,3.3c5.7,1.4,8.2,3.1,8.2,7.4C346.9,766,343.7,768.7,337.9,768.7L337.9,768.7z"/>
<path class="st0" d="M366,768.2l-0.5-3.1c-2.1,2.3-5,3.6-8.1,3.5c-4.1,0-6.7-2.5-6.7-6.4c0-5.7,4.9-8,14.5-9v-1
	c0-2.9-1.7-3.9-4.4-3.9c-2.8,0.1-5.4,0.8-7.9,2l-0.6-3.7c2.8-1.2,5.8-1.9,8.9-1.9c5.6,0,8.3,2.3,8.3,7.3v16L366,768.2z M365.2,756.6
	c-8.5,0.8-10.2,3.1-10.2,5.5c0,1.9,1.2,3.1,3.4,3.1c2.6-0.1,5.1-1.3,6.8-3.2V756.6z"/>
<path class="st0" d="M383.8,768.6c-4,0-6.7-1.4-6.7-6v-13.7h-3.5v-3.6h3.5v-7.6l4.2-0.6v8.3h4.9l0.6,3.6h-5.5v12.9
	c0,1.9,0.8,3,3.2,3c0.7,0,1.3,0,2-0.1l0.6,3.7C386,768.5,384.9,768.6,383.8,768.6L383.8,768.6z"/>
<path class="st0" d="M394.7,740.7c-1.5,0-2.7-1.2-2.7-2.7c0-1.5,1.2-2.7,2.7-2.7c1.5,0,2.7,1.2,2.7,2.7
	C397.4,739.5,396.2,740.7,394.7,740.7C394.7,740.7,394.7,740.7,394.7,740.7z M392.6,768.2v-22.9h4.3v22.9H392.6z"/>
<path class="st0" d="M413.1,768.7c-6.1,0-10.5-4.4-10.5-11.9s4.4-12,10.5-12s10.7,4.4,10.7,12S419.2,768.7,413.1,768.7z
	 M413.1,748.4c-4.1,0-6.2,3.5-6.2,8.3s2.2,8.3,6.2,8.3c4.2,0,6.3-3.5,6.3-8.3S417.2,748.4,413.1,748.4z"/>
<path class="st0" d="M443.6,768.2v-15.6c0-2.3-1-3.9-3.5-3.9c-2.3,0-4.6,1.5-6.6,3.7v15.8h-4.3v-22.9h3.4l0.5,3.3
	c2.2-2,4.9-3.8,8.1-3.8c4.3,0,6.6,2.6,6.6,6.7v16.7H443.6z"/>
<path class="st0" d="M461.4,768.7c-2.9-0.1-5.8-0.8-8.4-2.2l0.6-4c2.4,1.7,5.2,2.6,8.1,2.6c2.9,0,4.7-1.1,4.7-3
	c0-2.1-1.3-2.9-5.4-3.9c-5.4-1.3-7.5-3-7.5-7.1c0-3.7,3.1-6.3,8.1-6.3c2.6,0,5.2,0.5,7.5,1.5l-0.7,4c-2.1-1.2-4.5-1.9-7-2
	c-2.6,0-3.9,1-3.9,2.6s1.1,2.4,4.8,3.3c5.7,1.4,8.2,3.1,8.2,7.4C470.5,766,467.3,768.7,461.4,768.7L461.4,768.7z"/>
<path class="st0" d="M500.1,768.2l-0.5-3.1c-2.1,2.3-5,3.6-8.1,3.5c-4.1,0-6.7-2.5-6.7-6.4c0-5.7,4.9-8,14.5-9v-1
	c0-2.9-1.7-3.9-4.4-3.9c-2.8,0.1-5.4,0.8-7.9,2l-0.6-3.7c2.8-1.2,5.8-1.9,8.9-1.9c5.6,0,8.3,2.3,8.3,7.3v16L500.1,768.2z
	 M499.3,756.6c-8.5,0.8-10.2,3.1-10.2,5.5c0,1.9,1.2,3.1,3.4,3.1c2.6-0.1,5.1-1.3,6.8-3.2V756.6z"/>
<path class="st0" d="M524.6,768.2v-15.6c0-2.3-1-3.9-3.5-3.9c-2.3,0-4.6,1.5-6.6,3.7v15.8h-4.3v-22.9h3.4l0.5,3.3
	c2.2-2,4.8-3.8,8.1-3.8c4.3,0,6.6,2.6,6.6,6.7v16.7H524.6z"/>
<path class="st0" d="M551.2,768.2l-0.5-3.3c-1.8,2.3-4.5,3.7-7.4,3.8c-4.9,0-9-3.6-9-11.3c0-8.3,4.8-12.4,10.4-12.4
	c2,0,3.9,0.3,5.8,1v-11.8l4.3-0.7v34.7L551.2,768.2z M550.3,749.9c-1.7-0.9-3.7-1.4-5.6-1.3c-3.6,0-6.2,2.9-6.2,8.6
	c0,5,2.3,7.7,5.3,7.7c2.6,0,4.7-1.6,6.5-4V749.9z"/>
<path class="st0" d="M105.6,821.7v13.5h-4.3v-22.9h3.4l0.7,4.7c1.6-2.9,4.6-4.9,8-5.1l0.7,4.1C110.5,816.2,107.2,818.4,105.6,821.7
	L105.6,821.7z"/>
<path class="st0" d="M126.9,835.7c-6,0-10.6-3.6-10.6-12c0-7.3,4.3-11.9,10.1-11.9c6.7,0,9.7,5.1,9.7,11.5v0.9h-15.6
	c0.1,5.3,2.7,7.8,6.7,7.8c3.3,0,5.7-1.3,8.2-3.3l0.6,3.8C133.5,834.7,130.3,835.7,126.9,835.7z M120.8,821h11
	c-0.5-3.7-2.2-5.8-5.5-5.8C123.7,815.2,121.5,817.1,120.8,821z"/>
<path class="st0" d="M150.2,804.8c-2,0-3.2,0.8-3.2,2.9v4.6h4.6l0.5,3.6H147v19.3h-4.2v-19.3h-3.5v-3.6h3.5v-5c0-4.6,3-6.3,7.1-6.3
	c0.7,0,1.2,0,1.8,0.1l0.6,3.9C151.7,804.8,150.9,804.8,150.2,804.8L150.2,804.8z"/>
<path class="st0" d="M165.4,835.7c-6,0-10.6-3.6-10.6-12c0-7.3,4.3-11.9,10.1-11.9c6.7,0,9.7,5.1,9.7,11.5v0.9H159
	c0.1,5.3,2.7,7.8,6.7,7.8c3.3,0,5.7-1.3,8.2-3.3l0.6,3.8C171.9,834.6,168.7,835.7,165.4,835.7L165.4,835.7z M159.2,821h11
	c-0.5-3.7-2.2-5.8-5.5-5.8C162.2,815.2,159.9,817.1,159.2,821z"/>
<path class="st0" d="M184.3,821.7v13.5H180v-22.9h3.4l0.7,4.7c1.6-2.9,4.6-4.9,8-5.1l0.7,4.1C189.2,816.2,185.9,818.4,184.3,821.7
	L184.3,821.7z"/>
<path class="st0" d="M205.7,835.7c-6,0-10.6-3.6-10.6-12c0-7.3,4.3-11.9,10.1-11.9c6.7,0,9.8,5.1,9.8,11.5v0.9h-15.6
	c0.1,5.3,2.7,7.8,6.7,7.8c3.3,0,5.7-1.3,8.2-3.3l0.6,3.8C212.2,834.7,209,835.7,205.7,835.7z M199.5,821h11
	c-0.5-3.7-2.2-5.8-5.5-5.8C202.4,815.2,200.2,817.1,199.5,821z"/>
<path class="st0" d="M234.7,835.2v-15.6c0-2.3-1-3.9-3.5-3.9c-2.3,0-4.6,1.5-6.6,3.7v15.8h-4.3v-22.9h3.4l0.5,3.3
	c2.2-2,4.9-3.8,8.1-3.8c4.3,0,6.6,2.6,6.6,6.7v16.7H234.7z"/>
<path class="st0" d="M255.1,835.7c-6.1,0-10.7-4.3-10.7-11.9c0-7.8,4.8-12,10.8-12c2.7-0.1,5.3,0.6,7.5,2.1l-0.6,4.2
	c-1.9-1.7-4.4-2.6-6.9-2.5c-3.7,0-6.4,2.8-6.4,8.2c0,5.6,2.8,8.2,6.9,8.2c2.5,0.1,4.9-0.8,6.7-2.5l0.6,3.8
	C260.7,834.9,258,835.8,255.1,835.7L255.1,835.7z"/>
<path class="st0" d="M277.2,835.7c-6,0-10.6-3.6-10.6-12c0-7.3,4.3-11.9,10.1-11.9c6.7,0,9.7,5.1,9.7,11.5v0.9h-15.5
	c0.1,5.3,2.7,7.8,6.7,7.8c3.3,0,5.7-1.3,8.2-3.3l0.6,3.8C283.7,834.7,280.5,835.7,277.2,835.7L277.2,835.7z M271,821h11
	c-0.5-3.7-2.2-5.8-5.5-5.8C274,815.2,271.7,817.1,271,821z"/>
<path class="st0" d="M298.8,835.7c-2.9-0.1-5.8-0.8-8.4-2.2l0.6-4c2.4,1.7,5.2,2.6,8.1,2.6c2.9,0,4.7-1.1,4.7-3
	c0-2.1-1.3-2.9-5.4-3.9c-5.4-1.3-7.5-3-7.5-7.1c0-3.7,3.1-6.3,8.1-6.3c2.6,0,5.2,0.5,7.5,1.5l-0.7,4c-2.1-1.2-4.5-1.9-7-2
	c-2.6,0-3.9,1-3.9,2.6s1.1,2.4,4.8,3.3c5.7,1.4,8.2,3.1,8.2,7.4C307.8,833,304.7,835.7,298.8,835.7L298.8,835.7z"/>
<path class="st0" d="M327.9,821.7v13.5h-4.3v-22.9h3.4l0.7,4.7c1.6-2.9,4.6-4.9,8-5.1l0.7,4.1C332.7,816.2,329.5,818.4,327.9,821.7
	L327.9,821.7z"/>
<path class="st0" d="M349.2,835.7c-6,0-10.6-3.6-10.6-12c0-7.3,4.3-11.9,10.1-11.9c6.7,0,9.8,5.1,9.8,11.5v0.9h-15.6
	c0.1,5.3,2.7,7.8,6.7,7.8c3.3,0,5.7-1.3,8.2-3.3l0.6,3.8C355.8,834.7,352.5,835.7,349.2,835.7z M343.1,821h11
	c-0.5-3.7-2.2-5.8-5.5-5.8C346,815.2,343.8,817.1,343.1,821z"/>
<path class="st0" d="M373.4,835.7c-6.1,0-10.7-4.3-10.7-11.9c0-7.8,4.8-12,10.8-12c2.7-0.1,5.3,0.6,7.5,2.1l-0.6,4.2
	c-1.9-1.7-4.4-2.6-6.9-2.5c-3.7,0-6.4,2.8-6.4,8.2c0,5.6,2.8,8.2,6.9,8.2c2.5,0.1,4.9-0.8,6.7-2.5l0.6,3.8
	C379,834.9,376.2,835.8,373.4,835.7L373.4,835.7z"/>
<path class="st0" d="M395.4,835.7c-6,0-10.6-3.6-10.6-12c0-7.3,4.3-11.9,10.1-11.9c6.7,0,9.7,5.1,9.7,11.5v0.9h-15.5
	c0.1,5.3,2.7,7.8,6.7,7.8c3.3,0,5.7-1.3,8.2-3.3l0.6,3.8C402,834.7,398.8,835.7,395.4,835.7L395.4,835.7z M389.3,821h11
	c-0.5-3.7-2.2-5.8-5.5-5.8C392.2,815.2,390,817.1,389.3,821z"/>
<path class="st0" d="M424.5,835.2v-15.6c0-2.3-1-3.9-3.5-3.9c-2.3,0-4.6,1.5-6.6,3.7v15.8h-4.3v-22.9h3.4l0.5,3.3
	c2.2-2,4.9-3.8,8.1-3.8c4.3,0,6.6,2.6,6.6,6.7v16.7H424.5z"/>
<path class="st0" d="M443.1,835.6c-4,0-6.7-1.4-6.7-6v-13.7H433v-3.6h3.5v-7.6l4.2-0.6v8.3h4.9l0.6,3.6h-5.5v12.9c0,1.9,0.8,3,3.2,3
	c0.7,0,1.3,0,2-0.1l0.6,3.7C445.3,835.5,444.2,835.6,443.1,835.6L443.1,835.6z"/>
<path class="st0" d="M471.3,835.7c-6.1,0-10.5-4.4-10.5-11.9s4.4-12,10.5-12s10.7,4.4,10.7,12S477.5,835.7,471.3,835.7z
	 M471.3,815.4c-4.1,0-6.2,3.5-6.2,8.3s2.2,8.3,6.2,8.3c4.2,0,6.3-3.5,6.3-8.3S475.5,815.4,471.3,815.4z"/>
<path class="st0" d="M501.8,835.2v-15.6c0-2.3-1-3.9-3.5-3.9c-2.3,0-4.6,1.5-6.6,3.7v15.8h-4.3v-22.9h3.4l0.5,3.3
	c2.2-2,4.9-3.8,8.1-3.8c4.3,0,6.6,2.6,6.6,6.7v16.7H501.8z"/>
<path class="st0" d="M522,835.7c-6,0-10.6-3.6-10.6-12c0-7.3,4.3-11.9,10.1-11.9c6.7,0,9.7,5.1,9.7,11.5v0.9h-15.5
	c0.1,5.3,2.7,7.8,6.7,7.8c3.3,0,5.7-1.3,8.2-3.3l0.6,3.8C528.6,834.7,525.3,835.7,522,835.7z M515.9,821h11
	c-0.5-3.7-2.2-5.8-5.5-5.8C518.8,815.2,516.5,817.1,515.9,821z"/>
<path class="st0" d="M543.6,835.7c-2.9-0.1-5.8-0.8-8.3-2.2l0.6-4c2.4,1.7,5.2,2.6,8.1,2.6c2.9,0,4.7-1.1,4.7-3
	c0-2.1-1.3-2.9-5.4-3.9c-5.4-1.3-7.5-3-7.5-7.1c0-3.7,3.1-6.3,8.1-6.3c2.6,0,5.2,0.5,7.5,1.5l-0.7,4c-2.1-1.2-4.5-1.9-7-2
	c-2.6,0-3.9,1-3.9,2.6s1.2,2.4,4.8,3.3c5.7,1.4,8.2,3.1,8.2,7.4C552.6,833,549.5,835.7,543.6,835.7L543.6,835.7z"/>
<path class="st0" d="M557.6,835.2v-5.7h4.8v5.7H557.6z"/>
<path class="st1" d="M473.5,352.5c6.9-13.6,12.9-27.5,15.7-43.1c22.1-7.1,35.3-34.5,27-56.2c-2.1-5.5-5.3-10.5-7.2-16
	c-2.6-7.5-2.9-15.5-4.2-23.4c-6-35.7-35.7-66.1-71.2-73c-14.4-2.8-29.3-2-43.7-4.7c-25.6-4.9-50.1-15.6-76.3-17.9
	c-31.5-2.7-62.9,5.8-92.6,15.5c-12.7,4.1-25.6,8.7-35.5,17.5c-11.5,10.3-17.7,25.2-22.7,39.8c-6.7,19.7-11.8,40-15.4,60.5
	c-2.4,13.7-4,27.8-1.1,41.4c5.5,26.1,27,47.8,52.9,54c12.5,3,23.7-2,35.6-0.5c13.4,1.7,28.9,15.8,39,24c2,1.6,4,3.3,5.1,5.7
	c2.2,4.8-0.1,10.6,1.5,15.7c1.4,4.5,5.7,7.6,10.3,9s9.4,1.1,14.1,1.1c30.3-0.2,53.5,7.5,80.9,17.5c22.2,8.2,45,5.2,60-14.4
	c3.4-4.4,5.8-9.5,8.2-14.5C459.9,377.5,467.1,365.2,473.5,352.5L473.5,352.5z"/>
<path class="st2" d="M326.8,94.4c-91.1,0-164.9,73.8-164.9,164.9c0,50,22.7,97.3,61.6,128.6l-61.6,36.4h164.9
	c91.1,0,165-73.8,165-164.9C491.7,168.3,417.9,94.4,326.8,94.4C326.8,94.4,326.8,94.4,326.8,94.4L326.8,94.4z M326.8,409.6H216.6
	l34.9-20.2c-71.8-41.6-96.3-133.5-54.7-205.3s133.5-96.3,205.3-54.7s96.3,133.5,54.7,205.3C429.9,381.1,380.3,409.6,326.8,409.6
	L326.8,409.6z M305,156.8l-22.4-4.4l2.4,7c-54.7,23.3-80.5,86.3-57.9,141.3c-7.1,6.1-7.9,16.9-1.7,24c6.1,7.1,16.9,7.9,24,1.7
	s7.9-16.9,1.7-24c-4.3-4.9-10.9-7-17.2-5.3c-20.5-50.8,3.3-108.7,53.6-130.5l2.5,7.3L305,156.8z M247.4,313.5c0,5.1-4.1,9.2-9.2,9.2
	s-9.2-4.1-9.2-9.2s4.1-9.2,9.2-9.2C243.3,304.2,247.4,308.4,247.4,313.5z M435.5,275.3c0.8-5.2,1.2-10.5,1.2-15.8
	c-0.1-53.7-39.2-99.3-92.2-107.6c-1.4-9.2-10-15.5-19.2-14.1c-9.2,1.4-15.5,10-14.1,19.2s10,15.5,19.2,14.1
	c6.3-1,11.6-5.5,13.5-11.6c54.5,8.6,92,59.4,84.2,114l-7.2-1.7l6.7,21.8L443,277L435.5,275.3z M327.8,163.7c-5.1,0-9.2-4.1-9.2-9.2
	s4.1-9.2,9.2-9.2s9.2,4.1,9.2,9.2l0,0C337.1,159.5,332.9,163.7,327.8,163.7z M417.5,296.6c-9.3,0-16.9,7.5-16.9,16.8
	c0,4.2,1.6,8.3,4.5,11.4c-34.3,40.7-94.4,47.8-137.2,16.1l5-5.7l-22.4-4.5l7.3,21.6l5-5.7c46.3,34.6,111.6,26.9,148.5-17.6
	c1.9,0.8,4,1.2,6.1,1.2c9.3,0,16.9-7.5,16.9-16.9C434.4,304.1,426.8,296.6,417.5,296.6C417.5,296.6,417.5,296.6,417.5,296.6
	L417.5,296.6z M417.5,322.7c-5.1,0-9.2-4.1-9.2-9.2s4.1-9.2,9.2-9.2c5.1,0,9.2,4.1,9.2,9.2C426.7,318.6,422.6,322.7,417.5,322.7
	C417.5,322.7,417.5,322.7,417.5,322.7L417.5,322.7z"/>
<path class="st0" d="M893.1,549.1c-5,0-9.9-1.1-14.4-3.2l1.3-8c3.8,2.2,8.6,4,13.2,4c4,0,6.8-1.9,6.8-5.6c0-3.4-1.6-4.8-8.2-7.6
	c-8.9-3.7-12.5-6.6-12.5-13.7c0-8.1,6.2-12.8,14.8-12.8c4.2-0.1,8.3,0.8,12.1,2.8l-1.3,8c-3.2-2.2-6.9-3.4-10.8-3.6
	c-4.4,0-6.3,2.1-6.3,4.9c0,2.8,1.5,4.3,7.8,7c9.4,3.8,12.9,7.1,12.9,14.2C908.4,544.5,901.9,549.1,893.1,549.1L893.1,549.1z"/>
<path class="st0" d="M935.6,548.6l-0.7-4.5c-3,2.8-6.4,5.2-10.7,5.2c-6,0-9.2-3.7-9.2-9.7v-23h8v21c0,2.8,1.2,4.6,4,4.6
	c2.5,0,5-1.6,7.4-4v-21.6h8v32L935.6,548.6z"/>
<path class="st0" d="M963.5,549c-4.5,0-8.9-0.7-13.1-2.1V502l8-1.3v19.4c2.3-2.6,5.6-4.1,9.1-4.2c6.8,0,12.1,5,12.1,15.8
	C979.5,543.5,973.1,549,963.5,549z M965.4,523c-2.7,0-5,1.8-7,4.2v14.5c1.6,0.6,3.3,0.9,5,0.9c5,0,8.1-3,8.1-10.3
	C971.5,526,969,522.9,965.4,523L965.4,523z"/>
<path class="st0" d="M996.8,549.2c-4.3-0.1-8.6-1.1-12.5-3.1l1.1-6.6c3.5,2.3,7.5,3.6,11.7,3.8c3.5,0,5.3-1.3,5.3-3.3
	c0-2.2-1.4-3.2-6.5-4.4c-7.8-2-11-4.2-11-10.1c0-5.5,4.4-9.4,11.8-9.4c3.9-0.1,7.7,0.7,11.2,2.2l-1.1,6.6c-3.1-1.8-6.6-2.8-10.1-2.9
	c-3,0-4.4,1.1-4.4,2.9s1.2,2.7,6,3.9c8.3,2.1,11.5,4.4,11.5,10.4C1009.7,545.5,1005.2,549.2,996.8,549.2L996.8,549.2z"/>
<path class="st0" d="M1030,549.2c-9,0-15.6-5.1-15.6-16.6c0-10.4,6.2-16.7,14.6-16.7c9.6,0,13.9,7.2,13.9,16.3
	c0,0.7-0.1,1.5-0.1,1.9h-20.6c0.4,6.3,3.8,9,8.7,9c4.1,0,7.5-1.5,11-4l0.9,6.2C1039.1,547.9,1034.6,549.3,1030,549.2L1030,549.2z
	 M1022.3,529.2h12.8c-0.5-5-2.5-7.8-6.4-7.8C1025.6,521.4,1022.9,524,1022.3,529.2L1022.3,529.2z"/>
<path class="st0" d="M1057.3,530.2v18.4h-8v-32h6.8l1,6.4c2.1-3.7,5.3-6.8,10.3-7.1l1.3,7.9C1064,524.1,1059.8,526.5,1057.3,530.2
	L1057.3,530.2z"/>
<path class="st0" d="M1089.7,548.7h-7.8l-11.2-31.5l8.3-1.1l7.2,22.7l6.9-22.3h7.9L1089.7,548.7z"/>
<path class="st0" d="M1110.4,511.2c-2.5,0.1-4.6-1.8-4.8-4.3c0-0.1,0-0.2,0-0.2c0-2.6,2.1-4.7,4.7-4.7c2.6,0,4.7,2.1,4.7,4.7
	c0,2.5-2,4.5-4.5,4.5C1110.5,511.2,1110.4,511.2,1110.4,511.2z M1106.4,548.6v-32h8v32H1106.4z"/>
<path class="st0" d="M1136.7,549.2c-8.9,0-15.6-5.1-15.6-16.6c0-10.4,6.2-16.7,14.6-16.7c9.6,0,13.9,7.2,13.9,16.3
	c0,0.7-0.1,1.5-0.1,1.9h-20.6c0.4,6.3,3.8,9,8.7,9c4.1,0,7.5-1.5,11-4l0.9,6.2C1145.7,547.9,1141.2,549.3,1136.7,549.2L1136.7,549.2
	z M1129,529.2h12.8c-0.5-5-2.5-7.8-6.4-7.8C1132.2,521.4,1129.6,524,1129,529.2z"/>
<path class="st0" d="M1175.3,548.6v-21c0-2.8-1.2-4.7-4.1-4.7c-2.5,0-5,1.6-7.3,4v21.6h-8v-32h6.8l0.7,4.5c3-2.8,6.4-5.2,10.7-5.2
	c6,0,9.2,3.7,9.2,9.6v23.1L1175.3,548.6z"/>
<path class="st0" d="M1203.4,549.1c-6.3,0-10.5-2.3-10.5-9.6v-16.4h-4.5v-6.5h4.5v-10.1l7.8-1.2v11.3h6.6l1,6.5h-7.6v15.1
	c0,2.6,1.2,4,4.2,4c0.8,0,1.7-0.1,2.5-0.3l1,6.7C1206.8,549,1205.1,549.1,1203.4,549.1L1203.4,549.1z"/>
<path class="st0" d="M800.1,634.5L790,620.2h-3.4v14h-4.5v-33.2h9c6.8,0,11,3.4,11,9.4c0,5-2.9,8-7.2,9.2l9.8,13.9L800.1,634.5z
	 M790.9,605h-4.3v11.4h3.8c4.4,0,7.2-2,7.2-5.7S795.3,605,790.9,605L790.9,605z"/>
<path class="st0" d="M817.2,634.7c-6.1,0-10.5-4.4-10.5-11.9s4.4-12,10.5-12s10.7,4.4,10.7,12S823.3,634.7,817.2,634.7z
	 M817.2,614.4c-4.1,0-6.2,3.5-6.2,8.3s2.2,8.3,6.2,8.3c4.2,0,6.3-3.5,6.3-8.3S821.3,614.4,817.2,614.4z"/>
<path class="st0" d="M842.5,634.3h-4.1l-8.1-22.7l4.3-0.7l6,18.1l5.8-17.8h4.4L842.5,634.3z"/>
<path class="st0" d="M863.6,634.7c-6,0-10.6-3.6-10.6-12c0-7.3,4.3-11.9,10.1-11.9c6.7,0,9.7,5.1,9.7,11.5v0.9h-15.5
	c0.1,5.3,2.7,7.8,6.7,7.8c3.3,0,5.7-1.3,8.2-3.3l0.6,3.8C870.2,633.7,866.9,634.7,863.6,634.7L863.6,634.7z M857.5,620h11
	c-0.5-3.7-2.2-5.8-5.5-5.8C860.4,614.2,858.2,616.1,857.5,620z"/>
<path class="st0" d="M882.5,620.7v13.5h-4.3v-22.9h3.4l0.7,4.7c1.6-2.9,4.6-4.9,8-5.1l0.7,4.1C887.4,615.2,884.2,617.4,882.5,620.7
	L882.5,620.7z"/>
<path class="st0" d="M897,612.2l-2.4-0.6l1.4-10.6h4.9L897,612.2z"/>
<path class="st0" d="M911.9,634.7c-2.9-0.1-5.8-0.8-8.3-2.2l0.6-4c2.4,1.7,5.2,2.6,8.1,2.6c2.9,0,4.7-1.1,4.7-3
	c0-2.1-1.3-2.9-5.4-3.9c-5.4-1.3-7.5-3-7.5-7.1c0-3.7,3.1-6.3,8.1-6.3c2.6,0,5.2,0.5,7.5,1.5l-0.7,4c-2.1-1.2-4.5-1.9-7-2
	c-2.6,0-3.9,1-3.9,2.6s1.2,2.4,4.8,3.3c5.7,1.4,8.2,3.1,8.2,7.4C920.9,632,917.8,634.7,911.9,634.7L911.9,634.7z"/>
<path class="st0" d="M945.9,634.7c-6.1,0-10.5-4.4-10.5-11.9s4.4-12,10.5-12s10.7,4.4,10.7,12S952,634.7,945.9,634.7z M945.9,614.4
	c-4.1,0-6.2,3.5-6.2,8.3s2.2,8.3,6.2,8.3c4.2,0,6.3-3.5,6.3-8.3S950,614.4,945.9,614.4z"/>
<path class="st0" d="M971.2,634.3h-4.1l-8.2-22.7l4.3-0.7l6,18.1l5.7-17.8h4.4L971.2,634.3z"/>
<path class="st0" d="M992.3,634.7c-6,0-10.6-3.6-10.6-12c0-7.3,4.3-11.9,10.1-11.9c6.7,0,9.8,5.1,9.8,11.5v0.9H986
	c0.1,5.3,2.7,7.8,6.7,7.8c3.3,0,5.7-1.3,8.2-3.3l0.6,3.8C998.9,633.7,995.7,634.7,992.3,634.7z M986.2,620h11
	c-0.5-3.7-2.2-5.8-5.5-5.8C989.1,614.2,986.9,616.1,986.2,620z"/>
<path class="st0" d="M1011.3,620.7v13.5h-4.3v-22.9h3.4l0.7,4.7c1.6-2.9,4.6-4.9,8-5.1l0.7,4.1
	C1016.1,615.2,1012.9,617.4,1011.3,620.7L1011.3,620.7z"/>
<path class="st0" d="M1037.2,634.2l-0.5-3.1c-2.1,2.3-5,3.6-8.1,3.5c-4.1,0-6.7-2.5-6.7-6.4c0-5.7,4.9-8,14.4-9v-1
	c0-2.9-1.7-3.9-4.4-3.9c-2.8,0.1-5.4,0.8-7.9,2l-0.6-3.7c2.8-1.2,5.8-1.9,8.9-1.9c5.6,0,8.3,2.3,8.3,7.3v16L1037.2,634.2z
	 M1036.4,622.6c-8.4,0.8-10.2,3.1-10.2,5.5c0,1.9,1.2,3.1,3.4,3.1c2.6-0.1,5.1-1.3,6.8-3.2V622.6z"/>
<path class="st0" d="M1051.5,620.7v13.5h-4.3v-22.9h3.4l0.7,4.7c1.6-2.9,4.6-4.9,8-5.1l0.7,4.1
	C1056.4,615.2,1053.2,617.4,1051.5,620.7L1051.5,620.7z"/>
<path class="st0" d="M1073.1,634.7c-6.1,0-10.7-4.3-10.7-11.9c0-7.8,4.8-12,10.8-12c2.7-0.1,5.3,0.6,7.5,2.1l-0.6,4.2
	c-1.9-1.7-4.4-2.6-6.9-2.5c-3.7,0-6.4,2.8-6.4,8.2c0,5.6,2.8,8.2,6.9,8.2c2.5,0.1,4.9-0.8,6.7-2.5l0.6,3.8
	C1078.7,633.9,1075.9,634.8,1073.1,634.7L1073.1,634.7z"/>
<path class="st0" d="M1100.7,634.2v-15.6c0-2.3-1-3.9-3.5-3.9c-2.3,0-4.6,1.5-6.6,3.7v15.8h-4.3v-34l4.3-0.7v14.8
	c1.9-1.7,4.5-3.5,7.8-3.5c4.3,0,6.6,2.6,6.6,6.7v16.7H1100.7z"/>
<path class="st0" d="M1114.1,606.7c-1.5,0-2.7-1.2-2.7-2.7c0-1.5,1.2-2.7,2.7-2.7c1.5,0,2.7,1.2,2.7,2.7
	C1116.8,605.5,1115.6,606.7,1114.1,606.7C1114.1,606.7,1114.1,606.7,1114.1,606.7z M1111.9,634.2v-22.9h4.3v22.9H1111.9z"/>
<path class="st0" d="M1137.6,634.2v-15.6c0-2.3-1-3.9-3.5-3.9c-2.3,0-4.6,1.5-6.6,3.7v15.8h-4.3v-22.9h3.4l0.5,3.3
	c2.2-2,4.8-3.8,8.1-3.8c4.3,0,6.6,2.6,6.6,6.7v16.7H1137.6z"/>
<path class="st0" d="M1156.7,642.9c-6,0-10.7-1.9-10.7-5.9c0-2.3,1.6-4.2,4.8-5.9c-0.9-0.5-1.4-1.4-1.4-2.4c0-1.1,0.9-2.2,2.4-3.1
	c-2.6-1.2-4.3-3.9-4.3-6.8c0-4.9,4.1-8,8.8-8c2.1,0,4.2,0.7,5.9,2l5.8-1.8l0.6,3.8l-4.4,0.4c0.6,1.1,0.9,2.3,0.9,3.5
	c0,4.9-4.1,7.9-8.8,7.9c-0.6,0-1.2,0-1.7-0.1c-0.7,0.4-1.2,1-1.2,1.4c0,0.8,0.8,1,4.8,1.7l1.6,0.3c4.8,0.9,7.9,2.4,7.9,6
	C1167.9,640.7,1162.7,642.9,1156.7,642.9L1156.7,642.9z M1153.9,632.4c-2.6,1.3-3.8,2.7-3.8,4.3c0,1.8,2.3,3.2,6.8,3.2s7-1.5,7-3.5
	c0-1.4-1.1-2.3-4.3-2.9l-2.7-0.5C1155.5,632.8,1154.8,632.6,1153.9,632.4L1153.9,632.4z M1156.3,613.9c-2.9,0-4.7,2.2-4.7,5
	c-0.1,2.5,1.8,4.6,4.3,4.7c0.1,0,0.3,0,0.4,0c2.7,0,4.8-2.2,4.8-4.8C1161.2,616.1,1159,613.9,1156.3,613.9L1156.3,613.9z"/>
<path class="st0" d="M1191.4,642.9c-6,0-10.7-1.9-10.7-5.9c0-2.3,1.6-4.2,4.8-5.9c-0.9-0.5-1.4-1.4-1.4-2.4c0-1.1,0.9-2.2,2.4-3.1
	c-2.6-1.2-4.3-3.9-4.3-6.8c0-4.9,4.1-8,8.8-8c2.1,0,4.2,0.7,5.9,2l5.8-1.8l0.6,3.8l-4.4,0.4c0.6,1.1,0.9,2.3,0.9,3.5
	c0,4.9-4.1,7.9-8.8,7.9c-0.6,0-1.2,0-1.7-0.1c-0.7,0.4-1.2,1-1.2,1.4c0,0.8,0.8,1,4.8,1.7l1.6,0.3c4.8,0.9,7.9,2.4,7.9,6
	C1202.6,640.7,1197.4,642.9,1191.4,642.9L1191.4,642.9z M1188.7,632.4c-2.6,1.3-3.8,2.7-3.8,4.3c0,1.8,2.3,3.2,6.8,3.2s7-1.5,7-3.5
	c0-1.4-1.1-2.3-4.3-2.9l-2.7-0.5C1190.3,632.8,1189.6,632.6,1188.7,632.4L1188.7,632.4z M1191.1,613.9c-2.9,0-4.7,2.2-4.7,5
	c-0.1,2.5,1.8,4.6,4.3,4.7c0.1,0,0.3,0,0.4,0c2.7,0,4.8-2.2,4.8-4.8C1195.9,616.1,1193.7,613.9,1191.1,613.9L1191.1,613.9z"/>
<path class="st0" d="M1216.3,634.7c-6.1,0-10.5-4.4-10.5-11.9s4.4-12,10.5-12s10.7,4.4,10.7,12S1222.5,634.7,1216.3,634.7z
	 M1216.3,614.4c-4.1,0-6.2,3.5-6.2,8.3s2.2,8.3,6.2,8.3c4.2,0,6.3-3.5,6.3-8.3S1220.4,614.4,1216.3,614.4z"/>
<path class="st0" d="M1246.3,634.2l-0.5-3.1c-2.1,2.3-5,3.6-8.1,3.5c-4.1,0-6.7-2.5-6.7-6.4c0-5.7,4.9-8,14.4-9v-1
	c0-2.9-1.7-3.9-4.4-3.9c-2.8,0.1-5.4,0.8-7.9,2l-0.6-3.7c2.8-1.2,5.8-1.9,8.9-1.9c5.6,0,8.3,2.3,8.3,7.3v16L1246.3,634.2z
	 M1245.4,622.6c-8.4,0.8-10.2,3.1-10.2,5.5c0,1.9,1.2,3.1,3.4,3.1c2.6-0.1,5.1-1.3,6.8-3.2V622.6z"/>
<path class="st0" d="M1256.7,634.2v-34l4.3-0.7v34.7L1256.7,634.2z"/>
<path class="st0" d="M1281.1,606.7c-1.5,0-2.7-1.2-2.7-2.7c0-1.5,1.2-2.7,2.7-2.7c1.5,0,2.7,1.2,2.7,2.7
	C1283.8,605.5,1282.6,606.7,1281.1,606.7C1281.1,606.7,1281.1,606.7,1281.1,606.7z M1278.9,634.2v-22.9h4.3v22.9H1278.9z"/>
<path class="st0" d="M1297.2,634.7c-2.9-0.1-5.8-0.8-8.3-2.2l0.6-4c2.4,1.7,5.2,2.6,8.1,2.6c2.9,0,4.7-1.1,4.7-3
	c0-2.1-1.3-2.9-5.4-3.9c-5.4-1.3-7.5-3-7.5-7.1c0-3.7,3.1-6.3,8.1-6.3c2.6,0,5.2,0.5,7.5,1.5l-0.7,4c-2.1-1.2-4.5-1.9-7-2
	c-2.6,0-3.9,1-3.9,2.6s1.2,2.4,4.8,3.3c5.7,1.4,8.2,3.1,8.2,7.4C1306.2,632,1303.1,634.7,1297.2,634.7z"/>
<path class="st0" d="M826.6,701.6c-4,0-6.7-1.4-6.7-6v-13.7h-3.5v-3.6h3.5v-7.6l4.2-0.6v8.3h4.9l0.6,3.6h-5.5v12.9
	c0,1.9,0.8,3,3.2,3c0.7,0,1.3,0,2-0.1l0.6,3.7C828.8,701.5,827.7,701.6,826.6,701.6z"/>
<path class="st0" d="M844,701.7c-6.1,0-10.5-4.4-10.5-11.9s4.4-12,10.5-12s10.7,4.4,10.7,12S850.2,701.7,844,701.7z M844,681.4
	c-4.1,0-6.2,3.5-6.2,8.3s2.2,8.3,6.2,8.3c4.2,0,6.3-3.5,6.3-8.3S848.2,681.4,844,681.4z"/>
<path class="st0" d="M898.9,701.2v-15.6c0-2.3-0.9-3.9-3.4-3.9c-2.3,0-4.4,1.5-6.5,3.7v15.8h-4.3v-15.6c0-2.3-0.9-3.9-3.4-3.9
	c-2.3,0-4.4,1.5-6.5,3.7v15.8h-4.3v-22.9h3.4l0.5,3.3c2.2-2,4.8-3.8,8-3.8s5.2,1.4,6,3.8c2.1-2,4.8-3.8,8.1-3.8
	c4.4,0,6.5,2.6,6.5,6.7v16.7L898.9,701.2z"/>
<path class="st0" d="M923.7,701.2l-0.5-3.1c-2.1,2.3-5,3.6-8.1,3.5c-4.1,0-6.7-2.5-6.7-6.4c0-5.7,4.9-8,14.5-9v-1
	c0-2.9-1.7-3.9-4.4-3.9c-2.8,0.1-5.4,0.8-7.9,2l-0.6-3.7c2.8-1.2,5.8-1.9,8.9-1.9c5.6,0,8.3,2.3,8.3,7.3v16L923.7,701.2z
	 M922.8,689.6c-8.5,0.8-10.2,3.1-10.2,5.5c0,1.9,1.2,3.1,3.4,3.1c2.6-0.1,5.1-1.3,6.8-3.2V689.6z"/>
<path class="st0" d="M948.2,701.5L938,689.2v12h-4.3v-34l4.3-0.7v21.4l8.9-9.6h5.1l-9.7,10.1l10.5,12.4L948.2,701.5z"/>
<path class="st0" d="M964.8,701.7c-6,0-10.6-3.6-10.6-12c0-7.3,4.3-11.9,10.1-11.9c6.7,0,9.7,5.1,9.7,11.5v0.9h-15.5
	c0.1,5.3,2.7,7.8,6.7,7.8c3.3,0,5.7-1.3,8.2-3.3l0.6,3.8C971.4,700.7,968.2,701.7,964.8,701.7L964.8,701.7z M958.7,687h11
	c-0.5-3.7-2.2-5.8-5.5-5.8C961.6,681.2,959.4,683.1,958.7,687z"/>
<path class="st0" d="M999.6,701.7c-6.1,0-10.7-4.3-10.7-11.9c0-7.8,4.8-12,10.8-12c2.7-0.1,5.3,0.6,7.5,2.1l-0.6,4.2
	c-1.9-1.7-4.4-2.6-6.9-2.5c-3.7,0-6.4,2.8-6.4,8.2c0,5.6,2.8,8.2,6.9,8.2c2.5,0.1,4.9-0.8,6.7-2.5l0.6,3.8
	C1005.2,700.9,1002.4,701.8,999.6,701.7L999.6,701.7z"/>
<path class="st0" d="M1026.6,701.2l-0.5-3.1c-2.1,2.3-5,3.6-8.1,3.5c-4.1,0-6.7-2.5-6.7-6.4c0-5.7,4.9-8,14.5-9v-1
	c0-2.9-1.7-3.9-4.4-3.9c-2.8,0.1-5.4,0.8-7.9,2l-0.6-3.7c2.8-1.2,5.8-1.9,8.9-1.9c5.6,0,8.3,2.3,8.3,7.3v16L1026.6,701.2z
	 M1025.8,689.6c-8.5,0.8-10.2,3.1-10.2,5.5c0,1.9,1.2,3.1,3.4,3.1c2.6-0.1,5.1-1.3,6.8-3.2V689.6z"/>
<path class="st0" d="M1045.6,701.5c-3,0-6-0.5-8.9-1.4v-32.8l4.3-0.7V681c1.7-2,4.2-3.1,6.9-3.2c4.9,0,9,3.7,9,11.3
	C1056.9,697.4,1052.2,701.5,1045.6,701.5z M1047.2,681.6c-2.4,0-4.5,1.6-6.2,3.7v11.7c1.5,0.6,3,0.8,4.6,0.8c4.5,0,7-2.6,7-8.5
	C1052.5,684.3,1050.3,681.6,1047.2,681.6L1047.2,681.6z"/>
<path class="st0" d="M1077.1,687.7v13.5h-4.3v-22.9h3.4l0.7,4.7c1.6-2.9,4.6-4.9,8-5.1l0.7,4.1
	C1082,682.2,1078.7,684.4,1077.1,687.7L1077.1,687.7z"/>
<path class="st0" d="M1092.5,673.7c-1.5,0-2.7-1.2-2.7-2.7c0-1.5,1.2-2.7,2.7-2.7c1.5,0,2.7,1.2,2.7,2.7
	C1095.2,672.5,1094,673.7,1092.5,673.7C1092.5,673.7,1092.5,673.7,1092.5,673.7z M1090.4,701.2v-22.9h4.3v22.9H1090.4z"/>
<path class="st0" d="M1117.4,701.2l-0.5-3.3c-1.8,2.3-4.5,3.7-7.4,3.8c-4.9,0-9-3.6-9-11.3c0-8.3,4.8-12.4,10.4-12.4
	c2,0,3.9,0.3,5.8,1v-11.8l4.3-0.7v34.7L1117.4,701.2z M1116.5,682.9c-1.7-0.9-3.7-1.4-5.6-1.3c-3.6,0-6.2,2.9-6.2,8.6
	c0,5,2.3,7.7,5.3,7.7c2.6,0,4.7-1.6,6.5-4V682.9z"/>
<path class="st0" d="M1136.8,701.7c-6,0-10.6-3.6-10.6-12c0-7.3,4.3-11.9,10.1-11.9c6.7,0,9.8,5.1,9.8,11.5v0.9h-15.6
	c0.1,5.3,2.7,7.8,6.7,7.8c3.3,0,5.7-1.3,8.2-3.3l0.6,3.8C1143.4,700.7,1140.1,701.7,1136.8,701.7L1136.8,701.7z M1130.7,687h11
	c-0.5-3.7-2.2-5.8-5.5-5.8C1133.6,681.2,1131.3,683.1,1130.7,687z"/>
<path class="st0" d="M1155.7,687.7v13.5h-4.3v-22.9h3.4l0.7,4.7c1.6-2.9,4.6-4.9,8-5.1l0.7,4.1
	C1160.6,682.2,1157.4,684.4,1155.7,687.7L1155.7,687.7z"/>
<path class="st0" d="M1175.2,701.7c-2.9-0.1-5.8-0.8-8.3-2.2l0.6-4c2.4,1.7,5.2,2.6,8.1,2.6c2.9,0,4.7-1.1,4.7-3
	c0-2.1-1.3-2.9-5.4-3.9c-5.4-1.3-7.5-3-7.5-7.1c0-3.7,3.1-6.3,8.1-6.3c2.6,0,5.2,0.5,7.5,1.5l-0.7,4c-2.1-1.2-4.5-1.9-7-2
	c-2.6,0-3.9,1-3.9,2.6s1.2,2.4,4.8,3.3c5.7,1.4,8.2,3.1,8.2,7.4C1184.2,699,1181.1,701.7,1175.2,701.7L1175.2,701.7z"/>
<path class="st0" d="M1208.6,670.8c-2,0-3.2,0.8-3.2,2.9v4.6h4.6l0.5,3.6h-5.1v19.3h-4.2v-19.3h-3.5v-3.6h3.5v-5
	c0-4.6,3-6.3,7.1-6.3c0.7,0,1.2,0,1.8,0.1l0.6,3.9C1210.1,670.8,1209.4,670.8,1208.6,670.8L1208.6,670.8z"/>
<path class="st0" d="M1223.8,701.7c-6,0-10.6-3.6-10.6-12c0-7.3,4.3-11.9,10.1-11.9c6.7,0,9.8,5.1,9.8,11.5v0.9h-15.6
	c0.1,5.3,2.7,7.8,6.7,7.8c3.3,0,5.7-1.3,8.2-3.3l0.6,3.8C1230.4,700.7,1227.1,701.7,1223.8,701.7L1223.8,701.7z M1217.7,687h11
	c-0.5-3.7-2.2-5.8-5.5-5.8C1220.6,681.2,1218.3,683.1,1217.7,687z"/>
<path class="st0" d="M1247.8,701.7c-6,0-10.6-3.6-10.6-12c0-7.3,4.3-11.9,10.1-11.9c6.7,0,9.7,5.1,9.7,11.5v0.9h-15.6
	c0.1,5.3,2.7,7.8,6.7,7.8c3.3,0,5.7-1.3,8.2-3.3l0.6,3.8C1254.3,700.7,1251.1,701.7,1247.8,701.7L1247.8,701.7z M1241.6,687h11
	c-0.5-3.7-2.2-5.8-5.5-5.8C1244.5,681.2,1242.3,683.1,1241.6,687z"/>
<path class="st0" d="M1262.7,701.2v-34l4.3-0.7v34.7L1262.7,701.2z"/>
<path class="st0" d="M862.8,768.2v-15.6c0-2.3-0.9-3.9-3.4-3.9c-2.3,0-4.4,1.5-6.5,3.7v15.8h-4.3v-15.6c0-2.3-0.9-3.9-3.4-3.9
	c-2.3,0-4.4,1.5-6.5,3.7v15.8h-4.3v-22.9h3.4l0.5,3.3c2.2-2,4.8-3.8,8-3.8s5.2,1.4,6,3.8c2.1-2,4.8-3.8,8.1-3.8
	c4.4,0,6.5,2.6,6.5,6.7v16.7L862.8,768.2z"/>
<path class="st0" d="M882.9,768.7c-6.1,0-10.5-4.4-10.5-11.9s4.4-12,10.5-12s10.7,4.4,10.7,12S889,768.7,882.9,768.7z M882.9,748.4
	c-4.1,0-6.2,3.5-6.2,8.3s2.2,8.3,6.2,8.3c4.2,0,6.3-3.5,6.3-8.3S887,748.4,882.9,748.4z"/>
<path class="st0" d="M903.2,754.7v13.5h-4.3v-22.9h3.4l0.7,4.7c1.6-2.9,4.6-4.9,8-5.1l0.7,4.1C908.1,749.2,904.9,751.4,903.2,754.7
	L903.2,754.7z"/>
<path class="st0" d="M924.6,768.7c-6,0-10.6-3.6-10.6-12c0-7.3,4.3-11.9,10.1-11.9c6.7,0,9.8,5.1,9.8,11.5v0.9h-15.6
	c0.1,5.3,2.7,7.8,6.7,7.8c3.3,0,5.7-1.3,8.2-3.3l0.6,3.8C931.1,767.7,927.9,768.7,924.6,768.7L924.6,768.7z M918.4,754h11
	c-0.5-3.7-2.2-5.8-5.5-5.8C921.4,748.2,919.1,750.1,918.4,754z"/>
<path class="st0" d="M963.7,768.2l-0.5-3.1c-2.1,2.3-5,3.6-8.1,3.5c-4.1,0-6.7-2.5-6.7-6.4c0-5.7,4.9-8,14.5-9v-1
	c0-2.9-1.7-3.9-4.4-3.9c-2.8,0.1-5.4,0.8-7.9,2l-0.6-3.7c2.8-1.2,5.8-1.9,8.9-1.9c5.6,0,8.3,2.3,8.3,7.3v16L963.7,768.2z
	 M962.8,756.6c-8.5,0.8-10.2,3.1-10.2,5.5c0,1.9,1.2,3.1,3.4,3.1c2.6-0.1,5.1-1.3,6.8-3.2V756.6z"/>
<path class="st0" d="M981.5,768.6c-4,0-6.7-1.4-6.7-6v-13.7h-3.5v-3.6h3.5v-7.6l4.2-0.7v8.3h5l0.6,3.6H979v12.9c0,1.9,0.8,3,3.2,3
	c0.7,0,1.3,0,2-0.1l0.6,3.7C983.7,768.5,982.6,768.6,981.5,768.6L981.5,768.6z"/>
<path class="st0" d="M1009.8,768.7c-6,0-10.6-3.6-10.6-12c0-7.3,4.3-11.9,10.1-11.9c6.7,0,9.7,5.1,9.7,11.5v0.9h-15.5
	c0.1,5.3,2.7,7.8,6.7,7.8c3.3,0,5.7-1.3,8.2-3.3l0.6,3.8C1016.3,767.7,1013.1,768.7,1009.8,768.7L1009.8,768.7z M1003.6,754h11
	c-0.5-3.7-2.2-5.8-5.5-5.8C1006.6,748.2,1004.3,750.1,1003.6,754z"/>
<path class="st0" d="M1038.3,768.2l-0.5-3.1c-2.1,2.3-5,3.6-8.1,3.5c-4.1,0-6.7-2.5-6.7-6.4c0-5.7,4.9-8,14.4-9v-1
	c0-2.9-1.7-3.9-4.4-3.9c-2.8,0.1-5.4,0.8-7.9,2l-0.6-3.7c2.8-1.2,5.8-1.9,8.9-1.9c5.6,0,8.3,2.3,8.3,7.3v16L1038.3,768.2z
	 M1037.5,756.6c-8.4,0.8-10.2,3.1-10.2,5.5c0,1.9,1.2,3.1,3.4,3.1c2.6-0.1,5.1-1.3,6.8-3.2V756.6z"/>
<path class="st0" d="M1055.3,768.7c-2.9-0.1-5.8-0.8-8.3-2.2l0.6-4c2.4,1.7,5.2,2.6,8.1,2.6c2.9,0,4.7-1.1,4.7-3
	c0-2.1-1.3-2.9-5.4-3.9c-5.4-1.3-7.5-3-7.5-7.1c0-3.7,3.1-6.3,8.1-6.3c2.6,0,5.2,0.5,7.5,1.5l-0.7,4c-2.1-1.2-4.5-1.9-7-2
	c-2.6,0-3.9,1-3.9,2.6s1.2,2.4,4.8,3.3c5.7,1.4,8.2,3.1,8.2,7.4C1064.4,766,1061.2,768.7,1055.3,768.7L1055.3,768.7z"/>
<path class="st0" d="M1078.9,768.7c-6,0-10.6-3.6-10.6-12c0-7.3,4.3-11.9,10.1-11.9c6.7,0,9.7,5.1,9.7,11.5v0.9h-15.6
	c0.1,5.3,2.7,7.8,6.7,7.8c3.3,0,5.7-1.3,8.2-3.3l0.6,3.8C1085.4,767.7,1082.2,768.7,1078.9,768.7L1078.9,768.7z M1072.8,754h11
	c-0.5-3.7-2.2-5.8-5.5-5.8C1075.7,748.2,1073.4,750.1,1072.8,754z"/>
<path class="st0" d="M1118,768.2l-0.5-3.1c-2.1,2.3-5,3.6-8.1,3.5c-4.1,0-6.7-2.5-6.7-6.4c0-5.7,4.9-8,14.4-9v-1
	c0-2.9-1.7-3.9-4.4-3.9c-2.8,0.1-5.4,0.8-7.9,2l-0.6-3.7c2.8-1.2,5.8-1.9,8.9-1.9c5.6,0,8.3,2.3,8.3,7.3v16L1118,768.2z
	 M1117.2,756.6c-8.4,0.8-10.2,3.1-10.2,5.5c0,1.9,1.2,3.1,3.4,3.1c2.6-0.1,5.1-1.3,6.8-3.2V756.6z"/>
<path class="st0" d="M1135,768.7c-2.9-0.1-5.8-0.8-8.3-2.2l0.6-4c2.4,1.7,5.2,2.6,8.1,2.6c2.9,0,4.7-1.1,4.7-3
	c0-2.1-1.3-2.9-5.4-3.9c-5.4-1.3-7.5-3-7.5-7.1c0-3.7,3.1-6.3,8.1-6.3c2.6,0,5.2,0.5,7.5,1.5l-0.7,4c-2.1-1.2-4.5-1.9-7-2
	c-2.6,0-3.9,1-3.9,2.6s1.2,2.4,4.8,3.3c5.7,1.4,8.2,3.1,8.2,7.4C1144,766,1140.9,768.7,1135,768.7L1135,768.7z"/>
<path class="st0" d="M1167.6,768.6c-4,0-6.7-1.4-6.7-6v-13.7h-3.5v-3.6h3.5v-7.6l4.2-0.6v8.3h4.9l0.6,3.6h-5.5v12.9
	c0,1.9,0.8,3,3.2,3c0.7,0,1.3,0,2-0.1l0.6,3.7C1169.7,768.5,1168.7,768.6,1167.6,768.6z"/>
<path class="st0" d="M1190.4,768.2v-15.6c0-2.3-1-3.9-3.5-3.9c-2.3,0-4.6,1.5-6.6,3.7v15.8h-4.3v-34l4.3-0.7v14.8
	c1.9-1.7,4.5-3.5,7.8-3.5c4.3,0,6.6,2.6,6.6,6.7v16.7H1190.4z"/>
<path class="st0" d="M1210.6,768.7c-6,0-10.6-3.6-10.6-12c0-7.3,4.3-11.9,10.1-11.9c6.7,0,9.8,5.1,9.8,11.5v0.9h-15.6
	c0.1,5.3,2.7,7.8,6.7,7.8c3.3,0,5.7-1.3,8.2-3.3l0.6,3.8C1217.2,767.7,1213.9,768.7,1210.6,768.7L1210.6,768.7z M1204.4,754h11
	c-0.5-3.7-2.2-5.8-5.5-5.8C1207.4,748.2,1205.1,750.1,1204.4,754z"/>
<path class="st0" d="M1234.1,770.2c-2,5.3-4.4,6.7-8.2,6.7c-0.5,0-1-0.1-1.5-0.2l-0.6-3.7c0.8,0.2,1.6,0.3,2.4,0.3
	c1.7,0.1,3.2-1,3.7-2.7l0.9-2.3l-8.3-22.7l4.2-0.7l6.2,18.2l6.1-17.9h4.4L1234.1,770.2z"/>
<path class="st0" d="M860.9,835.7c-6.1,0-10.5-4.4-10.5-11.9s4.4-12,10.5-12s10.7,4.4,10.7,12S867.1,835.7,860.9,835.7z
	 M860.9,815.4c-4.1,0-6.2,3.5-6.2,8.3s2.2,8.3,6.2,8.3c4.2,0,6.3-3.5,6.3-8.3S865.1,815.4,860.9,815.4z"/>
<path class="st0" d="M881.3,821.7v13.5H877v-22.9h3.4l0.7,4.7c1.6-2.9,4.6-4.9,8-5.1l0.7,4.1C886.1,816.2,882.9,818.4,881.3,821.7
	L881.3,821.7z"/>
<path class="st0" d="M909,835.2l-0.5-3.3c-1.8,2.3-4.5,3.7-7.4,3.8c-4.9,0-9-3.6-9-11.3c0-8.4,4.8-12.4,10.4-12.4c2,0,3.9,0.3,5.8,1
	v-11.8l4.3-0.7v34.7L909,835.2z M908.1,816.9c-1.7-0.9-3.7-1.4-5.6-1.3c-3.6,0-6.2,2.9-6.2,8.6c0,5,2.3,7.7,5.3,7.7
	c2.6,0,4.7-1.6,6.5-4V816.9z"/>
<path class="st0" d="M928.5,835.7c-6,0-10.6-3.6-10.6-12c0-7.3,4.3-11.9,10.1-11.9c6.7,0,9.8,5.1,9.8,11.5v0.9h-15.5
	c0.1,5.3,2.7,7.8,6.7,7.8c3.3,0,5.7-1.3,8.2-3.3l0.6,3.8C935,834.7,931.8,835.7,928.5,835.7L928.5,835.7z M922.3,821h11
	c-0.5-3.7-2.2-5.8-5.5-5.8C925.3,815.2,923,817.1,922.3,821z"/>
<path class="st0" d="M947.4,821.7v13.5h-4.3v-22.9h3.4l0.7,4.7c1.6-2.9,4.6-4.9,8-5.1l0.7,4.1C952.2,816.2,949,818.4,947.4,821.7
	L947.4,821.7z"/>
<path class="st0" d="M984.7,835.2l-0.5-3.1c-2.1,2.3-5,3.6-8.1,3.5c-4.1,0-6.7-2.5-6.7-6.4c0-5.7,4.9-8,14.5-9v-1
	c0-2.9-1.7-3.9-4.4-3.9c-2.8,0.1-5.4,0.8-7.9,2l-0.6-3.7c2.8-1.2,5.8-1.9,8.9-1.9c5.6,0,8.3,2.3,8.3,7.3v16L984.7,835.2z
	 M983.9,823.6c-8.5,0.8-10.2,3.1-10.2,5.5c0,1.9,1.2,3.1,3.4,3.1c2.6-0.1,5.1-1.3,6.8-3.2V823.6z"/>
<path class="st0" d="M1009.2,835.2v-15.6c0-2.3-1-3.9-3.5-3.9c-2.3,0-4.6,1.5-6.6,3.7v15.8h-4.3v-22.9h3.4l0.5,3.3
	c2.2-2,4.8-3.8,8.1-3.8c4.3,0,6.6,2.6,6.6,6.7v16.7H1009.2z"/>
<path class="st0" d="M1035.8,835.2l-0.5-3.3c-1.8,2.3-4.5,3.7-7.4,3.8c-4.9,0-9-3.6-9-11.3c0-8.3,4.8-12.4,10.4-12.4
	c2,0,3.9,0.3,5.8,1v-11.8l4.3-0.7v34.7L1035.8,835.2z M1034.9,816.9c-1.7-0.9-3.7-1.4-5.6-1.3c-3.6,0-6.2,2.9-6.2,8.6
	c0,5,2.3,7.7,5.3,7.7c2.6,0,4.7-1.6,6.5-4V816.9z"/>
<path class="st0" d="M1060.8,821.7v13.5h-4.3v-22.9h3.4l0.7,4.7c1.6-2.9,4.6-4.9,8-5.1l0.7,4.1
	C1065.6,816.2,1062.4,818.4,1060.8,821.7L1060.8,821.7z"/>
<path class="st0" d="M1076.2,807.7c-1.5,0-2.7-1.2-2.7-2.7c0-1.5,1.2-2.7,2.7-2.7c1.5,0,2.7,1.2,2.7,2.7
	C1078.8,806.5,1077.7,807.7,1076.2,807.7C1076.2,807.7,1076.2,807.7,1076.2,807.7z M1074,835.2v-22.9h4.3v22.9H1074z"/>
<path class="st0" d="M1101,835.2l-0.5-3.3c-1.8,2.3-4.5,3.7-7.4,3.8c-4.9,0-9-3.6-9-11.3c0-8.3,4.8-12.4,10.4-12.4
	c2,0,3.9,0.3,5.8,1v-11.8l4.3-0.7v34.7L1101,835.2z M1100.1,816.9c-1.7-0.9-3.7-1.4-5.6-1.3c-3.6,0-6.2,2.9-6.2,8.6
	c0,5,2.3,7.7,5.3,7.7c2.6,0,4.7-1.6,6.5-4V816.9z"/>
<path class="st0" d="M1120.5,835.7c-6,0-10.6-3.6-10.6-12c0-7.3,4.3-11.9,10.1-11.9c6.7,0,9.7,5.1,9.7,11.5v0.9h-15.6
	c0.1,5.3,2.7,7.8,6.7,7.8c3.3,0,5.7-1.3,8.2-3.3l0.6,3.8C1127,834.7,1123.8,835.7,1120.5,835.7L1120.5,835.7z M1114.3,821h11
	c-0.5-3.7-2.2-5.8-5.5-5.8C1117.2,815.2,1115,817.1,1114.3,821z"/>
<path class="st0" d="M1155.2,835.7c-6.1,0-10.7-4.3-10.7-11.9c0-7.8,4.8-12,10.8-12c2.7-0.1,5.3,0.6,7.5,2.1l-0.6,4.2
	c-1.9-1.7-4.4-2.6-6.9-2.5c-3.7,0-6.4,2.8-6.4,8.2c0,5.6,2.8,8.2,6.9,8.2c2.5,0.1,4.9-0.8,6.7-2.5l0.6,3.8
	C1160.8,834.9,1158,835.8,1155.2,835.7L1155.2,835.7z"/>
<path class="st0" d="M1182.2,835.2l-0.5-3.1c-2.1,2.3-5,3.6-8.1,3.5c-4.1,0-6.7-2.5-6.7-6.4c0-5.7,4.9-8,14.4-9v-1
	c0-2.9-1.7-3.9-4.4-3.9c-2.8,0.1-5.4,0.8-7.9,2l-0.6-3.7c2.8-1.2,5.8-1.9,8.9-1.9c5.6,0,8.3,2.3,8.3,7.3v16L1182.2,835.2z
	 M1181.4,823.6c-8.4,0.8-10.2,3.1-10.2,5.5c0,1.9,1.2,3.1,3.4,3.1c2.6-0.1,5.1-1.3,6.8-3.2V823.6z"/>
<path class="st0" d="M1196.6,821.7v13.5h-4.3v-22.9h3.4l0.7,4.7c1.6-2.9,4.6-4.9,8-5.1l0.7,4.1
	C1201.5,816.2,1198.2,818.4,1196.6,821.7L1196.6,821.7z"/>
<path class="st0" d="M1216,835.7c-2.9-0.1-5.8-0.8-8.3-2.2l0.6-4c2.4,1.7,5.2,2.6,8.1,2.6c2.9,0,4.7-1.1,4.7-3
	c0-2.1-1.3-2.9-5.4-3.9c-5.4-1.3-7.5-3-7.5-7.1c0-3.7,3.1-6.3,8.1-6.3c2.6,0,5.2,0.5,7.5,1.5l-0.7,4c-2.1-1.2-4.5-1.9-7-2
	c-2.6,0-3.9,1-3.9,2.6s1.2,2.4,4.8,3.3c5.7,1.4,8.2,3.1,8.2,7.4C1225,833,1221.9,835.7,1216,835.7L1216,835.7z"/>
<path class="st0" d="M1230,835.2v-5.7h4.8v5.7H1230z"/>
<path class="st3" d="M1169.5,360.8c-2.9,2-5.7,4.1-8.6,6c-31.9,21.3-72.1,24.9-110.4,24.7c-16.3-0.1-33.4-0.9-47.5-9.1
	c-14-8.1-25.3-30.1-40.3-34.5c-19.9-5.8-31.4,12.7-32.8,30.2c-0.7,8.2-0.4,16.5-2.5,24.4c-0.9,3.4-2.3,6.9-5.2,8.9
	c-7.1,5.1-16.6-1.7-21.8-8.8c-16.2-22.3-33.8-26.6-57.8-41.1c-19-11.5-38.7-31.3-32.2-52.5c0.8-2.5,2-5,4.1-6.4
	c2.7-1.9,6.2-1.8,9.5-1.7c31.4,0.5,55-1.9,58.5-36.7c1.2-12-3.8-24.7-3.3-37.1c1.1-27.3,12.3-54.5,32.9-72.9
	c13.1-11.7,28.9-19.8,45-26.7c29.7-12.6,57.4-17.2,88.9-9c21,5.4,45,21.3,66.7,12.9c5.9-2.3,11-6.1,17-8.2
	c11.3-3.9,23.7-0.7,35.2,2.6c5.1,1.5,10.5,3.1,14.2,7c8.1,8.3,4.9,21.8,3.8,33.4c-3,30.1,12.6,60.1,40.2,71.9
	c21.8,9.3,55.4,21,54,51.4c-1.3,30.1-27.8,58-57.7,60.4c-12.7,1-25.9-0.6-37.8,4C1177.3,355.9,1173.2,358.1,1169.5,360.8
	L1169.5,360.8z"/>
<path class="st4" d="M887.2,308.9c0,0,1.6-93.4,57.2-147.5c39.1-37.9,83.8-21.4,121.7-41.2c29-15.2,10.5-49.6-10.1-48.2
	c-17.8,1.3-39.1,24.7-5,47.9c21.8,15,89.7,9.2,127.3,43.1c44.7,40.2,58.6,142.4,55.3,145.9s-65.8,14.5-146.4,13.4
	S911,317.8,911,317.8l-11.2,90.8l36.8,8.9c0,0,19.1-69.6,9.1-77.5s-19.3,5.5-15.7,13.4c5.6,12.2,49.2,11.2,84.8,0
	c25.2-7.9,74.9-16.8,83.8-4.5c5.3,7.3-44.7,21.3-61.4,24.6s34.5,9.5,63.7,3.3c32.9-6.9,65.8-17.8,81.5-27.9
	c14.1-9.1,32.6,4.7,14.5,24.6c-18.7,20.4-41.2,43.5-99.3,51.3c-50.3,6.8-138.7-6.8-138.7-6.8"/>
<path class="st2" d="M913.1,289.9c0,0,89.7,11.9,145.6,13.4c39,1,149.5-7.8,149.5-7.8s2.2-81.4-40.1-117.3
	c-44.7-37.9-80.2-32.3-109.2-32.3s-93,4.6-115.1,40.2C913.3,235,912.4,260.9,913.1,289.9L913.1,289.9z"/>
<g>
	<path class="st0" d="M1571.1,549l-18.3-22.7v22.3h-8.8v-45.7h8.8v20.1l16.6-20.1h10.3l-18.2,21.3l19,23.2L1571.1,549z"/>
	<path class="st0" d="M1604.3,548.6v-21c0-2.8-1.2-4.7-4.1-4.7c-2.5,0-5,1.6-7.3,4v21.6h-8v-32h6.8l0.7,4.5c3-2.8,6.4-5.2,10.7-5.2
		c6,0,9.2,3.7,9.2,9.6v23.1L1604.3,548.6z"/>
	<path class="st0" d="M1633.5,549.2c-8.7,0-15-6.2-15-16.6s6.4-16.7,15-16.7s15.1,6.3,15.1,16.7S1642.3,549.2,1633.5,549.2z
		 M1633.5,522.5c-4.7,0-7.2,4.2-7.2,10.1s2.6,10.1,7.2,10.1c4.9,0,7.4-4.2,7.4-10.1S1638.3,522.5,1633.5,522.5z"/>
	<path class="st0" d="M1687.1,548.6h-7.1l-6-21.2l-6,21.2h-7l-9.5-31.4l8-1.1l5.7,21.3l5.8-20.9h7l5.8,20.9l5.6-20.9h7.5
		L1687.1,548.6z"/>
	<path class="st0" d="M1702.4,548.6V502l8-1.3v47.9L1702.4,548.6z"/>
	<path class="st0" d="M1732.7,549.2c-8.9,0-15.6-5.1-15.6-16.6c0-10.4,6.2-16.7,14.6-16.7c9.6,0,13.9,7.2,13.9,16.3
		c0,0.7-0.1,1.5-0.1,1.9h-20.6c0.4,6.3,3.8,9,8.7,9c4.1,0,7.5-1.5,11-4l0.9,6.2C1741.8,547.9,1737.3,549.3,1732.7,549.2
		L1732.7,549.2z M1725.1,529.2h12.8c-0.5-5-2.5-7.8-6.4-7.8C1728.3,521.4,1725.7,524,1725.1,529.2z"/>
	<path class="st0" d="M1773,548.6l-0.7-4.4c-2.2,2.7-5.4,5.1-9.8,5.1c-6.7,0-12.1-5-12.1-15.8c0-11.9,6.6-17.2,14-17.2
		c2.5,0,5,0.4,7.4,1.2V502l8-1.3v47.9L1773,548.6z M1771.8,524c-1.9-1-4.1-1.5-6.2-1.4c-4.2,0-7.2,3.4-7.2,10.4
		c0,6.2,2.7,9.2,6.2,9.2c2.9,0,5.2-1.7,7.3-4.4L1771.8,524z"/>
	<path class="st0" d="M1799.8,560.7c-8.7,0-15.2-2.7-15.2-8c0-3,2.1-5.3,6-7.5c-1.1-0.8-1.8-2.1-1.9-3.5c0-1.8,1.4-3.5,4-5
		c-3.7-1.6-6.1-5.4-6-9.4c0-7,5.7-11.3,12.9-11.3c3.3-0.1,6.5,1,9.1,3l7.8-2.8l1.1,6.4l-5.8,0.4c0.6,1.3,0.9,2.7,0.9,4.2
		c0,6.9-5.9,11-12.8,11c-0.9,0-1.8,0-2.7-0.1c-0.8,0.5-1.3,1.1-1.3,1.7c0,1.1,1,1.3,6,2l4.1,0.4c6.6,0.9,10.7,3,10.7,7.9
		C1816.6,556.8,1809,560.7,1799.8,560.7z M1794.8,547.1c-2.3,1.6-3.4,3.1-3.4,4.8c0,2.4,2.8,4.1,8.9,4.1c5.7,0,8.9-1.9,8.9-4.3
		c0-1.7-1.4-2.7-5.4-3.3l-4.3-0.5C1797.9,547.6,1796.4,547.4,1794.8,547.1L1794.8,547.1z M1799.6,521.1c-3.5,0-5.6,2.7-5.6,6.2
		c0,3.3,2.1,5.8,5.6,5.8s5.6-2.6,5.6-6S1803,521,1799.6,521.1L1799.6,521.1z"/>
	<path class="st0" d="M1835.6,549.2c-8.9,0-15.6-5.1-15.6-16.6c0-10.4,6.2-16.7,14.6-16.7c9.6,0,13.9,7.2,13.9,16.3
		c0,0.7-0.1,1.5-0.1,1.9h-20.6c0.4,6.3,3.8,9,8.7,9c4.1,0,7.5-1.5,11-4l0.9,6.2C1844.7,547.9,1840.2,549.3,1835.6,549.2
		L1835.6,549.2z M1827.9,529.2h12.8c-0.5-5-2.5-7.8-6.4-7.8C1831.2,521.4,1828.5,524,1827.9,529.2z"/>
	<path class="st0" d="M1873.5,548.6l-0.7-4.2c-2.7,3.1-6.6,4.8-10.7,4.8c-5.4,0-9.1-3.3-9.1-8.9c0-7.8,6.4-11.1,19.3-12.4v-1
		c0-3.5-2-4.8-5.5-4.8c-3.7,0.1-7.3,1-10.7,2.6l-1-6.4c4-1.7,8.4-2.6,12.7-2.6c8.3,0,12.4,3,12.4,10.7v21.9L1873.5,548.6z
		 M1872.4,532.6c-9.2,1.1-11.4,3.8-11.4,6.9c0,2.3,1.5,3.7,3.9,3.7c2.9-0.1,5.6-1.3,7.5-3.5V532.6z"/>
	<path class="st0" d="M1901.4,549c-4.5,0-8.9-0.7-13.1-2.1V502l8-1.3v19.4c2.3-2.6,5.6-4.1,9.1-4.2c6.8,0,12.1,5,12.1,15.8
		C1917.4,543.5,1910.9,549,1901.4,549z M1903.2,523c-2.7,0-5,1.8-7,4.2v14.5c1.6,0.6,3.3,0.9,5,0.9c5,0,8.1-3,8.1-10.3
		C1909.3,526,1906.8,522.9,1903.2,523L1903.2,523z"/>
	<path class="st0" d="M1924.2,548.6V502l8-1.3v47.9L1924.2,548.6z"/>
	<path class="st0" d="M1954.6,549.2c-8.9,0-15.6-5.1-15.6-16.6c0-10.4,6.2-16.7,14.6-16.7c9.6,0,13.9,7.2,13.9,16.3
		c0,0.7-0.1,1.5-0.1,1.9h-20.6c0.4,6.3,3.8,9,8.7,9c4.1,0,7.5-1.5,11-4l0.9,6.2C1963.6,547.9,1959.1,549.3,1954.6,549.2
		L1954.6,549.2z M1946.9,529.2h12.8c-0.5-5-2.5-7.8-6.4-7.8C1950.1,521.4,1947.5,524,1946.9,529.2z"/>
	<path class="st0" d="M1480.3,634.5l-10.1-14.3h-3.4v14h-4.5v-33.2h9c6.8,0,11,3.4,11,9.4c0,5-2.9,8-7.2,9.2l9.8,13.9L1480.3,634.5z
		 M1471.1,605h-4.3v11.4h3.8c4.4,0,7.2-2,7.2-5.7S1475.6,605,1471.1,605z"/>
	<path class="st0" d="M1497.4,634.7c-6.1,0-10.5-4.4-10.5-11.9s4.4-12,10.5-12s10.7,4.4,10.7,12S1503.5,634.7,1497.4,634.7z
		 M1497.4,614.4c-4.1,0-6.2,3.5-6.2,8.3s2.2,8.3,6.2,8.3c4.2,0,6.3-3.5,6.3-8.3S1501.5,614.4,1497.4,614.4z"/>
	<path class="st0" d="M1522.7,634.3h-4.1l-8.1-22.7l4.3-0.7l6,18.1l5.8-17.8h4.4L1522.7,634.3z"/>
	<path class="st0" d="M1543.8,634.7c-6,0-10.6-3.6-10.6-12c0-7.3,4.3-11.9,10.1-11.9c6.7,0,9.7,5.1,9.7,11.5v0.9h-15.6
		c0.1,5.3,2.7,7.8,6.7,7.8c3.3,0,5.7-1.3,8.2-3.3l0.6,3.8C1550.4,633.7,1547.2,634.7,1543.8,634.7L1543.8,634.7z M1537.7,620h11
		c-0.5-3.7-2.2-5.8-5.5-5.8C1540.6,614.2,1538.4,616.1,1537.7,620z"/>
	<path class="st0" d="M1562.8,620.7v13.5h-4.3v-22.9h3.4l0.7,4.7c1.6-2.9,4.6-4.9,8-5.1l0.7,4.1
		C1567.6,615.2,1564.4,617.4,1562.8,620.7L1562.8,620.7z"/>
	<path class="st0" d="M1588.7,606.7c-1.5,0-2.7-1.2-2.7-2.7c0-1.5,1.2-2.7,2.7-2.7c1.5,0,2.7,1.2,2.7,2.7
		C1591.4,605.5,1590.2,606.7,1588.7,606.7C1588.7,606.7,1588.7,606.7,1588.7,606.7z M1586.6,634.2v-22.9h4.3v22.9H1586.6z"/>
	<path class="st0" d="M1604.9,634.7c-2.9-0.1-5.8-0.8-8.3-2.2l0.6-4c2.4,1.7,5.2,2.6,8.1,2.6c2.9,0,4.7-1.1,4.7-3
		c0-2.1-1.3-2.9-5.4-3.9c-5.4-1.3-7.5-3-7.5-7.1c0-3.7,3.1-6.3,8.1-6.3c2.6,0,5.2,0.5,7.5,1.5l-0.7,4c-2.1-1.2-4.5-1.9-7-2
		c-2.6,0-3.9,1-3.9,2.6s1.2,2.4,4.8,3.3c5.7,1.4,8.2,3.1,8.2,7.4C1613.9,632,1610.8,634.7,1604.9,634.7L1604.9,634.7z"/>
	<path class="st0" d="M1643.5,634.2l-0.5-3.1c-2.1,2.3-5,3.6-8.1,3.5c-4.1,0-6.7-2.5-6.7-6.4c0-5.7,4.9-8,14.4-9v-1
		c0-2.9-1.7-3.9-4.4-3.9c-2.8,0.1-5.4,0.8-7.9,2l-0.6-3.7c2.8-1.2,5.8-1.9,8.9-1.9c5.6,0,8.3,2.3,8.3,7.3v16L1643.5,634.2z
		 M1642.7,622.6c-8.4,0.8-10.2,3.1-10.2,5.5c0,1.9,1.2,3.1,3.4,3.1c2.6-0.1,5.1-1.3,6.8-3.2V622.6z"/>
	<path class="st0" d="M1662.6,634.5c-3,0-6-0.5-8.9-1.4v-32.8l4.3-0.7V614c1.7-2,4.2-3.1,6.9-3.2c4.9,0,9,3.7,9,11.3
		C1673.8,630.4,1669.2,634.5,1662.6,634.5z M1664.1,614.6c-2.4,0-4.5,1.6-6.2,3.7V630c1.5,0.6,3,0.8,4.6,0.8c4.5,0,7-2.6,7-8.5
		C1669.5,617.3,1667.2,614.6,1664.1,614.6L1664.1,614.6z"/>
	<path class="st0" d="M1679.5,634.2v-34l4.3-0.7v34.7L1679.5,634.2z"/>
	<path class="st0" d="M1700.2,634.7c-6,0-10.6-3.6-10.6-12c0-7.3,4.3-11.9,10.1-11.9c6.7,0,9.7,5.1,9.7,11.5v0.9h-15.6
		c0.1,5.3,2.7,7.8,6.7,7.8c3.3,0,5.7-1.3,8.2-3.3l0.6,3.8C1706.7,633.7,1703.5,634.7,1700.2,634.7L1700.2,634.7z M1694,620h11
		c-0.5-3.7-2.2-5.8-5.5-5.8C1697,614.2,1694.7,616.1,1694,620z"/>
	<path class="st0" d="M1733.2,634.6c-4,0-6.7-1.4-6.7-6v-13.7h-3.5v-3.6h3.5v-7.6l4.2-0.6v8.3h4.9l0.6,3.6h-5.5v12.9
		c0,1.9,0.8,3,3.2,3c0.7,0,1.3,0,2-0.1l0.6,3.7C1735.3,634.5,1734.2,634.6,1733.2,634.6L1733.2,634.6z"/>
	<path class="st0" d="M1750.6,634.7c-6.1,0-10.5-4.4-10.5-11.9s4.4-12,10.5-12s10.7,4.4,10.7,12S1756.7,634.7,1750.6,634.7z
		 M1750.6,614.4c-4.1,0-6.2,3.5-6.2,8.3s2.2,8.3,6.2,8.3c4.2,0,6.3-3.5,6.3-8.3S1754.7,614.4,1750.6,614.4z"/>
	<path class="st0" d="M1791.1,634.2l-0.5-3.1c-2.1,2.3-5,3.6-8.1,3.5c-4.1,0-6.7-2.5-6.7-6.4c0-5.7,4.9-8,14.4-9v-1
		c0-2.9-1.7-3.9-4.4-3.9c-2.8,0.1-5.4,0.8-7.9,2l-0.6-3.7c2.8-1.2,5.8-1.9,8.9-1.9c5.6,0,8.3,2.3,8.3,7.3v16L1791.1,634.2z
		 M1790.3,622.6c-8.4,0.8-10.2,3.1-10.2,5.5c0,1.9,1.2,3.1,3.4,3.1c2.6-0.1,5.1-1.3,6.8-3.2V622.6z"/>
	<path class="st0" d="M1810.7,634.7c-6.1,0-10.7-4.3-10.7-11.9c0-7.8,4.8-12,10.8-12c2.7-0.1,5.3,0.6,7.5,2.1l-0.6,4.2
		c-1.9-1.7-4.4-2.6-6.9-2.5c-3.7,0-6.4,2.8-6.4,8.2c0,5.6,2.8,8.2,6.9,8.2c2.5,0.1,4.9-0.8,6.7-2.5l0.6,3.8
		C1816.3,633.9,1813.5,634.8,1810.7,634.7L1810.7,634.7z"/>
	<path class="st0" d="M1833,634.7c-6.1,0-10.7-4.3-10.7-11.9c0-7.8,4.8-12,10.8-12c2.7-0.1,5.3,0.6,7.5,2.1l-0.6,4.2
		c-1.9-1.7-4.4-2.6-6.9-2.5c-3.7,0-6.4,2.8-6.4,8.2c0,5.6,2.8,8.2,6.9,8.2c2.5,0.1,4.9-0.8,6.7-2.5l0.6,3.8
		C1838.6,633.9,1835.8,634.8,1833,634.7L1833,634.7z"/>
	<path class="st0" d="M1855,634.7c-6,0-10.6-3.6-10.6-12c0-7.3,4.3-11.9,10.1-11.9c6.7,0,9.8,5.1,9.8,11.5v0.9h-15.6
		c0.1,5.3,2.7,7.8,6.7,7.8c3.3,0,5.7-1.3,8.2-3.3l0.6,3.8C1861.6,633.7,1858.3,634.7,1855,634.7L1855,634.7z M1848.9,620h11
		c-0.5-3.7-2.2-5.8-5.5-5.8C1851.8,614.2,1849.6,616.1,1848.9,620z"/>
	<path class="st0" d="M1876.6,634.7c-2.9-0.1-5.8-0.8-8.3-2.2l0.6-4c2.4,1.7,5.2,2.6,8.1,2.6c2.9,0,4.7-1.1,4.7-3
		c0-2.1-1.3-2.9-5.4-3.9c-5.4-1.3-7.5-3-7.5-7.1c0-3.7,3.1-6.3,8.1-6.3c2.6,0,5.2,0.5,7.5,1.5l-0.7,4c-2.1-1.2-4.5-1.9-7-2
		c-2.6,0-3.9,1-3.9,2.6s1.2,2.4,4.8,3.3c5.7,1.4,8.2,3.1,8.2,7.4C1885.7,632,1882.5,634.7,1876.6,634.7L1876.6,634.7z"/>
	<path class="st0" d="M1897.7,634.7c-2.9-0.1-5.8-0.8-8.3-2.2l0.6-4c2.4,1.7,5.2,2.6,8.1,2.6c2.9,0,4.7-1.1,4.7-3
		c0-2.1-1.3-2.9-5.4-3.9c-5.4-1.3-7.5-3-7.5-7.1c0-3.7,3.1-6.3,8.1-6.3c2.6,0,5.2,0.5,7.5,1.5l-0.7,4c-2.1-1.2-4.5-1.9-7-2
		c-2.6,0-3.9,1-3.9,2.6s1.2,2.4,4.8,3.3c5.7,1.4,8.2,3.1,8.2,7.4C1906.7,632,1903.6,634.7,1897.7,634.7L1897.7,634.7z"/>
	<path class="st0" d="M1950.7,634.2v-15.6c0-2.3-0.9-3.9-3.4-3.9c-2.3,0-4.4,1.5-6.5,3.7v15.8h-4.3v-15.6c0-2.3-0.9-3.9-3.4-3.9
		c-2.3,0-4.4,1.5-6.5,3.7v15.8h-4.3v-22.9h3.4l0.5,3.3c2.2-2,4.8-3.8,8-3.8s5.2,1.4,6,3.8c2.1-2,4.8-3.8,8.1-3.8
		c4.4,0,6.5,2.6,6.5,6.7v16.7L1950.7,634.2z"/>
	<path class="st0" d="M1975.4,634.2l-0.5-3.1c-2.1,2.3-5,3.6-8.1,3.5c-4.1,0-6.7-2.5-6.7-6.4c0-5.7,4.9-8,14.4-9v-1
		c0-2.9-1.7-3.9-4.4-3.9c-2.8,0.1-5.4,0.8-7.9,2l-0.6-3.7c2.8-1.2,5.8-1.9,8.9-1.9c5.6,0,8.3,2.3,8.3,7.3v16L1975.4,634.2z
		 M1974.6,622.6c-8.4,0.8-10.2,3.1-10.2,5.5c0,1.9,1.2,3.1,3.4,3.1c2.6-0.1,5.1-1.3,6.8-3.2V622.6z"/>
	<path class="st0" d="M1995.6,634.5c-2,0-3.9-0.3-5.8-1v9l-4.3,0.6v-31.8h3.4l0.5,3.3c1.8-2.3,4.5-3.7,7.4-3.8c4.9,0,9,3.7,9,11.3
		C2005.9,630.4,2001.1,634.5,1995.6,634.5L1995.6,634.5z M1996.2,614.6c-2.6,0-4.6,1.6-6.4,4v11c1.7,0.9,3.6,1.3,5.6,1.2
		c3.6,0,6.2-2.9,6.2-8.6C2001.6,617.3,1999.4,614.6,1996.2,614.6L1996.2,614.6z"/>
	<path class="st0" d="M2018.3,634.7c-2.9-0.1-5.8-0.8-8.3-2.2l0.6-4c2.4,1.7,5.2,2.6,8.1,2.6c2.9,0,4.7-1.1,4.7-3
		c0-2.1-1.3-2.9-5.4-3.9c-5.4-1.3-7.5-3-7.5-7.1c0-3.7,3.1-6.3,8.1-6.3c2.6,0,5.2,0.5,7.5,1.5l-0.7,4c-2.1-1.2-4.5-1.9-7-2
		c-2.6,0-3.9,1-3.9,2.6s1.2,2.4,4.8,3.3c5.7,1.4,8.2,3.1,8.2,7.4C2027.3,632,2024.2,634.7,2018.3,634.7L2018.3,634.7z"/>
	<path class="st0" d="M2032.9,640.6l-2.3-0.6l2.4-11.5h4.9L2032.9,640.6z"/>
	<path class="st0" d="M1508.8,701.6c-4,0-6.7-1.4-6.7-6v-13.7h-3.5v-3.6h3.5v-7.6l4.2-0.6v8.3h4.9l0.6,3.6h-5.5v12.9
		c0,1.9,0.8,3,3.2,3c0.7,0,1.3,0,2-0.1l0.6,3.7C1511,701.5,1509.9,701.6,1508.8,701.6L1508.8,701.6z"/>
	<path class="st0" d="M1521.5,687.7v13.5h-4.3v-22.9h3.4l0.7,4.7c1.6-2.9,4.6-4.9,8-5.1l0.7,4.1
		C1526.4,682.2,1523.1,684.4,1521.5,687.7L1521.5,687.7z"/>
	<path class="st0" d="M1547.4,701.2l-0.5-3.1c-2.1,2.3-5,3.6-8.1,3.5c-4.1,0-6.7-2.5-6.7-6.4c0-5.7,4.9-8,14.4-9v-1
		c0-2.9-1.7-3.9-4.4-3.9c-2.8,0.1-5.4,0.8-7.9,2l-0.6-3.7c2.8-1.2,5.8-1.9,8.9-1.9c5.6,0,8.3,2.3,8.3,7.3v16L1547.4,701.2z
		 M1546.6,689.6c-8.4,0.8-10.2,3.1-10.2,5.5c0,1.9,1.2,3.1,3.4,3.1c2.6-0.1,5.1-1.3,6.8-3.2L1546.6,689.6z"/>
	<path class="st0" d="M1566.1,670.8c-2,0-3.2,0.8-3.2,2.9v4.6h4.6l0.5,3.6h-5.1v19.3h-4.2v-19.3h-3.5v-3.6h3.5v-5
		c0-4.6,3-6.3,7.1-6.3c0.7,0,1.2,0,1.8,0.1l0.6,3.9C1567.6,670.8,1566.9,670.8,1566.1,670.8L1566.1,670.8z M1581.1,670.8
		c-2,0-3.2,0.8-3.2,2.9v4.6h4.6l0.5,3.6h-5.1v19.3h-4.2v-19.3h-3.5v-3.6h3.5v-5c0-4.6,3-6.3,7.1-6.3c0.7,0,1.2,0,1.8,0.1l0.6,3.9
		C1582.5,670.8,1581.8,670.8,1581.1,670.8L1581.1,670.8z M1589.8,673.7c-1.5,0-2.7-1.2-2.7-2.7c0-1.5,1.2-2.7,2.7-2.7
		c1.5,0,2.7,1.2,2.7,2.7C1592.5,672.5,1591.3,673.7,1589.8,673.7C1589.9,673.7,1589.8,673.7,1589.8,673.7L1589.8,673.7z
		 M1587.7,701.2v-22.9h4.3v22.9H1587.7z"/>
	<path class="st0" d="M1608.6,701.7c-6.1,0-10.7-4.3-10.7-11.9c0-7.8,4.8-12,10.8-12c2.7-0.1,5.3,0.6,7.5,2.1l-0.6,4.2
		c-1.9-1.7-4.4-2.6-6.9-2.5c-3.7,0-6.4,2.8-6.4,8.2c0,5.6,2.8,8.2,6.9,8.2c2.5,0.1,4.9-0.8,6.7-2.5l0.6,3.8
		C1614.1,700.9,1611.4,701.8,1608.6,701.7L1608.6,701.7z"/>
	<path class="st0" d="M1634.8,673.7c-1.5,0-2.7-1.2-2.8-2.7c0,0,0,0,0,0c0-1.5,1.2-2.7,2.7-2.7c1.5,0,2.7,1.2,2.7,2.7
		C1637.4,672.5,1636.2,673.7,1634.8,673.7L1634.8,673.7z M1632.6,701.2v-22.9h4.3v22.9H1632.6z"/>
	<path class="st0" d="M1658.3,701.2v-15.6c0-2.3-1-3.9-3.5-3.9c-2.3,0-4.6,1.5-6.6,3.7v15.8h-4.3v-22.9h3.4l0.5,3.3
		c2.2-2,4.8-3.8,8.1-3.8c4.3,0,6.6,2.6,6.6,6.7v16.7H1658.3z"/>
	<path class="st0" d="M1677.9,670.8c-2,0-3.2,0.8-3.2,2.9v4.6h4.6l0.5,3.6h-5.1v19.3h-4.2v-19.3h-3.5v-3.6h3.5v-5
		c0-4.6,3-6.3,7.1-6.3c0.7,0,1.2,0,1.8,0.1l0.6,3.9C1679.3,670.8,1678.6,670.8,1677.9,670.8L1677.9,670.8z"/>
	<path class="st0" d="M1692.9,701.7c-6.1,0-10.5-4.4-10.5-11.9s4.4-12,10.5-12s10.7,4.4,10.7,12S1699.1,701.7,1692.9,701.7z
		 M1692.9,681.4c-4.1,0-6.2,3.5-6.2,8.3s2.2,8.3,6.2,8.3c4.2,0,6.3-3.5,6.3-8.3S1697.1,681.4,1692.9,681.4z"/>
	<path class="st0" d="M1713.3,687.7v13.5h-4.3v-22.9h3.4l0.7,4.7c1.6-2.9,4.6-4.9,8-5.1l0.7,4.1
		C1718.1,682.2,1714.9,684.4,1713.3,687.7L1713.3,687.7z"/>
	<path class="st0" d="M1754.4,701.2v-15.6c0-2.3-0.9-3.9-3.4-3.9c-2.3,0-4.4,1.5-6.5,3.7v15.8h-4.3v-15.6c0-2.3-0.9-3.9-3.4-3.9
		c-2.3,0-4.4,1.5-6.5,3.7v15.8h-4.3v-22.9h3.4l0.5,3.3c2.2-2,4.8-3.8,8-3.8s5.2,1.4,6,3.8c2.1-2,4.8-3.8,8.1-3.8
		c4.4,0,6.5,2.6,6.5,6.7v16.7L1754.4,701.2z"/>
	<path class="st0" d="M1779.2,701.2l-0.5-3.1c-2.1,2.3-5,3.6-8.1,3.5c-4.1,0-6.7-2.5-6.7-6.4c0-5.7,4.9-8,14.4-9v-1
		c0-2.9-1.7-3.9-4.4-3.9c-2.8,0.1-5.4,0.8-7.9,2l-0.6-3.7c2.8-1.2,5.8-1.9,8.9-1.9c5.6,0,8.3,2.3,8.3,7.3v16L1779.2,701.2z
		 M1778.4,689.6c-8.4,0.8-10.2,3.1-10.2,5.5c0,1.9,1.2,3.1,3.4,3.1c2.6-0.1,5.1-1.3,6.8-3.2L1778.4,689.6z"/>
	<path class="st0" d="M1797,701.6c-4,0-6.7-1.4-6.7-6v-13.7h-3.5v-3.6h3.5v-7.6l4.2-0.6v8.3h4.9l0.6,3.6h-5.5v12.9
		c0,1.9,0.8,3,3.2,3c0.7,0,1.3,0,2-0.1l0.6,3.7C1799.2,701.5,1798.1,701.6,1797,701.6L1797,701.6z"/>
	<path class="st0" d="M1807.9,673.7c-1.5,0-2.7-1.2-2.7-2.7c0-1.5,1.2-2.7,2.7-2.7c1.5,0,2.7,1.2,2.7,2.7
		C1810.6,672.5,1809.4,673.7,1807.9,673.7C1808,673.7,1807.9,673.7,1807.9,673.7z M1805.8,701.2v-22.9h4.2v22.9H1805.8z"/>
	<path class="st0" d="M1826.3,701.7c-6.1,0-10.5-4.4-10.5-11.9s4.4-12,10.5-12s10.7,4.4,10.7,12S1832.5,701.7,1826.3,701.7z
		 M1826.3,681.4c-4.1,0-6.2,3.5-6.2,8.3s2.2,8.3,6.2,8.3c4.2,0,6.3-3.5,6.3-8.3S1830.4,681.4,1826.3,681.4z"/>
	<path class="st0" d="M1856.8,701.2v-15.6c0-2.3-1-3.9-3.5-3.9c-2.3,0-4.6,1.5-6.6,3.7v15.8h-4.3v-22.9h3.4l0.5,3.3
		c2.2-2,4.8-3.8,8.1-3.8c4.3,0,6.6,2.6,6.6,6.7v16.7H1856.8z"/>
	<path class="st0" d="M1868,707.6l-2.3-0.6l2.4-11.5h4.9L1868,707.6z"/>
	<path class="st0" d="M1903.6,701.2v-15.6c0-2.3-1-3.9-3.5-3.9c-2.3,0-4.6,1.5-6.6,3.7v15.8h-4.3v-22.9h3.4l0.5,3.3
		c2.2-2,4.8-3.8,8.1-3.8c4.3,0,6.6,2.6,6.6,6.7v16.7H1903.6z"/>
	<path class="st0" d="M1923.8,701.7c-6,0-10.6-3.6-10.6-12c0-7.3,4.3-11.9,10.1-11.9c6.7,0,9.8,5.1,9.8,11.5v0.9h-15.6
		c0.1,5.3,2.7,7.8,6.7,7.8c3.3,0,5.7-1.3,8.2-3.3l0.6,3.8C1930.3,700.7,1927.1,701.7,1923.8,701.7L1923.8,701.7z M1917.6,687h11
		c-0.5-3.7-2.2-5.8-5.5-5.8C1920.5,681.2,1918.3,683.1,1917.6,687z"/>
	<path class="st0" d="M1960.3,701.2h-3.3l-5.3-17.3l-5.2,17.3h-3.3l-7.4-22.6l4.1-0.7l5,17l5.1-16.6h3.6l5.1,16.6l4.9-16.6h4.2
		L1960.3,701.2z"/>
	<path class="st0" d="M1979,701.7c-2.9-0.1-5.8-0.8-8.3-2.2l0.6-4c2.4,1.7,5.2,2.6,8.1,2.6c2.9,0,4.7-1.1,4.7-3
		c0-2.1-1.3-2.9-5.4-3.9c-5.4-1.3-7.5-3-7.5-7.1c0-3.7,3.1-6.3,8.1-6.3c2.6,0,5.2,0.5,7.5,1.5l-0.7,4c-2.1-1.2-4.5-1.9-7-2
		c-2.6,0-3.9,1-3.9,2.6s1.2,2.4,4.8,3.3c5.7,1.4,8.2,3.1,8.2,7.4C1988,699,1984.9,701.7,1979,701.7z"/>
	<path class="st0" d="M1993.5,707.6l-2.3-0.6l2.4-11.5h4.9L1993.5,707.6z"/>
	<path class="st0" d="M1500.8,768.2l-0.5-3.3c-1.8,2.3-4.5,3.7-7.4,3.8c-4.9,0-9-3.6-9-11.3c0-8.3,4.8-12.4,10.4-12.4
		c2,0,3.9,0.3,5.8,1v-11.8l4.3-0.7v34.7L1500.8,768.2z M1499.9,749.9c-1.7-0.9-3.7-1.4-5.6-1.3c-3.6,0-6.2,2.9-6.2,8.6
		c0,5,2.3,7.7,5.3,7.7c2.6,0,4.7-1.6,6.5-4V749.9z"/>
	<path class="st0" d="M1513.4,740.7c-1.5,0-2.7-1.2-2.7-2.7c0-1.5,1.2-2.7,2.7-2.7c1.5,0,2.7,1.2,2.7,2.7
		C1516.1,739.5,1514.9,740.7,1513.4,740.7C1513.4,740.7,1513.4,740.7,1513.4,740.7z M1511.2,768.2v-22.9h4.3v22.9H1511.2z"/>
	<path class="st0" d="M1536.9,768.2v-15.6c0-2.3-1-3.9-3.5-3.9c-2.3,0-4.6,1.5-6.6,3.7v15.8h-4.3v-22.9h3.4l0.5,3.3
		c2.2-2,4.8-3.8,8.1-3.8c4.3,0,6.6,2.6,6.6,6.7v16.7H1536.9z"/>
	<path class="st0" d="M1550.3,740.7c-1.5,0-2.7-1.2-2.7-2.7c0-1.5,1.2-2.7,2.7-2.7c1.5,0,2.7,1.3,2.7,2.8
		C1553,739.5,1551.8,740.7,1550.3,740.7z M1548.2,768.2v-22.9h4.3v22.9H1548.2z"/>
	<path class="st0" d="M1573.9,768.2v-15.6c0-2.3-1-3.9-3.5-3.9c-2.3,0-4.6,1.5-6.6,3.7v15.8h-4.3v-22.9h3.4l0.5,3.3
		c2.2-2,4.8-3.8,8.1-3.8c4.3,0,6.6,2.6,6.6,6.7v16.7H1573.9z"/>
	<path class="st0" d="M1593,776.9c-6,0-10.7-1.9-10.7-5.9c0-2.3,1.6-4.2,4.8-5.9c-0.9-0.5-1.4-1.4-1.4-2.4c0-1.1,0.9-2.2,2.4-3.1
		c-2.6-1.2-4.3-3.9-4.3-6.8c0-4.9,4.1-8,8.8-8c2.1,0,4.2,0.7,5.9,2l5.8-1.8l0.6,3.8l-4.4,0.4c0.6,1.1,0.9,2.3,0.9,3.5
		c0,4.9-4.1,7.9-8.8,7.9c-0.6,0-1.2,0-1.7-0.1c-0.7,0.4-1.2,1-1.2,1.4c0,0.8,0.8,1,4.8,1.7l1.6,0.3c4.8,0.9,7.9,2.4,7.9,6
		C1604.1,774.7,1598.9,776.9,1593,776.9L1593,776.9z M1590.2,766.4c-2.6,1.3-3.8,2.7-3.8,4.3c0,1.8,2.3,3.2,6.8,3.2s7-1.5,7-3.5
		c0-1.4-1.1-2.3-4.3-2.9l-2.9-0.5C1591.8,766.7,1591.1,766.6,1590.2,766.4L1590.2,766.4z M1592.6,747.9c-2.9,0-4.7,2.2-4.7,5
		c-0.1,2.5,1.8,4.6,4.3,4.7c0.1,0,0.3,0,0.4,0c2.7,0,4.8-2.2,4.8-4.8C1597.5,750.1,1595.3,747.9,1592.6,747.9L1592.6,747.9
		L1592.6,747.9z"/>
	<path class="st0" d="M1628.8,768.7c-6.1,0-10.5-4.4-10.5-11.9s4.4-12,10.5-12s10.7,4.4,10.7,12S1634.9,768.7,1628.8,768.7z
		 M1628.8,748.4c-4.1,0-6.2,3.5-6.2,8.3s2.2,8.3,6.2,8.3c4.2,0,6.3-3.5,6.3-8.3S1632.9,748.4,1628.8,748.4z"/>
	<path class="st0" d="M1654.9,768.5c-2,0-3.9-0.3-5.8-1v9l-4.3,0.6v-31.8h3.4l0.5,3.3c1.8-2.3,4.5-3.7,7.4-3.8c4.9,0,9,3.7,9,11.3
		C1665.2,764.4,1660.4,768.5,1654.9,768.5L1654.9,768.5z M1655.5,748.6c-2.6,0-4.6,1.6-6.4,4v11c1.7,0.9,3.6,1.3,5.6,1.2
		c3.6,0,6.2-2.9,6.2-8.6C1660.9,751.3,1658.7,748.6,1655.5,748.6L1655.5,748.6z"/>
	<path class="st0" d="M1678.4,768.6c-4,0-6.7-1.4-6.7-6v-13.7h-3.5v-3.6h3.5v-7.6l4.2-0.6v8.3h4.9l0.6,3.6h-5.5v12.9
		c0,1.9,0.8,3,3.2,3c0.7,0,1.3,0,2-0.1l0.6,3.7C1680.6,768.5,1679.5,768.6,1678.4,768.6L1678.4,768.6z"/>
	<path class="st0" d="M1689.3,740.7c-1.5,0-2.7-1.2-2.7-2.7c0-1.5,1.2-2.7,2.7-2.7c1.5,0,2.7,1.3,2.7,2.8
		C1692,739.5,1690.8,740.7,1689.3,740.7z M1687.2,768.2v-22.9h4.3v22.9H1687.2z"/>
	<path class="st0" d="M1707.7,768.7c-6.1,0-10.5-4.4-10.5-11.9s4.4-12,10.5-12s10.7,4.4,10.7,12S1713.9,768.7,1707.7,768.7z
		 M1707.7,748.4c-4.1,0-6.2,3.5-6.2,8.3s2.2,8.3,6.2,8.3c4.2,0,6.3-3.5,6.3-8.3S1711.8,748.4,1707.7,748.4z"/>
	<path class="st0" d="M1738.2,768.2v-15.6c0-2.3-1-3.9-3.5-3.9c-2.3,0-4.6,1.5-6.6,3.7v15.8h-4.3v-22.9h3.4l0.5,3.3
		c2.2-2,4.8-3.8,8.1-3.8c4.3,0,6.6,2.6,6.6,6.7v16.7H1738.2z"/>
	<path class="st0" d="M1756.1,768.7c-2.9-0.1-5.8-0.8-8.3-2.2l0.6-4c2.4,1.7,5.2,2.6,8.1,2.6c2.9,0,4.7-1.1,4.7-3
		c0-2.1-1.3-2.9-5.4-3.9c-5.4-1.3-7.5-3-7.5-7.1c0-3.7,3.1-6.3,8.1-6.3c2.6,0,5.2,0.5,7.5,1.5l-0.7,4c-2.1-1.2-4.5-1.9-7-2
		c-2.6,0-3.9,1-3.9,2.6s1.2,2.4,4.8,3.3c5.7,1.4,8.2,3.1,8.2,7.4C1765.1,766,1762,768.7,1756.1,768.7L1756.1,768.7z"/>
	<path class="st0" d="M1770.6,774.6l-2.3-0.6l2.4-11.5h4.9L1770.6,774.6z"/>
	<path class="st0" d="M1801.1,768.7c-6,0-10.6-3.6-10.6-12c0-7.3,4.3-11.9,10.1-11.9c6.7,0,9.8,5.1,9.8,11.5v0.9h-15.6
		c0.1,5.3,2.7,7.8,6.7,7.8c3.3,0,5.7-1.3,8.2-3.3l0.6,3.8C1807.6,767.7,1804.4,768.7,1801.1,768.7L1801.1,768.7z M1794.9,754h11
		c-0.5-3.7-2.2-5.8-5.5-5.8C1797.9,748.2,1795.6,750.1,1794.9,754z"/>
	<path class="st0" d="M1825.1,768.3h-4.1l-8.1-22.7l4.3-0.7l6,18.1l5.8-17.8h4.4L1825.1,768.3z"/>
	<path class="st0" d="M1846.2,768.7c-6,0-10.6-3.6-10.6-12c0-7.3,4.3-11.9,10.1-11.9c6.7,0,9.8,5.1,9.8,11.5v0.9h-15.6
		c0.1,5.3,2.7,7.8,6.7,7.8c3.3,0,5.7-1.3,8.2-3.3l0.6,3.8C1852.8,767.7,1849.6,768.7,1846.2,768.7L1846.2,768.7z M1840.1,754h11
		c-0.5-3.7-2.2-5.8-5.5-5.8C1843,748.2,1840.8,750.1,1840.1,754z"/>
	<path class="st0" d="M1875.3,768.2v-15.6c0-2.3-1-3.9-3.5-3.9c-2.3,0-4.6,1.5-6.6,3.7v15.8h-4.3v-22.9h3.4l0.5,3.3
		c2.2-2,4.8-3.8,8.1-3.8c4.3,0,6.6,2.6,6.6,6.7v16.7H1875.3z"/>
	<path class="st0" d="M1894,768.6c-4,0-6.7-1.4-6.7-6v-13.7h-3.5v-3.6h3.5v-7.6l4.2-0.6v8.3h4.9l0.6,3.6h-5.5v12.9
		c0,1.9,0.8,3,3.2,3c0.7,0,1.3,0,2-0.1l0.6,3.7C1896.2,768.5,1895.1,768.6,1894,768.6L1894,768.6z"/>
	<path class="st0" d="M1909.3,768.7c-2.9-0.1-5.8-0.8-8.3-2.2l0.6-4c2.4,1.7,5.2,2.6,8.1,2.6c2.9,0,4.7-1.1,4.7-3
		c0-2.1-1.3-2.9-5.4-3.9c-5.4-1.3-7.5-3-7.5-7.1c0-3.7,3.1-6.3,8.1-6.3c2.6,0,5.2,0.5,7.5,1.5l-0.7,4c-2.1-1.2-4.5-1.9-7-2
		c-2.6,0-3.9,1-3.9,2.6s1.2,2.4,4.8,3.3c5.7,1.4,8.2,3.1,8.2,7.4C1918.3,766,1915.2,768.7,1909.3,768.7L1909.3,768.7z"/>
	<path class="st0" d="M1923.8,774.6l-2.3-0.6l2.4-11.5h4.9L1923.8,774.6z"/>
	<path class="st0" d="M1958.9,768.2l-0.5-3.1c-2.1,2.3-5,3.6-8.1,3.5c-4.1,0-6.7-2.5-6.7-6.4c0-5.7,4.9-8,14.4-9v-1
		c0-2.9-1.7-3.9-4.4-3.9c-2.8,0.1-5.4,0.8-7.9,2l-0.6-3.7c2.8-1.2,5.8-1.9,8.9-1.9c5.6,0,8.3,2.3,8.3,7.3v16L1958.9,768.2z
		 M1958.1,756.6c-8.4,0.8-10.2,3.1-10.2,5.5c0,1.9,1.2,3.1,3.4,3.1c2.6-0.1,5.1-1.3,6.8-3.2L1958.1,756.6z"/>
	<path class="st0" d="M1983.4,768.2v-15.6c0-2.3-1-3.9-3.5-3.9c-2.3,0-4.6,1.5-6.6,3.7v15.8h-4.2v-22.9h3.4l0.5,3.3
		c2.2-2,4.8-3.8,8.1-3.8c4.3,0,6.6,2.6,6.6,6.7v16.7H1983.4z"/>
	<path class="st0" d="M2010,768.2l-0.5-3.3c-1.8,2.3-4.5,3.7-7.4,3.8c-4.9,0-9-3.6-9-11.3c0-8.3,4.8-12.4,10.4-12.4
		c2,0,3.9,0.3,5.8,1v-11.8l4.3-0.7v34.7L2010,768.2z M2009.1,749.9c-1.7-0.9-3.7-1.4-5.6-1.3c-3.6,0-6.2,2.9-6.2,8.6
		c0,5,2.3,7.7,5.3,7.7c2.6,0,4.7-1.6,6.5-4V749.9z"/>
	<path class="st0" d="M1509.2,835.6c-4,0-6.7-1.4-6.7-6v-13.7h-3.5v-3.6h3.5v-7.6l4.2-0.6v8.3h4.9l0.6,3.6h-5.5v12.9
		c0,1.9,0.8,3,3.2,3c0.7,0,1.3,0,2-0.1l0.6,3.7C1511.4,835.5,1510.3,835.6,1509.2,835.6L1509.2,835.6z"/>
	<path class="st0" d="M1521.9,821.7v13.5h-4.3v-22.9h3.4l0.7,4.7c1.6-2.9,4.6-4.9,8-5.1l0.7,4.1
		C1526.7,816.2,1523.5,818.4,1521.9,821.7L1521.9,821.7z"/>
	<path class="st0" d="M1547.8,835.2l-0.5-3.1c-2.1,2.3-5,3.6-8.1,3.5c-4.1,0-6.7-2.5-6.7-6.4c0-5.7,4.9-8,14.4-9v-1
		c0-2.9-1.7-3.9-4.4-3.9c-2.8,0.1-5.4,0.8-7.9,2l-0.6-3.7c2.8-1.2,5.8-1.9,8.9-1.9c5.6,0,8.3,2.3,8.3,7.3v16L1547.8,835.2z
		 M1547,823.6c-8.4,0.8-10.2,3.1-10.2,5.5c0,1.9,1.2,3.1,3.4,3.1c2.6-0.1,5.1-1.3,6.8-3.2L1547,823.6z"/>
	<path class="st0" d="M1572.3,835.2v-15.6c0-2.3-1-3.9-3.5-3.9c-2.3,0-4.6,1.5-6.6,3.7v15.8h-4.3v-22.9h3.4l0.5,3.3
		c2.2-2,4.8-3.8,8.1-3.8c4.3,0,6.6,2.6,6.6,6.7v16.7H1572.3z"/>
	<path class="st0" d="M1590.1,835.7c-2.9-0.1-5.8-0.8-8.3-2.2l0.6-4c2.4,1.7,5.2,2.6,8.1,2.6c2.9,0,4.7-1.1,4.7-3
		c0-2.1-1.3-2.9-5.4-3.9c-5.4-1.3-7.5-3-7.5-7.1c0-3.7,3.1-6.3,8.1-6.3c2.6,0,5.2,0.5,7.5,1.5l-0.7,4c-2.1-1.2-4.5-1.9-7-2
		c-2.6,0-3.9,1-3.9,2.6s1.2,2.4,4.8,3.3c5.7,1.4,8.2,3.1,8.2,7.4C1599.2,833,1596,835.7,1590.1,835.7L1590.1,835.7z"/>
	<path class="st0" d="M1614.4,835.5c-2,0-3.9-0.3-5.8-1v9l-4.3,0.6v-31.8h3.4l0.5,3.3c1.8-2.3,4.5-3.7,7.4-3.8c4.9,0,9,3.7,9,11.3
		C1624.8,831.4,1620,835.5,1614.4,835.5L1614.4,835.5z M1615.1,815.6c-2.6,0-4.6,1.6-6.4,4v11c1.7,0.9,3.6,1.3,5.6,1.2
		c3.6,0,6.2-2.9,6.2-8.6C1620.5,818.3,1618.2,815.6,1615.1,815.6L1615.1,815.6z"/>
	<path class="st0" d="M1639.4,835.7c-6.1,0-10.5-4.4-10.5-11.9s4.4-12,10.5-12s10.7,4.4,10.7,12S1645.6,835.7,1639.4,835.7z
		 M1639.4,815.4c-4.1,0-6.2,3.5-6.2,8.3s2.2,8.3,6.2,8.3c4.2,0,6.3-3.5,6.3-8.3S1643.6,815.4,1639.4,815.4z"/>
	<path class="st0" d="M1659.8,821.7v13.5h-4.3v-22.9h3.4l0.7,4.7c1.6-2.9,4.6-4.9,8-5.1l0.7,4.1
		C1664.7,816.2,1661.4,818.4,1659.8,821.7L1659.8,821.7z"/>
	<path class="st0" d="M1680.9,835.6c-4,0-6.7-1.4-6.7-6v-13.7h-3.5v-3.6h3.5v-7.6l4.2-0.6v8.3h4.9l0.6,3.6h-5.5v12.9
		c0,1.9,0.8,3,3.2,3c0.7,0,1.3,0,2-0.1l0.6,3.7C1683.1,835.5,1682,835.6,1680.9,835.6L1680.9,835.6z"/>
	<path class="st0" d="M1703.2,835.2l-0.5-3.1c-2.1,2.3-5,3.6-8.1,3.5c-4.1,0-6.7-2.5-6.7-6.4c0-5.7,4.9-8,14.4-9v-1
		c0-2.9-1.7-3.9-4.4-3.9c-2.8,0.1-5.4,0.8-7.9,2l-0.6-3.7c2.8-1.2,5.8-1.9,8.9-1.9c5.6,0,8.3,2.3,8.3,7.3v16L1703.2,835.2z
		 M1702.4,823.6c-8.4,0.8-10.2,3.1-10.2,5.5c0,1.9,1.2,3.1,3.4,3.1c2.6-0.1,5.1-1.3,6.8-3.2L1702.4,823.6z"/>
	<path class="st0" d="M1721,835.6c-4,0-6.7-1.4-6.7-6v-13.7h-3.5v-3.6h3.5v-7.6l4.2-0.6v8.3h4.9l0.6,3.6h-5.5v12.9
		c0,1.9,0.8,3,3.2,3c0.7,0,1.3,0,2-0.1l0.6,3.7C1723.2,835.5,1722.1,835.6,1721,835.6L1721,835.6z"/>
	<path class="st0" d="M1731.9,807.7c-1.5,0-2.7-1.2-2.7-2.7c0-1.5,1.2-2.7,2.7-2.7c1.5,0,2.7,1.2,2.7,2.7
		C1734.6,806.5,1733.4,807.7,1731.9,807.7C1731.9,807.7,1731.9,807.7,1731.9,807.7z M1729.8,835.2v-22.9h4.2v22.9H1729.8z"/>
	<path class="st0" d="M1750.3,835.7c-6.1,0-10.5-4.4-10.5-11.9s4.4-12,10.5-12s10.7,4.4,10.7,12S1756.5,835.7,1750.3,835.7z
		 M1750.3,815.4c-4.1,0-6.2,3.5-6.2,8.3s2.2,8.3,6.2,8.3c4.2,0,6.3-3.5,6.3-8.3S1754.4,815.4,1750.3,815.4z"/>
	<path class="st0" d="M1780.8,835.2v-15.6c0-2.3-1-3.9-3.5-3.9c-2.3,0-4.6,1.5-6.6,3.7v15.8h-4.3v-22.9h3.4l0.5,3.3
		c2.2-2,4.8-3.8,8.1-3.8c4.3,0,6.6,2.6,6.6,6.7v16.7H1780.8z"/>
	<path class="st0" d="M1809.2,835.7c-2.9-0.1-5.8-0.8-8.3-2.2l0.6-4c2.4,1.7,5.2,2.6,8.1,2.6c2.9,0,4.7-1.1,4.7-3
		c0-2.1-1.3-2.9-5.4-3.9c-5.4-1.3-7.5-3-7.5-7.1c0-3.7,3.1-6.3,8.1-6.3c2.6,0,5.2,0.5,7.5,1.5l-0.7,4c-2.1-1.2-4.5-1.9-7-2
		c-2.6,0-3.9,1-3.9,2.6s1.2,2.4,4.8,3.3c5.7,1.4,8.2,3.1,8.2,7.4C1818.2,833,1815.1,835.7,1809.2,835.7L1809.2,835.7z"/>
	<path class="st0" d="M1833,835.7c-6.1,0-10.7-4.3-10.7-11.9c0-7.8,4.8-12,10.8-12c2.7-0.1,5.3,0.6,7.5,2.1l-0.6,4.2
		c-1.9-1.7-4.4-2.6-6.9-2.5c-3.7,0-6.4,2.8-6.4,8.2c0,5.6,2.8,8.2,6.9,8.2c2.5,0.1,4.9-0.8,6.7-2.5l0.6,3.8
		C1838.6,834.9,1835.8,835.8,1833,835.7L1833,835.7z"/>
	<path class="st0" d="M1860.6,835.2v-15.6c0-2.3-1-3.9-3.5-3.9c-2.3,0-4.6,1.5-6.6,3.7v15.8h-4.3v-34l4.3-0.7v14.8
		c1.9-1.7,4.5-3.5,7.8-3.5c4.3,0,6.6,2.6,6.6,6.7v16.7H1860.6z"/>
	<path class="st0" d="M1880.8,835.7c-6,0-10.6-3.6-10.6-12c0-7.3,4.3-11.9,10.1-11.9c6.7,0,9.8,5.1,9.8,11.5v0.9h-15.6
		c0.1,5.3,2.7,7.8,6.7,7.8c3.3,0,5.7-1.3,8.2-3.3l0.6,3.8C1887.3,834.7,1884.1,835.7,1880.8,835.7L1880.8,835.7z M1874.6,821h11
		c-0.5-3.7-2.2-5.8-5.5-5.8C1877.6,815.2,1875.3,817.1,1874.6,821z"/>
	<path class="st0" d="M1911.1,835.2l-0.5-3.3c-1.8,2.3-4.5,3.7-7.4,3.8c-4.9,0-9-3.6-9-11.3c0-8.3,4.8-12.4,10.4-12.4
		c2,0,3.9,0.3,5.8,1v-11.8l4.3-0.7v34.7L1911.1,835.2z M1910.2,816.9c-1.7-0.9-3.7-1.4-5.6-1.3c-3.6,0-6.2,2.9-6.2,8.6
		c0,5,2.3,7.7,5.3,7.7c2.6,0,4.7-1.6,6.5-4V816.9z"/>
	<path class="st0" d="M1936.4,835.2l-0.5-3.3c-2.2,2-4.9,3.8-8.1,3.8c-4.4,0-6.6-2.6-6.6-6.7v-16.7h4.3v15.6c0,2.3,1,3.9,3.5,3.9
		c2.3,0,4.6-1.5,6.6-3.7v-15.8h4.3v22.9H1936.4z"/>
	<path class="st0" d="M1946.9,835.2v-34l4.3-0.7v34.7L1946.9,835.2z"/>
	<path class="st0" d="M1967.5,835.7c-6,0-10.6-3.6-10.6-12c0-7.3,4.3-11.9,10.1-11.9c6.7,0,9.8,5.1,9.8,11.5v0.9h-15.6
		c0.1,5.3,2.7,7.8,6.7,7.8c3.3,0,5.7-1.3,8.2-3.3l0.6,3.8C1974.1,834.7,1970.8,835.7,1967.5,835.7L1967.5,835.7z M1961.4,821h11
		c-0.5-3.7-2.2-5.8-5.5-5.8C1964.3,815.2,1962,817.1,1961.4,821z"/>
	<path class="st0" d="M1989.1,835.7c-2.9-0.1-5.8-0.8-8.3-2.2l0.6-4c2.4,1.7,5.2,2.6,8.1,2.6c2.9,0,4.7-1.1,4.7-3
		c0-2.1-1.3-2.9-5.4-3.9c-5.4-1.3-7.5-3-7.5-7.1c0-3.7,3.1-6.3,8.1-6.3c2.6,0,5.2,0.5,7.5,1.5l-0.7,4c-2.1-1.2-4.5-1.9-7-2
		c-2.6,0-3.9,1-3.9,2.6s1.2,2.4,4.8,3.3c5.7,1.4,8.2,3.1,8.2,7.4C1998.1,833,1995,835.7,1989.1,835.7z"/>
	<path class="st0" d="M2003.1,835.2v-5.7h4.8v5.7H2003.1z"/>
</g>
<path class="st1" d="M1664.2,118c5.5-10.3,14.5-18.3,25.4-22.5c39.7-16.2,99.7,0.8,135.4,20.7c16.3,9,44.1,24.9,51.5,43.1
	c8.7,21.5-4.9,57.5-16.2,75.6c-8.9,14.2-15.7,17-11,33.9c3.5,12.6,22.3,37.8,2,48c-10.4,5.2-21.6-5-29.2-14
	c-13.5-16.1-23.8-23.1-46.3-20c-10.9,1.5-21.9,7.6-26.1,17.8c-0.9,2.3-1.5,4.8-2.9,6.9c-4.7,7.4-16.5,6.7-23,0.9
	s-9.1-14.8-11.3-23.3c-7.1-26.8-8.9-45.6-30.2-62.2c-27.4-21.3-37.2-33.1-29.9-67.4C1655.3,141.8,1658.2,128.8,1664.2,118
	L1664.2,118z"/>
<path class="st2" d="M1884.6,380.4c-1.2-6.1-8.8-10.4-18.5-15.9c-5.9-3.4-12.7-7.2-14.9-10.1c-4.7-6.1-6.6-22-6.1-31.5
	c0.2-4.6,6.6-20.8,12.8-36.5c9.4-24,20.2-51.3,21.4-66.4c2.8-33.8-6.6-79.9-41.7-107.8c-16-12.7-45.3-27.1-79.5-29
	c-27.1-1.5-66.1,4.7-97.8,43c-15.1,18.3-23.1,32.5-23.6,42.2c0,0.6-2.5,54.9,1.9,61.1c0.6,0.8,1.2,1.6,1.9,2.5
	c1.6,1.8,2.8,3.8,3.8,6c-0.5,1.8-3.4,8.6-17.4,33.6l-1,1.8c-3.2,6.8-1.8,14.9,3.6,20.1c2.9,1.9,6,3.2,9.3,4c1.6,0.5,4,1.3,5.5,1.9
	c-0.2,2.8-0.9,5.5-1.9,8c-3.7,6.4,3.3,11.6,7.9,14.8c-1,1.3-1.7,2.8-2.1,4.3c-0.4,2.8,0.4,5.7,2.3,7.9c1,1.4,1.7,2.9,2.4,4.4
	c0.1,5-0.3,9.9-1.2,14.8l-0.6,4.8c-1.5,11.6,10.9,20.2,19.5,23.2c3.1,1.1,26,0.9,37.3-1.9c7.4,16.4,13.2,33.5,17.3,51
	c0.3,1.5,1.3,2.8,2.6,3.6c1.3,0.8,6,1.1,12.7,1.1c19.6,0,56.5-3.1,75.4-8.3c13-3.5,30.6-13,42.9-20.7
	C1886.4,389.3,1885.2,383.4,1884.6,380.4z M1711.5,378.9c0.7-0.3,1.4-0.7,2-1.2C1712.9,378.2,1712.2,378.6,1711.5,378.9
	L1711.5,378.9z M1812.9,416.8c-23.6,6.5-65.6,8.3-77.8,8c-2.8-11.2-6.3-22.2-10.3-33.1c-8.3-22-10.9-22.8-13.2-23.5
	c-1.7-0.5-3.5-0.2-5,0.8c-10.7,1.9-21.6,2.7-32.5,2.4c-6.2-2.1-12.7-7.3-12.2-11.4l0.6-4.8c1.2-9.5,2.1-15.7,0.7-19.7
	c-0.9-2.4-2.1-4.7-3.5-6.8l-0.2-0.3l0.7-0.6c1.8-1.4,3-3.5,3.1-5.8c0-2-0.8-3.8-2.2-5.2c-1.3-1.1-2.6-2.2-4.1-3.1
	c-1-0.7-2.8-2-4.1-3c1.8-4.7,2.6-9.6,2.3-14.6c-0.8-4.9-5.9-6.5-13-8.8c-1.9-0.6-3.7-1.2-5.5-2c-1.3-1.9-1.6-4.2-1-6.3l1-1.8
	c17.2-31,18.6-36,18.6-38.7c0-5.1-3.5-9.5-6.3-13l-1.2-1.5c-1.3-6.1-1-41.1-0.3-54.6c0.4-7.1,8.1-20.1,21.1-35.8
	c52.8-63.9,133.4-35.3,162-12.4c40.9,32.7,38.6,87.6,37.6,98.3c-1.1,13.5-12,41.1-20.7,63.4c-8.4,21.4-13.2,33.9-13.5,40
	c-0.4,7.3,0.5,28.5,8.5,38.8c3.6,4.7,10.7,8.7,18.2,12.9c4.4,2.3,8.5,4.9,12.4,7.9C1867.1,389.5,1833.7,411.2,1812.9,416.8
	L1812.9,416.8z"/>
<path class="st2" d="M1755.8,145.7c-30.1,0-55.5,24.4-55.5,53.4c0,18.5,9.2,32.8,16,43.3c2.7,3.7,4.9,7.7,6.6,11.9
	c1,3.7,1.8,7.2,2.4,10.3c0.6,3.4,1.5,6.8,2.6,10.1c0,0.2,0,0.4,0,0.6l0.3,16.8c0,15.4,12.5,27.9,27.9,27.9
	c15.4,0,27.9-12.5,27.9-27.9c0,0,0-0.1,0-0.1l-0.3-16.9v-0.4c1.1-3.3,2-6.7,2.6-10.1c0.7-3.1,1.4-6.6,2.4-10.3
	c1.7-4.2,3.9-8.2,6.6-11.9c6.8-10.4,16-24.8,16-43.3C1811.3,170.2,1785.9,145.7,1755.8,145.7L1755.8,145.7z M1756.1,309
	c-6,0-11.5-3.1-14.5-8.3c4.3,0.5,8.5,0.7,12.8,0.7c3-0.2,5.4-2.8,5.2-5.8c-0.2-2.8-2.4-5-5.2-5.2c-5.1,0-10.2-0.4-15.2-1.2v-6.6
	c5.5,0.8,11,1.2,16.5,1.2c2.5,0,5,0,7.5-0.3h0.3c3.8-0.3,7.1-0.7,9.5-1.1l0.2,9.6C1773.2,301.6,1765.5,309.1,1756.1,309L1756.1,309z
	 M1753,235.5l-11-26.7l13.8-5.5l13.2,5.4l-11,26.7c-0.3,0.7-0.4,1.4-0.4,2.1v35.3h-4.1v-35.2C1753.5,236.9,1753.3,236.2,1753,235.5
	L1753,235.5z M1786.1,236.4c-3.4,4.6-6.1,9.6-8,15c-1.1,4.1-1.9,7.7-2.6,11c-0.6,3-1.3,6-2.3,8.9c-1.2,0.2-2.8,0.4-4.7,0.7v-33.3
	l12.8-30.9l2.3-5.5c1-2.9-0.4-6-3.3-7.1c-2.7-1-5.7,0.3-6.9,2.9l-0.2,0.6l-15.3-6.2c-1.3-0.5-2.8-0.5-4.1,0l-16.1,6.4l-0.2-0.6
	c-1-2.9-4.2-4.3-7.1-3.3c-2.9,1-4.3,4.2-3.3,7.1c0.1,0.2,0.1,0.3,0.2,0.5l15.1,36.4V272c-1.6-0.2-3-0.4-3.9-0.6
	c-1-2.9-1.8-5.9-2.3-9c-0.7-3.2-1.5-6.9-2.6-11c-1.9-5.4-4.6-10.4-8-15c-6.3-9.8-14.2-22-14.2-37.2c0-23,20.4-42.4,44.4-42.4
	s44.4,19.3,44.4,42.4C1800.2,214.5,1792.4,226.6,1786.1,236.4L1786.1,236.4z"/>
<path class="st2" d="M1683.9,196.5h-13.2c-3-0.2-5.6,2.1-5.8,5.2s2.1,5.6,5.2,5.8c0.2,0,0.4,0,0.7,0h13.2c3,0.2,5.6-2.1,5.8-5.2
	s-2.1-5.6-5.2-5.8C1684.4,196.5,1684.1,196.5,1683.9,196.5z"/>
<path class="st2" d="M1846.5,202c0-3-2.5-5.5-5.5-5.5l0,0h-13.2c-3-0.2-5.6,2.1-5.8,5.2s2.1,5.6,5.2,5.8c0.2,0,0.4,0,0.7,0h13.2
	C1844,207.5,1846.5,205,1846.5,202z"/>
<path class="st2" d="M1755.4,135.6c3,0,5.5-2.5,5.5-5.5l0,0v-13.3c-0.2-3-2.8-5.4-5.8-5.2c-2.8,0.2-5,2.4-5.2,5.2v13.2
	C1749.9,133.1,1752.3,135.6,1755.4,135.6L1755.4,135.6L1755.4,135.6z"/>
<path class="st2" d="M1700.6,155c2.2,2.2,5.6,2.2,7.8,0c2.2-2.2,2.2-5.6,0-7.8l0,0l-9.4-9.4c-2.2-2.2-5.6-2.2-7.8,0
	c-2.2,2.2-2.2,5.6,0,7.8L1700.6,155z"/>
<path class="st2" d="M1810.1,248.9c-1.9-2.4-5.4-2.7-7.8-0.8c-2.4,1.9-2.7,5.4-0.8,7.8c0.2,0.3,0.5,0.5,0.8,0.8l9.4,9.4
	c2.2,2.2,5.6,2.2,7.8,0s2.2-5.6,0-7.8L1810.1,248.9z"/>
<path class="st2" d="M1805.9,156.4c1.5,0,2.9-0.6,3.9-1.6l9.4-9.4c2.2-2.2,2.2-5.6,0-7.8c-2.2-2.2-5.6-2.2-7.8,0l0,0l-9.4,9.4
	c-2.1,2.2-2.1,5.6,0,7.8C1803.1,155.7,1804.5,156.3,1805.9,156.4L1805.9,156.4z"/>
<path class="st2" d="M1700.3,248.6l-9.3,9.4c-2.2,2.2-2.2,5.6,0,7.8s5.6,2.2,7.8,0l9.4-9.4c2.2-2.2,2.2-5.6,0-7.8
	C1706,246.5,1702.5,246.5,1700.3,248.6L1700.3,248.6L1700.3,248.6z"/>
</svg>
