<?xml version="1.0" encoding="utf-8"?>
<!-- Generator: Adobe Illustrator 23.1.1, SVG Export Plug-In . SVG Version: 6.00 Build 0)  -->
<svg version="1.1" id="Layer_1" xmlns="http://www.w3.org/2000/svg" xmlns:xlink="http://www.w3.org/1999/xlink" x="0px" y="0px"
	 viewBox="0 0 890.3 357.6" style="enable-background:new 0 0 890.3 357.6;" xml:space="preserve">
<style type="text/css">
	.st0{fill:#DDDDDD;}
	.st1{fill:#2B2B7A;}
	.st2{fill:#FFFFFF;}
</style>
<g>
	<g>
		<path class="st0" d="M39.6,47.9H159c6.6,0,12,5.4,12,12v172.4c0,6.6-5.4,12-12,12H39.6c-6.6,0-12-5.4-12-12V59.9
			C27.6,53.2,33,47.9,39.6,47.9z"/>
		<path class="st1" d="M39.6,253.8H159c6.6,0,12,5.4,12,12v30.1c0,6.6-5.4,12-12,12H39.6c-6.6,0-12-5.4-12-12v-30.1
			C27.6,259.2,33,253.8,39.6,253.8z"/>
		<path class="st1" d="M74.1,79.7h-1.3v5.6h-2.9V70.1h4.4c3.5,0,5.6,1.6,5.6,4.7C79.9,78,77.6,79.7,74.1,79.7z M74.2,72.4h-1.4v4.9
			h1.3c1.9,0,3-0.8,3-2.5C77.1,73.2,76.1,72.4,74.2,72.4z"/>
		<path class="st1" d="M87.4,85.2l-0.2-1.3c-0.9,1-2.2,1.6-3.5,1.6c-1.5,0.1-2.9-1-3-2.5c0-0.1,0-0.3,0-0.4c0-2.6,2.1-3.7,6.4-4.1
			v-0.3c0-1.1-0.7-1.6-1.8-1.6c-1.2,0-2.4,0.3-3.5,0.9l-0.3-2.1c1.3-0.6,2.8-0.9,4.2-0.9c2.8,0,4.1,1,4.1,3.6v7.3L87.4,85.2z
			 M87.1,79.9c-3.1,0.4-3.8,1.3-3.8,2.3c-0.1,0.6,0.4,1.2,1,1.3c0.1,0,0.2,0,0.3,0c0.9,0,1.8-0.4,2.5-1.1V79.9z"/>
		<path class="st1" d="M95,79.2v6.1h-2.6V74.6h2.2l0.3,2.1c0.6-1.3,1.9-2.2,3.4-2.3l0.4,2.6C97.2,77.1,95.8,77.9,95,79.2z"/>
		<path class="st1" d="M104.6,85.4c-2.1,0-3.5-0.8-3.5-3.2v-5.5h-1.5v-2.2h1.5v-3.4l2.6-0.4v3.8h2.2l0.3,2.2h-2.5v5
			c0,0.9,0.4,1.3,1.4,1.3c0.3,0,0.6,0,0.8-0.1l0.3,2.2C105.8,85.4,105.2,85.4,104.6,85.4z"/>
		<path class="st1" d="M115.4,85.2V73.1l-3,1.2l-0.3-2.2l3.7-1.7h2.5v14.9L115.4,85.2z"/>
		<path class="st1" d="M121.4,77.8v-3.2h2.9v3.2H121.4z M121.4,85.2V82h2.9v3.2H121.4z"/>
		<path class="st1" d="M45.4,111.6V96.5h1.5v15.1H45.4z"/>
		<path class="st1" d="M57.5,111.6v-7.1c0-1.3-0.6-2.2-1.9-2.2c-1.3,0.1-2.5,0.8-3.4,1.8v7.5h-1.4v-10.4h1.1l0.3,1.5
			c1-1,2.3-1.7,3.7-1.8c2.1,0,3.1,1.2,3.1,3.2v7.4L57.5,111.6z"/>
		<path class="st1" d="M65.5,111.8c-1.6,0-2.7-0.6-2.7-2.6v-6.7h-1.6v-1.3h1.6v-3.6l1.4-0.2v3.8h2.4l0.2,1.2h-2.6v6.6
			c0,1.1,0.4,1.5,1.5,1.5c0.3,0,0.7,0,1-0.1l0.2,1.2C66.5,111.8,66,111.8,65.5,111.8z"/>
		<path class="st1" d="M71,105.1v6.5h-1.5v-10.4h1.1l0.3,2.1c0.8-1.3,2.2-2.2,3.7-2.3l0.2,1.4C73.2,102.6,71.8,103.6,71,105.1z"/>
		<path class="st1" d="M80.8,111.9c-2.7,0-4.7-2-4.7-5.4s2-5.4,4.7-5.4c2.7,0,4.7,2,4.7,5.4S83.4,111.9,80.8,111.9z M80.8,102.2
			c-2.1,0-3.2,1.7-3.2,4.2s1.1,4.2,3.2,4.2c2.1,0,3.2-1.7,3.2-4.2C84,103.9,82.8,102.2,80.8,102.2L80.8,102.2z"/>
		<path class="st1" d="M95.4,111.6l-0.2-1.5c-0.8,1.1-2,1.7-3.3,1.7c-2.3,0-4.2-1.6-4.2-5.1c0-3.8,2.2-5.7,4.8-5.7
			c0.9,0,1.9,0.2,2.7,0.5V96l1.4-0.3v15.8L95.4,111.6z M95.1,102.9c-0.8-0.4-1.7-0.6-2.7-0.6c-1.9,0-3.3,1.4-3.3,4.3
			c0,2.5,1.2,3.9,2.9,3.9c1.3-0.1,2.4-0.8,3.1-1.9V102.9z"/>
		<path class="st1" d="M106.9,111.6l-0.2-1.5c-1,1-2.3,1.7-3.7,1.8c-2.1,0-3.1-1.2-3.1-3.2v-7.4h1.4v7.2c0,1.3,0.6,2.1,1.9,2.1
			c1.3-0.1,2.5-0.8,3.4-1.8v-7.5h1.4v10.4L106.9,111.6L106.9,111.6z"/>
		<path class="st1" d="M115.5,111.9c-2.6,0-4.7-2-4.7-5.4s2.1-5.4,4.8-5.4c1.2,0,2.4,0.4,3.4,1.1l-0.2,1.4c-0.9-0.8-2-1.2-3.2-1.2
			c-2,0-3.2,1.6-3.2,4.2c0,2.6,1.3,4.2,3.4,4.2c1.2,0,2.3-0.4,3.2-1.2l0.2,1.3C118.1,111.5,116.8,111.9,115.5,111.9L115.5,111.9z"/>
		<path class="st1" d="M124.9,111.8c-1.6,0-2.7-0.6-2.7-2.6v-6.7h-1.6v-1.3h1.6v-3.6l1.4-0.2v3.8h2.4l0.2,1.3h-2.6v6.6
			c0,1.1,0.4,1.5,1.5,1.5c0.3,0,0.7,0,1-0.1l0.2,1.2C125.9,111.8,125.4,111.8,124.9,111.8z"/>
		<path class="st1" d="M129.9,98.7c-0.6,0.1-1.1-0.4-1.2-1c-0.1-0.6,0.4-1.1,1-1.2c0.1,0,0.1,0,0.2,0c0.6,0.1,1,0.6,1,1.2
			C130.8,98.3,130.4,98.7,129.9,98.7z M129.1,111.6v-10.4h1.4v10.4H129.1z"/>
		<path class="st1" d="M138.1,111.9c-2.7,0-4.7-2-4.7-5.4s2-5.4,4.7-5.4s4.7,2,4.7,5.4S140.8,111.9,138.1,111.9z M138.1,102.2
			c-2.1,0-3.2,1.7-3.2,4.2s1.1,4.2,3.2,4.2c2.1,0,3.2-1.7,3.2-4.2C141.3,103.9,140.2,102.2,138.1,102.2L138.1,102.2z"/>
		<path class="st1" d="M152.4,111.6v-7.1c0-1.3-0.6-2.2-1.9-2.2c-1.3,0.1-2.5,0.8-3.4,1.8v7.5h-1.4v-10.4h1.1l0.2,1.5
			c1-1,2.3-1.7,3.7-1.8c2.1,0,3.1,1.2,3.1,3.2v7.4L152.4,111.6z"/>
		<path class="st1" d="M72.4,138.2c-1.6,0-2.7-0.6-2.7-2.6v-6.8h-1.6v-1.2h1.6V124l1.4-0.2v3.8h2.4l0.2,1.2h-2.6v6.6
			c0,1.1,0.4,1.5,1.5,1.5c0.3,0,0.7,0,1-0.1l0.2,1.2C73.4,138.2,72.9,138.2,72.4,138.2L72.4,138.2z"/>
		<path class="st1" d="M80.4,138.3c-2.7,0-4.7-2-4.7-5.4s2-5.4,4.7-5.4c2.7,0,4.7,2,4.7,5.4S83,138.3,80.4,138.3z M80.4,128.6
			c-2.1,0-3.2,1.7-3.2,4.2s1.1,4.2,3.2,4.2s3.2-1.7,3.2-4.2S82.5,128.6,80.4,128.6L80.4,128.6z"/>
		<path class="st1" d="M96.5,138.2c-1.4,0-2.8-0.3-4-0.9l0.2-1.5c1.2,0.7,2.5,1.1,3.9,1.1c1.8,0,3.1-1,3.1-2.7
			c0-1.5-0.8-2.2-3.1-3.3c-2.9-1.3-4-2.2-4-4.4c0-2.3,1.8-3.8,4.4-3.8c1.2,0,2.3,0.2,3.3,0.8l-0.2,1.5c-0.9-0.6-2.1-1-3.2-1
			c-1.3-0.2-2.6,0.8-2.8,2.1c0,0.1,0,0.2,0,0.3c0,1.4,0.7,2,3.1,3.1c2.8,1.2,4,2.3,4,4.6C101.2,136.6,99.1,138.2,96.5,138.2z"/>
		<path class="st1" d="M109.1,122.8h1.6l5.9,15.1l-1.5,0.3l-2-5.1h-6.6l-1.9,4.9h-1.5L109.1,122.8z M107.1,131.8h5.6l-2.8-7.3
			L107.1,131.8z"/>
		<path class="st1" d="M125.1,138.3c-4.1,0-6.9-3.2-6.9-7.9c0-4.7,2.8-7.9,7-7.9c1.5,0,3,0.4,4.3,1.3l-0.2,1.5
			c-1.1-0.9-2.5-1.4-4-1.5c-3.3,0-5.4,2.6-5.4,6.5c0,3.9,2.1,6.5,5.4,6.5c1.6,0,3.1-0.6,4.3-1.6l0.2,1.4
			C128.4,137.8,126.8,138.3,125.1,138.3z"/>
		<path class="st1" d="M102.5,164.6l-2.4-2.4c-1.2,1.6-3,2.5-5,2.5c-3,0-4.8-1.6-4.8-4.1c0-2.3,1.5-3.6,3.6-4.6
			c-1-0.9-1.6-2.1-1.6-3.5c0-2,1.5-3.5,4-3.5c1.3,0,2.5,0.3,3.6,0.9l-0.3,1.6c-1-0.7-2.2-1.1-3.4-1.2c-1.2-0.1-2.2,0.7-2.4,1.9
			c0,0.1,0,0.2,0,0.3c0,1.1,0.5,1.9,1.6,3l4.4,4.5c0.6-1.4,1.1-2.9,1.2-4.4l1.4,0.3c-0.3,1.8-0.8,3.5-1.7,5.1l3.2,3.2L102.5,164.6z
			 M99.1,161.2l-4.4-4.3c-1.9,0.8-3,2-3,3.6c0,1.7,1.4,3,3.1,2.9c0.1,0,0.2,0,0.2,0C96.7,163.4,98.2,162.6,99.1,161.2L99.1,161.2z"
			/>
		<path class="st1" d="M64,191c-0.9,0-1.8-0.2-2.7-0.5v4.2l-1.5,0.2v-14.4h1.1l0.2,1.5c0.8-1.1,2-1.7,3.4-1.7c2.3,0,4.2,1.6,4.2,5.1
			C68.7,189.2,66.5,191,64,191L64,191z M64.4,181.5c-1.3,0.1-2.4,0.8-3.1,1.9v5.7c0.8,0.4,1.7,0.6,2.7,0.6c1.9,0,3.3-1.4,3.3-4.3
			C67.3,182.9,66.1,181.5,64.4,181.5L64.4,181.5z"/>
		<path class="st1" d="M73,184.3v6.5h-1.5v-10.4h1.1l0.3,2.1c0.8-1.3,2.2-2.2,3.7-2.4l0.2,1.4C75.2,181.8,73.7,182.8,73,184.3z"/>
		<path class="st1" d="M82.7,191.1c-2.7,0-4.7-2-4.7-5.4s2-5.4,4.7-5.4c2.7,0,4.7,2,4.7,5.4S85.4,191.1,82.7,191.1z M82.7,181.4
			c-2.1,0-3.2,1.7-3.2,4.2s1.1,4.2,3.2,4.2c2.1,0,3.2-1.7,3.2-4.2S84.8,181.4,82.7,181.4L82.7,181.4z"/>
		<path class="st1" d="M93.8,194.8c-2.7,0-4.8-0.9-4.8-2.7c0-1.1,0.8-2,2.4-2.8c-0.4-0.2-0.7-0.6-0.8-1.1c0-0.5,0.3-1,1-1.4
			c-1.2-0.6-1.9-1.8-1.9-3.1c0-2,1.7-3.6,3.7-3.5c0.1,0,0.1,0,0.2,0c1,0,1.9,0.3,2.6,0.9l2.6-0.8l0.2,1.4l-2.1,0.2
			c0.4,0.5,0.6,1.2,0.6,1.9c0,2-1.7,3.6-3.7,3.5c-0.1,0-0.1,0-0.2,0c-0.3,0-0.6,0-0.9-0.1c-0.4,0.2-0.7,0.5-0.7,0.8
			c0,0.4,0.4,0.6,2.3,0.9l0.8,0.1c2.3,0.4,3.6,1.1,3.6,2.6C98.7,193.7,96.4,194.8,93.8,194.8L93.8,194.8z M92.5,189.8
			c-1.4,0.7-2.1,1.4-2.1,2.2c0,1.1,1.4,1.7,3.4,1.7s3.5-0.8,3.5-1.9c0-0.8-0.7-1.2-2.5-1.6l-1-0.2C93.3,190,92.9,189.9,92.5,189.8
			L92.5,189.8z M93.6,181.3c-1.4,0-2.4,1.2-2.4,2.5c0,1.4,1.2,2.4,2.5,2.4s2.4-1.1,2.4-2.5c0-1.3-1-2.4-2.3-2.5
			C93.7,181.3,93.6,181.3,93.6,181.3L93.6,181.3z"/>
		<path class="st1" d="M102.7,184.3v6.5h-1.5v-10.4h1.1l0.3,2.1c0.8-1.3,2.2-2.2,3.7-2.4l0.2,1.4
			C104.9,181.8,103.4,182.8,102.7,184.3z"/>
		<path class="st1" d="M114.8,190.8l-0.2-1.4c-1,1-2.3,1.6-3.7,1.6c-1.8,0-3.1-1-3.1-2.8c0-2.4,2-3.6,6.7-4v-0.7c0-1.4-0.8-2-2.2-2
			c-1.3,0-2.5,0.3-3.6,0.9l-0.2-1.3c1.2-0.6,2.5-0.9,3.9-0.9c2.3,0,3.5,1.1,3.5,3.2v7.4H114.8z M114.4,185.3
			c-4.1,0.4-5.2,1.4-5.2,2.8c0,0.9,0.7,1.7,1.6,1.7c0.1,0,0.2,0,0.3,0c1.3-0.1,2.5-0.6,3.4-1.6L114.4,185.3z"/>
		<path class="st1" d="M132.4,190.8v-7.2c0-1.3-0.6-2.2-1.9-2.2c-1.3,0.1-2.5,0.8-3.3,1.8v7.6h-1.4v-7.2c0-1.3-0.6-2.2-1.9-2.2
			c-1.3,0.1-2.5,0.8-3.3,1.8v7.6h-1.4v-10.4h1.1l0.2,1.5c1-1,2.3-1.6,3.7-1.7c1.3-0.2,2.5,0.6,2.9,1.8c1-1.1,2.3-1.7,3.8-1.8
			c2.1,0,3,1.2,3,3.2v7.5h-1.5V190.8z"/>
		<path class="st1" d="M63.8,217.2v-15.5l1.4-0.2v15.8L63.8,217.2z"/>
		<path class="st1" d="M72.8,217.5c-2.7,0-4.7-2-4.7-5.4s2-5.4,4.7-5.4c2.7,0,4.7,2,4.7,5.4S75.4,217.5,72.8,217.5z M72.8,207.9
			c-2.1,0-3.2,1.7-3.2,4.2s1.1,4.2,3.2,4.2c2.1,0,3.2-1.7,3.2-4.2S74.9,207.9,72.8,207.9L72.8,207.9z"/>
		<path class="st1" d="M83.8,221.2c-2.7,0-4.8-0.9-4.8-2.7c0-1.1,0.8-2,2.4-2.8c-0.4-0.2-0.7-0.6-0.8-1.1c0-0.5,0.3-1,1-1.4
			c-1.2-0.6-1.9-1.8-1.9-3.1c0-2,1.7-3.6,3.7-3.5c0.1,0,0.1,0,0.2,0c1,0,1.9,0.3,2.6,0.9l2.6-0.8l0.2,1.4l-2.1,0.2
			c0.4,0.5,0.6,1.2,0.6,1.9c0,2-1.7,3.6-3.7,3.5c-0.1,0-0.1,0-0.2,0c-0.3,0-0.6,0-0.9-0.1c-0.4,0.2-0.7,0.5-0.7,0.8
			c0,0.4,0.4,0.6,2.3,0.9l0.8,0.1c2.3,0.4,3.6,1.1,3.6,2.6C88.8,220.1,86.5,221.2,83.8,221.2L83.8,221.2z M82.6,216.2
			c-1.4,0.7-2.1,1.4-2.1,2.2c0,1.1,1.4,1.7,3.4,1.7s3.5-0.8,3.5-1.9c0-0.8-0.7-1.2-2.5-1.6l-1-0.2C83.4,216.4,83,216.3,82.6,216.2
			L82.6,216.2z M83.7,207.7c-1.4,0-2.4,1.2-2.4,2.5c0,1.3,1.2,2.4,2.5,2.4c1.3,0,2.4-1.1,2.4-2.4c0-1.3-1-2.4-2.3-2.5
			C83.8,207.7,83.7,207.7,83.7,207.7L83.7,207.7z"/>
		<path class="st1" d="M92.2,204.4c-0.6,0.1-1.1-0.4-1.2-1s0.4-1.1,1-1.2c0.1,0,0.1,0,0.2,0c0.6,0.1,1,0.6,1,1.2
			C93.1,203.9,92.7,204.3,92.2,204.4z M91.5,217.2v-10.4h1.4v10.4H91.5z"/>
		<path class="st1" d="M99.5,217.4c-1.3,0-2.6-0.3-3.7-0.9l0.2-1.4c1.1,0.7,2.3,1.1,3.6,1.1c1.4,0,2.3-0.6,2.3-1.7
			c0-1.1-0.6-1.5-2.7-2c-2.3-0.6-3.3-1.3-3.3-3.1c0-1.8,1.4-2.8,3.5-2.8c1.1,0,2.2,0.2,3.2,0.7l-0.2,1.4c-0.9-0.5-1.9-0.8-3-0.8
			c-1.4,0-2.1,0.6-2.1,1.5s0.6,1.3,2.3,1.8c2.5,0.7,3.7,1.4,3.7,3.3C103.3,216.4,101.9,217.4,99.5,217.4L99.5,217.4z"/>
		<path class="st1" d="M109.3,217.4c-1.6,0-2.7-0.6-2.7-2.6V208H105v-1.2h1.6v-3.6l1.4-0.2v3.9h2.4l0.2,1.2H108v6.6
			c0,1.1,0.4,1.5,1.5,1.5c0.3,0,0.7,0,1-0.1l0.2,1.2C110.3,217.4,109.8,217.4,109.3,217.4z"/>
		<path class="st1" d="M114.2,204.4c-0.6,0.1-1.1-0.4-1.2-1s0.4-1.1,1-1.2c0.1,0,0.1,0,0.2,0c0.6,0.1,1,0.6,1,1.2
			C115.1,203.9,114.7,204.3,114.2,204.4z M113.5,217.2v-10.4h1.4v10.4H113.5z"/>
		<path class="st1" d="M122.5,217.5c-2.6,0-4.7-2-4.7-5.4s2.1-5.4,4.8-5.4c1.2,0,2.4,0.4,3.4,1.1l-0.2,1.4c-0.9-0.8-2-1.2-3.2-1.2
			c-2,0-3.2,1.6-3.2,4.2c0,2.6,1.3,4.2,3.4,4.2c1.2,0,2.3-0.4,3.2-1.2l0.2,1.3C125.1,217.1,123.8,217.5,122.5,217.5L122.5,217.5z"/>
		<path class="st1" d="M131.8,217.4c-1.3,0-2.6-0.3-3.7-0.9l0.2-1.4c1.1,0.7,2.3,1.1,3.6,1.1c1.4,0,2.3-0.6,2.3-1.7
			c0-1.1-0.6-1.5-2.7-2c-2.3-0.6-3.3-1.3-3.3-3.1c0-1.8,1.4-2.8,3.5-2.8c1.1,0,2.2,0.2,3.2,0.7l-0.2,1.4c-0.9-0.5-1.9-0.8-3-0.8
			c-1.4,0-2.1,0.6-2.1,1.5s0.6,1.3,2.3,1.8c2.5,0.7,3.7,1.4,3.7,3.3C135.6,216.4,134.2,217.4,131.8,217.4L131.8,217.4z"/>
		<path class="st2" d="M73,287.5v-12.1l-3,1.2l-0.3-2.2l3.7-1.7h2.5v14.9L73,287.5z"/>
		<path class="st2" d="M83,287.8c-1.6,0-3.1-0.3-4.5-1.1l0.4-2.5c1.2,0.8,2.6,1.2,4.1,1.2c1.7,0,3-0.9,3-2.6c0-1.5-1-2.4-2.7-2.4
			c-0.8,0-1.6,0.1-2.3,0.4l-1.9-0.5l0.5-7.8h8.3l0.4,2.4h-6.4l-0.3,3.5c0.7-0.2,1.5-0.3,2.2-0.3c2.9,0,4.9,1.7,4.9,4.5
			C88.7,286,86.3,287.8,83,287.8L83,287.8z"/>
		<path class="st2" d="M108.2,287.5v-7c0-0.9-0.3-1.6-1.3-1.6c-0.9,0.1-1.8,0.6-2.3,1.3v7.2H102v-7c0-0.9-0.3-1.6-1.3-1.6
			c-1,0.1-1.8,0.6-2.4,1.4v7.2h-2.6v-10.6h2.2l0.2,1.5c0.9-1,2.1-1.6,3.5-1.7c1.2-0.1,2.3,0.6,2.7,1.7c0.9-1,2.2-1.6,3.5-1.7
			c2,0,3,1.2,3,3.2v7.7L108.2,287.5L108.2,287.5z"/>
		<path class="st2" d="M114.9,275.1c-0.8,0-1.5-0.6-1.6-1.4v-0.1c0-0.9,0.7-1.6,1.6-1.6s1.6,0.7,1.6,1.6S115.8,275.1,114.9,275.1
			C115,275.1,115,275.1,114.9,275.1z M113.6,287.6V277h2.6v10.6H113.6z"/>
		<path class="st2" d="M125.4,287.5v-7c0-0.9-0.4-1.6-1.4-1.6c-1,0.1-1.8,0.6-2.4,1.3v7.2H119v-10.6h2.2l0.2,1.5
			c0.9-1,2.2-1.6,3.5-1.7c2,0,3,1.2,3,3.2v7.7H125.4L125.4,287.5z"/>
	</g>
	<g>
		<path class="st1" d="M212,253.8h119.4c6.6,0,12,5.4,12,12v30.1c0,6.6-5.4,12-12,12H212c-6.6,0-12-5.4-12-12v-30.1
			C200,259.2,205.4,253.8,212,253.8z"/>
		<path class="st0" d="M212.6,47.9H332c6.6,0,12,5.4,12,12v172.4c0,6.6-5.4,12-12,12H212.6c-6.6,0-12-5.4-12-12V59.9
			C200.6,53.2,205.9,47.9,212.6,47.9z"/>
		<path class="st2" d="M244.3,287.8c-1.6,0-3.2-0.4-4.6-1.2l0.4-2.4c1.2,0.8,2.6,1.2,4.1,1.2c1.7,0,2.8-0.7,2.8-2.1
			c0-1.6-1.1-2.4-3.6-2.4h-0.8l-0.4-2.2h1.2c2.3,0,3.3-0.8,3.3-2.1c0-1.1-0.8-1.8-2.5-1.8c-1.4,0-2.8,0.5-3.9,1.3l-0.4-2.3
			c1.3-0.9,2.9-1.4,4.6-1.4c3.3,0,5,1.7,5,3.9c0,1.6-1.1,3.1-2.7,3.5c1.8,0.3,3,1.9,2.9,3.7C249.8,286.2,247.6,287.8,244.3,287.8
			L244.3,287.8z"/>
		<path class="st2" d="M257.6,287.8c-3.6,0-5.9-2.8-5.9-7.7s2.4-7.7,5.9-7.7c3.5,0,5.9,2.8,5.9,7.7S261.1,287.8,257.6,287.8z
			 M257.6,274.7c-2,0-3.1,1.9-3.1,5.5s1.1,5.5,3.1,5.5c2,0,3.1-1.9,3.1-5.5S259.6,274.7,257.6,274.7z"/>
		<path class="st2" d="M283.1,287.5v-7c0-0.9-0.3-1.6-1.3-1.6c-0.9,0.1-1.8,0.6-2.4,1.3v7.2h-2.6v-7c0-0.9-0.4-1.6-1.3-1.6
			c-0.9,0.1-1.8,0.6-2.4,1.3v7.2h-2.6v-10.5h2.2l0.2,1.5c0.9-1,2.1-1.6,3.5-1.7c1.2-0.1,2.3,0.6,2.7,1.7c0.9-1,2.2-1.6,3.5-1.7
			c2,0,3,1.2,3,3.2v7.7H283.1L283.1,287.5z"/>
		<path class="st2" d="M289.9,275.1c-0.8,0-1.5-0.6-1.6-1.4v-0.1c0-0.9,0.7-1.6,1.6-1.6c0.9,0,1.6,0.7,1.6,1.6
			C291.5,274.5,290.8,275.1,289.9,275.1L289.9,275.1z M288.6,287.6V277h2.6v10.6H288.6z"/>
		<path class="st2" d="M300.4,287.5v-7c0-0.9-0.4-1.6-1.4-1.6c-1,0.1-1.8,0.6-2.4,1.3v7.2H294v-10.6h2.2l0.2,1.5
			c0.9-1,2.2-1.6,3.5-1.7c2,0,3,1.2,3,3.2v7.7H300.4L300.4,287.5z"/>
		<path class="st1" d="M245.3,79.7H244v5.6h-2.9V70.1h4.4c3.5,0,5.6,1.6,5.6,4.7C251.1,78,248.8,79.7,245.3,79.7L245.3,79.7z
			 M245.4,72.4H244v4.9h1.3c1.9,0,3-0.8,3-2.5C248.2,73.2,247.3,72.4,245.4,72.4z"/>
		<path class="st1" d="M258.6,85.2l-0.2-1.4c-0.9,1-2.2,1.6-3.5,1.7c-1.5,0.1-2.9-1-3-2.5c0-0.2,0-0.3,0-0.5c0-2.6,2.1-3.7,6.4-4.1
			v-0.3c0-1.1-0.7-1.6-1.8-1.6c-1.2,0-2.4,0.3-3.5,0.9l-0.3-2.1c1.3-0.6,2.8-0.9,4.2-0.9c2.8,0,4.1,1,4.1,3.6v7.3L258.6,85.2z
			 M258.3,79.9c-3.1,0.4-3.8,1.3-3.8,2.3c0,0.6,0.4,1.2,1.1,1.2c0.1,0,0.1,0,0.2,0c0.9,0,1.8-0.4,2.5-1.1V79.9z"/>
		<path class="st1" d="M266.1,79.2v6.1h-2.6V74.6h2.2l0.3,2.1c0.6-1.3,1.9-2.2,3.4-2.3l0.4,2.6C268.4,77.1,267,77.9,266.1,79.2
			L266.1,79.2z"/>
		<path class="st1" d="M275.8,85.4c-2.1,0-3.5-0.8-3.5-3.2v-5.5h-1.5v-2.2h1.5v-3.4l2.6-0.4v3.8h2.2l0.3,2.2h-2.5v5
			c0,0.9,0.4,1.3,1.4,1.3c0.3,0,0.6,0,0.8-0.1l0.3,2.2C276.9,85.3,276.4,85.4,275.8,85.4L275.8,85.4z"/>
		<path class="st1" d="M283.8,85.2v-2.1l5.3-5.4c1.1-1.2,1.7-2,1.7-3.1c0-1.4-0.8-2.1-2.3-2.1c-1.5,0.1-2.9,0.7-4,1.7l-0.4-2.5
			c1.3-1,3-1.6,4.7-1.6c3,0,4.8,1.6,4.8,4.2c0,1.9-0.9,3.2-2.7,5l-3.6,3.6h6.2l0.4,2.3L283.8,85.2z"/>
		<path class="st1" d="M296.1,77.8v-3.2h2.9v3.2H296.1z M296.1,85.2V82h2.9v3.2H296.1z"/>
		<path class="st1" d="M261.6,111.9c-4.5,0-7.1-3.2-7.1-7.9s2.8-7.9,7-7.9c1.6,0,3.1,0.4,4.4,1.3l-0.3,1.6c-1.2-1-2.7-1.5-4.2-1.6
			c-3.4,0-5.4,2.6-5.4,6.5c0,3.9,2,6.5,5.6,6.5c1.2,0,2.4-0.3,3.5-0.9V105h-3.6l-0.2-1.4h5.4v6.7
			C265.1,111.4,263.4,111.9,261.6,111.9z"/>
		<path class="st1" d="M274.1,111.9c-2.7,0-4.7-1.8-4.7-5.4c0-3.3,1.9-5.4,4.5-5.4c2.8,0,4.2,2.3,4.2,5.2v0.2h-7.2
			c0,2.6,1.2,4.1,3.3,4.1c1.4,0,2.7-0.6,3.7-1.5l0.2,1.3C277,111.3,275.6,111.9,274.1,111.9z M271,105.4h5.7c-0.1-1.9-1-3.2-2.7-3.2
			C272.3,102.2,271.2,103.4,271,105.4L271,105.4z"/>
		<path class="st1" d="M284.1,111.8c-1.6,0-2.7-0.6-2.7-2.6v-6.7h-1.6v-1.3h1.6v-3.6l1.4-0.2v3.8h2.4l0.2,1.2h-2.6v6.6
			c0,1.1,0.4,1.5,1.5,1.5c0.3,0,0.7,0,1-0.1l0.2,1.2C285.1,111.8,284.6,111.8,284.1,111.8L284.1,111.8z"/>
		<path class="st1" d="M220.1,138.3c-2.6,0-4.7-2-4.7-5.4s2.1-5.4,4.8-5.4c1.2,0,2.4,0.4,3.4,1.1l-0.2,1.4c-0.9-0.8-2-1.2-3.2-1.2
			c-2,0-3.2,1.6-3.2,4.2c0,2.6,1.3,4.2,3.4,4.2c1.2,0,2.3-0.4,3.2-1.2l0.2,1.3C222.7,137.9,221.4,138.3,220.1,138.3L220.1,138.3z"/>
		<path class="st1" d="M230.2,138.3c-2.7,0-4.7-2-4.7-5.4s2-5.4,4.7-5.4s4.7,2,4.7,5.4S232.8,138.3,230.2,138.3z M230.2,128.6
			c-2.1,0-3.2,1.7-3.2,4.2s1.1,4.2,3.2,4.2s3.2-1.7,3.2-4.2S232.3,128.6,230.2,128.6L230.2,128.6z"/>
		<path class="st1" d="M250.9,138v-7.2c0-1.3-0.6-2.2-1.9-2.2c-1.3,0.1-2.5,0.8-3.3,1.8v7.6h-1.4v-7.2c0-1.3-0.6-2.2-1.9-2.2
			c-1.3,0.1-2.5,0.8-3.3,1.8v7.6h-1.4v-10.4h1.1l0.2,1.5c1-1,2.3-1.6,3.7-1.7c1.3-0.2,2.5,0.6,2.9,1.8c1-1.1,2.3-1.7,3.8-1.8
			c2.1,0,3,1.2,3,3.2v7.5h-1.5L250.9,138L250.9,138z"/>
		<path class="st1" d="M259.3,123.6c-0.8-0.1-1.5,0.4-1.6,1.2c0,0.1,0,0.3,0,0.4v2.4h2.1l0.2,1.2h-2.3v9.2h-1.4v-9.2h-1.6v-1.2h1.6
			v-2.5c0-1.9,1.1-2.8,2.9-2.8c0.2,0,0.5,0,0.8,0l0.2,1.3C259.9,123.6,259.6,123.6,259.3,123.6z"/>
		<path class="st1" d="M266.1,138.3c-2.7,0-4.7-2-4.7-5.4s2-5.4,4.7-5.4c2.7,0,4.7,2,4.7,5.4S268.8,138.3,266.1,138.3z M266.1,128.6
			c-2.1,0-3.2,1.7-3.2,4.2s1.1,4.2,3.2,4.2c2.1,0,3.2-1.7,3.2-4.2S268.2,128.6,266.1,128.6L266.1,128.6z"/>
		<path class="st1" d="M275,131.5v6.5h-1.4v-10.4h1.1l0.3,2.1c0.8-1.3,2.2-2.2,3.7-2.3l0.2,1.4C277.2,129,275.8,130,275,131.5
			L275,131.5z"/>
		<path class="st1" d="M284.5,138.2c-1.6,0-2.7-0.6-2.7-2.6v-6.8h-1.6v-1.2h1.6V124l1.4-0.2v3.8h2.4l0.2,1.2h-2.6v6.6
			c0,1.1,0.4,1.5,1.5,1.5c0.3,0,0.7,0,1-0.1l0.2,1.2C285.5,138.2,285,138.2,284.5,138.2L284.5,138.2z"/>
		<path class="st1" d="M294.9,138l-0.2-1.4c-1,1-2.3,1.6-3.7,1.6c-1.8,0-3.1-1-3.1-2.8c0-2.4,2-3.6,6.7-4v-0.7c0-1.4-0.8-2-2.2-2
			c-1.3,0-2.5,0.3-3.6,0.9l-0.2-1.3c1.2-0.6,2.5-0.9,3.9-0.9c2.3,0,3.5,1.1,3.5,3.2v7.4H294.9z M294.6,132.5
			c-4.1,0.4-5.2,1.4-5.2,2.8c0,0.9,0.7,1.7,1.6,1.7c0.1,0,0.2,0,0.3,0c1.3-0.1,2.5-0.6,3.4-1.5L294.6,132.5L294.6,132.5z"/>
		<path class="st1" d="M303.1,138.2c-1.3,0-2.6-0.2-3.8-0.7v-15l1.5-0.3v6.8c0.8-1,2-1.5,3.2-1.6c2.3,0,4.2,1.7,4.2,5.1
			C308.2,136.3,306,138.2,303.1,138.2z M303.9,128.7c-1.2,0.1-2.4,0.8-3.1,1.8v6c0.8,0.3,1.6,0.4,2.4,0.4c2.1,0,3.5-1.3,3.5-4.3
			C306.8,130.1,305.5,128.7,303.9,128.7z"/>
		<path class="st1" d="M311.1,138v-15.5l1.4-0.3V138H311.1z"/>
		<path class="st1" d="M320.1,138.3c-2.7,0-4.7-1.8-4.7-5.4c0-3.3,1.9-5.4,4.5-5.4c2.8,0,4.2,2.3,4.2,5.2v0.3h-7.2
			c0,2.6,1.2,4.1,3.3,4.1c1.4,0,2.7-0.6,3.7-1.5l0.2,1.3C323,137.8,321.6,138.3,320.1,138.3z M317,131.8h5.7c-0.1-1.9-1-3.2-2.7-3.2
			S317.2,129.8,317,131.8z"/>
		<path class="st1" d="M227.5,164.5h-1.2l-2.6-8.5l-2.6,8.5h-1.2l-3.4-10.4l1.4-0.3l2.7,8.6l2.6-8.5h1.2l2.6,8.5l2.6-8.5h1.4
			L227.5,164.5z"/>
		<path class="st1" d="M234.3,151.5c-0.6,0.1-1.1-0.4-1.2-1c-0.1-0.6,0.4-1.1,1-1.2c0.1,0,0.1,0,0.2,0c0.6,0.1,1,0.6,1,1.2
			C235.2,151.1,234.8,151.5,234.3,151.5z M233.6,164.4V154h1.4v10.4H233.6z"/>
		<path class="st1" d="M241.7,164.6c-1.6,0-2.7-0.6-2.7-2.6v-6.8h-1.6V154h1.6v-3.6l1.4-0.2v3.9h2.4l0.2,1.2h-2.6v6.6
			c0,1.1,0.4,1.5,1.5,1.5c0.3,0,0.7,0,1-0.1l0.2,1.2C242.8,164.6,242.3,164.6,241.7,164.6L241.7,164.6z"/>
		<path class="st1" d="M252.5,164.4v-7.2c0-1.3-0.6-2.2-1.9-2.2c-1.3,0.1-2.5,0.8-3.4,1.8v7.5h-1.4v-15.5l1.4-0.3v6.9
			c1-1,2.3-1.6,3.6-1.7c1.6-0.2,2.9,1,3.1,2.5c0,0.2,0,0.4,0,0.6v7.5L252.5,164.4z"/>
		<path class="st1" d="M265.3,164.6c-1.3,0-2.6-0.3-3.7-0.9l0.2-1.4c1.1,0.7,2.3,1.1,3.6,1.1c1.4,0,2.4-0.6,2.4-1.7
			c0-1.1-0.6-1.5-2.7-2c-2.3-0.6-3.3-1.3-3.3-3.1s1.4-2.8,3.5-2.8c1.1,0,2.2,0.2,3.2,0.7l-0.2,1.4c-0.9-0.5-1.9-0.8-3-0.8
			c-1.4,0-2.1,0.6-2.1,1.5c0,0.9,0.6,1.3,2.3,1.8c2.5,0.7,3.6,1.4,3.6,3.3C269.1,163.6,267.8,164.6,265.3,164.6L265.3,164.6z"/>
		<path class="st1" d="M276,164.7c-2.6,0-4.7-2-4.7-5.4s2.1-5.4,4.8-5.4c1.2,0,2.4,0.4,3.4,1.1l-0.2,1.4c-0.9-0.8-2-1.2-3.2-1.2
			c-2,0-3.2,1.6-3.2,4.2c0,2.6,1.3,4.2,3.4,4.2c1.2,0,2.3-0.4,3.2-1.2l0.2,1.3C278.5,164.3,277.3,164.7,276,164.7L276,164.7z"/>
		<path class="st1" d="M283.1,151.5c-0.6,0.1-1.1-0.4-1.2-1c-0.1-0.6,0.4-1.1,1-1.2c0.1,0,0.1,0,0.2,0c0.6,0.1,1,0.6,1,1.2
			C284,151.1,283.6,151.5,283.1,151.5z M282.3,164.4V154h1.4v10.4H282.3z"/>
		<path class="st1" d="M291.4,164.7c-2.7,0-4.7-1.9-4.7-5.4c0-3.3,1.9-5.4,4.5-5.4c2.8,0,4.2,2.3,4.2,5.2v0.3h-7.2
			c0,2.6,1.2,4.1,3.3,4.1c1.4,0,2.7-0.6,3.7-1.5l0.2,1.3C294.2,164.1,292.8,164.7,291.4,164.7L291.4,164.7z M288.2,158.2h5.7
			c-0.1-1.9-1-3.2-2.7-3.2C289.5,155,288.5,156.2,288.2,158.2L288.2,158.2z"/>
		<path class="st1" d="M304.9,164.4v-7.2c0-1.3-0.6-2.2-1.9-2.2c-1.3,0.1-2.5,0.8-3.4,1.8v7.5h-1.5v-10.4h1.1l0.2,1.5
			c1-1,2.3-1.7,3.7-1.8c2.1,0,3.1,1.2,3.1,3.2v7.4L304.9,164.4z"/>
		<path class="st1" d="M313.8,164.7c-2.6,0-4.7-2-4.7-5.4s2.1-5.4,4.8-5.4c1.2,0,2.4,0.4,3.4,1.1l-0.2,1.4c-0.9-0.8-2-1.2-3.2-1.2
			c-2,0-3.2,1.6-3.2,4.2c0,2.6,1.3,4.2,3.4,4.2c1.2,0,2.3-0.4,3.2-1.2l0.2,1.3C316.4,164.3,315,164.7,313.8,164.7L313.8,164.7z"/>
		<path class="st1" d="M323.9,164.7c-2.7,0-4.7-1.9-4.7-5.4c0-3.3,1.9-5.4,4.5-5.4c2.8,0,4.2,2.3,4.2,5.2v0.3h-7.2
			c0,2.6,1.2,4.1,3.3,4.1c1.4,0,2.7-0.6,3.7-1.5l0.2,1.3C326.6,164.1,325.2,164.7,323.9,164.7L323.9,164.7z M320.6,158.2h5.7
			c-0.1-1.9-1-3.2-2.7-3.2S320.9,156.2,320.6,158.2z"/>
		<path class="st1" d="M252.8,191l-2.4-2.4c-1.2,1.6-3,2.5-5,2.5c-3,0-4.8-1.6-4.8-4.1c0-2.3,1.5-3.6,3.6-4.6
			c-1-0.9-1.6-2.1-1.6-3.4c0-2,1.5-3.5,4-3.5c1.3,0,2.5,0.3,3.6,0.9l-0.3,1.5c-1-0.7-2.1-1.1-3.3-1.1c-1.2-0.1-2.2,0.7-2.4,1.9
			c0,0.1,0,0.2,0,0.3c0,1.1,0.5,1.9,1.6,3l4.4,4.5c0.6-1.4,1.1-2.9,1.2-4.4l1.4,0.3c-0.3,1.8-0.8,3.5-1.6,5.1l3.2,3.2L252.8,191z
			 M249.4,187.6l-4.4-4.3c-1.9,0.8-3,2-3,3.6c0,1.7,1.4,3,3.1,2.9c0.1,0,0.2,0,0.2,0C247,189.8,248.5,189,249.4,187.6L249.4,187.6z"
			/>
		<path class="st1" d="M268.4,190.8l-0.3-1.5c-0.8,1.1-2,1.7-3.3,1.7c-2.3,0-4.2-1.6-4.2-5.1c0-3.8,2.2-5.7,4.8-5.7
			c0.9,0,1.9,0.2,2.7,0.5v-5.5l1.4-0.3v15.8h-1.1V190.8L268.4,190.8z M268.1,182.1c-0.8-0.4-1.7-0.6-2.7-0.6c-1.9,0-3.3,1.4-3.3,4.3
			c0,2.5,1.2,3.9,2.9,3.9c1.3-0.1,2.4-0.8,3.1-1.9V182.1z"/>
		<path class="st1" d="M279.3,190.8l-0.2-1.4c-1,1-2.3,1.6-3.7,1.6c-1.8,0-3.1-1-3.1-2.8c0-2.4,2-3.6,6.7-4v-0.7c0-1.4-0.8-2-2.2-2
			c-1.3,0-2.5,0.3-3.6,0.9l-0.2-1.3c1.2-0.6,2.5-0.9,3.9-0.9c2.3,0,3.5,1.1,3.5,3.2v7.4H279.3z M279,185.3c-4.1,0.4-5.2,1.4-5.2,2.8
			c0,0.9,0.7,1.7,1.6,1.7c0.1,0,0.2,0,0.3,0c1.3-0.1,2.5-0.6,3.4-1.6L279,185.3z"/>
		<path class="st1" d="M286.9,191c-1.6,0-2.7-0.6-2.7-2.6v-6.8h-1.6v-1.2h1.6v-3.6l1.4-0.2v3.9h2.4l0.2,1.2h-2.6v6.6
			c0,1.1,0.4,1.5,1.5,1.5c0.3,0,0.7,0,1-0.1l0.2,1.2C287.9,191,287.4,191,286.9,191z"/>
		<path class="st1" d="M297.3,190.8l-0.2-1.4c-1,1-2.3,1.6-3.7,1.6c-1.8,0-3.1-1-3.1-2.8c0-2.4,2-3.6,6.7-4v-0.7c0-1.4-0.8-2-2.2-2
			c-1.3,0-2.5,0.3-3.6,0.9l-0.2-1.3c1.2-0.6,2.5-0.9,3.9-0.9c2.3,0,3.5,1.1,3.5,3.2v7.4H297.3z M297,185.3c-4.1,0.4-5.2,1.4-5.2,2.8
			c0,0.9,0.7,1.7,1.6,1.7c0.1,0,0.2,0,0.3,0c1.3-0.1,2.5-0.6,3.4-1.6L297,185.3L297,185.3z"/>
		<path class="st1" d="M233.9,217.5c-2.6,0-4.7-2-4.7-5.4s2.1-5.4,4.8-5.4c1.2,0,2.4,0.4,3.4,1.1l-0.2,1.4c-0.9-0.8-2-1.2-3.2-1.2
			c-2,0-3.2,1.6-3.2,4.2c0,2.6,1.3,4.2,3.4,4.2c1.2,0,2.3-0.4,3.2-1.2l0.2,1.3C236.4,217.1,235.2,217.5,233.9,217.5L233.9,217.5z"/>
		<path class="st1" d="M243.9,217.5c-2.7,0-4.7-2-4.7-5.4s2-5.4,4.7-5.4s4.7,2,4.7,5.4S246.5,217.5,243.9,217.5z M243.9,207.9
			c-2.1,0-3.2,1.7-3.2,4.2s1.1,4.2,3.2,4.2s3.2-1.7,3.2-4.2S246,207.9,243.9,207.9L243.9,207.9z"/>
		<path class="st1" d="M251.5,217.2v-15.5l1.4-0.3v15.8H251.5z"/>
		<path class="st1" d="M256.8,217.2v-15.5l1.4-0.3v15.8H256.8z"/>
		<path class="st1" d="M265.8,217.5c-2.7,0-4.7-1.9-4.7-5.4c0-3.3,1.9-5.4,4.5-5.4c2.8,0,4.2,2.3,4.2,5.2v0.3h-7.2
			c0,2.6,1.2,4.1,3.3,4.1c1.4,0,2.7-0.6,3.7-1.5l0.2,1.3C268.6,217,267.2,217.5,265.8,217.5L265.8,217.5z M262.5,211h5.7
			c-0.1-1.9-1-3.2-2.7-3.2C263.8,207.8,262.8,209,262.5,211L262.5,211z"/>
		<path class="st1" d="M276.6,217.5c-2.6,0-4.7-2-4.7-5.4s2.1-5.4,4.8-5.4c1.2,0,2.4,0.4,3.4,1.1l-0.2,1.4c-0.9-0.8-2-1.2-3.2-1.2
			c-2,0-3.2,1.6-3.2,4.2c0,2.6,1.3,4.2,3.4,4.2c1.2,0,2.3-0.4,3.2-1.2l0.2,1.3C279.1,217.1,277.8,217.5,276.6,217.5L276.6,217.5z"/>
		<path class="st1" d="M286,217.4c-1.6,0-2.7-0.6-2.7-2.6V208h-1.6v-1.2h1.6v-3.6l1.4-0.2v3.9h2.4l0.2,1.2h-2.6v6.6
			c0,1.1,0.4,1.5,1.5,1.5c0.3,0,0.7,0,1-0.1l0.2,1.2C287,217.4,286.5,217.4,286,217.4L286,217.4z"/>
		<path class="st1" d="M290.9,204.4c-0.6,0.1-1.1-0.4-1.2-1c-0.1-0.6,0.4-1.1,1-1.2c0.1,0,0.1,0,0.2,0c0.6,0.1,1,0.6,1,1.2
			C291.8,203.9,291.4,204.3,290.9,204.4z M290.2,217.2v-10.4h1.4v10.4H290.2z"/>
		<path class="st1" d="M299.2,217.5c-2.7,0-4.7-2-4.7-5.4s2-5.4,4.7-5.4s4.7,2,4.7,5.4S301.9,217.5,299.2,217.5z M299.2,207.9
			c-2.1,0-3.2,1.7-3.2,4.2s1.1,4.2,3.2,4.2s3.2-1.7,3.2-4.2S301.4,207.9,299.2,207.9L299.2,207.9z"/>
		<path class="st1" d="M313.4,217.2V210c0-1.3-0.6-2.2-1.9-2.2c-1.3,0.1-2.5,0.8-3.4,1.8v7.5h-1.5v-10.4h1.1l0.2,1.5
			c1-1,2.3-1.7,3.7-1.8c2.1,0,3.1,1.2,3.1,3.2v7.4L313.4,217.2z"/>
	</g>
	<g>
		<path class="st1" d="M386.4,253.8h119.4c6.6,0,12,5.4,12,12v30.1c0,6.6-5.4,12-12,12H386.4c-6.6,0-12-5.4-12-12v-30.1
			C374.4,259.2,379.8,253.8,386.4,253.8z"/>
		<path class="st0" d="M385,47.9h119.4c6.6,0,12,5.4,12,12v172.4c0,6.6-5.4,12-12,12H385c-6.6,0-12-5.4-12-12V59.9
			C373,53.2,378.4,47.9,385,47.9z"/>
		<path class="st2" d="M418.7,287.8c-1.6,0-3.2-0.4-4.6-1.2l0.4-2.4c1.2,0.8,2.6,1.2,4.1,1.2c1.7,0,2.8-0.7,2.8-2.1
			c0-1.6-1.1-2.4-3.6-2.4H417l-0.4-2.2h1.2c2.3,0,3.3-0.8,3.3-2.1c0-1.1-0.8-1.8-2.5-1.8c-1.4,0-2.8,0.5-3.9,1.3l-0.4-2.3
			c1.3-0.9,2.9-1.4,4.5-1.4c3.3,0,5,1.7,5,3.9c0,1.6-1.1,3.1-2.7,3.5c1.8,0.3,3,1.9,3,3.7C424.2,286.2,422,287.8,418.7,287.8
			L418.7,287.8z"/>
		<path class="st2" d="M432,287.8c-3.6,0-5.9-2.8-5.9-7.7s2.4-7.7,5.9-7.7s5.9,2.8,5.9,7.7S435.5,287.8,432,287.8z M432,274.7
			c-2,0-3.1,1.9-3.1,5.5s1.1,5.5,3.1,5.5s3.1-1.9,3.1-5.5S434,274.7,432,274.7z"/>
		<path class="st2" d="M457.5,287.5v-7c0-0.9-0.3-1.6-1.3-1.6c-0.9,0.1-1.8,0.6-2.4,1.3v7.2h-2.6v-7c0-0.9-0.4-1.6-1.3-1.6
			c-0.9,0.1-1.8,0.6-2.4,1.3v7.2H445v-10.5h2.2l0.2,1.5c0.9-1,2.1-1.6,3.5-1.7c1.2-0.1,2.3,0.6,2.7,1.7c0.9-1,2.2-1.6,3.5-1.7
			c2,0,3,1.2,3,3.2v7.7H457.5L457.5,287.5z"/>
		<path class="st2" d="M464.3,275.1c-0.8,0-1.5-0.6-1.6-1.4v-0.1c0-0.9,0.7-1.6,1.6-1.6s1.6,0.7,1.6,1.6
			C465.8,274.5,465.2,275.1,464.3,275.1L464.3,275.1z M462.9,287.6V277h2.6v10.6H462.9z"/>
		<path class="st2" d="M474.8,287.5v-7c0-0.9-0.4-1.6-1.4-1.6c-1,0.1-1.8,0.6-2.4,1.3v7.2h-2.6v-10.6h2.2l0.2,1.5
			c0.9-1,2.2-1.6,3.5-1.7c2,0,3,1.2,3,3.2v7.7H474.8L474.8,287.5z"/>
		<g>
			<path class="st1" d="M417.9,79.7h-1.3v5.6h-2.9V70.1h4.4c3.5,0,5.6,1.6,5.6,4.7C423.7,78,421.4,79.7,417.9,79.7L417.9,79.7z
				 M418,72.4h-1.4v4.9h1.3c1.9,0,3-0.8,3-2.5C420.9,73.2,419.9,72.4,418,72.4L418,72.4z"/>
			<path class="st1" d="M431.2,85.2l-0.2-1.4c-0.9,1-2.2,1.6-3.5,1.7c-1.5,0.1-2.9-1-3-2.5c0-0.1,0-0.3,0-0.4c0-2.6,2.1-3.7,6.4-4.1
				v-0.3c0-1.1-0.7-1.6-1.8-1.6c-1.2,0-2.4,0.3-3.5,0.9l-0.3-2.1c1.3-0.6,2.8-0.9,4.2-0.9c2.8,0,4.1,1,4.1,3.6v7.3L431.2,85.2z
				 M430.9,79.9c-3.1,0.4-3.8,1.3-3.8,2.3c0,0.6,0.4,1.2,1.1,1.2c0.1,0,0.1,0,0.2,0c0.9,0,1.8-0.4,2.5-1.1L430.9,79.9z"/>
			<path class="st1" d="M438.8,79.2v6.1h-2.7V74.6h2.2l0.3,2.1c0.6-1.3,1.9-2.2,3.4-2.3l0.4,2.6C441,77.1,439.6,77.9,438.8,79.2
				L438.8,79.2z"/>
			<path class="st1" d="M448.5,85.4c-2.1,0-3.5-0.8-3.5-3.2v-5.5h-1.5v-2.2h1.5v-3.4l2.6-0.4v3.8h2.2l0.3,2.2h-2.5v5
				c0,0.9,0.4,1.3,1.4,1.3c0.3,0,0.6,0,0.8-0.1l0.3,2.2C449.6,85.4,449,85.4,448.5,85.4L448.5,85.4z"/>
			<path class="st1" d="M460.7,85.5c-1.6,0-3.2-0.4-4.6-1.2l0.4-2.4c1.2,0.8,2.6,1.2,4.1,1.2c1.7,0,2.8-0.7,2.8-2.1
				c0-1.6-1.1-2.4-3.6-2.4H459l-0.4-2.2h1.2c2.3,0,3.3-0.8,3.3-2.1c0-1.1-0.8-1.8-2.5-1.8c-1.4,0-2.8,0.5-3.9,1.3l-0.4-2.3
				c1.3-0.9,2.9-1.4,4.5-1.4c3.3,0,5,1.7,5,3.9c0,1.6-1.1,3.1-2.7,3.5c1.8,0.3,3,1.9,3,3.7C466.2,83.9,464,85.5,460.7,85.5z"/>
			<path class="st1" d="M468.4,77.8v-3.2h2.9v3.2H468.4z M468.4,85.2V82h2.9v3.2H468.4z"/>
			<path class="st1" d="M392.7,111.6V96.5h1.5v13.8h5.9l0.2,1.4h-7.6V111.6z"/>
			<path class="st1" d="M406.3,111.9c-2.7,0-4.7-1.8-4.7-5.4c0-3.3,1.9-5.4,4.5-5.4c2.8,0,4.2,2.3,4.2,5.2v0.2h-7.2
				c0,2.6,1.2,4.1,3.3,4.1c1.4,0,2.7-0.6,3.7-1.5l0.2,1.3C409.1,111.3,407.7,111.9,406.3,111.9L406.3,111.9z M403.1,105.4h5.7
				c-0.1-1.9-1-3.2-2.7-3.2S403.4,103.4,403.1,105.4z"/>
			<path class="st1" d="M419.4,111.6l-0.3-1.4c-1,1-2.3,1.6-3.7,1.6c-1.8,0-3.1-1-3.1-2.8c0-2.4,2-3.6,6.7-4v-0.7c0-1.4-0.8-2-2.2-2
				c-1.3,0-2.5,0.3-3.6,0.9l-0.2-1.3c1.2-0.6,2.5-0.9,3.9-0.9c2.3,0,3.5,1.1,3.5,3.2v7.4L419.4,111.6z M419.1,106.1
				c-4.1,0.4-5.2,1.4-5.2,2.8c0,0.9,0.7,1.7,1.6,1.7c0.1,0,0.2,0,0.3,0c1.3-0.1,2.5-0.6,3.4-1.6L419.1,106.1L419.1,106.1z"/>
			<path class="st1" d="M425.2,105.1v6.5h-1.5v-10.4h1.1l0.3,2.1c0.8-1.3,2.2-2.2,3.7-2.3l0.2,1.4
				C427.5,102.6,426,103.6,425.2,105.1L425.2,105.1z"/>
			<path class="st1" d="M438.1,111.6v-7.1c0-1.3-0.6-2.2-1.9-2.2c-1.3,0.1-2.5,0.8-3.4,1.8v7.5h-1.5v-10.4h1.1l0.2,1.5
				c1-1,2.3-1.7,3.7-1.8c2.1,0,3.1,1.2,3.1,3.2v7.4L438.1,111.6z"/>
			<path class="st1" d="M454.2,111.6l-0.2-1.4c-1,1-2.3,1.6-3.7,1.6c-1.8,0-3.1-1-3.1-2.8c0-2.4,2-3.6,6.7-4v-0.7c0-1.4-0.8-2-2.2-2
				c-1.3,0-2.5,0.3-3.6,0.9l-0.2-1.3c1.2-0.6,2.5-0.9,3.9-0.9c2.3,0,3.5,1.1,3.5,3.2v7.4L454.2,111.6z M453.9,106.1
				c-4.1,0.4-5.2,1.4-5.2,2.8c0,0.9,0.7,1.7,1.6,1.7c0.1,0,0.2,0,0.3,0c1.3-0.1,2.5-0.6,3.4-1.6L453.9,106.1L453.9,106.1z"/>
			<path class="st1" d="M462.4,111.8c-1.3,0-2.6-0.2-3.8-0.7v-15l1.5-0.3v6.8c0.8-1,2-1.5,3.2-1.6c2.3,0,4.2,1.7,4.2,5.1
				C467.4,109.9,465.3,111.8,462.4,111.8z M463.1,102.3c-1.2,0.1-2.4,0.8-3.1,1.8v6c0.8,0.3,1.6,0.4,2.4,0.4c2.1,0,3.5-1.3,3.5-4.3
				C466,103.7,464.7,102.3,463.1,102.3z"/>
			<path class="st1" d="M474.2,111.9c-2.7,0-4.7-2-4.7-5.4s2-5.4,4.7-5.4s4.7,2,4.7,5.4S476.9,111.9,474.2,111.9z M474.2,102.2
				c-2.1,0-3.2,1.7-3.2,4.2s1.1,4.2,3.2,4.2s3.2-1.7,3.2-4.2C477.4,103.9,476.3,102.2,474.2,102.2L474.2,102.2z"/>
			<path class="st1" d="M488.7,111.6l-0.2-1.5c-1,1-2.3,1.7-3.7,1.8c-2.1,0-3.1-1.2-3.1-3.2v-7.4h1.5v7.2c0,1.3,0.6,2.1,1.9,2.1
				c1.3-0.1,2.5-0.8,3.4-1.8v-7.5h1.5v10.4L488.7,111.6L488.7,111.6z"/>
			<path class="st1" d="M496.4,111.8c-1.6,0-2.7-0.6-2.7-2.6v-6.7h-1.6v-1.3h1.6v-3.6l1.4-0.2v3.8h2.4l0.2,1.2h-2.6v6.6
				c0,1.1,0.4,1.5,1.5,1.5c0.3,0,0.7,0,1-0.1l0.2,1.2C497.4,111.8,496.9,111.8,496.4,111.8z"/>
			<path class="st1" d="M396.2,138.2c-0.9,0-1.8-0.2-2.7-0.5v4.2l-1.5,0.2v-14.4h1.1l0.2,1.5c0.8-1.1,2-1.7,3.4-1.7
				c2.3,0,4.2,1.7,4.2,5.1C400.9,136.3,398.7,138.2,396.2,138.2L396.2,138.2z M396.6,128.7c-1.3,0.1-2.4,0.8-3.1,1.9v5.7
				c0.8,0.4,1.7,0.6,2.7,0.6c1.9,0,3.3-1.4,3.3-4.3C399.4,130.1,398.2,128.7,396.6,128.7L396.6,128.7z"/>
			<path class="st1" d="M407.7,138.3c-2.7,0-4.7-1.8-4.7-5.4c0-3.3,1.9-5.4,4.5-5.4c2.8,0,4.2,2.3,4.2,5.2v0.3h-7.2
				c0,2.6,1.2,4.1,3.3,4.1c1.4,0,2.7-0.6,3.7-1.5l0.2,1.3C410.6,137.8,409.2,138.3,407.7,138.3z M404.6,131.8h5.7
				c-0.1-1.9-1-3.2-2.7-3.2S404.8,129.8,404.6,131.8z"/>
			<path class="st1" d="M421.7,138l-0.3-1.5c-0.8,1.1-2,1.7-3.3,1.7c-2.3,0-4.2-1.6-4.2-5.1c0-3.8,2.2-5.7,4.8-5.7
				c0.9,0,1.9,0.2,2.7,0.5v-5.4l1.5-0.3V138H421.7z M421.3,129.3c-0.8-0.4-1.7-0.6-2.7-0.6c-1.9,0-3.3,1.4-3.3,4.3
				c0,2.5,1.2,3.9,2.9,3.9c1.3-0.1,2.4-0.8,3.1-1.9V129.3z"/>
			<path class="st1" d="M432.5,138l-0.2-1.4c-1,1-2.3,1.6-3.7,1.6c-1.8,0-3.1-1-3.1-2.8c0-2.4,2-3.6,6.7-4v-0.7c0-1.4-0.8-2-2.2-2
				c-1.3,0-2.5,0.3-3.6,0.9l-0.2-1.3c1.2-0.6,2.5-0.9,3.9-0.9c2.3,0,3.5,1.1,3.5,3.2v7.4H432.5z M432.2,132.5
				c-4.1,0.4-5.2,1.4-5.2,2.8c0,0.9,0.7,1.7,1.6,1.7c0.1,0,0.2,0,0.3,0c1.3-0.1,2.5-0.6,3.4-1.5L432.2,132.5L432.2,132.5z"/>
			<path class="st1" d="M440.5,142c-2.7,0-4.8-0.9-4.8-2.7c0-1.1,0.8-2,2.4-2.8c-0.4-0.2-0.7-0.6-0.8-1.1c0-0.5,0.4-1,1-1.4
				c-1.2-0.6-1.9-1.8-1.9-3.1c0-2,1.7-3.6,3.7-3.5c0.1,0,0.1,0,0.2,0c1,0,1.9,0.3,2.6,0.9l2.6-0.8l0.2,1.4l-2.1,0.2
				c0.4,0.5,0.6,1.2,0.5,1.8c0,2-1.7,3.6-3.7,3.5c-0.1,0-0.1,0-0.2,0c-0.3,0-0.6,0-0.9-0.1c-0.4,0.2-0.7,0.5-0.7,0.8
				c0,0.4,0.4,0.6,2.3,0.9l0.8,0.2c2.3,0.4,3.6,1.1,3.6,2.6C445.4,140.9,443.2,142,440.5,142L440.5,142z M439.3,137
				c-1.4,0.7-2.1,1.4-2.1,2.2c0,1.1,1.4,1.7,3.4,1.7s3.5-0.8,3.5-1.8c0-0.8-0.7-1.2-2.5-1.6l-1-0.2C440,137.2,439.7,137.1,439.3,137
				L439.3,137z M440.3,128.5c-1.4,0-2.4,1.2-2.4,2.5c0,1.4,1.2,2.4,2.5,2.4s2.4-1.1,2.4-2.5c0-1.3-1-2.4-2.4-2.4
				C440.4,128.5,440.4,128.5,440.3,128.5L440.3,128.5z"/>
			<path class="st1" d="M451.8,138.3c-2.7,0-4.7-2-4.7-5.4s2-5.4,4.7-5.4s4.7,2,4.7,5.4S454.4,138.3,451.8,138.3z M451.8,128.6
				c-2.1,0-3.2,1.7-3.2,4.2s1.1,4.2,3.2,4.2s3.2-1.7,3.2-4.2S453.9,128.6,451.8,128.6L451.8,128.6z"/>
			<path class="st1" d="M462.8,142c-2.7,0-4.8-0.9-4.8-2.7c0-1.1,0.8-2,2.4-2.8c-0.4-0.2-0.7-0.6-0.8-1.1c0-0.5,0.4-1,1-1.4
				c-1.2-0.6-1.9-1.8-1.9-3.1c0-2,1.7-3.6,3.7-3.5c0.1,0,0.1,0,0.2,0c1,0,1.9,0.3,2.6,0.9l2.6-0.8l0.2,1.4l-2.1,0.2
				c0.4,0.5,0.6,1.2,0.5,1.8c0,2-1.7,3.6-3.7,3.5c-0.1,0-0.1,0-0.2,0c-0.3,0-0.6,0-0.9-0.1c-0.4,0.2-0.7,0.5-0.7,0.8
				c0,0.4,0.4,0.6,2.3,0.9l0.8,0.2c2.3,0.4,3.6,1.1,3.6,2.6C467.7,140.9,465.5,142,462.8,142L462.8,142z M461.6,137
				c-1.4,0.7-2.1,1.4-2.1,2.2c0,1.1,1.4,1.7,3.4,1.7s3.5-0.8,3.5-1.8c0-0.8-0.7-1.2-2.5-1.6l-1-0.2C462.3,137.2,462,137.1,461.6,137
				L461.6,137z M462.6,128.5c-1.4,0-2.4,1.2-2.4,2.5c0,1.4,1.2,2.4,2.5,2.4s2.4-1.1,2.4-2.5c0-1.3-1-2.4-2.4-2.4
				C462.7,128.5,462.7,128.5,462.6,128.5L462.6,128.5z"/>
			<path class="st1" d="M474.1,139.3c-0.8,2-1.7,2.7-3.2,2.7c-0.2,0-0.4,0-0.6-0.1l-0.2-1.3c0.3,0.1,0.6,0.1,0.9,0.1
				c0.9,0,1.4-0.4,1.8-1.4l0.5-1.2l-3.9-10.3l1.4-0.3l3.2,8.9l3.1-8.7h1.5L474.1,139.3z"/>
			<path class="st1" d="M497.3,138.2l-2.4-2.4c-1.2,1.6-3,2.5-5,2.5c-3,0-4.8-1.6-4.8-4.1c0-2.3,1.5-3.7,3.6-4.6
				c-1-0.9-1.6-2.1-1.6-3.4c0-2,1.5-3.5,4-3.5c1.3,0,2.5,0.3,3.6,0.9l-0.3,1.5c-1-0.7-2.1-1.1-3.3-1.1c-1.2-0.1-2.2,0.7-2.4,1.9
				c0,0.1,0,0.2,0,0.3c0,1.1,0.5,1.8,1.6,3l4.4,4.5c0.6-1.4,1.1-2.9,1.2-4.4l1.4,0.3c-0.3,1.8-0.8,3.5-1.6,5.1l3.2,3.2L497.3,138.2z
				 M494,134.8l-4.4-4.3c-1.9,0.8-3,2-3,3.6c0,1.7,1.4,3,3.1,2.9c0.1,0,0.2,0,0.2,0C491.5,137,493.1,136.2,494,134.8L494,134.8z"/>
			<path class="st1" d="M391.2,164.6c-1.6,0-2.7-0.6-2.7-2.6v-6.8h-1.6V154h1.6v-3.6l1.4-0.2v3.9h2.4l0.2,1.2h-2.6v6.6
				c0,1.1,0.4,1.5,1.5,1.5c0.3,0,0.7,0,1-0.1l0.2,1.2C392.2,164.6,391.7,164.6,391.2,164.6z"/>
			<path class="st1" d="M399.2,164.7c-2.7,0-4.7-1.9-4.7-5.4c0-3.3,1.9-5.4,4.5-5.4c2.8,0,4.2,2.3,4.2,5.2v0.3H396
				c0,2.6,1.2,4.1,3.3,4.1c1.4,0,2.7-0.6,3.7-1.5l0.2,1.3C402.1,164.1,400.7,164.7,399.2,164.7L399.2,164.7z M396,158.2h5.7
				c-0.1-1.9-1-3.2-2.7-3.2S396.3,156.2,396,158.2z"/>
			<path class="st1" d="M412.3,164.4l-0.2-1.4c-1,1-2.3,1.6-3.7,1.6c-1.8,0-3.1-1-3.1-2.8c0-2.4,2-3.6,6.7-4v-0.7c0-1.4-0.8-2-2.2-2
				c-1.3,0-2.5,0.3-3.6,0.9l-0.2-1.3c1.2-0.6,2.5-0.9,3.9-0.9c2.3,0,3.5,1.1,3.5,3.2v7.4C413.4,164.4,412.3,164.4,412.3,164.4z
				 M412,158.9c-4.1,0.4-5.2,1.4-5.2,2.8c0,0.9,0.7,1.7,1.6,1.7c0.1,0,0.2,0,0.3,0c1.3-0.1,2.5-0.6,3.4-1.6L412,158.9L412,158.9z"/>
			<path class="st1" d="M420.8,164.7c-2.6,0-4.7-2-4.7-5.4s2.1-5.4,4.8-5.4c1.2,0,2.4,0.4,3.4,1.1l-0.2,1.4c-0.9-0.8-2-1.2-3.2-1.2
				c-2,0-3.2,1.6-3.2,4.2c0,2.6,1.3,4.2,3.4,4.2c1.2,0,2.3-0.4,3.2-1.2l0.2,1.3C423.3,164.3,422.1,164.7,420.8,164.7L420.8,164.7z"
				/>
			<path class="st1" d="M433.8,164.4v-7.2c0-1.3-0.6-2.2-1.9-2.2c-1.3,0.1-2.5,0.8-3.4,1.8v7.5H427v-15.5l1.5-0.3v6.9
				c1-1,2.3-1.6,3.6-1.7c1.6-0.2,2.9,1,3.1,2.5c0,0.2,0,0.4,0,0.6v7.5L433.8,164.4z"/>
			<path class="st1" d="M439.4,151.5c-0.6-0.1-1-0.6-1-1.2c0-0.5,0.4-0.9,1-1c0.6,0.1,1,0.6,1,1.2
				C440.3,151.1,439.9,151.5,439.4,151.5z M438.7,164.4V154h1.4v10.4H438.7z"/>
			<path class="st1" d="M450.4,164.4v-7.2c0-1.3-0.6-2.2-1.9-2.2c-1.3,0.1-2.5,0.8-3.4,1.8v7.5h-1.5v-10.4h1.1l0.2,1.5
				c1-1,2.3-1.7,3.7-1.8c2.1,0,3.1,1.2,3.1,3.2v7.4L450.4,164.4z"/>
			<path class="st1" d="M458.7,168.4c-2.7,0-4.8-0.9-4.8-2.7c0-1.1,0.8-2,2.4-2.8c-0.4-0.2-0.7-0.6-0.8-1.1c0-0.5,0.4-1,1-1.4
				c-1.2-0.6-1.9-1.8-1.9-3.1c0-2,1.7-3.6,3.7-3.5c0.1,0,0.1,0,0.2,0c1,0,1.9,0.3,2.6,0.9l2.6-0.8l0.2,1.4l-2.1,0.2
				c0.4,0.5,0.6,1.2,0.5,1.9c0,2-1.7,3.6-3.7,3.5c-0.1,0-0.1,0-0.2,0c-0.3,0-0.6,0-0.9-0.1c-0.4,0.2-0.7,0.5-0.7,0.8
				c0,0.4,0.4,0.6,2.3,0.9l0.8,0.1c2.3,0.4,3.6,1.1,3.6,2.6C463.7,167.3,461.4,168.4,458.7,168.4L458.7,168.4z M457.5,163.4
				c-1.4,0.7-2.1,1.4-2.1,2.2c0,1.1,1.4,1.7,3.4,1.7s3.5-0.8,3.5-1.9c0-0.8-0.7-1.2-2.5-1.6l-1-0.2
				C458.2,163.6,457.9,163.5,457.5,163.4L457.5,163.4z M458.5,154.9c-1.4,0-2.4,1.2-2.4,2.5s1.2,2.4,2.5,2.4s2.4-1.1,2.4-2.5
				c0-1.3-1-2.4-2.3-2.5C458.6,154.9,458.6,154.9,458.5,154.9L458.5,154.9z"/>
			<path class="st1" d="M474.4,164.6c-1.6,0-2.7-0.6-2.7-2.6v-6.8h-1.6V154h1.6v-3.6l1.4-0.2v3.9h2.4l0.2,1.2h-2.6v6.6
				c0,1.1,0.4,1.5,1.5,1.5c0.3,0,0.7,0,1-0.1l0.2,1.2C475.4,164.6,474.9,164.6,474.4,164.6z"/>
			<path class="st1" d="M479.3,151.5c-0.6-0.1-1-0.6-1-1.2c0-0.5,0.4-0.9,1-1c0.6,0.1,1,0.6,1,1.2
				C480.2,151.1,479.8,151.5,479.3,151.5z M478.6,164.4V154h1.4v10.4H478.6z"/>
			<path class="st1" d="M487.7,164.6c-0.9,0-1.8-0.2-2.7-0.5v4.2l-1.5,0.2v-14.4h1.1l0.2,1.5c0.8-1.1,2-1.7,3.4-1.7
				c2.3,0,4.2,1.6,4.2,5.1C492.5,162.8,490.2,164.6,487.7,164.6L487.7,164.6z M488.1,155.1c-1.3,0.1-2.4,0.8-3.1,1.9v5.7
				c0.8,0.4,1.7,0.6,2.7,0.6c1.9,0,3.3-1.4,3.3-4.3C491,156.5,489.8,155.1,488.1,155.1L488.1,155.1z"/>
			<path class="st1" d="M498.3,164.6c-1.3,0-2.6-0.3-3.7-0.9l0.2-1.4c1.1,0.7,2.3,1.1,3.6,1.1c1.5,0,2.4-0.6,2.4-1.7
				c0-1.1-0.6-1.5-2.7-2c-2.3-0.6-3.3-1.3-3.3-3.1s1.4-2.8,3.5-2.8c1.1,0,2.2,0.2,3.2,0.7l-0.2,1.4c-0.9-0.5-1.9-0.8-3-0.8
				c-1.4,0-2.1,0.6-2.1,1.5c0,0.9,0.6,1.3,2.3,1.8c2.5,0.7,3.6,1.4,3.6,3.3C502.1,163.6,500.7,164.6,498.3,164.6L498.3,164.6z"/>
			<path class="st1" d="M401.1,176.4c-0.8-0.1-1.5,0.4-1.6,1.2c0,0.1,0,0.3,0,0.4v2.4h2.1l0.2,1.2h-2.3v9.2h-1.4v-9.2h-1.6v-1.2h1.6
				v-2.5c0-1.9,1.1-2.8,2.9-2.8c0.2,0,0.5,0,0.8,0l0.2,1.3C401.7,176.4,401.4,176.4,401.1,176.4L401.1,176.4z"/>
			<path class="st1" d="M407.9,191.1c-2.7,0-4.7-2-4.7-5.4s2-5.4,4.7-5.4s4.7,2,4.7,5.4S410.6,191.1,407.9,191.1z M407.9,181.4
				c-2.1,0-3.2,1.7-3.2,4.2s1.1,4.2,3.2,4.2s3.2-1.7,3.2-4.2S410,181.4,407.9,181.4L407.9,181.4z"/>
			<path class="st1" d="M416.8,184.3v6.5h-1.5v-10.4h1.1l0.3,2.1c0.8-1.3,2.2-2.2,3.7-2.4l0.2,1.4
				C419,181.8,417.6,182.8,416.8,184.3L416.8,184.3z"/>
			<path class="st1" d="M441.2,190.8v-7.2c0-1.3-0.5-2.2-1.9-2.2c-1.3,0.1-2.5,0.8-3.3,1.8v7.6h-1.4v-7.2c0-1.3-0.5-2.2-1.9-2.2
				c-1.3,0.1-2.5,0.8-3.3,1.8v7.6H428v-10.4h1.1l0.2,1.5c1-1,2.3-1.6,3.7-1.7c1.3-0.2,2.5,0.6,2.9,1.8c1-1.1,2.3-1.7,3.8-1.8
				c2.1,0,3,1.2,3,3.2v7.5h-1.4L441.2,190.8L441.2,190.8z"/>
			<path class="st1" d="M446.8,177.9c-0.6-0.1-1-0.6-1-1.2c0-0.5,0.4-0.9,1-1c0.6,0.1,1,0.6,1,1.2
				C447.7,177.5,447.3,177.9,446.8,177.9z M446.1,190.8v-10.4h1.4v10.4H446.1z"/>
			<path class="st1" d="M458.2,190.8l-0.3-1.5c-0.8,1.1-2,1.7-3.3,1.7c-2.3,0-4.2-1.6-4.2-5.1c0-3.8,2.2-5.7,4.8-5.7
				c0.9,0,1.9,0.2,2.7,0.5v-5.5l1.5-0.3v15.8h-1.2V190.8z M457.9,182.1c-0.8-0.4-1.7-0.6-2.7-0.6c-1.9,0-3.3,1.4-3.3,4.3
				c0,2.5,1.2,3.9,2.9,3.9c1.3-0.1,2.4-0.8,3.1-1.9V182.1z"/>
			<path class="st1" d="M469.9,190.8l-0.3-1.5c-0.8,1.1-2,1.7-3.3,1.7c-2.3,0-4.2-1.6-4.2-5.1c0-3.8,2.2-5.7,4.8-5.7
				c0.9,0,1.9,0.2,2.7,0.5v-5.5l1.5-0.3v15.8h-1.2V190.8z M469.6,182.1c-0.8-0.4-1.7-0.6-2.7-0.6c-1.9,0-3.3,1.4-3.3,4.3
				c0,2.5,1.2,3.9,2.9,3.9c1.3-0.1,2.4-0.8,3.1-1.9V182.1z"/>
			<path class="st1" d="M474.6,190.8v-15.5l1.4-0.3v15.8H474.6z"/>
			<path class="st1" d="M483.6,191.1c-2.7,0-4.7-1.9-4.7-5.4c0-3.3,1.9-5.4,4.5-5.4c2.8,0,4.2,2.3,4.2,5.2v0.3h-7.2
				c0,2.6,1.2,4.1,3.3,4.1c1.4,0,2.7-0.6,3.7-1.5l0.2,1.3C486.5,190.5,485.1,191.1,483.6,191.1L483.6,191.1z M480.4,184.6h5.7
				c-0.1-1.9-1-3.2-2.7-3.2S480.7,182.6,480.4,184.6z"/>
			<path class="st1" d="M419.7,217.4c-1.3,0-2.6-0.3-3.7-0.9l0.2-1.4c1.1,0.7,2.3,1.1,3.6,1.1c1.5,0,2.4-0.6,2.4-1.7
				c0-1.1-0.6-1.5-2.7-2c-2.3-0.6-3.3-1.3-3.3-3.1c0-1.8,1.4-2.8,3.5-2.8c1.1,0,2.2,0.2,3.2,0.7l-0.2,1.4c-0.9-0.5-1.9-0.8-3-0.8
				c-1.4,0-2.1,0.6-2.1,1.5s0.6,1.3,2.3,1.8c2.5,0.7,3.6,1.4,3.6,3.3C423.5,216.4,422.1,217.4,419.7,217.4L419.7,217.4z"/>
			<path class="st1" d="M430.3,217.5c-2.6,0-4.7-2-4.7-5.4s2.1-5.4,4.8-5.4c1.2,0,2.4,0.4,3.4,1.1l-0.2,1.4c-0.9-0.8-2-1.2-3.2-1.2
				c-2,0-3.2,1.6-3.2,4.2c0,2.6,1.3,4.2,3.4,4.2c1.2,0,2.3-0.4,3.2-1.2l0.2,1.3C432.9,217.1,431.6,217.5,430.3,217.5L430.3,217.5z"
				/>
			<path class="st1" d="M443.3,217.2V210c0-1.3-0.6-2.2-1.9-2.2c-1.3,0.1-2.5,0.8-3.4,1.8v7.5h-1.5v-15.5l1.5-0.3v6.9
				c1-1,2.3-1.6,3.6-1.7c1.6-0.2,2.9,1,3.1,2.5c0,0.2,0,0.4,0,0.6v7.5L443.3,217.2z"/>
			<path class="st1" d="M452.1,217.5c-2.7,0-4.7-2-4.7-5.4s2-5.4,4.7-5.4s4.7,2,4.7,5.4S454.8,217.5,452.1,217.5z M452.1,207.9
				c-2.1,0-3.2,1.7-3.2,4.2s1.1,4.2,3.2,4.2s3.2-1.7,3.2-4.2S454.2,207.9,452.1,207.9L452.1,207.9z"/>
			<path class="st1" d="M463.6,217.5c-2.7,0-4.7-2-4.7-5.4s2-5.4,4.7-5.4s4.7,2,4.7,5.4S466.3,217.5,463.6,217.5z M463.6,207.9
				c-2.1,0-3.2,1.7-3.2,4.2s1.1,4.2,3.2,4.2s3.2-1.7,3.2-4.2S465.7,207.9,463.6,207.9L463.6,207.9z"/>
			<path class="st1" d="M471.2,217.2v-15.5l1.4-0.3v15.8H471.2z"/>
		</g>
	</g>
	<g>
		<path class="st1" d="M558.8,253.8h119.4c6.6,0,12,5.4,12,12v30.1c0,6.6-5.4,12-12,12H558.8c-6.6,0-12-5.4-12-12v-30.1
			C546.8,259.2,552.2,253.8,558.8,253.8z"/>
		<path class="st2" d="M595.6,284.4v3.2H593v-3.2h-7.2v-1.9l6.6-9.9h3.2v9.7h2.2v2L595.6,284.4z M592.9,275.5l-4.6,6.8h4.6V275.5z"
			/>
		<path class="st2" d="M605.2,287.8c-3.6,0-5.9-2.8-5.9-7.7s2.4-7.7,5.9-7.7s5.9,2.8,5.9,7.7S608.8,287.8,605.2,287.8z M605.2,274.7
			c-2,0-3.1,1.9-3.1,5.5s1.1,5.5,3.1,5.5s3.1-1.9,3.1-5.5S607.2,274.7,605.2,274.7z"/>
		<path class="st2" d="M630.8,287.5v-7c0-0.9-0.3-1.6-1.3-1.6c-0.9,0.1-1.8,0.6-2.3,1.3v7.2h-2.6v-7c0-0.9-0.3-1.6-1.3-1.6
			c-0.9,0.1-1.8,0.6-2.3,1.3v7.2h-2.7v-10.5h2.2l0.2,1.5c0.9-1,2.1-1.6,3.5-1.7c1.2-0.1,2.3,0.6,2.7,1.7c0.9-1,2.2-1.6,3.5-1.7
			c2,0,3,1.2,3,3.2v7.7H630.8L630.8,287.5z"/>
		<path class="st2" d="M637.4,275.1c-0.8,0-1.5-0.6-1.6-1.4v-0.1c0-0.9,0.7-1.6,1.6-1.6s1.6,0.7,1.6,1.6
			C639,274.5,638.3,275.1,637.4,275.1C637.5,275.1,637.5,275.1,637.4,275.1z M636.1,287.6V277h2.6v10.6H636.1z"/>
		<path class="st2" d="M648,287.5v-7c0-0.9-0.4-1.6-1.4-1.6c-1,0.1-1.8,0.6-2.4,1.3v7.2h-2.6v-10.6h2.2l0.2,1.5
			c0.9-1,2.2-1.6,3.5-1.7c2,0,3,1.2,3,3.2v7.7H648L648,287.5z"/>
		<path class="st0" d="M558.8,47.9h119.4c6.6,0,12,5.4,12,12v172.4c0,6.6-5.4,12-12,12H558.8c-6.6,0-12-5.4-12-12V59.9
			C546.8,53.2,552.2,47.9,558.8,47.9z"/>
		<path class="st1" d="M590.9,79.7h-1.3v5.6h-2.9V70.1h4.4c3.5,0,5.6,1.6,5.6,4.7C596.7,78,594.4,79.7,590.9,79.7z M591,72.4h-1.4
			v4.9h1.3c1.9,0,3-0.8,3-2.5C593.8,73.2,592.9,72.4,591,72.4z"/>
		<path class="st1" d="M604.2,85.2l-0.2-1.4c-0.9,1-2.2,1.6-3.5,1.7c-1.5,0.1-2.9-1-3-2.5c0-0.1,0-0.3,0-0.4c0-2.6,2.1-3.7,6.4-4.1
			v-0.3c0-1.1-0.7-1.6-1.8-1.6c-1.2,0-2.4,0.3-3.5,0.9l-0.3-2.1c1.3-0.6,2.8-0.9,4.2-0.9c2.8,0,4.1,1,4.1,3.6v7.3L604.2,85.2z
			 M603.9,79.9c-3.1,0.4-3.8,1.3-3.8,2.3c0,0.6,0.4,1.2,1.1,1.2c0.1,0,0.1,0,0.2,0c0.9,0,1.8-0.4,2.5-1.1V79.9z"/>
		<path class="st1" d="M611.8,79.2v6.1h-2.6V74.6h2.2l0.3,2.1c0.6-1.3,1.9-2.2,3.4-2.3l0.4,2.6C614,77.1,612.6,77.9,611.8,79.2
			L611.8,79.2z"/>
		<path class="st1" d="M621.4,85.4c-2.1,0-3.5-0.8-3.5-3.2v-5.5h-1.5v-2.2h1.5v-3.4l2.6-0.4v3.8h2.2l0.3,2.2h-2.5v5
			c0,0.9,0.4,1.3,1.4,1.3c0.3,0,0.6,0,0.8-0.1l0.3,2.2C622.6,85.4,622,85.4,621.4,85.4z"/>
		<path class="st1" d="M638.9,82.1v3.2h-2.6v-3.2h-7.2v-1.9l6.6-9.9h3.2V80h2.2v2L638.9,82.1z M636.3,73.2l-4.6,6.8h4.6V73.2z"/>
		<path class="st1" d="M642.9,77.8v-3.2h2.9v3.2H642.9z M642.9,85.2V82h2.9v3.2H642.9z"/>
		<path class="st1" d="M573.5,111.7h-1.3l-4.4-13.2l-4.4,13.1h-1.3l-4.5-15l1.5-0.3l3.8,13l4.2-12.8h1.5l4.2,12.8l3.8-12.8h1.5
			L573.5,111.7z"/>
		<path class="st1" d="M585.9,111.6l-0.3-1.4c-1,1-2.3,1.6-3.7,1.6c-1.8,0-3.1-1-3.1-2.8c0-2.4,2-3.6,6.7-4v-0.7c0-1.4-0.8-2-2.2-2
			c-1.3,0-2.5,0.3-3.6,0.9l-0.2-1.3c1.2-0.6,2.5-0.9,3.9-0.9c2.3,0,3.5,1.1,3.5,3.2v7.4L585.9,111.6z M585.5,106.1
			c-4.1,0.4-5.2,1.4-5.2,2.8c0,0.9,0.7,1.7,1.6,1.7c0.1,0,0.2,0,0.3,0c1.3-0.1,2.5-0.6,3.4-1.6L585.5,106.1L585.5,106.1z"/>
		<path class="st1" d="M590.4,111.6V96.1l1.4-0.3v15.8H590.4z"/>
		<path class="st1" d="M602,111.8l-5.2-5.7v5.5h-1.5V96.1l1.5-0.3v9.8l4.5-4.5h1.8l-4.8,4.6l5.3,5.8L602,111.8z"/>
		<path class="st1" d="M613.8,111.8c-1.6,0-2.7-0.6-2.7-2.6v-6.7h-1.6v-1.3h1.6v-3.6l1.4-0.2v3.8h2.4l0.2,1.2h-2.5v6.6
			c0,1.1,0.4,1.5,1.5,1.5c0.3,0,0.7,0,1-0.1l0.2,1.2C614.9,111.8,614.4,111.8,613.8,111.8L613.8,111.8z"/>
		<path class="st1" d="M624.6,111.6v-7.1c0-1.3-0.6-2.2-1.9-2.2c-1.3,0.1-2.5,0.8-3.4,1.8v7.5h-1.4V96.1l1.5-0.3v6.9
			c1-1,2.3-1.6,3.7-1.7c1.6-0.2,2.9,1,3.1,2.5c0,0.2,0,0.4,0,0.6v7.5H624.6z"/>
		<path class="st1" d="M630.8,105.1v6.5h-1.5v-10.4h1.1l0.3,2.1c0.8-1.3,2.2-2.2,3.7-2.3l0.2,1.4
			C633.1,102.6,631.6,103.6,630.8,105.1z"/>
		<path class="st1" d="M640.6,111.9c-2.7,0-4.7-2-4.7-5.4s2-5.4,4.7-5.4s4.7,2,4.7,5.4S643.3,111.9,640.6,111.9z M640.6,102.2
			c-2.1,0-3.2,1.7-3.2,4.2s1.2,4.2,3.2,4.2s3.2-1.7,3.2-4.2C643.8,103.9,642.8,102.3,640.6,102.2L640.6,102.2z"/>
		<path class="st1" d="M655.1,111.6l-0.2-1.5c-1,1-2.3,1.7-3.7,1.8c-2.1,0-3.1-1.2-3.1-3.2v-7.4h1.5v7.2c0,1.3,0.6,2.1,1.9,2.1
			c1.3-0.1,2.5-0.8,3.4-1.8v-7.5h1.5v10.4L655.1,111.6L655.1,111.6z"/>
		<path class="st1" d="M663.1,115.6c-2.7,0-4.8-0.9-4.8-2.7c0-1.1,0.8-2,2.4-2.8c-0.4-0.2-0.7-0.6-0.8-1.1c0-0.5,0.3-1,1-1.4
			c-1.2-0.6-1.9-1.8-1.9-3.1c0-2,1.7-3.6,3.7-3.5c0.1,0,0.1,0,0.2,0c1,0,1.9,0.3,2.6,0.9l2.6-0.8l0.2,1.4l-2.1,0.2
			c0.4,0.5,0.6,1.2,0.5,1.8c0,2-1.7,3.6-3.7,3.5c-0.1,0-0.1,0-0.2,0c-0.3,0-0.6,0-0.9-0.1c-0.4,0.2-0.7,0.5-0.7,0.8
			c0,0.4,0.4,0.6,2.3,0.9l0.8,0.2c2.3,0.4,3.6,1.1,3.6,2.6C668.1,114.5,665.8,115.6,663.1,115.6z M661.9,110.6
			c-1.4,0.7-2.1,1.4-2.1,2.2c0,1.1,1.4,1.7,3.4,1.7s3.5-0.8,3.5-1.8c0-0.8-0.7-1.2-2.5-1.6l-1-0.2
			C662.8,110.8,662.3,110.7,661.9,110.6L661.9,110.6z M663,102.1c-1.4,0-2.4,1.2-2.4,2.5c0,1.4,1.2,2.4,2.5,2.4s2.4-1.1,2.4-2.5
			c0-1.3-1-2.4-2.3-2.5C663.1,102.1,663,102.1,663,102.1L663,102.1z"/>
		<path class="st1" d="M677.4,111.6v-7.1c0-1.3-0.6-2.2-1.9-2.2c-1.3,0.1-2.5,0.8-3.4,1.8v7.5h-1.5V96.1l1.5-0.3v6.9
			c1-1,2.3-1.6,3.7-1.7c1.6-0.2,2.9,1,3.1,2.5c0,0.2,0,0.4,0,0.6v7.5H677.4z"/>
		<path class="st1" d="M586.1,138.2c-1.6,0-2.7-0.6-2.7-2.6v-6.8h-1.6v-1.2h1.6V124l1.4-0.2v3.8h2.4l0.2,1.2h-2.6v6.6
			c0,1.1,0.4,1.5,1.5,1.5c0.3,0,0.7,0,1-0.1l0.2,1.2C587.1,138.2,586.6,138.2,586.1,138.2L586.1,138.2z"/>
		<path class="st1" d="M596.9,138v-7.2c0-1.3-0.6-2.2-1.9-2.2c-1.3,0.1-2.5,0.8-3.4,1.8v7.5h-1.5v-15.4l1.5-0.3v6.9
			c1-1,2.3-1.6,3.7-1.7c1.6-0.2,2.9,1,3.1,2.5c0,0.2,0,0.4,0,0.6v7.5H596.9z"/>
		<path class="st1" d="M605.8,138.3c-2.7,0-4.7-1.8-4.7-5.4c0-3.3,1.9-5.4,4.5-5.4c2.8,0,4.2,2.3,4.2,5.2v0.3h-7.2
			c0,2.6,1.2,4.1,3.3,4.1c1.4,0,2.7-0.6,3.7-1.5l0.2,1.3C608.6,137.7,607.2,138.3,605.8,138.3z M602.5,131.8h5.7
			c-0.1-1.9-1-3.2-2.7-3.2S602.8,129.8,602.5,131.8z"/>
		<path class="st1" d="M621.1,138.2c-1.4,0-2.8-0.3-4-0.9l0.2-1.5c1.2,0.7,2.5,1.1,3.9,1.1c1.8,0,3.1-1,3.1-2.7
			c0-1.5-0.8-2.2-3.1-3.3c-2.9-1.3-4-2.2-4-4.4c0-2.3,1.8-3.8,4.4-3.8c1.2,0,2.3,0.2,3.3,0.8l-0.2,1.5c-0.9-0.6-2.1-1-3.2-1
			c-1.3-0.2-2.6,0.8-2.8,2.1c0,0.1,0,0.2,0,0.3c0,1.4,0.7,2,3.1,3.1c2.8,1.2,4,2.3,4,4.6C625.8,136.6,623.8,138.2,621.1,138.2z"/>
		<path class="st1" d="M633.8,122.8h1.6l5.9,15.1l-1.5,0.3l-2-5.1h-6.6l-1.9,4.9h-1.5L633.8,122.8z M631.8,131.8h5.6l-2.8-7.3
			L631.8,131.8z"/>
		<path class="st1" d="M649.8,138.3c-4.1,0-6.9-3.2-6.9-7.9c0-4.7,2.8-7.9,7-7.9c1.5,0,3,0.4,4.3,1.3l-0.2,1.5
			c-1.1-0.9-2.5-1.4-4-1.5c-3.3,0-5.4,2.6-5.4,6.5c0,3.9,2.1,6.5,5.4,6.5c1.6,0,3.1-0.6,4.3-1.6l0.2,1.4
			C653.1,137.8,651.4,138.3,649.8,138.3L649.8,138.3z"/>
		<path class="st1" d="M570.1,164.7c-2.6,0-4.7-2-4.7-5.4s2.1-5.4,4.8-5.4c1.2,0,2.4,0.4,3.4,1.1l-0.2,1.4c-0.9-0.8-2-1.2-3.2-1.2
			c-2,0-3.2,1.6-3.2,4.2c0,2.6,1.3,4.2,3.4,4.2c1.2,0,2.3-0.4,3.2-1.2l0.2,1.3C572.7,164.3,571.4,164.7,570.1,164.7L570.1,164.7z"/>
		<path class="st1" d="M583.3,164.4l-0.2-1.5c-1,1-2.3,1.7-3.7,1.8c-2.1,0-3.1-1.2-3.1-3.2v-7.4h1.5v7.2c0,1.3,0.6,2.1,1.9,2.1
			c1.3-0.1,2.5-0.8,3.4-1.8v-7.5h1.5v10.4L583.3,164.4L583.3,164.4L583.3,164.4z"/>
		<path class="st1" d="M589.3,157.9v6.5h-1.5V154h1.1l0.3,2.1c0.8-1.3,2.2-2.2,3.7-2.4l0.2,1.4C591.5,155.4,590,156.4,589.3,157.9z"
			/>
		<path class="st1" d="M596.8,157.9v6.5h-1.5V154h1.1l0.3,2.1c0.8-1.3,2.2-2.2,3.7-2.4l0.2,1.4C599.1,155.4,597.6,156.4,596.8,157.9
			z"/>
		<path class="st1" d="M603.8,151.5c-0.6,0.1-1.1-0.4-1.2-1c-0.1-0.6,0.4-1.1,1-1.2c0.1,0,0.1,0,0.2,0c0.6,0.1,1,0.6,1,1.2
			C604.8,151.1,604.3,151.5,603.8,151.5z M603.1,164.4V154h1.4v10.4H603.1z"/>
		<path class="st1" d="M612.2,164.7c-2.6,0-4.7-2-4.7-5.4s2.1-5.4,4.8-5.4c1.2,0,2.4,0.4,3.4,1.1l-0.2,1.4c-0.9-0.8-2-1.2-3.2-1.2
			c-2,0-3.2,1.6-3.2,4.2c0,2.6,1.3,4.2,3.4,4.2c1.2,0,2.3-0.4,3.2-1.2l0.2,1.3C614.8,164.3,613.5,164.7,612.2,164.7L612.2,164.7z"/>
		<path class="st1" d="M625.4,164.4l-0.2-1.5c-1,1-2.3,1.7-3.7,1.8c-2.1,0-3.1-1.2-3.1-3.2v-7.4h1.5v7.2c0,1.3,0.6,2.1,1.9,2.1
			c1.3-0.1,2.5-0.8,3.4-1.8v-7.5h1.5v10.4L625.4,164.4L625.4,164.4L625.4,164.4z"/>
		<path class="st1" d="M630,164.4v-15.5l1.4-0.3v15.9L630,164.4z"/>
		<path class="st1" d="M642,164.4l-0.2-1.5c-1,1-2.3,1.7-3.7,1.8c-2.1,0-3.1-1.2-3.1-3.2v-7.4h1.5v7.2c0,1.3,0.6,2.1,1.9,2.1
			c1.3-0.1,2.5-0.8,3.4-1.8v-7.5h1.5v10.4L642,164.4L642,164.4L642,164.4z"/>
		<path class="st1" d="M659.8,164.4v-7.2c0-1.3-0.5-2.2-1.9-2.2c-1.3,0.1-2.5,0.8-3.3,1.8v7.6h-1.4v-7.2c0-1.3-0.5-2.2-1.9-2.2
			c-1.3,0.1-2.5,0.8-3.3,1.8v7.6h-1.4V154h1.1l0.2,1.5c1-1,2.3-1.6,3.7-1.7c1.3-0.2,2.5,0.6,2.9,1.8c1-1.1,2.3-1.7,3.8-1.8
			c2.1,0,3,1.2,3,3.2v7.5L659.8,164.4L659.8,164.4z"/>
		<path class="st1" d="M664.4,167.4l-0.8-0.2l1.1-4.9h1.8L664.4,167.4z"/>
		<path class="st1" d="M574.4,191.1c-2.7,0-4.7-2-4.7-5.4s2-5.4,4.7-5.4s4.7,2,4.7,5.4S577.1,191.1,574.4,191.1z M574.4,181.4
			c-2.1,0-3.2,1.7-3.2,4.2s1.1,4.2,3.2,4.2c2.1,0,3.2-1.7,3.2-4.2S576.5,181.4,574.4,181.4L574.4,181.4z"/>
		<path class="st1" d="M588.7,190.8v-7.2c0-1.3-0.6-2.2-1.9-2.2c-1.3,0.1-2.5,0.8-3.4,1.8v7.5h-1.5v-10.4h1.1l0.2,1.5
			c1-1,2.3-1.7,3.7-1.8c2.1,0,3.1,1.2,3.1,3.2v7.4h-1.3L588.7,190.8L588.7,190.8z"/>
		<path class="st1" d="M597.5,191.1c-2.7,0-4.7-1.9-4.7-5.4c0-3.3,1.9-5.4,4.5-5.4c2.8,0,4.2,2.3,4.2,5.2v0.3h-7.2
			c0,2.6,1.2,4.1,3.3,4.1c1.4,0,2.7-0.6,3.7-1.5l0.2,1.3C600.3,190.5,598.9,191.1,597.5,191.1L597.5,191.1z M594.3,184.6h5.7
			c-0.1-1.9-1-3.2-2.7-3.2C595.6,181.4,594.6,182.6,594.3,184.6z"/>
		<path class="st1" d="M616.4,190.8l-0.3-1.5c-0.8,1.1-2,1.7-3.3,1.7c-2.3,0-4.2-1.6-4.2-5.1c0-3.8,2.2-5.7,4.8-5.7
			c0.9,0,1.9,0.2,2.7,0.5v-5.5l1.5-0.3v15.8h-1.2V190.8z M616,182.1c-0.8-0.4-1.7-0.6-2.7-0.6c-1.9,0-3.3,1.4-3.3,4.3
			c0,2.5,1.2,3.9,2.9,3.9c1.3-0.1,2.4-0.8,3.1-1.9V182.1z"/>
		<path class="st1" d="M627.2,190.8l-0.2-1.4c-1,1-2.3,1.6-3.7,1.6c-1.8,0-3.1-1-3.1-2.8c0-2.4,2-3.6,6.7-4v-0.7c0-1.4-0.8-2-2.2-2
			c-1.3,0-2.5,0.3-3.6,0.9l-0.2-1.3c1.2-0.6,2.5-0.9,3.9-0.9c2.3,0,3.5,1.1,3.5,3.2v7.4H627.2z M626.9,185.3
			c-4.1,0.4-5.2,1.4-5.2,2.8c0,0.9,0.7,1.7,1.6,1.7c0.1,0,0.2,0,0.3,0c1.3-0.1,2.5-0.6,3.4-1.6L626.9,185.3L626.9,185.3z"/>
		<path class="st1" d="M635.2,192.1c-0.8,2-1.7,2.7-3.2,2.7c-0.2,0-0.4,0-0.6-0.1l-0.2-1.3c0.3,0.1,0.6,0.1,0.9,0.1
			c0.9,0,1.4-0.4,1.8-1.4l0.5-1.2l-3.9-10.3l1.4-0.3l3.2,8.9l3.1-8.7h1.5L635.2,192.1z"/>
		<path class="st1" d="M653.3,190.8l-0.2-1.4c-1,1-2.3,1.6-3.7,1.6c-1.8,0-3.1-1-3.1-2.8c0-2.4,2-3.6,6.7-4v-0.7c0-1.4-0.8-2-2.2-2
			c-1.3,0-2.5,0.3-3.6,0.9l-0.2-1.3c1.2-0.6,2.5-0.9,3.9-0.9c2.3,0,3.5,1.1,3.5,3.2v7.4H653.3z M653,185.3c-4.1,0.4-5.2,1.4-5.2,2.8
			c0,0.9,0.7,1.7,1.6,1.7c0.1,0,0.2,0,0.3,0c1.3-0.1,2.5-0.6,3.4-1.6L653,185.3L653,185.3z"/>
		<path class="st1" d="M660.9,191c-1.6,0-2.7-0.6-2.7-2.6v-6.8h-1.6v-1.2h1.6v-3.6l1.4-0.2v3.9h2.4l0.2,1.2h-2.6v6.6
			c0,1.1,0.4,1.5,1.5,1.5c0.3,0,0.7,0,1-0.1l0.2,1.2C661.9,191,661.4,191,660.9,191L660.9,191z"/>
		<path class="st1" d="M595.6,217.2l-0.2-1.4c-1,1-2.3,1.6-3.7,1.6c-1.8,0-3.1-1-3.1-2.8c0-2.4,2-3.6,6.7-4v-0.7c0-1.4-0.8-2-2.2-2
			c-1.3,0-2.5,0.3-3.6,0.9l-0.2-1.3c1.2-0.6,2.5-0.9,3.9-0.9c2.3,0,3.5,1.1,3.5,3.2v7.4H595.6z M595.3,211.7
			c-4.1,0.4-5.2,1.4-5.2,2.8c0,0.9,0.7,1.7,1.6,1.7c0.1,0,0.2,0,0.3,0c1.3-0.1,2.5-0.6,3.4-1.6L595.3,211.7L595.3,211.7z"/>
		<path class="st1" d="M608.2,217.4c-1.6,0-2.7-0.6-2.7-2.6V208H604v-1.2h1.6v-3.6l1.4-0.2v3.9h2.4l0.2,1.2H607v6.6
			c0,1.1,0.4,1.5,1.5,1.5c0.3,0,0.7,0,1-0.1l0.2,1.2C609.2,217.4,608.8,217.4,608.2,217.4z"/>
		<path class="st1" d="M613.1,204.4c-0.6,0.1-1.1-0.4-1.2-1c-0.1-0.6,0.4-1.1,1-1.2c0.1,0,0.1,0,0.2,0c0.6,0.1,1,0.6,1,1.2
			C614,203.9,613.6,204.3,613.1,204.4z M612.4,217.2v-10.4h1.4v10.4H612.4z"/>
		<path class="st1" d="M630.6,217.2V210c0-1.3-0.5-2.2-1.9-2.2c-1.3,0.1-2.5,0.8-3.3,1.8v7.6H624V210c0-1.3-0.5-2.2-1.9-2.2
			c-1.3,0.1-2.5,0.8-3.3,1.8v7.6h-1.5v-10.4h1.1l0.2,1.5c1-1,2.3-1.6,3.7-1.7c1.3-0.2,2.5,0.6,2.9,1.8c1-1.1,2.3-1.7,3.8-1.8
			c2.1,0,3,1.2,3,3.2v7.5h-1.4L630.6,217.2L630.6,217.2z"/>
		<path class="st1" d="M639.4,217.5c-2.7,0-4.7-1.9-4.7-5.4c0-3.3,1.9-5.4,4.5-5.4c2.8,0,4.2,2.3,4.2,5.2v0.3h-7.2
			c0,2.6,1.2,4.1,3.3,4.1c1.4,0,2.7-0.6,3.7-1.5l0.2,1.3C642.3,217,640.9,217.5,639.4,217.5L639.4,217.5z M636.2,211h5.7
			c-0.1-1.9-1-3.2-2.7-3.2S636.5,209,636.2,211L636.2,211z"/>
	</g>
	<g>
		<g>
			<path class="st1" d="M731.2,253.8h119.4c6.6,0,12,5.4,12,12v30.1c0,6.6-5.4,12-12,12H731.2c-6.6,0-12-5.4-12-12v-30.1
				C719.2,259.2,724.5,253.8,731.2,253.8z"/>
			<path class="st2" d="M770.4,287.8c-1.6,0-3.1-0.3-4.5-1.1l0.4-2.5c1.2,0.8,2.6,1.2,4.1,1.2c1.7,0,3-0.9,3-2.6
				c0-1.5-1-2.4-2.7-2.4c-0.8,0-1.6,0.1-2.3,0.4l-1.9-0.4l0.5-7.8h8.3l0.4,2.4h-6.5l-0.2,3.4c0.7-0.2,1.5-0.3,2.2-0.3
				c3,0,4.9,1.7,4.9,4.5C776,286,773.7,287.8,770.4,287.8L770.4,287.8z"/>
			<path class="st2" d="M795.5,287.5v-7c0-0.9-0.3-1.6-1.3-1.6c-0.9,0.1-1.8,0.6-2.3,1.3v7.2h-2.6v-7c0-0.9-0.3-1.6-1.3-1.6
				c-0.9,0.1-1.8,0.6-2.3,1.3v7.2h-2.6v-10.5h2.2l0.2,1.5c0.9-1,2.1-1.6,3.5-1.7c1.2-0.1,2.3,0.6,2.7,1.7c0.9-1,2.2-1.6,3.5-1.7
				c2,0,3,1.2,3,3.2v7.7H795.5L795.5,287.5z"/>
			<path class="st2" d="M802.4,275.1c-0.8,0-1.5-0.6-1.6-1.4v-0.1c0-0.9,0.7-1.6,1.6-1.6s1.6,0.7,1.6,1.6
				C803.9,274.5,803.2,275.1,802.4,275.1L802.4,275.1z M801,287.6V277h2.6v10.6H801z"/>
			<path class="st2" d="M812.9,287.5v-7c0-0.9-0.4-1.6-1.4-1.6c-1,0.1-1.8,0.6-2.4,1.3v7.2h-2.6v-10.6h2.2l0.2,1.5
				c0.9-1,2.2-1.6,3.5-1.7c2,0,3,1.2,3,3.2v7.7H812.9L812.9,287.5z"/>
		</g>
		<path class="st0" d="M731.2,47.9h119.4c6.6,0,12,5.4,12,12v172.4c0,6.6-5.4,12-12,12H731.2c-6.6,0-12-5.4-12-12V59.9
			C719.2,53.2,724.5,47.9,731.2,47.9z"/>
		<path class="st1" d="M764,79.7h-1.3v5.6h-2.9V70.1h4.4c3.5,0,5.6,1.6,5.6,4.7C769.8,78,767.5,79.7,764,79.7z M764,72.4h-1.4v4.9
			h1.3c1.9,0,3-0.8,3-2.5C767,73.2,766,72.4,764,72.4z"/>
		<path class="st1" d="M777.2,85.2l-0.2-1.4c-0.9,1-2.2,1.6-3.5,1.7c-1.5,0.1-2.9-1-3-2.5c0-0.1,0-0.3,0-0.4c0-2.6,2.1-3.7,6.4-4.1
			v-0.3c0-1.1-0.7-1.6-1.8-1.6c-1.2,0-2.4,0.3-3.5,0.9l-0.3-2.1c1.3-0.6,2.8-0.9,4.2-0.9c2.8,0,4.1,1,4.1,3.6v7.3L777.2,85.2z
			 M777,79.9c-3.1,0.4-3.8,1.3-3.8,2.3c0,0.6,0.4,1.2,1.1,1.2c0.1,0,0.1,0,0.2,0c0.9,0,1.8-0.4,2.5-1.1V79.9z"/>
		<path class="st1" d="M784.8,79.2v6.1h-2.6V74.6h2.2l0.3,2.1c0.6-1.3,1.9-2.2,3.4-2.3l0.4,2.6C787,77.1,785.7,77.9,784.8,79.2
			L784.8,79.2z"/>
		<path class="st1" d="M794.5,85.4c-2.1,0-3.5-0.8-3.5-3.2v-5.5h-1.5v-2.2h1.5v-3.4l2.6-0.4v3.8h2.2l0.3,2.2h-2.5v5
			c0,0.9,0.4,1.3,1.4,1.3c0.3,0,0.6,0,0.8-0.1l0.3,2.2C795.7,85.3,795,85.4,794.5,85.4z"/>
		<path class="st1" d="M806.9,85.5c-1.6,0-3.1-0.3-4.5-1.1l0.4-2.5c1.2,0.8,2.6,1.2,4.1,1.2c1.7,0,3-0.9,3-2.6c0-1.5-1-2.4-2.7-2.4
			c-0.8,0-1.6,0.1-2.3,0.4l-1.9-0.4l0.5-7.8h8.3l0.4,2.4h-6.5l-0.3,3.5c0.7-0.2,1.5-0.3,2.2-0.3c3,0,4.9,1.7,4.9,4.5
			C812.5,83.7,810.2,85.5,806.9,85.5z"/>
		<path class="st1" d="M814.8,77.8v-3.2h2.9v3.2H814.8z M814.8,85.2V82h2.9v3.2H814.8z"/>
		<path class="st1" d="M766.4,111.9c-4,0-6.8-3.2-6.8-7.9s2.8-7.9,6.9-7.9s6.8,3.2,6.8,7.8C773.3,108.5,770.5,111.9,766.4,111.9z
			 M766.4,97.5c-3.2,0-5.3,2.6-5.3,6.5s2.1,6.5,5.3,6.5s5.3-2.6,5.3-6.5S769.5,97.5,766.4,97.5L766.4,97.5z"/>
		<path class="st1" d="M783,111.6v-7.1c0-1.3-0.6-2.2-1.9-2.2c-1.3,0.1-2.5,0.8-3.4,1.8v7.5h-1.5v-10.4h1.1l0.2,1.5
			c1-1,2.3-1.7,3.7-1.8c2.1,0,3.1,1.2,3.1,3.2v7.4L783,111.6L783,111.6L783,111.6z"/>
		<path class="st1" d="M788,111.6V96.1l1.4-0.3v15.8H788z"/>
		<path class="st1" d="M793.8,98.7c-0.6-0.1-1-0.6-1-1.2c0-0.5,0.4-0.9,1-1c0.6,0.1,1,0.6,1,1.2C794.7,98.3,794.2,98.7,793.8,98.7z
			 M793,111.6v-10.4h1.4v10.4H793z"/>
		<path class="st1" d="M804.8,111.6v-7.1c0-1.3-0.6-2.2-1.9-2.2c-1.3,0.1-2.5,0.8-3.4,1.8v7.5H798v-10.4h1.1l0.2,1.5
			c1-1,2.3-1.7,3.7-1.8c2.1,0,3.1,1.2,3.1,3.2v7.4L804.8,111.6L804.8,111.6z"/>
		<path class="st1" d="M813.5,111.9c-2.7,0-4.7-1.8-4.7-5.4c0-3.3,1.9-5.4,4.5-5.4c2.8,0,4.2,2.3,4.2,5.2v0.2h-7.2
			c0,2.6,1.2,4.1,3.3,4.1c1.4,0,2.7-0.6,3.7-1.5l0.2,1.3C816.5,111.3,815,111.9,813.5,111.9z M810.5,105.4h5.7
			c-0.1-1.9-1-3.2-2.7-3.2S810.7,103.4,810.5,105.4z"/>
		<path class="st1" d="M751.5,138.2c-1.3,0-2.6-0.3-3.7-0.9l0.2-1.4c1.1,0.7,2.3,1.1,3.6,1.1c1.5,0,2.3-0.6,2.3-1.7s-0.6-1.5-2.7-2
			c-2.3-0.6-3.3-1.3-3.3-3.1c0-1.8,1.4-2.8,3.5-2.8c1.1,0,2.2,0.2,3.2,0.7l-0.2,1.4c-0.9-0.5-1.9-0.8-3-0.8c-1.4,0-2.1,0.6-2.1,1.5
			s0.6,1.3,2.3,1.8c2.5,0.7,3.7,1.4,3.7,3.3S753.8,138.2,751.5,138.2L751.5,138.2z"/>
		<path class="st1" d="M765,138l-0.2-1.5c-1,1-2.3,1.7-3.7,1.8c-2.1,0-3.1-1.2-3.1-3.2v-7.4h1.5v7.2c0,1.3,0.6,2.1,1.9,2.1
			c1.3-0.1,2.5-0.8,3.4-1.8v-7.5h1.5v10.4L765,138z"/>
		<path class="st1" d="M771,131.5v6.5h-1.5v-10.4h1.1l0.3,2.1c0.8-1.3,2.2-2.2,3.7-2.3l0.2,1.4C773.2,129,771.8,130,771,131.5z"/>
		<path class="st1" d="M781.2,138.1h-1.4l-3.8-10.4l1.4-0.3l3.1,8.8l3-8.7h1.5L781.2,138.1z"/>
		<path class="st1" d="M791.2,138.3c-2.7,0-4.7-1.8-4.7-5.4c0-3.3,1.9-5.4,4.5-5.4c2.8,0,4.2,2.3,4.2,5.2v0.3H788
			c0,2.6,1.2,4.1,3.3,4.1c1.4,0,2.7-0.6,3.7-1.5l0.2,1.3C794,137.7,792.5,138.3,791.2,138.3z M788,131.8h5.7c-0.1-1.9-1-3.2-2.7-3.2
			S788.2,129.8,788,131.8z"/>
		<path class="st1" d="M801.5,139.3c-0.8,2-1.7,2.7-3.2,2.7c-0.2,0-0.4,0-0.6-0.1l-0.2-1.3c0.3,0.1,0.6,0.1,0.9,0.1
			c0.9,0,1.4-0.4,1.8-1.4l0.5-1.2l-3.9-10.3l1.4-0.3l3.2,8.9l3.1-8.7h1.5L801.5,139.3z"/>
		<path class="st1" d="M816.4,138.2c-1.6,0-2.7-0.6-2.7-2.6v-6.8h-1.6v-1.2h1.6V124l1.4-0.2v3.8h2.4l0.2,1.2h-2.6v6.6
			c0,1.1,0.4,1.5,1.5,1.5c0.3,0,0.7,0,1-0.1l0.2,1.2C817.4,138.2,816.9,138.2,816.4,138.2L816.4,138.2z"/>
		<path class="st1" d="M824.4,138.3c-2.7,0-4.7-2-4.7-5.4s2-5.4,4.7-5.4s4.7,2,4.7,5.4S827,138.3,824.4,138.3z M824.4,128.6
			c-2.1,0-3.2,1.7-3.2,4.2s1.1,4.2,3.2,4.2s3.2-1.7,3.2-4.2S826.5,128.6,824.4,128.6L824.4,128.6z"/>
		<path class="st1" d="M764,164.7c-2.6,0-4.7-2-4.7-5.4s2.1-5.4,4.8-5.4c1.2,0,2.4,0.4,3.4,1.1l-0.2,1.4c-0.9-0.8-2-1.2-3.2-1.2
			c-2,0-3.2,1.6-3.2,4.2c0,2.6,1.3,4.2,3.4,4.2c1.2,0,2.3-0.4,3.2-1.2l0.2,1.3C766.7,164.3,765.4,164.7,764,164.7L764,164.7z"/>
		<path class="st1" d="M774,164.7c-2.7,0-4.7-2-4.7-5.4s2-5.4,4.7-5.4s4.7,2,4.7,5.4S776.8,164.7,774,164.7z M774,155
			c-2.1,0-3.2,1.7-3.2,4.2s1.1,4.2,3.2,4.2s3.2-1.7,3.2-4.2S776.2,155.1,774,155L774,155z"/>
		<path class="st1" d="M781.8,164.4v-15.5l1.4-0.3v15.9L781.8,164.4z"/>
		<path class="st1" d="M786.9,164.4v-15.5l1.4-0.3v15.9L786.9,164.4z"/>
		<path class="st1" d="M796,164.7c-2.7,0-4.7-1.9-4.7-5.4c0-3.3,1.9-5.4,4.5-5.4c2.8,0,4.2,2.3,4.2,5.2v0.3h-7.2
			c0,2.6,1.2,4.1,3.3,4.1c1.4,0,2.7-0.6,3.7-1.5l0.2,1.3C798.8,164.1,797.4,164.7,796,164.7L796,164.7z M792.8,158.2h5.7
			c-0.1-1.9-1-3.2-2.7-3.2S793,156.2,792.8,158.2z"/>
		<path class="st1" d="M806.8,164.7c-2.6,0-4.7-2-4.7-5.4s2.1-5.4,4.8-5.4c1.2,0,2.4,0.4,3.4,1.1l-0.2,1.4c-0.9-0.8-2-1.2-3.2-1.2
			c-2,0-3.2,1.6-3.2,4.2c0,2.6,1.3,4.2,3.4,4.2c1.2,0,2.3-0.4,3.2-1.2l0.2,1.3C809.2,164.3,808,164.7,806.8,164.7L806.8,164.7z"/>
		<path class="st1" d="M816.2,164.6c-1.6,0-2.7-0.6-2.7-2.6v-6.8h-1.6V154h1.6v-3.6l1.4-0.2v3.9h2.4l0.2,1.2h-2.6v6.6
			c0,1.1,0.4,1.5,1.5,1.5c0.3,0,0.7,0,1-0.1l0.2,1.2C817.2,164.6,816.7,164.6,816.2,164.6z"/>
		<path class="st1" d="M738.5,176.4c-0.8-0.1-1.5,0.4-1.6,1.2c0,0.1,0,0.3,0,0.4v2.4h2.1l0.2,1.2h-2.3v9.2h-1.4v-9.2h-1.6v-1.2h1.6
			v-2.5c0-1.9,1.1-2.8,2.9-2.8c0.2,0,0.5,0,0.8,0l0.2,1.3C739,176.4,738.8,176.4,738.5,176.4L738.5,176.4z"/>
		<path class="st1" d="M745.2,191.1c-2.7,0-4.7-1.9-4.7-5.4c0-3.3,1.9-5.4,4.5-5.4c2.8,0,4.2,2.3,4.2,5.2v0.3H742
			c0,2.6,1.2,4.1,3.3,4.1c1.4,0,2.7-0.6,3.7-1.5l0.2,1.3C748.2,190.5,746.7,191.1,745.2,191.1L745.2,191.1z M742,184.6h5.7
			c-0.1-1.9-1-3.2-2.7-3.2S742.4,182.6,742,184.6z"/>
		<path class="st1" d="M756,191.1c-2.7,0-4.7-1.9-4.7-5.4c0-3.3,1.9-5.4,4.5-5.4c2.8,0,4.2,2.3,4.2,5.2v0.3h-7.3
			c0,2.6,1.2,4.1,3.3,4.1c1.4,0,2.7-0.6,3.7-1.5l0.2,1.3C759,190.5,757.5,191.1,756,191.1L756,191.1z M752.9,184.6h5.7
			c-0.1-1.9-1-3.2-2.7-3.2S753.2,182.6,752.9,184.6z"/>
		<path class="st1" d="M770,190.8l-0.3-1.5c-0.8,1.1-2,1.7-3.3,1.7c-2.3,0-4.2-1.6-4.2-5.1c0-3.8,2.2-5.7,4.8-5.7
			c0.9,0,1.9,0.2,2.7,0.5v-5.5l1.5-0.3v15.8H770V190.8z M769.7,182.1c-0.8-0.4-1.7-0.6-2.7-0.6c-1.9,0-3.3,1.4-3.3,4.3
			c0,2.5,1.2,3.9,2.9,3.9c1.3-0.1,2.4-0.8,3.1-1.9V182.1z"/>
		<path class="st1" d="M778.2,191c-1.3,0-2.6-0.2-3.8-0.7v-15l1.5-0.3v6.8c0.8-1,2-1.5,3.2-1.6c2.3,0,4.2,1.6,4.2,5.1
			C783.4,189.2,781.2,191,778.2,191L778.2,191z M779,181.5c-1.2,0.1-2.4,0.8-3.1,1.8v6c0.8,0.3,1.6,0.4,2.4,0.4
			c2.1,0,3.5-1.3,3.5-4.3C781.9,182.9,780.7,181.5,779,181.5L779,181.5z"/>
		<path class="st1" d="M792.5,190.8l-0.2-1.4c-1,1-2.3,1.6-3.7,1.6c-1.8,0-3.1-1-3.1-2.8c0-2.4,2-3.6,6.7-4v-0.7c0-1.4-0.8-2-2.2-2
			c-1.3,0-2.5,0.3-3.6,0.9l-0.2-1.3c1.2-0.6,2.5-0.9,3.9-0.9c2.3,0,3.5,1.1,3.5,3.2v7.4H792.5z M792.2,185.3
			c-4.1,0.4-5.2,1.4-5.2,2.8c0,0.9,0.7,1.7,1.6,1.7c0.1,0,0.2,0,0.3,0c1.3-0.1,2.5-0.6,3.4-1.6L792.2,185.3L792.2,185.3z"/>
		<path class="st1" d="M801,191.1c-2.6,0-4.7-2-4.7-5.4s2.1-5.4,4.8-5.4c1.2,0,2.4,0.4,3.4,1.1l-0.2,1.4c-0.9-0.8-2-1.2-3.2-1.2
			c-2,0-3.2,1.6-3.2,4.2c0,2.6,1.3,4.2,3.4,4.2c1.2,0,2.3-0.4,3.2-1.2l0.2,1.3C803.5,190.7,802.2,191.1,801,191.1L801,191.1z"/>
		<path class="st1" d="M813.8,191l-5.2-5.7v5.5h-1.4v-15.5l1.5-0.3v9.9l4.5-4.5h1.8l-4.8,4.6l5.2,5.6L813.8,191z"/>
		<path class="st1" d="M826.5,191.1c-2.7,0-4.7-2-4.7-5.4s2-5.4,4.7-5.4s4.7,2,4.7,5.4S829,191.1,826.5,191.1z M826.5,181.4
			c-2.1,0-3.2,1.7-3.2,4.2s1.1,4.2,3.2,4.2s3.2-1.7,3.2-4.2S828.5,181.4,826.5,181.4L826.5,181.4z"/>
		<path class="st1" d="M840.7,190.8v-7.2c0-1.3-0.6-2.2-1.9-2.2c-1.3,0.1-2.5,0.8-3.4,1.8v7.5h-1.5v-10.4h1.1l0.2,1.5
			c1-1,2.3-1.7,3.7-1.8c2.1,0,3.1,1.2,3.1,3.2v7.4h-1.3L840.7,190.8L840.7,190.8z"/>
		<path class="st1" d="M748,217.4c-1.6,0-2.7-0.6-2.7-2.6V208h-1.6v-1.2h1.6v-3.6l1.4-0.2v3.9h2.4l0.2,1.2h-2.6v6.6
			c0,1.1,0.4,1.5,1.5,1.5c0.3,0,0.7,0,1-0.1l0.2,1.2C749,217.4,748.5,217.4,748,217.4z"/>
		<path class="st1" d="M758.9,217.2V210c0-1.3-0.6-2.2-1.9-2.2c-1.3,0.1-2.5,0.8-3.4,1.8v7.5H752v-15.5l1.5-0.3v6.9
			c1-1,2.3-1.6,3.7-1.7c1.6-0.2,2.9,1,3.1,2.5c0,0.2,0,0.4,0,0.6v7.5L758.9,217.2z"/>
		<path class="st1" d="M767.7,217.5c-2.7,0-4.7-1.9-4.7-5.4c0-3.3,1.9-5.4,4.5-5.4c2.8,0,4.2,2.3,4.2,5.2v0.3h-7.2
			c0,2.6,1.2,4.1,3.3,4.1c1.4,0,2.7-0.6,3.7-1.5l0.2,1.3C770.5,217,769.2,217.5,767.7,217.5L767.7,217.5z M764.5,211h5.7
			c-0.1-1.9-1-3.2-2.7-3.2S764.8,209,764.5,211L764.5,211z"/>
		<path class="st1" d="M783.5,217.5c-2.6,0-4.7-2-4.7-5.4s2.1-5.4,4.8-5.4c1.2,0,2.4,0.4,3.4,1.1l-0.2,1.4c-0.9-0.8-2-1.2-3.2-1.2
			c-2,0-3.2,1.6-3.2,4.2c0,2.6,1.3,4.2,3.4,4.2c1.2,0,2.3-0.4,3.2-1.2l0.2,1.3C786,217.1,784.8,217.5,783.5,217.5L783.5,217.5z"/>
		<path class="st1" d="M793.5,217.5c-2.7,0-4.7-2-4.7-5.4s2-5.4,4.7-5.4s4.7,2,4.7,5.4S796.2,217.5,793.5,217.5z M793.5,207.9
			c-2.1,0-3.2,1.7-3.2,4.2s1.1,4.2,3.2,4.2s3.2-1.8,3.2-4.2S795.7,207.8,793.5,207.9L793.5,207.9z"/>
		<path class="st1" d="M808,217.2l-0.3-1.5c-1,1-2.3,1.7-3.7,1.8c-2.1,0-3.1-1.2-3.1-3.2v-7.4h1.5v7.2c0,1.3,0.6,2.1,1.9,2.1
			c1.3-0.1,2.5-0.8,3.4-1.8v-7.5h1.5v10.4h-1.2L808,217.2L808,217.2z"/>
		<path class="st1" d="M814,210.7v6.5h-1.5v-10.4h1.1l0.3,2.1c0.8-1.3,2.2-2.2,3.7-2.4l0.2,1.4C816.2,208.2,814.8,209.2,814,210.7z"
			/>
		<path class="st1" d="M823,217.4c-1.3,0-2.6-0.3-3.7-0.9l0.2-1.4c1.1,0.7,2.3,1.1,3.6,1.1c1.5,0,2.3-0.6,2.3-1.7
			c0-1.1-0.6-1.5-2.7-2c-2.3-0.6-3.3-1.3-3.3-3.1c0-1.8,1.4-2.8,3.5-2.8c1.1,0,2.2,0.2,3.2,0.7l-0.2,1.4c-0.9-0.5-1.9-0.8-3-0.8
			c-1.4,0-2.1,0.6-2.1,1.5s0.6,1.3,2.3,1.8c2.5,0.7,3.7,1.4,3.7,3.3C826.8,216.4,825.4,217.4,823,217.4L823,217.4z"/>
		<path class="st1" d="M833.5,217.5c-2.7,0-4.7-1.9-4.7-5.4c0-3.3,1.9-5.4,4.5-5.4c2.8,0,4.2,2.3,4.2,5.2v0.3h-7.2
			c0,2.6,1.2,4.1,3.3,4.1c1.4,0,2.7-0.6,3.7-1.5l0.2,1.3C836.5,217,835,217.5,833.5,217.5L833.5,217.5z M830.5,211h5.7
			c-0.1-1.9-1-3.2-2.7-3.2S830.7,209,830.5,211L830.5,211z"/>
	</g>
</g>
</svg>
