<?xml version="1.0" encoding="utf-8"?>
<!-- Generator: Adobe Illustrator 23.1.1, SVG Export Plug-In . SVG Version: 6.00 Build 0)  -->
<svg version="1.1" id="Layer_1" xmlns="http://www.w3.org/2000/svg" xmlns:xlink="http://www.w3.org/1999/xlink" x="0px" y="0px"
	 viewBox="0 0 760.3 269.7" style="enable-background:new 0 0 760.3 269.7;" xml:space="preserve">
<style type="text/css">
	.st0{fill:#DDDDDD;}
	.st1{fill:#2B2B7A;}
	.st2{fill:#FFFFFF;}
</style>
<path class="st0" d="M18.2,3.9h119.4c6.6,0,12,5.4,12,12v172.4c0,6.6-5.4,12-12,12H18.2c-6.6,0-12-5.4-12-12V15.9
	C6.2,9.2,11.6,3.9,18.2,3.9z"/>
<g>
	<path class="st1" d="M18.2,209.8h119.4c6.6,0,12,5.4,12,12v30.1c0,6.6-5.4,12-12,12H18.2c-6.6,0-12-5.4-12-12v-30.1
		C6.2,215.2,11.6,209.8,18.2,209.8z"/>
	<path class="st1" d="M168.9,209.8h119.4c6.6,0,12,5.4,12,12v30.1c0,6.6-5.4,12-12,12H168.9c-6.6,0-12-5.4-12-12v-30.1
		C156.9,215.2,162.3,209.8,168.9,209.8z"/>
	<path class="st1" d="M322.1,209.8h119.4c6.6,0,12,5.4,12,12v30.1c0,6.6-5.4,12-12,12H322.1c-6.6,0-12-5.4-12-12v-30.1
		C310.1,215.2,315.5,209.8,322.1,209.8z"/>
	<path class="st1" d="M472,209.8h119.4c6.6,0,12,5.4,12,12v30.1c0,6.6-5.4,12-12,12H472c-6.6,0-12-5.4-12-12v-30.1
		C460,215.2,465.4,209.8,472,209.8z"/>
	<path class="st1" d="M626.3,209.8h119.4c6.6,0,12,5.4,12,12v30.1c0,6.6-5.4,12-12,12H626.3c-6.6,0-12-5.4-12-12v-30.1
		C614.3,215.2,619.6,209.8,626.3,209.8z"/>
	<path class="st0" d="M169.5,3.9h119.4c6.6,0,12,5.4,12,12v172.4c0,6.6-5.4,12-12,12H169.5c-6.6,0-12-5.4-12-12V15.9
		C157.5,9.2,162.8,3.9,169.5,3.9z"/>
	<path class="st0" d="M320.7,3.9h119.4c6.6,0,12,5.4,12,12v172.4c0,6.6-5.4,12-12,12H320.7c-6.6,0-12-5.4-12-12V15.9
		C308.7,9.2,314.1,3.9,320.7,3.9z"/>
</g>
<path class="st1" d="M52.7,35.7h-1.3v5.6h-2.9V26.1h4.4c3.5,0,5.6,1.6,5.6,4.7C58.5,34,56.2,35.7,52.7,35.7z M52.8,28.4h-1.4v4.9
	h1.3c1.9,0,3-0.8,3-2.5C55.7,29.2,54.7,28.4,52.8,28.4z"/>
<path class="st1" d="M66,41.2l-0.2-1.3c-0.9,1-2.2,1.6-3.5,1.6c-1.5,0.1-2.9-1-3-2.5c0-0.1,0-0.3,0-0.4c0-2.6,2.1-3.7,6.4-4.1v-0.3
	c0-1.1-0.7-1.6-1.8-1.6c-1.2,0-2.4,0.3-3.5,0.9l-0.3-2.1c1.3-0.6,2.8-0.9,4.2-0.9c2.8,0,4.1,1,4.1,3.6v7.3L66,41.2z M65.7,35.9
	c-3.1,0.4-3.8,1.3-3.8,2.3c-0.1,0.6,0.4,1.2,1,1.3c0.1,0,0.2,0,0.3,0c0.9,0,1.8-0.4,2.5-1.1V35.9z"/>
<path class="st1" d="M73.6,35.2v6.1H71V30.6h2.2l0.3,2.1c0.6-1.3,1.9-2.2,3.4-2.3l0.4,2.6C75.8,33.1,74.4,33.9,73.6,35.2z"/>
<path class="st1" d="M83.2,41.4c-2.1,0-3.5-0.8-3.5-3.2v-5.5h-1.5v-2.2h1.5v-3.4l2.6-0.4v3.8h2.2l0.3,2.2h-2.5v5
	c0,0.9,0.4,1.3,1.4,1.3c0.3,0,0.6,0,0.8-0.1l0.3,2.2C84.4,41.4,83.8,41.4,83.2,41.4z"/>
<path class="st1" d="M94,41.2V29.1l-3,1.2l-0.3-2.2l3.7-1.7h2.5v14.9L94,41.2z"/>
<path class="st1" d="M100,33.8v-3.2h2.9v3.2H100z M100,41.2V38h2.9v3.2H100z"/>
<path class="st1" d="M24,67.6V52.5h1.5v15.1H24z"/>
<path class="st1" d="M36.1,67.6v-7.1c0-1.3-0.6-2.2-1.9-2.2c-1.3,0.1-2.5,0.8-3.4,1.8v7.5h-1.4V57.2h1.1l0.3,1.5
	c1-1,2.3-1.7,3.7-1.8c2.1,0,3.1,1.2,3.1,3.2v7.4L36.1,67.6z"/>
<path class="st1" d="M44.1,67.8c-1.6,0-2.7-0.6-2.7-2.6v-6.7h-1.6v-1.3h1.6v-3.6l1.4-0.2v3.8h2.4l0.2,1.2h-2.6V65
	c0,1.1,0.4,1.5,1.5,1.5c0.3,0,0.7,0,1-0.1l0.2,1.2C45.1,67.8,44.6,67.8,44.1,67.8z"/>
<path class="st1" d="M49.6,61.1v6.5h-1.5V57.2h1.1l0.3,2.1c0.8-1.3,2.2-2.2,3.7-2.3l0.2,1.4C51.8,58.6,50.4,59.6,49.6,61.1z"/>
<path class="st1" d="M59.4,67.9c-2.7,0-4.7-2-4.7-5.4s2-5.4,4.7-5.4s4.7,2,4.7,5.4S62,67.9,59.4,67.9z M59.4,58.2
	c-2.1,0-3.2,1.7-3.2,4.2s1.1,4.2,3.2,4.2s3.2-1.7,3.2-4.2S61.4,58.2,59.4,58.2L59.4,58.2z"/>
<path class="st1" d="M74,67.6l-0.2-1.5c-0.8,1.1-2,1.7-3.3,1.7c-2.3,0-4.2-1.6-4.2-5.1c0-3.8,2.2-5.7,4.8-5.7c0.9,0,1.9,0.2,2.7,0.5
	V52l1.4-0.3v15.8L74,67.6z M73.7,58.9c-0.8-0.4-1.7-0.6-2.7-0.6c-1.9,0-3.3,1.4-3.3,4.3c0,2.5,1.2,3.9,2.9,3.9
	c1.3-0.1,2.4-0.8,3.1-1.9V58.9z"/>
<path class="st1" d="M85.5,67.6l-0.2-1.5c-1,1-2.3,1.7-3.7,1.8c-2.1,0-3.1-1.2-3.1-3.2v-7.4h1.4v7.2c0,1.3,0.6,2.1,1.9,2.1
	c1.3-0.1,2.5-0.8,3.4-1.8v-7.5h1.4v10.4L85.5,67.6L85.5,67.6z"/>
<path class="st1" d="M94.1,67.9c-2.6,0-4.7-2-4.7-5.4s2.1-5.4,4.8-5.4c1.2,0,2.4,0.4,3.4,1.1l-0.2,1.4c-0.9-0.8-2-1.2-3.2-1.2
	c-2,0-3.2,1.6-3.2,4.2s1.3,4.2,3.4,4.2c1.2,0,2.3-0.4,3.2-1.2l0.2,1.3C96.7,67.5,95.4,67.9,94.1,67.9L94.1,67.9z"/>
<path class="st1" d="M103.5,67.8c-1.6,0-2.7-0.6-2.7-2.6v-6.7h-1.6v-1.3h1.6v-3.6l1.4-0.2v3.8h2.4l0.2,1.3h-2.6v6.6
	c0,1.1,0.4,1.5,1.5,1.5c0.3,0,0.7,0,1-0.1l0.2,1.2C104.5,67.8,104,67.8,103.5,67.8z"/>
<path class="st1" d="M108.5,54.7c-0.6,0.1-1.1-0.4-1.2-1s0.4-1.1,1-1.2c0.1,0,0.1,0,0.2,0c0.6,0.1,1,0.6,1,1.2
	C109.4,54.3,109,54.7,108.5,54.7z M107.7,67.6V57.2h1.4v10.4H107.7z"/>
<path class="st1" d="M116.7,67.9c-2.7,0-4.7-2-4.7-5.4s2-5.4,4.7-5.4s4.7,2,4.7,5.4S119.4,67.9,116.7,67.9z M116.7,58.2
	c-2.1,0-3.2,1.7-3.2,4.2s1.1,4.2,3.2,4.2c2.1,0,3.2-1.7,3.2-4.2S118.8,58.2,116.7,58.2L116.7,58.2z"/>
<path class="st1" d="M131,67.6v-7.1c0-1.3-0.6-2.2-1.9-2.2c-1.3,0.1-2.5,0.8-3.4,1.8v7.5h-1.4V57.2h1.1l0.2,1.5c1-1,2.3-1.7,3.7-1.8
	c2.1,0,3.1,1.2,3.1,3.2v7.4L131,67.6z"/>
<path class="st1" d="M51,94.2c-1.6,0-2.7-0.6-2.7-2.6v-6.8h-1.6v-1.2h1.6V80l1.4-0.2v3.8h2.4l0.2,1.2h-2.6v6.6
	c0,1.1,0.4,1.5,1.5,1.5c0.3,0,0.7,0,1-0.1l0.2,1.2C52,94.2,51.5,94.2,51,94.2L51,94.2z"/>
<path class="st1" d="M59,94.3c-2.7,0-4.7-2-4.7-5.4s2-5.4,4.7-5.4s4.7,2,4.7,5.4S61.6,94.3,59,94.3z M59,84.6
	c-2.1,0-3.2,1.7-3.2,4.2S56.9,93,59,93s3.2-1.7,3.2-4.2S61.1,84.6,59,84.6L59,84.6z"/>
<path class="st1" d="M75.1,94.2c-1.4,0-2.8-0.3-4-0.9l0.2-1.5c1.2,0.7,2.5,1.1,3.9,1.1c1.8,0,3.1-1,3.1-2.7c0-1.5-0.8-2.2-3.1-3.3
	c-2.9-1.3-4-2.2-4-4.4c0-2.3,1.8-3.8,4.4-3.8c1.2,0,2.3,0.2,3.3,0.8L78.7,81c-0.9-0.6-2.1-1-3.2-1c-1.3-0.2-2.6,0.8-2.8,2.1
	c0,0.1,0,0.2,0,0.3c0,1.4,0.7,2,3.1,3.1c2.8,1.2,4,2.3,4,4.6C79.8,92.6,77.7,94.2,75.1,94.2z"/>
<path class="st1" d="M87.7,78.8h1.6l5.9,15.1l-1.5,0.3l-2-5.1h-6.6L83.2,94h-1.5L87.7,78.8z M85.7,87.8h5.6l-2.8-7.3L85.7,87.8z"/>
<path class="st1" d="M103.7,94.3c-4.1,0-6.9-3.2-6.9-7.9s2.8-7.9,7-7.9c1.5,0,3,0.4,4.3,1.3l-0.2,1.5c-1.1-0.9-2.5-1.4-4-1.5
	c-3.3,0-5.4,2.6-5.4,6.5s2.1,6.5,5.4,6.5c1.6,0,3.1-0.6,4.3-1.6l0.2,1.4C107,93.8,105.4,94.3,103.7,94.3z"/>
<path class="st1" d="M81.1,120.6l-2.4-2.4c-1.2,1.6-3,2.5-5,2.5c-3,0-4.8-1.6-4.8-4.1c0-2.3,1.5-3.6,3.6-4.6c-1-0.9-1.6-2.1-1.6-3.5
	c0-2,1.5-3.5,4-3.5c1.3,0,2.5,0.3,3.6,0.9l-0.3,1.6c-1-0.7-2.2-1.1-3.4-1.2c-1.2-0.1-2.2,0.7-2.4,1.9c0,0.1,0,0.2,0,0.3
	c0,1.1,0.5,1.9,1.6,3l4.4,4.5c0.6-1.4,1.1-2.9,1.2-4.4l1.4,0.3c-0.3,1.8-0.8,3.5-1.7,5.1l3.2,3.2L81.1,120.6z M77.7,117.2l-4.4-4.3
	c-1.9,0.8-3,2-3,3.6c0,1.7,1.4,3,3.1,2.9c0.1,0,0.2,0,0.2,0C75.3,119.4,76.8,118.6,77.7,117.2L77.7,117.2z"/>
<path class="st1" d="M42.6,147c-0.9,0-1.8-0.2-2.7-0.5v4.2l-1.5,0.2v-14.4h1.1l0.2,1.5c0.8-1.1,2-1.7,3.4-1.7c2.3,0,4.2,1.6,4.2,5.1
	C47.3,145.2,45.1,147,42.6,147L42.6,147z M43,137.5c-1.3,0.1-2.4,0.8-3.1,1.9v5.7c0.8,0.4,1.7,0.6,2.7,0.6c1.9,0,3.3-1.4,3.3-4.3
	C45.9,138.9,44.7,137.5,43,137.5L43,137.5z"/>
<path class="st1" d="M51.6,140.3v6.5h-1.5v-10.4h1.1l0.3,2.1c0.8-1.3,2.2-2.2,3.7-2.4l0.2,1.4C53.8,137.8,52.3,138.8,51.6,140.3z"/>
<path class="st1" d="M61.3,147.1c-2.7,0-4.7-2-4.7-5.4s2-5.4,4.7-5.4s4.7,2,4.7,5.4S64,147.1,61.3,147.1z M61.3,137.4
	c-2.1,0-3.2,1.7-3.2,4.2s1.1,4.2,3.2,4.2s3.2-1.7,3.2-4.2S63.4,137.4,61.3,137.4L61.3,137.4z"/>
<path class="st1" d="M72.4,150.8c-2.7,0-4.8-0.9-4.8-2.7c0-1.1,0.8-2,2.4-2.8c-0.4-0.2-0.7-0.6-0.8-1.1c0-0.5,0.3-1,1-1.4
	c-1.2-0.6-1.9-1.8-1.9-3.1c0-2,1.7-3.6,3.7-3.5c0.1,0,0.1,0,0.2,0c1,0,1.9,0.3,2.6,0.9l2.6-0.8l0.2,1.4l-2.1,0.2
	c0.4,0.5,0.6,1.2,0.6,1.9c0,2-1.7,3.6-3.7,3.5c-0.1,0-0.1,0-0.2,0c-0.3,0-0.6,0-0.9-0.1c-0.4,0.2-0.7,0.5-0.7,0.8
	c0,0.4,0.4,0.6,2.3,0.9l0.8,0.1c2.3,0.4,3.6,1.1,3.6,2.6C77.3,149.7,75,150.8,72.4,150.8L72.4,150.8z M71.1,145.8
	c-1.4,0.7-2.1,1.4-2.1,2.2c0,1.1,1.4,1.7,3.4,1.7s3.5-0.8,3.5-1.9c0-0.8-0.7-1.2-2.5-1.6l-1-0.2C71.9,146,71.5,145.9,71.1,145.8
	L71.1,145.8z M72.2,137.3c-1.4,0-2.4,1.2-2.4,2.5c0,1.4,1.2,2.4,2.5,2.4s2.4-1.1,2.4-2.5c0-1.3-1-2.4-2.3-2.5
	C72.3,137.3,72.2,137.3,72.2,137.3L72.2,137.3z"/>
<path class="st1" d="M81.3,140.3v6.5h-1.5v-10.4h1.1l0.3,2.1c0.8-1.3,2.2-2.2,3.7-2.4l0.2,1.4C83.5,137.8,82,138.8,81.3,140.3z"/>
<path class="st1" d="M93.4,146.8l-0.2-1.4c-1,1-2.3,1.6-3.7,1.6c-1.8,0-3.1-1-3.1-2.8c0-2.4,2-3.6,6.7-4v-0.7c0-1.4-0.8-2-2.2-2
	c-1.3,0-2.5,0.3-3.6,0.9l-0.2-1.3c1.2-0.6,2.5-0.9,3.9-0.9c2.3,0,3.5,1.1,3.5,3.2v7.4L93.4,146.8z M93,141.3
	c-4.1,0.4-5.2,1.4-5.2,2.8c0,0.9,0.7,1.7,1.6,1.7c0.1,0,0.2,0,0.3,0c1.3-0.1,2.5-0.6,3.4-1.6L93,141.3z"/>
<path class="st1" d="M111,146.8v-7.2c0-1.3-0.6-2.2-1.9-2.2c-1.3,0.1-2.5,0.8-3.3,1.8v7.6h-1.4v-7.2c0-1.3-0.6-2.2-1.9-2.2
	c-1.3,0.1-2.5,0.8-3.3,1.8v7.6h-1.4v-10.4h1.1l0.2,1.5c1-1,2.3-1.6,3.7-1.7c1.3-0.2,2.5,0.6,2.9,1.8c1-1.1,2.3-1.7,3.8-1.8
	c2.1,0,3,1.2,3,3.2v7.5H111V146.8z"/>
<path class="st1" d="M42.4,173.2v-15.5l1.4-0.2v15.8L42.4,173.2z"/>
<path class="st1" d="M51.4,173.5c-2.7,0-4.7-2-4.7-5.4s2-5.4,4.7-5.4c2.7,0,4.7,2,4.7,5.4S54,173.5,51.4,173.5z M51.4,163.9
	c-2.1,0-3.2,1.7-3.2,4.2s1.1,4.2,3.2,4.2c2.1,0,3.2-1.7,3.2-4.2S53.5,163.9,51.4,163.9L51.4,163.9z"/>
<path class="st1" d="M62.4,177.2c-2.7,0-4.8-0.9-4.8-2.7c0-1.1,0.8-2,2.4-2.8c-0.4-0.2-0.7-0.6-0.8-1.1c0-0.5,0.3-1,1-1.4
	c-1.2-0.6-1.9-1.8-1.9-3.1c0-2,1.7-3.6,3.7-3.5c0.1,0,0.1,0,0.2,0c1,0,1.9,0.3,2.6,0.9l2.6-0.8l0.2,1.4l-2.1,0.2
	c0.4,0.5,0.6,1.2,0.6,1.9c0,2-1.7,3.6-3.7,3.5c-0.1,0-0.1,0-0.2,0c-0.3,0-0.6,0-0.9-0.1c-0.4,0.2-0.7,0.5-0.7,0.8
	c0,0.4,0.4,0.6,2.3,0.9l0.8,0.1c2.3,0.4,3.6,1.1,3.6,2.6C67.4,176.1,65.1,177.2,62.4,177.2L62.4,177.2z M61.2,172.2
	c-1.4,0.7-2.1,1.4-2.1,2.2c0,1.1,1.4,1.7,3.4,1.7s3.5-0.8,3.5-1.9c0-0.8-0.7-1.2-2.5-1.6l-1-0.2C62,172.4,61.6,172.3,61.2,172.2
	L61.2,172.2z M62.3,163.7c-1.4,0-2.4,1.2-2.4,2.5s1.2,2.4,2.5,2.4s2.4-1.1,2.4-2.4c0-1.3-1-2.4-2.3-2.5
	C62.4,163.7,62.3,163.7,62.3,163.7L62.3,163.7z"/>
<path class="st1" d="M70.8,160.4c-0.6,0.1-1.1-0.4-1.2-1s0.4-1.1,1-1.2c0.1,0,0.1,0,0.2,0c0.6,0.1,1,0.6,1,1.2
	C71.7,159.9,71.3,160.3,70.8,160.4z M70.1,173.2v-10.4h1.4v10.4H70.1z"/>
<path class="st1" d="M78.1,173.4c-1.3,0-2.6-0.3-3.7-0.9l0.2-1.4c1.1,0.7,2.3,1.1,3.6,1.1c1.4,0,2.3-0.6,2.3-1.7s-0.6-1.5-2.7-2
	c-2.3-0.6-3.3-1.3-3.3-3.1s1.4-2.8,3.5-2.8c1.1,0,2.2,0.2,3.2,0.7l-0.2,1.4c-0.9-0.5-1.9-0.8-3-0.8c-1.4,0-2.1,0.6-2.1,1.5
	s0.6,1.3,2.3,1.8c2.5,0.7,3.7,1.4,3.7,3.3S80.5,173.4,78.1,173.4L78.1,173.4z"/>
<path class="st1" d="M87.9,173.4c-1.6,0-2.7-0.6-2.7-2.6V164h-1.6v-1.2h1.6v-3.6l1.4-0.2v3.9H89l0.2,1.2h-2.6v6.6
	c0,1.1,0.4,1.5,1.5,1.5c0.3,0,0.7,0,1-0.1l0.2,1.2C88.9,173.4,88.4,173.4,87.9,173.4z"/>
<path class="st1" d="M92.8,160.4c-0.6,0.1-1.1-0.4-1.2-1s0.4-1.1,1-1.2c0.1,0,0.1,0,0.2,0c0.6,0.1,1,0.6,1,1.2
	C93.7,159.9,93.3,160.3,92.8,160.4z M92.1,173.2v-10.4h1.4v10.4H92.1z"/>
<path class="st1" d="M101.1,173.5c-2.6,0-4.7-2-4.7-5.4s2.1-5.4,4.8-5.4c1.2,0,2.4,0.4,3.4,1.1l-0.2,1.4c-0.9-0.8-2-1.2-3.2-1.2
	c-2,0-3.2,1.6-3.2,4.2s1.3,4.2,3.4,4.2c1.2,0,2.3-0.4,3.2-1.2l0.2,1.3C103.7,173.1,102.4,173.5,101.1,173.5L101.1,173.5z"/>
<path class="st1" d="M110.4,173.4c-1.3,0-2.6-0.3-3.7-0.9l0.2-1.4c1.1,0.7,2.3,1.1,3.6,1.1c1.4,0,2.3-0.6,2.3-1.7s-0.6-1.5-2.7-2
	c-2.3-0.6-3.3-1.3-3.3-3.1s1.4-2.8,3.5-2.8c1.1,0,2.2,0.2,3.2,0.7l-0.2,1.4c-0.9-0.5-1.9-0.8-3-0.8c-1.4,0-2.1,0.6-2.1,1.5
	s0.6,1.3,2.3,1.8c2.5,0.7,3.7,1.4,3.7,3.3S112.8,173.4,110.4,173.4L110.4,173.4z"/>
<path class="st2" d="M51.6,243.5v-12.1l-3,1.2l-0.3-2.2l3.7-1.7h2.5v14.9L51.6,243.5z"/>
<path class="st2" d="M61.6,243.8c-1.6,0-3.1-0.3-4.5-1.1l0.4-2.5c1.2,0.8,2.6,1.2,4.1,1.2c1.7,0,3-0.9,3-2.6c0-1.5-1-2.4-2.7-2.4
	c-0.8,0-1.6,0.1-2.3,0.4l-1.9-0.5l0.5-7.8h8.3l0.4,2.4h-6.4l-0.3,3.5c0.7-0.2,1.5-0.3,2.2-0.3c2.9,0,4.9,1.7,4.9,4.5
	C67.3,242,64.9,243.8,61.6,243.8L61.6,243.8z"/>
<path class="st2" d="M86.8,243.5v-7c0-0.9-0.3-1.6-1.3-1.6c-0.9,0.1-1.8,0.6-2.3,1.3v7.2h-2.6v-7c0-0.9-0.3-1.6-1.3-1.6
	c-1,0.1-1.8,0.6-2.4,1.4v7.2h-2.6v-10.6h2.2l0.2,1.5c0.9-1,2.1-1.6,3.5-1.7c1.2-0.1,2.3,0.6,2.7,1.7c0.9-1,2.2-1.6,3.5-1.7
	c2,0,3,1.2,3,3.2v7.7H86.8z"/>
<path class="st2" d="M93.5,231.1c-0.8,0-1.5-0.6-1.6-1.4v-0.1c0-0.9,0.7-1.6,1.6-1.6s1.6,0.7,1.6,1.6
	C95.1,230.5,94.4,231.1,93.5,231.1C93.6,231.1,93.6,231.1,93.5,231.1z M92.2,243.6V233h2.6v10.6H92.2z"/>
<path class="st2" d="M104,243.5v-7c0-0.9-0.4-1.6-1.4-1.6c-1,0.1-1.8,0.6-2.4,1.3v7.2h-2.6v-10.6h2.2l0.2,1.5c0.9-1,2.2-1.6,3.5-1.7
	c2,0,3,1.2,3,3.2v7.7H104z"/>
<path class="st2" d="M201.2,243.8c-1.6,0-3.2-0.4-4.6-1.2l0.4-2.4c1.2,0.8,2.6,1.2,4.1,1.2c1.7,0,2.8-0.7,2.8-2.1
	c0-1.6-1.1-2.4-3.6-2.4h-0.8l-0.4-2.2h1.2c2.3,0,3.3-0.8,3.3-2.1c0-1.1-0.8-1.8-2.5-1.8c-1.4,0-2.8,0.5-3.9,1.3l-0.4-2.3
	c1.3-0.9,2.9-1.4,4.6-1.4c3.3,0,5,1.7,5,3.9c0,1.6-1.1,3.1-2.7,3.5c1.8,0.3,3,1.9,2.9,3.7C206.7,242.2,204.5,243.8,201.2,243.8
	L201.2,243.8z"/>
<path class="st2" d="M214.5,243.8c-3.6,0-5.9-2.8-5.9-7.7s2.4-7.7,5.9-7.7s5.9,2.8,5.9,7.7S218,243.8,214.5,243.8z M214.5,230.7
	c-2,0-3.1,1.9-3.1,5.5s1.1,5.5,3.1,5.5s3.1-1.9,3.1-5.5S216.5,230.7,214.5,230.7z"/>
<path class="st2" d="M240,243.5v-7c0-0.9-0.3-1.6-1.3-1.6c-0.9,0.1-1.8,0.6-2.4,1.3v7.2h-2.6v-7c0-0.9-0.4-1.6-1.3-1.6
	c-0.9,0.1-1.8,0.6-2.4,1.3v7.2h-2.6v-10.5h2.2l0.2,1.5c0.9-1,2.1-1.6,3.5-1.7c1.2-0.1,2.3,0.6,2.7,1.7c0.9-1,2.2-1.6,3.5-1.7
	c2,0,3,1.2,3,3.2v7.7H240z"/>
<path class="st2" d="M246.8,231.1c-0.8,0-1.5-0.6-1.6-1.4v-0.1c0-0.9,0.7-1.6,1.6-1.6s1.6,0.7,1.6,1.6S247.7,231.1,246.8,231.1
	L246.8,231.1z M245.5,243.6V233h2.6v10.6H245.5z"/>
<path class="st2" d="M257.3,243.5v-7c0-0.9-0.4-1.6-1.4-1.6c-1,0.1-1.8,0.6-2.4,1.3v7.2h-2.6v-10.6h2.2l0.2,1.5
	c0.9-1,2.2-1.6,3.5-1.7c2,0,3,1.2,3,3.2v7.7H257.3z"/>
<path class="st2" d="M354.4,243.8c-1.6,0-3.2-0.4-4.6-1.2l0.4-2.4c1.2,0.8,2.6,1.2,4.1,1.2c1.7,0,2.8-0.7,2.8-2.1
	c0-1.6-1.1-2.4-3.6-2.4h-0.8l-0.4-2.2h1.2c2.3,0,3.3-0.8,3.3-2.1c0-1.1-0.8-1.8-2.5-1.8c-1.4,0-2.8,0.5-3.9,1.3l-0.4-2.3
	c1.3-0.9,2.9-1.4,4.5-1.4c3.3,0,5,1.7,5,3.9c0,1.6-1.1,3.1-2.7,3.5c1.8,0.3,3,1.9,3,3.7C359.9,242.2,357.7,243.8,354.4,243.8
	L354.4,243.8z"/>
<path class="st2" d="M367.7,243.8c-3.6,0-5.9-2.8-5.9-7.7s2.4-7.7,5.9-7.7s5.9,2.8,5.9,7.7S371.2,243.8,367.7,243.8z M367.7,230.7
	c-2,0-3.1,1.9-3.1,5.5s1.1,5.5,3.1,5.5s3.1-1.9,3.1-5.5S369.7,230.7,367.7,230.7z"/>
<path class="st2" d="M393.2,243.5v-7c0-0.9-0.3-1.6-1.3-1.6c-0.9,0.1-1.8,0.6-2.4,1.3v7.2h-2.6v-7c0-0.9-0.4-1.6-1.3-1.6
	c-0.9,0.1-1.8,0.6-2.4,1.3v7.2h-2.6v-10.5h2.2l0.2,1.5c0.9-1,2.1-1.6,3.5-1.7c1.2-0.1,2.3,0.6,2.7,1.7c0.9-1,2.2-1.6,3.5-1.7
	c2,0,3,1.2,3,3.2v7.7H393.2z"/>
<path class="st2" d="M400,231.1c-0.8,0-1.5-0.6-1.6-1.4v-0.1c0-0.9,0.7-1.6,1.6-1.6s1.6,0.7,1.6,1.6
	C401.5,230.5,400.9,231.1,400,231.1L400,231.1z M398.6,243.6V233h2.6v10.6H398.6z"/>
<path class="st2" d="M410.5,243.5v-7c0-0.9-0.4-1.6-1.4-1.6c-1,0.1-1.8,0.6-2.4,1.3v7.2h-2.6v-10.6h2.2l0.2,1.5
	c0.9-1,2.2-1.6,3.5-1.7c2,0,3,1.2,3,3.2v7.7H410.5z"/>
<path class="st2" d="M508.8,240.4v3.2h-2.6v-3.2H499v-1.9l6.6-9.9h3.2v9.7h2.2v2L508.8,240.4z M506.1,231.5l-4.6,6.8h4.6V231.5z"/>
<path class="st2" d="M518.4,243.8c-3.6,0-5.9-2.8-5.9-7.7s2.4-7.7,5.9-7.7s5.9,2.8,5.9,7.7S521.9,243.8,518.4,243.8z M518.4,230.7
	c-2,0-3.1,1.9-3.1,5.5s1.1,5.5,3.1,5.5s3.1-1.9,3.1-5.5S520.4,230.7,518.4,230.7z"/>
<path class="st2" d="M543.9,243.5v-7c0-0.9-0.3-1.6-1.3-1.6c-0.9,0.1-1.8,0.6-2.3,1.3v7.2h-2.6v-7c0-0.9-0.3-1.6-1.3-1.6
	c-0.9,0.1-1.8,0.6-2.3,1.3v7.2h-2.7v-10.5h2.2l0.2,1.5c0.9-1,2.1-1.6,3.5-1.7c1.2-0.1,2.3,0.6,2.7,1.7c0.9-1,2.2-1.6,3.5-1.7
	c2,0,3,1.2,3,3.2v7.7H543.9z"/>
<path class="st2" d="M550.6,231.1c-0.8,0-1.5-0.6-1.6-1.4v-0.1c0-0.9,0.7-1.6,1.6-1.6s1.6,0.7,1.6,1.6
	C552.2,230.5,551.5,231.1,550.6,231.1C550.7,231.1,550.7,231.1,550.6,231.1z M549.3,243.6V233h2.6v10.6H549.3z"/>
<path class="st2" d="M561.2,243.5v-7c0-0.9-0.4-1.6-1.4-1.6c-1,0.1-1.8,0.6-2.4,1.3v7.2h-2.6v-10.6h2.2l0.2,1.5
	c0.9-1,2.2-1.6,3.5-1.7c2,0,3,1.2,3,3.2v7.7H561.2z"/>
<path class="st2" d="M665.4,243.8c-1.6,0-3.1-0.3-4.5-1.1l0.4-2.5c1.2,0.8,2.6,1.2,4.1,1.2c1.7,0,3-0.9,3-2.6c0-1.5-1-2.4-2.7-2.4
	c-0.8,0-1.6,0.1-2.3,0.4l-1.9-0.4l0.5-7.8h8.3l0.4,2.4h-6.5l-0.2,3.4c0.7-0.2,1.5-0.3,2.2-0.3c3,0,4.9,1.7,4.9,4.5
	C671.1,242,668.7,243.8,665.4,243.8L665.4,243.8z"/>
<path class="st2" d="M690.6,243.5v-7c0-0.9-0.3-1.6-1.3-1.6c-0.9,0.1-1.8,0.6-2.3,1.3v7.2h-2.6v-7c0-0.9-0.3-1.6-1.3-1.6
	c-0.9,0.1-1.8,0.6-2.3,1.3v7.2h-2.6v-10.5h2.2l0.2,1.5c0.9-1,2.1-1.6,3.5-1.7c1.2-0.1,2.3,0.6,2.7,1.7c0.9-1,2.2-1.6,3.5-1.7
	c2,0,3,1.2,3,3.2v7.7H690.6z"/>
<path class="st2" d="M697.4,231.1c-0.8,0-1.5-0.6-1.6-1.4v-0.1c0-0.9,0.7-1.6,1.6-1.6s1.6,0.7,1.6,1.6
	C698.9,230.5,698.3,231.1,697.4,231.1L697.4,231.1z M696,243.6V233h2.6v10.6H696z"/>
<path class="st2" d="M707.9,243.5v-7c0-0.9-0.4-1.6-1.4-1.6c-1,0.1-1.8,0.6-2.4,1.3v7.2h-2.6v-10.6h2.2l0.2,1.5
	c0.9-1,2.2-1.6,3.5-1.7c2,0,3,1.2,3,3.2v7.7H707.9z"/>
<path class="st1" d="M202.2,35.7h-1.3v5.6H198V26.1h4.4c3.5,0,5.6,1.6,5.6,4.7C208,34,205.7,35.7,202.2,35.7L202.2,35.7z
	 M202.3,28.4h-1.4v4.9h1.3c1.9,0,3-0.8,3-2.5C205.1,29.2,204.2,28.4,202.3,28.4z"/>
<path class="st1" d="M215.5,41.2l-0.2-1.4c-0.9,1-2.2,1.6-3.5,1.7c-1.5,0.1-2.9-1-3-2.5c0-0.2,0-0.3,0-0.5c0-2.6,2.1-3.7,6.4-4.1
	v-0.3c0-1.1-0.7-1.6-1.8-1.6c-1.2,0-2.4,0.3-3.5,0.9l-0.3-2.1c1.3-0.6,2.8-0.9,4.2-0.9c2.8,0,4.1,1,4.1,3.6v7.3L215.5,41.2z
	 M215.2,35.9c-3.1,0.4-3.8,1.3-3.8,2.3c0,0.6,0.4,1.2,1.1,1.2c0.1,0,0.1,0,0.2,0c0.9,0,1.8-0.4,2.5-1.1V35.9z"/>
<path class="st1" d="M223,35.2v6.1h-2.6V30.6h2.2l0.3,2.1c0.6-1.3,1.9-2.2,3.4-2.3l0.4,2.6C225.3,33.1,223.9,33.9,223,35.2L223,35.2
	z"/>
<path class="st1" d="M232.7,41.4c-2.1,0-3.5-0.8-3.5-3.2v-5.5h-1.5v-2.2h1.5v-3.4l2.6-0.4v3.8h2.2l0.3,2.2h-2.5v5
	c0,0.9,0.4,1.3,1.4,1.3c0.3,0,0.6,0,0.8-0.1l0.3,2.2C233.8,41.3,233.3,41.4,232.7,41.4L232.7,41.4z"/>
<path class="st1" d="M240.7,41.2v-2.1l5.3-5.4c1.1-1.2,1.7-2,1.7-3.1c0-1.4-0.8-2.1-2.3-2.1c-1.5,0.1-2.9,0.7-4,1.7l-0.4-2.5
	c1.3-1,3-1.6,4.7-1.6c3,0,4.8,1.6,4.8,4.2c0,1.9-0.9,3.2-2.7,5l-3.6,3.6h6.2l0.4,2.3L240.7,41.2z"/>
<path class="st1" d="M253,33.8v-3.2h2.9v3.2H253z M253,41.2V38h2.9v3.2H253z"/>
<path class="st1" d="M218.5,67.9c-4.5,0-7.1-3.2-7.1-7.9s2.8-7.9,7-7.9c1.6,0,3.1,0.4,4.4,1.3l-0.3,1.6c-1.2-1-2.7-1.5-4.2-1.6
	c-3.4,0-5.4,2.6-5.4,6.5s2,6.5,5.6,6.5c1.2,0,2.4-0.3,3.5-0.9V61h-3.6l-0.2-1.4h5.4v6.7C222,67.4,220.3,67.9,218.5,67.9z"/>
<path class="st1" d="M231,67.9c-2.7,0-4.7-1.8-4.7-5.4c0-3.3,1.9-5.4,4.5-5.4c2.8,0,4.2,2.3,4.2,5.2v0.2h-7.2c0,2.6,1.2,4.1,3.3,4.1
	c1.4,0,2.7-0.6,3.7-1.5l0.2,1.3C233.9,67.3,232.5,67.9,231,67.9z M227.9,61.4h5.7c-0.1-1.9-1-3.2-2.7-3.2S228.1,59.4,227.9,61.4
	L227.9,61.4z"/>
<path class="st1" d="M241,67.8c-1.6,0-2.7-0.6-2.7-2.6v-6.7h-1.6v-1.3h1.6v-3.6l1.4-0.2v3.8h2.4l0.2,1.2h-2.6V65
	c0,1.1,0.4,1.5,1.5,1.5c0.3,0,0.7,0,1-0.1l0.2,1.2C242,67.8,241.5,67.8,241,67.8L241,67.8z"/>
<path class="st1" d="M177,94.3c-2.6,0-4.7-2-4.7-5.4s2.1-5.4,4.8-5.4c1.2,0,2.4,0.4,3.4,1.1l-0.2,1.4c-0.9-0.8-2-1.2-3.2-1.2
	c-2,0-3.2,1.6-3.2,4.2s1.3,4.2,3.4,4.2c1.2,0,2.3-0.4,3.2-1.2l0.2,1.3C179.6,93.9,178.3,94.3,177,94.3L177,94.3z"/>
<path class="st1" d="M187.1,94.3c-2.7,0-4.7-2-4.7-5.4s2-5.4,4.7-5.4s4.7,2,4.7,5.4S189.7,94.3,187.1,94.3z M187.1,84.6
	c-2.1,0-3.2,1.7-3.2,4.2s1.1,4.2,3.2,4.2s3.2-1.7,3.2-4.2S189.2,84.6,187.1,84.6L187.1,84.6z"/>
<path class="st1" d="M207.8,94v-7.2c0-1.3-0.6-2.2-1.9-2.2c-1.3,0.1-2.5,0.8-3.3,1.8V94h-1.4v-7.2c0-1.3-0.6-2.2-1.9-2.2
	c-1.3,0.1-2.5,0.8-3.3,1.8V94h-1.4V83.6h1.1l0.2,1.5c1-1,2.3-1.6,3.7-1.7c1.3-0.2,2.5,0.6,2.9,1.8c1-1.1,2.3-1.7,3.8-1.8
	c2.1,0,3,1.2,3,3.2v7.5h-1.5V94z"/>
<path class="st1" d="M216.2,79.6c-0.8-0.1-1.5,0.4-1.6,1.2c0,0.1,0,0.3,0,0.4v2.4h2.1l0.2,1.2h-2.3V94h-1.4v-9.2h-1.6v-1.2h1.6v-2.5
	c0-1.9,1.1-2.8,2.9-2.8c0.2,0,0.5,0,0.8,0l0.2,1.3C216.8,79.6,216.5,79.6,216.2,79.6z"/>
<path class="st1" d="M223,94.3c-2.7,0-4.7-2-4.7-5.4s2-5.4,4.7-5.4s4.7,2,4.7,5.4S225.6,94.3,223,94.3z M223,84.6
	c-2.1,0-3.2,1.7-3.2,4.2s1.1,4.2,3.2,4.2s3.2-1.7,3.2-4.2S225.1,84.6,223,84.6L223,84.6z"/>
<path class="st1" d="M231.9,87.5V94h-1.4V83.6h1.1l0.3,2.1c0.8-1.3,2.2-2.2,3.7-2.3l0.2,1.4C234.1,85,232.6,86,231.9,87.5
	L231.9,87.5z"/>
<path class="st1" d="M241.4,94.2c-1.6,0-2.7-0.6-2.7-2.6v-6.8h-1.6v-1.2h1.6V80l1.4-0.2v3.8h2.4l0.2,1.2h-2.6v6.6
	c0,1.1,0.4,1.5,1.5,1.5c0.3,0,0.7,0,1-0.1l0.2,1.2C242.4,94.2,241.9,94.2,241.4,94.2L241.4,94.2z"/>
<path class="st1" d="M251.8,94l-0.2-1.4c-1,1-2.3,1.6-3.7,1.6c-1.8,0-3.1-1-3.1-2.8c0-2.4,2-3.6,6.7-4v-0.7c0-1.4-0.8-2-2.2-2
	c-1.3,0-2.5,0.3-3.6,0.9l-0.2-1.3c1.2-0.6,2.5-0.9,3.9-0.9c2.3,0,3.5,1.1,3.5,3.2V94L251.8,94z M251.5,88.5
	c-4.1,0.4-5.2,1.4-5.2,2.8c0,0.9,0.7,1.7,1.6,1.7c0.1,0,0.2,0,0.3,0c1.3-0.1,2.5-0.6,3.4-1.5L251.5,88.5L251.5,88.5z"/>
<path class="st1" d="M260,94.2c-1.3,0-2.6-0.2-3.8-0.7v-15l1.5-0.3V85c0.8-1,2-1.5,3.2-1.6c2.3,0,4.2,1.7,4.2,5.1
	C265.1,92.3,262.9,94.2,260,94.2z M260.7,84.7c-1.2,0.1-2.4,0.8-3.1,1.8v6c0.8,0.3,1.6,0.4,2.4,0.4c2.1,0,3.5-1.3,3.5-4.3
	C263.6,86.1,262.4,84.7,260.7,84.7z"/>
<path class="st1" d="M268,94V78.5l1.4-0.3V94H268z"/>
<path class="st1" d="M277,94.3c-2.7,0-4.7-1.8-4.7-5.4c0-3.3,1.9-5.4,4.5-5.4c2.8,0,4.2,2.3,4.2,5.2V89h-7.2c0,2.6,1.2,4.1,3.3,4.1
	c1.4,0,2.7-0.6,3.7-1.5l0.2,1.3C279.9,93.8,278.5,94.3,277,94.3z M273.9,87.8h5.7c-0.1-1.9-1-3.2-2.7-3.2S274.1,85.8,273.9,87.8z"/>
<path class="st1" d="M184.4,120.5h-1.2l-2.6-8.5l-2.6,8.5h-1.2l-3.4-10.4l1.4-0.3l2.7,8.6l2.6-8.5h1.2l2.6,8.5l2.6-8.5h1.4
	L184.4,120.5z"/>
<path class="st1" d="M191.2,107.5c-0.6,0.1-1.1-0.4-1.2-1c-0.1-0.6,0.4-1.1,1-1.2c0.1,0,0.1,0,0.2,0c0.6,0.1,1,0.6,1,1.2
	C192.1,107.1,191.7,107.5,191.2,107.5z M190.5,120.4V110h1.4v10.4H190.5z"/>
<path class="st1" d="M198.6,120.6c-1.6,0-2.7-0.6-2.7-2.6v-6.8h-1.6V110h1.6v-3.6l1.4-0.2v3.9h2.4l0.2,1.2h-2.6v6.6
	c0,1.1,0.4,1.5,1.5,1.5c0.3,0,0.7,0,1-0.1l0.2,1.2C199.7,120.6,199.2,120.6,198.6,120.6L198.6,120.6z"/>
<path class="st1" d="M209.4,120.4v-7.2c0-1.3-0.6-2.2-1.9-2.2c-1.3,0.1-2.5,0.8-3.4,1.8v7.5h-1.4v-15.5l1.4-0.3v6.9
	c1-1,2.3-1.6,3.6-1.7c1.6-0.2,2.9,1,3.1,2.5c0,0.2,0,0.4,0,0.6v7.5L209.4,120.4z"/>
<path class="st1" d="M222.2,120.6c-1.3,0-2.6-0.3-3.7-0.9l0.2-1.4c1.1,0.7,2.3,1.1,3.6,1.1c1.4,0,2.4-0.6,2.4-1.7s-0.6-1.5-2.7-2
	c-2.3-0.6-3.3-1.3-3.3-3.1s1.4-2.8,3.5-2.8c1.1,0,2.2,0.2,3.2,0.7l-0.2,1.4c-0.9-0.5-1.9-0.8-3-0.8c-1.4,0-2.1,0.6-2.1,1.5
	s0.6,1.3,2.3,1.8c2.5,0.7,3.6,1.4,3.6,3.3S224.6,120.6,222.2,120.6L222.2,120.6z"/>
<path class="st1" d="M232.9,120.7c-2.6,0-4.7-2-4.7-5.4s2.1-5.4,4.8-5.4c1.2,0,2.4,0.4,3.4,1.1l-0.2,1.4c-0.9-0.8-2-1.2-3.2-1.2
	c-2,0-3.2,1.6-3.2,4.2s1.3,4.2,3.4,4.2c1.2,0,2.3-0.4,3.2-1.2l0.2,1.3C235.4,120.3,234.2,120.7,232.9,120.7L232.9,120.7z"/>
<path class="st1" d="M240,107.5c-0.6,0.1-1.1-0.4-1.2-1c-0.1-0.6,0.4-1.1,1-1.2c0.1,0,0.1,0,0.2,0c0.6,0.1,1,0.6,1,1.2
	C240.9,107.1,240.5,107.5,240,107.5z M239.2,120.4V110h1.4v10.4H239.2z"/>
<path class="st1" d="M248.3,120.7c-2.7,0-4.7-1.9-4.7-5.4c0-3.3,1.9-5.4,4.5-5.4c2.8,0,4.2,2.3,4.2,5.2v0.3h-7.2
	c0,2.6,1.2,4.1,3.3,4.1c1.4,0,2.7-0.6,3.7-1.5l0.2,1.3C251.1,120.1,249.7,120.7,248.3,120.7L248.3,120.7z M245.1,114.2h5.7
	c-0.1-1.9-1-3.2-2.7-3.2S245.4,112.2,245.1,114.2L245.1,114.2z"/>
<path class="st1" d="M261.8,120.4v-7.2c0-1.3-0.6-2.2-1.9-2.2c-1.3,0.1-2.5,0.8-3.4,1.8v7.5H255v-10.4h1.1l0.2,1.5
	c1-1,2.3-1.7,3.7-1.8c2.1,0,3.1,1.2,3.1,3.2v7.4L261.8,120.4z"/>
<path class="st1" d="M270.6,120.7c-2.6,0-4.7-2-4.7-5.4s2.1-5.4,4.8-5.4c1.2,0,2.4,0.4,3.4,1.1l-0.2,1.4c-0.9-0.8-2-1.2-3.2-1.2
	c-2,0-3.2,1.6-3.2,4.2s1.3,4.2,3.4,4.2c1.2,0,2.3-0.4,3.2-1.2l0.2,1.3C273.2,120.3,271.9,120.7,270.6,120.7L270.6,120.7z"/>
<path class="st1" d="M280.7,120.7c-2.7,0-4.7-1.9-4.7-5.4c0-3.3,1.9-5.4,4.5-5.4c2.8,0,4.2,2.3,4.2,5.2v0.3h-7.2
	c0,2.6,1.2,4.1,3.3,4.1c1.4,0,2.7-0.6,3.7-1.5l0.2,1.3C283.5,120.1,282.1,120.7,280.7,120.7L280.7,120.7z M277.5,114.2h5.7
	c-0.1-1.9-1-3.2-2.7-3.2S277.8,112.2,277.5,114.2z"/>
<path class="st1" d="M209.7,147l-2.4-2.4c-1.2,1.6-3,2.5-5,2.5c-3,0-4.8-1.6-4.8-4.1c0-2.3,1.5-3.6,3.6-4.6c-1-0.9-1.6-2.1-1.6-3.4
	c0-2,1.5-3.5,4-3.5c1.3,0,2.5,0.3,3.6,0.9l-0.3,1.5c-1-0.7-2.1-1.1-3.3-1.1c-1.2-0.1-2.2,0.7-2.4,1.9c0,0.1,0,0.2,0,0.3
	c0,1.1,0.5,1.9,1.6,3l4.4,4.5c0.6-1.4,1.1-2.9,1.2-4.4l1.4,0.3c-0.3,1.8-0.8,3.5-1.6,5.1l3.2,3.2L209.7,147z M206.3,143.6l-4.4-4.3
	c-1.9,0.8-3,2-3,3.6c0,1.7,1.4,3,3.1,2.9c0.1,0,0.2,0,0.2,0C203.9,145.8,205.4,145,206.3,143.6L206.3,143.6z"/>
<path class="st1" d="M225.3,146.8l-0.3-1.5c-0.8,1.1-2,1.7-3.3,1.7c-2.3,0-4.2-1.6-4.2-5.1c0-3.8,2.2-5.7,4.8-5.7
	c0.9,0,1.9,0.2,2.7,0.5v-5.5l1.4-0.3v15.8h-1.1V146.8z M225,138.1c-0.8-0.4-1.7-0.6-2.7-0.6c-1.9,0-3.3,1.4-3.3,4.3
	c0,2.5,1.2,3.9,2.9,3.9c1.3-0.1,2.4-0.8,3.1-1.9V138.1z"/>
<path class="st1" d="M236.2,146.8l-0.2-1.4c-1,1-2.3,1.6-3.7,1.6c-1.8,0-3.1-1-3.1-2.8c0-2.4,2-3.6,6.7-4v-0.7c0-1.4-0.8-2-2.2-2
	c-1.3,0-2.5,0.3-3.6,0.9l-0.2-1.3c1.2-0.6,2.5-0.9,3.9-0.9c2.3,0,3.5,1.1,3.5,3.2v7.4L236.2,146.8z M235.9,141.3
	c-4.1,0.4-5.2,1.4-5.2,2.8c0,0.9,0.7,1.7,1.6,1.7c0.1,0,0.2,0,0.3,0c1.3-0.1,2.5-0.6,3.4-1.6L235.9,141.3z"/>
<path class="st1" d="M243.8,147c-1.6,0-2.7-0.6-2.7-2.6v-6.8h-1.6v-1.2h1.6v-3.6l1.4-0.2v3.9h2.4l0.2,1.2h-2.6v6.6
	c0,1.1,0.4,1.5,1.5,1.5c0.3,0,0.7,0,1-0.1l0.2,1.2C244.8,147,244.3,147,243.8,147z"/>
<path class="st1" d="M254.2,146.8l-0.2-1.4c-1,1-2.3,1.6-3.7,1.6c-1.8,0-3.1-1-3.1-2.8c0-2.4,2-3.6,6.7-4v-0.7c0-1.4-0.8-2-2.2-2
	c-1.3,0-2.5,0.3-3.6,0.9l-0.2-1.3c1.2-0.6,2.5-0.9,3.9-0.9c2.3,0,3.5,1.1,3.5,3.2v7.4L254.2,146.8z M253.9,141.3
	c-4.1,0.4-5.2,1.4-5.2,2.8c0,0.9,0.7,1.7,1.6,1.7c0.1,0,0.2,0,0.3,0c1.3-0.1,2.5-0.6,3.4-1.6L253.9,141.3L253.9,141.3z"/>
<path class="st1" d="M190.8,173.5c-2.6,0-4.7-2-4.7-5.4s2.1-5.4,4.8-5.4c1.2,0,2.4,0.4,3.4,1.1l-0.2,1.4c-0.9-0.8-2-1.2-3.2-1.2
	c-2,0-3.2,1.6-3.2,4.2s1.3,4.2,3.4,4.2c1.2,0,2.3-0.4,3.2-1.2l0.2,1.3C193.3,173.1,192.1,173.5,190.8,173.5L190.8,173.5z"/>
<path class="st1" d="M200.8,173.5c-2.7,0-4.7-2-4.7-5.4s2-5.4,4.7-5.4s4.7,2,4.7,5.4S203.4,173.5,200.8,173.5z M200.8,163.9
	c-2.1,0-3.2,1.7-3.2,4.2s1.1,4.2,3.2,4.2s3.2-1.7,3.2-4.2S202.9,163.9,200.8,163.9L200.8,163.9z"/>
<path class="st1" d="M208.4,173.2v-15.5l1.4-0.3v15.8H208.4z"/>
<path class="st1" d="M213.6,173.2v-15.5l1.4-0.3v15.8H213.6z"/>
<path class="st1" d="M222.6,173.5c-2.7,0-4.7-1.9-4.7-5.4c0-3.3,1.9-5.4,4.5-5.4c2.8,0,4.2,2.3,4.2,5.2v0.3h-7.2
	c0,2.6,1.2,4.1,3.3,4.1c1.4,0,2.7-0.6,3.7-1.5l0.2,1.3C225.5,173,224.1,173.5,222.6,173.5L222.6,173.5z M219.4,167h5.7
	c-0.1-1.9-1-3.2-2.7-3.2S219.7,165,219.4,167L219.4,167z"/>
<path class="st1" d="M233.5,173.5c-2.6,0-4.7-2-4.7-5.4s2.1-5.4,4.8-5.4c1.2,0,2.4,0.4,3.4,1.1l-0.2,1.4c-0.9-0.8-2-1.2-3.2-1.2
	c-2,0-3.2,1.6-3.2,4.2s1.3,4.2,3.4,4.2c1.2,0,2.3-0.4,3.2-1.2l0.2,1.3C236,173.1,234.7,173.5,233.5,173.5L233.5,173.5z"/>
<path class="st1" d="M242.9,173.4c-1.6,0-2.7-0.6-2.7-2.6V164h-1.6v-1.2h1.6v-3.6l1.4-0.2v3.9h2.4l0.2,1.2h-2.6v6.6
	c0,1.1,0.4,1.5,1.5,1.5c0.3,0,0.7,0,1-0.1l0.2,1.2C243.9,173.4,243.4,173.4,242.9,173.4L242.9,173.4z"/>
<path class="st1" d="M247.8,160.4c-0.6,0.1-1.1-0.4-1.2-1s0.4-1.1,1-1.2c0.1,0,0.1,0,0.2,0c0.6,0.1,1,0.6,1,1.2
	C248.7,159.9,248.3,160.3,247.8,160.4z M247.1,173.2v-10.4h1.4v10.4H247.1z"/>
<path class="st1" d="M256.1,173.5c-2.7,0-4.7-2-4.7-5.4s2-5.4,4.7-5.4c2.7,0,4.7,2,4.7,5.4S258.7,173.5,256.1,173.5z M256.1,163.9
	c-2.1,0-3.2,1.7-3.2,4.2s1.1,4.2,3.2,4.2c2.1,0,3.2-1.7,3.2-4.2S258.2,163.9,256.1,163.9L256.1,163.9z"/>
<path class="st1" d="M270.3,173.2V166c0-1.3-0.6-2.2-1.9-2.2c-1.3,0.1-2.5,0.8-3.4,1.8v7.5h-1.5v-10.4h1.1l0.2,1.5
	c1-1,2.3-1.7,3.7-1.8c2.1,0,3.1,1.2,3.1,3.2v7.4L270.3,173.2z"/>
<g>
	<path class="st1" d="M353.6,35.7h-1.3v5.6h-2.9V26.1h4.4c3.5,0,5.6,1.6,5.6,4.7C359.4,34,357.1,35.7,353.6,35.7L353.6,35.7z
		 M353.7,28.4h-1.4v4.9h1.3c1.9,0,3-0.8,3-2.5C356.6,29.2,355.6,28.4,353.7,28.4L353.7,28.4z"/>
	<path class="st1" d="M366.9,41.2l-0.2-1.4c-0.9,1-2.2,1.6-3.5,1.7c-1.5,0.1-2.9-1-3-2.5c0-0.1,0-0.3,0-0.4c0-2.6,2.1-3.7,6.4-4.1
		v-0.3c0-1.1-0.7-1.6-1.8-1.6c-1.2,0-2.4,0.3-3.5,0.9l-0.3-2.1c1.3-0.6,2.8-0.9,4.2-0.9c2.8,0,4.1,1,4.1,3.6v7.3L366.9,41.2z
		 M366.6,35.9c-3.1,0.4-3.8,1.3-3.8,2.3c0,0.6,0.4,1.2,1.1,1.2c0.1,0,0.1,0,0.2,0c0.9,0,1.8-0.4,2.5-1.1L366.6,35.9z"/>
	<path class="st1" d="M374.5,35.2v6.1h-2.7V30.6h2.2l0.3,2.1c0.6-1.3,1.9-2.2,3.4-2.3l0.4,2.6C376.7,33.1,375.3,33.9,374.5,35.2
		L374.5,35.2z"/>
	<path class="st1" d="M384.2,41.4c-2.1,0-3.5-0.8-3.5-3.2v-5.5h-1.5v-2.2h1.5v-3.4l2.6-0.4v3.8h2.2l0.3,2.2h-2.5v5
		c0,0.9,0.4,1.3,1.4,1.3c0.3,0,0.6,0,0.8-0.1l0.3,2.2C385.3,41.4,384.7,41.4,384.2,41.4L384.2,41.4z"/>
	<path class="st1" d="M396.4,41.5c-1.6,0-3.2-0.4-4.6-1.2l0.4-2.4c1.2,0.8,2.6,1.2,4.1,1.2c1.7,0,2.8-0.7,2.8-2.1
		c0-1.6-1.1-2.4-3.6-2.4h-0.8l-0.4-2.2h1.2c2.3,0,3.3-0.8,3.3-2.1c0-1.1-0.8-1.8-2.5-1.8c-1.4,0-2.8,0.5-3.9,1.3l-0.4-2.3
		c1.3-0.9,2.9-1.4,4.5-1.4c3.3,0,5,1.7,5,3.9c0,1.6-1.1,3.1-2.7,3.5c1.8,0.3,3,1.9,3,3.7C401.9,39.9,399.7,41.5,396.4,41.5z"/>
	<path class="st1" d="M404.1,33.8v-3.2h2.9v3.2H404.1z M404.1,41.2V38h2.9v3.2H404.1z"/>
	<path class="st1" d="M328.4,67.6V52.5h1.5v13.8h5.9l0.2,1.4h-7.6V67.6z"/>
	<path class="st1" d="M342,67.9c-2.7,0-4.7-1.8-4.7-5.4c0-3.3,1.9-5.4,4.5-5.4c2.8,0,4.2,2.3,4.2,5.2v0.2h-7.2
		c0,2.6,1.2,4.1,3.3,4.1c1.4,0,2.7-0.6,3.7-1.5l0.2,1.3C344.8,67.3,343.4,67.9,342,67.9L342,67.9z M338.8,61.4h5.7
		c-0.1-1.9-1-3.2-2.7-3.2S339.1,59.4,338.8,61.4z"/>
	<path class="st1" d="M355.1,67.6l-0.3-1.4c-1,1-2.3,1.6-3.7,1.6c-1.8,0-3.1-1-3.1-2.8c0-2.4,2-3.6,6.7-4v-0.7c0-1.4-0.8-2-2.2-2
		c-1.3,0-2.5,0.3-3.6,0.9l-0.2-1.3c1.2-0.6,2.5-0.9,3.9-0.9c2.3,0,3.5,1.1,3.5,3.2v7.4L355.1,67.6z M354.8,62.1
		c-4.1,0.4-5.2,1.4-5.2,2.8c0,0.9,0.7,1.7,1.6,1.7c0.1,0,0.2,0,0.3,0c1.3-0.1,2.5-0.6,3.4-1.6L354.8,62.1L354.8,62.1z"/>
	<path class="st1" d="M360.9,61.1v6.5h-1.5V57.2h1.1l0.3,2.1c0.8-1.3,2.2-2.2,3.7-2.3l0.2,1.4C363.2,58.6,361.7,59.6,360.9,61.1
		L360.9,61.1z"/>
	<path class="st1" d="M373.8,67.6v-7.1c0-1.3-0.6-2.2-1.9-2.2c-1.3,0.1-2.5,0.8-3.4,1.8v7.5H367V57.2h1.1l0.2,1.5
		c1-1,2.3-1.7,3.7-1.8c2.1,0,3.1,1.2,3.1,3.2v7.4L373.8,67.6z"/>
	<path class="st1" d="M389.9,67.6l-0.2-1.4c-1,1-2.3,1.6-3.7,1.6c-1.8,0-3.1-1-3.1-2.8c0-2.4,2-3.6,6.7-4v-0.7c0-1.4-0.8-2-2.2-2
		c-1.3,0-2.5,0.3-3.6,0.9l-0.2-1.3c1.2-0.6,2.5-0.9,3.9-0.9c2.3,0,3.5,1.1,3.5,3.2v7.4L389.9,67.6z M389.6,62.1
		c-4.1,0.4-5.2,1.4-5.2,2.8c0,0.9,0.7,1.7,1.6,1.7c0.1,0,0.2,0,0.3,0c1.3-0.1,2.5-0.6,3.4-1.6L389.6,62.1L389.6,62.1z"/>
	<path class="st1" d="M398.1,67.8c-1.3,0-2.6-0.2-3.8-0.7v-15l1.5-0.3v6.8c0.8-1,2-1.5,3.2-1.6c2.3,0,4.2,1.7,4.2,5.1
		C403.1,65.9,401,67.8,398.1,67.8z M398.8,58.3c-1.2,0.1-2.4,0.8-3.1,1.8v6c0.8,0.3,1.6,0.4,2.4,0.4c2.1,0,3.5-1.3,3.5-4.3
		C401.7,59.7,400.4,58.3,398.8,58.3z"/>
	<path class="st1" d="M409.9,67.9c-2.7,0-4.7-2-4.7-5.4s2-5.4,4.7-5.4s4.7,2,4.7,5.4S412.6,67.9,409.9,67.9z M409.9,58.2
		c-2.1,0-3.2,1.7-3.2,4.2s1.1,4.2,3.2,4.2s3.2-1.7,3.2-4.2S412,58.2,409.9,58.2L409.9,58.2z"/>
	<path class="st1" d="M424.4,67.6l-0.2-1.5c-1,1-2.3,1.7-3.7,1.8c-2.1,0-3.1-1.2-3.1-3.2v-7.4h1.5v7.2c0,1.3,0.6,2.1,1.9,2.1
		c1.3-0.1,2.5-0.8,3.4-1.8v-7.5h1.5v10.4L424.4,67.6L424.4,67.6z"/>
	<path class="st1" d="M432.1,67.8c-1.6,0-2.7-0.6-2.7-2.6v-6.7h-1.6v-1.3h1.6v-3.6l1.4-0.2v3.8h2.4l0.2,1.2h-2.6V65
		c0,1.1,0.4,1.5,1.5,1.5c0.3,0,0.7,0,1-0.1l0.2,1.2C433.1,67.8,432.6,67.8,432.1,67.8z"/>
	<path class="st1" d="M331.9,94.2c-0.9,0-1.8-0.2-2.7-0.5v4.2l-1.5,0.2V83.7h1.1l0.2,1.5c0.8-1.1,2-1.7,3.4-1.7
		c2.3,0,4.2,1.7,4.2,5.1C336.6,92.3,334.4,94.2,331.9,94.2L331.9,94.2z M332.3,84.7c-1.3,0.1-2.4,0.8-3.1,1.9v5.7
		c0.8,0.4,1.7,0.6,2.7,0.6c1.9,0,3.3-1.4,3.3-4.3C335.1,86.1,333.9,84.7,332.3,84.7L332.3,84.7z"/>
	<path class="st1" d="M343.4,94.3c-2.7,0-4.7-1.8-4.7-5.4c0-3.3,1.9-5.4,4.5-5.4c2.8,0,4.2,2.3,4.2,5.2V89h-7.2
		c0,2.6,1.2,4.1,3.3,4.1c1.4,0,2.7-0.6,3.7-1.5l0.2,1.3C346.3,93.8,344.9,94.3,343.4,94.3z M340.3,87.8h5.7c-0.1-1.9-1-3.2-2.7-3.2
		S340.5,85.8,340.3,87.8z"/>
	<path class="st1" d="M357.4,94l-0.3-1.5c-0.8,1.1-2,1.7-3.3,1.7c-2.3,0-4.2-1.6-4.2-5.1c0-3.8,2.2-5.7,4.8-5.7
		c0.9,0,1.9,0.2,2.7,0.5v-5.4l1.5-0.3V94H357.4z M357,85.3c-0.8-0.4-1.7-0.6-2.7-0.6c-1.9,0-3.3,1.4-3.3,4.3c0,2.5,1.2,3.9,2.9,3.9
		c1.3-0.1,2.4-0.8,3.1-1.9V85.3z"/>
	<path class="st1" d="M368.2,94l-0.2-1.4c-1,1-2.3,1.6-3.7,1.6c-1.8,0-3.1-1-3.1-2.8c0-2.4,2-3.6,6.7-4v-0.7c0-1.4-0.8-2-2.2-2
		c-1.3,0-2.5,0.3-3.6,0.9l-0.2-1.3c1.2-0.6,2.5-0.9,3.9-0.9c2.3,0,3.5,1.1,3.5,3.2V94L368.2,94z M367.9,88.5
		c-4.1,0.4-5.2,1.4-5.2,2.8c0,0.9,0.7,1.7,1.6,1.7c0.1,0,0.2,0,0.3,0c1.3-0.1,2.5-0.6,3.4-1.5L367.9,88.5L367.9,88.5z"/>
	<path class="st1" d="M376.2,98c-2.7,0-4.8-0.9-4.8-2.7c0-1.1,0.8-2,2.4-2.8c-0.4-0.2-0.7-0.6-0.8-1.1c0-0.5,0.4-1,1-1.4
		c-1.2-0.6-1.9-1.8-1.9-3.1c0-2,1.7-3.6,3.7-3.5c0.1,0,0.1,0,0.2,0c1,0,1.9,0.3,2.6,0.9l2.6-0.8l0.2,1.4l-2.1,0.2
		c0.4,0.5,0.6,1.2,0.5,1.8c0,2-1.7,3.6-3.7,3.5c-0.1,0-0.1,0-0.2,0c-0.3,0-0.6,0-0.9-0.1c-0.4,0.2-0.7,0.5-0.7,0.8
		c0,0.4,0.4,0.6,2.3,0.9l0.8,0.2c2.3,0.4,3.6,1.1,3.6,2.6C381.1,96.9,378.9,98,376.2,98L376.2,98z M375,93c-1.4,0.7-2.1,1.4-2.1,2.2
		c0,1.1,1.4,1.7,3.4,1.7s3.5-0.8,3.5-1.8c0-0.8-0.7-1.2-2.5-1.6l-1-0.2C375.7,93.2,375.4,93.1,375,93L375,93z M376,84.5
		c-1.4,0-2.4,1.2-2.4,2.5c0,1.4,1.2,2.4,2.5,2.4s2.4-1.1,2.4-2.5c0-1.3-1-2.4-2.4-2.4C376.1,84.5,376.1,84.5,376,84.5L376,84.5z"/>
	<path class="st1" d="M387.5,94.3c-2.7,0-4.7-2-4.7-5.4s2-5.4,4.7-5.4s4.7,2,4.7,5.4S390.1,94.3,387.5,94.3z M387.5,84.6
		c-2.1,0-3.2,1.7-3.2,4.2s1.1,4.2,3.2,4.2s3.2-1.7,3.2-4.2S389.6,84.6,387.5,84.6L387.5,84.6z"/>
	<path class="st1" d="M398.5,98c-2.7,0-4.8-0.9-4.8-2.7c0-1.1,0.8-2,2.4-2.8c-0.4-0.2-0.7-0.6-0.8-1.1c0-0.5,0.4-1,1-1.4
		c-1.2-0.6-1.9-1.8-1.9-3.1c0-2,1.7-3.6,3.7-3.5c0.1,0,0.1,0,0.2,0c1,0,1.9,0.3,2.6,0.9l2.6-0.8l0.2,1.4l-2.1,0.2
		c0.4,0.5,0.6,1.2,0.5,1.8c0,2-1.7,3.6-3.7,3.5c-0.1,0-0.1,0-0.2,0c-0.3,0-0.6,0-0.9-0.1c-0.4,0.2-0.7,0.5-0.7,0.8
		c0,0.4,0.4,0.6,2.3,0.9l0.8,0.2c2.3,0.4,3.6,1.1,3.6,2.6C403.4,96.9,401.2,98,398.5,98L398.5,98z M397.3,93
		c-1.4,0.7-2.1,1.4-2.1,2.2c0,1.1,1.4,1.7,3.4,1.7s3.5-0.8,3.5-1.8c0-0.8-0.7-1.2-2.5-1.6l-1-0.2C398,93.2,397.7,93.1,397.3,93
		L397.3,93z M398.3,84.5c-1.4,0-2.4,1.2-2.4,2.5c0,1.4,1.2,2.4,2.5,2.4s2.4-1.1,2.4-2.5c0-1.3-1-2.4-2.4-2.4
		C398.4,84.5,398.4,84.5,398.3,84.5L398.3,84.5z"/>
	<path class="st1" d="M409.8,95.3c-0.8,2-1.7,2.7-3.2,2.7c-0.2,0-0.4,0-0.6-0.1l-0.2-1.3c0.3,0.1,0.6,0.1,0.9,0.1
		c0.9,0,1.4-0.4,1.8-1.4l0.5-1.2l-3.9-10.3l1.4-0.3l3.2,8.9l3.1-8.7h1.5L409.8,95.3z"/>
	<path class="st1" d="M433,94.2l-2.4-2.4c-1.2,1.6-3,2.5-5,2.5c-3,0-4.8-1.6-4.8-4.1c0-2.3,1.5-3.7,3.6-4.6c-1-0.9-1.6-2.1-1.6-3.4
		c0-2,1.5-3.5,4-3.5c1.3,0,2.5,0.3,3.6,0.9l-0.3,1.5c-1-0.7-2.1-1.1-3.3-1.1c-1.2-0.1-2.2,0.7-2.4,1.9c0,0.1,0,0.2,0,0.3
		c0,1.1,0.5,1.8,1.6,3l4.4,4.5c0.6-1.4,1.1-2.9,1.2-4.4l1.4,0.3c-0.3,1.8-0.8,3.5-1.6,5.1l3.2,3.2L433,94.2z M429.7,90.8l-4.4-4.3
		c-1.9,0.8-3,2-3,3.6c0,1.7,1.4,3,3.1,2.9c0.1,0,0.2,0,0.2,0C427.2,93,428.8,92.2,429.7,90.8L429.7,90.8z"/>
	<path class="st1" d="M326.9,120.6c-1.6,0-2.7-0.6-2.7-2.6v-6.8h-1.6V110h1.6v-3.6l1.4-0.2v3.9h2.4l0.2,1.2h-2.6v6.6
		c0,1.1,0.4,1.5,1.5,1.5c0.3,0,0.7,0,1-0.1l0.2,1.2C327.9,120.6,327.4,120.6,326.9,120.6z"/>
	<path class="st1" d="M334.9,120.7c-2.7,0-4.7-1.9-4.7-5.4c0-3.3,1.9-5.4,4.5-5.4c2.8,0,4.2,2.3,4.2,5.2v0.3h-7.2
		c0,2.6,1.2,4.1,3.3,4.1c1.4,0,2.7-0.6,3.7-1.5l0.2,1.3C337.8,120.1,336.4,120.7,334.9,120.7L334.9,120.7z M331.7,114.2h5.7
		c-0.1-1.9-1-3.2-2.7-3.2S332,112.2,331.7,114.2z"/>
	<path class="st1" d="M348,120.4l-0.2-1.4c-1,1-2.3,1.6-3.7,1.6c-1.8,0-3.1-1-3.1-2.8c0-2.4,2-3.6,6.7-4v-0.7c0-1.4-0.8-2-2.2-2
		c-1.3,0-2.5,0.3-3.6,0.9l-0.2-1.3c1.2-0.6,2.5-0.9,3.9-0.9c2.3,0,3.5,1.1,3.5,3.2v7.4H348z M347.7,114.9c-4.1,0.4-5.2,1.4-5.2,2.8
		c0,0.9,0.7,1.7,1.6,1.7c0.1,0,0.2,0,0.3,0c1.3-0.1,2.5-0.6,3.4-1.6L347.7,114.9L347.7,114.9z"/>
	<path class="st1" d="M356.5,120.7c-2.6,0-4.7-2-4.7-5.4s2.1-5.4,4.8-5.4c1.2,0,2.4,0.4,3.4,1.1l-0.2,1.4c-0.9-0.8-2-1.2-3.2-1.2
		c-2,0-3.2,1.6-3.2,4.2s1.3,4.2,3.4,4.2c1.2,0,2.3-0.4,3.2-1.2l0.2,1.3C359,120.3,357.8,120.7,356.5,120.7L356.5,120.7z"/>
	<path class="st1" d="M369.5,120.4v-7.2c0-1.3-0.6-2.2-1.9-2.2c-1.3,0.1-2.5,0.8-3.4,1.8v7.5h-1.5v-15.5l1.5-0.3v6.9
		c1-1,2.3-1.6,3.6-1.7c1.6-0.2,2.9,1,3.1,2.5c0,0.2,0,0.4,0,0.6v7.5L369.5,120.4z"/>
	<path class="st1" d="M375.1,107.5c-0.6-0.1-1-0.6-1-1.2c0-0.5,0.4-0.9,1-1c0.6,0.1,1,0.6,1,1.2C376,107.1,375.6,107.5,375.1,107.5z
		 M374.4,120.4V110h1.4v10.4H374.4z"/>
	<path class="st1" d="M386.1,120.4v-7.2c0-1.3-0.6-2.2-1.9-2.2c-1.3,0.1-2.5,0.8-3.4,1.8v7.5h-1.5v-10.4h1.1l0.2,1.5
		c1-1,2.3-1.7,3.7-1.8c2.1,0,3.1,1.2,3.1,3.2v7.4L386.1,120.4z"/>
	<path class="st1" d="M394.4,124.4c-2.7,0-4.8-0.9-4.8-2.7c0-1.1,0.8-2,2.4-2.8c-0.4-0.2-0.7-0.6-0.8-1.1c0-0.5,0.4-1,1-1.4
		c-1.2-0.6-1.9-1.8-1.9-3.1c0-2,1.7-3.6,3.7-3.5c0.1,0,0.1,0,0.2,0c1,0,1.9,0.3,2.6,0.9l2.6-0.8l0.2,1.4l-2.1,0.2
		c0.4,0.5,0.6,1.2,0.5,1.9c0,2-1.7,3.6-3.7,3.5c-0.1,0-0.1,0-0.2,0c-0.3,0-0.6,0-0.9-0.1c-0.4,0.2-0.7,0.5-0.7,0.8
		c0,0.4,0.4,0.6,2.3,0.9l0.8,0.1c2.3,0.4,3.6,1.1,3.6,2.6C399.4,123.3,397.1,124.4,394.4,124.4L394.4,124.4z M393.2,119.4
		c-1.4,0.7-2.1,1.4-2.1,2.2c0,1.1,1.4,1.7,3.4,1.7s3.5-0.8,3.5-1.9c0-0.8-0.7-1.2-2.5-1.6l-1-0.2
		C393.9,119.6,393.6,119.5,393.2,119.4L393.2,119.4z M394.2,110.9c-1.4,0-2.4,1.2-2.4,2.5s1.2,2.4,2.5,2.4s2.4-1.1,2.4-2.5
		c0-1.3-1-2.4-2.3-2.5C394.3,110.9,394.3,110.9,394.2,110.9L394.2,110.9z"/>
	<path class="st1" d="M410.1,120.6c-1.6,0-2.7-0.6-2.7-2.6v-6.8h-1.6V110h1.6v-3.6l1.4-0.2v3.9h2.4l0.2,1.2h-2.6v6.6
		c0,1.1,0.4,1.5,1.5,1.5c0.3,0,0.7,0,1-0.1l0.2,1.2C411.1,120.6,410.6,120.6,410.1,120.6z"/>
	<path class="st1" d="M415,107.5c-0.6-0.1-1-0.6-1-1.2c0-0.5,0.4-0.9,1-1c0.6,0.1,1,0.6,1,1.2C415.9,107.1,415.5,107.5,415,107.5z
		 M414.3,120.4V110h1.4v10.4H414.3z"/>
	<path class="st1" d="M423.4,120.6c-0.9,0-1.8-0.2-2.7-0.5v4.2l-1.5,0.2v-14.4h1.1l0.2,1.5c0.8-1.1,2-1.7,3.4-1.7
		c2.3,0,4.2,1.6,4.2,5.1C428.2,118.8,425.9,120.6,423.4,120.6L423.4,120.6z M423.8,111.1c-1.3,0.1-2.4,0.8-3.1,1.9v5.7
		c0.8,0.4,1.7,0.6,2.7,0.6c1.9,0,3.3-1.4,3.3-4.3C426.7,112.5,425.5,111.1,423.8,111.1L423.8,111.1z"/>
	<path class="st1" d="M434,120.6c-1.3,0-2.6-0.3-3.7-0.9l0.2-1.4c1.1,0.7,2.3,1.1,3.6,1.1c1.5,0,2.4-0.6,2.4-1.7s-0.6-1.5-2.7-2
		c-2.3-0.6-3.3-1.3-3.3-3.1s1.4-2.8,3.5-2.8c1.1,0,2.2,0.2,3.2,0.7l-0.2,1.4c-0.9-0.5-1.9-0.8-3-0.8c-1.4,0-2.1,0.6-2.1,1.5
		s0.6,1.3,2.3,1.8c2.5,0.7,3.6,1.4,3.6,3.3S436.4,120.6,434,120.6L434,120.6z"/>
	<path class="st1" d="M336.8,132.4c-0.8-0.1-1.5,0.4-1.6,1.2c0,0.1,0,0.3,0,0.4v2.4h2.1l0.2,1.2h-2.3v9.2h-1.4v-9.2h-1.6v-1.2h1.6
		v-2.5c0-1.9,1.1-2.8,2.9-2.8c0.2,0,0.5,0,0.8,0l0.2,1.3C337.4,132.4,337.1,132.4,336.8,132.4L336.8,132.4z"/>
	<path class="st1" d="M343.6,147.1c-2.7,0-4.7-2-4.7-5.4s2-5.4,4.7-5.4s4.7,2,4.7,5.4S346.3,147.1,343.6,147.1z M343.6,137.4
		c-2.1,0-3.2,1.7-3.2,4.2s1.1,4.2,3.2,4.2s3.2-1.7,3.2-4.2S345.7,137.4,343.6,137.4L343.6,137.4z"/>
	<path class="st1" d="M352.5,140.3v6.5H351v-10.4h1.1l0.3,2.1c0.8-1.3,2.2-2.2,3.7-2.4l0.2,1.4C354.7,137.8,353.3,138.8,352.5,140.3
		L352.5,140.3z"/>
	<path class="st1" d="M376.9,146.8v-7.2c0-1.3-0.5-2.2-1.9-2.2c-1.3,0.1-2.5,0.8-3.3,1.8v7.6h-1.4v-7.2c0-1.3-0.5-2.2-1.9-2.2
		c-1.3,0.1-2.5,0.8-3.3,1.8v7.6h-1.5v-10.4h1.1l0.2,1.5c1-1,2.3-1.6,3.7-1.7c1.3-0.2,2.5,0.6,2.9,1.8c1-1.1,2.3-1.7,3.8-1.8
		c2.1,0,3,1.2,3,3.2v7.5h-1.4V146.8z"/>
	<path class="st1" d="M382.5,133.9c-0.6-0.1-1-0.6-1-1.2c0-0.5,0.4-0.9,1-1c0.6,0.1,1,0.6,1,1.2C383.4,133.5,383,133.9,382.5,133.9z
		 M381.8,146.8v-10.4h1.4v10.4H381.8z"/>
	<path class="st1" d="M393.9,146.8l-0.3-1.5c-0.8,1.1-2,1.7-3.3,1.7c-2.3,0-4.2-1.6-4.2-5.1c0-3.8,2.2-5.7,4.8-5.7
		c0.9,0,1.9,0.2,2.7,0.5v-5.5l1.5-0.3v15.8h-1.2V146.8z M393.6,138.1c-0.8-0.4-1.7-0.6-2.7-0.6c-1.9,0-3.3,1.4-3.3,4.3
		c0,2.5,1.2,3.9,2.9,3.9c1.3-0.1,2.4-0.8,3.1-1.9V138.1z"/>
	<path class="st1" d="M405.6,146.8l-0.3-1.5c-0.8,1.1-2,1.7-3.3,1.7c-2.3,0-4.2-1.6-4.2-5.1c0-3.8,2.2-5.7,4.8-5.7
		c0.9,0,1.9,0.2,2.7,0.5v-5.5l1.5-0.3v15.8h-1.2V146.8z M405.3,138.1c-0.8-0.4-1.7-0.6-2.7-0.6c-1.9,0-3.3,1.4-3.3,4.3
		c0,2.5,1.2,3.9,2.9,3.9c1.3-0.1,2.4-0.8,3.1-1.9V138.1z"/>
	<path class="st1" d="M410.3,146.8v-15.5l1.4-0.3v15.8H410.3z"/>
	<path class="st1" d="M419.3,147.1c-2.7,0-4.7-1.9-4.7-5.4c0-3.3,1.9-5.4,4.5-5.4c2.8,0,4.2,2.3,4.2,5.2v0.3h-7.2
		c0,2.6,1.2,4.1,3.3,4.1c1.4,0,2.7-0.6,3.7-1.5l0.2,1.3C422.2,146.5,420.8,147.1,419.3,147.1L419.3,147.1z M416.1,140.6h5.7
		c-0.1-1.9-1-3.2-2.7-3.2S416.4,138.6,416.1,140.6z"/>
	<path class="st1" d="M355.4,173.4c-1.3,0-2.6-0.3-3.7-0.9l0.2-1.4c1.1,0.7,2.3,1.1,3.6,1.1c1.5,0,2.4-0.6,2.4-1.7s-0.6-1.5-2.7-2
		c-2.3-0.6-3.3-1.3-3.3-3.1s1.4-2.8,3.5-2.8c1.1,0,2.2,0.2,3.2,0.7l-0.2,1.4c-0.9-0.5-1.9-0.8-3-0.8c-1.4,0-2.1,0.6-2.1,1.5
		s0.6,1.3,2.3,1.8c2.5,0.7,3.6,1.4,3.6,3.3S357.8,173.4,355.4,173.4L355.4,173.4z"/>
	<path class="st1" d="M366,173.5c-2.6,0-4.7-2-4.7-5.4s2.1-5.4,4.8-5.4c1.2,0,2.4,0.4,3.4,1.1l-0.2,1.4c-0.9-0.8-2-1.2-3.2-1.2
		c-2,0-3.2,1.6-3.2,4.2s1.3,4.2,3.4,4.2c1.2,0,2.3-0.4,3.2-1.2l0.2,1.3C368.6,173.1,367.3,173.5,366,173.5L366,173.5z"/>
	<path class="st1" d="M379,173.2V166c0-1.3-0.6-2.2-1.9-2.2c-1.3,0.1-2.5,0.8-3.4,1.8v7.5h-1.5v-15.5l1.5-0.3v6.9
		c1-1,2.3-1.6,3.6-1.7c1.6-0.2,2.9,1,3.1,2.5c0,0.2,0,0.4,0,0.6v7.5L379,173.2z"/>
	<path class="st1" d="M387.8,173.5c-2.7,0-4.7-2-4.7-5.4s2-5.4,4.7-5.4s4.7,2,4.7,5.4S390.5,173.5,387.8,173.5z M387.8,163.9
		c-2.1,0-3.2,1.7-3.2,4.2s1.1,4.2,3.2,4.2s3.2-1.7,3.2-4.2S389.9,163.9,387.8,163.9L387.8,163.9z"/>
	<path class="st1" d="M399.3,173.5c-2.7,0-4.7-2-4.7-5.4s2-5.4,4.7-5.4s4.7,2,4.7,5.4S402,173.5,399.3,173.5z M399.3,163.9
		c-2.1,0-3.2,1.7-3.2,4.2s1.1,4.2,3.2,4.2s3.2-1.7,3.2-4.2S401.4,163.9,399.3,163.9L399.3,163.9z"/>
	<path class="st1" d="M406.9,173.2v-15.5l1.4-0.3v15.8H406.9z"/>
</g>
<path class="st0" d="M472,3.9h119.4c6.6,0,12,5.4,12,12v172.4c0,6.6-5.4,12-12,12H472c-6.6,0-12-5.4-12-12V15.9
	C460,9.2,465.4,3.9,472,3.9z"/>
<path class="st1" d="M504.1,35.7h-1.3v5.6h-2.9V26.1h4.4c3.5,0,5.6,1.6,5.6,4.7C509.9,34,507.6,35.7,504.1,35.7z M504.2,28.4h-1.4
	v4.9h1.3c1.9,0,3-0.8,3-2.5C507,29.2,506.1,28.4,504.2,28.4z"/>
<path class="st1" d="M517.4,41.2l-0.2-1.4c-0.9,1-2.2,1.6-3.5,1.7c-1.5,0.1-2.9-1-3-2.5c0-0.1,0-0.3,0-0.4c0-2.6,2.1-3.7,6.4-4.1
	v-0.3c0-1.1-0.7-1.6-1.8-1.6c-1.2,0-2.4,0.3-3.5,0.9l-0.3-2.1c1.3-0.6,2.8-0.9,4.2-0.9c2.8,0,4.1,1,4.1,3.6v7.3L517.4,41.2z
	 M517.1,35.9c-3.1,0.4-3.8,1.3-3.8,2.3c0,0.6,0.4,1.2,1.1,1.2c0.1,0,0.1,0,0.2,0c0.9,0,1.8-0.4,2.5-1.1V35.9z"/>
<path class="st1" d="M525,35.2v6.1h-2.6V30.6h2.2l0.3,2.1c0.6-1.3,1.9-2.2,3.4-2.3l0.4,2.6C527.2,33.1,525.8,33.9,525,35.2L525,35.2
	z"/>
<path class="st1" d="M534.6,41.4c-2.1,0-3.5-0.8-3.5-3.2v-5.5h-1.5v-2.2h1.5v-3.4l2.6-0.4v3.8h2.2l0.3,2.2h-2.5v5
	c0,0.9,0.4,1.3,1.4,1.3c0.3,0,0.6,0,0.8-0.1l0.3,2.2C535.8,41.4,535.2,41.4,534.6,41.4z"/>
<path class="st1" d="M552.1,38.1v3.2h-2.6v-3.2h-7.2v-1.9l6.6-9.9h3.2V36h2.2v2L552.1,38.1z M549.5,29.2l-4.6,6.8h4.6V29.2z"/>
<path class="st1" d="M556.1,33.8v-3.2h2.9v3.2H556.1z M556.1,41.2V38h2.9v3.2H556.1z"/>
<path class="st1" d="M486.7,67.7h-1.3L481,54.5l-4.4,13.1h-1.3l-4.5-15l1.5-0.3l3.8,13l4.2-12.8h1.5l4.2,12.8l3.8-12.8h1.5
	L486.7,67.7z"/>
<path class="st1" d="M499.1,67.6l-0.3-1.4c-1,1-2.3,1.6-3.7,1.6c-1.8,0-3.1-1-3.1-2.8c0-2.4,2-3.6,6.7-4v-0.7c0-1.4-0.8-2-2.2-2
	c-1.3,0-2.5,0.3-3.6,0.9l-0.2-1.3c1.2-0.6,2.5-0.9,3.9-0.9c2.3,0,3.5,1.1,3.5,3.2v7.4L499.1,67.6z M498.7,62.1
	c-4.1,0.4-5.2,1.4-5.2,2.8c0,0.9,0.7,1.7,1.6,1.7c0.1,0,0.2,0,0.3,0c1.3-0.1,2.5-0.6,3.4-1.6L498.7,62.1L498.7,62.1z"/>
<path class="st1" d="M503.6,67.6V52.1l1.4-0.3v15.8H503.6z"/>
<path class="st1" d="M515.2,67.8l-5.2-5.7v5.5h-1.5V52.1l1.5-0.3v9.8l4.5-4.5h1.8l-4.8,4.6l5.3,5.8L515.2,67.8z"/>
<path class="st1" d="M527,67.8c-1.6,0-2.7-0.6-2.7-2.6v-6.7h-1.6v-1.3h1.6v-3.6l1.4-0.2v3.8h2.4l0.2,1.2h-2.5V65
	c0,1.1,0.4,1.5,1.5,1.5c0.3,0,0.7,0,1-0.1l0.2,1.2C528.1,67.8,527.6,67.8,527,67.8L527,67.8z"/>
<path class="st1" d="M537.8,67.6v-7.1c0-1.3-0.6-2.2-1.9-2.2c-1.3,0.1-2.5,0.8-3.4,1.8v7.5h-1.4V52.1l1.5-0.3v6.9
	c1-1,2.3-1.6,3.7-1.7c1.6-0.2,2.9,1,3.1,2.5c0,0.2,0,0.4,0,0.6v7.5H537.8z"/>
<path class="st1" d="M544,61.1v6.5h-1.5V57.2h1.1l0.3,2.1c0.8-1.3,2.2-2.2,3.7-2.3l0.2,1.4C546.3,58.6,544.8,59.6,544,61.1z"/>
<path class="st1" d="M553.8,67.9c-2.7,0-4.7-2-4.7-5.4s2-5.4,4.7-5.4s4.7,2,4.7,5.4S556.5,67.9,553.8,67.9z M553.8,58.2
	c-2.1,0-3.2,1.7-3.2,4.2s1.2,4.2,3.2,4.2s3.2-1.7,3.2-4.2S555.9,58.3,553.8,58.2L553.8,58.2z"/>
<path class="st1" d="M568.3,67.6l-0.2-1.5c-1,1-2.3,1.7-3.7,1.8c-2.1,0-3.1-1.2-3.1-3.2v-7.4h1.5v7.2c0,1.3,0.6,2.1,1.9,2.1
	c1.3-0.1,2.5-0.8,3.4-1.8v-7.5h1.5v10.4L568.3,67.6L568.3,67.6z"/>
<path class="st1" d="M576.3,71.6c-2.7,0-4.8-0.9-4.8-2.7c0-1.1,0.8-2,2.4-2.8c-0.4-0.2-0.7-0.6-0.8-1.1c0-0.5,0.3-1,1-1.4
	c-1.2-0.6-1.9-1.8-1.9-3.1c0-2,1.7-3.6,3.7-3.5c0.1,0,0.1,0,0.2,0c1,0,1.9,0.3,2.6,0.9l2.6-0.8l0.2,1.4l-2.1,0.2
	c0.4,0.5,0.6,1.2,0.5,1.8c0,2-1.7,3.6-3.7,3.5c-0.1,0-0.1,0-0.2,0c-0.3,0-0.6,0-0.9-0.1c-0.4,0.2-0.7,0.5-0.7,0.8
	c0,0.4,0.4,0.6,2.3,0.9l0.8,0.2c2.3,0.4,3.6,1.1,3.6,2.6C581.3,70.5,579,71.6,576.3,71.6z M575.1,66.6c-1.4,0.7-2.1,1.4-2.1,2.2
	c0,1.1,1.4,1.7,3.4,1.7s3.5-0.8,3.5-1.8c0-0.8-0.7-1.2-2.5-1.6l-1-0.2C575.9,66.8,575.5,66.7,575.1,66.6L575.1,66.6z M576.2,58.1
	c-1.4,0-2.4,1.2-2.4,2.5c0,1.4,1.2,2.4,2.5,2.4s2.4-1.1,2.4-2.5c0-1.3-1-2.4-2.3-2.5C576.3,58.1,576.2,58.1,576.2,58.1L576.2,58.1z"
	/>
<path class="st1" d="M590.6,67.6v-7.1c0-1.3-0.6-2.2-1.9-2.2c-1.3,0.1-2.5,0.8-3.4,1.8v7.5h-1.5V52.1l1.5-0.3v6.9
	c1-1,2.3-1.6,3.7-1.7c1.6-0.2,2.9,1,3.1,2.5c0,0.2,0,0.4,0,0.6v7.5H590.6z"/>
<path class="st1" d="M499.3,94.2c-1.6,0-2.7-0.6-2.7-2.6v-6.8H495v-1.2h1.6V80l1.4-0.2v3.8h2.4l0.2,1.2H498v6.6
	c0,1.1,0.4,1.5,1.5,1.5c0.3,0,0.7,0,1-0.1l0.2,1.2C500.3,94.2,499.8,94.2,499.3,94.2L499.3,94.2z"/>
<path class="st1" d="M510.1,94v-7.2c0-1.3-0.6-2.2-1.9-2.2c-1.3,0.1-2.5,0.8-3.4,1.8v7.5h-1.5V78.5l1.5-0.3v6.9c1-1,2.3-1.6,3.7-1.7
	c1.6-0.2,2.9,1,3.1,2.5c0,0.2,0,0.4,0,0.6V94H510.1z"/>
<path class="st1" d="M518.9,94.3c-2.7,0-4.7-1.8-4.7-5.4c0-3.3,1.9-5.4,4.5-5.4c2.8,0,4.2,2.3,4.2,5.2V89h-7.2
	c0,2.6,1.2,4.1,3.3,4.1c1.4,0,2.7-0.6,3.7-1.5l0.2,1.3C521.8,93.7,520.4,94.3,518.9,94.3z M515.7,87.8h5.7c-0.1-1.9-1-3.2-2.7-3.2
	S516,85.8,515.7,87.8z"/>
<path class="st1" d="M534.3,94.2c-1.4,0-2.8-0.3-4-0.9l0.2-1.5c1.2,0.7,2.5,1.1,3.9,1.1c1.8,0,3.1-1,3.1-2.7c0-1.5-0.8-2.2-3.1-3.3
	c-2.9-1.3-4-2.2-4-4.4c0-2.3,1.8-3.8,4.4-3.8c1.2,0,2.3,0.2,3.3,0.8l-0.2,1.5c-0.9-0.6-2.1-1-3.2-1c-1.3-0.2-2.6,0.8-2.8,2.1
	c0,0.1,0,0.2,0,0.3c0,1.4,0.7,2,3.1,3.1c2.8,1.2,4,2.3,4,4.6C539,92.6,537,94.2,534.3,94.2z"/>
<path class="st1" d="M547,78.8h1.6l5.9,15.1l-1.5,0.3l-2-5.1h-6.6l-1.9,4.9H541L547,78.8z M545,87.8h5.6l-2.8-7.3L545,87.8z"/>
<path class="st1" d="M563,94.3c-4.1,0-6.9-3.2-6.9-7.9s2.8-7.9,7-7.9c1.5,0,3,0.4,4.3,1.3l-0.2,1.5c-1.1-0.9-2.5-1.4-4-1.5
	c-3.3,0-5.4,2.6-5.4,6.5s2.1,6.5,5.4,6.5c1.6,0,3.1-0.6,4.3-1.6l0.2,1.4C566.3,93.8,564.6,94.3,563,94.3L563,94.3z"/>
<path class="st1" d="M483.3,120.7c-2.6,0-4.7-2-4.7-5.4s2.1-5.4,4.8-5.4c1.2,0,2.4,0.4,3.4,1.1l-0.2,1.4c-0.9-0.8-2-1.2-3.2-1.2
	c-2,0-3.2,1.6-3.2,4.2s1.3,4.2,3.4,4.2c1.2,0,2.3-0.4,3.2-1.2l0.2,1.3C485.9,120.3,484.6,120.7,483.3,120.7L483.3,120.7z"/>
<path class="st1" d="M496.5,120.4l-0.2-1.5c-1,1-2.3,1.7-3.7,1.8c-2.1,0-3.1-1.2-3.1-3.2v-7.4h1.5v7.2c0,1.3,0.6,2.1,1.9,2.1
	c1.3-0.1,2.5-0.8,3.4-1.8v-7.5h1.5v10.4h-1.3V120.4z"/>
<path class="st1" d="M502.5,113.9v6.5H501V110h1.1l0.3,2.1c0.8-1.3,2.2-2.2,3.7-2.4l0.2,1.4C504.7,111.4,503.2,112.4,502.5,113.9z"
	/>
<path class="st1" d="M510,113.9v6.5h-1.5V110h1.1l0.3,2.1c0.8-1.3,2.2-2.2,3.7-2.4l0.2,1.4C512.3,111.4,510.8,112.4,510,113.9z"/>
<path class="st1" d="M517,107.5c-0.6,0.1-1.1-0.4-1.2-1c-0.1-0.6,0.4-1.1,1-1.2c0.1,0,0.1,0,0.2,0c0.6,0.1,1,0.6,1,1.2
	C517.9,107.1,517.5,107.5,517,107.5z M516.3,120.4V110h1.4v10.4H516.3z"/>
<path class="st1" d="M525.4,120.7c-2.6,0-4.7-2-4.7-5.4s2.1-5.4,4.8-5.4c1.2,0,2.4,0.4,3.4,1.1l-0.2,1.4c-0.9-0.8-2-1.2-3.2-1.2
	c-2,0-3.2,1.6-3.2,4.2s1.3,4.2,3.4,4.2c1.2,0,2.3-0.4,3.2-1.2l0.2,1.3C527.9,120.3,526.7,120.7,525.4,120.7L525.4,120.7z"/>
<path class="st1" d="M538.6,120.4l-0.2-1.5c-1,1-2.3,1.7-3.7,1.8c-2.1,0-3.1-1.2-3.1-3.2v-7.4h1.5v7.2c0,1.3,0.6,2.1,1.9,2.1
	c1.3-0.1,2.5-0.8,3.4-1.8v-7.5h1.5v10.4h-1.3V120.4z"/>
<path class="st1" d="M543.2,120.4v-15.5l1.4-0.3v15.9L543.2,120.4z"/>
<path class="st1" d="M555.2,120.4l-0.2-1.5c-1,1-2.3,1.7-3.7,1.8c-2.1,0-3.1-1.2-3.1-3.2v-7.4h1.5v7.2c0,1.3,0.6,2.1,1.9,2.1
	c1.3-0.1,2.5-0.8,3.4-1.8v-7.5h1.5v10.4h-1.3V120.4z"/>
<path class="st1" d="M573,120.4v-7.2c0-1.3-0.5-2.2-1.9-2.2c-1.3,0.1-2.5,0.8-3.3,1.8v7.6h-1.4v-7.2c0-1.3-0.5-2.2-1.9-2.2
	c-1.3,0.1-2.5,0.8-3.3,1.8v7.6h-1.4V110h1.1l0.2,1.5c1-1,2.3-1.6,3.7-1.7c1.3-0.2,2.5,0.6,2.9,1.8c1-1.1,2.3-1.7,3.8-1.8
	c2.1,0,3,1.2,3,3.2v7.5H573V120.4z"/>
<path class="st1" d="M577.6,123.4l-0.8-0.2l1.1-4.9h1.8L577.6,123.4z"/>
<path class="st1" d="M487.6,147.1c-2.7,0-4.7-2-4.7-5.4s2-5.4,4.7-5.4s4.7,2,4.7,5.4S490.3,147.1,487.6,147.1z M487.6,137.4
	c-2.1,0-3.2,1.7-3.2,4.2s1.1,4.2,3.2,4.2s3.2-1.7,3.2-4.2S489.7,137.4,487.6,137.4L487.6,137.4z"/>
<path class="st1" d="M501.9,146.8v-7.2c0-1.3-0.6-2.2-1.9-2.2c-1.3,0.1-2.5,0.8-3.4,1.8v7.5h-1.5v-10.4h1.1l0.2,1.5
	c1-1,2.3-1.7,3.7-1.8c2.1,0,3.1,1.2,3.1,3.2v7.4h-1.3V146.8z"/>
<path class="st1" d="M510.7,147.1c-2.7,0-4.7-1.9-4.7-5.4c0-3.3,1.9-5.4,4.5-5.4c2.8,0,4.2,2.3,4.2,5.2v0.3h-7.2
	c0,2.6,1.2,4.1,3.3,4.1c1.4,0,2.7-0.6,3.7-1.5l0.2,1.3C513.5,146.5,512.1,147.1,510.7,147.1L510.7,147.1z M507.5,140.6h5.7
	c-0.1-1.9-1-3.2-2.7-3.2C508.8,137.4,507.8,138.6,507.5,140.6z"/>
<path class="st1" d="M529.6,146.8l-0.3-1.5c-0.8,1.1-2,1.7-3.3,1.7c-2.3,0-4.2-1.6-4.2-5.1c0-3.8,2.2-5.7,4.8-5.7
	c0.9,0,1.9,0.2,2.7,0.5v-5.5l1.5-0.3v15.8h-1.2V146.8z M529.2,138.1c-0.8-0.4-1.7-0.6-2.7-0.6c-1.9,0-3.3,1.4-3.3,4.3
	c0,2.5,1.2,3.9,2.9,3.9c1.3-0.1,2.4-0.8,3.1-1.9V138.1z"/>
<path class="st1" d="M540.4,146.8l-0.2-1.4c-1,1-2.3,1.6-3.7,1.6c-1.8,0-3.1-1-3.1-2.8c0-2.4,2-3.6,6.7-4v-0.7c0-1.4-0.8-2-2.2-2
	c-1.3,0-2.5,0.3-3.6,0.9l-0.2-1.3c1.2-0.6,2.5-0.9,3.9-0.9c2.3,0,3.5,1.1,3.5,3.2v7.4L540.4,146.8z M540.1,141.3
	c-4.1,0.4-5.2,1.4-5.2,2.8c0,0.9,0.7,1.7,1.6,1.7c0.1,0,0.2,0,0.3,0c1.3-0.1,2.5-0.6,3.4-1.6L540.1,141.3L540.1,141.3z"/>
<path class="st1" d="M548.4,148.1c-0.8,2-1.7,2.7-3.2,2.7c-0.2,0-0.4,0-0.6-0.1l-0.2-1.3c0.3,0.1,0.6,0.1,0.9,0.1
	c0.9,0,1.4-0.4,1.8-1.4l0.5-1.2l-3.9-10.3l1.4-0.3l3.2,8.9l3.1-8.7h1.5L548.4,148.1z"/>
<path class="st1" d="M566.5,146.8l-0.2-1.4c-1,1-2.3,1.6-3.7,1.6c-1.8,0-3.1-1-3.1-2.8c0-2.4,2-3.6,6.7-4v-0.7c0-1.4-0.8-2-2.2-2
	c-1.3,0-2.5,0.3-3.6,0.9l-0.2-1.3c1.2-0.6,2.5-0.9,3.9-0.9c2.3,0,3.5,1.1,3.5,3.2v7.4L566.5,146.8z M566.2,141.3
	c-4.1,0.4-5.2,1.4-5.2,2.8c0,0.9,0.7,1.7,1.6,1.7c0.1,0,0.2,0,0.3,0c1.3-0.1,2.5-0.6,3.4-1.6L566.2,141.3L566.2,141.3z"/>
<path class="st1" d="M574.1,147c-1.6,0-2.7-0.6-2.7-2.6v-6.8h-1.6v-1.2h1.6v-3.6l1.4-0.2v3.9h2.4l0.2,1.2h-2.6v6.6
	c0,1.1,0.4,1.5,1.5,1.5c0.3,0,0.7,0,1-0.1l0.2,1.2C575.1,147,574.6,147,574.1,147L574.1,147z"/>
<path class="st1" d="M508.8,173.2l-0.2-1.4c-1,1-2.3,1.6-3.7,1.6c-1.8,0-3.1-1-3.1-2.8c0-2.4,2-3.6,6.7-4v-0.7c0-1.4-0.8-2-2.2-2
	c-1.3,0-2.5,0.3-3.6,0.9l-0.2-1.3c1.2-0.6,2.5-0.9,3.9-0.9c2.3,0,3.5,1.1,3.5,3.2v7.4H508.8z M508.5,167.7c-4.1,0.4-5.2,1.4-5.2,2.8
	c0,0.9,0.7,1.7,1.6,1.7c0.1,0,0.2,0,0.3,0c1.3-0.1,2.5-0.6,3.4-1.6L508.5,167.7L508.5,167.7z"/>
<path class="st1" d="M521.4,173.4c-1.6,0-2.7-0.6-2.7-2.6V164h-1.6v-1.2h1.6v-3.6l1.4-0.2v3.9h2.4l0.2,1.2h-2.6v6.6
	c0,1.1,0.4,1.5,1.5,1.5c0.3,0,0.7,0,1-0.1l0.2,1.2C522.4,173.4,521.9,173.4,521.4,173.4z"/>
<path class="st1" d="M526.3,160.4c-0.6,0.1-1.1-0.4-1.2-1c-0.1-0.6,0.4-1.1,1-1.2c0.1,0,0.1,0,0.2,0c0.6,0.1,1,0.6,1,1.2
	C527.2,159.9,526.8,160.3,526.3,160.4z M525.6,173.2v-10.4h1.4v10.4H525.6z"/>
<path class="st1" d="M543.8,173.2V166c0-1.3-0.5-2.2-1.9-2.2c-1.3,0.1-2.5,0.8-3.3,1.8v7.6h-1.4V166c0-1.3-0.5-2.2-1.9-2.2
	c-1.3,0.1-2.5,0.8-3.3,1.8v7.6h-1.5v-10.4h1.1l0.2,1.5c1-1,2.3-1.6,3.7-1.7c1.3-0.2,2.5,0.6,2.9,1.8c1-1.1,2.3-1.7,3.8-1.8
	c2.1,0,3,1.2,3,3.2v7.5h-1.4V173.2z"/>
<path class="st1" d="M552.6,173.5c-2.7,0-4.7-1.9-4.7-5.4c0-3.3,1.9-5.4,4.5-5.4c2.8,0,4.2,2.3,4.2,5.2v0.3h-7.2
	c0,2.6,1.2,4.1,3.3,4.1c1.4,0,2.7-0.6,3.7-1.5l0.2,1.3C555.5,173,554.1,173.5,552.6,173.5L552.6,173.5z M549.4,167h5.7
	c-0.1-1.9-1-3.2-2.7-3.2S549.7,165,549.4,167L549.4,167z"/>
<path class="st0" d="M623.3,3.9h119.4c6.6,0,12,5.4,12,12v172.4c0,6.6-5.4,12-12,12H623.3c-6.6,0-12-5.4-12-12V15.9
	C611.3,9.2,616.6,3.9,623.3,3.9z"/>
<path class="st1" d="M656,35.7h-1.3v5.6h-2.9V26.1h4.4c3.5,0,5.6,1.6,5.6,4.7C661.8,34,659.5,35.7,656,35.7z M656.1,28.4h-1.4v4.9
	h1.3c1.9,0,3-0.8,3-2.5C659,29.2,658,28.4,656.1,28.4z"/>
<path class="st1" d="M669.3,41.2l-0.2-1.4c-0.9,1-2.2,1.6-3.5,1.7c-1.5,0.1-2.9-1-3-2.5c0-0.1,0-0.3,0-0.4c0-2.6,2.1-3.7,6.4-4.1
	v-0.3c0-1.1-0.7-1.6-1.8-1.6c-1.2,0-2.4,0.3-3.5,0.9l-0.3-2.1c1.3-0.6,2.8-0.9,4.2-0.9c2.8,0,4.1,1,4.1,3.6v7.3L669.3,41.2z
	 M669,35.9c-3.1,0.4-3.8,1.3-3.8,2.3c0,0.6,0.4,1.2,1.1,1.2c0.1,0,0.1,0,0.2,0c0.9,0,1.8-0.4,2.5-1.1V35.9z"/>
<path class="st1" d="M676.8,35.2v6.1h-2.6V30.6h2.2l0.3,2.1c0.6-1.3,1.9-2.2,3.4-2.3l0.4,2.6C679.1,33.1,677.7,33.9,676.8,35.2
	L676.8,35.2z"/>
<path class="st1" d="M686.5,41.4c-2.1,0-3.5-0.8-3.5-3.2v-5.5h-1.5v-2.2h1.5v-3.4l2.6-0.4v3.8h2.2l0.3,2.2h-2.5v5
	c0,0.9,0.4,1.3,1.4,1.3c0.3,0,0.6,0,0.8-0.1l0.3,2.2C687.7,41.3,687.1,41.4,686.5,41.4z"/>
<path class="st1" d="M698.9,41.5c-1.6,0-3.1-0.3-4.5-1.1l0.4-2.5c1.2,0.8,2.6,1.2,4.1,1.2c1.7,0,3-0.9,3-2.6c0-1.5-1-2.4-2.7-2.4
	c-0.8,0-1.6,0.1-2.3,0.4l-1.9-0.4l0.5-7.8h8.3l0.4,2.4h-6.5l-0.3,3.5c0.7-0.2,1.5-0.3,2.2-0.3c3,0,4.9,1.7,4.9,4.5
	C704.6,39.7,702.2,41.5,698.9,41.5z"/>
<path class="st1" d="M706.8,33.8v-3.2h2.9v3.2H706.8z M706.8,41.2V38h2.9v3.2H706.8z"/>
<path class="st1" d="M658.4,67.9c-4,0-6.8-3.2-6.8-7.9s2.8-7.9,6.9-7.9s6.8,3.2,6.8,7.8S662.5,67.9,658.4,67.9z M658.4,53.5
	c-3.2,0-5.3,2.6-5.3,6.5s2.1,6.5,5.3,6.5s5.3-2.6,5.3-6.5S661.6,53.5,658.4,53.5L658.4,53.5z"/>
<path class="st1" d="M675.1,67.6v-7.1c0-1.3-0.6-2.2-1.9-2.2c-1.3,0.1-2.5,0.8-3.4,1.8v7.5h-1.5V57.2h1.1l0.2,1.5
	c1-1,2.3-1.7,3.7-1.8c2.1,0,3.1,1.2,3.1,3.2v7.4h-1.3V67.6z"/>
<path class="st1" d="M680,67.6V52.1l1.4-0.3v15.8H680z"/>
<path class="st1" d="M685.8,54.7c-0.6-0.1-1-0.6-1-1.2c0-0.5,0.4-0.9,1-1c0.6,0.1,1,0.6,1,1.2C686.7,54.3,686.3,54.7,685.8,54.7z
	 M685.1,67.6V57.2h1.4v10.4H685.1z"/>
<path class="st1" d="M696.8,67.6v-7.1c0-1.3-0.6-2.2-1.9-2.2c-1.3,0.1-2.5,0.8-3.4,1.8v7.5H690V57.2h1.1l0.2,1.5
	c1-1,2.3-1.7,3.7-1.8c2.1,0,3.1,1.2,3.1,3.2v7.4h-1.3V67.6z"/>
<path class="st1" d="M705.6,67.9c-2.7,0-4.7-1.8-4.7-5.4c0-3.3,1.9-5.4,4.5-5.4c2.8,0,4.2,2.3,4.2,5.2v0.2h-7.2
	c0,2.6,1.2,4.1,3.3,4.1c1.4,0,2.7-0.6,3.7-1.5l0.2,1.3C708.5,67.3,707.1,67.9,705.6,67.9z M702.5,61.4h5.7c-0.1-1.9-1-3.2-2.7-3.2
	S702.7,59.4,702.5,61.4z"/>
<path class="st1" d="M643.5,94.2c-1.3,0-2.6-0.3-3.7-0.9l0.2-1.4c1.1,0.7,2.3,1.1,3.6,1.1c1.5,0,2.3-0.6,2.3-1.7s-0.6-1.5-2.7-2
	c-2.3-0.6-3.3-1.3-3.3-3.1s1.4-2.8,3.5-2.8c1.1,0,2.2,0.2,3.2,0.7l-0.2,1.4c-0.9-0.5-1.9-0.8-3-0.8c-1.4,0-2.1,0.6-2.1,1.5
	s0.6,1.3,2.3,1.8c2.5,0.7,3.7,1.4,3.7,3.3S645.8,94.2,643.5,94.2L643.5,94.2z"/>
<path class="st1" d="M657,94l-0.2-1.5c-1,1-2.3,1.7-3.7,1.8c-2.1,0-3.1-1.2-3.1-3.2v-7.4h1.5v7.2c0,1.3,0.6,2.1,1.9,2.1
	c1.3-0.1,2.5-0.8,3.4-1.8v-7.5h1.5v10.4L657,94z"/>
<path class="st1" d="M663,87.5V94h-1.5V83.6h1.1l0.3,2.1c0.8-1.3,2.2-2.2,3.7-2.3l0.2,1.4C665.2,85,663.8,86,663,87.5z"/>
<path class="st1" d="M673.3,94.1h-1.4l-3.8-10.4l1.4-0.3l3.1,8.8l3-8.7h1.5L673.3,94.1z"/>
<path class="st1" d="M683.2,94.3c-2.7,0-4.7-1.8-4.7-5.4c0-3.3,1.9-5.4,4.5-5.4c2.8,0,4.2,2.3,4.2,5.2V89H680c0,2.6,1.2,4.1,3.3,4.1
	c1.4,0,2.7-0.6,3.7-1.5l0.2,1.3C686,93.7,684.6,94.3,683.2,94.3z M680,87.8h5.7c-0.1-1.9-1-3.2-2.7-3.2S680.3,85.8,680,87.8z"/>
<path class="st1" d="M693.5,95.3c-0.8,2-1.7,2.7-3.2,2.7c-0.2,0-0.4,0-0.6-0.1l-0.2-1.3c0.3,0.1,0.6,0.1,0.9,0.1
	c0.9,0,1.4-0.4,1.8-1.4l0.5-1.2l-3.9-10.3l1.4-0.3l3.2,8.9l3.1-8.7h1.5L693.5,95.3z"/>
<path class="st1" d="M708.4,94.2c-1.6,0-2.7-0.6-2.7-2.6v-6.8h-1.6v-1.2h1.6V80l1.4-0.2v3.8h2.4l0.2,1.2h-2.6v6.6
	c0,1.1,0.4,1.5,1.5,1.5c0.3,0,0.7,0,1-0.1l0.2,1.2C709.4,94.2,708.9,94.2,708.4,94.2L708.4,94.2z"/>
<path class="st1" d="M716.4,94.3c-2.7,0-4.7-2-4.7-5.4s2-5.4,4.7-5.4s4.7,2,4.7,5.4S719.1,94.3,716.4,94.3z M716.4,84.6
	c-2.1,0-3.2,1.7-3.2,4.2s1.1,4.2,3.2,4.2s3.2-1.7,3.2-4.2S718.5,84.6,716.4,84.6L716.4,84.6z"/>
<path class="st1" d="M656.1,120.7c-2.6,0-4.7-2-4.7-5.4s2.1-5.4,4.8-5.4c1.2,0,2.4,0.4,3.4,1.1l-0.2,1.4c-0.9-0.8-2-1.2-3.2-1.2
	c-2,0-3.2,1.6-3.2,4.2s1.3,4.2,3.4,4.2c1.2,0,2.3-0.4,3.2-1.2l0.2,1.3C658.7,120.3,657.4,120.7,656.1,120.7L656.1,120.7z"/>
<path class="st1" d="M666.1,120.7c-2.7,0-4.7-2-4.7-5.4s2-5.4,4.7-5.4s4.7,2,4.7,5.4S668.8,120.7,666.1,120.7z M666.1,111
	c-2.1,0-3.2,1.7-3.2,4.2s1.1,4.2,3.2,4.2s3.2-1.7,3.2-4.2S668.2,111.1,666.1,111L666.1,111z"/>
<path class="st1" d="M673.8,120.4v-15.5l1.4-0.3v15.9L673.8,120.4z"/>
<path class="st1" d="M678.9,120.4v-15.5l1.4-0.3v15.9L678.9,120.4z"/>
<path class="st1" d="M688,120.7c-2.7,0-4.7-1.9-4.7-5.4c0-3.3,1.9-5.4,4.5-5.4c2.8,0,4.2,2.3,4.2,5.2v0.3h-7.2
	c0,2.6,1.2,4.1,3.3,4.1c1.4,0,2.7-0.6,3.7-1.5l0.2,1.3C690.8,120.1,689.4,120.7,688,120.7L688,120.7z M684.8,114.2h5.7
	c-0.1-1.9-1-3.2-2.7-3.2S685.1,112.2,684.8,114.2z"/>
<path class="st1" d="M698.8,120.7c-2.6,0-4.7-2-4.7-5.4s2.1-5.4,4.8-5.4c1.2,0,2.4,0.4,3.4,1.1l-0.2,1.4c-0.9-0.8-2-1.2-3.2-1.2
	c-2,0-3.2,1.6-3.2,4.2s1.3,4.2,3.4,4.2c1.2,0,2.3-0.4,3.2-1.2l0.2,1.3C701.3,120.3,700.1,120.7,698.8,120.7L698.8,120.7z"/>
<path class="st1" d="M708.2,120.6c-1.6,0-2.7-0.6-2.7-2.6v-6.8h-1.6V110h1.6v-3.6l1.4-0.2v3.9h2.4l0.2,1.2h-2.6v6.6
	c0,1.1,0.4,1.5,1.5,1.5c0.3,0,0.7,0,1-0.1l0.2,1.2C709.2,120.6,708.7,120.6,708.2,120.6z"/>
<path class="st1" d="M630.5,132.4c-0.8-0.1-1.5,0.4-1.6,1.2c0,0.1,0,0.3,0,0.4v2.4h2.1l0.2,1.2h-2.3v9.2h-1.4v-9.2h-1.6v-1.2h1.6
	v-2.5c0-1.9,1.1-2.8,2.9-2.8c0.2,0,0.5,0,0.8,0l0.2,1.3C631.1,132.4,630.8,132.4,630.5,132.4L630.5,132.4z"/>
<path class="st1" d="M637.3,147.1c-2.7,0-4.7-1.9-4.7-5.4c0-3.3,1.9-5.4,4.5-5.4c2.8,0,4.2,2.3,4.2,5.2v0.3h-7.2
	c0,2.6,1.2,4.1,3.3,4.1c1.4,0,2.7-0.6,3.7-1.5l0.2,1.3C640.2,146.5,638.7,147.1,637.3,147.1L637.3,147.1z M634.1,140.6h5.7
	c-0.1-1.9-1-3.2-2.7-3.2S634.4,138.6,634.1,140.6z"/>
<path class="st1" d="M648.1,147.1c-2.7,0-4.7-1.9-4.7-5.4c0-3.3,1.9-5.4,4.5-5.4c2.8,0,4.2,2.3,4.2,5.2v0.3h-7.3
	c0,2.6,1.2,4.1,3.3,4.1c1.4,0,2.7-0.6,3.7-1.5l0.2,1.3C651,146.5,649.5,147.1,648.1,147.1L648.1,147.1z M644.9,140.6h5.7
	c-0.1-1.9-1-3.2-2.7-3.2S645.2,138.6,644.9,140.6z"/>
<path class="st1" d="M662,146.8l-0.3-1.5c-0.8,1.1-2,1.7-3.3,1.7c-2.3,0-4.2-1.6-4.2-5.1c0-3.8,2.2-5.7,4.8-5.7
	c0.9,0,1.9,0.2,2.7,0.5v-5.5l1.5-0.3v15.8H662V146.8z M661.7,138.1c-0.8-0.4-1.7-0.6-2.7-0.6c-1.9,0-3.3,1.4-3.3,4.3
	c0,2.5,1.2,3.9,2.9,3.9c1.3-0.1,2.4-0.8,3.1-1.9V138.1z"/>
<path class="st1" d="M670.3,147c-1.3,0-2.6-0.2-3.8-0.7v-15l1.5-0.3v6.8c0.8-1,2-1.5,3.2-1.6c2.3,0,4.2,1.6,4.2,5.1
	C675.4,145.2,673.2,147,670.3,147L670.3,147z M671,137.5c-1.2,0.1-2.4,0.8-3.1,1.8v6c0.8,0.3,1.6,0.4,2.4,0.4c2.1,0,3.5-1.3,3.5-4.3
	C673.9,138.9,672.7,137.5,671,137.5L671,137.5z"/>
<path class="st1" d="M684.5,146.8l-0.2-1.4c-1,1-2.3,1.6-3.7,1.6c-1.8,0-3.1-1-3.1-2.8c0-2.4,2-3.6,6.7-4v-0.7c0-1.4-0.8-2-2.2-2
	c-1.3,0-2.5,0.3-3.6,0.9l-0.2-1.3c1.2-0.6,2.5-0.9,3.9-0.9c2.3,0,3.5,1.1,3.5,3.2v7.4L684.5,146.8z M684.2,141.3
	c-4.1,0.4-5.2,1.4-5.2,2.8c0,0.9,0.7,1.7,1.6,1.7c0.1,0,0.2,0,0.3,0c1.3-0.1,2.5-0.6,3.4-1.6L684.2,141.3L684.2,141.3z"/>
<path class="st1" d="M693,147.1c-2.6,0-4.7-2-4.7-5.4s2.1-5.4,4.8-5.4c1.2,0,2.4,0.4,3.4,1.1l-0.2,1.4c-0.9-0.8-2-1.2-3.2-1.2
	c-2,0-3.2,1.6-3.2,4.2s1.3,4.2,3.4,4.2c1.2,0,2.3-0.4,3.2-1.2l0.2,1.3C695.5,146.7,694.3,147.1,693,147.1L693,147.1z"/>
<path class="st1" d="M705.8,147l-5.2-5.7v5.5h-1.4v-15.5l1.5-0.3v9.9l4.5-4.5h1.8l-4.8,4.6l5.2,5.6L705.8,147z"/>
<path class="st1" d="M718.5,147.1c-2.7,0-4.7-2-4.7-5.4s2-5.4,4.7-5.4s4.7,2,4.7,5.4S721.1,147.1,718.5,147.1z M718.5,137.4
	c-2.1,0-3.2,1.7-3.2,4.2s1.1,4.2,3.2,4.2s3.2-1.7,3.2-4.2S720.5,137.4,718.5,137.4L718.5,137.4z"/>
<path class="st1" d="M732.7,146.8v-7.2c0-1.3-0.6-2.2-1.9-2.2c-1.3,0.1-2.5,0.8-3.4,1.8v7.5h-1.5v-10.4h1.1l0.2,1.5
	c1-1,2.3-1.7,3.7-1.8c2.1,0,3.1,1.2,3.1,3.2v7.4h-1.3V146.8z"/>
<path class="st1" d="M640.1,173.4c-1.6,0-2.7-0.6-2.7-2.6V164h-1.6v-1.2h1.6v-3.6l1.4-0.2v3.9h2.4l0.2,1.2h-2.6v6.6
	c0,1.1,0.4,1.5,1.5,1.5c0.3,0,0.7,0,1-0.1l0.2,1.2C641.1,173.4,640.6,173.4,640.1,173.4z"/>
<path class="st1" d="M650.9,173.2V166c0-1.3-0.6-2.2-1.9-2.2c-1.3,0.1-2.5,0.8-3.4,1.8v7.5h-1.5v-15.5l1.5-0.3v6.9
	c1-1,2.3-1.6,3.7-1.7c1.6-0.2,2.9,1,3.1,2.5c0,0.2,0,0.4,0,0.6v7.5L650.9,173.2z"/>
<path class="st1" d="M659.7,173.5c-2.7,0-4.7-1.9-4.7-5.4c0-3.3,1.9-5.4,4.5-5.4c2.8,0,4.2,2.3,4.2,5.2v0.3h-7.2
	c0,2.6,1.2,4.1,3.3,4.1c1.4,0,2.7-0.6,3.7-1.5l0.2,1.3C662.6,173,661.2,173.5,659.7,173.5L659.7,173.5z M656.6,167h5.7
	c-0.1-1.9-1-3.2-2.7-3.2S656.8,165,656.6,167L656.6,167z"/>
<path class="st1" d="M675.6,173.5c-2.6,0-4.7-2-4.7-5.4s2.1-5.4,4.8-5.4c1.2,0,2.4,0.4,3.4,1.1l-0.2,1.4c-0.9-0.8-2-1.2-3.2-1.2
	c-2,0-3.2,1.6-3.2,4.2s1.3,4.2,3.4,4.2c1.2,0,2.3-0.4,3.2-1.2l0.2,1.3C678.1,173.1,676.8,173.5,675.6,173.5L675.6,173.5z"/>
<path class="st1" d="M685.6,173.5c-2.7,0-4.7-2-4.7-5.4s2-5.4,4.7-5.4s4.7,2,4.7,5.4S688.2,173.5,685.6,173.5z M685.6,163.9
	c-2.1,0-3.2,1.7-3.2,4.2s1.1,4.2,3.2,4.2s3.2-1.8,3.2-4.2S687.7,163.8,685.6,163.9L685.6,163.9z"/>
<path class="st1" d="M700.1,173.2l-0.3-1.5c-1,1-2.3,1.7-3.7,1.8c-2.1,0-3.1-1.2-3.1-3.2v-7.4h1.5v7.2c0,1.3,0.6,2.1,1.9,2.1
	c1.3-0.1,2.5-0.8,3.4-1.8v-7.5h1.5v10.4h-1.2V173.2z"/>
<path class="st1" d="M706,166.7v6.5h-1.5v-10.4h1.1l0.3,2.1c0.8-1.3,2.2-2.2,3.7-2.4l0.2,1.4C708.2,164.2,706.8,165.2,706,166.7z"/>
<path class="st1" d="M715,173.4c-1.3,0-2.6-0.3-3.7-0.9l0.2-1.4c1.1,0.7,2.3,1.1,3.6,1.1c1.5,0,2.3-0.6,2.3-1.7s-0.6-1.5-2.7-2
	c-2.3-0.6-3.3-1.3-3.3-3.1s1.4-2.8,3.5-2.8c1.1,0,2.2,0.2,3.2,0.7l-0.2,1.4c-0.9-0.5-1.9-0.8-3-0.8c-1.4,0-2.1,0.6-2.1,1.5
	s0.6,1.3,2.3,1.8c2.5,0.7,3.7,1.4,3.7,3.3S717.4,173.4,715,173.4L715,173.4z"/>
<path class="st1" d="M725.6,173.5c-2.7,0-4.7-1.9-4.7-5.4c0-3.3,1.9-5.4,4.5-5.4c2.8,0,4.2,2.3,4.2,5.2v0.3h-7.2
	c0,2.6,1.2,4.1,3.3,4.1c1.4,0,2.7-0.6,3.7-1.5l0.2,1.3C728.5,173,727.1,173.5,725.6,173.5L725.6,173.5z M722.5,167h5.7
	c-0.1-1.9-1-3.2-2.7-3.2S722.7,165,722.5,167L722.5,167z"/>
</svg>
