<svg viewBox="0 0 760.32 325.85" xmlns="http://www.w3.org/2000/svg"><rect fill="#ddd" height="218.93" rx="12" width="143.39" x="26.2" y="55.35"/><path d="m85.55 117.48a17.77 17.77 0 0 1 -6-11.2 1 1 0 0 1 -.62.22c-.82 0-1.92-1.22-3.11-5.79-1.5-5.75-.09-6.88 1.27-6.87a1.64 1.64 0 0 1 .64.08v-.13s-4-13.43 5.66-19.33a4.42 4.42 0 0 1 -1.57-3.36s4.44.5 8.69.51a27.51 27.51 0 0 0 5.25-.39 7.46 7.46 0 0 1 1.71-.15c4 .1 7.82 3.21 8.49 6.22h.17c1.26 0 9.19.6 5.39 16.56v.06a3 3 0 0 1 .57-.07c1.36 0 2.78 1.11 1.28 6.87-1.2 4.6-2.31 5.79-3.13 5.79a1.1 1.1 0 0 1 -.72-.32 17.9 17.9 0 0 1 -5.85 11.16c-9.31 7.12-18.12.14-18.12.14zm37.3 10.3a54.31 54.31 0 0 1 -15.85-7.24l-6.59 20.85-.9 2.83-3-8.37c7.4-10.33-2-9.92-2-9.92s-9.36-.4-2 9.92l-2.93 8.3-.91-2.8-1-3.3-5.55-17.55a54.28 54.28 0 0 1 -15.87 7.23c-6.52 1.66-6.84 9.19-6.58 12.92 0 0-.07 5.18.76 7.28 0 0 12.75 8.28 34.09 8.28v-.48.48a79.94 79.94 0 0 0 10.23-.65 17.67 17.67 0 0 1 24.53-19.56c-.5-3.43-2.09-7.13-6.43-8.23zm13.28 24.42a14 14 0 1 1 -14-14 14 14 0 0 1 14 14zm-5.31-2h-6.62v-6.61h-4.06v6.61h-6.61v4.06h6.61v6.61h4.06v-6.61h6.61z" fill="#2b2b7a"/><path d="m76.28 180.06h3.1l5.62 14.88-2.9.53-1.45-4h-5.82l-1.36 3.85h-2.89zm-.66 9h4.16l-2.07-5.87z" fill="#2b2b7a"/><path d="m91.86 195.42a6.92 6.92 0 0 1 -2.46-.42v4l-2.64.4v-14.72h2.24l.24 1.45a4.28 4.28 0 0 1 3.26-1.67c2.22 0 4 1.67 4 5.24 0 3.96-2.2 5.72-4.64 5.72zm-.07-8.63a3.14 3.14 0 0 0 -2.4 1.5v4.55a4.13 4.13 0 0 0 2 .46c1.36 0 2.4-1.12 2.4-3.46.05-2.03-.79-3.04-2-3.04z" fill="#2b2b7a"/><path d="m103.76 195.42a6.92 6.92 0 0 1 -2.46-.42v4l-2.64.4v-14.72h2.24l.24 1.45a4.28 4.28 0 0 1 3.26-1.67c2.22 0 4 1.67 4 5.24 0 3.96-2.2 5.72-4.64 5.72zm-.07-8.63a3.14 3.14 0 0 0 -2.4 1.5v4.55a4.13 4.13 0 0 0 2 .46c1.36 0 2.4-1.12 2.4-3.46.05-2.03-.81-3.04-2-3.04z" fill="#2b2b7a"/><path d="m110.67 195.31v-15.47l2.64-.42v15.89z" fill="#2b2b7a"/><path d="m121.32 195.88c-.95 2.62-2.16 3.43-4.2 3.43a3.41 3.41 0 0 1 -1-.11l-.35-2.18a4.77 4.77 0 0 0 1.23.15 1.75 1.75 0 0 0 1.72-1.12l.24-.7-3.85-10.47 2.75-.35 2.46 7.57 2.38-7.42h2.62z" fill="#2b2b7a"/><path d="m74.13 221.89c-2.09 0-3.5-.77-3.5-3.19v-5.46h-1.5v-2.16h1.5v-3.37l2.6-.4v3.76h2.17l.33 2.16h-2.51v5c0 .86.4 1.32 1.41 1.32a3.23 3.23 0 0 0 .84-.09l.33 2.22a7.44 7.44 0 0 1 -1.67.21z" fill="#2b2b7a"/><path d="m82.11 221.93c-2.88 0-5-2.07-5-5.52s2.11-5.54 5-5.54 5 2.09 5 5.54-2.11 5.52-5 5.52zm0-8.89c-1.56 0-2.4 1.39-2.4 3.37s.86 3.37 2.4 3.37 2.46-1.39 2.46-3.37-.87-3.41-2.46-3.41z" fill="#2b2b7a"/><path d="m93.46 225.72a4.2 4.2 0 0 1 -1-.09l-.33-2.16a3.24 3.24 0 0 0 .84.09c.73 0 1.17-.33 1.17-1.25v-11.23h2.64v11.44c-.04 2.3-1.36 3.2-3.32 3.2zm2-16.42a1.5 1.5 0 0 1 -1.58-1.5 1.57 1.57 0 0 1 3.15 0 1.5 1.5 0 0 1 -1.59 1.5z" fill="#2b2b7a"/><path d="m104 221.93c-2.88 0-5-2.07-5-5.52s2.11-5.54 5-5.54 5 2.09 5 5.54-2.12 5.52-5 5.52zm0-8.89c-1.56 0-2.4 1.39-2.4 3.37s.86 3.37 2.4 3.37 2.46-1.39 2.46-3.37-.9-3.41-2.46-3.41z" fill="#2b2b7a"/><path d="m112.6 209.3a1.5 1.5 0 0 1 -1.58-1.5 1.57 1.57 0 0 1 3.15 0 1.5 1.5 0 0 1 -1.57 1.5zm-1.34 12.41v-10.63h2.64v10.63z" fill="#2b2b7a"/><path d="m123.12 221.71v-7c0-.92-.4-1.56-1.36-1.56a3.54 3.54 0 0 0 -2.42 1.34v7.17h-2.64v-10.58h2.24l.24 1.5a5.15 5.15 0 0 1 3.54-1.72c2 0 3 1.21 3 3.19v7.66z" fill="#2b2b7a"/><path d="m64.68 248.22a6.92 6.92 0 0 1 -2.46-.42v4l-2.64.4v-14.72h2.24l.24 1.45a4.28 4.28 0 0 1 3.26-1.67c2.22 0 4 1.67 4 5.24 0 3.96-2.2 5.72-4.64 5.72zm-.07-8.63a3.14 3.14 0 0 0 -2.4 1.5v4.55a4.15 4.15 0 0 0 2 .46c1.36 0 2.4-1.12 2.4-3.46.05-2.03-.81-3.04-2-3.04z" fill="#2b2b7a"/><path d="m74.12 242v6.09h-2.65v-10.61h2.24l.33 2.13a4.15 4.15 0 0 1 3.41-2.35l.42 2.62a4.88 4.88 0 0 0 -3.75 2.12z" fill="#2b2b7a"/><path d="m83.69 248.33c-2.88 0-5-2.07-5-5.52s2.11-5.54 5-5.54 5 2.09 5 5.54-2.1 5.52-5 5.52zm0-8.89c-1.56 0-2.4 1.39-2.4 3.37s.86 3.37 2.4 3.37 2.46-1.39 2.46-3.37-.88-3.37-2.46-3.37z" fill="#2b2b7a"/><path d="m94.8 252.12c-2.88 0-5.06-.88-5.06-2.64 0-1 .68-1.76 2-2.49a1.45 1.45 0 0 1 -.62-1.17c0-.59.46-1.17 1.34-1.67a3.35 3.35 0 0 1 -2-3.12c0-2.31 1.89-3.76 4.27-3.76a4.64 4.64 0 0 1 3 1l2.6-.92.35 2.11-1.94.13a3.62 3.62 0 0 1 .26 1.41c0 2.29-2 3.65-4.25 3.65a5.5 5.5 0 0 1 -.88 0c-.26.18-.42.37-.42.55 0 .35.33.44 2 .68l1.36.13c2.18.31 3.54 1 3.54 2.62.03 2.21-2.47 3.49-5.55 3.49zm-1.65-4.51c-.77.53-1.12 1-1.12 1.58 0 .79.95 1.36 2.95 1.36s3-.64 3-1.43c0-.57-.46-.9-1.78-1.1l-1.43-.18a15.87 15.87 0 0 1 -1.63-.23zm1.6-8.61a1.87 1.87 0 0 0 -1.85 2 1.8 1.8 0 0 0 1.85 2 1.84 1.84 0 0 0 1.87-2 1.86 1.86 0 0 0 -1.87-2z" fill="#2b2b7a"/><path d="m104.91 242v6.09h-2.64v-10.61h2.24l.33 2.13a4.15 4.15 0 0 1 3.41-2.35l.42 2.62a4.88 4.88 0 0 0 -3.76 2.12z" fill="#2b2b7a"/><path d="m116.14 248.11-.22-1.39a4.7 4.7 0 0 1 -3.54 1.61 2.78 2.78 0 0 1 -3-2.95c0-2.57 2.11-3.7 6.4-4.11v-.27c0-1.14-.66-1.58-1.83-1.58a8.74 8.74 0 0 0 -3.54.86l-.33-2.11a11 11 0 0 1 4.22-.86c2.75 0 4.11 1 4.11 3.56v7.28zm-.37-5.3c-3.06.37-3.78 1.28-3.78 2.29a1.16 1.16 0 0 0 1.3 1.23 3.54 3.54 0 0 0 2.49-1.14z" fill="#2b2b7a"/><path d="m133.63 248.11v-7c0-.92-.33-1.56-1.3-1.56a3.51 3.51 0 0 0 -2.35 1.32v7.2h-2.64v-7c0-.92-.35-1.56-1.32-1.56a3.51 3.51 0 0 0 -2.35 1.32v7.2h-2.67v-10.55h2.24l.24 1.5a5 5 0 0 1 3.5-1.72 2.61 2.61 0 0 1 2.73 1.72 5.06 5.06 0 0 1 3.54-1.72c2 0 3 1.21 3 3.19v7.66z" fill="#2b2b7a"/><rect fill="#ddd" height="218.93" rx="12" width="143.39" x="214.37" y="55.35"/><g fill="#2b2b7a"><path d="m327.2 88.45v38.38a11 11 0 0 1 -11 11h-60.28a11 11 0 0 1 -11-11v-38.38a11 11 0 0 1 11-11h60.31a11 11 0 0 1 10.97 11zm-5.48 38.38v-38.38a5.49 5.49 0 0 0 -5.49-5.45h-60.31a5.49 5.49 0 0 0 -5.48 5.48v38.38a5.49 5.49 0 0 0 5.48 5.48h60.31a5.49 5.49 0 0 0 5.48-5.51z"/><path d="m319 143.28a8.23 8.23 0 1 1 0 16.45h-65.82a8.23 8.23 0 1 1 0-16.45zm2.74 8.22a2.74 2.74 0 0 0 -2.74-2.74h-65.82a2.74 2.74 0 0 0 0 5.48h65.82a2.75 2.75 0 0 0 2.71-2.74z"/><path d="m316.23 93.93v27.42a5.48 5.48 0 0 1 -5.48 5.48h-49.35a5.49 5.49 0 0 1 -5.48-5.48v-27.42a5.49 5.49 0 0 1 5.48-5.48h49.35a5.49 5.49 0 0 1 5.48 5.48z"/><path d="m249.29 195.58c-4.42 0-7.19-3.12-7.19-7.83s2.88-7.88 7.17-7.88a7.92 7.92 0 0 1 4.25 1.1l-.42 2.75a6.09 6.09 0 0 0 -3.7-1.34c-2.68 0-4.33 2-4.33 5.35s1.76 5.32 4.45 5.32a6.94 6.94 0 0 0 3.85-1.28l.4 2.51a8.33 8.33 0 0 1 -4.48 1.3z"/><path d="m260.2 195.53c-2.88 0-5-2.07-5-5.52s2.11-5.54 5-5.54 5 2.09 5 5.54-2.09 5.52-5 5.52zm0-8.89c-1.56 0-2.4 1.39-2.4 3.37s.86 3.37 2.4 3.37 2.46-1.39 2.46-3.37-.87-3.37-2.46-3.37z"/><path d="m280 195.31v-7c0-.92-.33-1.56-1.3-1.56a3.52 3.52 0 0 0 -2.35 1.32v7.2h-2.64v-7c0-.92-.35-1.56-1.32-1.56a3.51 3.51 0 0 0 -2.35 1.32v7.2h-2.64v-10.55h2.24l.24 1.5a5 5 0 0 1 3.5-1.72 2.61 2.61 0 0 1 2.73 1.72 5.06 5.06 0 0 1 3.54-1.72c2 0 3 1.21 3 3.19v7.66z"/><path d="m290.36 195.42a6.92 6.92 0 0 1 -2.46-.42v4l-2.64.4v-14.72h2.24l.24 1.45a4.28 4.28 0 0 1 3.26-1.67c2.22 0 4 1.67 4 5.24 0 3.96-2.2 5.72-4.64 5.72zm-.07-8.63a3.14 3.14 0 0 0 -2.4 1.5v4.55a4.13 4.13 0 0 0 2 .46c1.36 0 2.4-1.12 2.4-3.46.05-2.03-.8-3.04-1.99-3.04z"/><path d="m297.27 195.31v-15.47l2.64-.42v15.89z"/><path d="m307.35 195.53c-3 0-5.19-1.69-5.19-5.52 0-3.45 2.07-5.54 4.84-5.54 3.19 0 4.62 2.4 4.62 5.41v.64h-6.84c.13 2.09 1.25 3 2.88 3a6.19 6.19 0 0 0 3.65-1.32l.31 2.07a7.26 7.26 0 0 1 -4.27 1.26zm-2.55-6.67h4.2c-.18-1.65-.84-2.57-2.11-2.57-1.02 0-1.89.86-2.1 2.57z"/><path d="m317.8 195.49c-2.09 0-3.5-.77-3.5-3.19v-5.46h-1.5v-2.16h1.5v-3.37l2.6-.4v3.76h2.18l.33 2.16h-2.51v5c0 .86.4 1.32 1.41 1.32a3.24 3.24 0 0 0 .84-.09l.33 2.22a7.44 7.44 0 0 1 -1.68.21z"/><path d="m326 195.53c-3 0-5.19-1.69-5.19-5.52 0-3.45 2.07-5.54 4.84-5.54 3.19 0 4.62 2.4 4.62 5.41v.64h-6.84c.13 2.09 1.25 3 2.88 3a6.19 6.19 0 0 0 3.65-1.32l.31 2.07a7.26 7.26 0 0 1 -4.27 1.26zm-2.55-6.67h4.25c-.18-1.65-.84-2.57-2.11-2.57-1.06 0-1.94.86-2.14 2.57z"/><path d="m260.92 221.93c-2.88 0-5-2.07-5-5.52s2.11-5.54 5-5.54 5 2.09 5 5.54-2.1 5.52-5 5.52zm0-8.89c-1.56 0-2.4 1.39-2.4 3.37s.86 3.37 2.4 3.37 2.46-1.39 2.46-3.37-.88-3.41-2.46-3.41z"/><path d="m274.51 221.71v-7c0-.92-.4-1.56-1.36-1.56a3.54 3.54 0 0 0 -2.42 1.34v7.17h-2.64v-10.58h2.24l.24 1.5a5.15 5.15 0 0 1 3.54-1.72c2 0 3 1.21 3 3.19v7.66z"/><path d="m279.9 221.71v-15.47l2.64-.42v15.89z"/><path d="m286.79 209.3a1.5 1.5 0 0 1 -1.58-1.5 1.57 1.57 0 0 1 3.15 0 1.5 1.5 0 0 1 -1.57 1.5zm-1.34 12.41v-10.63h2.64v10.63z"/><path d="m297.3 221.71v-7c0-.92-.4-1.56-1.36-1.56a3.54 3.54 0 0 0 -2.42 1.34v7.17h-2.64v-10.58h2.24l.24 1.5a5.15 5.15 0 0 1 3.54-1.72c2 0 3 1.21 3 3.19v7.66z"/><path d="m307.23 221.93c-3 0-5.19-1.69-5.19-5.52 0-3.45 2.07-5.54 4.84-5.54 3.19 0 4.62 2.4 4.62 5.41v.64h-6.84c.13 2.09 1.25 3 2.88 3a6.19 6.19 0 0 0 3.65-1.32l.31 2.07a7.26 7.26 0 0 1 -4.27 1.26zm-2.55-6.67h4.25c-.18-1.65-.84-2.57-2.11-2.57-1.07 0-1.95.86-2.15 2.58z"/><path d="m255.28 248.29c-2.09 0-3.5-.77-3.5-3.19v-5.46h-1.5v-2.16h1.5v-3.37l2.6-.4v3.76h2.18l.33 2.16h-2.51v5c0 .86.4 1.32 1.41 1.32a3.23 3.23 0 0 0 .84-.09l.33 2.22a7.43 7.43 0 0 1 -1.68.21z"/><path d="m261.58 242v6.09h-2.64v-10.61h2.24l.33 2.13a4.14 4.14 0 0 1 3.41-2.35l.42 2.62a4.88 4.88 0 0 0 -3.76 2.12z"/><path d="m272.8 248.11-.22-1.39a4.7 4.7 0 0 1 -3.54 1.61 2.78 2.78 0 0 1 -3-2.95c0-2.57 2.11-3.7 6.4-4.11v-.27c0-1.14-.66-1.58-1.83-1.58a8.74 8.74 0 0 0 -3.54.86l-.33-2.11a11 11 0 0 1 4.22-.86c2.75 0 4.12 1 4.12 3.56v7.28zm-.37-5.3c-3.06.37-3.78 1.28-3.78 2.29a1.16 1.16 0 0 0 1.3 1.23 3.54 3.54 0 0 0 2.49-1.14z"/><path d="m279.13 235.7a1.51 1.51 0 0 1 -1.58-1.5 1.57 1.57 0 0 1 3.15 0 1.5 1.5 0 0 1 -1.57 1.5zm-1.34 12.41v-10.63h2.64v10.63z"/><path d="m289.65 248.11v-7c0-.92-.4-1.56-1.36-1.56a3.54 3.54 0 0 0 -2.42 1.34v7.17h-2.64v-10.58h2.24l.24 1.5a5.15 5.15 0 0 1 3.54-1.72c2 0 3 1.21 3 3.19v7.66z"/><path d="m296.38 235.7a1.51 1.51 0 0 1 -1.58-1.5 1.57 1.57 0 0 1 3.15 0 1.5 1.5 0 0 1 -1.57 1.5zm-1.38 12.41v-10.63h2.64v10.63z"/><path d="m306.9 248.11v-7c0-.92-.4-1.56-1.36-1.56a3.54 3.54 0 0 0 -2.42 1.34v7.17h-2.64v-10.58h2.24l.28 1.52a5.15 5.15 0 0 1 3.54-1.72c2 0 3 1.21 3 3.19v7.66z"/><path d="m316.11 252.12c-2.88 0-5.06-.88-5.06-2.64 0-1 .68-1.76 2-2.49a1.45 1.45 0 0 1 -.62-1.17c0-.59.46-1.17 1.34-1.67a3.35 3.35 0 0 1 -2-3.12c0-2.31 1.89-3.76 4.27-3.76a4.64 4.64 0 0 1 3 1l2.6-.92.35 2.11-1.94.13a3.63 3.63 0 0 1 .29 1.39c0 2.29-2 3.65-4.25 3.65a5.49 5.49 0 0 1 -.88 0c-.26.18-.42.37-.42.55 0 .35.33.44 2 .68l1.36.13c2.18.31 3.54 1 3.54 2.62.01 2.23-2.5 3.51-5.58 3.51zm-1.65-4.51c-.77.53-1.12 1-1.12 1.58 0 .79.95 1.36 2.95 1.36s3-.64 3-1.43c0-.57-.46-.9-1.78-1.1l-1.43-.18a15.88 15.88 0 0 1 -1.62-.23zm1.61-8.65a1.87 1.87 0 0 0 -1.85 2.07 1.8 1.8 0 0 0 1.85 1.94 1.84 1.84 0 0 0 1.87-2 1.86 1.86 0 0 0 -1.87-1.97z"/></g><rect fill="#ddd" height="218.93" rx="12" width="143.39" x="402.55" y="55.35"/><g fill="#2b2b7a"><path d="m465.64 98.08a7.19 7.19 0 0 0 -7.17-7.17h-1.56a7.19 7.19 0 0 0 -7.17 7.17v5.3h15.89z"/><circle cx="457.69" cy="84.18" r="4.63"/><path d="m486.83 98.08a7.19 7.19 0 0 0 -7.17-7.17h-1.56a7.19 7.19 0 0 0 -7.17 7.17v5.3h15.89z"/><circle cx="478.88" cy="84.18" r="4.63"/><path d="m500.85 90.91h-1.56a7.19 7.19 0 0 0 -7.17 7.17v5.3h15.88v-5.3a7.19 7.19 0 0 0 -7.15-7.17z"/><circle cx="500.07" cy="84.18" r="4.63"/><path d="m477.56 125.88a7.19 7.19 0 0 0 -7.17-7.17h-1.56a7.19 7.19 0 0 0 -7.17 7.17v5.3h15.89z"/><circle cx="469.61" cy="111.99" r="4.63"/><path d="m491.58 118.72h-1.58a7.19 7.19 0 0 0 -7.17 7.17v5.3h15.89v-5.3a7.19 7.19 0 0 0 -7.14-7.17z"/><circle cx="490.8" cy="111.99" r="4.63"/><path d="m456.37 125.88a7.19 7.19 0 0 0 -7.17-7.17h-1.56a7.19 7.19 0 0 0 -7.17 7.17v5.3h15.89z"/><circle cx="448.43" cy="111.99" r="4.63"/><path d="m479.66 145.2h-1.56a7.19 7.19 0 0 0 -7.17 7.17v5.3h15.89v-5.3a7.19 7.19 0 0 0 -7.16-7.17z"/><circle cx="478.88" cy="138.47" r="4.63"/><path d="m500.85 145.2h-1.56a7.19 7.19 0 0 0 -7.17 7.17v5.3h15.88v-5.3a7.19 7.19 0 0 0 -7.15-7.17z"/><circle cx="500.07" cy="138.47" r="4.63"/><path d="m458.47 145.2h-1.56a7.19 7.19 0 0 0 -7.17 7.17v5.3h15.89v-5.3a7.19 7.19 0 0 0 -7.16-7.17z"/><circle cx="457.69" cy="138.47" r="4.63"/><path d="m445.69 180.06h3.1l5.57 14.87-2.9.53-1.45-4h-5.77l-1.36 3.85h-2.88zm-.66 9h4.16l-2.07-5.87z"/><path d="m459.68 195.49c-2.09 0-3.5-.77-3.5-3.19v-5.46h-1.5v-2.16h1.5v-3.37l2.6-.4v3.76h2.22l.33 2.16h-2.51v5c0 .86.4 1.32 1.41 1.32a3.24 3.24 0 0 0 .84-.09l.33 2.22a7.44 7.44 0 0 1 -1.72.21z"/><path d="m467.38 195.49c-2.09 0-3.5-.77-3.5-3.19v-5.46h-1.5v-2.16h1.5v-3.37l2.6-.4v3.76h2.18l.33 2.16h-2.51v5c0 .86.4 1.32 1.41 1.32a3.23 3.23 0 0 0 .84-.09l.33 2.22a7.44 7.44 0 0 1 -1.68.21z"/><path d="m475.59 195.53c-3 0-5.19-1.69-5.19-5.52 0-3.45 2.07-5.54 4.84-5.54 3.19 0 4.62 2.4 4.62 5.41v.64h-6.86c.13 2.09 1.25 3 2.88 3a6.19 6.19 0 0 0 3.65-1.32l.31 2.07a7.26 7.26 0 0 1 -4.25 1.26zm-2.59-6.67h4.25c-.18-1.65-.84-2.57-2.11-2.57-1.02 0-1.9.86-2.14 2.57z"/><path d="m488.42 195.31v-7c0-.92-.4-1.56-1.36-1.56a3.55 3.55 0 0 0 -2.42 1.34v7.17h-2.64v-10.58h2.24l.24 1.5a5.15 5.15 0 0 1 3.54-1.72c2 0 3 1.21 3 3.19v7.66z"/><path d="m500.65 195.31-.22-1.47a4.16 4.16 0 0 1 -3.26 1.69c-2.22 0-4-1.65-4-5.24 0-4 2.18-5.72 4.64-5.72a7.49 7.49 0 0 1 2.46.4v-5.13l2.64-.42v15.89zm-.37-8.16a4.28 4.28 0 0 0 -2.07-.46c-1.39 0-2.4 1.12-2.4 3.45 0 2.07.88 3 2 3a3.14 3.14 0 0 0 2.42-1.45z"/><path d="m430.11 209.3a1.5 1.5 0 0 1 -1.58-1.5 1.57 1.57 0 0 1 3.15 0 1.5 1.5 0 0 1 -1.57 1.5zm-1.34 12.41v-10.63h2.64v10.63z"/><path d="m440.62 221.71v-7c0-.92-.4-1.56-1.36-1.56a3.55 3.55 0 0 0 -2.42 1.34v7.17h-2.64v-10.58h2.24l.24 1.5a5.15 5.15 0 0 1 3.54-1.72c2 0 3 1.21 3 3.19v7.66z"/><path d="m445.59 216.65v-2.53h5.72v2.53z"/><path d="m458.79 221.82a6.92 6.92 0 0 1 -2.46-.42v4l-2.64.4v-14.72h2.24l.24 1.45a4.28 4.28 0 0 1 3.26-1.67c2.22 0 4 1.67 4 5.24.01 3.96-2.19 5.72-4.64 5.72zm-.07-8.63a3.14 3.14 0 0 0 -2.4 1.5v4.55a4.13 4.13 0 0 0 2 .46c1.36 0 2.4-1.12 2.4-3.46.05-2.03-.81-3.04-1.99-3.04z"/><path d="m470.23 221.93c-3 0-5.19-1.69-5.19-5.52 0-3.45 2.07-5.54 4.84-5.54 3.19 0 4.62 2.4 4.62 5.41v.64h-6.84c.13 2.09 1.25 3 2.88 3a6.19 6.19 0 0 0 3.65-1.32l.31 2.07a7.26 7.26 0 0 1 -4.27 1.26zm-2.55-6.67h4.25c-.18-1.65-.84-2.57-2.11-2.57-1.06 0-1.94.86-2.14 2.57z"/><path d="m479.27 215.62v6.09h-2.64v-10.63h2.24l.33 2.13a4.14 4.14 0 0 1 3.41-2.35l.42 2.62a4.88 4.88 0 0 0 -3.76 2.14z"/><path d="m488.14 221.91a9.25 9.25 0 0 1 -4.14-1l.35-2.2a7.35 7.35 0 0 0 3.87 1.25c1.14 0 1.76-.42 1.76-1.1s-.46-1.06-2.16-1.47c-2.57-.66-3.65-1.41-3.65-3.34s1.45-3.12 3.92-3.12a9 9 0 0 1 3.72.75l-.35 2.2a7.25 7.25 0 0 0 -3.37-1c-1 0-1.47.37-1.47 1s.4.88 2 1.3c2.75.7 3.83 1.45 3.83 3.46s-1.51 3.27-4.31 3.27z"/><path d="m498.94 221.93c-2.88 0-5-2.07-5-5.52s2.11-5.54 5-5.54 5 2.09 5 5.54-2.09 5.52-5 5.52zm0-8.89c-1.56 0-2.4 1.39-2.4 3.37s.86 3.37 2.4 3.37 2.46-1.39 2.46-3.37-.87-3.41-2.46-3.41z"/><path d="m512.54 221.71v-7c0-.92-.4-1.56-1.36-1.56a3.55 3.55 0 0 0 -2.42 1.34v7.17h-2.64v-10.58h2.24l.24 1.5a5.15 5.15 0 0 1 3.54-1.72c2 0 3 1.21 3 3.19v7.66z"/><path d="m441 248.11h-2.35l-2-7-2 7h-2.35l-3.17-10.43 2.64-.35 1.89 7.08 1.94-6.93h2.4l1.92 6.93 1.85-6.93h2.49z"/><path d="m450.06 248.33c-2.88 0-5-2.07-5-5.52s2.11-5.54 5-5.54 5 2.09 5 5.54-2.06 5.52-5 5.52zm0-8.89c-1.56 0-2.4 1.39-2.4 3.37s.86 3.37 2.4 3.37 2.46-1.39 2.46-3.37-.88-3.37-2.46-3.37z"/><path d="m459.87 242v6.09h-2.64v-10.61h2.24l.33 2.13a4.15 4.15 0 0 1 3.41-2.35l.42 2.62a4.88 4.88 0 0 0 -3.76 2.12z"/><path d="m471.82 248.27-3.87-5.41v5.26h-2.65v-15.48l2.64-.42v9.66l3.48-4.4h3l-3.92 4.75 4.16 5.63z"/><path d="m479.54 248.31a9.25 9.25 0 0 1 -4.14-1l.35-2.2a7.36 7.36 0 0 0 3.87 1.25c1.14 0 1.76-.42 1.76-1.1s-.46-1.06-2.16-1.47c-2.57-.66-3.65-1.41-3.65-3.34s1.45-3.12 3.92-3.12a9 9 0 0 1 3.72.75l-.35 2.2a7.26 7.26 0 0 0 -3.37-1c-1 0-1.47.37-1.47 1s.4.88 2 1.3c2.75.7 3.83 1.45 3.83 3.46s-1.52 3.27-4.31 3.27z"/><path d="m492.34 248.11v-7c0-.92-.4-1.56-1.36-1.56a3.54 3.54 0 0 0 -2.42 1.34v7.17h-2.64v-15.42l2.64-.42v6.6a5 5 0 0 1 3.39-1.56c2 0 3 1.21 3 3.19v7.66z"/><path d="m502 248.33c-2.88 0-5-2.07-5-5.52s2.11-5.54 5-5.54 5 2.09 5 5.54-2.05 5.52-5 5.52zm0-8.89c-1.56 0-2.4 1.39-2.4 3.37s.86 3.37 2.4 3.37 2.46-1.39 2.46-3.37-.83-3.37-2.46-3.37z"/><path d="m514.32 248.22a6.92 6.92 0 0 1 -2.46-.42v4l-2.64.4v-14.72h2.24l.24 1.45a4.28 4.28 0 0 1 3.26-1.67c2.22 0 4 1.67 4 5.24.04 3.96-2.2 5.72-4.64 5.72zm-.07-8.63a3.14 3.14 0 0 0 -2.4 1.5v4.55a4.14 4.14 0 0 0 2 .46c1.36 0 2.4-1.12 2.4-3.46.05-2.03-.81-3.04-2-3.04z"/></g><rect fill="#ddd" height="218.93" rx="12" width="143.39" x="590.73" y="55.35"/><g fill="#2b2b7a"><path d="m628.3 146.16h.07-.05zm.42 0v.07h.07a.36.36 0 0 1 .11.19l.05.24a.38.38 0 0 1 -.38.45c0 .06 0 .06-.4-.37a.31.31 0 0 1 .07-.22c.1-.1.1-.1.12-.11h.07.1l-.2-.11h-.05-.07.06-.11.09a.4.4 0 0 1 .47-.15zm-.02.08v.1l-.16-.1zm0 .19v-.06s.05.03.04.05zm.05-.22h.14 2.11.1.13.11.15.14.18.2.19.22.24.22.25 1.08.23.21.21.2.21.17.21.19.18.21.18.21.21.21.19 4.74.16.1.16.21.13.39s0 0 0-.08v-.07a1 1 0 0 1 0-.1 1 1 0 0 0 0-.1v-.32c0-.05 0-.05 0-.11v-.18c0-.07 0-.07 0-.13v-.18-.13-.22-.14-.09-.15-.11c0-.05 0-.11 0-.16v-.15-.14-.17-.18-.19-.16-.2-.21-.2l-.06-.24v-.2l-.06-.2-.07-.25-.06-.23-.07-.25-.07-.24-.08-.26-.07-.23-.07-.25-.07-.27-.07-.24-.07-.26-.06-.27-.06-.24-.06-.28-.06-.26-.06-.27-.06-.28-.06-.27-.05-.25-.05-.25-.06-.27-.05-.25v-.26-.25-.25-.24-.24-.23-.21-.22-.18l-.06-.19-.06-.19-.06-.16-.07-.16-.08-.15-.09-.15-.09-.13-.11-.15-.11-.14-.12-.14-.14-.15-.12-.13-.13-.12-.17-.16-.14-.12-.18-.16-.14-.13-.18-.16-.17-.16-.16-.15-.15-.13-.16-.14-.15-.13-.13-.11-.14-.1-.13-.09-.14-.09-.11-.06-.14-.07-.15-.07-.14-.06-.14-.05h-.14-.15-.13-.16-.12-1.28-.08-.08-.09-.07-.06-.09l-.09.06-.09.06-.08.05-.12.09-.09.08-.09.09-.13.13-.11.11-.13.14-.13.14-.13.15-.13.15-.14.16-.13.16-.14.18-.14.18-.14.19-.14.2-.13.18-.07.1-.07.1-.14.19-.13.19-.15.23-.13.2-.15.23-.13.21-.14.24-.13.23-.13.25-.11.21-.11.23-.1.24-.1.24-.1.24-.09.24-.09.25-.09.27c0 .1-.06.18-.07.25l-.07.28c0 .09 0 .19-.07.28l-.06.31-.05.28v.27.3.29.29.31.29.33.29.29.31.32.32.31.33.31s0 .22 0 .33v.31.27q0 .11 0 .25v.27s0 .14 0 .21v1.54s0 0 0 .1 0 .07 0 .13 0 0 0 .08v.07zm14.35.11a.27.27 0 0 1 0-.06z"/><path d="m660 147.35h.05zm16-.3v-.05-.14-.1-.15-.13-.17-.17-.17l-.06-.22v-.2-.19-.21l-.06-.25-.06-.24-.06-.24-.07-.3-.06-.27-.06-.29-.05-.27-.05-.26-.06-.3-.06-.29-.07-.31-.07-.33-.07-.35-.06-.31-.07-.35-.08-.38-.09-.36-.1-.38-.1-.38-.1-.37-.12-.4-.12-.39-.13-.41-.14-.42-.14-.43-.14-.42-.13-.38-.14-.39-.14-.37-.15-.37-.15-.36-.15-.33-.18-.37-.17-.34-.17-.32-.19-.33-.2-.31-.18-.28-.19-.29-.2-.29-.19-.25-.2-.25-.19-.23-.17-.18-.21-.2-.2-.16-.19-.14-.19-.11-.24-.11-.63-.09-.21-.06h-.2-.19-.32-.19-.21-.19-.19l-.2.06-.22.08-.2.09-.21.11-.23.13-.25.16-.25.17-.24.18-.24.2-.25.23-.26.25-.23.23-.25.26-.26.28-.22.25-.22.26-.22.28-.19.26-.2.28-.2.29-.19.28-.2.31-.2.32-.17.29-.18.32-.18.35-.15.33-.13.32-.15.38-.13.36-.13.36-.11.35-.11.35-.12.38-.11.39-.1.35-.1.36-.1.4-.09.4-.08.4-.07.41q0 .2-.06.41l-.06.43v.39.36.39q0 .21 0 .36t0 .32v.31.31s0 .16 0 .27 0 .15 0 .25 0 .17 0 .24v.22.23.21.19.19.17.08.08.16.11.13.08.05zm.53 0a.38.38 0 0 1 .39.34v.11a.92.92 0 0 1 0 .12v.11c0 .09 0 .1-.31.28h.07-.09.11-.14a.62.62 0 0 1 -.28-.12.35.35 0 0 0 .34.09h-.08c-.23-.07-.28-.08-.34-.22s0 0 0-.17c0 .06 0 .06 0 0s0 0 0 0v-.08-.08-.06-.12-.08-.09zm-.03.65h-.39l.05.16zm-.17.34a.76.76 0 0 1 -.14-.12.41.41 0 0 0 .1.11zm-.08-.06a.66.66 0 0 1 -.11-.27 1.43 1.43 0 0 0 .17.3zm0-.48.12-.07v.06zm-.1.09v-.08h.1c-.07-.02-.1.01-.1.03zm0 0a.09.09 0 0 1 0 0zm.56-.31a.21.21 0 0 1 .06.07l-.08-.06zm.13.16s0 0 0 .16z"/><path d="m701.13 131v-.07a.37.37 0 0 0 0-.08v-1-.12-.18-.18-.2-.22-.26-.26l-.05-.26c0-.11 0-.21-.06-.32l-.06-.3-.07-.32-.08-.37-.07-.34-.08-.37c0-.15-.06-.28-.08-.39l-.07-.37q0-.22-.08-.45l-.08-.44-.07-.4-.07-.39-.08-.43q0-.2-.08-.42l-.1-.45-.1-.42-.11-.42q-.05-.21-.12-.44l-.14-.45-.14-.45-.14-.44-.15-.46-.14-.44-.14-.45-.14-.45-.14-.44-.14-.46-.15-.43-.14-.4-.16-.4-.17-.38-.17-.35-.19-.35-.2-.34-.18-.28-.2-.3-.22-.3-.21-.27-.22-.25-.24-.26-.24-.24-.24-.22-.24-.2-.23-.18-.25-.19-.24-.17-.22-.14-.19-.11-.21-.11-.19-.1-.18-.08-.47-.04h-.19-.2-.22-.2-.19-.23-.24-.25-.24l-.27.05-.25.06-.27.08-.26.08-.29.1-.27.1-.26.11-.28.13-.27.13-.23.12-.23.13-.24.13-.19.11-.2.13-.2.13-.18.13-.19.15-.17.15-.17.18-.18.2-.16.21-.15.22-.16.27-.16.29-.15.3-.14.32c0 .11-.09.22-.13.34l-.11.31-.1.34-.09.34-.08.35c0 .13 0 .25-.06.37l-.05.38q0 .2 0 .36v.37.41s0 .28 0 .43v.45.45q0 .24 0 .45t0 .49v.52s0 .32 0 .48 0 .32 0 .48 0 .31 0 .48 0 .31 0 .45 0 .28 0 .43v.44.44.44.4.39l.05.43q0 .23 0 .43v.42.44.43.41.43.43c0 .14 0 .3.05.45l.05.45v.43.39l.05.44v.39.36.36q0 .15 0 .31l.05.28.05.23.06.22.07.19.05.12.07.13.05.08.06.08.07.07h.07zm0 .21a.4.4 0 0 0 0 .13c0-.08 0-.13.05-.18zm.17-.19h-.06zm.18-.07h-.14zm-.18 0h.08zm.07.14v-.09zm-.28.01a1.3 1.3 0 0 0 -.08.23 2.27 2.27 0 0 1 .11-.28zm.58.54a2.43 2.43 0 0 0 .11-.28 1.22 1.22 0 0 1 -.08.24zm0 0h-.05zm-.08.03h-.1zm.29-.22a.4.4 0 0 1 -.07.1 1.13 1.13 0 0 0 .09-.15zm0 0v-.07z"/><path d="m627.56 110.18.19-.07h.25.17a.41.41 0 0 0 -.14 0 1.06 1.06 0 0 1 .3.19.39.39 0 0 0 -.29-.18c.18 0 .18 0 .31.2-.1-.14-.1-.14-.29-.19h.16-.05.07-.12c.2.05.2.05.21.08a.3.3 0 0 0 -.19-.07.54.54 0 0 1 .17 0h-.13a.49.49 0 0 1 .16 0h-.15c.34.18.34.18.36.43a.61.61 0 0 1 0 .2v.06.12.24.12.69.18s0 .12 0 .18v.21.18.25.22.25.27.26.24q0 .14 0 .28v.23.24.23.18.2.18q0 .1 0 .19v.33a.93.93 0 0 1 0 .12v.15a.46.46 0 0 1 -.06.17.56.56 0 0 1 -.1.16l-.06.06-.09.06-.11.06h-.07-.12-.08-.06-.13-.05-.09-.13-.11-.14-.15-.42-.15-.15-.14-.14-.09-.13-.09-.1-.09-.08l-.1.06h-.06l-.12.08h-.05l-.08.06-.1.07a.52.52 0 0 1 -.19.07h-.18-.12a.38.38 0 0 1 -.14-.07.47.47 0 0 1 -.17-.23.61.61 0 0 1 -.07-.22v-.12-.38c0-.07 0-.07 0-.15v-.17q0-.1 0-.21c0-.06 0-.12 0-.17v-.22c0-.12 0-.12 0-.23v-.26c0-.14 0-.14 0-.28s0-.18 0-.28v-.27q0-.11 0-.24v-.25c0-.07 0-.13 0-.2v-.23-.23-.15-.11-.14c0-.06 0-.06 0-.14.1-.41.13-.53.34-.46zm.84.05.08.07a.44.44 0 0 0 -.09-.09zm-.04-.06a.43.43 0 0 1 .09.09l-.13-.1zm-.13 0h-.09zm0 0h.06-.07zm0 0a.39.39 0 0 1 .09.08l-.11-.09zm-.29.78h.16-.15zm0 0h-.06l.09.06zm0 0h.12-.09zm0 0a.5.5 0 0 1 -.1-.12l.16.15zm.05 0a.43.43 0 0 0 .15 0 .31.31 0 0 1 -.12 0zm0 0 .19.1a.57.57 0 0 1 -.18-.05zm-2.96 6.36-.07-.05z"/><path d="m650.48 123.9h.13c0-.21 0-.21-.05-.2l-.08-.08zm-.35 0h.34zm0-.1a.38.38 0 0 1 .34-.42h.84.11.16.15.17.17.18.23 1 .15.09.11.13.06l.13.07.09.06a.51.51 0 0 1 .09.11h.05a.36.36 0 0 1 .15.11v.06.08.07.11a.83.83 0 0 1 0 .18v.12.35.17.46.19s0 .07 0 .14 0 .09 0 .18 0 .07 0 .12 0 .08 0 .15v.29s0 .07 0 .1 0 .08 0 .14 0 0 0 .09 0 .07 0 .15 0 .05 0 .08 0 .06 0 .13v.31.11a.5.5 0 0 1 0 .13.66.66 0 0 1 -.06.13l-.08.09h-.05-.12-.07-.09-.07-.18-1.24-.2-.18-.21-.2-.18-.2-1c-.08 0-.08 0-.26-.12l.07.07-.06-.06a.49.49 0 0 1 -.09-.15.58.58 0 0 1 0-.16v-.72c0-.05 0-.05 0-.11v-.15c0-.09 0-.09 0-.18s0-.07 0-.14v-.33c0-.06 0-.13 0-.2s0-.12 0-.19v-.22c0-.1 0-.1 0-.2v-.2q0-.11 0-.21v-.68h.21zm4.29-.19.15.13-.12-.11zm0 0-.07-.06zm.06.05v.05zm0 .06v.08-.07zm-4 .46h.14v-.26h-.14zm3.53-.05v-.06zm.19.16h-.07zm0 0-.1-.09.12.09zm.07 0s-.04.05-.04.05zm-3.78 2.82.1.08-.06-.05h-.05l.09.05z"/><path d="m669.85 103a.45.45 0 0 1 .6.09l1.39 1.78.08.24v.22a1.23 1.23 0 0 1 0 .14s0 0 0 .11v.16.16s0 .1 0 .21 0 .11 0 .21 0 .16 0 .24 0 .15 0 .23 0 .18 0 .27v.23.23q0 .12 0 .24v.23.2.2.19.17.19.14.12.14.14l-.05.12v.09.08l-.06.08-.08.09-.73.06a.56.56 0 0 1 -.34.12h-.44-.1-.07-.09-.11-.09-.09-.13-.12-.11-.17-.15-.19-.17-.21-.2-.17-1.47-.2-.15-.22-.49-.19c-.06 0-.06 0-.24-.17a.4.4 0 0 1 -.08-.23v-.06a.48.48 0 0 1 0-.09.59.59 0 0 1 0-.1v-.07a.28.28 0 0 0 0 0 1.25 1.25 0 0 1 0-.15s0 0 0-.09 0-.07 0-.16 0-.05 0-.12v-.16-.19c0-.07 0-.14 0-.2s0-.12 0-.2 0-.17 0-.25v-.26l.05-.28c0-.09 0-.17 0-.26s0-.21.05-.32l.06-.29.06-.34.06-.31.06-.32.05-.33v-.31-.31-.28-.2-.22-.16-.12s0 0 0-.09a1.07 1.07 0 0 1 0-.15v-.16c.19-.38.19-.38.44-.41h.07.15.1.07.09.09.08l.11.06.12.07.1.06.14.08.13.08.13.08.14.08.14.07.12.06.14.07.14.06h.09.12.08.77.08.11.07.09zm-4.06 6.14a.26.26 0 0 1 0 0zm0-.14s0 0 0 0z"/><path d="m692.76 91.52a.32.32 0 0 1 .15.35.41.41 0 0 1 -.06.14v.06l-.05.09-.05.08v.08.08l-.05.1v.07.13.1.11.14.14.1.15.13.16.14.12a1.14 1.14 0 0 1 0 .17v.09a1.06 1.06 0 0 1 0 .14v.09.09.1.08c0 .1 0 .1-.06.12l-.07.09a.48.48 0 0 1 -.2.1h.09a.57.57 0 0 1 -.18.07h-.17-.62-.15-.11-.15-.13l-.95-.13h-.13-.15-.14-.16-.17-.16-.18-.17-.18-.16-.18-.16-.18-.15-.14-.13-.16-.11-.12-.07-.12-.11-.13-.13-.12-.12l-.14-.05a.48.48 0 0 1 -.13-.95v-.05a.35.35 0 0 1 0-.17v-.26a.59.59 0 0 1 0-.1v-.15-.11-.09-.13-.12-.13l.05-.15.05-.14.06-.15.06-.15.08-.17.08-.17.07-.17.08-.18.06-.14.06-.16.05-.14.05-.14.05-.13v-.1l.05-.13a.82.82 0 0 1 0-.13c0-.1 0-.1.36-.21.1 0 .1 0 .39.34 0-.1 0-.1-.16-.26h.09.11.36.14.12.15.15.17.19 1.37.19.15.56.13.1l.14.06c.12.06.13.07.18.13l-.07-.06a.52.52 0 0 1 .13.16zm-1.44-.8c-.41.24-.41.24-.37.32 0 .12 0 .13.13.23h-.12a.33.33 0 0 1 .47-.51zm-.27.49h.06z"/><path d="m681 120.26v-.32c0-.05 0-.05 0-.11v-.12c0-.07 0-.07 0-.14v-.47c0-.09 0-.09 0-.17s0-.1 0-.15v-.18c0-.07 0-.13 0-.2s0-.11 0-.17v-.18-.15-.14-.15-.14-.1-.1-.09-.05-.07-.06l-.05-.08v-.07h-.31-.12-.17-.14-.2-.19-.24-.26-.27-.28-.28-.26-.26-.26-.22-.21-.21-.42-.14-.18v.45.12s0 .08 0 .16v.15s0 .09 0 .14v.18.17s0 .09 0 .17v.18.17.16.17.15.14.14.12.1.1.1.07.09.06.08a.64.64 0 0 1 0 .12.5.5 0 0 1 0 .1.44.44 0 0 1 0 .11v.05a.5.5 0 0 1 0 .08h1.92.12.09.07l.17-.07zm-.62-3.75v.06a.25.25 0 0 1 -.07-.07zm0 .12v.1-.08zm.75 4 .09.11a.16.16 0 0 1 -.06-.06zm.15-.37a.34.34 0 0 0 -.11.09.57.57 0 0 1 .13-.1zm-.16.06.11-.06zm.62.47.06-.05h-.06zm0 0a.33.33 0 0 0 .1-.08.42.42 0 0 1 -.12.08zm-.57-4.43a.24.24 0 0 1 0 0z"/><path d="m637.09 82.35h.21l-.1.06c-.07.07-.08.07-.11.2v.11a.51.51 0 0 0 .2.05c.25-.12.35-.16.38-.21v.3a1.11 1.11 0 0 1 0 .14v.13a1 1 0 0 0 0 .1v.17.16.16.14.19.17.18l-.05.21v.17l-.05.2-.06.19-.06.17-.06.17-.07.19-.07.16-.06.14-.06.15-.06.12a1 1 0 0 1 -.08.15l-.06.09v.06a.72.72 0 0 1 -.11.13l-.05.06-.05.06-.13.11h-.06-.06a.59.59 0 0 1 -.26.09h-1-.16-.31-.19-.55-.22-.18-.2-1.22-.11l-.07-.02h-.15-.09-.17-.18c-.11 0-.11 0-.41-.34 0-.13 0-.17.07-.2l.07-.06h.05.05l.08-.06h.07.05l.08-.07.08-.07.08-.07.07-.07.08-.09.09-.1.07-.09.08-.12.08-.12.08-.14.08-.14.07-.15.07-.17.07-.18.06-.18.05-.18v-.18c0-.06 0-.11 0-.16a1 1 0 0 0 0-.14v-.32s0-.08 0-.11v-.39a.41.41 0 0 1 0-.1.38.38 0 0 1 0-.08c.09-.27.09-.27.4-.35h.1zm-6 4.11h-.05zm6.22-3.72-.07-.08a.31.31 0 0 0 .09.09l-.08-.07-.05-.07.05.06-.07-.07.05.05h.05a.19.19 0 0 0 -.05.16zm.05 0h-.08zm0 0h-.05zm.1-.46-.11.07.1-.06zm-.46.65v-.12-.07-.11-.24c0-.15 0-.15.4-.34a.48.48 0 0 1 .37.19.31.31 0 0 1 .08.08l-.09-.08.07.05c.09.07.1.09.14.25v.06a.35.35 0 0 1 -.16.28h-.09s0 0 0 0h-.07a.53.53 0 0 1 -.2 0h-.56zm.77 0h.07zm.14-.69v.05zm-.82.14s-.09.07-.09.09zm-5.63 3.93h.09s-.18.08-.22.09z"/><path d="m644.52 89.14.14.4h-.45c.1.32.1.32.44.41.42-.18.42-.18.44-.41a.38.38 0 0 0 -.08-.21s0 0 .06.08a.71.71 0 0 1 0 .12.8.8 0 0 1 0 .11.85.85 0 0 1 0 .17v.05.08.14.09.12.18.16.2.16.2.19.19.19.17.17.16.16.16.12.15.07a1 1 0 0 1 0 .18.94.94 0 0 1 0 .13v.14c0 .22 0 .22-.45.43h.38-.12-.11-.1l-.12.05-.14.07-.14.07-.15.08-.18.1-.18.1-.17.1-.22.13-.2.11-.2.12-.21.12-.2.11-.18.1-.15.08-.15.09-.13.08-.12.08-.12.08-.11.07-.09.06-.12.1-.1.08-.11.07a.57.57 0 0 1 -.27.07h-.12a.63.63 0 0 1 -.21 0l-.17-.06a.56.56 0 0 1 -.14-.12v-.06l-.06-.09v-.08-.08a1 1 0 0 1 -.06-.14v-.09-.11-.15-.12-.17-.17-.17l-.05-.23v-.23l-.05-.25-.05-.25-.06-.28-.06-.27-.07-.28-.07-.28-.07-.24-.07-.22-.07-.21v-.16a1.12 1.12 0 0 1 0-.18 1 1 0 0 1 0-.12v.09c.08-.27.08-.27.19-.35l.16-.08h.18zm-.21.86a1 1 0 0 1 0-.12v-.11-.07a.64.64 0 0 1 0-.17c0-.24 0-.24.45-.42.35.09.35.09.45.42a.42.42 0 0 1 -.31.4l-.48.15zm-.08-.39a.59.59 0 0 0 .06.17.62.62 0 0 1 -.06-.18zm0-.03a.12.12 0 0 0 0 0z"/><path d="m652.53 83.12v.37h-.37c0 .2 0 .21.36.36.27-.08.27-.08.35-.36a.52.52 0 0 1 0 .15v.05.1.08.1.11.13.1.16.15.14.19.17.18.18.19.19.16.17.16.14.24.13.61a.58.58 0 0 1 0 .1.57.57 0 0 1 0 .13v.08a.44.44 0 0 1 -.1.13l-.77.09h-.09-.13-1.2-.14-.16-.14-.14-.89-.11-.16-.4-.12-.11.06a.39.39 0 0 1 -.21-.17c0-.06 0-.06-.06-.2v-.16a.7.7 0 0 1 0-.11c0-.05 0-.05 0-.12v-.42s0-.07 0-.1 0-.12 0-.18v-.18-.18-.2c0-.08 0-.16 0-.24v-.24-.21c0-.08 0-.16 0-.25v-.26-.23-.23-.2-.15a1.5 1.5 0 0 1 0-.17v-.13a.56.56 0 0 1 .08-.17c.05-.09.05-.09.33-.18h.2zm-.68 4.88h-.05zm.22-4.17v-.08-.09-.12a.43.43 0 0 1 0-.08.16.16 0 0 0 0 0c.08-.28.08-.29.37-.37.35.16.35.16.37.38a.37.37 0 0 1 -.35.37h-.5zm-3.41 3.65s0 .01 0 0z"/><path d="m654.11 93.18.23-.11 5.62-.89a.53.53 0 0 1 .18 0c.29 0 .29 0 .46.45v.77s0 0 0 .07 0 .07 0 .14 0 0 0 .07 0 .07 0 .14v.16.11a1.91 1.91 0 0 1 0 .22v.14s0 .14 0 .22v.22.23.2.24s0 .13 0 .19 0 .09 0 .18v.18a2 2 0 0 1 0 .21v.57a.77.77 0 0 1 0 .12 1 1 0 0 1 0 .1v.06a.49.49 0 0 1 -.09.19.46.46 0 0 1 -.28.23h-.13a.55.55 0 0 1 -.21 0h-.13-.17-.16-.1-.18-.17-.19-.19-.21-.23-.22-.24-.23-.24-.2-.22-.19-.18l-.17.06-.17.06-.15.06-.13.06-.12.07-.16.09-.11.07-.09.06-.07.06-.07.06-.08.07-.07.07-.1.08c-.09.06-.09.06-.29.09h-.08a.55.55 0 0 1 -.25-.07l-.14-.13v-.05l-.05-.12a1 1 0 0 1 0-.14v-.04c0-.09 0-.09 0-.18s0-.06 0-.14 0-.08 0-.16 0-.09 0-.18 0-.09 0-.19 0-.16 0-.24 0-.13 0-.21v-.25c0-.14 0-.14 0-.28s0-.16 0-.24v-.29-.27-.26q0-.14 0-.29c0-.08 0-.16 0-.22v-.23a1.85 1.85 0 0 1 0-.27c0-.1 0-.1 0-.19v-.36c0-.19 0-.19.26-.42h-.06zm.48.76.07-.06h.06l-.13.11zm5.78-1h.05l-.2.1a.35.35 0 0 0 .21-.1zm-.31 3.79v.05zm.03-.06h.05z"/><path d="m632.79 95.51h1.74a.39.39 0 0 1 .35.24.48.48 0 0 1 0 .14v.24a1.35 1.35 0 0 1 0 .14v.31.15s0 .08 0 .12 0 .12 0 .19 0 .09 0 .14v.16.2s0 .12 0 .19v1.26q0 .09 0 .19v.19.17.14.13.13.42a.71.71 0 0 1 0 .13v.08a.49.49 0 0 1 -.08.16c-.08.11-.08.11-.34.18h-.15a.31.31 0 0 1 -.14 0h-3-.13-.1-.54c-.23 0-.23 0-.39-.38v-.16a.78.78 0 0 1 0-.11v-.13c0-.06 0-.06 0-.13v-.08-.12-.13-.17s0-.1 0-.16 0-.14 0-.21 0-.1 0-.16 0-.16 0-.24 0-.14 0-.21 0-.14 0-.21v-1q0-.1 0-.24c0-.14 0-.14 0-.26v-.25c0-.07 0-.14 0-.19s0-.11 0-.21v-.17-.18c0-.07 0-.07 0-.12a1.12 1.12 0 0 1 0-.17v-.19c-.06 0-.06 0 .39-.4h.29.1.08.12.08.11.11.09.12.16.09.12.11.11.09.12.08.11a.46.46 0 0 1 .3.58zm1.56 4.74h-.1.09z"/><path d="m647.69 96.55h.84.09.09.08.12.11.1.06.1.06.07.13l2-.07a.36.36 0 0 1 .34.39v.1a.4.4 0 0 1 -.06.21v-.07.07.11-.29.12.12.1.12.16.14.15.16.16.2.18.19.21.17.19.21.17.17.15.14.14.13.12.09.06.08a.58.58 0 0 1 -.09.12l-.06.07a.35.35 0 0 1 -.14.1.37.37 0 0 1 -.14 0h-.46-.11-.13-.09-1.14-.13-.1-.1-.14-.56-.13s0 0-.15-.08l-.08-.07-.06-.09v-.08-.09-.09-.08-.11-.05c0-.06 0-.06 0-.13v-.53c0-.07 0-.07 0-.15v-.18c0-.08 0-.08 0-.16v-.18c0-.1 0-.1 0-.21v-1.96c-.05 0-.05 0 .34-.41h.2.11zm3.58-.05v.1s0-.08 0-.1zm0-.1v-.06zm-3.73.5s.1-.02.07-.02z"/><path d="m658.61 89.08h-1.19-.16-.12l-.14-.08h-.16-.17-.16-.17-.2-.18-.17-.18-.14-.15-1.12s0 0-.24-.34v-.46a.44.44 0 0 1 0-.1v-.36c0-.06 0-.06 0-.13v-.11-.25-.16-.15q0-.08 0-.18t0-.2v-1c0-.06 0-.11 0-.16s0-.08 0-.17 0-.1 0-.13 0-.07 0-.15v-.15-.09a.76.76 0 0 1 0-.1c0-.13 0-.13.34-.36h2.43.14.59l.73.14a.34.34 0 0 1 .27.31v.79s0 0 0 .11 0 .07 0 .15 0 .07 0 .11 0 .09 0 .18v.15.17.2.19.19s0 .14 0 .22 0 .12 0 .17v.18.2.13.17.15a1.53 1.53 0 0 1 0 .16v.36a.61.61 0 0 1 0 .09v.07a.48.48 0 0 1 0 .14.35.35 0 0 1 -.1.12.37.37 0 0 1 .25-.02zm-4.26-1.08h.06s-.04 0-.06 0zm.33-3.48a.22.22 0 0 0 0 .03z"/><path d="m639.76 114.1a.88.88 0 0 1 .59.75l.12.19.14.25.12.24.13.27.11.26.11.28.11.32.08.27c0 .11.07.22.1.32l.07.28.07.28c0 .1 0 .21.07.31l.05.24.07.28.08.34.07.36v.24.25s0 .18 0 .32 0 .25 0 .34v.84.23s0 .09 0 .21v.23.3.23.25s0 .17 0 .26v.25.22.22.23l-.05.29q0 .2-.08.38l-.08.34c0 .13-.06.26-.1.39l-.12.34a4.29 4.29 0 0 1 -.17.4c-.06.12-.13.24-.21.37l-.16.25-.11.16-.15.19-.12.14-.26.27-.33.29-.31.24-.2.13-.3.17-.33.16-.26.11-.19.07-.22.08-.24.08-.2.06-.24.07-.42.06h-.22-.24-.22-.29-.9-.26-.22-.28-.22l-.25-.07-.25-.09-.29-.11-.21-.1-.28-.15-.21-.14-.28-.21-.22-.19-.21-.2-.19-.19-.22-.23-.19-.21-.21-.26-.15-.2-.2-.26-.16-.24-.17-.27-.19-.32-.17-.31-.16-.3-.16-.33-.14-.32c-.05-.12-.11-.26-.16-.41l-.11-.33c0-.11-.07-.24-.11-.39l-.08-.38c0-.13-.05-.27-.08-.41s0-.27-.06-.41 0-.26 0-.4 0-.3 0-.46 0-.28 0-.42 0-.27 0-.4v-.75q0-.19 0-.4c0-.14 0-.26 0-.37s0-.21 0-.33 0-.27.06-.4l.06-.28c0-.12.05-.23.08-.34l.09-.28c0-.11.08-.21.12-.3l.11-.24c0-.1.1-.2.16-.3l.15-.24.16-.23.19-.25.21-.24.19-.19.23-.23.23-.21.23-.19.24-.18.23-.16.24-.16.28-.16.27-.13.25-.1.29-.1.26-.08.25-.06.27-.06.31-.06h.25.27.28.28.26.32 1.76.25l.38.07.33.09.32.13.33.18.24.16.18.13zm-1.93.92h-.22-.17-1.83-.26-.24-.24-.24-.24-.21l-.22.05-.21.05-.2.06-.19.07-.19.08-.16.08-.18.1-.18.12-.18.13-.19.15-.18.15-.18.16-.16.16-.18.19-.13.14-.11.15-.11.16-.1.16-.08.14-.1.22-.06.14-.06.2v.19l-.05.27v.24s0 .2 0 .26 0 .17 0 .29 0 .23 0 .34v.75q0 .19 0 .37v.35s0 .23 0 .35 0 .25 0 .35 0 .23.05.35 0 .23.06.33l.07.32c0 .1 0 .18.07.25l.1.3c0 .1.07.19.1.27l.12.28.12.25.16.3.13.24.15.25.15.23.14.2.14.18.18.23.14.17.15.18.16.17.18.18.15.14.16.14.13.1.19.12.14.08.17.08.17.07.17.06h.14.18.15.17 1.08.2.19.19.19l.19-.05.2-.06.18-.06.18-.06.19-.07.17-.07.24-.12.2-.11.14-.09.18-.14.22-.2.13-.14.13-.16.06-.08.09-.13.12-.18.12-.21.09-.21.09-.27q0-.12.07-.25l.07-.32.06-.31v-.28-.21-.17-.24-.25-.2c0-.06 0-.12 0-.19v-.24c0-.07 0-.13 0-.17v-.22c0-.12 0-.12 0-.22s0-.07 0-.16v-.84c0-.06 0-.14 0-.24s0-.18 0-.2v-.13-.25l-.06-.29-.07-.29-.07-.3-.06-.3-.05-.23-.07-.27-.07-.26-.07-.22-.09-.28-.08-.22-.08-.22-.1-.24-.08-.17-.11-.21.02-.11-.11-.19-.11-.16-.07-.1-.08-.08a.83.83 0 0 1 -.63-.47z"/><path d="m631.11 155.79.12.19.12.18.12.18.12.19.13.2.13.2.15.24.13.2.14.21.13.19.12.18.11.16.1.16.11.16.09.14.13.19.16.23.13.19.14.19.09.12.12.17v.07a.92.92 0 0 1 -.11 1.19.69.69 0 0 1 -1-.12l-.05-.07-.09-.12-.14-.19-.11-.16-.15-.21-.15-.22-.13-.19-.11-.16-.12-.18-.09-.14-.12-.18-.12-.18-.12-.17-.14-.21-.15-.24-.13-.2-.14-.21-.14-.21-.12-.19-.1-.15-.17-.22-.14-.23-.12-.21a1.44 1.44 0 0 1 -.15-.52q0-.12 0-.24v-.19s0-.08 0-.13v-.19c0-.07 0-.15 0-.23v-.26c0-.1 0-.14 0-.26s0-.1 0-.2v-.19c0-.11 0-.11 0-.22v-.62q0-.11 0-.22v-.51c0-.08 0-.17 0-.26v-.32c0-.08 0-.17 0-.27s0-.17 0-.32 0-.17 0-.27v-.33c0-.12 0-.24 0-.37s0-.22 0-.31 0-.24 0-.36v-.34c0-.12 0-.23 0-.35s0-.21 0-.32 0-.26 0-.36v-.3-.34-.3c0-.07 0-.15 0-.25s0-.22 0-.3v-.24-.23-.21-.16c0-.08 0-.16 0-.24s0-.15 0-.24 0-.18 0-.25v-.18a1.07 1.07 0 0 1 .34-.8 1 1 0 0 1 .71-.25.8.8 0 0 1 .75.84.88.88 0 0 1 -.3.68v.07s0 .06 0 .11v.21.21.23.29s0 .16 0 .25 0 .21 0 .3v.31.35.32.32s0 .26 0 .37v.32.35.33s0 .24 0 .37 0 .23 0 .33 0 .23 0 .36 0 .22 0 .32 0 .13 0 .3 0 .23 0 .32v.26q0 .16 0 .31v.5q0 .13 0 .26v.62.16.19.15s0 .12 0 .22v.26.19.18q0 .13 0 .26v.19a.32.32 0 0 0 .05.08z"/><path d="m641.12 157.91-.11-.12a1.88 1.88 0 0 1 -.23-.29 2.6 2.6 0 0 1 -.15-.27 2.76 2.76 0 0 1 -.12-.29c0-.09-.06-.18-.08-.29s0-.2-.06-.3l-.05-.31v-.27-.13c0-.07 0-.14 0-.21v-.24-.21-.24-.22-.24-.29c0-.11 0-.21 0-.31v-.27-.3c0-.12 0-.24 0-.35s0-.23 0-.33 0-.21 0-.33v-1.32q0-.18 0-.36v-.35c0-.13 0-.25 0-.35v-.33c0-.17 0-.17 0-.34s0-.2 0-.29v-1.19c0-.09 0-.09 0-.22a2.19 2.19 0 0 1 .09-.62.91.91 0 0 1 1.09-.6.83.83 0 0 1 .66 1 1.25 1.25 0 0 0 0 .19v.25 1.19.35s0 .18 0 .34v.34q0 .14 0 .31v.35q0 .16 0 .33v1.32q0 .15 0 .29v.3s0 .19 0 .28v.31.28.28.27.25.24.19.23.21.16.2.22.29.2.16.06a1.45 1.45 0 0 1 .58.22l.27.19.17.12.19.13.17.11.19.11.23.13.2.12.2.11.21.11.16.08.24.12.14.07.17.07.24.09.27.09.2.05h.13a.83.83 0 0 1 .68 1 .91.91 0 0 1 -1.08.62h-.13l-.38-.1-.37-.13-.29-.11-.22-.1-.23-.11-.17-.08-.23-.11-.23-.12-.24-.13-.25-.14-.22-.13-.24-.14-.23-.15-.16-.11-.25-.17a1 1 0 0 1 -.76-.32z"/><path d="m629.47 135a.85.85 0 0 1 .37 1.13 3.19 3.19 0 0 1 -.2.37 1.51 1.51 0 0 1 -.27.3 1.17 1.17 0 0 1 -.53.27 1.64 1.64 0 0 1 -.72 0 1.81 1.81 0 0 1 -.44-.16l-.32-.18-.3-.2-.17-.13-.21-.17-.19-.18-.17-.17-.19-.21-.19-.22-.17-.21-.17-.2-.19-.24-.22-.29-.21-.3-.2-.31-.21-.36-.2-.38-.17-.37-.17-.41c-.05-.14-.1-.28-.15-.42s-.09-.28-.14-.44-.09-.32-.13-.49l-.11-.44c0-.15-.07-.32-.11-.5s-.07-.35-.1-.52-.06-.36-.09-.57l-.07-.52c0-.15 0-.34-.06-.55s0-.39-.05-.55 0-.33 0-.51 0-.39 0-.59 0-.36 0-.52 0-.33 0-.49v-.5q0-.27 0-.51t0-.56c0-.18 0-.36.06-.52s0-.36.08-.54l.09-.5.1-.5.11-.5.12-.49.14-.51.14-.48c0-.16.09-.32.15-.47l.16-.47.17-.45.16-.4.17-.39.18-.38.18-.35.18-.33.18-.32.16-.28.14-.23.14-.22.14-.21.14-.19.15-.19.2-.23a1.66 1.66 0 0 1 .29-.24.78.78 0 0 1 1.13.17.83.83 0 0 1 .17.75 3 3 0 0 1 -.07.3.91.91 0 0 0 0 .11v.1a.83.83 0 0 1 -.82.68l-.15.24-.14.24-.16.29-.16.31-.17.32-.16.33-.15.33-.15.37-.15.4-.15.43c0 .13-.09.27-.13.41l-.13.46-.12.47-.11.46-.1.47-.09.47-.08.47c0 .15 0 .31-.07.46s0 .32-.05.48 0 .3 0 .43 0 .3 0 .46v.5q0 .24 0 .47t0 .5q0 .25 0 .5t0 .49v.52s0 .37.06.5l.07.51q0 .28.08.51c0 .15.06.31.09.47s.07.31.1.44l.11.44c0 .14.07.28.11.42l.12.38.12.34.15.35.13.29.16.29.17.3.17.25.18.27.18.24.15.19.18.22.18.22.13.16.14.15.16.17.11.11.14.12.15.12.13.09.18.1a.82.82 0 0 1 1.08-.35z"/><path d="m639.34 135.37.2-.08.19-.09.25-.14.27-.16.29-.19.31-.2.33-.23.33-.25.29-.24.34-.3.3-.28.33-.33.33-.35.3-.34.29-.36.28-.37.28-.39.28-.4.29-.42.27-.39.29-.44.27-.43.25-.39.25-.42.24-.41.21-.36.23-.38.2-.32.18-.3.18-.29.16-.27.13-.22.14-.24.11-.19.09-.15.14-.25.11-.19v-.08a.89.89 0 0 1 1.18-.32.81.81 0 0 1 .33 1.13v.07l-.13.22-.12.2-.1.17-.12.21-.12.2-.14.25-.17.28-.18.3-.18.29-.2.32-.21.36-.22.38-.24.4-.27.45-.26.41-.29.45-.3.44-.28.41-.28.41-.3.42-.29.41-.31.41-.34.42-.32.37-.41.41-.37.37-.33.31-.3.32-.38.31-.34.26-.38.27-.34.22-.32.21-.32.19-.31.17-.29.14-.29.12-.37.12a2.05 2.05 0 0 1 -.55.08 1.36 1.36 0 0 1 -.79-.27.81.81 0 0 1 -.19-1.16.89.89 0 0 1 1.07-.26z"/><path d="m668.07 127.17h.13.24.2.26.2.22.23.22l.28-.07.21-.06.15-.05.18-.07.12-.05.24-.11.22-.12.19-.11.13-.08.2-.13.17-.11.18-.13.16-.12.18-.14.12-.11.16-.15.12-.12.09-.1.19-.23.15-.2.08-.13.12-.2.07-.11.08-.15.08-.17.08-.19.06-.16.07-.2.06-.19v-.18-.22-.2-.23-.25c0-.07 0-.14 0-.2s0-.14 0-.2 0-.14 0-.22v-.26-.26-.25-.25q0-.12-.06-.25l-.07-.25-.07-.22-.08-.23-.1-.24-.1-.2-.12-.22-.14-.24-.14-.22-.16-.24-.17-.23-.16-.22-.19-.25-.19-.24-.2-.25-.19-.24-.2-.25-.18-.22-.19-.23-.18-.21-.18-.2-.16-.18-.17-.18-.13-.13-.19-.15-.19-.2-.1-.05-.2-.07-.19-.05h-.18-.24-.25-.23-.24-.23l-.25.05-.24.06-.27.08-.27.09-.23.08-.29.11-.27.12-.25.11-.23.11-.24.13-.22.12-.22.12-.17.11-.22.15-.16.12-.17.15-.18.16-.22.21-.16.16-.21.23-.18.21-.19.24-.19.25-.17.24-.17.26-.17.27-.14.25-.11.21-.12.25-.1.21-.1.23-.06.16-.08.25-.06.19-.06.23v.23.21s0 .16 0 .25a1.2 1.2 0 0 0 0 .19v.25.26.25s0 .16 0 .23l.07.25.08.26.09.24.12.29.1.22.12.23.13.22.15.22.14.2.13.16.15.17.15.15.12.11.19.15.17.12.17.11.19.12.19.11.2.11.19.1.19.1.23.12.16.08.18.08.17.08.23.09.24.08.27.08.33.11.31.11.21.07.19.06a.91.91 0 0 1 .74-.05zm0 1.87-.34.05a2 2 0 0 1 -.38 0 1.75 1.75 0 0 1 -.4-.08l-.21-.07-.27-.09-.26-.09-.31-.1-.26-.08-.33-.11-.33-.13-.19-.08-.21-.1-.25-.12-.18-.09-.23-.11-.23-.12-.23-.13-.22-.13-.23-.14-.25-.17-.23-.17-.21-.17-.25-.23-.2-.21-.18-.21-.21-.26-.17-.23-.19-.28-.2-.33-.14-.26-.15-.33-.14-.33-.12-.31-.1-.3-.09-.33c0-.12-.06-.24-.08-.36s0-.25-.05-.36v-.27c0-.09 0-.19 0-.29a2.84 2.84 0 0 1 0-.43c0-.12 0-.24 0-.36s0-.21 0-.3 0-.19.06-.32l.07-.3.09-.28.09-.26q.05-.15.11-.29l.1-.23.13-.29.12-.25.14-.27.18-.32.19-.31.18-.28.23-.32.23-.3.21-.26.24-.28.21-.23.23-.24.23-.22.22-.2.22-.19.28-.21.21-.15.29-.19.25-.14.28-.15.23-.12.3-.15.29-.13.31-.13.33-.13.32-.11.29-.09.33-.1.32-.08.3-.06.29-.05h.29.28.24.3.34.28a3 3 0 0 1 .43.11l.37.13.29.15.35.23a4.27 4.27 0 0 1 .35.28l.19.19.21.21.2.22.18.21.21.25.19.23.18.22.21.25.22.28.18.23.2.25.21.27.19.25.19.27.18.27.17.28.17.3.14.26.14.28.14.32.12.32.09.29.08.3q0 .18.08.35l.05.28v.29s0 .21 0 .3v.25.34s0 .2 0 .31 0 .2 0 .31v.27.28.29l-.06.28c0 .11 0 .21-.08.31l-.08.25-.08.24-.1.26-.1.23-.11.23-.11.2-.13.21-.08.13-.15.23-.23.3-.19.24-.18.2-.18.18-.17.16-.23.2-.19.15-.21.16-.2.15-.22.15-.19.13-.24.15-.18.1-.33.18-.3.14-.24.1-.17.06-.22.08-.29.09-.37.09-.38.07h-.31-.26a2 2 0 0 1 -.43 0h-.24-.16-.09a.91.91 0 0 1 -.31.03z"/><path d="m688.33 109.05h.08l.27.08.2.07.2.06h.17.17.17.18.08l.2-.06h.1l.16-.07.13-.06.16-.09.12-.08.14-.1.14-.12.13-.13.12-.12.14-.16.14-.17.13-.16.15-.19.11-.15.13-.17.13-.18.11-.15.12-.17.1-.16.11-.18.09-.16.08-.16.08-.18.08-.19.08-.21.06-.17.07-.25.06-.23v-.22-.21c0-.07 0-.13 0-.2s0-.15 0-.21 0-.12 0-.19 0-.14 0-.2v-.26-.29-.28-.25-.28l-.06-.31c0-.09 0-.17-.05-.27l-.07-.3-.07-.29-.08-.27-.1-.29-.11-.29-.12-.29-.13-.28-.12-.24-.15-.26-.16-.26-.17-.24-.19-.24-.18-.21-.21-.22-.25-.19-.24-.21-.21-.17-.19-.13-.25-.15-.22-.12-.18-.08-.24-.08-.27-.06-.25-.05h-.26-.25-.21-.27-.28-.26l-.27.06-.26.07-.23.08-.24.09-.24.11-.26.13-.22.12-.23.15-.23.16-.2.15-.18.15-.2.18-.22.21-.17.17-.19.22-.14.17-.16.21-.12.18-.13.2-.12.21-.1.19-.1.21-.09.21-.08.22-.09.27-.08.24-.08.3-.07.3-.07.31-.06.35v.3s0 .21 0 .31a1.53 1.53 0 0 0 0 .22v.27.31.25a1.73 1.73 0 0 0 0 .2l.07.23.08.19.11.21.13.22.14.21.18.23.16.19.21.22.21.21.21.2.22.19.23.2.23.19.21.16.21.15.21.15.21.14.18.11.19.1.26.14.28.15.18.1.19.11.23.12.19.1a.77.77 0 0 1 1.02.41zm-1.45 1.32-.17-.09-.18-.1-.26-.14-.22-.12-.16-.09-.27-.14-.28-.15-.22-.12-.23-.14-.26-.17-.25-.17-.22-.16-.27-.21-.26-.22-.24-.2-.26-.23-.25-.24-.23-.24-.24-.25-.25-.29-.21-.27-.21-.31c-.07-.11-.14-.23-.2-.33s-.11-.22-.17-.33-.09-.21-.13-.33-.07-.22-.11-.35a3.63 3.63 0 0 1 -.1-.43q0-.17 0-.35v-.31c0-.12 0-.24 0-.36a3.44 3.44 0 0 1 0-.48c0-.12 0-.25 0-.38s0-.26.06-.39l.07-.4c0-.15.06-.27.08-.38l.09-.35.09-.32c0-.11.07-.23.1-.33l.1-.29.12-.32.12-.29.11-.23.14-.28.16-.28.14-.22.18-.27.19-.26.2-.25.2-.23.26-.27.24-.22.25-.22.25-.2.24-.18.29-.2.3-.19.28-.16.29-.15.33-.15.29-.12.29-.1.35-.1.38-.08h.32.31.32.4.38l.33.05.34.07.33.09.3.1.32.14.32.17.3.18.28.19.29.23.26.23.28.27.24.25.25.29.24.3.22.32.2.32.18.31.18.35.16.35.14.33.14.37.12.35c0 .12.07.23.1.35l.09.36.07.32c0 .11 0 .23.07.33l.06.32c0 .12 0 .23.06.34v.29.32.29.25q0 .17 0 .35v.34s0 .19 0 .28 0 .21 0 .33 0 .2-.05.29l-.06.28c0 .11-.05.21-.08.32l-.08.26-.08.26-.09.25-.11.27-.1.23-.12.25-.13.24-.12.21-.14.22-.13.19-.14.2-.15.2-.14.18-.15.19-.13.16-.16.2-.14.17-.16.19-.18.2-.2.19-.2.17-.2.16-.22.15-.25.15-.24.12-.18.07-.28.1-.21.06-.26.05h-.21-.19-.27-.28l-.33-.08-.3-.09-.18-.06-.21-.07h-.17-.09a.78.78 0 0 1 -.38-.22 1 1 0 0 1 -.46-.25z"/><path d="m660.9 158.87v-.14c0-.07 0-.14 0-.22v-.19-.18-.19c0-.08 0-.17 0-.26s0-.16 0-.24v-.25-.29-.25c0-.1 0-.1 0-.22s0-.08 0-.17v-.43q0-.13 0-.26c0-.13 0-.13 0-.27s0-.14 0-.27 0-.17 0-.27 0-.18 0-.29 0-.16 0-.32 0-.16 0-.25 0-.18 0-.28v-.34-.33-.31-.34-.32-.29l-.06-.34-.06-.3c0-.11 0-.22-.06-.35v-.32-.28-.27-.27-.24c0-.09 0-.18 0-.28s0-.12 0-.23 0-.17 0-.26v-.23c0-.08 0-.18 0-.31s0-.23 0-.33 0-.2 0-.29v-.15c0-.07 0-.15 0-.22a1 1 0 0 1 .66-.85.9.9 0 0 1 1.17.37.79.79 0 0 1 -.11.9v.13q0 .1 0 .23v.29s0 .19 0 .24v.21.18s0 .1 0 .21 0 .12 0 .19v.24.28.27.25.3.27l.06.34.06.34c0 .12 0 .23.05.35v.33.34.34.32.35.34s0 .23 0 .34v.3.32s0 .2 0 .28 0 .14 0 .29 0 .14 0 .26 0 .14 0 .23v.41.21s0 .09 0 .18v.24.3.27.2s0 .1 0 .17v.18.19.2.11h1.39a.83.83 0 1 1 0 1.65h-1.6-.25-.09a1.5 1.5 0 0 1 -.55-.07.9.9 0 0 1 -.62-1.07zm1.73.33v.12a.68.68 0 0 0 0-.09z"/><path d="m674.08 147.57a.85.85 0 0 1 .2-1.19 1.31 1.31 0 0 1 .61-.25 1 1 0 0 1 1.17.69.77.77 0 0 1 0 .31 2.06 2.06 0 0 1 .11.38c0 .11 0 .23.05.34v.29.24q0 .14 0 .28v.24.26q0 .14 0 .28v.21s0 .19 0 .29v.26.24.27.27.28.3.3.3.32.3.29.29.29.28.27.26.23.24.2.21.22.18.26.28.22.16.18.15h.22.3.23.25.26.27.29l.29.05.26.06.23.05a2.29 2.29 0 0 1 .41.14h.09a.83.83 0 0 1 .41 1.19 1.07 1.07 0 0 1 -1.35.36h-.07-.22-.22-.18-.15-.22-.26-.28-.27-.24.73-.31a1.23 1.23 0 0 1 -1-.48 1.43 1.43 0 0 1 -.22-.42c0-.08-.05-.17-.07-.25l-.05-.2-.05-.2-.05-.2-.05-.25q0-.13 0-.28v-.32-.26-.19-.22-.2-.2-.24-.23-.25-.28-.26-.3-.29-.28-.31-.31-.3-.3-.3-.28-.28c0-.1 0-.2 0-.3s0-.19 0-.29v-.28c0-.09 0-.18 0-.27s0-.19 0-.29 0-.16 0-.23v-.3c0-.13 0-.13 0-.25s0-.12 0-.18v-.2-.29c0-.09 0-.18 0-.26v-.07z"/><path d="m687.19 145.76v-.16l-.05-.2-.05-.18-.09-.3-.07-.25v-.16l-.06-.21-.06-.22-.06-.24-.07-.28-.07-.28-.07-.29-.06-.29-.07-.32c0-.12 0-.25-.07-.38s0-.26-.05-.41v-.38-.38-.44c0-.17 0-.31 0-.43s0-.26 0-.41 0-.32 0-.48 0-.32 0-.47v-.4-.39q0-.22 0-.44v-.74q0-.18 0-.36v-.27c0-.14 0-.14 0-.3v-.27c0-.12 0-.12 0-.22v-.3c0-.09 0-.17 0-.22v-.26a1.39 1.39 0 0 1 .19-.84.85.85 0 0 1 1.17-.33.89.89 0 0 1 .36 1.12v.11.38.3.21.27.31.32q0 .16 0 .33v.74q0 .21 0 .41v.39.41.46s0 .29 0 .43 0 .27 0 .39 0 .24 0 .4v.44.37.38.32s0 .2.06.3l.07.32.06.29.06.25.07.28.06.25.06.23.05.19.06.2.05.18.07.25.07.25.08.27.05.2.05.23v.26a1.61 1.61 0 0 1 0 .42 1.77 1.77 0 0 1 -.09.34 2.59 2.59 0 0 1 0 .26 1.11 1.11 0 0 1 -.44.69l-.26.16-.15.09-.17.1-.21.12-.2.13-.17.12-.19.15-.13.11-.15.14-.1.11-.09.1-.06.08a.85.85 0 0 1 -1.21.11.89.89 0 0 1 -.11-1.24l.06-.07.16-.19.16-.17.17-.17.23-.2.22-.18.27-.19.26-.17.22-.13.18-.11h.07a1.48 1.48 0 0 1 .07-.25z"/><path d="m699.96 140.35c0-.09 0-.17-.07-.26v-.23l-.05-.28v-.27-.17-.2-.22-.23-.24-.27-.28-.29-.31-.29-.29-.32-.31-.31-.34-.33-.35-.36-.32-.34-.33-.3-.23-.26-.23-.22-.19-.2c0-.08 0-.14 0-.2a1.79 1.79 0 0 1 0-.32c0-.6.47-.89 1-.95a.93.93 0 0 1 1.06.71.73.73 0 0 1 -.14.54v.23.19.21.23.24.25.29.34.33.32.36.35.33.33.32.31.32.29.3.31.28.25.26.24.23.21.18.2.25.26.21.13.16a1.27 1.27 0 0 1 .07.37 1 1 0 0 1 -.16.58l-.14.21a2.17 2.17 0 0 1 -.21.25l-.19.19-.21.18-.2.16-.22.16-.22.16-.25.17-.2.13-.2.13-.2.12-.1.06a1 1 0 0 1 -1.32-.19.75.75 0 0 1 .22-1.15l.1-.06.17-.1.18-.12.2-.13.18-.12.22-.16.19-.14.17-.13.13-.11.11-.11z"/><path d="m660.53 144.61-.15-.13-.19-.18-.2-.22-.16-.18-.12-.14-.14-.17-.12-.16-.13-.18-.12-.16-.16-.24-.13-.21-.14-.22-.16-.26-.15-.24-.16-.26-.14-.24-.17-.28-.14-.24-.15-.25-.16-.27-.15-.25-.17-.29-.17-.3-.15-.26-.16-.3-.15-.29-.13-.28-.11-.23-.11-.25-.09-.24-.08-.25-.06-.23a3.16 3.16 0 0 1 0-.32q0-.16 0-.27a1.87 1.87 0 0 1 0-.39 1.29 1.29 0 0 1 .17-.5 1.25 1.25 0 0 1 .37-.4l.29-.17.16-.16.25-.1.23-.09.17-.06.15-.06.17-.07.19-.08.18-.07.24-.09.23-.08.21-.08.27-.1.26-.1.25-.09.23-.09.29-.12.24-.09.27-.11.26-.1.2-.08.24-.1.2-.09.21-.1.23-.11.18-.09.2-.11.18-.1.17-.1.17-.11.16-.1.21-.13.26-.16.2-.13.17-.12.08-.06.13-.11.14-.13.1-.11a.75.75 0 0 1 1.09-.09.84.84 0 0 1 .08 1.14 2.75 2.75 0 0 1 -.25.28l-.14.13-.15.14-.19.15-.22.15-.26.17-.26.16-.21.13-.17.1-.17.11-.21.12-.21.12-.2.11-.25.13-.22.11-.21.1-.27.12-.23.1-.25.1-.28.11-.24.1-.28.11-.27.1-.27.11-.23.09-.27.11-.25.1-.27.1-.21.08-.19.07-.2.08-.19.07-.19.07-.17.06-.16.06-.21.08-.25.1h-.07v.11.14.13.15l.07.18.08.2.1.23.1.21.13.26.13.25.16.29.16.27.16.28.15.26.14.24.16.26.15.26.14.24.15.25.14.23.16.27.14.23.13.2.14.22.11.17.11.16.1.14.12.15.1.12.1.11.16.17.15.16.1.1.13.11.14.12a1.18 1.18 0 0 1 .32.41v.07a.83.83 0 0 1 -.35 1.09.75.75 0 0 1 -1-.35z"/><path d="m677.85 121.91a.83.83 0 0 1 .85-.8h.08a1 1 0 0 1 .83.48 1.49 1.49 0 0 1 .17.39 2.27 2.27 0 0 1 .06.33v.19.18.22s0 .16 0 .23 0 .11 0 .26 0 .21 0 .32 0 .22 0 .35 0 .24 0 .35 0 .23 0 .37 0 .28-.06.41 0 .27-.07.41-.05.3-.09.46l-.11.48-.11.44-.13.48-.13.49-.13.46-.13.44-.13.45-.13.42-.11.37-.12.4-.13.38-.13.34-.14.34a3.46 3.46 0 0 1 -.18.35l-.19.3-.21.29-.21.24-.24.24-.25.22-.23.18-.24.16-.3.18-.24.12-.31.13a2.38 2.38 0 0 1 -.37.1h-.3-.27-.83-.29-.23-.28-.24-.25l-.29-.07-.33-.1a3.08 3.08 0 0 1 -.46-.19 2.58 2.58 0 0 1 -.33-.2l-.22-.17a2.64 2.64 0 0 1 -.28-.26 2.19 2.19 0 0 1 -.23-.29 1.64 1.64 0 0 1 -.17-.36l-.02-.42a.83.83 0 0 1 .56-1 .82.82 0 0 1 1 .57l.07.23.05.06.11.1.14.11.12.07.22.09.24.08h.16.2.22.2.25.2.62.24.18.11l.13-.05.2-.1.16-.1.17-.12.16-.13.16-.14.16-.16.14-.17.12-.16.13-.21.09-.18.11-.27.11-.29.11-.33.11-.37.12-.39.12-.41.12-.42.13-.45.12-.43.13-.48.12-.46.1-.42.1-.44c0-.14.06-.27.08-.4l.06-.38q0-.18.05-.35c0-.12 0-.22 0-.32s0-.18 0-.27 0-.19 0-.27 0-.16 0-.23 0-.13 0-.24 0-.12 0-.18v-.17-.17-.06a.83.83 0 0 1 -.36-.68z"/><path d="m672 102.33.12.12.14.13.14.13.22.21.18.19.21.23.2.23.2.25.2.26.22.28.23.29.25.33.23.3.27.35.27.35.28.35.28.35.3.36.3.35.3.33.32.32.35.33.37.34.39.35.35.3.4.33.41.33.42.34.46.38.42.35.4.34.38.33.37.33.35.32.36.34.3.3.27.27.26.27.23.23.22.21.21.19.21.17.19.15.18.13.17.13.18.12.14.1.25.18.27.21.12.08a.85.85 0 0 1 .33 1.18.89.89 0 0 1 -1.2.33 2.41 2.41 0 0 1 -.42-.28l-.18-.15-.17-.12-.17-.12-.17-.12-.21-.15-.19-.14-.22-.17-.26-.22-.26-.23-.24-.23-.28-.28-.26-.26-.26-.26-.33-.27-.31-.29-.34-.31-.36-.32-.36-.32-.39-.33-.41-.35-.43-.35-.41-.33-.42-.34-.42-.34-.39-.34-.4-.36-.38-.35-.37-.35-.38-.38-.35-.38-.33-.38-.31-.37-.3-.38-.29-.36-.27-.36-.27-.35-.24-.33-.23-.3-.23-.3-.2-.26-.2-.26-.17-.21-.17-.2-.16-.18-.17-.17-.14-.13-.17-.16-.15-.14-.12-.12-.19-.19-.24-.27a2.85 2.85 0 0 1 -.18-.26 1.84 1.84 0 0 1 -.16-.32 1.61 1.61 0 0 1 -.09-.37.93.93 0 0 1 1-1h.1a.86.86 0 0 1 .77 1z"/><path d="m696.27 114 .13-.15.1-.12.14-.19.11-.16.11-.18.11-.2.12-.24.11-.23.11-.25.11-.3.11-.3.11-.35c0-.12.07-.24.1-.38l.1-.4q0-.18.09-.44l.08-.48c0-.13 0-.27.06-.44s0-.33.06-.5 0-.34 0-.49 0-.32 0-.48 0-.32 0-.51 0-.36 0-.5 0-.28 0-.46 0-.34 0-.49 0-.33-.05-.53 0-.35-.05-.49l-.06-.49c0-.17 0-.31-.07-.42s-.06-.27-.1-.41l-.12-.46c0-.15-.08-.28-.12-.4l-.13-.37-.15-.38-.16-.37-.12-.44-.18-.37-.19-.38-.19-.36-.19-.37-.21-.42-.17-.35-.17-.37-.16-.35-.16-.35-.16-.36-.16-.37-.12-.28-.14-.32-.13-.29-.12-.27-.12-.25-.11-.23-.12-.22-.13-.23-.11-.19-.11-.19-.13-.21-.11-.17-.12-.18-.11-.17-.12-.17-.15-.19-.17-.2-.19-.21-.12-.12-.09-.07h-.09a.86.86 0 0 1 -.45-1.19.85.85 0 0 1 1.13-.41h.1a2 2 0 0 1 .3.18l.22.18.23.23.2.22.24.29.19.25.14.2.13.2.12.18.14.22.12.19.12.2.15.25.13.24.13.25.14.27.14.29.13.28.14.32.13.31.14.34.13.3.16.36.15.34.16.36.16.34.17.35.18.37.19.38.18.35.2.39.2.41.19.41.18.41.18.44c.06.15.11.29.16.45s.1.31.15.48l.13.49q.07.26.11.49t.09.57l.06.49c0 .15 0 .32.05.51s0 .38.05.55 0 .36 0 .56 0 .37 0 .52 0 .32 0 .52 0 .4 0 .57 0 .35 0 .53 0 .35 0 .54 0 .37-.06.55 0 .36-.08.51l-.09.49q-.05.29-.1.52l-.1.43c0 .16-.08.31-.12.46l-.13.41-.13.35-.12.31-.14.34-.15.31-.13.26-.15.27-.14.22-.17.25-.16.22-.16.2-.17.19-.25.25-.31.27-.32.23a1.46 1.46 0 0 1 -.48.21 1.38 1.38 0 0 1 -.56 0 .91.91 0 0 1 -.7-1.28 1.54 1.54 0 0 1 .37-.51.85.85 0 0 1 .85-.2z"/><path d="m626.73 76.78a1.55 1.55 0 0 1 .55-.11h.35l.28.06h.14.23.18l.24.06.22.06.22.06.28.07h.19l.32.08.25.07.24.06.28.06.27.05h.21.22 3.6.32.28 5.4.33.34l.41-.05.43-.07.45-.08.45-.08.44-.09.54-.1.54-.1.52-.1.49-.09.55-.09.57-.08.53-.07.52-.06h.53 12.83.21.23.15.19l.3-.05h.34a1.16 1.16 0 0 1 .58.17 1.29 1.29 0 0 1 .36.31 1.36 1.36 0 0 1 .25.49 1.68 1.68 0 0 1 .06.46v.29.24.2s0 .07 0 .13 0 .08 0 .17v1 .26s0 .22 0 .33 0 .19 0 .31 0 .17 0 .33 0 .18 0 .41 0 .29 0 .43v.44.43s0 .25 0 .55v.61q0 .29 0 .62v.66.69s0 .43 0 .62 0 .41 0 .63v.64q0 .31 0 .64v.63s0 .42 0 .62 0 .39 0 .59 0 .41 0 .64 0 .33 0 .6 0 .36 0 .57 0 .39 0 .59 0 .42 0 .62 0 .37 0 .52 0 .34 0 .54 0 .4 0 .6 0 .31 0 .6 0 .36 0 .55v.59.55q0 .22 0 .52v.55.47q0 .23 0 .45v.45.38q0 .21 0 .42v1.59q0 .19 0 .34v.24.27a1 1 0 0 1 -.51.8 1.2 1.2 0 0 1 -.54.17h-.15-.21-.27-.19-.17-.24-.19-.22-.25-.29-.3-.29-.32-.36-.36-.4-6.18-.73-.7-.76-.8-.76-.79-9.78-.65-.65-.64l-.59.06-.6.08-.59.09-.51.09-.55.1-.54.09-.5.08-.51.08-.44.06-.4.06-.39.06h-.42-.3-.31-.31-.22-.22-.23-.21a1.8 1.8 0 0 1 -.42 0 1 1 0 0 1 -.78-.49 1.77 1.77 0 0 1 -.14-.29l-.09-.26-.08-.25c0-.09 0-.17-.07-.28s0-.16 0-.27 0-.23 0-.35 0-.21 0-.33v-.77q0-.22 0-.44c0-.14 0-.31 0-.52s0-.4 0-.57 0-.35 0-.56v-3.08c0-.24 0-.48 0-.72s0-.51 0-.78 0-.52 0-.76 0-.37 0-.75 0-.53 0-.83 0-.57 0-.79 0-.47 0-.75 0-.56-.07-.85-.05-.58-.08-.89-.06-.61-.09-.89l-.09-.9c0-.32-.06-.62-.09-.93l-.08-.9c0-.31-.06-.62-.08-.92s0-.59-.06-.87 0-.52 0-.74 0-.48 0-.75 0-.5 0-.7v-.62c0-.22 0-.41 0-.57s0-.35 0-.52 0-.32 0-.43 0-.25 0-.36v-.62c0-.14 0-.25 0-.32a1 1 0 0 1 .05-.27.52.52 0 0 1 .21-.33.86.86 0 0 1 .09-.56zm.91 2.01v.09.31s0 .25 0 .42 0 .32 0 .49 0 .36 0 .58v.62.7s0 .5 0 .71 0 .47.05.75 0 .55.06.84.05.58.08.89l.09.91q0 .45.09.91l.09.9q0 .43.09.91t.08.91c0 .29 0 .58.07.86s0 .56.05.78 0 .5 0 .8 0 .6 0 .87 0 .39 0 .75 0 .51 0 .78 0 .52 0 .77 0 .5 0 .75v3.61.6s0 .34 0 .55 0 .39 0 .53 0 .27 0 .4v.77q0 .15 0 .27v.18.18.09a.46.46 0 0 0 .22 0h.2.23.24.29.36.31l.42-.06.38-.05.44-.06.48-.07.49-.08.54-.09.53-.09.56-.09.61-.09.64-.09.67-.06h.68.69.69 9.84.82.74.81.75.7.72 6.82.39.35.33.33.28.26.26.19.24.21.15.2.26.23s0-.09 0-.15v-1.59q0-.14 0-.27v-.37-.44c0-.16 0-.32 0-.49v-.47-.53c0-.22 0-.41 0-.57v-.54-.59c0-.21 0-.41 0-.6s0-.29 0-.6 0-.42 0-.63 0-.37 0-.53 0-.35 0-.56 0-.39 0-.59 0-.42 0-.62 0-.37 0-.54 0-.26 0-.59 0-.44 0-.63 0-.38 0-.57 0-.39 0-.6 0-.44 0-.66 0-.43 0-.63v-.65q0-.33 0-.62c0-.21 0-.43 0-.66s0-.45 0-.66v-.66c0-.23 0-.44 0-.64v-.61-.53c0-.16 0-.32 0-.47v-.42c0-.15 0-.3 0-.45s0-.22 0-.39 0-.17 0-.34 0-.24 0-.35 0-.18 0-.28 0-.21 0-.31v-1c0-.12 0-.12 0-.24s0-.11 0-.23 0-.08 0-.1a.33.33 0 0 0 -.24 0l-.7-.47h-.33-.33-12.56-.45l-.5.05-.5.06-.53.08-.5.08-.51.09-.5.09-.56.1-.51.1-.45.09-.48.09-.47.08-.46.07-.48.06h-.39-.37-.38-5-.24-.35-3.68-.25-.15-.3l-.37-.07-.31-.07-.31-.08-.29-.08-.2-.05-.3-.08-.21-.06-.24-.06-.21-.05h-.16-.21-.12a.87.87 0 0 1 -.21.35z"/><path d="m619.63 195.31v-15.18h2.93v12.61h5.06l.4 2.57z"/><path d="m634.11 195.53c-3 0-5.19-1.69-5.19-5.52 0-3.45 2.07-5.54 4.84-5.54 3.19 0 4.62 2.4 4.62 5.41v.64h-6.84c.13 2.09 1.25 3 2.88 3a6.19 6.19 0 0 0 3.65-1.32l.31 2.07a7.26 7.26 0 0 1 -4.27 1.26zm-2.55-6.67h4.25c-.18-1.65-.84-2.57-2.11-2.57-1.06 0-1.94.86-2.14 2.57z"/><path d="m646.69 195.31-.22-1.39a4.7 4.7 0 0 1 -3.54 1.61 2.78 2.78 0 0 1 -3-2.95c0-2.57 2.11-3.7 6.4-4.11v-.31c0-1.14-.66-1.58-1.83-1.58a8.74 8.74 0 0 0 -3.54.86l-.33-2.11a11 11 0 0 1 4.22-.86c2.75 0 4.12 1 4.12 3.56v7.28zm-.37-5.3c-3.06.37-3.78 1.28-3.78 2.29a1.16 1.16 0 0 0 1.3 1.23 3.54 3.54 0 0 0 2.49-1.14z"/><path d="m658.53 195.31-.22-1.47a4.16 4.16 0 0 1 -3.26 1.69c-2.22 0-4-1.65-4-5.24 0-4 2.18-5.72 4.64-5.72a7.49 7.49 0 0 1 2.46.4v-5.13l2.64-.42v15.89zm-.37-8.16a4.28 4.28 0 0 0 -2.07-.46c-1.39 0-2.4 1.12-2.4 3.45 0 2.07.88 3 2 3a3.14 3.14 0 0 0 2.42-1.45z"/><path d="m672.59 195.49a11 11 0 0 1 -4.77-1.06l.44-2.66a9 9 0 0 0 4.38 1.34c1.34 0 2.27-.64 2.27-1.85s-.53-1.58-2.73-2.53c-2.95-1.21-4.14-2.18-4.14-4.53 0-2.68 2.07-4.25 4.91-4.25a8.16 8.16 0 0 1 4 .92l-.44 2.64a6.77 6.77 0 0 0 -3.59-1.19c-1.45 0-2.09.7-2.09 1.63s.48 1.43 2.6 2.31c3.12 1.28 4.27 2.35 4.27 4.71-.01 2.98-2.19 4.52-5.11 4.52z"/><path d="m684.53 180.06h3.1l5.57 14.87-2.9.53-1.45-4h-5.76l-1.36 3.85h-2.88zm-.66 9h4.13l-2-5.85z"/><path d="m701.28 195.58c-4.42 0-7.19-3.12-7.19-7.83s2.88-7.88 7.17-7.88a7.92 7.92 0 0 1 4.25 1.1l-.42 2.75a6.09 6.09 0 0 0 -3.7-1.34c-2.68 0-4.33 2-4.33 5.35s1.76 5.32 4.45 5.32a6.94 6.94 0 0 0 3.85-1.28l.4 2.51a8.33 8.33 0 0 1 -4.48 1.3z"/><path d="m625.08 221.71-.22-1.39a4.7 4.7 0 0 1 -3.54 1.61 2.78 2.78 0 0 1 -3-2.95c0-2.57 2.11-3.7 6.4-4.11v-.31c0-1.14-.66-1.58-1.83-1.58a8.74 8.74 0 0 0 -3.54.86l-.33-2.11a11 11 0 0 1 4.22-.86c2.75 0 4.12 1 4.12 3.56v7.28zm-.37-5.3c-3.06.37-3.78 1.28-3.78 2.29a1.16 1.16 0 0 0 1.3 1.23 3.54 3.54 0 0 0 2.49-1.14z"/><path d="m634.52 221.91c-3 0-5.06-2-5.06-5.46 0-3.7 2.31-5.59 5.15-5.59a6.06 6.06 0 0 1 3.32.9l-.37 2.38a4.41 4.41 0 0 0 -2.82-1c-1.52 0-2.62 1.12-2.62 3.23s1.19 3.26 2.79 3.26a4.29 4.29 0 0 0 2.77-1l.33 2.24a5.75 5.75 0 0 1 -3.49 1.04z"/><path d="m644.2 221.89c-2.09 0-3.5-.77-3.5-3.19v-5.46h-1.5v-2.16h1.5v-3.37l2.6-.4v3.76h2.18l.33 2.16h-2.51v5c0 .86.4 1.32 1.41 1.32a3.24 3.24 0 0 0 .84-.09l.33 2.22a7.44 7.44 0 0 1 -1.68.21z"/><path d="m649.3 209.3a1.5 1.5 0 0 1 -1.58-1.5 1.57 1.57 0 0 1 3.15 0 1.5 1.5 0 0 1 -1.57 1.5zm-1.3 12.41v-10.63h2.64v10.63z"/><path d="m658.72 221.76h-2.57l-3.72-10.47 2.77-.35 2.38 7.55 2.29-7.39h2.62z"/><path d="m665.58 209.3a1.5 1.5 0 0 1 -1.58-1.5 1.57 1.57 0 0 1 3.15 0 1.5 1.5 0 0 1 -1.57 1.5zm-1.34 12.41v-10.63h2.64v10.63z"/><path d="m673.72 221.89c-2.09 0-3.5-.77-3.5-3.19v-5.46h-1.5v-2.16h1.5v-3.37l2.6-.4v3.76h2.18l.33 2.16h-2.51v5c0 .86.4 1.32 1.41 1.32a3.24 3.24 0 0 0 .84-.09l.33 2.22a7.44 7.44 0 0 1 -1.68.21z"/><path d="m678.82 209.3a1.5 1.5 0 0 1 -1.58-1.5 1.57 1.57 0 0 1 3.15 0 1.5 1.5 0 0 1 -1.57 1.5zm-1.34 12.41v-10.63h2.64v10.63z"/><path d="m687.56 221.93c-3 0-5.19-1.69-5.19-5.52 0-3.45 2.07-5.54 4.84-5.54 3.19 0 4.62 2.4 4.62 5.41v.64h-6.83c.13 2.09 1.25 3 2.88 3a6.19 6.19 0 0 0 3.65-1.32l.31 2.07a7.26 7.26 0 0 1 -4.28 1.26zm-2.56-6.66h4.25c-.18-1.65-.84-2.57-2.11-2.57-1.06-.01-1.94.85-2.14 2.57z"/><path d="m697.55 221.91a9.25 9.25 0 0 1 -4.14-1l.35-2.2a7.36 7.36 0 0 0 3.87 1.25c1.14 0 1.76-.42 1.76-1.1s-.46-1.06-2.16-1.47c-2.57-.66-3.65-1.41-3.65-3.34s1.45-3.12 3.92-3.12a9 9 0 0 1 3.72.75l-.35 2.2a7.26 7.26 0 0 0 -3.37-1c-1 0-1.47.37-1.47 1s.4.88 2 1.3c2.75.7 3.83 1.45 3.83 3.46s-1.52 3.27-4.31 3.27z"/><path d="m625.32 248.11h-2.32l-2-7-2 7h-2.35l-3.17-10.43 2.64-.35 1.89 7.08 1.94-6.93h2.33l1.92 6.93 1.85-6.93h2.49z"/><path d="m631.72 235.7a1.51 1.51 0 0 1 -1.58-1.5 1.57 1.57 0 0 1 3.15 0 1.5 1.5 0 0 1 -1.57 1.5zm-1.34 12.41v-10.63h2.62v10.63z"/><path d="m639.86 248.29c-2.09 0-3.5-.77-3.5-3.19v-5.46h-1.5v-2.16h1.5v-3.37l2.6-.4v3.76h2.18l.33 2.16h-2.47v5c0 .86.4 1.32 1.41 1.32a3.23 3.23 0 0 0 .84-.09l.33 2.22a7.44 7.44 0 0 1 -1.72.21z"/><path d="m649.94 248.11v-7c0-.92-.4-1.56-1.36-1.56a3.55 3.55 0 0 0 -2.42 1.34v7.17h-2.64v-15.42l2.64-.42v6.6a5 5 0 0 1 3.39-1.56c2 0 3 1.21 3 3.19v7.66z"/><path d="m665.14 248.68c-.95 2.62-2.16 3.43-4.2 3.43a3.41 3.41 0 0 1 -1-.11l-.35-2.18a4.78 4.78 0 0 0 1.23.15 1.75 1.75 0 0 0 1.72-1.12l.24-.7-3.78-10.47 2.75-.35 2.46 7.57 2.38-7.42h2.62z"/><path d="m674.89 248.33c-2.88 0-5-2.07-5-5.52s2.11-5.54 5-5.54 5 2.09 5 5.54-2.1 5.52-5 5.52zm0-8.89c-1.56 0-2.4 1.39-2.4 3.37s.86 3.37 2.4 3.37 2.46-1.39 2.46-3.37-.88-3.37-2.46-3.37z"/><path d="m688.83 248.11-.24-1.5a5.19 5.19 0 0 1 -3.54 1.72c-2 0-3-1.21-3-3.21v-7.64h2.64v7c0 .92.4 1.54 1.34 1.54a3.64 3.64 0 0 0 2.44-1.32v-7.17h2.64v10.63z"/><path d="m697.81 248.29c-2.09 0-3.5-.77-3.5-3.19v-5.46h-1.5v-2.16h1.5v-3.37l2.6-.4v3.76h2.18l.33 2.16h-2.51v5c0 .86.4 1.32 1.41 1.32a3.23 3.23 0 0 0 .84-.09l.33 2.22a7.44 7.44 0 0 1 -1.68.21z"/><path d="m707.89 248.11v-7c0-.92-.4-1.56-1.36-1.56a3.55 3.55 0 0 0 -2.42 1.34v7.17h-2.64v-15.42l2.64-.42v6.6a5 5 0 0 1 3.39-1.56c2 0 3 1.21 3 3.19v7.66z"/></g><path d="m240.44 275.49c0 19.83-21.38 35.91-47.76 35.91s-47.76-16.08-47.76-35.91" fill="none" stroke="#2b2b7a" stroke-miterlimit="10" stroke-width="5"/><path d="m239.66 259.48 11.09 19.22h-22.19z" fill="#2b2b7a"/><path d="m618.61 275.49c0 19.83-21.38 35.91-47.76 35.91s-47.76-16.08-47.76-35.91" fill="none" stroke="#2b2b7a" stroke-miterlimit="10" stroke-width="5"/><path d="m617.82 259.48 11.1 19.22h-22.19z" fill="#2b2b7a"/><path d="m429.52 55.06c0-19.83-21.38-35.91-47.76-35.91s-47.76 16.08-47.76 35.91" fill="none" stroke="#2b2b7a" stroke-miterlimit="10" stroke-width="5"/><path d="m428.74 71.06 11.09-19.22h-22.19z" fill="#2b2b7a"/></svg>