<svg id="Layer_1" data-name="Layer 1" xmlns="http://www.w3.org/2000/svg" viewBox="0 0 1321.52 743.36"><defs><style>.cls-1{fill:#f39731;}.cls-2{fill:#fff;}.cls-3{fill:#3273bf;}.cls-4{fill:#387de0;}.cls-5{fill:#3b82fb;}.cls-6,.cls-7,.cls-8{fill:none;stroke-miterlimit:10;stroke-width:5px;}.cls-6{stroke:#3b82fb;}.cls-7{stroke:#387de0;}.cls-8{stroke:#3273bf;}.cls-9{fill:#303030;}.cls-10{fill:#fff800;}</style></defs><title>Artboard 4@1</title><path class="cls-1" d="M119.19,408.26q.15,9.66-.53,19.3c.25-3.48-6.88-18.46-9.1-21.44-12-16.08-20.65,5.13-23.64,14.37q-8.74,27-15.56,54.58c5.16-20.86,6.64-37.2,5.93-58.84-.58-17.65-1-35.75-.87-53.12,0-4.18-.41-8.48-2.37-12.17s-5.73-6.64-9.9-6.64c-15.3,0,1.06,21.08-6.66,28.88-5-3.09-8.09-8.79-11-13.88-2.37-4.17-4.77-8.4-6-13-3.29-12.72,5.94-17.56,14.08-26a25.05,25.05,0,0,1,6.67-5.45,21.27,21.27,0,0,1,7.47-1.75,70.49,70.49,0,0,1,27.49,3c4.61,1.46,9.2,3.41,14,3.4,2.11,0,4.24-.39,6.33-.11s4.27,1.43,4.93,3.44c1.49,4.57-7.2,8.82-8.93,13-3.13,7.61.13,17.93,1.87,25.48A224.52,224.52,0,0,1,119.19,408.26Z"/><path d="M133.09,283.9c-2.07-13.21-14.94-23-28.09-23s-23.22,10.56-25.11,23.21,4.63,25,17.11,29c12.09,3.91,26.2-.88,32.84-11.76,3-4.92-4.72-9.41-7.71-4.51-4.39,7.2-13.63,10.13-21.64,8C91.67,302.5,87.33,294,88.68,285.3c1.32-8.56,7.89-15.74,16.93-15.46a19.8,19.8,0,0,1,18.87,16.43c.89,5.66,9.49,3.26,8.61-2.37Z"/><path d="M165.68,380.16c.92-17,1.46-36.1-10.23-49.85-9.18-10.8-25.7-16.46-38.2-7.85-11.61,8-13.59,23.45-13,36.47.94,19.16,5.16,38.44,8,57.4L123,488.73l8.61-2.37-28.65-98.14c-1.29-4.42-7.17-4.06-8.61,0L57,493.63,65.58,496,84.3,370.66c2.48-16.62,5.77-35.48-6.25-49.36-10-11.51-26.69-12-36.79-.39-13,15-6.81,35.36,3.67,49.82,3.34,4.61,11.09.16,7.71-4.51-7.92-10.92-15-27-5.07-39,9.67-11.67,24.19-4.35,28.49,8.1,2.54,7.38,2,15.51,1,23.12-1.05,8.52-2.49,17-3.76,25.51l-7.75,51.9L57,493.63c-.84,5.61,6.65,7.9,8.61,2.37l37.36-105.41H94.33L123,488.73c1.65,5.66,9.43,3.17,8.61-2.37l-16-107.63c-1.88-12.68-4.78-26.83-.32-39.32,4.66-13.06,18.57-15.33,29.11-7.32,14.53,11,13.2,31.84,12.32,48.08-.31,5.74,8.62,5.72,8.93,0Z"/><path d="M17.15,569.12h-6.6v-27.6h6.68c6.08,0,8.92,2.92,8.92,7.16a5.87,5.87,0,0,1-4,5.72c3.08.92,5.16,3,5.16,6.64C27.35,566.56,23.51,569.12,17.15,569.12Zm0-24.4H14.23v8.4h2.64c3.64,0,5.6-1.6,5.6-4.32C22.47,546.28,20.91,544.72,17.15,544.72Zm.16,11.48H14.23v9.72h3.2c4,0,6.24-1.6,6.24-4.8S21.43,556.2,17.31,556.2Z"/><path d="M39.59,569.52c-5,0-8.84-3-8.84-10,0-6.12,3.6-9.88,8.4-9.88,5.56,0,8.12,4.28,8.12,9.56V560h-13c.12,4.44,2.24,6.52,5.56,6.52a10.51,10.51,0,0,0,6.84-2.72l.52,3.2A11.87,11.87,0,0,1,39.59,569.52Zm-5.12-12.24h9.2c-.44-3.08-1.8-4.84-4.56-4.84C36.91,552.44,35,554,34.47,557.28Z"/><path d="M63.79,569.12v-13c0-2-.84-3.28-2.92-3.28-1.88,0-3.8,1.24-5.52,3.08v13.2H51.79V550h2.84l.44,2.76c1.8-1.64,4-3.16,6.76-3.16,3.6,0,5.52,2.16,5.52,5.6v13.88Z"/><path d="M80.63,569.52c-5,0-8.84-3-8.84-10,0-6.12,3.6-9.88,8.4-9.88,5.56,0,8.12,4.28,8.12,9.56V560h-13c.12,4.44,2.24,6.52,5.56,6.52a10.51,10.51,0,0,0,6.84-2.72l.52,3.2A11.87,11.87,0,0,1,80.63,569.52Zm-5.12-12.24h9.2c-.44-3.08-1.8-4.84-4.56-4.84C77.95,552.44,76.07,554,75.51,557.28Z"/><path d="M100,543.76c-1.64,0-2.64.68-2.64,2.44V550h3.84l.44,3H97.39v16.08H93.91V553H91v-3h2.88v-4.2c0-3.8,2.52-5.24,5.92-5.24.56,0,1,0,1.52.08l.52,3.24A10.42,10.42,0,0,0,100,543.76Zm7.32,2.44a2.27,2.27,0,0,1-2.28-2.24,2.3,2.3,0,0,1,2.28-2.28,2.27,2.27,0,0,1,2.24,2.28A2.24,2.24,0,0,1,107.35,546.2Zm-1.8,22.92V550h3.56v19.08Z"/><path d="M122.95,569.52c-5.12,0-8.88-3.56-8.88-9.92,0-6.52,4-10,9-10a10.34,10.34,0,0,1,6.24,1.76l-.52,3.48a8.63,8.63,0,0,0-5.76-2.12c-3.12,0-5.32,2.36-5.32,6.8,0,4.64,2.36,6.84,5.72,6.84a7.83,7.83,0,0,0,5.56-2.12l.52,3.2A10.07,10.07,0,0,1,122.95,569.52Z"/><path d="M136,546.2a2.27,2.27,0,0,1-2.28-2.24,2.3,2.3,0,0,1,2.28-2.28,2.27,2.27,0,0,1,2.24,2.28A2.24,2.24,0,0,1,136,546.2Zm-1.8,22.92V550h3.56v19.08Z"/><path d="M155.19,569.12l-.4-2.56a9,9,0,0,1-6.72,3c-3.44,0-5.6-2.08-5.6-5.32,0-4.76,4.08-6.64,12-7.48v-.8c0-2.4-1.44-3.24-3.64-3.24a16.39,16.39,0,0,0-6.6,1.64l-.48-3.08a18.47,18.47,0,0,1,7.4-1.6c4.64,0,6.88,1.88,6.88,6.12v13.36Zm-.68-9.68c-7,.68-8.52,2.6-8.52,4.56,0,1.56,1,2.56,2.84,2.56a8.1,8.1,0,0,0,5.68-2.68Z"/><path d="M167.15,557.84v11.28h-3.56V550h2.84l.6,3.88a8.45,8.45,0,0,1,6.68-4.28l.56,3.4A8.73,8.73,0,0,0,167.15,557.84Z"/><path d="M185.83,570.8c-1.64,4.44-3.68,5.6-6.84,5.6a5.49,5.49,0,0,1-1.24-.16l-.48-3.12a8,8,0,0,0,2,.28,3,3,0,0,0,3-2.24l.72-2-7-18.88,3.52-.56,5.2,15.2L189.86,550h3.64Z"/><rect x="162.01" y="346.51" width="24.18" height="43.01" transform="translate(187.7 -38.87) rotate(27.23)"/><rect class="cls-2" x="165.95" y="349.64" width="18.59" height="32.3" transform="translate(186.81 -39.65) rotate(27.23)"/><circle class="cls-2" cx="165.92" cy="383.9" r="2.39" transform="translate(-251.35 355.76) rotate(-62.77)"/><rect class="cls-1" x="195.62" y="328.01" width="7.47" height="7.47" rx="3.74" ry="3.74" transform="translate(398.71 663.49) rotate(180)"/><rect class="cls-1" x="193.58" y="325.18" width="14.69" height="14.69" rx="7.34" ry="7.34" transform="translate(401.84 665.06) rotate(-180)"/><rect class="cls-1" x="205.92" y="289.75" width="28.35" height="28.35" rx="14.13" ry="14.13" transform="translate(440.2 607.86) rotate(-180)"/><circle class="cls-1" cx="268.12" cy="208.47" r="83.21" transform="translate(56.88 474.41) rotate(-89.41)"/><path class="cls-2" d="M242.68,175.06V161.95h1.79v13.11Z"/><path class="cls-2" d="M257.37,175.06v-6.17c0-.93-.4-1.56-1.39-1.56a3.88,3.88,0,0,0-2.62,1.46v6.27h-1.69V166H253l.21,1.31a4.87,4.87,0,0,1,3.21-1.5,2.41,2.41,0,0,1,2.62,2.66v6.59Z"/><path class="cls-2" d="M265.37,175.25c-2.36,0-4.2-1.42-4.2-4.75,0-2.91,1.71-4.69,4-4.69,2.64,0,3.86,2,3.86,4.54v.36h-6.16c.06,2.11,1.06,3.1,2.64,3.1a5,5,0,0,0,3.25-1.29L269,174A5.64,5.64,0,0,1,265.37,175.25Zm-2.43-5.81h4.37c-.21-1.46-.86-2.3-2.17-2.3C264.09,167.13,263.2,167.89,262.94,169.43Z"/><path class="cls-2" d="M274.85,175.25c-2.36,0-4.2-1.42-4.2-4.75,0-2.91,1.71-4.69,4-4.69,2.64,0,3.86,2,3.86,4.54v.36h-6.16c.06,2.11,1.06,3.1,2.64,3.1a5,5,0,0,0,3.25-1.29l.25,1.52A5.64,5.64,0,0,1,274.85,175.25Zm-2.43-5.81h4.37c-.21-1.46-.86-2.3-2.17-2.3C273.57,167.13,272.68,167.89,272.42,169.43Z"/><path class="cls-2" d="M286.85,175.06l-.21-1.31a3.75,3.75,0,0,1-2.94,1.5c-2,0-3.57-1.42-3.57-4.46,0-3.31,1.9-4.9,4.1-4.9a6.36,6.36,0,0,1,2.28.4v-4.67l1.69-.27v13.72Zm-.34-7.24a4.28,4.28,0,0,0-2.22-.51c-1.42,0-2.45,1.16-2.45,3.4,0,2,.89,3,2.11,3a3.24,3.24,0,0,0,2.56-1.6Z"/><path class="cls-2" d="M290.83,168.26V166h1.9v2.26Zm0,6.8V172.8h1.9v2.26Z"/><path class="cls-2" d="M201.94,193.07a8.53,8.53,0,0,1,2.32.8l-.4,2.34a8.34,8.34,0,0,0-2.37-.93l-.42,2.77c2.45.76,3.65,1.73,3.65,4,0,2.7-1.94,4-4.69,4h0l-.32,2.22-1.39-.3.28-2a9.44,9.44,0,0,1-3-1l.36-2.3a9.48,9.48,0,0,0,3.13,1.12l.48-3.25c-2.32-.72-3.63-1.56-3.63-3.78s1.63-3.71,4.46-3.71h.17l.23-1.41,1.39.3Zm-2,4.62.38-2.56h-.21c-1.16,0-1.65.46-1.65,1.18S198.76,197.29,199.92,197.69Zm.74,3.08-.46,3c1.27,0,1.94-.49,1.94-1.41C202.15,201.64,201.82,201.2,200.66,200.77Z"/><path class="cls-2" d="M210.22,206.1a8.76,8.76,0,0,1-4.22-1l.4-2.49a7.5,7.5,0,0,0,3.53.95c1.25,0,2-.53,2-1.52s-.78-1.65-2.79-1.65h-.78l-.38-2.32h1.2c1.82,0,2.51-.59,2.51-1.48s-.61-1.27-1.84-1.27a6,6,0,0,0-3.29,1.06l-.4-2.43a7.49,7.49,0,0,1,4.16-1.18c2.87,0,4.5,1.39,4.5,3.38a3,3,0,0,1-2.26,3,3.09,3.09,0,0,1,2.47,3.13C215.06,204.75,213,206.1,210.22,206.1Z"/><path class="cls-2" d="M221.81,206.1c-3.21,0-5.36-2.37-5.36-6.67s2.15-6.67,5.36-6.67,5.32,2.37,5.32,6.67S225,206.1,221.81,206.1Zm0-10.92c-1.48,0-2.2,1.52-2.2,4.26s.72,4.25,2.2,4.25,2.18-1.52,2.18-4.25S223.29,195.18,221.81,195.18Z"/><path class="cls-2" d="M236.74,193.81c-.78,0-1.25.32-1.25,1.16v1.82h1.82l.21,1.42h-2v7.64h-1.65v-7.64h-1.37v-1.42h1.37v-2c0-1.8,1.2-2.49,2.81-2.49.27,0,.49,0,.72,0l.25,1.54A4.94,4.94,0,0,0,236.74,193.81Z"/><path class="cls-2" d="M242.71,206c-2.41,0-4.16-1.73-4.16-4.71s1.75-4.73,4.16-4.73,4.22,1.75,4.22,4.73S245.14,206,242.71,206Zm0-8c-1.63,0-2.45,1.41-2.45,3.31s.85,3.31,2.45,3.31,2.51-1.41,2.51-3.31S244.34,198,242.71,198Z"/><path class="cls-2" d="M250.77,200.5v5.36h-1.69v-9.06h1.35l.28,1.84a4,4,0,0,1,3.17-2l.27,1.62A4.15,4.15,0,0,0,250.77,200.5Z"/><path class="cls-2" d="M271.23,205.86v-6.17c0-.93-.34-1.56-1.33-1.56a3.77,3.77,0,0,0-2.56,1.46v6.27h-1.69v-6.17c0-.93-.34-1.56-1.33-1.56a3.77,3.77,0,0,0-2.56,1.46v6.27h-1.69v-9.06h1.35l.21,1.31a4.77,4.77,0,0,1,3.15-1.5,2.26,2.26,0,0,1,2.39,1.5,4.78,4.78,0,0,1,3.19-1.5,2.36,2.36,0,0,1,2.56,2.66v6.59Z"/><path class="cls-2" d="M279.23,206c-2.36,0-4.2-1.42-4.2-4.75,0-2.91,1.71-4.69,4-4.69,2.64,0,3.86,2,3.86,4.54v.36h-6.16c.06,2.11,1.06,3.1,2.64,3.1a5,5,0,0,0,3.25-1.29l.25,1.52A5.64,5.64,0,0,1,279.23,206Zm-2.43-5.81h4.37c-.21-1.46-.86-2.3-2.17-2.3C278,197.93,277.06,198.69,276.79,200.23Z"/><path class="cls-2" d="M291.23,205.86l-.21-1.31a3.75,3.75,0,0,1-2.94,1.5c-2,0-3.57-1.42-3.57-4.46,0-3.31,1.9-4.9,4.1-4.9a6.36,6.36,0,0,1,2.28.4v-4.67l1.69-.27v13.72Zm-.34-7.24a4.28,4.28,0,0,0-2.22-.51c-1.42,0-2.45,1.16-2.45,3.4,0,2,.89,3,2.11,3a3.24,3.24,0,0,0,2.56-1.6Z"/><path class="cls-2" d="M296.23,195a1.08,1.08,0,0,1-1.08-1.06,1.1,1.1,0,0,1,1.08-1.08,1.08,1.08,0,0,1,1.06,1.08A1.06,1.06,0,0,1,296.23,195Zm-.85,10.89v-9.06h1.69v9.06Z"/><path class="cls-2" d="M303.64,206c-2.43,0-4.22-1.69-4.22-4.71s1.9-4.73,4.26-4.73a4.91,4.91,0,0,1,3,.84l-.25,1.65a4.1,4.1,0,0,0-2.74-1c-1.48,0-2.53,1.12-2.53,3.23s1.12,3.25,2.72,3.25a3.72,3.72,0,0,0,2.64-1l.25,1.52A4.78,4.78,0,0,1,303.64,206Z"/><path class="cls-2" d="M309.83,195a1.08,1.08,0,0,1-1.08-1.06,1.1,1.1,0,0,1,1.08-1.08,1.08,1.08,0,0,1,1.06,1.08A1.06,1.06,0,0,1,309.83,195ZM309,205.86v-9.06h1.69v9.06Z"/><path class="cls-2" d="M319.16,205.86v-6.17c0-.93-.4-1.56-1.39-1.56a3.88,3.88,0,0,0-2.62,1.46v6.27h-1.69v-9.06h1.35l.21,1.31a4.87,4.87,0,0,1,3.21-1.5,2.41,2.41,0,0,1,2.62,2.66v6.59Z"/><path class="cls-2" d="M327.16,206c-2.36,0-4.2-1.42-4.2-4.75,0-2.91,1.71-4.69,4-4.69,2.64,0,3.86,2,3.86,4.54v.36h-6.16c.06,2.11,1.06,3.1,2.64,3.1a5,5,0,0,0,3.25-1.29l.25,1.52A5.64,5.64,0,0,1,327.16,206Zm-2.43-5.81h4.37c-.21-1.46-.86-2.3-2.17-2.3C325.89,197.93,325,198.69,324.73,200.23Z"/><path class="cls-2" d="M335.71,206a7.42,7.42,0,0,1-3.3-.86l.25-1.6a5.67,5.67,0,0,0,3.19,1c1.16,0,1.84-.44,1.84-1.2s-.51-1.14-2.15-1.54c-2.13-.53-3-1.18-3-2.79,0-1.44,1.22-2.51,3.19-2.51a7.32,7.32,0,0,1,3,.61l-.27,1.6a5.78,5.78,0,0,0-2.75-.78c-1,0-1.56.4-1.56,1s.46,1,1.88,1.31c2.24.57,3.25,1.21,3.25,2.94S338,206,335.71,206Z"/><path class="cls-2" d="M210.4,215.87a8.53,8.53,0,0,1,2.32.8l-.4,2.34a8.34,8.34,0,0,0-2.37-.93l-.42,2.77c2.45.76,3.65,1.73,3.65,4,0,2.7-1.94,4-4.69,4h0l-.32,2.22-1.39-.3.28-2a9.44,9.44,0,0,1-3-1l.36-2.3a9.49,9.49,0,0,0,3.13,1.12l.48-3.25c-2.32-.72-3.63-1.56-3.63-3.78s1.63-3.71,4.46-3.71H209l.23-1.41,1.39.3Zm-2,4.62.38-2.56h-.21c-1.16,0-1.65.46-1.65,1.18S207.23,220.09,208.39,220.49Zm.74,3.08-.46,3c1.27,0,1.94-.49,1.94-1.41C210.61,224.44,210.29,224,209.13,223.57Z"/><path class="cls-2" d="M214.64,228.66V226.4l4.43-4.43a3.31,3.31,0,0,0,1.29-2.34c0-.87-.61-1.37-1.65-1.37a6,6,0,0,0-3.4,1.31l-.38-2.7a7.34,7.34,0,0,1,4.26-1.27c2.64,0,4.27,1.39,4.27,3.69,0,1.75-.87,2.89-2.45,4.37l-2.56,2.47h4.86l.4,2.53Z"/><path class="cls-2" d="M230.41,228.9c-3.21,0-5.36-2.37-5.36-6.67s2.15-6.67,5.36-6.67,5.32,2.37,5.32,6.67S233.6,228.9,230.41,228.9Zm0-10.92c-1.48,0-2.2,1.52-2.2,4.26s.72,4.25,2.2,4.25,2.18-1.52,2.18-4.25S231.89,218,230.41,218Z"/><path class="cls-2" d="M245.34,216.61c-.78,0-1.25.32-1.25,1.16v1.82h1.82l.21,1.42h-2v7.64h-1.65V221h-1.37v-1.42h1.37v-2c0-1.8,1.2-2.49,2.81-2.49.27,0,.49,0,.72,0l.25,1.54A4.94,4.94,0,0,0,245.34,216.61Z"/><path class="cls-2" d="M251.31,228.85c-2.41,0-4.16-1.73-4.16-4.71s1.75-4.73,4.16-4.73,4.22,1.75,4.22,4.73S253.74,228.85,251.31,228.85Zm0-8c-1.63,0-2.45,1.41-2.45,3.31s.85,3.31,2.45,3.31,2.51-1.41,2.51-3.31S252.94,220.83,251.31,220.83Z"/><path class="cls-2" d="M259.36,223.3v5.36h-1.69v-9.06H259l.29,1.84a4,4,0,0,1,3.17-2l.27,1.62A4.15,4.15,0,0,0,259.36,223.3Z"/><path class="cls-2" d="M272.43,228.85c-2.43,0-4.22-1.69-4.22-4.71s1.9-4.73,4.26-4.73a4.91,4.91,0,0,1,3,.84l-.25,1.65a4.1,4.1,0,0,0-2.74-1c-1.48,0-2.53,1.12-2.53,3.23s1.12,3.25,2.72,3.25a3.72,3.72,0,0,0,2.64-1l.25,1.52A4.78,4.78,0,0,1,272.43,228.85Z"/><path class="cls-2" d="M277.77,228.66V215.21l1.69-.27v13.72Z"/><path class="cls-2" d="M285.91,228.85c-2.41,0-4.16-1.73-4.16-4.71s1.75-4.73,4.16-4.73,4.22,1.75,4.22,4.73S288.34,228.85,285.91,228.85Zm0-8c-1.63,0-2.45,1.41-2.45,3.31s.86,3.31,2.45,3.31,2.51-1.41,2.51-3.31S287.54,220.83,285.91,220.83Z"/><path class="cls-2" d="M295.35,228.81c-1.6,0-2.64-.57-2.64-2.39V221h-1.37v-1.42h1.37v-3l1.65-.25v3.27h2l.23,1.42h-2.18v5.09c0,.74.3,1.2,1.25,1.2a4.49,4.49,0,0,0,.78-.06l.23,1.44A6.32,6.32,0,0,1,295.35,228.81Z"/><path class="cls-2" d="M304.37,228.66v-6.17c0-.93-.4-1.56-1.39-1.56a3.88,3.88,0,0,0-2.62,1.46v6.27h-1.69V215.21l1.69-.27v5.85a4.71,4.71,0,0,1,3.08-1.39,2.41,2.41,0,0,1,2.62,2.66v6.59Z"/><path class="cls-2" d="M309.67,217.77a1.08,1.08,0,0,1-1.08-1.06,1.1,1.1,0,0,1,1.08-1.08,1.08,1.08,0,0,1,1.06,1.08A1.06,1.06,0,0,1,309.67,217.77Zm-.85,10.89v-9.06h1.69v9.06Z"/><path class="cls-2" d="M319,228.66v-6.17c0-.93-.4-1.56-1.39-1.56a3.88,3.88,0,0,0-2.62,1.46v6.27H313.3v-9.06h1.35l.21,1.31a4.87,4.87,0,0,1,3.21-1.5,2.41,2.41,0,0,1,2.62,2.66v6.59Z"/><path class="cls-2" d="M326.55,232.11c-2.36,0-4.24-.74-4.24-2.34,0-.93.65-1.65,1.92-2.34a1.16,1.16,0,0,1-.57-1c0-.44.34-.85,1-1.23a2.93,2.93,0,0,1-1.69-2.7,3.24,3.24,0,0,1,3.48-3.15,3.76,3.76,0,0,1,2.34.78l2.3-.72.25,1.52-1.73.17a2.91,2.91,0,0,1,.36,1.41,3.22,3.22,0,0,1-3.48,3.12,3.81,3.81,0,0,1-.68-.06c-.27.17-.46.38-.46.55,0,.32.32.4,1.92.68l.65.11c1.92.34,3.12.95,3.12,2.36C331,231.22,328.9,232.11,326.55,232.11Zm-1.1-4.16c-1,.53-1.52,1.06-1.52,1.69s.93,1.25,2.7,1.25,2.75-.61,2.75-1.37c0-.55-.42-.93-1.71-1.16l-1.08-.19C326.09,228.09,325.8,228,325.44,228Zm1-7.31a1.83,1.83,0,0,0-1.84,2,1.78,1.78,0,0,0,1.84,1.86,1.92,1.92,0,0,0,0-3.84Z"/><path class="cls-2" d="M224.5,238.67a8.53,8.53,0,0,1,2.32.8l-.4,2.34a8.34,8.34,0,0,0-2.37-.93l-.42,2.77c2.45.76,3.65,1.73,3.65,4,0,2.7-1.94,4-4.69,4h0l-.32,2.22-1.39-.3.28-2a9.44,9.44,0,0,1-3-1l.36-2.3a9.49,9.49,0,0,0,3.13,1.12l.48-3.25c-2.32-.72-3.63-1.56-3.63-3.78s1.63-3.71,4.46-3.71h.17l.23-1.41,1.39.3Zm-2,4.62.38-2.56h-.21c-1.16,0-1.65.46-1.65,1.18S221.33,242.89,222.48,243.29Zm.74,3.08-.46,3c1.27,0,1.94-.49,1.94-1.41C224.71,247.24,224.38,246.8,223.23,246.37Z"/><path class="cls-2" d="M232.65,251.7a9.48,9.48,0,0,1-4-.87l.42-2.64a8.18,8.18,0,0,0,3.59.93c1.29,0,2.24-.65,2.24-1.8s-.7-1.67-2-1.67a4.51,4.51,0,0,0-1.84.38l-2-.44.44-7h7.58l.4,2.56h-5.59l-.15,2.28a7.06,7.06,0,0,1,1.82-.23c2.49,0,4.22,1.37,4.22,3.93C237.84,250.11,235.67,251.7,232.65,251.7Z"/><path class="cls-2" d="M244.56,251.7c-3.21,0-5.36-2.37-5.36-6.67s2.15-6.67,5.36-6.67,5.32,2.37,5.32,6.67S247.75,251.7,244.56,251.7Zm0-10.92c-1.48,0-2.2,1.52-2.2,4.26s.72,4.25,2.2,4.25,2.18-1.52,2.18-4.25S246,240.78,244.56,240.78Z"/><path class="cls-2" d="M259.5,239.41c-.78,0-1.25.32-1.25,1.16v1.82h1.82l.21,1.42h-2v7.64h-1.65v-7.64h-1.37V242.4h1.37v-2c0-1.8,1.2-2.49,2.81-2.49.27,0,.49,0,.72,0l.25,1.54A5,5,0,0,0,259.5,239.41Z"/><path class="cls-2" d="M265.46,251.65c-2.41,0-4.16-1.73-4.16-4.71s1.75-4.73,4.16-4.73,4.22,1.75,4.22,4.73S267.89,251.65,265.46,251.65Zm0-8c-1.63,0-2.45,1.41-2.45,3.31s.86,3.31,2.45,3.31,2.51-1.41,2.51-3.31S267.1,243.63,265.46,243.63Z"/><path class="cls-2" d="M273.52,246.1v5.36h-1.69V242.4h1.35l.29,1.84a4,4,0,0,1,3.17-2l.27,1.62A4.15,4.15,0,0,0,273.52,246.1Z"/><path class="cls-2" d="M286.23,239.41c-.78,0-1.25.32-1.25,1.16v1.82h1.82l.21,1.42h-2v7.64h-1.65v-7.64H282V242.4h1.37v-2c0-1.8,1.2-2.49,2.81-2.49.27,0,.49,0,.72,0l.25,1.54A4.94,4.94,0,0,0,286.23,239.41Z"/><path class="cls-2" d="M292.19,251.65c-2.41,0-4.16-1.73-4.16-4.71s1.75-4.73,4.16-4.73,4.22,1.75,4.22,4.73S294.63,251.65,292.19,251.65Zm0-8c-1.63,0-2.45,1.41-2.45,3.31s.86,3.31,2.45,3.31,2.51-1.41,2.51-3.31S293.83,243.63,292.19,243.63Z"/><path class="cls-2" d="M302.21,251.65c-2.41,0-4.16-1.73-4.16-4.71s1.75-4.73,4.16-4.73,4.22,1.75,4.22,4.73S304.64,251.65,302.21,251.65Zm0-8c-1.63,0-2.45,1.41-2.45,3.31s.86,3.31,2.45,3.31,2.51-1.41,2.51-3.31S303.84,243.63,302.21,243.63Z"/><path class="cls-2" d="M314.78,251.46l-.21-1.31a3.75,3.75,0,0,1-2.94,1.5c-2,0-3.57-1.42-3.57-4.46,0-3.31,1.9-4.9,4.1-4.9a6.36,6.36,0,0,1,2.28.4V238l1.69-.27v13.72Zm-.34-7.24a4.28,4.28,0,0,0-2.22-.51c-1.42,0-2.45,1.16-2.45,3.4,0,2,.89,3,2.11,3a3.24,3.24,0,0,0,2.56-1.6Z"/><path class="cls-3" d="M1210.82,408.26q-.15,9.66.53,19.3c-.25-3.48,6.88-18.46,9.1-21.44,12-16.08,20.65,5.13,23.64,14.37q8.74,27,15.56,54.58c-5.16-20.86-6.64-37.2-5.93-58.84.58-17.65,1-35.75.87-53.12,0-4.18.41-8.48,2.37-12.17s5.73-6.64,9.9-6.64c15.3,0-1.06,21.08,6.66,28.88,5-3.09,8.09-8.79,11-13.88,2.37-4.17,4.77-8.4,6-13,3.29-12.72-5.94-17.56-14.08-26a25.05,25.05,0,0,0-6.67-5.45,21.27,21.27,0,0,0-7.47-1.75,70.49,70.49,0,0,0-27.49,3c-4.61,1.46-9.2,3.41-14,3.4-2.11,0-4.24-.39-6.33-.11s-4.27,1.43-4.93,3.44c-1.49,4.57,7.2,8.82,8.93,13,3.13,7.61-.13,17.93-1.87,25.48A224.52,224.52,0,0,0,1210.82,408.26Z"/><path d="M1205.54,286.27a19.81,19.81,0,0,1,18.25-16.41c9.32-.63,16.14,6.65,17.55,15.44,1.36,8.48-2.77,16.85-11.24,19.4-8.12,2.45-17.7-.46-22.2-7.83-3-4.9-10.71-.42-7.71,4.51,6.64,10.89,20.75,15.67,32.84,11.76,12.47-4,19-16.35,17.11-29s-11.87-23.2-25.11-23.21-26,9.79-28.09,23c-.88,5.62,7.72,8,8.61,2.37Z"/><path d="M1173.27,380.16c-.8-14.63-2.23-32.94,8.54-44.58,8.49-9.18,23.88-12.57,31.11-.05,6.13,10.6,4.17,24.83,2.46,36.35l-8,53.82-9,60.67c-.82,5.53,7,8,8.61,2.37l28.65-98.14h-8.61L1264.44,496c2,5.52,9.45,3.24,8.61-2.37l-15.21-101.84q-1.9-12.73-3.8-25.46c-1.17-7.86-2.51-15.94-1.64-23.91,1.33-12.18,13.24-28.09,26.48-18.54,14.84,10.69,7.11,30.45-1.51,42.34-3.38,4.66,4.37,9.12,7.71,4.51,9.35-12.9,15.85-30.7,6.81-45.54-7.77-12.75-23.77-17.27-35.93-7.67-14.05,11.09-13.62,29.59-11.34,45.68,2.94,20.79,6.19,41.53,9.29,62.3L1264.44,496l8.61-2.37-37.36-105.41c-1.44-4.05-7.32-4.42-8.61,0l-28.65,98.14,8.61,2.37,9.43-63.6c3-20,6.66-40.06,8.8-60.18,1.39-13,1.15-28.92-8.45-39.07-10.44-11-26.77-8.95-37.73,0-16,13.14-15.76,35.36-14.73,54.24.31,5.72,9.24,5.75,8.93,0Z"/><rect x="1145.88" y="355.28" width="24.18" height="43.01" transform="translate(2360 181.93) rotate(152.77)"/><rect class="cls-2" x="1147.52" y="358.41" width="18.59" height="32.3" transform="translate(2356.81 178.25) rotate(152.77)"/><circle class="cls-2" cx="1166.14" cy="392.67" r="2.39" transform="translate(-50.43 577.15) rotate(-27.23)"/><rect class="cls-3" x="1137.73" y="325.79" width="14.69" height="14.69" rx="7.34" ry="7.34"/><rect class="cls-3" x="1116.72" y="285.35" width="28.35" height="28.35" rx="14.13" ry="14.13"/><circle class="cls-3" cx="1086.02" cy="220.74" r="65.54" transform="translate(-2.23 11.25) rotate(-0.59)"/><path class="cls-2" d="M1046.35,202.34V189.23h1.79v13.11Z"/><path class="cls-2" d="M1059.12,202.53c-2.43,0-4.22-1.69-4.22-4.71s1.9-4.73,4.25-4.73a4.91,4.91,0,0,1,3,.84l-.25,1.65a4.1,4.1,0,0,0-2.74-1c-1.48,0-2.53,1.12-2.53,3.23s1.12,3.25,2.72,3.25a3.72,3.72,0,0,0,2.64-1l.25,1.52A4.78,4.78,0,0,1,1059.12,202.53Z"/><path class="cls-2" d="M1069.81,202.34l-.19-1.22a4.27,4.27,0,0,1-3.19,1.41,2.42,2.42,0,0,1-2.66-2.53c0-2.26,1.94-3.15,5.72-3.55v-.38c0-1.14-.68-1.54-1.73-1.54a7.79,7.79,0,0,0-3.13.78l-.23-1.46a8.79,8.79,0,0,1,3.51-.76c2.2,0,3.27.89,3.27,2.91v6.34Zm-.32-4.6c-3.34.32-4,1.24-4,2.17a1.19,1.19,0,0,0,1.35,1.22,3.85,3.85,0,0,0,2.7-1.27Z"/><path class="cls-2" d="M1079.5,202.34v-6.17c0-.93-.4-1.56-1.39-1.56a3.88,3.88,0,0,0-2.62,1.46v6.27h-1.69v-9.06h1.35l.21,1.31a4.87,4.87,0,0,1,3.21-1.5,2.41,2.41,0,0,1,2.62,2.66v6.59Z"/><path class="cls-2" d="M1093.69,202.34v-6.17c0-.93-.4-1.56-1.39-1.56a3.88,3.88,0,0,0-2.62,1.46v6.27H1088V188.89l1.69-.27v5.85a4.71,4.71,0,0,1,3.08-1.39,2.41,2.41,0,0,1,2.62,2.66v6.59Z"/><path class="cls-2" d="M1101.69,202.53c-2.36,0-4.2-1.42-4.2-4.75,0-2.91,1.71-4.69,4-4.69,2.64,0,3.86,2,3.86,4.54V198h-6.16c.06,2.11,1.06,3.1,2.64,3.1a5,5,0,0,0,3.25-1.29l.25,1.52A5.64,5.64,0,0,1,1101.69,202.53Zm-2.43-5.81h4.37c-.21-1.46-.86-2.3-2.17-2.3C1100.42,194.41,1099.53,195.17,1099.26,196.71Z"/><path class="cls-2" d="M1107.62,202.34V188.89l1.69-.27v13.72Z"/><path class="cls-2" d="M1116.08,202.45a6.36,6.36,0,0,1-2.28-.4v3.57l-1.69.25V193.27h1.35l.21,1.31a3.81,3.81,0,0,1,2.94-1.5c2,0,3.57,1.44,3.57,4.46C1120.18,200.85,1118.28,202.45,1116.08,202.45Zm.27-7.87a3.24,3.24,0,0,0-2.55,1.6v4.35a4.35,4.35,0,0,0,2.2.49c1.42,0,2.47-1.16,2.47-3.4C1118.47,195.65,1117.58,194.58,1116.34,194.58Z"/><path class="cls-2" d="M1124.13,198.19l-1.1.25-.46-9.21h2Zm-1.5,4.14v-2.26h1.9v2.26Z"/><path class="cls-2" d="M1036.63,225.14v-6H1030v6h-1.79V212H1030v5.43h6.63V212h1.79v13.11Z"/><path class="cls-2" d="M1045,225.33c-2.36,0-4.2-1.42-4.2-4.75,0-2.91,1.71-4.69,4-4.69,2.64,0,3.86,2,3.86,4.54v.36h-6.15c.06,2.11,1.06,3.1,2.64,3.1a5,5,0,0,0,3.25-1.29l.25,1.52A5.64,5.64,0,0,1,1045,225.33Zm-2.43-5.81h4.37c-.21-1.46-.86-2.3-2.17-2.3C1043.74,217.21,1042.84,218,1042.58,219.51Z"/><path class="cls-2" d="M1052.49,219.78v5.36h-1.69v-9.06h1.35l.29,1.84a4,4,0,0,1,3.17-2l.27,1.62A4.15,4.15,0,0,0,1052.49,219.78Z"/><path class="cls-2" d="M1060.95,225.33c-2.36,0-4.2-1.42-4.2-4.75,0-2.91,1.71-4.69,4-4.69,2.64,0,3.86,2,3.86,4.54v.36h-6.16c.06,2.11,1.06,3.1,2.64,3.1a5,5,0,0,0,3.25-1.29l.25,1.52A5.64,5.64,0,0,1,1060.95,225.33Zm-2.43-5.81h4.37c-.21-1.46-.85-2.3-2.17-2.3C1059.68,217.21,1058.78,218,1058.52,219.51Z"/><path class="cls-2" d="M1067.35,216.45l-1-.23.55-4.2h2Z"/><path class="cls-2" d="M1073.24,225.33a7.43,7.43,0,0,1-3.31-.86l.25-1.6a5.67,5.67,0,0,0,3.19,1c1.16,0,1.84-.44,1.84-1.2s-.51-1.14-2.15-1.54c-2.13-.53-3-1.18-3-2.79,0-1.44,1.22-2.51,3.19-2.51a7.32,7.32,0,0,1,3,.61l-.27,1.6a5.78,5.78,0,0,0-2.75-.78c-1,0-1.56.4-1.56,1s.46,1,1.88,1.31c2.24.57,3.25,1.21,3.25,2.94S1075.58,225.33,1073.24,225.33Z"/><path class="cls-2" d="M1088.4,212.35a8.52,8.52,0,0,1,1.92.59l-.25,1.6a6.28,6.28,0,0,0-2-.76l-.63,4.12c2.3.82,3.36,1.86,3.36,3.72,0,2.2-1.56,3.59-4.31,3.59h-.17l-.36,2.24-1.22-.27.3-2.07a8.94,8.94,0,0,1-2.56-.8l.23-1.6a7.74,7.74,0,0,0,2.62,1l.7-4.62c-2.26-.82-3.25-1.65-3.25-3.5,0-2.22,1.67-3.36,4-3.36h.25l.23-1.42,1.25.29Zm-2.07,5.15.61-3.89h-.29c-1.52,0-2.28.7-2.28,1.82S1084.83,216.95,1086.33,217.5Zm.91,2-.68,4.35h.11c1.79,0,2.6-.76,2.6-2.09C1089.28,220.77,1088.9,220.08,1087.24,219.46Z"/><path class="cls-2" d="M1096.06,225.38a7.26,7.26,0,0,1-3.69-1l.29-1.67a5.87,5.87,0,0,0,3.5,1.14c1.69,0,2.74-.76,2.74-2.2s-1-2.49-3.51-2.49h-.59l-.25-1.52h1c2.13,0,3.13-.76,3.13-2.15,0-1.1-.8-1.9-2.41-1.9a5.32,5.32,0,0,0-3.4,1.24l-.25-1.6a6,6,0,0,1,3.72-1.18c2.89,0,4.08,1.63,4.08,3.36a3,3,0,0,1-2.36,3,3.12,3.12,0,0,1,2.6,3.25C1100.64,223.88,1098.87,225.38,1096.06,225.38Z"/><path class="cls-2" d="M1107.4,225.38c-2.94,0-4.92-2.41-4.92-6.67s2-6.67,4.92-6.67,4.9,2.41,4.9,6.67S1110.33,225.38,1107.4,225.38Zm0-11.83c-2,0-3.17,1.82-3.17,5.17s1.2,5.17,3.17,5.17,3.15-1.82,3.15-5.17S1109.38,213.55,1107.4,213.55Z"/><path class="cls-2" d="M1122.2,213.09c-.78,0-1.25.32-1.25,1.16v1.82h1.82l.21,1.42h-2v7.64h-1.65V217.5h-1.37v-1.42h1.37v-2c0-1.8,1.2-2.49,2.81-2.49.27,0,.49,0,.72,0l.25,1.54A4.94,4.94,0,0,0,1122.2,213.09Z"/><path class="cls-2" d="M1128.17,225.33c-2.41,0-4.16-1.73-4.16-4.71s1.75-4.73,4.16-4.73,4.22,1.75,4.22,4.73S1130.6,225.33,1128.17,225.33Zm0-8c-1.63,0-2.45,1.41-2.45,3.31s.86,3.31,2.45,3.31,2.51-1.41,2.51-3.31S1129.8,217.31,1128.17,217.31Z"/><path class="cls-2" d="M1136.22,219.78v5.36h-1.69v-9.06h1.35l.29,1.84a4,4,0,0,1,3.17-2l.27,1.62A4.15,4.15,0,0,0,1136.22,219.78Z"/><path class="cls-2" d="M1055.11,247.94v-6.17c0-.93-.34-1.56-1.33-1.56a3.77,3.77,0,0,0-2.56,1.46v6.27h-1.69v-6.17c0-.93-.34-1.56-1.33-1.56a3.77,3.77,0,0,0-2.56,1.46v6.27h-1.69v-9.06h1.35l.21,1.31a4.77,4.77,0,0,1,3.15-1.5,2.26,2.26,0,0,1,2.39,1.5,4.78,4.78,0,0,1,3.19-1.5,2.36,2.36,0,0,1,2.56,2.66v6.59Z"/><path class="cls-2" d="M1063.11,248.13c-2.36,0-4.2-1.42-4.2-4.75,0-2.91,1.71-4.69,4-4.69,2.64,0,3.86,2,3.86,4.54v.36h-6.16c.06,2.11,1.06,3.1,2.64,3.1a5,5,0,0,0,3.25-1.29l.25,1.52A5.64,5.64,0,0,1,1063.11,248.13Zm-2.43-5.81H1065c-.21-1.46-.85-2.3-2.17-2.3C1061.83,240,1060.94,240.77,1060.67,242.31Z"/><path class="cls-2" d="M1075.11,247.94l-.21-1.31a3.75,3.75,0,0,1-2.94,1.5c-2,0-3.57-1.42-3.57-4.46,0-3.31,1.9-4.9,4.1-4.9a6.36,6.36,0,0,1,2.28.4v-4.67l1.69-.27v13.72Zm-.34-7.24a4.28,4.28,0,0,0-2.22-.51c-1.42,0-2.45,1.16-2.45,3.4,0,2,.89,3,2.11,3a3.24,3.24,0,0,0,2.56-1.6Z"/><path class="cls-2" d="M1080.11,237A1.08,1.08,0,0,1,1079,236a1.1,1.1,0,0,1,1.08-1.08,1.08,1.08,0,0,1,1.06,1.08A1.06,1.06,0,0,1,1080.11,237Zm-.85,10.89v-9.06h1.69v9.06Z"/><path class="cls-2" d="M1087.52,248.13c-2.43,0-4.22-1.69-4.22-4.71s1.9-4.73,4.26-4.73a4.91,4.91,0,0,1,3,.84l-.25,1.65a4.1,4.1,0,0,0-2.74-1c-1.48,0-2.53,1.12-2.53,3.23s1.12,3.25,2.72,3.25a3.72,3.72,0,0,0,2.64-1l.25,1.52A4.78,4.78,0,0,1,1087.52,248.13Z"/><path class="cls-2" d="M1093.71,237a1.08,1.08,0,0,1-1.08-1.06,1.1,1.1,0,0,1,1.08-1.08,1.08,1.08,0,0,1,1.06,1.08A1.06,1.06,0,0,1,1093.71,237Zm-.85,10.89v-9.06h1.69v9.06Z"/><path class="cls-2" d="M1103,247.94v-6.17c0-.93-.4-1.56-1.39-1.56a3.88,3.88,0,0,0-2.62,1.46v6.27h-1.69v-9.06h1.35l.21,1.31a4.87,4.87,0,0,1,3.21-1.5,2.41,2.41,0,0,1,2.62,2.66v6.59Z"/><path class="cls-2" d="M1111,248.13c-2.36,0-4.2-1.42-4.2-4.75,0-2.91,1.71-4.69,4-4.69,2.64,0,3.86,2,3.86,4.54v.36h-6.16c.06,2.11,1.06,3.1,2.64,3.1a5,5,0,0,0,3.25-1.29l.25,1.52A5.64,5.64,0,0,1,1111,248.13Zm-2.43-5.81H1113c-.21-1.46-.86-2.3-2.17-2.3C1109.77,240,1108.88,240.77,1108.61,242.31Z"/><path class="cls-2" d="M1119.59,248.13a7.42,7.42,0,0,1-3.3-.86l.25-1.6a5.67,5.67,0,0,0,3.19,1c1.16,0,1.84-.44,1.84-1.2s-.51-1.14-2.15-1.54c-2.13-.53-3-1.18-3-2.79,0-1.44,1.22-2.51,3.19-2.51a7.32,7.32,0,0,1,3,.61l-.27,1.6a5.78,5.78,0,0,0-2.75-.78c-1,0-1.56.4-1.56,1s.46,1,1.88,1.31c2.24.57,3.25,1.22,3.25,2.95S1121.93,248.13,1119.59,248.13Z"/><path class="cls-2" d="M1125.12,247.94v-2.26H1127v2.26Z"/><path class="cls-4" d="M993.94,408.26q-.15,9.66.53,19.3c-.25-3.48,6.88-18.46,9.1-21.44,12-16.08,20.65,5.13,23.64,14.37q8.74,27,15.56,54.58c-5.16-20.86-6.64-37.2-5.93-58.84.58-17.65,1-35.75.87-53.12,0-4.18.41-8.48,2.37-12.17s5.73-6.64,9.9-6.64c15.3,0-1.06,21.08,6.66,28.88,5-3.09,8.09-8.79,11-13.88,2.37-4.17,4.77-8.4,6-13,3.29-12.72-5.94-17.56-14.08-26a25.05,25.05,0,0,0-6.67-5.45,21.27,21.27,0,0,0-7.47-1.75,70.49,70.49,0,0,0-27.49,3c-4.61,1.46-9.2,3.41-14,3.4-2.11,0-4.24-.39-6.33-.11s-4.27,1.43-4.93,3.44c-1.49,4.57,7.2,8.82,8.93,13,3.13,7.61-.13,17.93-1.87,25.48A224.52,224.52,0,0,0,993.94,408.26Z"/><path d="M988.66,286.27a19.81,19.81,0,0,1,18.25-16.41c9.32-.63,16.14,6.65,17.55,15.44,1.36,8.48-2.77,16.85-11.24,19.4-8.12,2.45-17.7-.46-22.2-7.83-3-4.9-10.71-.42-7.71,4.51,6.64,10.89,20.75,15.67,32.84,11.76,12.47-4,19-16.35,17.11-29s-11.87-23.2-25.11-23.21-26,9.79-28.09,23c-.88,5.62,7.72,8,8.61,2.37Z"/><path d="M956.39,380.16c-.8-14.63-2.23-32.94,8.54-44.58,8.49-9.18,23.88-12.57,31.11-.05,6.13,10.6,4.17,24.83,2.46,36.35l-8,53.82-9,60.67c-.82,5.53,7,8,8.61,2.37l28.65-98.14h-8.61L1047.55,496c2,5.52,9.45,3.24,8.61-2.37L1041,391.79q-1.9-12.73-3.8-25.46c-1.17-7.86-2.51-15.94-1.64-23.91,1.33-12.18,13.24-28.09,26.48-18.54,14.84,10.69,7.11,30.45-1.51,42.34-3.38,4.66,4.37,9.12,7.71,4.51,9.35-12.9,15.85-30.7,6.81-45.54-7.77-12.75-23.77-17.27-35.93-7.67-14.05,11.09-13.62,29.59-11.34,45.68,2.94,20.79,6.19,41.53,9.29,62.3L1047.55,496l8.61-2.37L1018.8,388.22c-1.44-4.05-7.32-4.42-8.61,0l-28.65,98.14,8.61,2.37,9.43-63.6c3-20,6.66-40.06,8.8-60.18,1.39-13,1.15-28.92-8.45-39.07-10.44-11-26.77-8.95-37.73,0-16,13.14-15.76,35.36-14.73,54.24.31,5.72,9.24,5.75,8.93,0Z"/><rect x="928.99" y="355.28" width="24.18" height="43.01" transform="translate(1950.27 281.18) rotate(152.77)"/><rect class="cls-2" x="930.64" y="358.41" width="18.59" height="32.3" transform="translate(1947.08 277.5) rotate(152.77)"/><circle class="cls-2" cx="949.25" cy="392.67" r="2.39" transform="translate(-74.47 477.9) rotate(-27.23)"/><rect class="cls-4" x="925.25" y="325.79" width="14.69" height="14.69" rx="7.34" ry="7.34"/><rect class="cls-4" x="904.24" y="285.35" width="28.35" height="28.35" rx="14.13" ry="14.13"/><circle class="cls-4" cx="873.54" cy="220.74" r="65.54" transform="translate(-2.24 9.05) rotate(-0.59)"/><path class="cls-2" d="M833.87,202.34V189.23h1.79v13.11Z"/><path class="cls-2" d="M846.63,202.53c-2.43,0-4.22-1.69-4.22-4.71s1.9-4.73,4.25-4.73a4.91,4.91,0,0,1,3,.84l-.25,1.65a4.1,4.1,0,0,0-2.74-1c-1.48,0-2.53,1.12-2.53,3.23s1.12,3.25,2.72,3.25a3.72,3.72,0,0,0,2.64-1l.25,1.52A4.78,4.78,0,0,1,846.63,202.53Z"/><path class="cls-2" d="M857.33,202.34l-.19-1.22a4.27,4.27,0,0,1-3.19,1.41,2.42,2.42,0,0,1-2.66-2.53c0-2.26,1.94-3.15,5.72-3.55v-.38c0-1.14-.68-1.54-1.73-1.54a7.79,7.79,0,0,0-3.13.78l-.23-1.46a8.79,8.79,0,0,1,3.51-.76c2.2,0,3.27.89,3.27,2.91v6.34Zm-.32-4.6c-3.34.32-4,1.24-4,2.17a1.19,1.19,0,0,0,1.35,1.22,3.85,3.85,0,0,0,2.7-1.27Z"/><path class="cls-2" d="M867,202.34v-6.17c0-.93-.4-1.56-1.39-1.56a3.88,3.88,0,0,0-2.62,1.46v6.27h-1.69v-9.06h1.35l.21,1.31a4.87,4.87,0,0,1,3.21-1.5,2.41,2.41,0,0,1,2.62,2.66v6.59Z"/><path class="cls-2" d="M881.21,202.34v-6.17c0-.93-.4-1.56-1.39-1.56a3.88,3.88,0,0,0-2.62,1.46v6.27h-1.69V188.89l1.69-.27v5.85a4.71,4.71,0,0,1,3.08-1.39,2.41,2.41,0,0,1,2.62,2.66v6.59Z"/><path class="cls-2" d="M889.21,202.53c-2.36,0-4.2-1.42-4.2-4.75,0-2.91,1.71-4.69,4-4.69,2.64,0,3.86,2,3.86,4.54V198H886.7c.06,2.11,1.06,3.1,2.64,3.1a5,5,0,0,0,3.25-1.29l.25,1.52A5.64,5.64,0,0,1,889.21,202.53Zm-2.43-5.81h4.37c-.21-1.46-.86-2.3-2.17-2.3C887.94,194.41,887,195.17,886.78,196.71Z"/><path class="cls-2" d="M895.14,202.34V188.89l1.69-.27v13.72Z"/><path class="cls-2" d="M903.59,202.45a6.36,6.36,0,0,1-2.28-.4v3.57l-1.69.25V193.27H901l.21,1.31a3.81,3.81,0,0,1,2.94-1.5c2,0,3.57,1.44,3.57,4.46C907.7,200.85,905.8,202.45,903.59,202.45Zm.27-7.87a3.24,3.24,0,0,0-2.55,1.6v4.35a4.35,4.35,0,0,0,2.2.49c1.42,0,2.47-1.16,2.47-3.4C906,195.65,905.09,194.58,903.86,194.58Z"/><path class="cls-2" d="M911.65,198.19l-1.1.25-.46-9.21h2Zm-1.5,4.14v-2.26H912v2.26Z"/><path class="cls-2" d="M824,225.14v-6h-6.63v6h-1.79V212h1.79v5.43H824V212h1.79v13.11Z"/><path class="cls-2" d="M832.34,225.33c-2.36,0-4.2-1.42-4.2-4.75,0-2.91,1.71-4.69,4-4.69,2.64,0,3.86,2,3.86,4.54v.36h-6.16c.06,2.11,1.06,3.1,2.64,3.1a5,5,0,0,0,3.25-1.29l.25,1.52A5.64,5.64,0,0,1,832.34,225.33Zm-2.43-5.81h4.37c-.21-1.46-.85-2.3-2.17-2.3C831.06,217.21,830.17,218,829.9,219.51Z"/><path class="cls-2" d="M839.82,219.78v5.36h-1.69v-9.06h1.35l.28,1.84a4,4,0,0,1,3.17-2l.27,1.62A4.15,4.15,0,0,0,839.82,219.78Z"/><path class="cls-2" d="M848.28,225.33c-2.36,0-4.2-1.42-4.2-4.75,0-2.91,1.71-4.69,4-4.69,2.64,0,3.86,2,3.86,4.54v.36h-6.15c.06,2.11,1.06,3.1,2.64,3.1a5,5,0,0,0,3.25-1.29l.25,1.52A5.64,5.64,0,0,1,848.28,225.33Zm-2.43-5.81h4.37c-.21-1.46-.86-2.3-2.17-2.3C847,217.21,846.11,218,845.84,219.51Z"/><path class="cls-2" d="M854.68,216.45l-.95-.23.55-4.2h2Z"/><path class="cls-2" d="M860.57,225.33a7.42,7.42,0,0,1-3.31-.86l.25-1.6a5.66,5.66,0,0,0,3.19,1c1.16,0,1.84-.44,1.84-1.2s-.51-1.14-2.15-1.54c-2.13-.53-3-1.18-3-2.79,0-1.44,1.22-2.51,3.19-2.51a7.32,7.32,0,0,1,3,.61l-.27,1.6a5.78,5.78,0,0,0-2.75-.78c-1,0-1.56.4-1.56,1s.46,1,1.88,1.31c2.24.57,3.25,1.21,3.25,2.94S862.91,225.33,860.57,225.33Z"/><path class="cls-2" d="M875.73,212.35a8.52,8.52,0,0,1,1.92.59l-.25,1.6a6.28,6.28,0,0,0-2-.76l-.63,4.12c2.3.82,3.36,1.86,3.36,3.72,0,2.2-1.56,3.59-4.31,3.59h-.17l-.36,2.24-1.22-.27.3-2.07a8.94,8.94,0,0,1-2.56-.8l.23-1.6a7.74,7.74,0,0,0,2.62,1l.7-4.62c-2.26-.82-3.25-1.65-3.25-3.5,0-2.22,1.67-3.36,4-3.36h.25l.23-1.42,1.25.29Zm-2.07,5.15.61-3.89H874c-1.52,0-2.28.7-2.28,1.82S872.16,216.95,873.66,217.5Zm.91,2-.68,4.35H874c1.79,0,2.6-.76,2.6-2.09C876.6,220.77,876.22,220.08,874.57,219.46Z"/><path class="cls-2" d="M879.91,225.14v-1.31l4.75-5c1.16-1.22,1.67-2,1.67-3.08,0-1.44-.84-2.17-2.34-2.17a5.29,5.29,0,0,0-3.5,1.52l-.25-1.65a5.82,5.82,0,0,1,3.84-1.44c2.49,0,4,1.42,4,3.63,0,1.56-.7,2.6-2.28,4.22l-3.67,3.72h5.91l.23,1.52Z"/><path class="cls-2" d="M895.11,225.38c-2.94,0-4.92-2.41-4.92-6.67s2-6.67,4.92-6.67,4.9,2.41,4.9,6.67S898,225.38,895.11,225.38Zm0-11.83c-2,0-3.17,1.82-3.17,5.17s1.2,5.17,3.17,5.17,3.15-1.82,3.15-5.17S897.09,213.55,895.11,213.55Z"/><path class="cls-2" d="M909.91,213.09c-.78,0-1.25.32-1.25,1.16v1.82h1.82l.21,1.42h-2v7.64H907V217.5h-1.37v-1.42H907v-2c0-1.8,1.2-2.49,2.81-2.49.27,0,.49,0,.72,0l.25,1.54A4.94,4.94,0,0,0,909.91,213.09Z"/><path class="cls-2" d="M915.88,225.33c-2.41,0-4.16-1.73-4.16-4.71s1.75-4.73,4.16-4.73,4.22,1.75,4.22,4.73S918.31,225.33,915.88,225.33Zm0-8c-1.63,0-2.45,1.41-2.45,3.31s.86,3.31,2.45,3.31,2.51-1.41,2.51-3.31S917.51,217.31,915.88,217.31Z"/><path class="cls-2" d="M923.93,219.78v5.36h-1.69v-9.06h1.35l.29,1.84a4,4,0,0,1,3.17-2l.27,1.62A4.15,4.15,0,0,0,923.93,219.78Z"/><path class="cls-2" d="M843.76,248.13c-2.43,0-4.22-1.69-4.22-4.71s1.9-4.73,4.25-4.73a4.91,4.91,0,0,1,3,.84l-.25,1.65a4.1,4.1,0,0,0-2.74-1c-1.48,0-2.53,1.12-2.53,3.23s1.12,3.25,2.72,3.25a3.72,3.72,0,0,0,2.64-1l.25,1.52A4.78,4.78,0,0,1,843.76,248.13Z"/><path class="cls-2" d="M849.1,247.94V234.49l1.69-.27v13.72Z"/><path class="cls-2" d="M857.23,248.13c-2.41,0-4.16-1.73-4.16-4.71s1.75-4.73,4.16-4.73,4.22,1.75,4.22,4.73S859.67,248.13,857.23,248.13Zm0-8c-1.63,0-2.45,1.41-2.45,3.31s.85,3.31,2.45,3.31,2.51-1.41,2.51-3.31S858.87,240.11,857.23,240.11Z"/><path class="cls-2" d="M866.68,248.09c-1.6,0-2.64-.57-2.64-2.39v-5.4h-1.37v-1.42H864v-3l1.65-.25v3.27h2l.23,1.42h-2.18v5.09c0,.74.3,1.2,1.25,1.2a4.49,4.49,0,0,0,.78-.06l.23,1.44A6.32,6.32,0,0,1,866.68,248.09Z"/><path class="cls-2" d="M875.7,247.94v-6.17c0-.93-.4-1.56-1.39-1.56a3.88,3.88,0,0,0-2.62,1.46v6.27H870V234.49l1.69-.27v5.85a4.71,4.71,0,0,1,3.08-1.39,2.41,2.41,0,0,1,2.62,2.66v6.59Z"/><path class="cls-2" d="M881,237a1.08,1.08,0,0,1-1.08-1.06A1.1,1.1,0,0,1,881,234.9a1.08,1.08,0,0,1,1.06,1.08A1.06,1.06,0,0,1,881,237Zm-.85,10.89v-9.06h1.69v9.06Z"/><path class="cls-2" d="M890.33,247.94v-6.17c0-.93-.4-1.56-1.39-1.56a3.88,3.88,0,0,0-2.62,1.46v6.27h-1.69v-9.06H886l.21,1.31a4.87,4.87,0,0,1,3.21-1.5,2.41,2.41,0,0,1,2.62,2.66v6.59Z"/><path class="cls-2" d="M897.87,251.39c-2.36,0-4.24-.74-4.24-2.34,0-.93.65-1.65,1.92-2.34a1.16,1.16,0,0,1-.57-1c0-.44.34-.85,1-1.23a2.93,2.93,0,0,1-1.69-2.7,3.24,3.24,0,0,1,3.48-3.15,3.76,3.76,0,0,1,2.34.78l2.3-.72.25,1.52-1.73.17a2.91,2.91,0,0,1,.36,1.41,3.22,3.22,0,0,1-3.48,3.12,3.81,3.81,0,0,1-.68-.06c-.27.17-.46.38-.46.55,0,.32.32.4,1.92.68l.65.11c1.92.34,3.12.95,3.12,2.36C902.3,250.5,900.23,251.39,897.87,251.39Zm-1.1-4.16c-1,.53-1.52,1.06-1.52,1.69s.93,1.25,2.7,1.25,2.75-.61,2.75-1.37c0-.55-.42-.93-1.71-1.16l-1.08-.19C897.42,247.37,897.13,247.33,896.77,247.23Zm1-7.31a1.83,1.83,0,0,0-1.84,2,1.78,1.78,0,0,0,1.84,1.86,1.92,1.92,0,0,0,0-3.84Z"/><path class="cls-2" d="M904.11,247.94v-2.26H906v2.26Z"/><path class="cls-5" d="M777.05,408.26q-.15,9.66.53,19.3c-.25-3.48,6.88-18.46,9.1-21.44,12-16.08,20.65,5.13,23.64,14.37q8.74,27,15.56,54.58c-5.16-20.86-6.64-37.2-5.93-58.84.58-17.65,1-35.75.87-53.12,0-4.18.41-8.48,2.37-12.17s5.73-6.64,9.9-6.64c15.3,0-1.06,21.08,6.66,28.88,5-3.09,8.09-8.79,11-13.88,2.37-4.17,4.77-8.4,6-13,3.29-12.72-5.94-17.56-14.08-26a25.05,25.05,0,0,0-6.67-5.45,21.27,21.27,0,0,0-7.47-1.75,70.49,70.49,0,0,0-27.49,3c-4.61,1.46-9.2,3.41-14,3.4-2.11,0-4.24-.39-6.33-.11s-4.27,1.43-4.93,3.44c-1.49,4.57,7.2,8.82,8.93,13,3.13,7.61-.13,17.93-1.87,25.48A224.52,224.52,0,0,0,777.05,408.26Z"/><path d="M771.77,286.27A19.81,19.81,0,0,1,790,269.86c9.32-.63,16.14,6.65,17.55,15.44,1.36,8.48-2.77,16.85-11.24,19.4-8.12,2.45-17.7-.46-22.2-7.83-3-4.9-10.71-.42-7.71,4.51,6.64,10.89,20.75,15.67,32.84,11.76,12.47-4,19-16.35,17.11-29s-11.87-23.2-25.11-23.21-26,9.79-28.09,23c-.88,5.62,7.72,8,8.61,2.37Z"/><path d="M739.5,380.16c-.8-14.63-2.23-32.94,8.54-44.58,8.49-9.18,23.88-12.57,31.11-.05,6.13,10.6,4.17,24.83,2.46,36.35l-8,53.82-9,60.67c-.82,5.53,7,8,8.61,2.37l28.65-98.14h-8.61L830.67,496c2,5.52,9.45,3.24,8.61-2.37L824.07,391.79q-1.9-12.73-3.8-25.46c-1.17-7.86-2.51-15.94-1.64-23.91,1.33-12.18,13.24-28.09,26.48-18.54,14.84,10.69,7.11,30.45-1.51,42.34-3.38,4.66,4.37,9.12,7.71,4.51,9.35-12.9,15.85-30.7,6.81-45.54-7.77-12.75-23.77-17.27-35.93-7.67-14.05,11.09-13.62,29.59-11.34,45.68,2.94,20.79,6.19,41.53,9.29,62.3L830.67,496l8.61-2.37L801.92,388.22c-1.44-4.05-7.32-4.42-8.61,0l-28.65,98.14,8.61,2.37,9.43-63.6c3-20,6.66-40.06,8.8-60.18,1.39-13,1.15-28.92-8.45-39.07-10.44-11-26.77-8.95-37.73,0-16,13.14-15.76,35.36-14.73,54.24.31,5.72,9.24,5.75,8.93,0Z"/><path d="M745.73,569.12h-7.84v-27.6h8c9.6,0,14.52,5.68,14.52,13.76S755.2,569.12,745.73,569.12Zm.28-24.2h-4.36v20.8h4.24c6.64,0,10.64-3.36,10.64-10.4S752.32,544.92,746,544.92Z"/><path d="M773.17,569.52c-5.08,0-8.76-3.64-8.76-9.92s3.68-10,8.76-10,8.88,3.68,8.88,10S778.28,569.52,773.17,569.52Zm0-16.88c-3.44,0-5.16,3-5.16,7s1.8,7,5.16,7c3.52,0,5.28-3,5.28-7S776.6,552.64,773.17,552.64Z"/><path d="M798.56,569.12v-13c0-2-.84-3.28-2.92-3.28-1.88,0-3.8,1.24-5.52,3.08v13.2h-3.56V550h2.84l.44,2.76c1.8-1.64,4-3.16,6.76-3.16,3.6,0,5.52,2.16,5.52,5.6v13.88Z"/><path d="M815.32,569.52c-5.08,0-8.76-3.64-8.76-9.92s3.68-10,8.76-10,8.88,3.68,8.88,10S820.44,569.52,815.32,569.52Zm0-16.88c-3.44,0-5.16,3-5.16,7s1.8,7,5.16,7c3.52,0,5.28-3,5.28-7S818.76,552.64,815.32,552.64Z"/><path d="M832.29,557.84v11.28h-3.56V550h2.84l.6,3.88a8.45,8.45,0,0,1,6.68-4.28l.56,3.4A8.73,8.73,0,0,0,832.29,557.84Z"/><path d="M856,569.12V545.76l-5.64,2.12-.4-2.88,6.48-3h3.12v27.12Z"/><path d="M962.61,569.12h-7.84v-27.6h8c9.6,0,14.52,5.68,14.52,13.76S972.09,569.12,962.61,569.12Zm.28-24.2h-4.36v20.8h4.24c6.64,0,10.64-3.36,10.64-10.4S969.21,544.92,962.89,544.92Z"/><path d="M990,569.52c-5.08,0-8.76-3.64-8.76-9.92s3.68-10,8.76-10,8.88,3.68,8.88,10S995.17,569.52,990,569.52Zm0-16.88c-3.44,0-5.16,3-5.16,7s1.8,7,5.16,7c3.52,0,5.28-3,5.28-7S993.49,552.64,990,552.64Z"/><path d="M1015.45,569.12v-13c0-2-.84-3.28-2.92-3.28-1.88,0-3.8,1.24-5.52,3.08v13.2h-3.56V550h2.84l.44,2.76c1.8-1.64,4-3.16,6.76-3.16,3.6,0,5.52,2.16,5.52,5.6v13.88Z"/><path d="M1032.21,569.52c-5.08,0-8.76-3.64-8.76-9.92s3.68-10,8.76-10,8.88,3.68,8.88,10S1037.33,569.52,1032.21,569.52Zm0-16.88c-3.44,0-5.16,3-5.16,7s1.8,7,5.16,7c3.52,0,5.28-3,5.28-7S1035.65,552.64,1032.21,552.64Z"/><path d="M1049.17,557.84v11.28h-3.56V550h2.84l.6,3.88a8.45,8.45,0,0,1,6.68-4.28l.56,3.4A8.73,8.73,0,0,0,1049.17,557.84Z"/><path d="M1067.69,569.12v-2.76l10-10.44c2.44-2.56,3.52-4.28,3.52-6.48,0-3-1.76-4.56-4.92-4.56a11.13,11.13,0,0,0-7.36,3.2l-.52-3.48a12.25,12.25,0,0,1,8.08-3c5.24,0,8.44,3,8.44,7.64,0,3.28-1.48,5.48-4.8,8.88l-7.72,7.84h12.44l.48,3.2Z"/><path d="M1186.62,569.12h-7.84v-27.6h8c9.6,0,14.52,5.68,14.52,13.76S1196.1,569.12,1186.62,569.12Zm.28-24.2h-4.36v20.8h4.24c6.64,0,10.64-3.36,10.64-10.4S1193.22,544.92,1186.9,544.92Z"/><path d="M1214.06,569.52c-5.08,0-8.76-3.64-8.76-9.92s3.68-10,8.76-10,8.88,3.68,8.88,10S1219.18,569.52,1214.06,569.52Zm0-16.88c-3.44,0-5.16,3-5.16,7s1.8,7,5.16,7c3.52,0,5.28-3,5.28-7S1217.5,552.64,1214.06,552.64Z"/><path d="M1239.46,569.12v-13c0-2-.84-3.28-2.92-3.28-1.88,0-3.8,1.24-5.52,3.08v13.2h-3.56V550h2.84l.44,2.76c1.8-1.64,4-3.16,6.76-3.16,3.6,0,5.52,2.16,5.52,5.6v13.88Z"/><path d="M1256.22,569.52c-5.08,0-8.76-3.64-8.76-9.92s3.68-10,8.76-10,8.88,3.68,8.88,10S1261.34,569.52,1256.22,569.52Zm0-16.88c-3.44,0-5.16,3-5.16,7s1.8,7,5.16,7c3.52,0,5.28-3,5.28-7S1259.66,552.64,1256.22,552.64Z"/><path d="M1273.18,557.84v11.28h-3.56V550h2.84l.6,3.88a8.45,8.45,0,0,1,6.68-4.28l.56,3.4A8.73,8.73,0,0,0,1273.18,557.84Z"/><path d="M1299,569.64a15.28,15.28,0,0,1-7.76-2.12l.6-3.52a12.37,12.37,0,0,0,7.36,2.4c3.56,0,5.76-1.6,5.76-4.64,0-3.28-2.2-5.24-7.4-5.24h-1.24l-.52-3.2h2c4.48,0,6.6-1.6,6.6-4.52,0-2.32-1.68-4-5.08-4a11.21,11.21,0,0,0-7.16,2.6l-.52-3.36a12.57,12.57,0,0,1,7.84-2.48c6.08,0,8.6,3.44,8.6,7.08,0,3.36-2,5.28-5,6.24,3.48,1,5.48,3.08,5.48,6.84C1308.65,566.48,1304.93,569.64,1299,569.64Z"/><rect x="712.11" y="355.28" width="24.18" height="43.01" transform="translate(1540.54 380.42) rotate(152.77)"/><rect class="cls-2" x="713.76" y="358.41" width="18.59" height="32.3" transform="translate(1537.35 376.74) rotate(152.77)"/><circle class="cls-2" cx="732.37" cy="392.67" r="2.39" transform="translate(-98.51 378.65) rotate(-27.23)"/><rect class="cls-5" x="704.94" y="334.51" width="14.69" height="14.69" rx="7.34" ry="7.34"/><rect class="cls-5" x="683.93" y="294.07" width="28.35" height="28.35" rx="14.13" ry="14.13"/><circle class="cls-5" cx="653.23" cy="229.46" r="65.54" transform="translate(-2.34 6.77) rotate(-0.59)"/><path class="cls-2" d="M613.56,211.06V197.95h1.79v13.11Z"/><path class="cls-2" d="M626.32,211.25c-2.43,0-4.22-1.69-4.22-4.71s1.9-4.73,4.26-4.73a4.91,4.91,0,0,1,3,.84l-.25,1.65a4.1,4.1,0,0,0-2.74-1c-1.48,0-2.53,1.12-2.53,3.23s1.12,3.25,2.72,3.25a3.72,3.72,0,0,0,2.64-1l.25,1.52A4.78,4.78,0,0,1,626.32,211.25Z"/><path class="cls-2" d="M637,211.06l-.19-1.22a4.27,4.27,0,0,1-3.19,1.41,2.42,2.42,0,0,1-2.66-2.53c0-2.26,1.94-3.15,5.72-3.55v-.38c0-1.14-.68-1.54-1.73-1.54a7.79,7.79,0,0,0-3.13.78l-.23-1.46a8.78,8.78,0,0,1,3.51-.76c2.2,0,3.27.89,3.27,2.91v6.34Zm-.32-4.6c-3.34.32-4,1.24-4,2.17a1.19,1.19,0,0,0,1.35,1.22,3.85,3.85,0,0,0,2.7-1.27Z"/><path class="cls-2" d="M646.71,211.06v-6.17c0-.93-.4-1.56-1.39-1.56a3.88,3.88,0,0,0-2.62,1.46v6.27H641V202h1.35l.21,1.31a4.87,4.87,0,0,1,3.21-1.5,2.41,2.41,0,0,1,2.62,2.66v6.59Z"/><path class="cls-2" d="M660.9,211.06v-6.17c0-.93-.4-1.56-1.39-1.56a3.88,3.88,0,0,0-2.62,1.46v6.27H655.2V197.61l1.69-.27v5.85a4.71,4.71,0,0,1,3.08-1.39,2.41,2.41,0,0,1,2.62,2.66v6.59Z"/><path class="cls-2" d="M668.9,211.25c-2.36,0-4.2-1.42-4.2-4.75,0-2.91,1.71-4.69,4-4.69,2.64,0,3.86,2,3.86,4.54v.36h-6.16c.06,2.11,1.06,3.1,2.64,3.1a5,5,0,0,0,3.25-1.29l.25,1.52A5.64,5.64,0,0,1,668.9,211.25Zm-2.43-5.81h4.37c-.21-1.46-.86-2.3-2.17-2.3C667.63,203.14,666.73,203.9,666.47,205.43Z"/><path class="cls-2" d="M674.83,211.06V197.61l1.69-.27v13.72Z"/><path class="cls-2" d="M683.28,211.17a6.36,6.36,0,0,1-2.28-.4v3.57l-1.69.25V202h1.35l.21,1.31a3.81,3.81,0,0,1,2.94-1.5c2,0,3.57,1.44,3.57,4.46C687.39,209.58,685.49,211.17,683.28,211.17Zm.27-7.87a3.24,3.24,0,0,0-2.55,1.6v4.35a4.35,4.35,0,0,0,2.2.49c1.42,0,2.47-1.16,2.47-3.4C685.68,204.37,684.78,203.31,683.55,203.31Z"/><path class="cls-2" d="M691.34,206.92l-1.1.25-.46-9.21h2Zm-1.5,4.14V208.8h1.9v2.26Z"/><path class="cls-2" d="M603.71,233.86v-6h-6.63v6H595.3V220.75h1.79v5.43h6.63v-5.43h1.79v13.11Z"/><path class="cls-2" d="M612.09,234c-2.36,0-4.2-1.42-4.2-4.75,0-2.91,1.71-4.69,4-4.69,2.64,0,3.86,2,3.86,4.54v.36h-6.15c.06,2.11,1.06,3.1,2.64,3.1a5,5,0,0,0,3.25-1.29l.25,1.52A5.64,5.64,0,0,1,612.09,234Zm-2.43-5.81H614c-.21-1.46-.85-2.3-2.17-2.3C610.82,225.94,609.93,226.7,609.66,228.23Z"/><path class="cls-2" d="M619.58,228.5v5.36h-1.69V224.8h1.35l.28,1.84a4,4,0,0,1,3.17-2l.27,1.62A4.15,4.15,0,0,0,619.58,228.5Z"/><path class="cls-2" d="M628,234c-2.36,0-4.2-1.42-4.2-4.75,0-2.91,1.71-4.69,4-4.69,2.64,0,3.86,2,3.86,4.54v.36h-6.15c.06,2.11,1.06,3.1,2.64,3.1a5,5,0,0,0,3.25-1.29l.25,1.52A5.64,5.64,0,0,1,628,234Zm-2.43-5.81H630c-.21-1.46-.85-2.3-2.17-2.3C626.76,225.94,625.87,226.7,625.6,228.23Z"/><path class="cls-2" d="M634.44,225.18l-.95-.23.55-4.2h2Z"/><path class="cls-2" d="M640.33,234a7.43,7.43,0,0,1-3.31-.86l.25-1.6a5.66,5.66,0,0,0,3.19,1c1.16,0,1.84-.44,1.84-1.2s-.51-1.14-2.15-1.54c-2.13-.53-3-1.18-3-2.79,0-1.44,1.22-2.51,3.19-2.51a7.32,7.32,0,0,1,3,.61l-.27,1.6a5.78,5.78,0,0,0-2.75-.78c-1,0-1.56.4-1.56,1s.46,1,1.88,1.31c2.24.57,3.25,1.21,3.25,2.94S642.66,234,640.33,234Z"/><path class="cls-2" d="M655.49,221.07a8.52,8.52,0,0,1,1.92.59l-.25,1.6a6.28,6.28,0,0,0-2-.76l-.63,4.12c2.3.82,3.36,1.86,3.36,3.72,0,2.2-1.56,3.59-4.31,3.59h-.17l-.36,2.24-1.22-.27.3-2.07a8.94,8.94,0,0,1-2.56-.8l.23-1.6a7.74,7.74,0,0,0,2.62,1l.7-4.62c-2.26-.82-3.25-1.65-3.25-3.5,0-2.22,1.67-3.36,4-3.36h.25l.23-1.42,1.25.29Zm-2.07,5.15.61-3.89h-.29c-1.52,0-2.28.7-2.28,1.82S651.92,225.67,653.42,226.22Zm.91,2-.68,4.35h.11c1.79,0,2.6-.76,2.6-2.09C656.36,229.49,656,228.8,654.33,228.18Z"/><path class="cls-2" d="M663.35,234.1a6.76,6.76,0,0,1-3.71-1l.27-1.61a6,6,0,0,0,3.5,1.1c1.67,0,2.94-.87,2.94-2.68,0-1.5-.95-2.47-2.72-2.47a5.31,5.31,0,0,0-2.18.42l-1.27-.29.46-6.57h6.76l.23,1.52h-5.57l-.29,3.74a6.62,6.62,0,0,1,2.05-.32c2.62,0,4.24,1.56,4.24,3.88C668.06,232.57,666,234.1,663.35,234.1Z"/><path class="cls-2" d="M674.73,234.1c-2.94,0-4.92-2.41-4.92-6.67s2-6.67,4.92-6.67,4.9,2.41,4.9,6.67S677.66,234.1,674.73,234.1Zm0-11.83c-2,0-3.17,1.82-3.17,5.17s1.2,5.17,3.17,5.17,3.15-1.82,3.15-5.17S676.71,222.27,674.73,222.27Z"/><path class="cls-2" d="M689.53,221.81c-.78,0-1.25.32-1.25,1.16v1.82h1.82l.21,1.42h-2v7.64h-1.65v-7.64h-1.37V224.8h1.37v-2c0-1.8,1.2-2.49,2.81-2.49.27,0,.49,0,.72,0l.25,1.54A4.94,4.94,0,0,0,689.53,221.81Z"/><path class="cls-2" d="M695.5,234c-2.41,0-4.16-1.73-4.16-4.71s1.75-4.73,4.16-4.73,4.22,1.75,4.22,4.73S697.93,234,695.5,234Zm0-8c-1.63,0-2.45,1.41-2.45,3.31s.86,3.31,2.45,3.31,2.51-1.41,2.51-3.31S697.13,226,695.5,226Z"/><path class="cls-2" d="M703.56,228.5v5.36h-1.69V224.8h1.35l.29,1.84a4,4,0,0,1,3.17-2l.27,1.62A4.15,4.15,0,0,0,703.56,228.5Z"/><path class="cls-2" d="M637.22,244.61c-.78,0-1.25.32-1.25,1.16v1.82h1.82L638,249h-2v7.64h-1.65V249h-1.37V247.6h1.37v-2c0-1.8,1.2-2.49,2.81-2.49.27,0,.49,0,.72,0l.25,1.54A4.94,4.94,0,0,0,637.22,244.61Z"/><path class="cls-2" d="M643.18,256.85c-2.41,0-4.16-1.73-4.16-4.71s1.75-4.73,4.16-4.73,4.22,1.75,4.22,4.73S645.62,256.85,643.18,256.85Zm0-8c-1.63,0-2.45,1.41-2.45,3.31s.85,3.31,2.45,3.31,2.51-1.41,2.51-3.31S644.82,248.83,643.18,248.83Z"/><path class="cls-2" d="M653.2,256.85c-2.41,0-4.16-1.73-4.16-4.71s1.75-4.73,4.16-4.73,4.22,1.75,4.22,4.73S655.63,256.85,653.2,256.85Zm0-8c-1.63,0-2.45,1.41-2.45,3.31s.86,3.31,2.45,3.31,2.51-1.41,2.51-3.31S654.83,248.83,653.2,248.83Z"/><path class="cls-2" d="M665.78,256.66l-.21-1.31a3.75,3.75,0,0,1-2.94,1.5c-2,0-3.57-1.42-3.57-4.46,0-3.31,1.9-4.9,4.1-4.9a6.36,6.36,0,0,1,2.28.4v-4.67l1.69-.27v13.72Zm-.34-7.24a4.28,4.28,0,0,0-2.22-.51c-1.42,0-2.45,1.16-2.45,3.4,0,2,.89,3,2.11,3a3.24,3.24,0,0,0,2.56-1.6Z"/><path class="cls-2" d="M669.67,256.66V254.4h1.88v2.26Z"/><path class="cls-6" d="M117.7,601.17v24.75c0,34.38,21.22,50.69,71,50.66h534.1c35.53.83,70.52-16.29,70.52-50.66V601.17"/><path class="cls-7" d="M90,601.17v20.56c0,43.84,29.81,78.68,82.59,78.65H915c49.16,0,96.16-34.81,96.16-78.65V601.17"/><path class="cls-8" d="M64.52,601.17v27.65c0,53.69,39.65,96.34,95.32,96.31H1108.4c59.94,0,121.66-42.63,121.66-96.31V601.17"/><polygon class="cls-5" points="117.7 582.97 133.47 610.27 101.94 610.27 117.7 582.97"/><polygon class="cls-4" points="89.97 582.97 105.74 610.27 74.21 610.27 89.97 582.97"/><polygon class="cls-3" points="64.52 582.97 80.28 610.27 48.76 610.27 64.52 582.97"/><path d="M441.59,634.25a17.9,17.9,0,0,1,4,1.24l-.52,3.36a13.23,13.23,0,0,0-4.12-1.6l-1.32,8.68c4.84,1.72,7.08,3.92,7.08,7.84,0,4.64-3.28,7.56-9.08,7.56h-.36l-.76,4.72-2.56-.56.64-4.36a18.75,18.75,0,0,1-5.4-1.68l.48-3.36a16.26,16.26,0,0,0,5.52,2l1.48-9.72c-4.76-1.72-6.84-3.48-6.84-7.36,0-4.68,3.52-7.08,8.52-7.08h.52l.48-3,2.64.6Zm-4.36,10.84,1.28-8.2h-.6c-3.2,0-4.8,1.48-4.8,3.84C433.11,642.81,434.07,643.92,437.23,645.08Zm1.92,4.12-1.44,9.16h.24c3.76,0,5.48-1.6,5.48-4.4C443.43,652,442.63,650.52,439.15,649.2Z"/><path d="M462.67,634.25a17.9,17.9,0,0,1,4,1.24l-.52,3.36a13.23,13.23,0,0,0-4.12-1.6l-1.32,8.68c4.84,1.72,7.08,3.92,7.08,7.84,0,4.64-3.28,7.56-9.08,7.56h-.36l-.76,4.72-2.56-.56.64-4.36a18.75,18.75,0,0,1-5.4-1.68l.48-3.36a16.26,16.26,0,0,0,5.52,2l1.48-9.72c-4.76-1.72-6.84-3.48-6.84-7.36,0-4.68,3.52-7.08,8.52-7.08H460l.48-3,2.64.6Zm-4.36,10.84,1.28-8.2H459c-3.2,0-4.8,1.48-4.8,3.84C454.19,642.81,455.15,643.92,458.31,645.08Zm1.92,4.12-1.44,9.16H459c3.76,0,5.48-1.6,5.48-4.4C464.51,652,463.71,650.52,460.23,649.2Z"/><path class="cls-9" d="M103.62,77.24h-4.9V60h5c6,0,9.07,3.55,9.07,8.6S109.54,77.24,103.62,77.24Zm.18-15.12h-2.72v13h2.65c4.15,0,6.65-2.1,6.65-6.5S107.74,62.12,103.8,62.12Z"/><path class="cls-9" d="M117.27,62.92a1.42,1.42,0,0,1-1.42-1.4,1.44,1.44,0,0,1,1.42-1.42,1.42,1.42,0,0,1,1.4,1.42A1.4,1.4,0,0,1,117.27,62.92Zm-1.12,14.32V65.32h2.22V77.24Z"/><path class="cls-9" d="M125.67,77.49a9.76,9.76,0,0,1-4.35-1.12l.32-2.1a7.45,7.45,0,0,0,4.2,1.38c1.52,0,2.42-.57,2.42-1.57s-.67-1.5-2.82-2c-2.8-.7-3.92-1.55-3.92-3.68,0-1.9,1.6-3.3,4.2-3.3a9.63,9.63,0,0,1,3.92.8l-.35,2.1a7.58,7.58,0,0,0-3.62-1c-1.35,0-2,.53-2,1.38s.6,1.25,2.47,1.72c2.95.75,4.27,1.6,4.27,3.87S128.74,77.49,125.67,77.49Z"/><path class="cls-9" d="M140.32,77.24l-.25-1.6a5.62,5.62,0,0,1-4.2,1.85,3.18,3.18,0,0,1-3.5-3.32c0-3,2.55-4.15,7.52-4.67V69c0-1.5-.9-2-2.27-2a10.25,10.25,0,0,0-4.12,1l-.3-1.92a11.56,11.56,0,0,1,4.62-1c2.9,0,4.3,1.18,4.3,3.82v8.35Zm-.42-6c-4.4.43-5.32,1.63-5.32,2.85a1.56,1.56,0,0,0,1.77,1.6A5.06,5.06,0,0,0,139.89,74Z"/><path class="cls-9" d="M149.19,77.49a9.76,9.76,0,0,1-4.35-1.12l.32-2.1a7.45,7.45,0,0,0,4.2,1.38c1.52,0,2.42-.57,2.42-1.57s-.67-1.5-2.82-2c-2.8-.7-3.92-1.55-3.92-3.68,0-1.9,1.6-3.3,4.2-3.3a9.63,9.63,0,0,1,3.92.8l-.35,2.1a7.58,7.58,0,0,0-3.62-1c-1.35,0-2,.53-2,1.38s.6,1.25,2.47,1.72c2.95.75,4.27,1.6,4.27,3.87S152.27,77.49,149.19,77.49Z"/><path class="cls-9" d="M160.67,77.44c-2.1,0-3.47-.75-3.47-3.15v-7.1h-1.8V65.32h1.8v-4l2.17-.32v4.3h2.57l.3,1.88h-2.87v6.7c0,1,.4,1.58,1.65,1.58a5.84,5.84,0,0,0,1-.08l.3,1.9A8.35,8.35,0,0,1,160.67,77.44Z"/><path class="cls-9" d="M169.79,77.49c-3.1,0-5.52-1.87-5.52-6.25,0-3.82,2.25-6.17,5.25-6.17,3.47,0,5.07,2.67,5.07,6v.47h-8.1c.07,2.77,1.4,4.07,3.47,4.07a6.56,6.56,0,0,0,4.27-1.7l.32,2A7.42,7.42,0,0,1,169.79,77.49Zm-3.2-7.65h5.75c-.27-1.92-1.12-3-2.85-3C168.12,66.82,166.94,67.82,166.59,69.84Z"/><path class="cls-9" d="M179.64,70.19v7h-2.22V65.32h1.77l.38,2.42a5.28,5.28,0,0,1,4.17-2.67l.35,2.13A5.45,5.45,0,0,0,179.64,70.19Z"/><path class="cls-9" d="M185.52,71.22V69h6.15v2.17Z"/><path class="cls-9" d="M198.39,77.49A9.76,9.76,0,0,1,194,76.37l.32-2.1a7.45,7.45,0,0,0,4.2,1.38c1.52,0,2.42-.57,2.42-1.57s-.67-1.5-2.82-2c-2.8-.7-3.92-1.55-3.92-3.68,0-1.9,1.6-3.3,4.2-3.3a9.63,9.63,0,0,1,3.92.8L202,68a7.59,7.59,0,0,0-3.62-1c-1.35,0-2,.53-2,1.38s.6,1.25,2.47,1.72c2.95.75,4.27,1.6,4.27,3.87S201.47,77.49,198.39,77.49Z"/><path class="cls-9" d="M209.87,77.44c-2.1,0-3.47-.75-3.47-3.15v-7.1h-1.8V65.32h1.8v-4l2.17-.32v4.3h2.57l.3,1.88h-2.87v6.7c0,1,.4,1.58,1.65,1.58a5.84,5.84,0,0,0,1-.08l.3,1.9A8.35,8.35,0,0,1,209.87,77.44Z"/><path class="cls-9" d="M216.47,70.19v7h-2.22V65.32H216l.38,2.42a5.28,5.28,0,0,1,4.17-2.67l.35,2.13A5.45,5.45,0,0,0,216.47,70.19Z"/><path class="cls-9" d="M231.09,77.24l-.27-1.72a6.34,6.34,0,0,1-4.22,2,3.16,3.16,0,0,1-3.45-3.5V65.32h2.22v8.12c0,1.22.52,2,1.82,2a5.1,5.1,0,0,0,3.45-1.92V65.32h2.22V77.24Z"/><path class="cls-9" d="M241.34,77.49c-3.2,0-5.55-2.22-5.55-6.2s2.5-6.22,5.6-6.22a6.47,6.47,0,0,1,3.9,1.1L245,68.34a5.39,5.39,0,0,0-3.6-1.33c-1.95,0-3.32,1.47-3.32,4.25s1.47,4.27,3.57,4.27a4.9,4.9,0,0,0,3.47-1.32l.32,2A6.3,6.3,0,0,1,241.34,77.49Z"/><path class="cls-9" d="M255.72,77.42,250.42,71v6.25h-2.22V59.55l2.22-.35V70.32l4.62-5h2.67l-5,5.27L258.14,77Z"/><path class="cls-9" d="M267.94,70.19v7h-2.22V65.32h1.77l.38,2.42A5.28,5.28,0,0,1,272,65.07l.35,2.13A5.45,5.45,0,0,0,267.94,70.19Z"/><path class="cls-9" d="M279.07,77.49c-3.1,0-5.52-1.87-5.52-6.25,0-3.82,2.25-6.17,5.25-6.17,3.47,0,5.07,2.67,5.07,6v.47h-8.1c.07,2.77,1.4,4.07,3.47,4.07a6.56,6.56,0,0,0,4.27-1.7l.32,2A7.42,7.42,0,0,1,279.07,77.49Zm-3.2-7.65h5.75c-.27-1.92-1.12-3-2.85-3C277.39,66.82,276.22,67.82,275.87,69.84Z"/><path class="cls-9" d="M290.94,81.79c-3.1,0-5.57-1-5.57-3.07,0-1.22.85-2.17,2.52-3.07a1.53,1.53,0,0,1-.75-1.25c0-.57.45-1.12,1.25-1.62a3.86,3.86,0,0,1-2.22-3.55c0-2.57,2.15-4.15,4.57-4.15a4.94,4.94,0,0,1,3.07,1l3-.95.33,2-2.27.22a3.85,3.85,0,0,1,.47,1.85c0,2.55-2.15,4.1-4.57,4.1a5.15,5.15,0,0,1-.9-.07c-.35.22-.6.5-.6.72,0,.42.42.53,2.52.9l.85.15c2.52.45,4.1,1.25,4.1,3.1C296.76,80.62,294,81.79,290.94,81.79Zm-1.45-5.47c-1.37.7-2,1.4-2,2.22s1.22,1.65,3.55,1.65,3.62-.8,3.62-1.8c0-.72-.55-1.22-2.25-1.53L291,76.62C290.34,76.49,290,76.44,289.49,76.32Zm1.25-9.62a2.41,2.41,0,0,0-2.42,2.6,2.34,2.34,0,0,0,2.42,2.45,2.52,2.52,0,0,0,0-5Z"/><path class="cls-9" d="M300.59,62.92a1.42,1.42,0,0,1-1.42-1.4,1.44,1.44,0,0,1,1.42-1.42,1.42,1.42,0,0,1,1.4,1.42A1.4,1.4,0,0,1,300.59,62.92Zm-1.12,14.32V65.32h2.22V77.24Z"/><path class="cls-9" d="M310.17,77.49c-3.17,0-5.47-2.27-5.47-6.2s2.3-6.22,5.47-6.22,5.55,2.3,5.55,6.22S313.36,77.49,310.17,77.49Zm0-10.55c-2.15,0-3.22,1.85-3.22,4.35s1.12,4.35,3.22,4.35,3.3-1.85,3.3-4.35S312.31,66.94,310.17,66.94Z"/><path class="cls-9" d="M326,77.24V69.12c0-1.22-.52-2-1.82-2A5.1,5.1,0,0,0,320.77,69v8.25h-2.22V65.32h1.77l.27,1.72a6.4,6.4,0,0,1,4.22-2,3.17,3.17,0,0,1,3.45,3.5v8.67Z"/><path class="cls-9" d="M858.08,77.42,852.81,70H851v7.27h-2.35V60h4.7c3.52,0,5.72,1.75,5.72,4.9a4.65,4.65,0,0,1-3.77,4.77l5.12,7.22Zm-4.8-15.35H851V68h2c2.27,0,3.72-1,3.72-3S855.58,62.07,853.28,62.07Z"/><path class="cls-9" d="M867,77.49c-3.1,0-5.52-1.87-5.52-6.25,0-3.82,2.25-6.17,5.25-6.17,3.47,0,5.07,2.67,5.07,6v.47h-8.1c.07,2.77,1.4,4.07,3.47,4.07a6.56,6.56,0,0,0,4.27-1.7l.32,2A7.42,7.42,0,0,1,867,77.49Zm-3.2-7.65h5.75c-.28-1.92-1.12-3-2.85-3C865.34,66.82,864.16,67.82,863.81,69.84Z"/><path class="cls-9" d="M878.26,77.49a9.76,9.76,0,0,1-4.35-1.12l.32-2.1a7.45,7.45,0,0,0,4.2,1.38c1.52,0,2.42-.57,2.42-1.57s-.67-1.5-2.82-2c-2.8-.7-3.92-1.55-3.92-3.68,0-1.9,1.6-3.3,4.2-3.3a9.63,9.63,0,0,1,3.92.8l-.35,2.1a7.58,7.58,0,0,0-3.62-1c-1.35,0-2,.53-2,1.38s.6,1.25,2.47,1.72c2.95.75,4.27,1.6,4.27,3.87S881.33,77.49,878.26,77.49Z"/><path class="cls-9" d="M889.73,77.44c-2.1,0-3.47-.75-3.47-3.15v-7.1h-1.8V65.32h1.8v-4l2.17-.32v4.3H891l.3,1.88h-2.87v6.7c0,1,.4,1.58,1.65,1.58a5.85,5.85,0,0,0,1-.08l.3,1.9A8.36,8.36,0,0,1,889.73,77.44Z"/><path class="cls-9" d="M904.41,77.49c-3.17,0-5.47-2.27-5.47-6.2s2.3-6.22,5.47-6.22,5.55,2.3,5.55,6.22S907.61,77.49,904.41,77.49Zm0-10.55c-2.15,0-3.22,1.85-3.22,4.35s1.12,4.35,3.22,4.35,3.3-1.85,3.3-4.35S906.56,66.94,904.41,66.94Z"/><path class="cls-9" d="M917.28,61.4c-1,0-1.65.43-1.65,1.53v2.4H918l.28,1.88h-2.67v10h-2.17v-10h-1.8V65.32h1.8V62.69c0-2.37,1.58-3.27,3.7-3.27.35,0,.65,0,1,.05l.32,2A6.62,6.62,0,0,0,917.28,61.4Z"/><path class="cls-9" d="M930.11,77.44c-2.1,0-3.47-.75-3.47-3.15v-7.1h-1.8V65.32h1.8v-4l2.17-.32v4.3h2.57l.3,1.88h-2.87v6.7c0,1,.4,1.58,1.65,1.58a5.84,5.84,0,0,0,1-.08l.3,1.9A8.35,8.35,0,0,1,930.11,77.44Z"/><path class="cls-9" d="M942,77.24V69.12c0-1.22-.52-2-1.82-2A5.11,5.11,0,0,0,936.71,69v8.25h-2.22V59.55l2.22-.35v7.7a6.19,6.19,0,0,1,4-1.82,3.17,3.17,0,0,1,3.45,3.5v8.67Z"/><path class="cls-9" d="M952.51,77.49c-3.1,0-5.52-1.87-5.52-6.25,0-3.82,2.25-6.17,5.25-6.17,3.47,0,5.07,2.67,5.07,6v.47h-8.1c.08,2.77,1.4,4.07,3.47,4.07a6.56,6.56,0,0,0,4.27-1.7l.33,2A7.42,7.42,0,0,1,952.51,77.49Zm-3.2-7.65h5.75c-.27-1.92-1.12-3-2.85-3C950.83,66.82,949.66,67.82,949.31,69.84Z"/><path class="cls-9" d="M977.38,77.24h-1.75l-2.75-9-2.72,9h-1.72l-3.85-11.75,2.12-.35L969.33,74,972,65.32h1.87L976.5,74l2.55-8.65h2.17Z"/><path class="cls-9" d="M988.08,77.49c-3.17,0-5.47-2.27-5.47-6.2s2.3-6.22,5.47-6.22,5.55,2.3,5.55,6.22S991.28,77.49,988.08,77.49Zm0-10.55c-2.15,0-3.22,1.85-3.22,4.35s1.12,4.35,3.22,4.35,3.3-1.85,3.3-4.35S990.23,66.94,988.08,66.94Z"/><path class="cls-9" d="M998.68,70.19v7h-2.22V65.32h1.77l.38,2.42a5.28,5.28,0,0,1,4.17-2.67l.35,2.13A5.45,5.45,0,0,0,998.68,70.19Z"/><path class="cls-9" d="M1005.58,77.24V59.55l2.22-.35v18Z"/><path class="cls-9" d="M1019.65,77.24l-.27-1.72a4.93,4.93,0,0,1-3.87,2c-2.57,0-4.7-1.87-4.7-5.87,0-4.35,2.5-6.45,5.4-6.45a8.41,8.41,0,0,1,3,.53V59.55l2.22-.35v18Zm-.45-9.52a5.63,5.63,0,0,0-2.92-.68c-1.87,0-3.22,1.53-3.22,4.47,0,2.62,1.17,4,2.77,4a4.26,4.26,0,0,0,3.37-2.1Z"/><rect class="cls-10" x="13.75" y="42.7" width="399.12" height="3.57" transform="translate(426.61 88.98) rotate(180)"/><rect class="cls-10" x="564.45" y="42.7" width="740.9" height="3.57" transform="translate(1869.79 88.98) rotate(-180)"/></svg>