<?xml version="1.0" encoding="utf-8"?>
<!-- Generator: Adobe Illustrator 23.1.1, SVG Export Plug-In . SVG Version: 6.00 Build 0)  -->
<svg version="1.1" id="Layer_1" xmlns="http://www.w3.org/2000/svg" xmlns:xlink="http://www.w3.org/1999/xlink" x="0px" y="0px"
	 viewBox="0 0 617 421" style="enable-background:new 0 0 617 421;" xml:space="preserve">
<style type="text/css">
	.st0{fill:none;stroke:#000066;stroke-width:2;stroke-miterlimit:10;}
	.st1{fill:none;stroke:#E42354;stroke-width:2;stroke-miterlimit:10;}
</style>
<path d="M319.8,49.7V60h-1.6V49.7h-3.7v-1.5h8.9l0.2,1.5H319.8z"/>
<path d="M325.7,50.2c-0.6,0-1-0.4-1-1s0.4-1,1-1s1,0.4,1,1S326.2,50.2,325.7,50.2z M324.9,60v-8.1h1.5V60H324.9z"/>
<path d="M338.9,60v-5.5c0-0.8-0.3-1.4-1.2-1.4c-0.9,0.1-1.7,0.6-2.3,1.3V60h-1.5v-5.5c0-0.8-0.3-1.4-1.2-1.4
	c-0.9,0.1-1.7,0.6-2.3,1.3V60h-1.5v-8.1h1.2l0.2,1.2c0.7-0.8,1.7-1.3,2.8-1.3c0.9-0.1,1.8,0.4,2.1,1.3c0.7-0.8,1.8-1.3,2.9-1.3
	c1.2-0.1,2.2,0.7,2.3,1.9c0,0.2,0,0.3,0,0.5V60H338.9z"/>
<path d="M346.1,60.1c-2.1,0-3.8-1.3-3.8-4.2c0-2.6,1.5-4.2,3.6-4.2c2.4,0,3.5,1.8,3.5,4.1v0.3h-5.5c0,1.9,1,2.8,2.4,2.8
	c1.1,0,2.1-0.4,2.9-1.2l0.2,1.4C348.4,59.8,347.2,60.2,346.1,60.1z M343.9,55h3.9c-0.2-1.3-0.8-2.1-1.9-2.1
	C344.9,52.9,344.1,53.6,343.9,55z"/>
<path d="M355.2,60V48.2h1.6v10.3h4.2l0.2,1.5L355.2,60z"/>
<path d="M363.8,50.2c-0.6,0-1-0.4-1-1s0.4-1,1-1s1,0.4,1,1S364.4,50.2,363.8,50.2z M363.1,60v-8.1h1.5V60H363.1z"/>
<path d="M377.1,60v-5.5c0-0.8-0.3-1.4-1.2-1.4c-0.9,0.1-1.7,0.6-2.3,1.3V60h-1.5v-5.5c0-0.8-0.3-1.4-1.2-1.4
	c-0.9,0.1-1.7,0.6-2.3,1.3V60h-1.5v-8.1h1.2l0.2,1.2c0.7-0.8,1.7-1.3,2.8-1.3c0.9-0.1,1.8,0.4,2.1,1.3c0.7-0.8,1.8-1.3,2.9-1.3
	c1.2-0.1,2.2,0.7,2.3,1.9c0,0.2,0,0.3,0,0.5V60H377.1z"/>
<path d="M381.8,50.2c-0.6,0-1-0.4-1-1s0.4-1,1-1s1,0.4,1,1S382.4,50.2,381.8,50.2z M381.1,60v-8.1h1.5V60H381.1z"/>
<path d="M387.8,60.1c-1.4,0-2.4-0.5-2.4-2.1v-4.8h-1.2v-1.3h1.2v-2.7l1.5-0.2v2.9h1.8l0.2,1.3h-2v4.6c0,0.7,0.3,1.1,1.1,1.1
	c0.2,0,0.5,0,0.7,0L389,60C388.6,60.1,388.2,60.1,387.8,60.1L387.8,60.1z"/>
<path class="st0" d="M308.6,41h85c2.2,0,4,1.8,4,4v19c0,2.2-1.8,4-4,4h-85c-2.2,0-4-1.8-4-4v-19C304.6,42.8,306.4,41,308.6,41z"/>
<path d="M439.5,109.3h-2.8V97.6h2.8c2.6,0,3.8,1.2,3.8,3c0,1.1-0.7,2.1-1.7,2.4c1.3,0.3,2.2,1.5,2.2,2.8
	C443.8,108.2,442.2,109.3,439.5,109.3L439.5,109.3z M439.5,98.9h-1.2v3.6h1.1c1.5,0,2.4-0.7,2.4-1.8S441.1,99,439.5,98.9L439.5,98.9
	z M439.6,103.8h-1.3v4.1h1.4c1.7,0,2.6-0.7,2.6-2S441.3,103.8,439.6,103.8L439.6,103.8z"/>
<path d="M446.6,99.6c-0.6,0-1-0.4-1-1s0.4-1,1-1s1,0.4,1,1S447.2,99.6,446.6,99.6z M445.8,109.3v-8.1h1.5v8.1H445.8z"/>
<path d="M453.1,109.5c-2.2,0-3.7-1.6-3.7-4.2s1.6-4.2,3.7-4.2s3.8,1.6,3.8,4.2S455.3,109.5,453.1,109.5z M453.1,102.3
	c-1.5,0-2.2,1.3-2.2,3s0.8,3,2.2,3s2.2-1.3,2.2-3S454.6,102.3,453.1,102.3L453.1,102.3z"/>
<path d="M468.8,109.3v-5.5c0-0.8-0.3-1.4-1.2-1.4c-0.9,0.1-1.7,0.6-2.3,1.3v5.6h-1.5v-5.5c0-0.8-0.3-1.4-1.2-1.4
	c-0.9,0.1-1.7,0.6-2.3,1.3v5.6h-1.5v-8.1h1.2l0.2,1.2c0.7-0.8,1.7-1.3,2.8-1.3c0.9-0.1,1.8,0.4,2.1,1.3c0.7-0.8,1.8-1.3,2.9-1.3
	c1.2-0.1,2.2,0.7,2.3,1.9c0,0.2,0,0.3,0,0.5v5.9H468.8z"/>
<path d="M476,109.5c-2.1,0-3.8-1.3-3.8-4.2c0-2.6,1.5-4.2,3.6-4.2c2.4,0,3.5,1.8,3.5,4.1v0.3h-5.5c0,1.9,1,2.8,2.4,2.8
	c1.1,0,2.1-0.4,2.9-1.2l0.2,1.4C478.3,109.1,477.2,109.5,476,109.5z M473.8,104.3h3.9c-0.2-1.3-0.8-2.1-1.9-2.1
	C474.8,102.2,474,102.9,473.8,104.3L473.8,104.3z"/>
<path d="M483.9,109.4c-1.4,0-2.4-0.5-2.4-2.1v-4.8h-1.2v-1.3h1.2v-2.7l1.5-0.2v2.9h1.8l0.2,1.3h-2v4.6c0,0.7,0.3,1.1,1.1,1.1
	c0.2,0,0.5,0,0.7-0.1l0.2,1.3C484.6,109.4,484.3,109.4,483.9,109.4L483.9,109.4z"/>
<path d="M488.4,104.5v4.8h-1.5v-8.1h1.2l0.2,1.7c0.6-1,1.6-1.7,2.8-1.8l0.2,1.4C490.1,102.6,489,103.3,488.4,104.5L488.4,104.5z"/>
<path d="M493.8,99.6c-0.6,0-1-0.4-1-1s0.4-1,1-1s1,0.4,1,1S494.4,99.6,493.8,99.6z M493.1,109.3v-8.1h1.5v8.1H493.1z"/>
<path d="M500.5,109.5c-2.2,0-3.8-1.5-3.8-4.2s1.7-4.2,3.8-4.2c0.9,0,1.9,0.2,2.6,0.8l-0.2,1.5c-0.7-0.6-1.6-0.9-2.5-0.9
	c-1.3,0-2.3,1-2.3,2.9s1,2.9,2.4,2.9c0.9,0,1.7-0.3,2.4-0.9l0.2,1.4C502.4,109.2,501.5,109.5,500.5,109.5L500.5,109.5z"/>
<path d="M507.6,109.5c-1,0-2.1-0.3-3-0.8l0.2-1.4c0.8,0.6,1.8,0.9,2.9,0.9c1,0,1.6-0.4,1.6-1.1s-0.5-1-1.9-1.4
	c-1.9-0.5-2.7-1.1-2.7-2.5c0-1.3,1.1-2.2,2.9-2.2c0.9,0,1.8,0.2,2.7,0.5l-0.2,1.4c-0.7-0.4-1.6-0.7-2.5-0.7c-0.9,0-1.4,0.4-1.4,0.9
	s0.4,0.8,1.7,1.2c2,0.5,2.9,1.1,2.9,2.6S509.7,109.5,507.6,109.5L507.6,109.5z"/>
<path class="st0" d="M429.9,90.3h85c2.2,0,4,1.8,4,4v19c0,2.2-1.8,4-4,4h-85c-2.2,0-4-1.8-4-4v-19C425.9,92.1,427.7,90.3,429.9,90.3
	z"/>
<path d="M119.2,177.4h-1.4l-4.5-11.6l1.6-0.3l3.6,9.8l3.6-9.6h1.7L119.2,177.4z"/>
<path d="M125.9,167.6c-0.6,0-1-0.4-1-1c0-0.6,0.4-1,1-1s1,0.4,1,1C126.9,167.1,126.4,167.6,125.9,167.6z M125.1,177.3v-8.1h1.5v8.1
	H125.1z"/>
<path d="M132.4,177.5c-2.1,0-3.8-1.3-3.8-4.2c0-2.6,1.5-4.2,3.6-4.2c2.4,0,3.5,1.8,3.5,4.1v0.3h-5.5c0,1.9,1,2.8,2.4,2.8
	c1.1,0,2.1-0.4,2.9-1.2l0.2,1.4C134.7,177.1,133.6,177.5,132.4,177.5L132.4,177.5z M130.2,172.3h3.9c-0.2-1.3-0.8-2.1-1.9-2.1
	C131.3,170.2,130.5,170.9,130.2,172.3z"/>
<path d="M145.4,177.3h-1.2l-1.9-6.1l-1.8,6.1h-1.2l-2.6-8l1.4-0.2l1.8,6l1.8-5.9h1.3l1.8,5.9l1.7-5.9h1.5L145.4,177.3z"/>
<path d="M152.7,177.5c-2.1,0-3.8-1.3-3.8-4.2c0-2.6,1.5-4.2,3.6-4.2c2.4,0,3.4,1.8,3.4,4.1v0.3h-5.5c0.1,1.9,1,2.8,2.4,2.8
	c1.1,0,2.1-0.4,2.9-1.2l0.2,1.4C155,177.1,153.8,177.5,152.7,177.5L152.7,177.5z M150.5,172.3h3.9c-0.2-1.3-0.8-2.1-1.9-2.1
	C151.5,170.2,150.7,170.9,150.5,172.3z"/>
<path d="M159.4,172.5v4.8h-1.5v-8.1h1.2l0.2,1.6c0.6-1,1.6-1.7,2.8-1.8l0.2,1.4C161.1,170.6,159.9,171.3,159.4,172.5L159.4,172.5z"
	/>
<path class="st0" d="M95.2,158.3h85c2.2,0,4,1.8,4,4v19c0,2.2-1.8,4-4,4h-85c-2.2,0-4-1.8-4-4v-19C91.2,160.1,93,158.3,95.2,158.3z"
	/>
<path d="M206.5,220.6h-1.2v4.8h-1.6v-11.7h3.1c2.5,0,4,1.2,4,3.4C210.8,219.4,209.1,220.6,206.5,220.6L206.5,220.6z M206.7,215.1
	h-1.4v4.1h1.3c1.6,0,2.6-0.7,2.6-2.1S208.3,215.1,206.7,215.1L206.7,215.1z"/>
<path d="M215.3,225.6c-2.1,0-3.8-1.3-3.8-4.2c0-2.6,1.5-4.2,3.6-4.2c2.4,0,3.4,1.8,3.4,4.1v0.3h-5.5c0.1,1.9,1,2.8,2.4,2.8
	c1.1,0,2.1-0.4,2.9-1.2l0.2,1.4C217.7,225.2,216.5,225.6,215.3,225.6L215.3,225.6z M213.2,220.4h3.9c-0.2-1.3-0.8-2.1-1.9-2.1
	C214.2,218.3,213.4,219,213.2,220.4L213.2,220.4z"/>
<path d="M222,220.6v4.8h-1.5v-8.1h1.2l0.3,1.7c0.6-1,1.6-1.7,2.8-1.8l0.2,1.4C223.8,218.7,222.6,219.4,222,220.6L222,220.6z"/>
<path d="M229.7,214.6c-0.7,0-1.1,0.3-1.1,1v1.6h1.6l0.2,1.3h-1.8v6.8h-1.5v-6.8h-1.2v-1.3h1.2v-1.8c0-1.6,1.1-2.2,2.5-2.2h0.6
	l0.2,1.4C230.2,214.6,229.9,214.6,229.7,214.6L229.7,214.6z"/>
<path d="M235,225.6c-2.2,0-3.7-1.5-3.7-4.2c0-2.7,1.6-4.2,3.7-4.2s3.8,1.6,3.8,4.2C238.8,224,237.2,225.6,235,225.6z M235,218.4
	c-1.5,0-2.2,1.3-2.2,3c0,1.7,0.8,3,2.2,3s2.2-1.3,2.2-3C237.2,219.6,236.5,218.4,235,218.4z"/>
<path d="M242.2,220.6v4.8h-1.5v-8.1h1.2l0.2,1.6c0.6-1,1.6-1.7,2.8-1.8l0.2,1.4C243.9,218.7,242.8,219.4,242.2,220.6L242.2,220.6z"
	/>
<path d="M256.8,225.4v-5.5c0-0.8-0.3-1.4-1.2-1.4c-0.9,0.1-1.7,0.6-2.3,1.3v5.6h-1.5v-5.5c0-0.8-0.3-1.4-1.2-1.4
	c-0.9,0.1-1.7,0.6-2.3,1.3v5.6h-1.5v-8.1h1.2l0.2,1.2c0.7-0.8,1.7-1.3,2.8-1.3c0.9-0.1,1.8,0.4,2.1,1.3c0.7-0.8,1.8-1.3,2.9-1.3
	c1.2-0.1,2.2,0.7,2.3,1.9c0,0.2,0,0.3,0,0.5v5.9L256.8,225.4z"/>
<path d="M265.5,225.4l-0.2-1.1c-0.7,0.8-1.8,1.3-2.9,1.3c-1.2,0.1-2.3-0.8-2.4-1.9c0-0.1,0-0.2,0-0.3c0-2,1.7-2.8,5.1-3.2v-0.3
	c0-1-0.6-1.4-1.6-1.4c-1,0-1.9,0.3-2.8,0.7l-0.2-1.3c1-0.4,2.1-0.7,3.1-0.7c2,0,2.9,0.8,2.9,2.6v5.7L265.5,225.4z M265.3,221.3
	c-3,0.3-3.6,1.1-3.6,1.9c0,0.6,0.4,1.1,1,1.1c0.1,0,0.1,0,0.2,0c0.9,0,1.8-0.5,2.4-1.1V221.3z"/>
<path d="M274.2,225.4v-5.5c0-0.8-0.4-1.4-1.2-1.4c-0.9,0.1-1.8,0.6-2.3,1.3v5.6h-1.5v-8.1h1.2l0.2,1.2c0.8-0.8,1.8-1.3,2.9-1.3
	c1.2-0.1,2.2,0.8,2.4,1.9c0,0.1,0,0.3,0,0.4v5.9L274.2,225.4z"/>
<path d="M281.5,225.6c-2.2,0-3.8-1.5-3.8-4.2c0-2.7,1.7-4.2,3.8-4.2c0.9,0,1.9,0.2,2.6,0.8l-0.2,1.5c-0.7-0.6-1.6-0.9-2.5-0.9
	c-1.3,0-2.3,1-2.3,2.9c0,1.9,1,2.9,2.4,2.9c0.9,0,1.7-0.3,2.4-0.9l0.2,1.4C283.4,225.3,282.5,225.6,281.5,225.6L281.5,225.6z"/>
<path d="M289.3,225.6c-2.1,0-3.8-1.3-3.8-4.2c0-2.6,1.5-4.2,3.6-4.2c2.4,0,3.5,1.8,3.5,4.1v0.3H287c0,1.9,1,2.8,2.4,2.8
	c1.1,0,2.1-0.4,2.9-1.2l0.2,1.4C291.6,225.2,290.4,225.6,289.3,225.6L289.3,225.6z M287.1,220.4h3.9c-0.2-1.3-0.8-2.1-1.9-2.1
	C288.1,218.3,287.3,219,287.1,220.4L287.1,220.4z"/>
<path d="M303.1,225.4l-0.2-1.1c-0.7,0.8-1.8,1.3-2.9,1.3c-1.2,0.1-2.3-0.8-2.4-1.9c0-0.1,0-0.2,0-0.3c0-2,1.7-2.8,5.1-3.2v-0.3
	c0-1-0.6-1.4-1.5-1.4c-1,0-1.9,0.3-2.8,0.7l-0.2-1.3c1-0.4,2.1-0.7,3.1-0.7c2,0,2.9,0.8,2.9,2.6v5.7L303.1,225.4z M302.8,221.3
	c-3,0.3-3.6,1.1-3.6,1.9c0,0.6,0.4,1.1,1,1.1c0.1,0,0.1,0,0.2,0c0.9,0,1.8-0.5,2.4-1.1L302.8,221.3z"/>
<path d="M309.6,228.5c-2.1,0-3.8-0.7-3.8-2.1c0-0.8,0.6-1.5,1.7-2.1c-0.3-0.2-0.5-0.5-0.5-0.9c0-0.4,0.3-0.8,0.9-1.1
	c-0.9-0.4-1.5-1.4-1.5-2.4c0-1.6,1.4-2.9,3-2.8c0,0,0.1,0,0.1,0c0.8,0,1.5,0.2,2.1,0.7l2.1-0.6l0.2,1.4l-1.5,0.1
	c0.2,0.4,0.3,0.8,0.3,1.3c0,1.6-1.4,2.8-3,2.8c-0.1,0-0.1,0-0.2,0c-0.2,0-0.4,0-0.6-0.1c-0.2,0.1-0.4,0.3-0.4,0.5
	c0,0.1,0.3,0.4,1.7,0.6l0.6,0.1c1.7,0.3,2.8,0.9,2.8,2.1C313.5,227.7,311.7,228.5,309.6,228.5L309.6,228.5z M308.6,224.8
	c-0.9,0.5-1.4,1-1.4,1.5c0,0.5,0.8,1.1,2.4,1.1s2.5-0.5,2.5-1.2c0-0.5-0.4-0.8-1.5-1l-1-0.2C309.1,224.9,308.9,224.9,308.6,224.8
	L308.6,224.8z M309.4,218.2c-0.9,0-1.6,0.7-1.7,1.6c0,0,0,0.1,0,0.1c0,0.9,0.6,1.6,1.5,1.7c0,0,0.1,0,0.1,0c0.9-0.1,1.7-0.9,1.6-1.8
	C310.9,219,310.3,218.3,309.4,218.2L309.4,218.2z"/>
<path d="M318.1,228.5c-2.1,0-3.8-0.7-3.8-2.1c0-0.8,0.6-1.5,1.7-2.1c-0.3-0.2-0.5-0.5-0.5-0.9c0-0.4,0.3-0.8,0.9-1.1
	c-0.9-0.4-1.5-1.4-1.5-2.4c0-1.6,1.4-2.9,3-2.8c0,0,0.1,0,0.1,0c0.8,0,1.5,0.2,2.1,0.7l2.1-0.6l0.2,1.4l-1.5,0.1
	c0.2,0.4,0.3,0.8,0.3,1.3c0,1.6-1.4,2.8-3,2.8c-0.1,0-0.1,0-0.2,0c-0.2,0-0.4,0-0.6-0.1c-0.2,0.1-0.4,0.3-0.4,0.5
	c0,0.1,0.3,0.4,1.7,0.6l0.6,0.1c1.7,0.3,2.8,0.9,2.8,2.1C322.1,227.7,320.2,228.5,318.1,228.5L318.1,228.5z M317.1,224.8
	c-0.9,0.5-1.4,1-1.4,1.5c0,0.5,0.8,1.1,2.4,1.1s2.5-0.5,2.5-1.2c0-0.5-0.4-0.8-1.5-1l-1-0.2C317.7,224.9,317.5,224.9,317.1,224.8
	L317.1,224.8z M318,218.2c-0.9,0-1.6,0.7-1.7,1.6c0,0,0,0.1,0,0.1c0,0.9,0.6,1.6,1.5,1.7c0,0,0.1,0,0.1,0c0.9-0.1,1.7-0.9,1.6-1.8
	C319.5,219,318.8,218.3,318,218.2L318,218.2z"/>
<path d="M325.3,220.6v4.8h-1.5v-8.1h1.2l0.2,1.6c0.6-1,1.6-1.7,2.8-1.8l0.2,1.4C327,218.7,325.9,219.4,325.3,220.6L325.3,220.6z"/>
<path d="M332.9,225.6c-2.1,0-3.8-1.3-3.8-4.2c0-2.6,1.5-4.2,3.6-4.2c2.4,0,3.5,1.8,3.5,4.1v0.3h-5.5c0,1.9,1,2.8,2.4,2.8
	c1.1,0,2.1-0.4,2.9-1.2l0.2,1.4C335.2,225.2,334.1,225.6,332.9,225.6L332.9,225.6z M330.7,220.4h3.9c-0.2-1.3-0.8-2.1-1.9-2.1
	C331.8,218.3,331,219,330.7,220.4z"/>
<path d="M341,228.5c-2.1,0-3.8-0.7-3.8-2.1c0-0.8,0.6-1.5,1.7-2.1c-0.3-0.2-0.5-0.5-0.5-0.9c0-0.4,0.3-0.8,0.9-1.1
	c-0.9-0.4-1.5-1.4-1.5-2.4c0-1.6,1.4-2.9,3-2.8c0,0,0.1,0,0.1,0c0.8,0,1.5,0.2,2.1,0.7l2.1-0.6l0.2,1.4l-1.5,0.1
	c0.2,0.4,0.3,0.8,0.3,1.3c0,1.6-1.4,2.8-3,2.8c-0.1,0-0.1,0-0.2,0c-0.2,0-0.4,0-0.6,0c-0.2,0.1-0.4,0.3-0.4,0.5
	c0,0.2,0.3,0.4,1.7,0.6l0.6,0.1c1.7,0.3,2.8,0.9,2.8,2.1C344.9,227.7,343.1,228.5,341,228.5L341,228.5z M340,224.8
	c-0.9,0.5-1.4,1-1.4,1.5c0,0.5,0.8,1.1,2.4,1.1s2.5-0.5,2.5-1.2c0-0.5-0.4-0.8-1.5-1l-1-0.2C340.6,224.9,340.3,224.9,340,224.8
	L340,224.8z M340.9,218.2c-0.9,0-1.6,0.7-1.7,1.6c0,0,0,0.1,0,0.1c0,0.9,0.6,1.6,1.5,1.7c0,0,0.1,0,0.1,0c0.9-0.1,1.7-0.9,1.6-1.8
	C342.4,219,341.7,218.3,340.9,218.2L340.9,218.2z"/>
<path d="M351.5,225.4l-0.2-1.1c-0.7,0.8-1.8,1.3-2.9,1.3c-1.2,0.1-2.3-0.8-2.4-1.9c0-0.1,0-0.2,0-0.3c0-2,1.7-2.8,5.1-3.2v-0.3
	c0-1-0.6-1.4-1.5-1.4c-1,0-1.9,0.3-2.8,0.7l-0.2-1.3c1-0.4,2.1-0.7,3.1-0.7c2,0,2.9,0.8,2.9,2.6v5.7L351.5,225.4z M351.2,221.3
	c-3,0.3-3.6,1.1-3.6,1.9c0,0.6,0.4,1.1,1,1.1c0.1,0,0.1,0,0.2,0c0.9,0,1.8-0.5,2.4-1.1V221.3z"/>
<path d="M357.8,225.5c-1.4,0-2.4-0.5-2.4-2.1v-4.8h-1.2v-1.3h1.2v-2.7l1.5-0.2v2.9h1.8l0.2,1.3h-2v4.6c0,0.7,0.3,1.1,1.1,1.1
	c0.2,0,0.5,0,0.7,0l0.2,1.3C358.5,225.5,358.2,225.5,357.8,225.5L357.8,225.5z"/>
<path d="M364,225.6c-2.2,0-3.7-1.5-3.7-4.2c0-2.7,1.6-4.2,3.7-4.2s3.8,1.6,3.8,4.2C367.8,224,366.1,225.6,364,225.6z M364,218.4
	c-1.5,0-2.2,1.3-2.2,3c0,1.7,0.8,3,2.2,3s2.2-1.3,2.2-3C366.2,219.6,365.4,218.4,364,218.4z"/>
<path d="M371.2,220.6v4.8h-1.5v-8.1h1.2l0.2,1.6c0.6-1,1.6-1.7,2.8-1.8l0.2,1.4C372.9,218.7,371.7,219.4,371.2,220.6L371.2,220.6z"
	/>
<path class="st0" d="M200.9,206.4h175c2.2,0,4,1.8,4,4v19c0,2.2-1.8,4-4,4h-175c-2.2,0-4-1.8-4-4v-19
	C196.9,208.2,198.7,206.4,200.9,206.4z"/>
<path d="M64.7,274.3v-1.2l6.7-9.2h-6.2l-0.2-1.4h8.3v1.2l-6.7,9.2h6.6l0.2,1.4L64.7,274.3z"/>
<path d="M78.2,274.5c-2.2,0-3.7-1.5-3.7-4.2s1.6-4.2,3.7-4.2s3.8,1.6,3.8,4.2S80.4,274.5,78.2,274.5z M78.2,267.3
	c-1.5,0-2.2,1.3-2.2,3s0.8,3,2.2,3s2.2-1.3,2.2-3S79.7,267.3,78.2,267.3L78.2,267.3z"/>
<path d="M93.9,274.3v-5.5c0-0.8-0.3-1.4-1.2-1.4c-0.9,0.1-1.7,0.6-2.3,1.3v5.6h-1.5v-5.5c0-0.8-0.3-1.4-1.2-1.4
	c-0.9,0.1-1.7,0.6-2.3,1.3v5.6h-1.5v-8.1h1.2l0.2,1.2c0.7-0.8,1.7-1.3,2.8-1.3c0.9-0.1,1.8,0.4,2.1,1.3c0.7-0.8,1.8-1.3,2.9-1.3
	c1.2-0.1,2.2,0.7,2.3,1.9c0,0.2,0,0.3,0,0.5v5.9L93.9,274.3z"/>
<path d="M101,274.4c-1.1,0-2.1-0.2-3.2-0.5v-11.6l1.5-0.2v5.1c0.6-0.7,1.5-1.1,2.4-1.1c1.8,0,3.2,1.3,3.2,4
	C104.9,273,103.3,274.4,101,274.4z M101.6,267.4c-0.9,0.1-1.7,0.6-2.2,1.3v4.1c0.5,0.2,1.1,0.3,1.6,0.3c1.6,0,2.5-0.9,2.5-3
	C103.4,268.3,102.6,267.4,101.6,267.4L101.6,267.4z"/>
<path d="M107.7,264.6c-0.6,0-1-0.4-1-1c0-0.6,0.4-1,1-1c0.6,0,1,0.4,1,1C108.7,264.1,108.3,264.6,107.7,264.6z M107,274.3v-8.1h1.5
	v8.1H107z"/>
<path d="M114.3,274.5c-2.1,0-3.8-1.3-3.8-4.2c0-2.6,1.5-4.2,3.6-4.2c2.4,0,3.4,1.8,3.4,4.1v0.3H112c0.1,1.9,1,2.8,2.4,2.8
	c1.1,0,2.1-0.4,2.9-1.2l0.2,1.4C116.6,274.1,115.5,274.5,114.3,274.5z M112.1,269.3h3.9c-0.2-1.3-0.8-2.1-1.9-2.1
	C113.2,267.2,112.4,267.9,112.1,269.3z"/>
<path d="M128.4,277.5v-4.1c-0.6,0.7-1.5,1.1-2.4,1.1c-1.8,0-3.2-1.3-3.2-4c0-3,1.6-4.4,4-4.4c1.1,0,2.1,0.2,3.2,0.5v10.6
	L128.4,277.5z M128.4,267.7c-0.5-0.2-1.1-0.3-1.6-0.3c-1.6,0-2.5,1-2.5,3c0,1.8,0.8,2.7,1.9,2.7c0.9-0.1,1.7-0.6,2.2-1.3
	L128.4,267.7z"/>
<path d="M137.6,274.3l-0.2-1.2c-0.8,0.8-1.8,1.3-2.9,1.3c-1.2,0.1-2.2-0.7-2.4-1.9c0-0.2,0-0.3,0-0.5v-5.9h1.5v5.5
	c0,0.8,0.4,1.4,1.2,1.4c0.9-0.1,1.8-0.6,2.3-1.3v-5.6h1.5v8.1L137.6,274.3z"/>
<path d="M144.5,274.5c-2.1,0-3.8-1.3-3.8-4.2c0-2.6,1.5-4.2,3.6-4.2c2.4,0,3.4,1.8,3.4,4.1v0.3h-5.5c0.1,1.9,1,2.8,2.4,2.8
	c1.1,0,2.1-0.4,2.9-1.2l0.2,1.4C146.9,274.1,145.7,274.5,144.5,274.5z M142.4,269.3h3.9c-0.2-1.3-0.8-2.1-1.9-2.1
	C143.4,267.2,142.6,267.9,142.4,269.3z"/>
<path d="M155.1,274.3l-0.2-1.2c-0.8,0.8-1.8,1.3-2.9,1.3c-1.2,0.1-2.2-0.7-2.4-1.9c0-0.2,0-0.3,0-0.5v-5.9h1.5v5.5
	c0,0.8,0.4,1.4,1.2,1.4c0.9-0.1,1.8-0.6,2.4-1.3v-5.6h1.5v8.1L155.1,274.3z"/>
<path d="M162,274.5c-2.1,0-3.8-1.3-3.8-4.2c0-2.6,1.5-4.2,3.6-4.2c2.4,0,3.4,1.8,3.4,4.1v0.3h-5.5c0,1.9,1,2.8,2.4,2.8
	c1.1,0,2.1-0.4,2.9-1.2l0.2,1.4C164.3,274.1,163.2,274.5,162,274.5z M159.8,269.3h3.9c-0.2-1.3-0.8-2.1-1.9-2.1
	C160.8,267.2,160,267.9,159.8,269.3L159.8,269.3z"/>
<path d="M89.5,301.1h-1.8l1.4-4l0.9,0.2L89.5,301.1z M92.6,301.1h-1.8l1.4-4l0.8,0.2L92.6,301.1z"/>
<path d="M103.1,309h-1.2l-1.9-6.1l-1.9,6.1H97l-2.6-8l1.4-0.2l1.8,6l1.8-5.9h1.3l1.8,5.9l1.7-5.9h1.5L103.1,309z"/>
<path d="M110.4,309.1c-2.2,0-3.7-1.5-3.7-4.2s1.6-4.2,3.7-4.2s3.8,1.6,3.8,4.2S112.6,309.1,110.4,309.1z M110.4,302
	c-1.5,0-2.2,1.3-2.2,3s0.8,3,2.2,3s2.2-1.3,2.2-3S111.9,302,110.4,302L110.4,302z"/>
<path d="M117.6,304.2v4.8h-1.5v-8.1h1.2l0.2,1.6c0.6-1,1.6-1.7,2.8-1.8l0.2,1.4C119.3,302.2,118.2,303,117.6,304.2z"/>
<path d="M127.4,309l-0.2-1.2c-0.6,0.8-1.6,1.3-2.6,1.3c-1.8,0-3.2-1.3-3.2-4c0-3,1.7-4.4,3.7-4.4c0.7,0,1.4,0.1,2,0.4V297l1.5-0.2
	V309L127.4,309z M127.1,302.5c-0.6-0.3-1.3-0.5-2-0.5c-1.3,0-2.2,1-2.2,3c0,1.8,0.8,2.7,1.9,2.7c1-0.1,1.8-0.6,2.3-1.4L127.1,302.5z
	"/>
<path d="M132.8,309V299l-2.4,0.9l-0.2-1.2l2.8-1.3h1.3V309H132.8z"/>
<path d="M137.6,301.2l-0.8-0.2l0.5-3.8h1.7L137.6,301.2z M140.7,301.2l-0.8-0.2l0.5-3.8h1.8L140.7,301.2z"/>
<path d="M88,322.4h-1.8l1.4-4l0.8,0.2L88,322.4z M91.1,322.4h-1.8l1.4-4l0.9,0.2L91.1,322.4z"/>
<path d="M101.6,330.3h-1.2l-1.9-6.1l-1.8,6.1h-1.2l-2.6-8l1.4-0.2l1.8,6l1.8-5.9h1.3l1.8,5.9l1.7-5.9h1.5L101.6,330.3z"/>
<path d="M108.9,330.5c-2.2,0-3.7-1.5-3.7-4.2s1.6-4.2,3.7-4.2s3.8,1.6,3.8,4.2S111.1,330.5,108.9,330.5z M108.9,323.3
	c-1.5,0-2.2,1.3-2.2,3s0.8,3,2.2,3s2.2-1.3,2.2-3S110.4,323.3,108.9,323.3L108.9,323.3z"/>
<path d="M116.1,325.5v4.8h-1.5v-8.1h1.2l0.2,1.6c0.6-1,1.6-1.7,2.8-1.8l0.2,1.5C117.8,323.6,116.7,324.3,116.1,325.5L116.1,325.5z"
	/>
<path d="M125.9,330.3l-0.2-1.2c-0.6,0.8-1.6,1.3-2.6,1.3c-1.8,0-3.2-1.3-3.2-4c0-3,1.7-4.4,3.7-4.4c0.7,0,1.4,0.1,2,0.4v-4.2
	l1.5-0.2v12.3L125.9,330.3z M125.6,323.8c-0.6-0.3-1.3-0.5-2-0.5c-1.3,0-2.2,1-2.2,3c0,1.8,0.8,2.7,1.9,2.7c1-0.1,1.8-0.6,2.3-1.4
	L125.6,323.8z"/>
<path d="M129.1,330.3v-1.2l4.2-4.4c1-1.1,1.5-1.8,1.5-2.8c0-1.3-0.8-1.9-2.1-1.9c-1.2,0-2.3,0.5-3.1,1.4l-0.2-1.5
	c0.9-0.8,2.2-1.3,3.4-1.3c2.2,0,3.6,1.3,3.6,3.2c0,1.4-0.6,2.3-2,3.8l-3.3,3.3h5.3l0.2,1.4L129.1,330.3z"/>
<path d="M139.1,322.5l-0.8-0.2l0.5-3.8h1.8L139.1,322.5z M142.2,322.5l-0.8-0.2l0.5-3.8h1.8L142.2,322.5z"/>
<path d="M88.1,343.7h-1.8l1.4-4l0.8,0.2L88.1,343.7z M91.2,343.7h-1.8l1.4-4l0.9,0.2L91.2,343.7z"/>
<path d="M101.8,351.6h-1.2l-1.9-6.1l-1.8,6.1h-1.2l-2.6-8l1.4-0.2l1.8,6l1.8-5.9h1.3l1.8,5.9l1.7-5.9h1.5L101.8,351.6z"/>
<path d="M109.1,351.8c-2.2,0-3.7-1.5-3.7-4.2s1.6-4.2,3.7-4.2s3.8,1.6,3.8,4.2S111.2,351.8,109.1,351.8z M109.1,344.6
	c-1.5,0-2.2,1.3-2.2,3s0.8,3,2.2,3s2.2-1.3,2.2-3S110.5,344.6,109.1,344.6z"/>
<path d="M116.3,346.9v4.8h-1.5v-8.1h1.2l0.2,1.6c0.6-1,1.6-1.7,2.8-1.8l0.2,1.4C118,344.9,116.9,345.7,116.3,346.9z"/>
<path d="M126.1,351.6l-0.2-1.2c-0.6,0.8-1.6,1.3-2.6,1.3c-1.8,0-3.2-1.3-3.2-4c0-3,1.7-4.4,3.7-4.4c0.7,0,1.4,0.1,2,0.4v-4.2
	l1.5-0.2v12.3L126.1,351.6z M125.8,345.2c-0.6-0.3-1.3-0.5-2-0.5c-1.3,0-2.2,1-2.2,3c0,1.8,0.8,2.7,1.9,2.7c1-0.1,1.8-0.6,2.3-1.4
	L125.8,345.2z"/>
<path d="M132.4,351.9c-1.2,0-2.3-0.3-3.3-0.9l0.3-1.5c0.9,0.7,2,1,3.1,1c1.5,0,2.4-0.7,2.4-2s-0.9-2.2-3.1-2.2h-0.5L131,345h0.9
	c1.9,0,2.8-0.7,2.8-1.9c0-1-0.7-1.7-2.2-1.7c-1.1,0-2.2,0.4-3,1.1l-0.3-1.5c1-0.7,2.1-1,3.3-1c2.6,0,3.7,1.5,3.7,3
	c0,1.3-0.9,2.4-2.1,2.6c1.4,0.2,2.4,1.5,2.3,2.9C136.4,350.5,134.9,351.9,132.4,351.9L132.4,351.9z"/>
<path d="M139,343.9l-0.9-0.2l0.5-3.8h1.8L139,343.9z M142.1,343.9l-0.9-0.2l0.5-3.8h1.8L142.1,343.9z"/>
<path d="M87.5,365.1h-1.8l1.4-4l0.8,0.2L87.5,365.1z M90.6,365.1h-1.7l1.4-4l0.8,0.2L90.6,365.1z"/>
<path d="M101.2,373H100l-1.9-6.1l-1.9,6.1h-1.2l-2.6-8l1.4-0.2l1.8,6l1.8-5.9h1.3l1.8,5.9l1.7-5.9h1.5L101.2,373z"/>
<path d="M108.4,373.1c-2.2,0-3.7-1.5-3.7-4.2s1.6-4.2,3.7-4.2s3.8,1.6,3.8,4.3S110.6,373.1,108.4,373.1L108.4,373.1z M108.4,366
	c-1.5,0-2.2,1.3-2.2,3s0.8,3,2.2,3s2.2-1.3,2.2-3S109.9,366,108.4,366L108.4,366z"/>
<path d="M115.6,368.2v4.8h-1.5v-8.1h1.2l0.2,1.6c0.6-1,1.6-1.7,2.8-1.8l0.2,1.5C117.4,366.2,116.2,367,115.6,368.2z"/>
<path d="M125.5,373l-0.2-1.2c-0.6,0.8-1.6,1.3-2.6,1.3c-1.8,0-3.2-1.3-3.2-4c0-3,1.7-4.4,3.7-4.4c0.7,0,1.4,0.1,2,0.4V361l1.5-0.2
	V373L125.5,373z M125.2,366.5c-0.6-0.3-1.3-0.5-2-0.5c-1.3,0-2.2,1-2.2,3c0,1.8,0.8,2.7,1.9,2.7c1-0.1,1.8-0.6,2.3-1.4L125.2,366.5z
	"/>
<path d="M135.6,370.4v2.6h-1.4v-2.6h-5.7v-1.1l5.3-7.8h1.8v7.7h1.8v1.3L135.6,370.4z M134.2,363.2l-4.1,6h4.1V363.2z"/>
<path d="M139.6,365.2l-0.8-0.2l0.5-3.8h1.8L139.6,365.2z M142.7,365.2l-0.8-0.2l0.5-3.8h1.8L142.7,365.2z"/>
<path d="M88,386.4h-1.7l1.4-4l0.8,0.2L88,386.4z M91.1,386.4h-1.7l1.4-4l0.9,0.2L91.1,386.4z"/>
<path d="M101.7,394.3h-1.2l-1.9-6.1l-1.8,6.1h-1.2l-2.6-8l1.4-0.2l1.8,6l1.8-5.9h1.3l1.8,5.9l1.7-5.9h1.5L101.7,394.3z"/>
<path d="M109,394.5c-2.2,0-3.7-1.5-3.7-4.2s1.6-4.2,3.7-4.2s3.8,1.6,3.8,4.2S111.1,394.5,109,394.5z M109,387.3
	c-1.5,0-2.2,1.3-2.2,3s0.8,3,2.2,3s2.2-1.3,2.2-3S110.4,387.3,109,387.3L109,387.3z"/>
<path d="M116.2,389.5v4.8h-1.5v-8.1h1.2l0.2,1.6c0.6-1.1,1.7-1.7,2.9-1.8l0.2,1.5C117.9,387.6,116.8,388.3,116.2,389.5L116.2,389.5z
	"/>
<path d="M126,394.3l-0.2-1.2c-0.6,0.8-1.6,1.3-2.6,1.3c-1.8,0-3.2-1.3-3.2-4c0-3,1.7-4.4,3.7-4.4c0.7,0,1.4,0.1,2,0.4v-4.2l1.5-0.2
	v12.3L126,394.3z M125.7,387.8c-0.6-0.3-1.3-0.5-2-0.5c-1.3,0-2.2,1-2.2,3c0,1.8,0.8,2.7,1.9,2.7c1-0.1,1.8-0.6,2.3-1.4L125.7,387.8
	z"/>
<path d="M132.4,394.5c-1.2,0-2.3-0.3-3.3-0.9l0.2-1.4c0.9,0.7,2,1,3.1,1c1.3,0.2,2.4-0.7,2.6-2c0-0.1,0-0.3,0-0.4
	c0.1-1.2-0.9-2.2-2-2.2c-0.1,0-0.3,0-0.4,0c-0.7,0-1.4,0.1-2,0.4l-1.1-0.2l0.4-5.9h6.1l0.2,1.4h-5l-0.2,3.3c0.6-0.2,1.2-0.3,1.8-0.3
	c2.4,0,3.8,1.4,3.8,3.5C136.6,393.1,134.8,394.5,132.4,394.5L132.4,394.5z"/>
<path d="M139.1,386.5l-0.8-0.2l0.5-3.8h1.8L139.1,386.5z M142.2,386.5l-0.8-0.2l0.5-3.8h1.8L142.2,386.5z"/>
<path class="st0" d="M61.8,255.3h106.3c2.2,0,4,1.8,4,4v19c0,2.2-1.8,4-4,4H61.8c-2.2,0-4-1.8-4-4v-19
	C57.8,257.1,59.6,255.3,61.8,255.3z"/>
<path d="M209.6,293v-1.2l6.7-9.1h-6.2l-0.2-1.4h8.3v1.2l-6.7,9.1h6.6l0.2,1.4H209.6z"/>
<path d="M223.1,293.1c-2.2,0-3.7-1.5-3.7-4.2s1.6-4.2,3.7-4.2s3.8,1.6,3.8,4.2S225.3,293.1,223.1,293.1z M223.1,286
	c-1.5,0-2.2,1.3-2.2,3s0.8,3,2.2,3s2.2-1.3,2.2-3S224.6,286,223.1,286L223.1,286z"/>
<path d="M238.8,293v-5.5c0-0.8-0.3-1.4-1.2-1.4c-0.9,0.1-1.7,0.6-2.3,1.3v5.6h-1.5v-5.5c0-0.8-0.3-1.4-1.2-1.4
	c-0.9,0.1-1.7,0.6-2.3,1.3v5.6h-1.5v-8.1h1.2l0.2,1.2c0.7-0.8,1.7-1.3,2.8-1.3c0.9-0.1,1.8,0.4,2.1,1.3c0.7-0.8,1.8-1.3,2.9-1.3
	c1.2-0.1,2.2,0.7,2.3,1.9c0,0.2,0,0.3,0,0.5v5.9L238.8,293z"/>
<path d="M245.9,293.1c-1.1,0-2.1-0.2-3.2-0.5V281l1.5-0.2v5.1c0.6-0.7,1.5-1.1,2.4-1.1c1.8,0,3.2,1.3,3.2,4
	C249.8,291.6,248.2,293.1,245.9,293.1L245.9,293.1z M246.4,286.1c-0.9,0.1-1.7,0.6-2.2,1.3v4.1c0.5,0.2,1.1,0.3,1.6,0.3
	c1.6,0,2.5-0.9,2.5-3C248.3,287,247.5,286,246.4,286.1L246.4,286.1z"/>
<path d="M252.6,283.2c-0.6,0-1-0.4-1-1s0.4-1,1-1s1,0.4,1,1S253.2,283.2,252.6,283.2z M251.9,293v-8.1h1.5v8.1L251.9,293z"/>
<path d="M259.2,293.1c-2.1,0-3.8-1.3-3.8-4.2c0-2.6,1.5-4.2,3.6-4.2c2.4,0,3.5,1.8,3.5,4.1v0.3H257c0.1,1.9,1,2.8,2.4,2.8
	c1.1,0,2.1-0.4,2.9-1.2l0.2,1.4C261.6,292.8,260.4,293.2,259.2,293.1L259.2,293.1z M257,288h3.9c-0.2-1.3-0.8-2.1-1.9-2.1
	C258.1,285.9,257.3,286.6,257,288z"/>
<path d="M266.8,293.1c-1,0-2.1-0.3-3-0.8l0.2-1.4c0.8,0.6,1.8,0.9,2.9,0.9c1,0,1.7-0.4,1.7-1.1s-0.5-1-1.9-1.4
	c-1.9-0.5-2.7-1-2.7-2.5c0-1.3,1.1-2.2,2.9-2.2c0.9,0,1.8,0.2,2.7,0.5l-0.2,1.4c-0.7-0.4-1.6-0.7-2.5-0.7c-0.9,0-1.4,0.4-1.4,0.9
	s0.4,0.9,1.7,1.2c2,0.5,2.9,1.1,2.9,2.6S268.9,293.1,266.8,293.1L266.8,293.1z"/>
<path class="st0" d="M197.2,274h85c2.2,0,4,1.8,4,4v19c0,2.2-1.8,4-4,4h-85c-2.2,0-4-1.8-4-4v-19C193.2,275.8,195,274,197.2,274z"/>
<path d="M501.5,307.9h-1.3v4.8h-1.6V301h3.1c2.5,0,4,1.2,4,3.4C505.8,306.7,504.1,307.9,501.5,307.9L501.5,307.9z M501.7,302.4h-1.5
	v4.1h1.3c1.6,0,2.5-0.7,2.5-2.1S503.3,302.4,501.7,302.4z"/>
<path d="M508.9,307.9v4.8h-1.5v-8.1h1.2l0.2,1.6c0.6-1,1.6-1.7,2.8-1.8l0.2,1.4C510.7,306,509.5,306.7,508.9,307.9L508.9,307.9z"/>
<path d="M516.5,312.9c-2.2,0-3.7-1.5-3.7-4.2s1.6-4.2,3.7-4.2c2.2,0,3.8,1.6,3.8,4.3S518.6,312.9,516.5,312.9z M516.5,305.7
	c-1.5,0-2.2,1.3-2.2,3s0.8,3,2.2,3c1.4,0,2.2-1.3,2.2-3S517.9,305.7,516.5,305.7z"/>
<path d="M532.2,312.7v-5.5c0-0.8-0.3-1.4-1.2-1.4c-0.9,0.1-1.7,0.6-2.3,1.3v5.6h-1.5v-5.5c0-0.8-0.3-1.4-1.2-1.4
	c-0.9,0.1-1.7,0.6-2.3,1.3v5.6h-1.5v-8.1h1.2l0.2,1.2c0.7-0.8,1.7-1.3,2.8-1.3c0.9-0.1,1.8,0.4,2.1,1.3c0.7-0.8,1.8-1.3,2.9-1.3
	c1.2-0.1,2.2,0.7,2.3,1.9c0,0.2,0,0.3,0,0.5v5.9L532.2,312.7z"/>
<path d="M539.6,312.8c-0.7,0-1.4-0.1-2-0.4v3.2l-1.5,0.2v-11.3h1.2l0.2,1.2c0.6-0.8,1.6-1.3,2.6-1.3c1.8,0,3.2,1.3,3.2,4
	C543.3,311.4,541.5,312.8,539.6,312.8L539.6,312.8z M539.8,305.8c-0.9,0.1-1.8,0.6-2.3,1.4v3.9c0.6,0.3,1.3,0.5,2,0.4
	c1.3,0,2.2-1,2.2-3C541.7,306.7,540.9,305.8,539.8,305.8L539.8,305.8z"/>
<path d="M547.9,312.8c-1.4,0-2.4-0.5-2.4-2.1v-4.8h-1.2v-1.3h1.2v-2.7l1.5-0.2v2.9h1.8l0.2,1.3h-2v4.6c0,0.7,0.3,1.1,1.1,1.1
	c0.2,0,0.5,0,0.7,0l0.2,1.3C548.7,312.8,548.3,312.8,547.9,312.8L547.9,312.8z"/>
<path d="M507.3,336.8c-0.6,0-1.1-0.1-1.7-0.3v2.6l-1.2,0.2V330h1l0.2,1c0.5-0.7,1.3-1.1,2.2-1.1c1.4,0,2.6,1.1,2.6,3.3
	C510.3,335.6,508.9,336.8,507.3,336.8z M507.5,331c-0.8,0.1-1.5,0.5-1.9,1.2v3.2c0.5,0.3,1.1,0.4,1.6,0.4c1,0,1.8-0.9,1.8-2.5
	C509,331.8,508.3,331,507.5,331L507.5,331z"/>
<path d="M514.6,336.8c-1.7,0-3.1-1-3.1-3.5c0-2.1,1.3-3.5,2.9-3.5c2,0,2.8,1.5,2.8,3.4v0.3h-4.5c0,1.5,0.8,2.3,2,2.3
	c0.9,0,1.7-0.4,2.4-1l0.2,1.1C516.5,336.5,515.5,336.8,514.6,336.8L514.6,336.8z M512.8,332.5h3.2c-0.2-1.1-0.6-1.7-1.6-1.7
	C513.6,330.9,513,331.4,512.8,332.5L512.8,332.5z"/>
<path d="M520.1,332.7v4h-1.2V330h1l0.2,1.4c0.5-0.9,1.4-1.4,2.3-1.5l0.2,1.2C521.5,331.1,520.6,331.7,520.1,332.7z"/>
<path d="M525.7,336.8c-0.9,0-1.7-0.2-2.4-0.6l0.2-1.2c0.7,0.5,1.5,0.8,2.3,0.8c0.8,0,1.4-0.3,1.4-0.9s-0.4-0.8-1.6-1.1
	c-1.6-0.4-2.2-0.9-2.2-2.1s0.9-1.9,2.3-1.9c0.8,0,1.5,0.1,2.2,0.5l-0.2,1.2c-0.6-0.4-1.3-0.5-2-0.6c-0.8,0-1.1,0.3-1.1,0.8
	s0.3,0.7,1.4,1c1.6,0.4,2.4,0.9,2.4,2.2S527.5,336.8,525.7,336.8L525.7,336.8z"/>
<path d="M532.6,336.8c-1.8,0-3.1-1.3-3.1-3.5s1.3-3.5,3.1-3.5s3.1,1.3,3.1,3.5S534.4,336.8,532.6,336.8z M532.6,330.9
	c-1.2,0-1.8,1-1.8,2.4s0.6,2.4,1.8,2.4s1.8-1,1.8-2.4S533.8,330.9,532.6,330.9z"/>
<path d="M541.5,336.7v-4.5c0-0.7-0.3-1.1-1-1.1c-0.8,0.1-1.5,0.5-1.9,1.1v4.6h-1.3V330h1l0.1,1c0.6-0.7,1.5-1.1,2.4-1.1
	c1-0.1,1.8,0.6,1.9,1.6c0,0.1,0,0.3,0,0.4v4.8L541.5,336.7z"/>
<path d="M511.7,353.6c-0.6,0-1.1-0.1-1.7-0.3v2.6l-1.2,0.2v-9.3h1l0.1,1c0.5-0.7,1.3-1.1,2.2-1.1c1.4,0,2.6,1.1,2.6,3.3
	C514.7,352.4,513.3,353.6,511.7,353.6z M511.9,347.8c-0.8,0.1-1.5,0.5-1.9,1.2v3.2c0.5,0.3,1.1,0.4,1.6,0.4c1,0,1.8-0.9,1.8-2.5
	C513.5,348.6,512.8,347.8,511.9,347.8L511.9,347.8z"/>
<path d="M516.4,353.5v-9.9l1.2-0.2v10.1L516.4,353.5z"/>
<path d="M523.8,353.5l-0.1-0.9c-0.6,0.7-1.5,1-2.4,1c-1,0.1-1.9-0.6-2-1.6c0-0.1,0-0.2,0-0.3c0-1.7,1.4-2.3,4.2-2.6v-0.3
	c0-0.8-0.5-1.1-1.3-1.1c-0.8,0-1.6,0.2-2.3,0.6l-0.2-1.1c0.8-0.4,1.7-0.6,2.6-0.6c1.6,0,2.4,0.7,2.4,2.1v4.7L523.8,353.5z
	 M523.5,350.1c-2.5,0.2-3,0.9-3,1.6c0,0.5,0.4,0.9,0.9,0.9c0,0,0.1,0,0.1,0c0.8,0,1.5-0.4,2-0.9V350.1z"/>
<path d="M529.5,353.6c-1.8,0-3.1-1.2-3.1-3.5s1.4-3.5,3.1-3.5c0.8,0,1.5,0.2,2.2,0.6l-0.2,1.2c-0.6-0.5-1.3-0.7-2-0.7
	c-1.1,0-1.9,0.8-1.9,2.4s0.8,2.4,2,2.4c0.7,0,1.4-0.2,2-0.7l0.2,1.1C531.1,353.4,530.3,353.7,529.5,353.6L529.5,353.6z"/>
<path d="M535.9,353.6c-1.7,0-3.1-1-3.1-3.5c0-2.1,1.3-3.5,2.9-3.5c2,0,2.8,1.5,2.8,3.4v0.3h-4.5c0,1.5,0.8,2.3,2,2.3
	c0.9,0,1.7-0.4,2.4-1l0.2,1.1C537.8,353.3,536.9,353.6,535.9,353.6L535.9,353.6z M534.1,349.3h3.2c-0.2-1.1-0.6-1.7-1.6-1.7
	C535,347.7,534.3,348.2,534.1,349.3z"/>
<path d="M510.3,370.3l-0.1-0.9c-0.6,0.7-1.5,1-2.4,1c-1,0.1-1.9-0.6-2-1.6c0-0.1,0-0.2,0-0.3c0-1.7,1.4-2.3,4.2-2.6v-0.2
	c0-0.8-0.5-1.1-1.3-1.1c-0.8,0-1.6,0.2-2.3,0.6l-0.2-1.1c0.8-0.4,1.7-0.6,2.6-0.6c1.6,0,2.4,0.7,2.4,2.1v4.7L510.3,370.3z
	 M510,366.9c-2.5,0.2-3,0.9-3,1.6c0,0.5,0.4,0.9,0.9,0.9c0,0,0.1,0,0.1,0c0.8,0,1.5-0.4,2-0.9V366.9z"/>
<path d="M516,370.4c-1.8,0-3.1-1.2-3.1-3.5s1.4-3.5,3.1-3.5c0.8,0,1.5,0.2,2.2,0.6l-0.2,1.2c-0.6-0.5-1.3-0.7-2-0.7
	c-1.1,0-1.9,0.8-1.9,2.4s0.8,2.4,2,2.4c0.7,0,1.4-0.2,2-0.7l0.1,1.1C517.6,370.2,516.8,370.5,516,370.4z"/>
<path d="M522.1,370.4c-1.2,0-2-0.4-2-1.8v-4h-1v-1h1v-2.2l1.2-0.2v2.4h1.4l0.2,1h-1.6v3.8c0,0.5,0.2,0.9,0.9,0.9c0.2,0,0.4,0,0.6,0
	l0.2,1.1C522.7,370.4,522.4,370.4,522.1,370.4L522.1,370.4z"/>
<path d="M525.3,362.3c-0.4,0-0.8-0.3-0.8-0.8c0,0,0,0,0,0c0-0.4,0.4-0.8,0.8-0.8c0.4,0,0.8,0.4,0.8,0.8c0,0,0,0,0,0
	C526,361.9,525.7,362.3,525.3,362.3z M524.6,370.3v-6.7h1.2v6.7H524.6z"/>
<path d="M530.7,370.4c-1.8,0-3.1-1.3-3.1-3.5s1.3-3.5,3.1-3.5c1.8,0,3.1,1.3,3.1,3.5S532.4,370.4,530.7,370.4z M530.7,364.5
	c-1.2,0-1.8,1-1.8,2.4s0.6,2.4,1.8,2.4s1.8-1,1.8-2.4S531.9,364.5,530.7,364.5z"/>
<path d="M539.5,370.3v-4.6c0-0.7-0.3-1.1-1-1.1c-0.8,0.1-1.5,0.5-1.9,1.1v4.6h-1.2v-6.7h1l0.1,1c0.6-0.7,1.5-1.1,2.4-1.1
	c1-0.1,1.8,0.6,1.9,1.6c0,0.1,0,0.3,0,0.4v4.9L539.5,370.3z"/>
<path class="st0" d="M481,293.7h85c2.2,0,4,1.8,4,4v78c0,2.2-1.8,4-4,4h-85c-2.2,0-4-1.8-4-4v-78C477,295.5,478.8,293.7,481,293.7z"
	/>
<path d="M272.2,153H271v4.8h-1.6v-11.7h3.1c2.5,0,4,1.2,4,3.4C276.5,151.9,274.8,153,272.2,153z M272.4,147.5H271v4.1h1.3
	c1.6,0,2.5-0.7,2.5-2.1S274,147.5,272.4,147.5L272.4,147.5z"/>
<path d="M278.4,157.8v-12l1.5-0.2v12.3L278.4,157.8z"/>
<path d="M287.3,157.8l-0.2-1.1c-0.7,0.8-1.8,1.3-2.9,1.3c-1.2,0.1-2.3-0.8-2.4-1.9c0-0.1,0-0.2,0-0.3c0-2,1.7-2.8,5.1-3.2v-0.3
	c0-1-0.6-1.4-1.6-1.4c-1,0-1.9,0.3-2.8,0.7l-0.2-1.3c1-0.4,2.1-0.7,3.1-0.7c2,0,2.9,0.8,2.9,2.6v5.7L287.3,157.8z M287,153.7
	c-3,0.3-3.6,1.1-3.6,1.9c0,0.6,0.4,1.1,1,1.1c0.1,0,0.1,0,0.2,0c0.9,0,1.8-0.5,2.4-1.1V153.7z"/>
<path d="M294.1,158.5c-0.7,1.9-1.6,2.4-2.9,2.4c-0.2,0-0.4,0-0.5-0.1l-0.2-1.3c0.3,0.1,0.6,0.1,0.9,0.1c0.6,0,1.2-0.4,1.3-1l0.3-0.8
	l-3-8l1.5-0.2l2.2,6.5l2.2-6.3h1.5L294.1,158.5z"/>
<path d="M302,158c-2.1,0-3.8-1.3-3.8-4.2c0-2.6,1.5-4.2,3.6-4.2c2.4,0,3.5,1.8,3.5,4.1v0.4h-5.5c0,1.9,1,2.8,2.4,2.8
	c1.1,0,2.1-0.4,2.9-1.2l0.2,1.4C304.3,157.6,303.1,158,302,158L302,158z M299.8,152.8h3.9c-0.2-1.3-0.8-2.1-1.9-2.1
	C300.8,150.7,300,151.4,299.8,152.8L299.8,152.8z"/>
<path d="M308.6,153v4.8h-1.5v-8.1h1.2l0.2,1.6c0.6-1,1.6-1.7,2.8-1.8l0.2,1.4C310.4,151.1,309.2,151.8,308.6,153L308.6,153z"/>
<path d="M316.5,160l-1.4-0.3l8-13.8l1.4,0.3L316.5,160z"/>
<path d="M332.8,158c-1.1,0-2.3-0.2-3.3-0.8l0.2-1.6c0.9,0.6,2,1,3.1,1c1.2,0,2.1-0.6,2.1-1.8s-0.5-1.5-2.2-2.3c-2.2-1-3-1.7-3-3.4
	c0-1.9,1.5-3.1,3.6-3.1c0.9,0,1.9,0.2,2.7,0.7l-0.2,1.6c-0.7-0.5-1.6-0.9-2.5-0.9c-1.3,0-1.9,0.7-1.9,1.6s0.4,1.3,2.2,2.1
	c2.3,1,3.1,1.8,3.1,3.6C336.5,156.7,335,158,332.8,158L332.8,158z"/>
<path d="M341.3,158c-1.4,0-2.4-0.5-2.4-2.1V151h-1.2v-1.3h1.2V147l1.5-0.2v2.9h1.8l0.2,1.3h-2v4.6c0,0.7,0.3,1.1,1.1,1.1
	c0.2,0,0.5,0,0.7,0l0.2,1.3C342,157.9,341.6,157.9,341.3,158L341.3,158z"/>
<path d="M345.8,153v4.8h-1.5v-8.1h1.2l0.2,1.6c0.6-1,1.6-1.7,2.8-1.8l0.2,1.4C347.5,151.1,346.3,151.8,345.8,153L345.8,153z"/>
<path d="M353.3,158c-2.1,0-3.8-1.3-3.8-4.2c0-2.6,1.5-4.2,3.6-4.2c2.4,0,3.5,1.8,3.5,4.1v0.4h-5.5c0,1.9,1,2.8,2.4,2.8
	c1.1,0,2.1-0.4,2.9-1.2l0.2,1.4C355.6,157.6,354.5,158,353.3,158z M351.1,152.8h3.9c-0.2-1.3-0.8-2.1-1.9-2.1
	C352.2,150.7,351.4,151.4,351.1,152.8L351.1,152.8z"/>
<path d="M363.4,157.8l-0.2-1.1c-0.7,0.8-1.8,1.3-2.9,1.3c-1.2,0.1-2.3-0.8-2.4-1.9c0-0.1,0-0.2,0-0.3c0-2,1.7-2.8,5.1-3.2v-0.3
	c0-1-0.6-1.4-1.5-1.4c-1,0-1.9,0.3-2.8,0.7l-0.2-1.3c1-0.4,2.1-0.7,3.1-0.7c2,0,2.9,0.8,2.9,2.6v5.7L363.4,157.8z M363.1,153.7
	c-3,0.3-3.6,1.1-3.6,1.9c0,0.6,0.4,1.1,1,1.1c0.1,0,0.1,0,0.2,0c0.9,0,1.8-0.5,2.4-1.1V153.7z"/>
<path d="M377,157.8v-5.5c0-0.8-0.3-1.4-1.2-1.4c-0.9,0.1-1.7,0.6-2.3,1.3v5.6H372v-5.5c0-0.8-0.3-1.4-1.2-1.4
	c-0.9,0.1-1.7,0.6-2.3,1.3v5.6H367v-8.1h1.2l0.2,1.2c0.7-0.8,1.7-1.3,2.8-1.3c0.9-0.1,1.8,0.4,2.1,1.3c0.7-0.8,1.8-1.3,2.9-1.3
	c1.2-0.1,2.2,0.7,2.3,1.9c0,0.2,0,0.3,0,0.5v5.9L377,157.8z"/>
<path d="M384.1,158c-2.1,0-3.8-1.3-3.8-4.2c0-2.6,1.5-4.2,3.6-4.2c2.4,0,3.5,1.8,3.5,4.1v0.4h-5.5c0,1.9,1,2.8,2.4,2.8
	c1.1,0,2.1-0.4,2.9-1.2l0.2,1.4C386.5,157.6,385.3,158,384.1,158z M382,152.8h3.9c-0.2-1.3-0.8-2.1-1.9-2.1
	C383,150.7,382.2,151.4,382,152.8L382,152.8z"/>
<path d="M390.8,153v4.8h-1.5v-8.1h1.2l0.2,1.6c0.6-1,1.6-1.7,2.8-1.8l0.2,1.4C392.6,151.1,391.4,151.8,390.8,153L390.8,153z"/>
<g>
	<path class="st0" d="M268.6,138.8h125c2.2,0,4,1.8,4,4v19c0,2.2-1.8,4-4,4h-125c-2.2,0-4-1.8-4-4v-19
		C264.6,140.6,266.4,138.8,268.6,138.8z"/>
	<g>
		<path class="st1" d="M516,284.9c0.2-55.1-77.9-109.8-110.2-121.9"/>
		<path class="st1" d="M407.8,155.6c35,7.3,70-13.9,70-30"/>
		<path class="st1" d="M351.1,77v53.3"/>
		<path class="st1" d="M146.4,152.3c20-62,116-75.3,151.3-22"/>
		<path class="st1" d="M129.1,194.3l-22.7,53.3"/>
		<path class="st1" d="M161.1,394.3c0,0,55.3-13.4,69.7-85.4"/>
		<path class="st1" d="M151.1,296.3V387"/>
		<path class="st1" d="M77.1,296.3V387"/>
		<path class="st1" d="M190.4,171.8l40.3,27.2"/>
		<path class="st1" d="M294.4,296.3c28.7,0,144.1-27.5,108.5-124.5"/>
		<path class="st1" d="M294.8,282.6c54.2-0.7,131.2-40,91.7-108"/>
		<path class="st1" d="M484.4,135.6l-6.7-10"/>
		<path class="st1" d="M477.8,125.6l-11.3,4.7"/>
		<path class="st1" d="M407.8,155.6l10-7.3"/>
		<path class="st1" d="M407.8,155.6l8,10.2"/>
		<path class="st1" d="M405.8,163l14.7-2.2"/>
		<path class="st1" d="M405.8,163l2,14.3"/>
		<path class="st1" d="M402.9,171.8l14.2,5.5"/>
		<path class="st1" d="M402.9,171.8l-5.3,13.6"/>
		<path class="st1" d="M295.9,282.6l10.2-8.8"/>
		<path class="st1" d="M295.2,282.6l10.2,8.7"/>
		<path class="st1" d="M230.7,309l9,12.7"/>
		<path class="st1" d="M230.7,309l-13.7,9.3"/>
		<path class="st1" d="M235.2,239.6v29.2"/>
		<path class="st1" d="M235.2,268.8l8.5-7.2"/>
		<path class="st1" d="M235.2,268.8l-7.5-7.8"/>
		<path class="st1" d="M235.2,239.6l7.8,4.7"/>
		<path class="st1" d="M235.2,239.6l-7.5,6"/>
		<path class="st1" d="M230.7,199v-8.7"/>
		<path class="st1" d="M230.7,199h-8.7"/>
		<path class="st1" d="M297.8,130.3v-16.7"/>
		<path class="st1" d="M297.8,130.3l-14.7-2.3"/>
		<path class="st1" d="M351.1,77l8,8"/>
		<path class="st1" d="M351.1,77l-8,8"/>
		<path class="st1" d="M351.1,130.3l8.7-5.6"/>
		<path class="st1" d="M351.1,130.3l-8-5.6"/>
		<path class="st1" d="M106.4,247.6l11.3-2"/>
		<path class="st1" d="M106.4,247.6l-5.3-8"/>
	</g>
</g>
<path d="M511.3,230.4l-0.1-1c-0.5,0.7-1.3,1.1-2.2,1.1c-1.4,0-2.6-1-2.6-3.3c0-2.4,1.4-3.6,3-3.6c0.6,0,1.1,0.1,1.7,0.3v-3.5
	l1.2-0.2v10.1L511.3,230.4z M511,225c-0.5-0.3-1.1-0.4-1.6-0.4c-1,0-1.8,0.9-1.8,2.5c0,1.5,0.7,2.2,1.5,2.2c0.8-0.1,1.5-0.5,1.9-1.2
	L511,225z"/>
<path d="M514.9,222.3c-0.4,0-0.8-0.3-0.8-0.8c0-0.4,0.4-0.8,0.8-0.8c0.4,0,0.8,0.4,0.8,0.8c0,0,0,0,0,0
	C515.7,222,515.4,222.3,514.9,222.3z M514.3,230.3v-6.7h1.3v6.7H514.3z"/>
<path d="M518.9,226.4v4h-1.3v-6.7h1l0.2,1.4c0.5-0.9,1.4-1.4,2.3-1.5l0.2,1.2C520.3,224.9,519.4,225.5,518.9,226.4z"/>
<path d="M525.1,230.5c-1.7,0-3.1-1-3.1-3.5c0-2.1,1.3-3.5,2.9-3.5c2,0,2.8,1.5,2.8,3.4v0.3h-4.5c0,1.5,0.8,2.3,2,2.3
	c0.9,0,1.7-0.4,2.4-1l0.2,1.1C527,230.2,526.1,230.5,525.1,230.5L525.1,230.5z M523.3,226.2h3.2c-0.2-1.1-0.6-1.7-1.6-1.7
	C524.1,224.5,523.5,225.1,523.3,226.2z"/>
<path d="M532.1,230.5c-1.8,0-3.1-1.2-3.1-3.5s1.4-3.5,3.1-3.5c0.8,0,1.5,0.2,2.2,0.6l-0.2,1.2c-0.6-0.5-1.3-0.7-2-0.7
	c-1.1,0-1.9,0.8-1.9,2.4s0.8,2.4,2,2.4c0.7,0,1.4-0.2,2-0.7l0.2,1.1C533.8,230.3,533,230.6,532.1,230.5L532.1,230.5z"/>
<path d="M538.2,230.5c-1.2,0-2-0.4-2-1.8v-4h-1v-1h1v-2.2l1.2-0.2v2.4h1.4l0.2,1h-1.6v3.8c0,0.5,0.2,0.9,0.9,0.9c0.2,0,0.4,0,0.6,0
	l0.2,1.1C538.9,230.5,538.6,230.5,538.2,230.5L538.2,230.5z"/>
<path d="M542.7,230.5c-0.9,0-1.7-0.2-2.4-0.6l0.2-1.2c0.7,0.5,1.5,0.8,2.3,0.8c0.9,0,1.4-0.3,1.4-0.9s-0.4-0.8-1.6-1.1
	c-1.6-0.4-2.2-0.9-2.2-2.1s0.9-1.9,2.3-1.9c0.8,0,1.5,0.1,2.2,0.5l-0.2,1.2c-0.6-0.4-1.3-0.5-2-0.6c-0.8,0-1.1,0.3-1.1,0.8
	s0.3,0.7,1.4,1c1.6,0.4,2.4,0.9,2.4,2.2S544.5,230.5,542.7,230.5L542.7,230.5z"/>
<path d="M515.4,245.5c-0.9,0-1.7-0.2-2.4-0.6l0.2-1.2c0.7,0.5,1.5,0.8,2.3,0.8c0.9,0,1.4-0.3,1.4-0.9s-0.4-0.8-1.6-1.1
	c-1.6-0.4-2.2-0.9-2.2-2.1s0.9-1.9,2.3-1.9c0.8,0,1.5,0.1,2.2,0.5l-0.2,1.2c-0.6-0.4-1.3-0.5-2-0.6c-0.8,0-1.1,0.3-1.1,0.8
	s0.3,0.7,1.4,1c1.6,0.4,2.4,0.9,2.4,2.2S517.1,245.5,515.4,245.5L515.4,245.5z"/>
<path d="M521.8,245.5c-1.2,0-2-0.4-2-1.8v-4h-1v-1h1v-2.2l1.2-0.2v2.4h1.4l0.2,1H521v3.8c0,0.5,0.2,0.9,0.9,0.9c0.2,0,0.4,0,0.6,0
	l0.2,1.1C522.4,245.5,522.1,245.5,521.8,245.5L521.8,245.5z"/>
<path d="M526.9,245.5c-1.8,0-3.1-1.3-3.1-3.5s1.3-3.5,3.1-3.5c1.8,0,3.1,1.3,3.1,3.5S528.7,245.5,526.9,245.5z M526.9,239.6
	c-1.2,0-1.8,1-1.8,2.4s0.6,2.4,1.8,2.4s1.8-1,1.8-2.4S528.1,239.6,526.9,239.6z"/>
<path d="M532.8,241.4v4h-1.2v-6.7h1l0.2,1.4c0.5-0.9,1.4-1.4,2.3-1.5l0.2,1.2C534.3,239.8,533.3,240.5,532.8,241.4z"/>
<path d="M539.3,245.9c-0.6,1.6-1.3,2-2.4,2c-0.1,0-0.3,0-0.4-0.1l-0.2-1.1c0.2,0.1,0.5,0.1,0.7,0.1c0.5,0,0.9-0.3,1.1-0.8l0.2-0.7
	l-2.4-6.6l1.2-0.2l1.8,5.3l1.8-5.2h1.3L539.3,245.9z"/>
<path d="M223.5,358.5c-0.6,0-1.1-0.1-1.7-0.3v2.6l-1.2,0.2v-9.3h1l0.1,1c0.5-0.7,1.3-1.1,2.2-1.1c1.4,0,2.6,1.1,2.6,3.3
	C226.5,357.3,225.1,358.5,223.5,358.5z M223.7,352.7c-0.8,0.1-1.5,0.5-1.9,1.2v3.2c0.5,0.3,1.1,0.4,1.6,0.4c1,0,1.8-0.9,1.8-2.5
	C225.3,353.5,224.6,352.7,223.7,352.7L223.7,352.7z"/>
<path d="M229.3,354.5v4h-1.2v-6.7h1l0.2,1.4c0.5-0.9,1.4-1.4,2.3-1.5l0.2,1.2C230.8,352.9,229.8,353.5,229.3,354.5z"/>
<path d="M235.6,358.6c-1.8,0-3.1-1.3-3.1-3.5s1.3-3.5,3.1-3.5s3.1,1.3,3.1,3.5S237.3,358.6,235.6,358.6z M235.6,352.6
	c-1.2,0-1.8,1-1.8,2.4s0.6,2.4,1.8,2.4s1.9-1,1.9-2.4S236.8,352.6,235.6,352.6z"/>
<path d="M244.8,358.4l-0.1-1c-0.5,0.7-1.3,1.1-2.2,1.1c-1.4,0-2.6-1-2.6-3.3c0-2.4,1.4-3.6,3-3.6c0.6,0,1.1,0.1,1.7,0.3v-3.5
	l1.2-0.2v10.1L244.8,358.4z M244.6,353.1c-0.5-0.3-1.1-0.4-1.6-0.4c-1.1,0-1.8,0.9-1.8,2.5c0,1.5,0.7,2.2,1.6,2.2
	c0.8-0.1,1.5-0.5,1.9-1.2L244.6,353.1z"/>
<path d="M252.2,358.4l-0.1-1c-0.6,0.7-1.5,1.1-2.4,1.1c-1,0.1-1.8-0.6-1.9-1.6c0-0.1,0-0.3,0-0.4v-4.9h1.3v4.5c0,0.7,0.3,1.1,1,1.1
	c0.8-0.1,1.5-0.5,1.9-1.1v-4.6h1.2v6.7L252.2,358.4z"/>
<path d="M257.9,358.6c-1.8,0-3.1-1.2-3.1-3.5s1.4-3.5,3.1-3.5c0.8,0,1.5,0.2,2.2,0.6l-0.2,1.2c-0.6-0.5-1.3-0.7-2-0.7
	c-1.1,0-1.9,0.8-1.9,2.4s0.8,2.4,2,2.4c0.7,0,1.4-0.2,2-0.7l0.2,1.1C259.6,358.4,258.8,358.6,257.9,358.6L257.9,358.6z"/>
<path d="M264.4,358.6c-1.7,0-3.1-1-3.1-3.5c0-2.1,1.3-3.5,2.9-3.5c1.9,0,2.8,1.5,2.8,3.4v0.3h-4.5c0,1.5,0.8,2.3,2,2.3
	c0.9,0,1.7-0.4,2.4-1l0.2,1.1C266.3,358.2,265.3,358.6,264.4,358.6L264.4,358.6z M262.6,354.3h3.2c-0.1-1.1-0.6-1.7-1.6-1.7
	C263.4,352.6,262.8,353.1,262.6,354.3L262.6,354.3z"/>
<path d="M219.6,373.4v-1l3.7-4.7H220l-0.2-1h5v1l-3.8,4.7h3.8l0.2,1H219.6z"/>
<path d="M228.9,373.6c-1.8,0-3.1-1.3-3.1-3.5s1.3-3.5,3.1-3.5s3.1,1.3,3.1,3.5S230.7,373.6,228.9,373.6z M228.9,367.6
	c-1.2,0-1.8,1-1.8,2.4s0.6,2.4,1.8,2.4s1.9-1,1.9-2.4S230.1,367.6,228.9,367.6z"/>
<path d="M241.8,373.4v-4.5c0-0.7-0.2-1.1-1-1.1c-0.8,0.1-1.4,0.5-1.9,1.1v4.6h-1.2v-4.5c0-0.7-0.2-1.1-1-1.1
	c-0.8,0.1-1.4,0.5-1.9,1.1v4.6h-1.2v-6.7h1l0.1,1c0.6-0.7,1.4-1,2.3-1.1c0.8-0.1,1.5,0.4,1.8,1.1c0.6-0.7,1.5-1.1,2.4-1.1
	c1-0.1,1.8,0.6,1.9,1.6c0,0.1,0,0.3,0,0.4v4.9L241.8,373.4z"/>
<path d="M247.6,373.5c-0.9,0-1.8-0.1-2.6-0.4v-9.6l1.2-0.2v4.2c0.5-0.6,1.2-0.9,2-0.9c1.4,0,2.6,1.1,2.6,3.3
	C250.9,372.3,249.6,373.5,247.6,373.5L247.6,373.5z M248.1,367.7c-0.7,0.1-1.4,0.5-1.8,1.1v3.4c0.4,0.2,0.9,0.2,1.3,0.2
	c1.3,0,2-0.8,2-2.5C249.6,368.5,249,367.7,248.1,367.7L248.1,367.7z"/>
<path d="M253.2,365.4c-0.4,0-0.8-0.3-0.8-0.8c0-0.4,0.4-0.8,0.8-0.8c0.4,0,0.8,0.4,0.8,0.8c0,0,0,0,0,0
	C254,365,253.6,365.4,253.2,365.4z M252.6,373.4v-6.7h1.2v6.7H252.6z"/>
<path d="M258.6,373.6c-1.7,0-3.1-1-3.1-3.5c0-2.1,1.3-3.5,2.9-3.5c2,0,2.8,1.5,2.8,3.4v0.3h-4.5c0,1.5,0.8,2.3,2,2.3
	c0.9,0,1.7-0.4,2.4-1l0.2,1.1C260.5,373.2,259.6,373.6,258.6,373.6L258.6,373.6z M256.8,369.3h3.2c-0.1-1.1-0.6-1.7-1.6-1.7
	C257.6,367.6,257,368.1,256.8,369.3L256.8,369.3z"/>
<path d="M264.9,373.6c-0.9,0-1.7-0.2-2.4-0.6l0.2-1.2c0.7,0.5,1.5,0.8,2.3,0.8c0.9,0,1.4-0.3,1.4-0.9s-0.4-0.8-1.6-1.1
	c-1.6-0.4-2.2-0.9-2.2-2.1s0.9-1.9,2.4-1.9c0.8,0,1.5,0.1,2.2,0.5l-0.2,1.2c-0.6-0.4-1.3-0.5-2-0.6c-0.8,0-1.1,0.3-1.1,0.8
	s0.3,0.7,1.4,1c1.6,0.4,2.4,0.9,2.4,2.2S266.6,373.6,264.9,373.6L264.9,373.6z"/>
<path d="M80.4,212c-0.9,0-1.7-0.2-2.4-0.6l0.2-1.2c0.7,0.5,1.5,0.8,2.4,0.8c0.8,0,1.4-0.3,1.4-0.9s-0.4-0.8-1.6-1.1
	c-1.6-0.4-2.2-0.9-2.2-2.1s0.9-1.9,2.4-1.9c0.8,0,1.5,0.1,2.2,0.5l-0.2,1.2c-0.6-0.4-1.3-0.5-2-0.6c-0.8,0-1.2,0.3-1.2,0.8
	s0.3,0.7,1.4,1c1.7,0.4,2.4,0.9,2.4,2.2C83.1,211.2,82.2,212,80.4,212L80.4,212z"/>
<path d="M88.6,211.8l-0.1-0.9c-0.6,0.7-1.5,1-2.3,1c-1,0.1-1.9-0.6-2-1.5c0-0.1,0-0.2,0-0.3c0-1.7,1.4-2.3,4.2-2.6v-0.3
	c0-0.8-0.5-1.1-1.3-1.1c-0.8,0-1.6,0.2-2.3,0.6l-0.2-1.1c0.8-0.4,1.7-0.6,2.6-0.6c1.6,0,2.4,0.7,2.4,2.1v4.7L88.6,211.8z
	 M88.4,208.4c-2.5,0.2-3,0.9-3,1.6c0,0.5,0.4,0.9,0.9,0.9c0,0,0.1,0,0.1,0c0.8,0,1.5-0.4,2-0.9V208.4z"/>
<path d="M94.2,212.4c-0.6,1.6-1.3,2-2.4,2c-0.1,0-0.3,0-0.4-0.1l-0.2-1.1c0.2,0.1,0.5,0.1,0.7,0.1c0.5,0,0.9-0.3,1.1-0.8l0.2-0.7
	l-2.4-6.6l1.2-0.2l1.8,5.3l1.8-5.2h1.3L94.2,212.4z"/>
<path d="M78.6,226.8h-1l-1.6-5.1l-1.5,5.1h-1l-2.2-6.6l1.2-0.2L74,225l1.5-4.9h1.1l1.5,4.9l1.4-4.9h1.2L78.6,226.8z"/>
<path d="M84.6,227c-1.8,0-3.1-1.3-3.1-3.5c0-2.2,1.3-3.5,3.1-3.5s3.1,1.3,3.1,3.5S86.3,227,84.6,227z M84.6,221
	c-1.2,0-1.8,1-1.8,2.4s0.6,2.4,1.8,2.4c1.2,0,1.8-1,1.8-2.4S85.8,221,84.6,221z"/>
<path d="M90.5,222.9v4h-1.2v-6.7h1l0.2,1.4c0.5-0.9,1.4-1.4,2.3-1.5l0.2,1.2C91.9,221.3,91,221.9,90.5,222.9L90.5,222.9z"/>
<path d="M98.6,226.8l-0.2-1c-0.5,0.7-1.3,1.1-2.2,1.1c-1.4,0-2.6-1-2.6-3.3c0-2.4,1.4-3.6,3-3.6c0.6,0,1.1,0.1,1.7,0.3v-3.5l1.2-0.2
	v10.1L98.6,226.8z M98.3,221.5c-0.5-0.3-1.1-0.4-1.6-0.4c-1.1,0-1.8,0.9-1.8,2.5c0,1.5,0.7,2.2,1.5,2.2c0.8-0.1,1.5-0.5,1.9-1.2
	L98.3,221.5z"/>
<path d="M103.6,227c-0.9,0-1.7-0.2-2.4-0.6l0.2-1.2c0.7,0.5,1.5,0.8,2.3,0.8c0.8,0,1.4-0.3,1.4-0.9s-0.4-0.8-1.6-1.1
	c-1.6-0.4-2.2-0.9-2.2-2.1s0.9-1.9,2.4-1.9c0.8,0,1.5,0.1,2.2,0.4l-0.2,1.2c-0.6-0.4-1.3-0.5-2-0.6c-0.8,0-1.2,0.3-1.2,0.8
	s0.3,0.7,1.4,1c1.7,0.4,2.4,0.9,2.4,2.2C106.2,226.3,105.3,227,103.6,227L103.6,227z"/>
<path d="M464.1,151.8c-0.6,0-0.9,0.2-0.9,0.9v1.3h1.3l0.1,1.1h-1.5v5.6H462v-5.6h-1V154h1v-1.5c0-1.3,0.9-1.8,2.1-1.8h0.5l0.2,1.1
	C464.6,151.8,464.4,151.8,464.1,151.8L464.1,151.8z"/>
<path d="M468.6,160.9c-1.7,0-3.1-1-3.1-3.5c0-2.1,1.3-3.5,2.9-3.5c2,0,2.8,1.5,2.8,3.4v0.3h-4.5c0,1.6,0.8,2.3,2,2.3
	c0.9,0,1.7-0.4,2.4-1l0.2,1.1C470.5,160.5,469.5,160.9,468.6,160.9L468.6,160.9z M466.8,156.6h3.2c-0.1-1.1-0.6-1.7-1.6-1.7
	C467.6,154.9,467,155.4,466.8,156.6L466.8,156.6z"/>
<path d="M475.5,160.9c-1.7,0-3.1-1-3.1-3.5c0-2.1,1.3-3.5,2.9-3.5c2,0,2.8,1.5,2.8,3.4v0.3h-4.5c0,1.6,0.8,2.3,2,2.3
	c0.9,0,1.7-0.4,2.4-1l0.2,1.1C477.5,160.5,476.5,160.9,475.5,160.9z M473.8,156.6h3.2c-0.1-1.1-0.6-1.7-1.6-1.7
	C474.6,154.9,474,155.4,473.8,156.6L473.8,156.6z"/>
<path d="M479.9,160.7v-9.9l1.2-0.2v10.1L479.9,160.7z"/>
<path d="M489.2,160.8c-0.6,0-1.1-0.1-1.7-0.3v2.6l-1.2,0.2V154h1l0.1,1c0.5-0.7,1.3-1.1,2.2-1.1c1.4,0,2.6,1.1,2.6,3.3
	C492.3,159.6,490.9,160.8,489.2,160.8L489.2,160.8z M489.4,155c-0.8,0.1-1.5,0.5-1.9,1.2v3.2c0.5,0.3,1.1,0.4,1.6,0.4
	c1,0,1.8-0.9,1.8-2.5C491,155.8,490.3,155,489.4,155L489.4,155z"/>
<path d="M497.9,160.7l-0.1-0.9c-0.6,0.7-1.5,1-2.4,1c-1,0.1-1.9-0.6-2-1.5c0-0.1,0-0.2,0-0.3c0-1.7,1.4-2.3,4.2-2.6v-0.3
	c0-0.8-0.5-1.1-1.3-1.1c-0.8,0-1.6,0.2-2.3,0.6l-0.2-1.1c0.8-0.4,1.7-0.6,2.6-0.6c1.6,0,2.4,0.7,2.4,2.1v4.7L497.9,160.7z
	 M497.6,157.3c-2.5,0.2-3,0.9-3,1.6c0,0.5,0.4,0.9,0.9,0.9c0,0,0.1,0,0.1,0c0.8,0,1.5-0.4,2-0.9V157.3z"/>
<path d="M505,160.7v-4.6c0-0.7-0.3-1.1-1-1.1c-0.8,0.1-1.5,0.5-1.9,1.1v4.6h-1.2V154h1l0.1,1c0.6-0.7,1.5-1.1,2.4-1.1
	c1-0.1,1.8,0.6,1.9,1.6c0,0.1,0,0.3,0,0.4v4.9L505,160.7z"/>
<path d="M508.9,152.7c-0.4,0-0.8-0.3-0.8-0.8c0-0.4,0.4-0.8,0.8-0.8c0.4,0,0.8,0.4,0.8,0.8c0,0,0,0,0,0
	C509.7,152.4,509.4,152.7,508.9,152.7z M508.3,160.7V154h1.2v6.7H508.3z"/>
<path d="M514.4,160.9c-1.8,0-3.1-1.2-3.1-3.5s1.4-3.5,3.1-3.5c0.8,0,1.5,0.2,2.2,0.6l-0.2,1.2c-0.6-0.5-1.3-0.7-2-0.7
	c-1.1,0-1.9,0.8-1.9,2.4c0,1.6,0.8,2.4,2,2.4c0.7,0,1.4-0.2,2-0.7l0.2,1.1C516,160.7,515.2,160.9,514.4,160.9L514.4,160.9z"/>
<path d="M247.4,258c-1.8,0-3.1-1.2-3.1-3.5s1.4-3.5,3.1-3.5c0.8,0,1.5,0.2,2.2,0.6l-0.2,1.2c-0.6-0.5-1.3-0.7-2-0.7
	c-1.1,0-1.9,0.8-1.9,2.4c0,1.6,0.8,2.4,2,2.4c0.7,0,1.4-0.2,1.9-0.7l0.2,1.1C249,257.8,248.2,258,247.4,258L247.4,258z"/>
<path d="M255.4,257.8v-4.5c0-0.7-0.3-1.1-1-1.1c-0.8,0.1-1.5,0.5-1.9,1.1v4.6h-1.2v-9.9l1.2-0.2v4.3c0.6-0.6,1.4-1,2.3-1
	c1-0.1,1.8,0.6,1.9,1.6c0,0.1,0,0.3,0,0.4v4.9L255.4,257.8z"/>
<path d="M262.6,257.8l-0.1-0.9c-0.6,0.7-1.5,1-2.4,1c-1,0.1-1.9-0.6-2-1.5c0-0.1,0-0.2,0-0.3c0-1.7,1.4-2.3,4.2-2.6v-0.3
	c0-0.8-0.5-1.1-1.3-1.1c-0.8,0-1.6,0.2-2.3,0.6l-0.2-1.1c0.8-0.4,1.7-0.6,2.6-0.6c1.6,0,2.4,0.7,2.4,2.1v4.7L262.6,257.8z
	 M262.4,254.4c-2.5,0.2-3,0.9-3,1.6c0,0.5,0.4,0.9,0.9,0.9c0,0,0.1,0,0.1,0c0.8,0,1.5-0.4,2-0.9V254.4z"/>
<path d="M269.8,257.8v-4.5c0-0.7-0.3-1.1-1-1.1c-0.8,0.1-1.5,0.5-1.9,1.1v4.6h-1.2v-6.7h1l0.1,1c0.6-0.7,1.5-1.1,2.4-1.1
	c1-0.1,1.8,0.6,1.9,1.6c0,0.1,0,0.3,0,0.4v4.9L269.8,257.8z"/>
<path d="M275.3,260.3c-1.7,0-3.1-0.6-3.1-1.7c0-0.7,0.5-1.2,1.4-1.7c-0.3-0.1-0.4-0.4-0.4-0.7c0-0.3,0.2-0.6,0.7-0.9
	c-0.8-0.4-1.3-1.1-1.2-2c0-1.3,1.1-2.4,2.4-2.3c0,0,0.1,0,0.1,0c0.6,0,1.2,0.2,1.7,0.6l1.7-0.5l0.2,1.1l-1.3,0.1
	c0.2,0.3,0.3,0.6,0.3,1c0,1.3-1.1,2.3-2.4,2.3c0,0-0.1,0-0.1,0c-0.2,0-0.3,0-0.5,0c-0.2,0.1-0.3,0.3-0.3,0.4s0.2,0.3,1.4,0.5
	l0.5,0.1c1.4,0.2,2.3,0.7,2.3,1.7C278.6,259.7,277.1,260.3,275.3,260.3L275.3,260.3z M274.5,257.2c-0.8,0.4-1.1,0.8-1.1,1.2
	c0,0.5,0.7,0.9,2,0.9s2-0.4,2-1c0-0.4-0.3-0.7-1.3-0.9l-0.8-0.1C275,257.3,274.8,257.3,274.5,257.2L274.5,257.2z M275.2,251.9
	c-0.7,0-1.4,0.6-1.4,1.3c0,0,0,0.1,0,0.1c0,0.7,0.5,1.3,1.2,1.4c0,0,0.1,0,0.1,0c0.8,0,1.4-0.6,1.4-1.4S276,251.9,275.2,251.9z"/>
<path d="M282.6,258c-1.7,0-3.1-1-3.1-3.5c0-2.1,1.3-3.5,2.9-3.5c1.9,0,2.8,1.5,2.8,3.4v0.3h-4.5c0,1.6,0.8,2.3,1.9,2.3
	c0.9,0,1.7-0.4,2.4-1l0.2,1.1C284.5,257.6,283.6,258,282.6,258L282.6,258z M280.8,253.7h3.2c-0.1-1.1-0.6-1.7-1.6-1.7
	C281.7,252,281,252.5,280.8,253.7L280.8,253.7z"/>
<path d="M292,258c-0.9,0-1.7-0.2-2.4-0.6l0.2-1.2c0.7,0.5,1.5,0.8,2.4,0.8c0.9,0,1.4-0.3,1.4-0.9s-0.4-0.8-1.6-1.1
	c-1.6-0.4-2.2-0.9-2.2-2.1s0.9-1.9,2.4-1.9c0.8,0,1.5,0.1,2.2,0.4l-0.2,1.2c-0.6-0.4-1.3-0.5-2-0.6c-0.8,0-1.2,0.3-1.2,0.8
	s0.3,0.7,1.4,1c1.6,0.4,2.4,0.9,2.4,2.2C294.7,257.3,293.7,258,292,258L292,258z"/>
<path d="M299.1,257.9c-0.6,0-1.1-0.1-1.7-0.3v2.6l-1.2,0.2v-9.3h1l0.1,1c0.5-0.7,1.3-1.1,2.2-1.1c1.4,0,2.6,1.1,2.6,3.3
	C302.1,256.7,300.7,257.9,299.1,257.9z M299.3,252.1c-0.8,0.1-1.5,0.5-1.9,1.2v3.2c0.5,0.3,1.1,0.4,1.6,0.4c1,0,1.8-0.9,1.8-2.5
	C300.9,252.8,300.2,252.1,299.3,252.1z"/>
<path d="M306.4,258c-1.7,0-3.1-1-3.1-3.5c0-2.1,1.3-3.5,2.9-3.5c2,0,2.8,1.5,2.8,3.4v0.3h-4.5c0,1.6,0.8,2.3,2,2.3
	c0.9,0,1.7-0.4,2.4-1l0.2,1.1C308.3,257.6,307.4,258,306.4,258L306.4,258z M304.6,253.7h3.2c-0.1-1.1-0.6-1.7-1.6-1.7
	C305.5,252,304.8,252.5,304.6,253.7L304.6,253.7z"/>
<path d="M313.4,258c-1.7,0-3.1-1-3.1-3.5c0-2.1,1.3-3.5,2.9-3.5c2,0,2.8,1.5,2.8,3.4v0.3h-4.5c0,1.6,0.8,2.3,2,2.3
	c0.9,0,1.7-0.4,2.4-1l0.2,1.1C315.3,257.6,314.4,258,313.4,258L313.4,258z M311.6,253.7h3.2c-0.1-1.1-0.6-1.7-1.6-1.7
	C312.5,252,311.8,252.5,311.6,253.7L311.6,253.7z"/>
<path d="M322.2,257.8l-0.1-1c-0.5,0.7-1.3,1.1-2.2,1.1c-1.4,0-2.6-1.1-2.6-3.3c0-2.4,1.4-3.6,3-3.6c0.6,0,1.1,0.1,1.7,0.3v-3.4
	l1.2-0.2v10.1H322.2z M322,252.4c-0.5-0.3-1.1-0.4-1.6-0.4c-1,0-1.8,0.9-1.8,2.5c0,1.5,0.7,2.2,1.5,2.2c0.8-0.1,1.5-0.5,1.9-1.2
	L322,252.4z"/>
<path d="M220.2,182.5H219l-2.4-6.6l1.2-0.2l1.7,5.3l1.7-5.2h1.3L220.2,182.5z"/>
<path d="M226.3,182.6c-1.8,0-3.1-1.3-3.1-3.5c0-2.2,1.3-3.5,3.1-3.5s3.1,1.3,3.1,3.5S228.1,182.6,226.3,182.6z M226.3,176.7
	c-1.2,0-1.8,1-1.8,2.4s0.6,2.4,1.8,2.4s1.9-1,1.9-2.4S227.5,176.7,226.3,176.7z"/>
<path d="M233.3,182.5c-1.2,0-1.9-0.4-1.9-1.8v-4h-1v-1h1v-2.2l1.2-0.2v2.4h1.4l0.2,1h-1.6v3.8c0,0.6,0.2,0.9,0.9,0.9
	c0.2,0,0.4,0,0.6,0l0.2,1.1C233.9,182.5,233.6,182.6,233.3,182.5L233.3,182.5z"/>
<path d="M238.4,182.6c-1.7,0-3.1-1-3.1-3.5c0-2.1,1.3-3.5,2.9-3.5c1.9,0,2.8,1.5,2.8,3.4v0.3h-4.5c0,1.6,0.8,2.3,1.9,2.3
	c0.9,0,1.7-0.4,2.4-1l0.2,1.1C240.3,182.3,239.4,182.6,238.4,182.6L238.4,182.6z M236.6,178.3h3.2c-0.1-1.1-0.6-1.7-1.6-1.7
	C237.4,176.6,236.8,177.2,236.6,178.3z"/>
<path d="M388.2,274.3h-1l-1.5-5.1l-1.5,5.1h-1l-2.1-6.6l1.2-0.2l1.5,4.9l1.5-4.9h1l1.5,4.9l1.4-4.9h1.2L388.2,274.3z"/>
<path d="M395.6,274.3l-0.1-0.9c-0.6,0.7-1.5,1-2.4,1c-1,0.1-1.9-0.6-2-1.5c0-0.1,0-0.2,0-0.3c0-1.7,1.4-2.3,4.2-2.6v-0.3
	c0-0.8-0.5-1.1-1.3-1.1c-0.8,0-1.6,0.2-2.3,0.6l-0.2-1.1c0.8-0.4,1.7-0.6,2.6-0.6c1.6,0,2.4,0.7,2.4,2.1v4.7L395.6,274.3z
	 M395.3,270.9c-2.5,0.2-3,0.9-3,1.6c0,0.5,0.4,0.9,0.9,0.9c0,0,0.1,0,0.1,0c0.8,0,1.5-0.4,2-0.9V270.9z"/>
<path d="M398.6,274.3v-9.9l1.2-0.2v10.1L398.6,274.3z"/>
<path d="M406.1,274.4l-3-3.6v3.5h-1.2v-9.9l1.2-0.2v6.2l2.6-2.8h1.5l-2.8,3l3,3.6L406.1,274.4z"/>
<path d="M414,274.4c-1.2,0-2-0.4-2-1.8v-4h-1v-1h1v-2.2l1.2-0.2v2.4h1.4l0.2,1.1h-1.6v3.8c0,0.5,0.2,0.9,0.9,0.9c0.2,0,0.4,0,0.6,0
	l0.2,1.1C414.6,274.4,414.3,274.5,414,274.4L414,274.4z"/>
<path d="M419.1,274.5c-1.8,0-3.1-1.3-3.1-3.5s1.3-3.5,3.1-3.5s3.1,1.3,3.1,3.5S420.9,274.5,419.1,274.5z M419.1,268.6
	c-1.2,0-1.8,1-1.8,2.4s0.6,2.4,1.8,2.4s1.9-1,1.9-2.4S420.3,268.6,419.1,268.6z"/>
<path d="M430.1,274.3h-1l-1.5-5.1l-1.5,5.1h-1l-2.1-6.6l1.2-0.2l1.5,4.9l1.5-4.9h1l1.5,4.9l1.4-4.9h1.2L430.1,274.3z"/>
<path d="M437.5,274.3l-0.1-0.9c-0.6,0.7-1.5,1-2.4,1c-1,0.1-1.9-0.6-2-1.5c0-0.1,0-0.2,0-0.3c0-1.7,1.4-2.3,4.2-2.6v-0.3
	c0-0.8-0.5-1.1-1.3-1.1c-0.8,0-1.6,0.2-2.3,0.6l-0.2-1.1c0.8-0.4,1.7-0.6,2.6-0.6c1.6,0,2.4,0.7,2.4,2.1v4.7L437.5,274.3z
	 M437.3,270.9c-2.5,0.2-3,0.9-3,1.6c0,0.5,0.4,0.9,0.9,0.9c0,0,0.1,0,0.1,0c0.8,0,1.5-0.4,2-0.9V270.9z"/>
<path d="M441.7,270.4v4h-1.2v-6.7h1l0.2,1.4c0.5-0.9,1.4-1.4,2.3-1.5l0.2,1.2C443.2,268.8,442.2,269.4,441.7,270.4z"/>
<path d="M449.8,274.3l-0.1-1c-0.5,0.7-1.3,1.1-2.2,1.1c-1.4,0-2.6-1-2.6-3.3c0-2.4,1.4-3.6,3-3.6c0.6,0,1.1,0.1,1.7,0.3v-3.4
	l1.2-0.2v10.1L449.8,274.3z M449.5,269c-0.5-0.3-1.1-0.4-1.6-0.4c-1,0-1.8,0.9-1.8,2.5c0,1.5,0.7,2.2,1.5,2.2
	c0.8-0.1,1.5-0.5,1.9-1.2L449.5,269z"/>
<path d="M391.5,289.4l-1.4-1.4c-0.8,0.9-1.9,1.5-3.1,1.5c-2,0-3.2-0.9-3.2-2.6c0.1-1.3,0.9-2.5,2.2-2.9c-0.6-0.5-1-1.3-1-2.1
	c0-1.3,1.1-2.4,2.4-2.4c0.1,0,0.1,0,0.2,0c0.8,0,1.7,0.2,2.4,0.6l-0.2,1.3c-0.6-0.5-1.4-0.7-2.2-0.8c-0.9,0-1.3,0.5-1.3,1.2
	s0.3,1,1,1.7l2.7,2.7c0.3-0.8,0.6-1.6,0.7-2.5l1.1,0.2c-0.2,1.1-0.5,2.1-1,3l2.1,2.1L391.5,289.4z M389.3,287.2l-2.5-2.5
	c-0.9,0.3-1.5,1.1-1.6,2c0,0.9,0.8,1.7,1.7,1.6c0.1,0,0.1,0,0.2,0C387.8,288.4,388.7,288,389.3,287.2L389.3,287.2z"/>
<path d="M401.1,289.4l-3-3.6v3.5h-1.2v-9.9l1.2-0.2v6.2l2.6-2.8h1.5l-2.8,3l3,3.6L401.1,289.4z"/>
<path d="M404.3,281.3c-0.4,0-0.8-0.3-0.8-0.8c0-0.4,0.4-0.8,0.8-0.8c0.4,0,0.8,0.4,0.8,0.8c0,0,0,0,0,0
	C405.1,281,404.8,281.3,404.3,281.3z M403.7,289.3v-6.7h1.2v6.7H403.7z"/>
<path d="M407.1,289.3v-9.9l1.2-0.2v10.1L407.1,289.3z"/>
<path d="M410.5,289.3v-9.9l1.2-0.2v10.1L410.5,289.3z"/>
<path d="M419.8,289.4c-0.6,0-1.1-0.1-1.7-0.3v2.6l-1.2,0.2v-9.3h1l0.1,1c0.5-0.7,1.3-1.1,2.2-1.1c1.4,0,2.6,1.1,2.6,3.3
	C422.8,288.2,421.4,289.4,419.8,289.4L419.8,289.4z M420,283.6c-0.8,0.1-1.5,0.5-1.9,1.2v3.2c0.5,0.3,1.1,0.4,1.6,0.4
	c1,0,1.8-0.9,1.8-2.5C421.6,284.4,420.9,283.6,420,283.6L420,283.6z"/>
<path d="M424.5,289.3v-9.9l1.2-0.2v10.1L424.5,289.3z"/>
<path d="M431.9,289.3l-0.1-0.9c-0.6,0.7-1.5,1-2.4,1c-1,0.1-1.9-0.6-2-1.5c0-0.1,0-0.2,0-0.3c0-1.7,1.4-2.3,4.2-2.6v-0.3
	c0-0.8-0.5-1.1-1.3-1.1c-0.8,0-1.6,0.2-2.3,0.6l-0.2-1.1c0.8-0.4,1.7-0.6,2.6-0.6c1.6,0,2.4,0.7,2.4,2.1v4.7L431.9,289.3z
	 M431.6,285.9c-2.5,0.2-3,0.9-3,1.6c0,0.5,0.4,0.9,0.9,0.9c0,0,0.1,0,0.1,0c0.8,0,1.5-0.4,2-0.9V285.9z"/>
<path d="M437.4,290c-0.6,1.6-1.3,2-2.4,2c-0.1,0-0.3,0-0.4-0.1l-0.2-1.1c0.2,0.1,0.5,0.1,0.7,0.1c0.5,0,0.9-0.3,1.1-0.8l0.2-0.7
	l-2.5-6.7l1.2-0.2l1.8,5.3l1.8-5.2h1.3L437.4,290z"/>
<path d="M443.9,289.5c-1.7,0-3.1-1-3.1-3.5c0-2.1,1.3-3.5,2.9-3.5c2,0,2.8,1.5,2.8,3.4v0.3h-4.5c0,1.5,0.8,2.3,2,2.3
	c0.9,0,1.7-0.4,2.4-1l0.2,1.1C445.8,289.1,444.9,289.5,443.9,289.5L443.9,289.5z M442.1,285.2h3.2c-0.1-1.1-0.6-1.7-1.6-1.7
	C443,283.5,442.3,284,442.1,285.2L442.1,285.2z"/>
<path d="M449.4,285.4v4h-1.2v-6.7h1l0.2,1.4c0.5-0.9,1.4-1.4,2.3-1.5l0.2,1.2C450.9,283.8,449.9,284.4,449.4,285.4z"/>
<path d="M338.6,182.5l-3-3.6v3.5h-1.2v-9.9l1.2-0.2v6.2l2.6-2.8h1.5l-2.8,3l3,3.6L338.6,182.5z"/>
<path d="M341.8,174.4c-0.4,0-0.8-0.3-0.8-0.8c0-0.4,0.4-0.8,0.8-0.8c0.4,0,0.8,0.4,0.8,0.8c0,0,0,0,0,0
	C342.6,174.1,342.3,174.4,341.8,174.4z M341.2,182.4v-6.6h1.2v6.7L341.2,182.4z"/>
<path d="M344.6,182.4v-9.9l1.2-0.2v10.1L344.6,182.4z"/>
<path d="M348,182.4v-9.9l1.2-0.2v10.1L348,182.4z"/>
<path d="M357,182.5c-0.9,0-1.8-0.1-2.6-0.4v-9.6l1.2-0.2v4.2c0.5-0.6,1.2-0.9,2-0.9c1.4,0,2.6,1.1,2.6,3.3
	C360.3,181.4,358.9,182.5,357,182.5L357,182.5z M357.5,176.7c-0.7,0.1-1.4,0.5-1.8,1.1v3.4c0.4,0.2,0.9,0.2,1.3,0.2
	c1.3,0,2-0.8,2-2.5C359,177.5,358.4,176.7,357.5,176.7L357.5,176.7z"/>
<path d="M364.5,183c-0.6,1.6-1.3,2-2.4,2c-0.1,0-0.3,0-0.4-0.1l-0.2-1.1c0.2,0.1,0.5,0.1,0.7,0.1c0.5,0,0.9-0.3,1.1-0.8l0.2-0.7
	l-2.4-6.6l1.2-0.2l1.8,5.3l1.8-5.2h1.3L364.5,183z"/>
<path d="M316.8,197.6c-0.9,0-1.7-0.2-2.4-0.6l0.2-1.2c0.7,0.5,1.5,0.8,2.4,0.8c0.9,0,1.4-0.3,1.4-0.9s-0.4-0.8-1.6-1.1
	c-1.6-0.4-2.2-0.9-2.2-2.1s0.9-1.9,2.4-1.9c0.8,0,1.5,0.1,2.2,0.4l-0.2,1.2c-0.6-0.4-1.3-0.5-2-0.6c-0.8,0-1.1,0.3-1.1,0.8
	s0.3,0.7,1.4,1c1.6,0.4,2.4,0.9,2.4,2.2C319.4,196.9,318.5,197.6,316.8,197.6L316.8,197.6z"/>
<path d="M325,197.4l-0.1-0.9c-0.6,0.7-1.5,1-2.4,1c-1,0.1-1.9-0.6-2-1.5c0-0.1,0-0.2,0-0.3c0-1.7,1.4-2.3,4.2-2.6v-0.3
	c0-0.8-0.5-1.1-1.3-1.1c-0.8,0-1.6,0.2-2.3,0.6l-0.2-1.1c0.8-0.4,1.7-0.6,2.6-0.6c1.6,0,2.4,0.7,2.4,2.1v4.7L325,197.4z M324.8,194
	c-2.5,0.2-3,0.9-3,1.6c0,0.5,0.4,0.9,0.9,0.9c0,0,0.1,0,0.1,0c0.8,0,1.5-0.4,2-0.9V194z"/>
<path d="M330.6,198c-0.6,1.6-1.3,2-2.4,2c-0.1,0-0.3,0-0.4-0.1l-0.2-1.1c0.2,0.1,0.5,0.1,0.7,0.1c0.5,0,0.9-0.3,1.1-0.8l0.2-0.7
	l-2.4-6.6l1.2-0.2l1.8,5.3l1.8-5.2h1.3L330.6,198z"/>
<path d="M335.3,189.4c-0.4,0-0.8-0.3-0.8-0.8c0-0.4,0.4-0.8,0.8-0.8c0.4,0,0.8,0.4,0.8,0.8c0,0,0,0,0,0
	C336.1,189.1,335.7,189.4,335.3,189.4z M334.6,197.4v-6.6h1.2v6.7L334.6,197.4z"/>
<path d="M342.2,197.4v-4.6c0-0.7-0.3-1.1-1-1.1c-0.8,0.1-1.5,0.5-1.9,1.1v4.6H338v-6.7h1l0.1,1c0.6-0.7,1.5-1.1,2.4-1.1
	c1-0.1,1.8,0.6,1.9,1.6c0,0.1,0,0.3,0,0.4v4.9L342.2,197.4z"/>
<path d="M347.7,200c-1.7,0-3.1-0.5-3.1-1.7c0-0.7,0.5-1.2,1.4-1.7c-0.3-0.1-0.4-0.4-0.4-0.7c0-0.3,0.2-0.6,0.7-0.9
	c-0.8-0.4-1.3-1.1-1.2-2c0-1.3,1.1-2.4,2.4-2.3c0,0,0.1,0,0.1,0c0.6,0,1.2,0.2,1.7,0.6l1.7-0.5l0.2,1.1l-1.3,0.1
	c0.2,0.3,0.3,0.6,0.3,1c0,1.3-1.1,2.3-2.4,2.3c0,0-0.1,0-0.1,0c-0.2,0-0.3,0-0.5,0c-0.2,0.1-0.3,0.3-0.3,0.4s0.2,0.3,1.4,0.5
	l0.5,0.1c1.4,0.2,2.3,0.7,2.3,1.7C351,199.3,349.5,200,347.7,200L347.7,200z M346.9,197c-0.8,0.4-1.1,0.8-1.1,1.2
	c0,0.5,0.7,0.9,2,0.9s2-0.5,2-1c0-0.4-0.3-0.7-1.3-0.9l-0.8-0.1C347.4,197,347.2,197,346.9,197z M347.6,191.6
	c-0.7,0-1.4,0.6-1.4,1.3c0,0,0,0.1,0,0.1c0,0.7,0.5,1.3,1.2,1.4c0,0,0.1,0,0.1,0c0.8,0,1.4-0.6,1.4-1.4
	C349,192.2,348.4,191.6,347.6,191.6z"/>
<path d="M362,197.4h-1l-1.5-5.1l-1.5,5.1h-1l-2.2-6.6l1.2-0.2l1.5,4.9l1.5-4.8h1l1.5,4.9l1.5-4.9h1.2L362,197.4z"/>
<path d="M368,197.6c-1.8,0-3.1-1.3-3.1-3.5c0-2.2,1.3-3.5,3.1-3.5s3.1,1.3,3.1,3.5S369.8,197.6,368,197.6z M368,191.7
	c-1.2,0-1.8,1-1.8,2.4s0.6,2.4,1.8,2.4s1.9-1,1.9-2.4S369.2,191.7,368,191.7z"/>
<path d="M374,193.5v4h-1.2v-6.7h1l0.2,1.4c0.5-0.9,1.4-1.4,2.3-1.5l0.2,1.2C375.4,191.9,374.5,192.5,374,193.5z"/>
<path d="M382.1,197.4l-0.1-1c-0.5,0.7-1.3,1.1-2.2,1.1c-1.4,0-2.6-1-2.6-3.3c0-2.4,1.4-3.6,3-3.6c0.6,0,1.1,0.1,1.7,0.3v-3.5
	l1.2-0.2v10.1L382.1,197.4z M381.8,192.1c-0.5-0.3-1.1-0.4-1.6-0.4c-1,0-1.8,0.9-1.8,2.5c0,1.5,0.7,2.2,1.5,2.2
	c0.8-0.1,1.5-0.5,1.9-1.2L381.8,192.1z"/>
<path d="M387,197.6c-0.9,0-1.7-0.2-2.4-0.6l0.2-1.2c0.7,0.5,1.5,0.8,2.4,0.8c0.9,0,1.4-0.3,1.4-0.9s-0.4-0.8-1.6-1.1
	c-1.6-0.4-2.2-0.9-2.2-2.1s0.9-1.9,2.4-1.9c0.8,0,1.5,0.1,2.2,0.4l-0.2,1.2c-0.6-0.4-1.3-0.5-2-0.6c-0.8,0-1.1,0.3-1.1,0.8
	s0.3,0.7,1.4,1c1.6,0.4,2.4,0.9,2.4,2.2C389.7,196.9,388.8,197.6,387,197.6L387,197.6z"/>
<path d="M362.7,89.3c-0.6,0-0.9,0.2-0.9,0.8v1.3h1.3l0.1,1.1h-1.5v5.6h-1.2v-5.6h-1v-1.1h1v-1.5c0-1.3,0.9-1.8,2.1-1.8h0.5l0.2,1.1
	C363.1,89.3,362.9,89.3,362.7,89.3L362.7,89.3z M365.3,90.2c-0.4,0-0.8-0.3-0.8-0.8c0-0.4,0.4-0.8,0.8-0.8c0.4,0,0.8,0.4,0.8,0.8
	C366.1,89.8,365.7,90.2,365.3,90.2C365.3,90.2,365.3,90.2,365.3,90.2L365.3,90.2z M364.6,98.2v-6.7h1.2v6.7L364.6,98.2z"/>
<path d="M372.1,98.2v-4.6c0-0.7-0.3-1.2-1-1.2c-0.8,0.1-1.5,0.5-1.9,1.1v4.6H368v-6.7h1l0.1,1c0.6-0.7,1.5-1.1,2.4-1.1
	c1-0.1,1.8,0.6,1.9,1.6c0,0.1,0,0.3,0,0.4v4.9L372.1,98.2z"/>
<path d="M376,90.2c-0.4,0-0.8-0.3-0.8-0.8c0-0.4,0.4-0.8,0.8-0.8c0.4,0,0.8,0.4,0.8,0.8c0,0,0,0,0,0C376.8,89.9,376.4,90.2,376,90.2
	z M375.4,98.2v-6.7h1.2v6.7L375.4,98.2z"/>
<path d="M380.8,98.4c-0.9,0-1.7-0.2-2.4-0.6l0.2-1.2c0.7,0.5,1.5,0.8,2.4,0.8c0.9,0,1.4-0.3,1.4-0.9s-0.4-0.8-1.6-1.1
	c-1.6-0.4-2.2-0.9-2.2-2.1s0.9-1.8,2.4-1.8c0.8,0,1.5,0.1,2.2,0.4l-0.2,1.2c-0.6-0.4-1.3-0.5-2-0.6c-0.8,0-1.1,0.3-1.1,0.8
	s0.3,0.7,1.4,1c1.6,0.4,2.4,0.9,2.4,2.2S382.5,98.4,380.8,98.4z"/>
<path d="M389.1,98.2v-4.6c0-0.7-0.3-1.2-1-1.2c-0.8,0.1-1.5,0.5-1.9,1.1v4.6h-1.2v-9.9l1.2-0.2v4.3c0.6-0.6,1.4-1,2.3-1
	c1-0.1,1.8,0.6,1.9,1.6c0,0.1,0,0.3,0,0.4v4.9L389.1,98.2z"/>
<path d="M363,113.4c-1.8,0-3.1-1.2-3.1-3.5s1.4-3.5,3.1-3.5c0.8,0,1.5,0.2,2.2,0.6l-0.2,1.2c-0.6-0.5-1.3-0.7-2-0.7
	c-1.1,0-1.9,0.8-1.9,2.4s0.8,2.4,2,2.4c0.7,0,1.4-0.2,2-0.7l0.2,1.1C364.6,113.1,363.8,113.4,363,113.4L363,113.4z"/>
<path d="M368,109.3v4h-1.2v-6.7h1l0.2,1.4c0.5-0.9,1.4-1.4,2.3-1.5l0.2,1.2C369.5,107.7,368.5,108.3,368,109.3z"/>
<path d="M372.5,105.2c-0.4,0-0.8-0.3-0.8-0.8c0-0.4,0.4-0.8,0.8-0.8c0.4,0,0.8,0.4,0.8,0.8c0,0,0,0,0,0
	C373.3,104.9,373,105.2,372.5,105.2z M371.9,113.2v-6.7h1.2v6.7L371.9,113.2z"/>
<path d="M377.5,113.3c-1.2,0-2-0.4-2-1.8v-4h-1v-1h1v-2.2l1.2-0.2v2.4h1.4l0.2,1.1h-1.6v3.8c0,0.6,0.2,0.9,0.9,0.9
	c0.2,0,0.4,0,0.6,0l0.2,1.1C378.1,113.3,377.8,113.4,377.5,113.3L377.5,113.3z"/>
<path d="M382.6,113.4c-1.7,0-3.1-1-3.1-3.5c0-2.1,1.3-3.5,2.9-3.5c2,0,2.8,1.5,2.8,3.3v0.3h-4.5c0,1.6,0.8,2.3,2,2.3
	c0.9,0,1.7-0.4,2.4-1l0.2,1.1C384.5,113,383.6,113.4,382.6,113.4L382.6,113.4z M380.8,109.1h3.2c-0.1-1.1-0.6-1.7-1.6-1.7
	C381.7,107.4,381,108,380.8,109.1L380.8,109.1z"/>
<path d="M388.1,109.3v4h-1.2v-6.7h1l0.2,1.4c0.5-0.9,1.4-1.4,2.3-1.5l0.2,1.2C389.5,107.7,388.6,108.3,388.1,109.3z"/>
<path d="M392.6,105.2c-0.4,0-0.8-0.3-0.8-0.8c0-0.4,0.4-0.8,0.8-0.8c0.4,0,0.8,0.4,0.8,0.8c0,0,0,0,0,0
	C393.4,104.9,393,105.2,392.6,105.2z M392,113.2v-6.7h1.2v6.7L392,113.2z"/>
<path d="M399.3,113.2l-0.1-0.9c-0.6,0.7-1.5,1-2.4,1c-1,0.1-1.9-0.6-2-1.5c0-0.1,0-0.2,0-0.3c0-1.7,1.4-2.3,4.2-2.6v-0.3
	c0-0.8-0.5-1.1-1.3-1.1c-0.8,0-1.6,0.2-2.3,0.6l-0.1-1c0.8-0.4,1.7-0.6,2.6-0.6c1.6,0,2.4,0.7,2.4,2.1v4.7H399.3z M399.1,109.8
	c-2.5,0.2-3,0.9-3,1.6c0,0.5,0.4,0.9,0.9,0.9c0,0,0.1,0,0.1,0c0.8,0,1.5-0.4,2-0.9V109.8z"/>
</svg>
