<svg viewBox="0 0 486.72 486.72" xmlns="https://www.w3.org/2000/svg"><path d="m268.83 36.75v10.25h-1.6v-10.25h-3.74v-1.46h8.94l.24 1.46z"/><path d="m274.67 37.27a1 1 0 0 1 -1-1 1 1 0 0 1 1-1 1 1 0 0 1 1 1 1 1 0 0 1 -1 1zm-.76 9.73v-8.09h1.51v8.09z"/><path d="m287.92 47v-5.51c0-.83-.31-1.39-1.19-1.39a3.37 3.37 0 0 0 -2.29 1.31v5.59h-1.51v-5.51c0-.83-.31-1.39-1.19-1.39a3.37 3.37 0 0 0 -2.29 1.31v5.59h-1.51v-8.09h1.21l.19 1.17a4.27 4.27 0 0 1 2.82-1.34 2 2 0 0 1 2.14 1.34 4.28 4.28 0 0 1 2.86-1.34 2.11 2.11 0 0 1 2.29 2.38v5.88z"/><path d="m295.07 47.18c-2.11 0-3.76-1.27-3.76-4.25 0-2.6 1.53-4.2 3.57-4.2 2.36 0 3.45 1.82 3.45 4.06v.32h-5.51c.05 1.89 1 2.77 2.36 2.77a4.47 4.47 0 0 0 2.91-1.16l.22 1.36a5 5 0 0 1 -3.24 1.1zm-2.17-5.18h3.91c-.19-1.31-.77-2.06-1.94-2.06-.93-.01-1.73.67-1.97 2.06z"/><path d="m304.22 47v-11.71h1.6v10.26h4.23l.22 1.46z"/><path d="m312.84 37.27a1 1 0 0 1 -1-1 1 1 0 0 1 1-1 1 1 0 0 1 1 1 1 1 0 0 1 -1 1zm-.77 9.73v-8.09h1.51v8.09z"/><path d="m326.08 47v-5.51c0-.83-.31-1.39-1.19-1.39a3.37 3.37 0 0 0 -2.29 1.31v5.59h-1.51v-5.51c0-.83-.31-1.39-1.19-1.39a3.37 3.37 0 0 0 -2.29 1.31v5.59h-1.51v-8.09h1.21l.19 1.17a4.27 4.27 0 0 1 2.82-1.34 2 2 0 0 1 2.14 1.34 4.28 4.28 0 0 1 2.86-1.34 2.11 2.11 0 0 1 2.29 2.38v5.88z"/><path d="m330.83 37.27a1 1 0 0 1 -1-1 1 1 0 0 1 1-1 1 1 0 0 1 1 1 1 1 0 0 1 -1 1zm-.77 9.73v-8.09h1.51v8.09z"/><path d="m336.83 47.15c-1.43 0-2.36-.51-2.36-2.14v-4.83h-1.22v-1.27h1.22v-2.71l1.48-.22v2.92h1.75l.2 1.27h-2v4.56c0 .66.27 1.07 1.12 1.07a4 4 0 0 0 .7-.05l.28 1.25a5.66 5.66 0 0 1 -1.17.15z"/><rect fill="none" height="27" rx="3.98" stroke="#006" stroke-miterlimit="10" stroke-width="2" width="93" x="253.57" y="28.01"/><path d="m388.48 96.35h-2.8v-11.73h2.84c2.58 0 3.79 1.24 3.79 3a2.5 2.5 0 0 1 -1.68 2.43 2.77 2.77 0 0 1 2.19 2.82c-.01 2.39-1.64 3.48-4.34 3.48zm0-10.37h-1.24v3.57h1.12c1.55 0 2.38-.68 2.38-1.84s-.66-1.71-2.26-1.71zm.07 4.88h-1.31v4.14h1.36c1.68 0 2.65-.68 2.65-2s-.95-2.14-2.71-2.14z"/><path d="m395.6 86.61a1 1 0 0 1 -1-1 1 1 0 0 1 1-1 1 1 0 0 1 1 1 1 1 0 0 1 -1 1zm-.77 9.74v-8.11h1.51v8.11z"/><path d="m402.11 96.52c-2.16 0-3.72-1.55-3.72-4.22s1.56-4.23 3.72-4.23 3.77 1.56 3.77 4.23-1.59 4.22-3.77 4.22zm0-7.17c-1.46 0-2.19 1.26-2.19 3s.77 3 2.19 3 2.24-1.26 2.24-3-.78-3.01-2.24-3.01z"/><path d="m417.8 96.35v-5.53c0-.83-.3-1.39-1.19-1.39a3.37 3.37 0 0 0 -2.29 1.31v5.61h-1.52v-5.53c0-.83-.31-1.39-1.19-1.39a3.37 3.37 0 0 0 -2.29 1.31v5.61h-1.51v-8.11h1.19l.19 1.17a4.26 4.26 0 0 1 2.81-1.34 2 2 0 0 1 2.14 1.34 4.28 4.28 0 0 1 2.86-1.34 2.11 2.11 0 0 1 2.29 2.38v5.9z"/><path d="m425 96.52c-2.11 0-3.76-1.27-3.76-4.25 0-2.6 1.53-4.2 3.57-4.2 2.36 0 3.45 1.82 3.45 4.06v.32h-5.51c.05 1.89 1 2.77 2.36 2.77a4.47 4.47 0 0 0 2.89-1.15l.22 1.36a5 5 0 0 1 -3.22 1.09zm-2.18-5.2h3.91c-.19-1.31-.77-2.06-1.94-2.06-.97 0-1.79.68-2.01 2.06z"/><path d="m432.9 96.48c-1.43 0-2.36-.51-2.36-2.14v-4.83h-1.22v-1.27h1.22v-2.7l1.48-.22v2.92h1.75l.2 1.27h-2v4.56c0 .66.27 1.07 1.12 1.07a4 4 0 0 0 .7-.05l.2 1.29a5.67 5.67 0 0 1 -1.09.1z"/><path d="m437.39 91.55v4.79h-1.51v-8.1h1.21l.25 1.65a3.59 3.59 0 0 1 2.84-1.82l.24 1.44a3.71 3.71 0 0 0 -3.03 2.04z"/><path d="m442.84 86.61a1 1 0 0 1 -1-1 1 1 0 0 1 1-1 1 1 0 0 1 1 1 1 1 0 0 1 -1 1zm-.77 9.74v-8.11h1.51v8.11z"/><path d="m449.47 96.52c-2.18 0-3.77-1.51-3.77-4.22s1.7-4.23 3.81-4.23a4.39 4.39 0 0 1 2.65.75l-.22 1.48a3.67 3.67 0 0 0 -2.45-.9c-1.33 0-2.26 1-2.26 2.89s1 2.91 2.43 2.91a3.33 3.33 0 0 0 2.36-.9l.22 1.36a4.27 4.27 0 0 1 -2.77.86z"/><path d="m456.59 96.52a6.65 6.65 0 0 1 -3-.76l.22-1.43a5.06 5.06 0 0 0 2.86.94c1 0 1.65-.39 1.65-1.07s-.46-1-1.92-1.38c-1.9-.48-2.67-1.05-2.67-2.5 0-1.29 1.09-2.24 2.86-2.24a6.56 6.56 0 0 1 2.67.54l-.2 1.38a5.17 5.17 0 0 0 -2.46-.7c-.92 0-1.39.36-1.39.94s.41.85 1.68 1.17c2 .51 2.91 1.09 2.91 2.63s-1.12 2.48-3.21 2.48z"/><rect fill="none" height="27" rx="3.98" stroke="#006" stroke-miterlimit="10" stroke-width="2" width="93" x="374.91" y="77.35"/><path d="m68.17 164.4h-1.42l-4.52-11.56 1.6-.34 3.65 9.76 3.59-9.64h1.68z"/><path d="m74.86 154.61a1 1 0 0 1 -1-1 1 1 0 0 1 1-1 1 1 0 0 1 1 1 1 1 0 0 1 -1 1zm-.77 9.74v-8.11h1.51v8.11z"/><path d="m81.4 164.52c-2.11 0-3.76-1.27-3.76-4.25 0-2.6 1.53-4.2 3.57-4.2 2.36 0 3.45 1.82 3.45 4.06v.32h-5.5c.05 1.89 1 2.77 2.36 2.77a4.47 4.47 0 0 0 2.91-1.16l.22 1.36a5 5 0 0 1 -3.25 1.1zm-2.18-5.2h3.91c-.19-1.31-.77-2.06-1.94-2.06-.93 0-1.73.68-1.97 2.06z"/><path d="m94.35 164.35h-1.18l-1.87-6.14-1.85 6.14h-1.18l-2.62-8 1.45-.24 1.79 6 1.8-5.88h1.31l1.8 5.88 1.73-5.88h1.47z"/><path d="m101.67 164.52c-2.11 0-3.76-1.27-3.76-4.25 0-2.6 1.53-4.2 3.57-4.2 2.36 0 3.45 1.82 3.45 4.06v.32h-5.51c.05 1.89 1 2.77 2.36 2.77a4.47 4.47 0 0 0 2.91-1.16l.22 1.36a5 5 0 0 1 -3.24 1.1zm-2.18-5.2h3.91c-.19-1.31-.77-2.06-1.94-2.06-.93 0-1.73.68-1.97 2.06z"/><path d="m108.36 159.55v4.79h-1.51v-8.11h1.21l.25 1.65a3.59 3.59 0 0 1 2.84-1.82l.24 1.44a3.71 3.71 0 0 0 -3.03 2.05z"/><rect fill="none" height="27" rx="3.98" stroke="#006" stroke-miterlimit="10" stroke-width="2" width="93" x="40.24" y="145.35"/><path d="m155.51 207.67h-1.24v4.76h-1.6v-11.73h3.11c2.48 0 4 1.21 4 3.38-.02 2.4-1.72 3.59-4.27 3.59zm.19-5.56h-1.43v4.15h1.33c1.6 0 2.55-.66 2.55-2.12s-.86-2.03-2.45-2.03z"/><path d="m164.33 212.6c-2.11 0-3.76-1.27-3.76-4.25 0-2.6 1.53-4.2 3.57-4.2 2.36 0 3.45 1.82 3.45 4.06v.32h-5.51c.05 1.89 1 2.77 2.36 2.77a4.47 4.47 0 0 0 2.91-1.16l.22 1.36a5 5 0 0 1 -3.24 1.1zm-2.18-5.2h3.91c-.19-1.31-.76-2.06-1.94-2.06-.93 0-1.73.66-1.96 2.06z"/><path d="m171 207.64v4.79h-1.51v-8.11h1.21l.3 1.68a3.59 3.59 0 0 1 2.84-1.82l.24 1.44a3.71 3.71 0 0 0 -3.08 2.02z"/><path d="m178.66 201.65c-.7 0-1.12.29-1.12 1v1.63h1.63l.19 1.27h-1.82v6.83h-1.48v-6.78h-1.22v-1.27h1.22v-1.78c0-1.61 1.07-2.23 2.52-2.23h.65l.22 1.38a4.43 4.43 0 0 0 -.79-.05z"/><path d="m184 212.6c-2.16 0-3.72-1.55-3.72-4.22s1.56-4.23 3.72-4.23 3.77 1.56 3.77 4.23-1.59 4.22-3.77 4.22zm0-7.17c-1.46 0-2.19 1.26-2.19 3s.77 3 2.19 3 2.24-1.26 2.24-3-.78-3-2.24-3z"/><path d="m191.21 207.64v4.79h-1.51v-8.11h1.21l.25 1.65a3.59 3.59 0 0 1 2.84-1.82l.24 1.44a3.71 3.71 0 0 0 -3.03 2.05z"/><path d="m205.78 212.43v-5.52c0-.83-.31-1.39-1.19-1.39a3.37 3.37 0 0 0 -2.29 1.31v5.61h-1.51v-5.52c0-.83-.31-1.39-1.19-1.39a3.37 3.37 0 0 0 -2.29 1.31v5.61h-1.51v-8.11h1.2l.19 1.17a4.27 4.27 0 0 1 2.82-1.34 2 2 0 0 1 2.14 1.34 4.28 4.28 0 0 1 2.86-1.34 2.11 2.11 0 0 1 2.29 2.38v5.9z"/><path d="m214.55 212.43-.17-1.09a3.83 3.83 0 0 1 -2.86 1.26 2.17 2.17 0 0 1 -2.38-2.26c0-2 1.73-2.82 5.12-3.18v-.34c0-1-.61-1.38-1.55-1.38a7 7 0 0 0 -2.8.7l-.2-1.31a7.85 7.85 0 0 1 3.14-.68c2 0 2.92.8 2.92 2.6v5.68zm-.29-4.11c-3 .29-3.62 1.1-3.62 1.94a1.06 1.06 0 0 0 1.21 1.09 3.44 3.44 0 0 0 2.41-1.14z"/><path d="m223.22 212.43v-5.52c0-.83-.36-1.39-1.24-1.39a3.47 3.47 0 0 0 -2.35 1.31v5.61h-1.51v-8.11h1.21l.19 1.17a4.35 4.35 0 0 1 2.87-1.34 2.16 2.16 0 0 1 2.35 2.38v5.9z"/><path d="m230.46 212.6c-2.18 0-3.77-1.51-3.77-4.22s1.7-4.23 3.81-4.23a4.39 4.39 0 0 1 2.65.75l-.22 1.48a3.67 3.67 0 0 0 -2.45-.9c-1.33 0-2.26 1-2.26 2.89s1 2.91 2.43 2.91a3.33 3.33 0 0 0 2.36-.9l.22 1.36a4.28 4.28 0 0 1 -2.77.86z"/><path d="m238.26 212.6c-2.11 0-3.76-1.27-3.76-4.25 0-2.6 1.53-4.2 3.57-4.2 2.36 0 3.45 1.82 3.45 4.06v.32h-5.52c.05 1.89 1 2.77 2.36 2.77a4.47 4.47 0 0 0 2.91-1.16l.22 1.36a5 5 0 0 1 -3.23 1.1zm-2.18-5.2h3.92c-.19-1.31-.77-2.06-1.94-2.06-.94 0-1.73.66-1.97 2.06z"/><path d="m252.1 212.43-.17-1.09a3.83 3.83 0 0 1 -2.86 1.26 2.17 2.17 0 0 1 -2.38-2.26c0-2 1.73-2.82 5.12-3.18v-.34c0-1-.61-1.38-1.55-1.38a7 7 0 0 0 -2.8.7l-.2-1.31a7.85 7.85 0 0 1 3.14-.68c2 0 2.92.8 2.92 2.6v5.68zm-.29-4.11c-3 .29-3.62 1.1-3.62 1.94a1.06 1.06 0 0 0 1.21 1.09 3.44 3.44 0 0 0 2.41-1.14z"/><path d="m258.56 215.52c-2.11 0-3.79-.66-3.79-2.09 0-.83.58-1.48 1.72-2.09a1 1 0 0 1 -.51-.85c0-.39.31-.76.85-1.1a2.62 2.62 0 0 1 -1.51-2.41 2.9 2.9 0 0 1 3.11-2.82 3.36 3.36 0 0 1 2.09.7l2.06-.65.22 1.36-1.55.15a2.61 2.61 0 0 1 .32 1.26 2.88 2.88 0 0 1 -3.11 2.79 3.42 3.42 0 0 1 -.61-.05c-.24.15-.41.34-.41.49s.29.36 1.72.61l.58.1c1.72.31 2.79.85 2.79 2.11-.01 1.7-1.86 2.49-3.97 2.49zm-1-3.72c-.93.48-1.36 1-1.36 1.51s.83 1.12 2.41 1.12 2.46-.54 2.46-1.22c0-.49-.37-.83-1.53-1l-1-.17c-.39-.12-.64-.15-.96-.24zm.85-6.54a1.64 1.64 0 0 0 -1.65 1.77 1.59 1.59 0 0 0 1.65 1.67 1.72 1.72 0 0 0 0-3.43z"/><path d="m267.13 215.52c-2.11 0-3.79-.66-3.79-2.09 0-.83.58-1.48 1.72-2.09a1 1 0 0 1 -.51-.85c0-.39.31-.76.85-1.1a2.62 2.62 0 0 1 -1.51-2.41 2.9 2.9 0 0 1 3.11-2.82 3.36 3.36 0 0 1 2.09.7l2.06-.65.22 1.36-1.55.15a2.61 2.61 0 0 1 .32 1.26 2.88 2.88 0 0 1 -3.11 2.79 3.42 3.42 0 0 1 -.61-.05c-.24.15-.41.34-.41.49s.29.36 1.72.61l.58.1c1.72.31 2.79.85 2.79 2.11-.01 1.7-1.86 2.49-3.97 2.49zm-1-3.72c-.93.48-1.36 1-1.36 1.51s.83 1.12 2.41 1.12 2.46-.54 2.46-1.22c0-.49-.37-.83-1.53-1l-1-.17c-.39-.12-.64-.15-.97-.24zm.85-6.54a1.64 1.64 0 0 0 -1.65 1.77 1.59 1.59 0 0 0 1.65 1.67 1.72 1.72 0 0 0 0-3.43z"/><path d="m274.32 207.64v4.79h-1.51v-8.11h1.19l.25 1.65a3.59 3.59 0 0 1 2.84-1.82l.24 1.44a3.71 3.71 0 0 0 -3.01 2.05z"/><path d="m281.89 212.6c-2.11 0-3.76-1.27-3.76-4.25 0-2.6 1.53-4.2 3.57-4.2 2.36 0 3.45 1.82 3.45 4.06v.32h-5.51c.05 1.89 1 2.77 2.36 2.77a4.47 4.47 0 0 0 2.91-1.16l.22 1.36a5 5 0 0 1 -3.24 1.1zm-2.18-5.2h3.91c-.19-1.31-.77-2.06-1.94-2.06-.93 0-1.73.66-1.97 2.06z"/><path d="m290 215.52c-2.11 0-3.79-.66-3.79-2.09 0-.83.58-1.48 1.72-2.09a1 1 0 0 1 -.51-.85c0-.39.31-.76.85-1.1a2.62 2.62 0 0 1 -1.51-2.41 2.9 2.9 0 0 1 3.11-2.82 3.36 3.36 0 0 1 2.09.7l2.06-.65.22 1.36-1.55.15a2.61 2.61 0 0 1 .31 1.28 2.88 2.88 0 0 1 -3.11 2.79 3.42 3.42 0 0 1 -.61-.05c-.24.15-.41.34-.41.49s.29.36 1.72.61l.58.1c1.72.31 2.79.85 2.79 2.11-.04 1.68-1.89 2.47-3.96 2.47zm-1-3.72c-.93.48-1.36 1-1.36 1.51s.83 1.12 2.41 1.12 2.46-.54 2.46-1.22c0-.49-.37-.83-1.53-1l-1-.17c-.43-.12-.68-.15-.98-.24zm.85-6.54a1.64 1.64 0 0 0 -1.65 1.77 1.59 1.59 0 0 0 1.65 1.67 1.72 1.72 0 0 0 0-3.43z"/><path d="m300.47 212.43-.17-1.09a3.83 3.83 0 0 1 -2.86 1.26 2.17 2.17 0 0 1 -2.38-2.26c0-2 1.73-2.82 5.12-3.18v-.34c0-1-.61-1.38-1.55-1.38a7 7 0 0 0 -2.8.7l-.2-1.31a7.85 7.85 0 0 1 3.14-.68c2 0 2.92.8 2.92 2.6v5.68zm-.29-4.11c-3 .29-3.62 1.1-3.62 1.94a1.06 1.06 0 0 0 1.21 1.09 3.44 3.44 0 0 0 2.41-1.14z"/><path d="m306.79 212.57c-1.43 0-2.36-.51-2.36-2.14v-4.83h-1.23v-1.27h1.22v-2.7l1.48-.22v2.92h1.75l.2 1.27h-2v4.56c0 .66.27 1.07 1.12 1.07a4 4 0 0 0 .7-.05l.2 1.29a5.66 5.66 0 0 1 -1.08.1z"/><path d="m313 212.6c-2.16 0-3.72-1.55-3.72-4.22s1.56-4.23 3.72-4.23 3.77 1.56 3.77 4.23-1.63 4.22-3.77 4.22zm0-7.17c-1.46 0-2.19 1.26-2.19 3s.76 3 2.19 3 2.24-1.26 2.24-3-.82-3-2.24-3z"/><path d="m320.17 207.64v4.79h-1.51v-8.11h1.21l.25 1.65a3.59 3.59 0 0 1 2.84-1.82l.24 1.44a3.71 3.71 0 0 0 -3.03 2.05z"/><rect fill="none" height="27" rx="3.98" stroke="#006" stroke-miterlimit="10" stroke-width="2" width="182.93" x="145.94" y="193.43"/><path d="m13.7 261.35v-1.19l6.68-9.16h-6.17l-.21-1.38h8.3v1.19l-6.68 9.19h6.61l.22 1.39z"/><path d="m27.25 261.52c-2.16 0-3.72-1.55-3.72-4.22s1.56-4.23 3.72-4.23 3.75 1.57 3.75 4.24-1.58 4.21-3.75 4.21zm0-7.17c-1.46 0-2.19 1.26-2.19 3s.77 3 2.19 3 2.24-1.26 2.24-3-.78-3-2.24-3z"/><path d="m42.94 261.35v-5.52c0-.83-.31-1.39-1.19-1.39a3.37 3.37 0 0 0 -2.29 1.31v5.61h-1.52v-5.52c0-.83-.31-1.39-1.19-1.39a3.37 3.37 0 0 0 -2.29 1.31v5.61h-1.52v-8.11h1.21l.19 1.17a4.27 4.27 0 0 1 2.82-1.34 2 2 0 0 1 2.14 1.34 4.28 4.28 0 0 1 2.86-1.34 2.11 2.11 0 0 1 2.29 2.38v5.9z"/><path d="m50 261.45a10 10 0 0 1 -3.16-.51v-11.62l1.51-.24v5.12a3.33 3.33 0 0 1 2.43-1.12c1.75 0 3.2 1.29 3.2 4-.04 2.92-1.68 4.37-3.98 4.37zm.56-7a3 3 0 0 0 -2.21 1.33v4.15a4.1 4.1 0 0 0 1.63.27c1.58 0 2.46-.93 2.46-3-.03-1.83-.83-2.78-1.92-2.78z"/><path d="m56.74 251.61a1 1 0 0 1 -1-1 1 1 0 0 1 1-1 1 1 0 0 1 1 1 1 1 0 0 1 -1 1zm-.74 9.74v-8.11h1.51v8.11z"/><path d="m63.29 261.52c-2.11 0-3.76-1.28-3.76-4.25 0-2.6 1.53-4.2 3.57-4.2 2.36 0 3.45 1.82 3.45 4.06v.32h-5.55c.05 1.89 1 2.77 2.36 2.77a4.47 4.47 0 0 0 2.91-1.16l.22 1.36a5.05 5.05 0 0 1 -3.2 1.1zm-2.18-5.2h3.89c-.19-1.31-.77-2.06-1.94-2.06-.91 0-1.71.68-1.95 2.06z"/><path d="m77.38 264.51v-4.1a3.39 3.39 0 0 1 -2.43 1.11c-1.75 0-3.2-1.28-3.2-4 0-3 1.63-4.38 4-4.38a10 10 0 0 1 3.16.51v10.64zm0-9.79a4.07 4.07 0 0 0 -1.63-.29c-1.58 0-2.46 1-2.46 3 0 1.78.8 2.72 1.89 2.72a3 3 0 0 0 2.21-1.33z"/><path d="m86.64 261.35-.19-1.17a4.31 4.31 0 0 1 -2.87 1.34 2.15 2.15 0 0 1 -2.35-2.38v-5.9h1.51v5.52c0 .83.36 1.39 1.24 1.39a3.47 3.47 0 0 0 2.35-1.31v-5.61h1.51v8.11z"/><path d="m93.53 261.52c-2.11 0-3.76-1.28-3.76-4.25 0-2.6 1.53-4.2 3.57-4.2 2.36 0 3.45 1.82 3.45 4.06v.32h-5.5c.05 1.89 1 2.77 2.36 2.77a4.47 4.47 0 0 0 2.91-1.16l.22 1.36a5.05 5.05 0 0 1 -3.25 1.1zm-2.18-5.2h3.91c-.19-1.31-.77-2.06-1.94-2.06-.93 0-1.73.68-1.97 2.06z"/><path d="m104.09 261.35-.19-1.17a4.31 4.31 0 0 1 -2.87 1.34 2.15 2.15 0 0 1 -2.35-2.38v-5.9h1.51v5.52c0 .83.36 1.39 1.24 1.39a3.47 3.47 0 0 0 2.35-1.31v-5.61h1.51v8.11z"/><path d="m111 261.52c-2.11 0-3.76-1.28-3.76-4.25 0-2.6 1.53-4.2 3.57-4.2 2.36 0 3.45 1.82 3.45 4.06v.32h-5.51c.05 1.89 1 2.77 2.36 2.77a4.47 4.47 0 0 0 2.91-1.16l.22 1.36a5.05 5.05 0 0 1 -3.24 1.1zm-2.18-5.2h3.91c-.19-1.31-.77-2.06-1.94-2.06-.96 0-1.79.68-2 2.06z"/><path d="m38.48 288.11h-1.75l1.39-4 .85.2zm3.09 0h-1.75l1.39-4 .85.2z"/><path d="m52.13 296h-1.19l-1.87-6.14-1.86 6.14h-1.21l-2.62-8 1.44-.24 1.79 6 1.8-5.88h1.27l1.8 5.88 1.73-5.88h1.48z"/><path d="m59.4 296.18c-2.16 0-3.72-1.55-3.72-4.22s1.56-4.23 3.72-4.23 3.77 1.56 3.77 4.23-1.59 4.22-3.77 4.22zm0-7.17c-1.46 0-2.19 1.26-2.19 3s.76 3 2.19 3 2.24-1.26 2.24-3-.78-3.01-2.24-3.01z"/><path d="m66.61 291.22v4.78h-1.51v-8.11h1.2l.25 1.65a3.59 3.59 0 0 1 2.84-1.82l.24 1.44a3.71 3.71 0 0 0 -3.02 2.06z"/><path d="m76.44 296-.19-1.17a3.36 3.36 0 0 1 -2.63 1.34c-1.75 0-3.2-1.28-3.2-4 0-3 1.7-4.38 3.67-4.38a5.7 5.7 0 0 1 2 .36v-4.15l1.51-.24v12.24zm-.31-6.48a3.83 3.83 0 0 0 -2-.46c-1.27 0-2.19 1-2.19 3 0 1.78.8 2.72 1.89 2.72a2.9 2.9 0 0 0 2.29-1.43z"/><path d="m81.77 296v-9.93l-2.4.9-.17-1.22 2.8-1.26h1.33v11.51z"/><path d="m86.64 288.25-.85-.2.49-3.76h1.72zm3.09 0-.85-.2.49-3.76h1.75z"/><path d="m37 309.44h-1.78l1.39-4 .85.2zm3.09 0h-1.78l1.39-4 .85.2z"/><path d="m50.62 317.35h-1.19l-1.87-6.14-1.85 6.14h-1.17l-2.62-8 1.44-.24 1.78 6 1.8-5.88h1.27l1.8 5.88 1.73-5.88h1.48z"/><path d="m57.9 317.52c-2.16 0-3.72-1.55-3.72-4.21s1.56-4.23 3.72-4.23 3.77 1.56 3.77 4.23-1.6 4.21-3.77 4.21zm0-7.17c-1.46 0-2.19 1.26-2.19 3s.76 3 2.19 3 2.24-1.26 2.24-3-.78-3.01-2.24-3.01z"/><path d="m65.11 312.55v4.79h-1.52v-8.11h1.21l.25 1.65a3.59 3.59 0 0 1 2.84-1.82l.24 1.45a3.71 3.71 0 0 0 -3.02 2.04z"/><path d="m74.93 317.35-.19-1.17a3.36 3.36 0 0 1 -2.63 1.34c-1.75 0-3.2-1.27-3.2-4 0-3 1.7-4.39 3.67-4.39a5.7 5.7 0 0 1 2 .36v-4.18l1.51-.24v12.27zm-.31-6.48a3.84 3.84 0 0 0 -2-.46c-1.27 0-2.19 1-2.19 3 0 1.79.8 2.72 1.89 2.72a2.9 2.9 0 0 0 2.29-1.43z"/><path d="m78.08 317.35v-1.17l4.25-4.44c1-1.09 1.5-1.82 1.5-2.75 0-1.29-.75-1.94-2.09-1.94a4.73 4.73 0 0 0 -3.13 1.36l-.22-1.48a5.21 5.21 0 0 1 3.43-1.29c2.23 0 3.59 1.28 3.59 3.25 0 1.39-.63 2.33-2 3.77l-3.33 3.34h5.29l.2 1.36z"/><path d="m88.14 309.58-.85-.2.49-3.76h1.75zm3.09 0-.85-.2.49-3.76h1.75z"/><path d="m37.14 330.78h-1.75l1.39-4 .85.2zm3.09 0h-1.75l1.39-4 .85.2z"/><path d="m50.79 338.68h-1.19l-1.87-6.14-1.85 6.14h-1.17l-2.62-8 1.45-.24 1.78 6 1.8-5.88h1.28l1.8 5.88 1.73-5.88h1.48z"/><path d="m58.07 338.85c-2.16 0-3.72-1.55-3.72-4.22s1.56-4.23 3.72-4.23 3.77 1.56 3.77 4.23-1.6 4.22-3.77 4.22zm0-7.17c-1.46 0-2.19 1.26-2.19 3s.76 3 2.19 3 2.24-1.26 2.24-3-.78-3-2.24-3z"/><path d="m65.28 333.89v4.79h-1.52v-8.11h1.24l.25 1.65a3.59 3.59 0 0 1 2.84-1.82l.24 1.44a3.71 3.71 0 0 0 -3.05 2.05z"/><path d="m75.1 338.68-.19-1.17a3.36 3.36 0 0 1 -2.63 1.34c-1.75 0-3.2-1.28-3.2-4 0-3 1.7-4.38 3.67-4.38a5.7 5.7 0 0 1 2 .36v-4.18l1.51-.24v12.27zm-.31-6.48a3.83 3.83 0 0 0 -2-.46c-1.27 0-2.19 1-2.19 3 0 1.78.8 2.72 1.89 2.72a2.9 2.9 0 0 0 2.29-1.43z"/><path d="m81.36 338.9a6.5 6.5 0 0 1 -3.3-.9l.26-1.5a5.25 5.25 0 0 0 3.13 1c1.51 0 2.45-.68 2.45-2s-.94-2.23-3.14-2.23h-.53l-.23-1.27h.87c1.9 0 2.8-.68 2.8-1.92 0-1-.71-1.7-2.16-1.7a4.77 4.77 0 0 0 -3 1.1l-.26-1.48a5.34 5.34 0 0 1 3.33-1c2.58 0 3.65 1.46 3.65 3a2.68 2.68 0 0 1 -2.11 2.65 2.79 2.79 0 0 1 2.33 2.91c0 2-1.58 3.34-4.09 3.34z"/><path d="m88 330.91-.85-.2.49-3.76h1.75zm3.09 0-.85-.2.49-3.76h1.75z"/><path d="m36.5 352.11h-1.75l1.39-4 .85.2zm3.09 0h-1.74l1.39-4 .85.2z"/><path d="m50.15 360h-1.15l-1.87-6.14-1.89 6.14h-1.17l-2.62-8 1.44-.24 1.78 6 1.8-5.88h1.27l1.8 5.88 1.73-5.88h1.48z"/><path d="m57.43 360.18c-2.16 0-3.72-1.55-3.72-4.22s1.56-4.23 3.72-4.23 3.77 1.57 3.77 4.27-1.59 4.18-3.77 4.18zm0-7.17c-1.46 0-2.19 1.26-2.19 3s.76 3 2.19 3 2.24-1.26 2.24-3-.78-3.01-2.24-3.01z"/><path d="m64.64 355.22v4.78h-1.51v-8.11h1.21l.25 1.65a3.59 3.59 0 0 1 2.84-1.82l.24 1.45a3.71 3.71 0 0 0 -3.03 2.05z"/><path d="m74.46 360-.19-1.17a3.36 3.36 0 0 1 -2.63 1.34c-1.75 0-3.2-1.27-3.2-4 0-3 1.7-4.38 3.67-4.38a5.68 5.68 0 0 1 2 .36v-4.15l1.51-.24v12.24zm-.31-6.48a3.83 3.83 0 0 0 -2-.46c-1.27 0-2.19 1-2.19 3 0 1.78.8 2.72 1.89 2.72a2.9 2.9 0 0 0 2.29-1.43z"/><path d="m84.61 357.41v2.59h-1.41v-2.6h-5.74v-1.12l5.34-7.8h1.82v7.67h1.84v1.26zm-1.41-7.21-4.11 5.95h4.11z"/><path d="m88.61 352.25-.85-.2.49-3.76h1.75zm3.09 0-.85-.2.49-3.76h1.76z"/><path d="m37 373.44h-1.72l1.39-4 .85.2zm3.09 0h-1.72l1.39-4 .85.2z"/><path d="m50.68 381.35h-1.19l-1.87-6.14-1.85 6.14h-1.17l-2.62-8 1.44-.24 1.78 6 1.8-5.88h1.27l1.8 5.88 1.73-5.88h1.5z"/><path d="m58 381.52c-2.16 0-3.72-1.55-3.72-4.21s1.56-4.23 3.72-4.23 3.77 1.56 3.77 4.23-1.64 4.21-3.77 4.21zm0-7.17c-1.46 0-2.19 1.26-2.19 3s.76 3 2.19 3 2.24-1.26 2.24-3-.82-3.01-2.24-3.01z"/><path d="m65.17 376.55v4.79h-1.52v-8.11h1.21l.25 1.65a3.59 3.59 0 0 1 2.89-1.81l.24 1.45a3.71 3.71 0 0 0 -3.07 2.03z"/><path d="m75 381.35-.19-1.17a3.36 3.36 0 0 1 -2.63 1.34c-1.75 0-3.2-1.27-3.2-4 0-3 1.7-4.39 3.67-4.39a5.7 5.7 0 0 1 2 .36v-4.18l1.51-.24v12.27zm-.31-6.48a3.84 3.84 0 0 0 -2-.46c-1.27 0-2.19 1-2.19 3 0 1.79.8 2.72 1.89 2.72a2.9 2.9 0 0 0 2.29-1.43z"/><path d="m81.43 381.57a6 6 0 0 1 -3.32-.88l.24-1.44a5.35 5.35 0 0 0 3.13 1 2.33 2.33 0 0 0 2.63-2.4 2.13 2.13 0 0 0 -2.43-2.21 4.76 4.76 0 0 0 -2 .37l-1.14-.25.41-5.88h6.05l.2 1.36h-5l-.2 3.33a5.91 5.91 0 0 1 1.84-.29c2.35 0 3.79 1.39 3.79 3.47.02 2.44-1.82 3.82-4.2 3.82z"/><path d="m88.08 373.58-.85-.2.49-3.76h1.75zm3.09 0-.85-.2.49-3.76h1.75z"/><rect fill="none" height="27" rx="3.98" stroke="#006" stroke-miterlimit="10" stroke-width="2" width="114.26" x="6.8" y="242.35"/><path d="m158.61 280v-1.19l6.68-9.15h-6.17l-.22-1.39h8.31v1.19l-6.68 9.15h6.61l.22 1.39z"/><path d="m172.15 280.18c-2.16 0-3.72-1.55-3.72-4.21s1.56-4.23 3.72-4.23 3.77 1.56 3.77 4.23-1.59 4.21-3.77 4.21zm0-7.17c-1.46 0-2.19 1.26-2.19 3s.77 3 2.19 3 2.24-1.26 2.24-3-.77-3.01-2.24-3.01z"/><path d="m187.84 280v-5.52c0-.83-.31-1.39-1.19-1.39a3.37 3.37 0 0 0 -2.29 1.31v5.6h-1.51v-5.52c0-.83-.31-1.39-1.19-1.39a3.37 3.37 0 0 0 -2.29 1.31v5.6h-1.51v-8.11h1.21l.19 1.17a4.27 4.27 0 0 1 2.82-1.34 2 2 0 0 1 2.14 1.34 4.28 4.28 0 0 1 2.86-1.34 2.11 2.11 0 0 1 2.29 2.38v5.9z"/><path d="m194.87 280.12a10 10 0 0 1 -3.16-.51v-11.61l1.51-.24v5.12a3.33 3.33 0 0 1 2.43-1.12c1.75 0 3.2 1.29 3.2 4-.01 2.93-1.64 4.36-3.98 4.36zm.56-7a3 3 0 0 0 -2.21 1.33v4.15a4.08 4.08 0 0 0 1.63.27c1.58 0 2.46-.94 2.46-3 0-1.87-.79-2.79-1.88-2.79z"/><path d="m201.65 270.27a1 1 0 0 1 -1-1 1 1 0 0 1 1-1 1 1 0 0 1 1 1 1 1 0 0 1 -1 1zm-.77 9.74v-8.11h1.51v8.1z"/><path d="m208.19 280.18c-2.11 0-3.76-1.27-3.76-4.25 0-2.6 1.53-4.2 3.57-4.2 2.36 0 3.45 1.82 3.45 4.06v.32h-5.45c.05 1.89 1 2.77 2.36 2.77a4.47 4.47 0 0 0 2.91-1.16l.22 1.36a5 5 0 0 1 -3.3 1.1zm-2.19-5.18h3.91c-.19-1.31-.77-2.06-1.94-2.06-.91-.01-1.71.67-1.97 2.06z"/><path d="m215.84 280.18a6.65 6.65 0 0 1 -3-.76l.22-1.43a5.07 5.07 0 0 0 2.86.93c1 0 1.65-.39 1.65-1.07s-.46-1-1.92-1.38c-1.9-.48-2.67-1.05-2.67-2.5 0-1.29 1.09-2.24 2.86-2.24a6.56 6.56 0 0 1 2.67.54l-.24 1.43a5.17 5.17 0 0 0 -2.46-.7c-.92 0-1.39.36-1.39.93s.41.85 1.68 1.17c2 .51 2.91 1.09 2.91 2.63s-1.07 2.45-3.17 2.45z"/><rect fill="none" height="27" rx="3.98" stroke="#006" stroke-miterlimit="10" stroke-width="2" width="93" x="142.25" y="261.01"/><path d="m204.27 403.24h-1.27v4.76h-1.6v-11.73h3.11c2.48 0 4 1.21 4 3.38.01 2.4-1.69 3.59-4.24 3.59zm.19-5.56h-1.46v4.15h1.33c1.6 0 2.55-.66 2.55-2.12s-.82-2.03-2.42-2.03z"/><path d="m211.69 403.21v4.79h-1.51v-8.11h1.21l.25 1.65a3.59 3.59 0 0 1 2.84-1.82l.24 1.44a3.71 3.71 0 0 0 -3.03 2.05z"/><path d="m219.22 408.17c-2.16 0-3.72-1.55-3.72-4.22s1.56-4.23 3.72-4.23 3.78 1.57 3.78 4.28-1.61 4.17-3.78 4.17zm0-7.17c-1.46 0-2.19 1.26-2.19 3s.76 3 2.19 3 2.24-1.26 2.24-3-.78-3-2.24-3z"/><path d="m234.91 408v-5.52c0-.83-.31-1.39-1.19-1.39a3.37 3.37 0 0 0 -2.29 1.31v5.6h-1.51v-5.52c0-.83-.31-1.39-1.19-1.39a3.37 3.37 0 0 0 -2.29 1.31v5.6h-1.51v-8.11h1.21l.19 1.17a4.27 4.27 0 0 1 2.82-1.34 2 2 0 0 1 2.14 1.34 4.28 4.28 0 0 1 2.86-1.34 2.11 2.11 0 0 1 2.29 2.38v5.9z"/><path d="m242.32 408.1a5.7 5.7 0 0 1 -2-.36v3.2l-1.51.22v-11.27h1.19l.19 1.17a3.4 3.4 0 0 1 2.63-1.34c1.75 0 3.2 1.29 3.2 4-.02 2.95-1.73 4.38-3.7 4.38zm.24-7a2.89 2.89 0 0 0 -2.28 1.43v3.89a3.89 3.89 0 0 0 2 .44c1.27 0 2.21-1 2.21-3-.03-1.86-.83-2.8-1.93-2.8z"/><path d="m250.67 408.14c-1.43 0-2.36-.51-2.36-2.14v-4.83h-1.22v-1.27h1.22v-2.7l1.48-.22v2.92h1.75l.2 1.27h-2v4.56c0 .66.27 1.07 1.12 1.07a4 4 0 0 0 .7-.05l.2 1.29a5.66 5.66 0 0 1 -1.09.1z"/><path d="m210 432.08a4.7 4.7 0 0 1 -1.68-.29v2.63l-1.25.18v-9.29h1l.15 1a2.81 2.81 0 0 1 2.17-1.11c1.44 0 2.63 1.06 2.63 3.29-.02 2.42-1.42 3.59-3.02 3.59zm.2-5.8a2.39 2.39 0 0 0 -1.88 1.18v3.21a3.21 3.21 0 0 0 1.63.36c1.05 0 1.82-.85 1.82-2.51-.03-1.45-.69-2.23-1.6-2.23z"/><path d="m217.3 432.14c-1.74 0-3.1-1.05-3.1-3.5 0-2.14 1.26-3.46 2.94-3.46 1.95 0 2.84 1.5 2.84 3.35v.27h-4.54c0 1.55.79 2.28 1.95 2.28a3.68 3.68 0 0 0 2.4-1l.18 1.12a4.16 4.16 0 0 1 -2.67.94zm-1.79-4.29h3.22c-.15-1.08-.63-1.7-1.6-1.7-.77.01-1.43.57-1.63 1.7z"/><path d="m222.81 428v4h-1.25v-6.68h1l.21 1.36a3 3 0 0 1 2.34-1.5l.2 1.19a3.06 3.06 0 0 0 -2.5 1.63z"/><path d="m228.48 432.14a5.48 5.48 0 0 1 -2.44-.63l.18-1.18a4.17 4.17 0 0 0 2.35.77c.85 0 1.36-.32 1.36-.88s-.38-.84-1.58-1.13c-1.57-.39-2.2-.87-2.2-2.06s.9-1.85 2.35-1.85a5.4 5.4 0 0 1 2.2.45l-.2 1.18a4.27 4.27 0 0 0 -2-.57c-.76 0-1.15.29-1.15.77s.34.7 1.39 1c1.65.42 2.4.9 2.4 2.17s-.94 1.96-2.66 1.96z"/><path d="m235.33 432.14c-1.78 0-3.07-1.27-3.07-3.47s1.29-3.49 3.07-3.49 3.11 1.29 3.11 3.49-1.32 3.47-3.11 3.47zm0-5.91c-1.21 0-1.81 1-1.81 2.44s.63 2.44 1.81 2.44 1.85-1 1.85-2.44-.65-2.44-1.85-2.44z"/><path d="m244.22 432v-4.55c0-.69-.29-1.15-1-1.15a2.86 2.86 0 0 0 -1.93 1.08v4.62h-1.29v-6.68h1l.15 1a3.59 3.59 0 0 1 2.37-1.11 1.78 1.78 0 0 1 1.93 2v4.79z"/><path d="m214.45 448.88a4.7 4.7 0 0 1 -1.68-.29v2.63l-1.25.18v-9.29h1l.15 1a2.8 2.8 0 0 1 2.17-1.11c1.44 0 2.63 1.06 2.63 3.29 0 2.42-1.4 3.59-3.02 3.59zm.2-5.8a2.39 2.39 0 0 0 -1.88 1.18v3.21a3.21 3.21 0 0 0 1.63.36c1.05 0 1.82-.85 1.82-2.51-.01-1.45-.67-2.24-1.58-2.24z"/><path d="m219.15 448.8v-9.92l1.25-.2v10.12z"/><path d="m226.5 448.8-.14-.9a3.15 3.15 0 0 1 -2.35 1 1.79 1.79 0 0 1 -2-1.86c0-1.67 1.43-2.33 4.22-2.62v-.28c0-.84-.5-1.13-1.28-1.13a5.73 5.73 0 0 0 -2.31.58l-.17-1.08a6.47 6.47 0 0 1 2.59-.56c1.63 0 2.41.66 2.41 2.14v4.68zm-.24-3.39c-2.47.24-3 .91-3 1.6a.88.88 0 0 0 1 .9 2.84 2.84 0 0 0 2-.94z"/><path d="m232.23 448.94c-1.79 0-3.11-1.25-3.11-3.47s1.4-3.49 3.14-3.49a3.63 3.63 0 0 1 2.19.62l-.18 1.22a3 3 0 0 0 -2-.74c-1.09 0-1.86.83-1.86 2.38s.83 2.39 2 2.39a2.74 2.74 0 0 0 1.95-.74l.18 1.12a3.53 3.53 0 0 1 -2.31.71z"/><path d="m238.65 448.94c-1.74 0-3.1-1.05-3.1-3.5 0-2.14 1.26-3.46 2.94-3.46 1.95 0 2.84 1.5 2.84 3.35v.27h-4.53c0 1.55.79 2.28 1.95 2.28a3.68 3.68 0 0 0 2.4-1l.18 1.12a4.16 4.16 0 0 1 -2.68.94zm-1.79-4.29h3.22c-.15-1.08-.63-1.7-1.6-1.7-.77.05-1.42.57-1.62 1.7z"/><path d="m213 465.6-.14-.9a3.15 3.15 0 0 1 -2.35 1 1.79 1.79 0 0 1 -2-1.86c0-1.67 1.43-2.33 4.22-2.62v-.22c0-.84-.5-1.13-1.27-1.13a5.74 5.74 0 0 0 -2.31.57l-.17-1.08a6.47 6.47 0 0 1 2.59-.56c1.62 0 2.41.66 2.41 2.14v4.68zm-.24-3.39c-2.47.24-3 .91-3 1.6a.88.88 0 0 0 1 .9 2.84 2.84 0 0 0 2-.94z"/><path d="m218.75 465.74c-1.79 0-3.11-1.25-3.11-3.47s1.4-3.49 3.14-3.49a3.63 3.63 0 0 1 2.19.62l-.18 1.22a3 3 0 0 0 -2-.74c-1.09 0-1.86.83-1.86 2.38s.83 2.4 2 2.4a2.75 2.75 0 0 0 1.95-.74l.12 1.08a3.52 3.52 0 0 1 -2.25.74z"/><path d="m224.86 465.71c-1.18 0-1.95-.42-1.95-1.76v-4h-1v-1.05h1v-2.23l1.22-.18v2.41h1.44l.17 1.05h-1.61v3.75c0 .55.22.88.92.88a3.3 3.3 0 0 0 .57 0l.17 1.06a4.66 4.66 0 0 1 -.93.07z"/><path d="m228 457.57a.79.79 0 0 1 -.8-.78.81.81 0 0 1 .8-.8.79.79 0 0 1 .78.8.78.78 0 0 1 -.78.78zm-.63 8v-6.68h1.25v6.68z"/><path d="m233.4 465.74c-1.78 0-3.07-1.28-3.07-3.47s1.29-3.49 3.07-3.49 3.11 1.29 3.11 3.49-1.32 3.47-3.11 3.47zm0-5.91c-1.21 0-1.81 1-1.81 2.44s.63 2.44 1.81 2.44 1.85-1 1.85-2.44-.65-2.44-1.85-2.44z"/><path d="m242.29 465.6v-4.6c0-.69-.29-1.15-1-1.15a2.86 2.86 0 0 0 -1.93 1.08v4.62h-1.25v-6.68h1l.15 1a3.59 3.59 0 0 1 2.37-1.11 1.78 1.78 0 0 1 1.93 2v4.86z"/><rect fill="none" height="85.92" rx="3.98" stroke="#006" stroke-miterlimit="10" stroke-width="2" width="93" x="179.74" y="389"/><path d="m221.2 140.09h-1.2v4.76h-1.6v-11.73h3.11c2.48 0 4 1.21 4 3.38-.06 2.4-1.76 3.59-4.31 3.59zm.19-5.56h-1.39v4.15h1.33c1.6 0 2.55-.66 2.55-2.12s-.88-2.03-2.5-2.03z"/><path d="m227.37 144.85v-12l1.51-.24v12.27z"/><path d="m236.29 144.85-.17-1.09a3.83 3.83 0 0 1 -2.86 1.26 2.17 2.17 0 0 1 -2.38-2.26c0-2 1.73-2.82 5.12-3.18v-.34c0-1-.61-1.38-1.55-1.38a7 7 0 0 0 -2.8.7l-.2-1.31a7.85 7.85 0 0 1 3.14-.68c2 0 2.92.8 2.92 2.6v5.68zm-.29-4.11c-3 .29-3.62 1.1-3.62 1.94a1.06 1.06 0 0 0 1.21 1.09 3.44 3.44 0 0 0 2.41-1.14z"/><path d="m243.08 145.56c-.7 1.89-1.56 2.38-2.91 2.38a2.35 2.35 0 0 1 -.53-.07l-.2-1.33a3.43 3.43 0 0 0 .85.12 1.28 1.28 0 0 0 1.29-1l.31-.83-3-8 1.5-.24 2.21 6.46 2.16-6.34h1.55z"/><path d="m250.95 145c-2.11 0-3.76-1.27-3.76-4.25 0-2.6 1.53-4.2 3.57-4.2 2.36 0 3.45 1.82 3.45 4.06v.39h-5.51c.05 1.89 1 2.77 2.36 2.77a4.46 4.46 0 0 0 2.91-1.16l.22 1.36a5 5 0 0 1 -3.24 1.03zm-2.18-5.2h3.91c-.19-1.31-.76-2.06-1.94-2.06-.93.02-1.74.7-1.97 2.08z"/><path d="m257.64 140.05v4.79h-1.51v-8.11h1.21l.25 1.65a3.59 3.59 0 0 1 2.84-1.82l.24 1.44a3.71 3.71 0 0 0 -3.03 2.05z"/><path d="m265.5 147-1.36-.29 8-13.75 1.36.29z"/><path d="m281.8 145a7.08 7.08 0 0 1 -3.28-.76l.24-1.63a5.77 5.77 0 0 0 3.08 1c1.22 0 2.09-.65 2.09-1.78s-.48-1.51-2.24-2.31c-2.21-1-3-1.73-3-3.42 0-1.89 1.45-3.09 3.57-3.09a5.18 5.18 0 0 1 2.67.66l-.25 1.6a4.15 4.15 0 0 0 -2.46-.87c-1.34 0-1.94.71-1.94 1.58s.44 1.33 2.23 2.14c2.28 1 3.06 1.82 3.06 3.59-.06 2-1.57 3.29-3.77 3.29z"/><path d="m290.27 145c-1.43 0-2.36-.51-2.36-2.14v-4.86h-1.22v-1.27h1.22v-2.73l1.48-.22v2.92h1.75l.2 1.27h-2v4.56c0 .66.27 1.07 1.12 1.07a4 4 0 0 0 .7-.05l.2 1.29a5.66 5.66 0 0 1 -1.09.16z"/><path d="m294.75 140.05v4.79h-1.51v-8.11h1.21l.25 1.65a3.59 3.59 0 0 1 2.84-1.82l.24 1.44a3.71 3.71 0 0 0 -3.03 2.05z"/><path d="m302.32 145c-2.11 0-3.76-1.27-3.76-4.25 0-2.6 1.53-4.2 3.57-4.2 2.36 0 3.45 1.82 3.45 4.06v.39h-5.51c.05 1.89 1 2.77 2.36 2.77a4.47 4.47 0 0 0 2.91-1.16l.22 1.36a5 5 0 0 1 -3.24 1.03zm-2.18-5.2h3.91c-.19-1.31-.77-2.06-1.94-2.06-.93.02-1.73.7-1.97 2.08z"/><path d="m312.42 144.85-.17-1.09a3.83 3.83 0 0 1 -2.86 1.26 2.17 2.17 0 0 1 -2.38-2.26c0-2 1.73-2.82 5.12-3.18v-.34c0-1-.61-1.38-1.55-1.38a7 7 0 0 0 -2.8.7l-.2-1.31a7.85 7.85 0 0 1 3.14-.68c2 0 2.92.8 2.92 2.6v5.68zm-.29-4.11c-3 .29-3.62 1.1-3.62 1.94a1.06 1.06 0 0 0 1.21 1.09 3.44 3.44 0 0 0 2.41-1.14z"/><path d="m326 144.85v-5.52c0-.83-.31-1.39-1.19-1.39a3.37 3.37 0 0 0 -2.29 1.31v5.61h-1.52v-5.52c0-.83-.31-1.39-1.19-1.39a3.37 3.37 0 0 0 -2.29 1.31v5.61h-1.52v-8.11h1.21l.19 1.17a4.27 4.27 0 0 1 2.82-1.34 2 2 0 0 1 2.14 1.34 4.28 4.28 0 0 1 2.86-1.34 2.11 2.11 0 0 1 2.29 2.38v5.9z"/><path d="m333.14 145c-2.11 0-3.76-1.27-3.76-4.25 0-2.6 1.53-4.2 3.57-4.2 2.36 0 3.45 1.82 3.45 4.06v.39h-5.5c.05 1.89 1 2.77 2.36 2.77a4.47 4.47 0 0 0 2.91-1.16l.22 1.36a5 5 0 0 1 -3.25 1.03zm-2.18-5.2h3.91c-.19-1.31-.77-2.06-1.94-2.06-.93.02-1.73.7-1.93 2.08z"/><path d="m339.84 140.05v4.79h-1.51v-8.11h1.21l.25 1.65a3.59 3.59 0 0 1 2.84-1.82l.24 1.44a3.71 3.71 0 0 0 -3.03 2.05z"/><g fill="none" stroke-miterlimit="10" stroke-width="2"><rect height="27" rx="3.98" stroke="#006" width="132.98" x="213.59" y="125.85"/><g stroke="#e42354"><path d="m283.09 398.67c206.64-32.67 136.34-224.52 71.66-248.67"/><path d="m356.75 142.68c35 7.33 70-13.85 70-30"/><path d="m300.07 64.01v53.34"/><path d="m95.42 139.35c20-62 116-75.33 151.33-22"/><path d="m78.08 181.35-22.66 53.33"/><path d="m110.08 381.35s55.34-13.35 69.66-85.35"/><path d="m100.08 283.35v90.66"/><path d="m26.08 283.35v90.66"/><path d="m139.42 158.85 40.32 27.16"/><path d="m243.36 283.35c28.67 0 144.12-27.5 108.51-124.5"/><path d="m243.75 269.65c54.24-.71 131.16-40 91.67-108"/><path d="m433.42 122.68-6.67-10"/><path d="m426.75 112.68-11.33 4.67"/><path d="m356.75 142.68 10-7.33"/><path d="m356.75 142.68 8 10.17"/><path d="m354.75 150.01 14.67-2.25"/><path d="m354.75 150.01 2 14.34"/><path d="m351.87 158.85 14.21 5.5"/><path d="m351.87 158.85-5.3 13.58"/><path d="m244.85 269.63 10.21-8.83"/><path d="m244.19 269.62 10.21 8.67"/><path d="m179.74 296.01 9.01 12.67"/><path d="m179.74 296.01-13.66 9.34"/><path d="m184.24 226.68v29.17"/><path d="m184.24 255.85 8.51-7.17"/><path d="m184.24 255.85-7.49-7.84"/><path d="m184.24 226.68 7.84 4.67"/><path d="m184.24 226.68-7.49 6"/><path d="m179.74 186.01v-8.66"/><path d="m179.74 186.01h-8.66"/><path d="m246.75 117.35v-16.67"/><path d="m246.75 117.35-14.67-2.34"/><path d="m300.07 64.01 8.01 8"/><path d="m300.07 64.01-7.99 8"/><path d="m300.07 117.35 8.68-5.63"/><path d="m300.07 117.35-7.99-5.63"/><path d="m55.42 234.68 11.33-2"/><path d="m55.42 234.68-5.34-8"/></g></g><path d="m368.66 314.46-.15-1a2.77 2.77 0 0 1 -2.17 1.11c-1.44 0-2.63-1-2.63-3.29 0-2.44 1.4-3.61 3-3.61a4.7 4.7 0 0 1 1.68.29v-3.45l1.25-.2v10.11zm-.25-5.34a3.15 3.15 0 0 0 -1.64-.38c-1.05 0-1.81.85-1.81 2.51 0 1.47.66 2.24 1.55 2.24a2.39 2.39 0 0 0 1.89-1.18z"/><path d="m372.34 306.43a.8.8 0 0 1 -.8-.78.81.81 0 0 1 .8-.8.79.79 0 0 1 .78.8.78.78 0 0 1 -.78.78zm-.63 8v-6.68h1.29v6.68z"/><path d="m376.26 310.51v4h-1.26v-6.68h1l.21 1.36a3 3 0 0 1 2.34-1.5l.2 1.19a3.06 3.06 0 0 0 -2.49 1.63z"/><path d="m382.49 314.6c-1.74 0-3.1-1-3.1-3.5 0-2.14 1.26-3.46 2.94-3.46 1.95 0 2.84 1.5 2.84 3.35v.27h-4.54c0 1.55.79 2.28 1.95 2.28a3.68 3.68 0 0 0 2.4-1l.18 1.12a4.16 4.16 0 0 1 -2.67.94zm-1.79-4.29h3.22c-.15-1.08-.63-1.69-1.6-1.69-.77 0-1.42.56-1.62 1.69z"/><path d="m389.55 314.6c-1.79 0-3.11-1.25-3.11-3.47s1.4-3.49 3.14-3.49a3.63 3.63 0 0 1 2.19.62l-.18 1.22a3 3 0 0 0 -2-.74c-1.09 0-1.86.83-1.86 2.38s.83 2.4 2 2.4a2.74 2.74 0 0 0 1.95-.74l.18 1.12a3.52 3.52 0 0 1 -2.31.7z"/><path d="m395.65 314.57c-1.18 0-1.95-.42-1.95-1.77v-4h-1v-1.05h1v-2.23l1.22-.18v2.41h1.44l.17 1.05h-1.61v3.75c0 .55.22.88.92.88a3.4 3.4 0 0 0 .57 0l.17 1.06a4.66 4.66 0 0 1 -.93.08z"/><path d="m400.13 314.6a5.48 5.48 0 0 1 -2.44-.63l.18-1.18a4.17 4.17 0 0 0 2.35.77c.85 0 1.36-.32 1.36-.88s-.38-.84-1.58-1.13c-1.57-.39-2.2-.87-2.2-2.06s.9-1.85 2.35-1.85a5.4 5.4 0 0 1 2.2.45l-.2 1.18a4.27 4.27 0 0 0 -2-.57c-.76 0-1.15.29-1.15.77s.34.7 1.39 1c1.65.42 2.4.9 2.4 2.17s-.93 1.96-2.66 1.96z"/><path d="m372.76 329.6a5.48 5.48 0 0 1 -2.44-.63l.18-1.18a4.17 4.17 0 0 0 2.35.77c.85 0 1.36-.32 1.36-.88s-.38-.84-1.58-1.13c-1.57-.39-2.2-.87-2.2-2.06s.9-1.85 2.35-1.85a5.4 5.4 0 0 1 2.2.45l-.2 1.18a4.27 4.27 0 0 0 -2-.57c-.76 0-1.15.29-1.15.77s.34.7 1.39 1c1.65.42 2.4.9 2.4 2.17s-.94 1.96-2.66 1.96z"/><path d="m379.18 329.57c-1.18 0-1.95-.42-1.95-1.77v-4h-1v-1.05h1v-2.23l1.22-.18v2.41h1.44l.17 1.05h-1.61v3.75c0 .55.22.88.92.88a3.4 3.4 0 0 0 .57 0l.17 1.06a4.66 4.66 0 0 1 -.93.08z"/><path d="m384.26 329.6c-1.78 0-3.07-1.27-3.07-3.47s1.29-3.49 3.07-3.49 3.11 1.29 3.11 3.49-1.31 3.47-3.11 3.47zm0-5.91c-1.21 0-1.81 1-1.81 2.44s.63 2.44 1.81 2.44 1.85-1 1.85-2.44-.64-2.44-1.85-2.44z"/><path d="m390.2 325.51v4h-1.2v-6.68h1l.21 1.36a3 3 0 0 1 2.34-1.5l.2 1.19a3.06 3.06 0 0 0 -2.55 1.63z"/><path d="m396.74 330c-.57 1.56-1.29 2-2.4 2a1.9 1.9 0 0 1 -.43-.06l-.17-1.09a2.79 2.79 0 0 0 .7.1 1.06 1.06 0 0 0 1.06-.78l.25-.69-2.44-6.61 1.23-.2 1.82 5.32 1.78-5.22h1.27z"/><path d="m172.49 345.54a4.7 4.7 0 0 1 -1.68-.29v2.63l-1.25.18v-9.29h1l.15 1a2.81 2.81 0 0 1 2.17-1.11c1.44 0 2.63 1.06 2.63 3.29.01 2.42-1.39 3.59-3.02 3.59zm.2-5.8a2.38 2.38 0 0 0 -1.88 1.18v3.21a3.2 3.2 0 0 0 1.63.36c1 0 1.82-.85 1.82-2.51 0-1.45-.66-2.24-1.57-2.24z"/><path d="m178.34 341.51v4h-1.24v-6.68h1l.21 1.36a3 3 0 0 1 2.34-1.5l.2 1.19a3.06 3.06 0 0 0 -2.51 1.63z"/><path d="m184.55 345.6c-1.78 0-3.07-1.27-3.07-3.47s1.29-3.49 3.07-3.49 3.11 1.29 3.11 3.49-1.32 3.47-3.11 3.47zm0-5.91c-1.21 0-1.81 1-1.81 2.44s.63 2.44 1.81 2.44 1.85-1 1.85-2.44-.65-2.44-1.85-2.44z"/><path d="m193.81 345.46-.15-1a2.77 2.77 0 0 1 -2.17 1.11c-1.44 0-2.63-1-2.63-3.29 0-2.44 1.4-3.61 3-3.61a4.7 4.7 0 0 1 1.68.29v-3.45l1.25-.2v10.11zm-.25-5.34a3.15 3.15 0 0 0 -1.64-.38c-1.05 0-1.81.85-1.81 2.51 0 1.47.66 2.24 1.55 2.24a2.39 2.39 0 0 0 1.89-1.18z"/><path d="m201.19 345.46-.15-1a3.55 3.55 0 0 1 -2.37 1.11 1.77 1.77 0 0 1 -1.93-2v-4.86h1.26v4.55c0 .69.29 1.15 1 1.15a2.86 2.86 0 0 0 1.93-1.08v-4.62h1.25v6.68z"/><path d="m206.93 345.6c-1.79 0-3.11-1.25-3.11-3.47s1.4-3.49 3.14-3.49a3.63 3.63 0 0 1 2.19.62l-.18 1.22a3 3 0 0 0 -2-.74c-1.09 0-1.86.83-1.86 2.38s.83 2.4 2 2.4a2.74 2.74 0 0 0 1.95-.74l.18 1.12a3.52 3.52 0 0 1 -2.31.7z"/><path d="m213.36 345.6c-1.74 0-3.1-1-3.1-3.5 0-2.14 1.26-3.46 2.94-3.46 1.95 0 2.84 1.5 2.84 3.35v.27h-4.54c0 1.55.79 2.28 1.95 2.28a3.68 3.68 0 0 0 2.4-1l.18 1.12a4.16 4.16 0 0 1 -2.67.94zm-1.79-4.29h3.22c-.15-1.08-.63-1.69-1.6-1.69-.77 0-1.43.56-1.63 1.69z"/><path d="m168.65 360.46v-1l3.74-4.67h-3.39l-.17-1h5v1l-3.75 4.67h3.75l.17 1z"/><path d="m177.91 360.6c-1.78 0-3.07-1.27-3.07-3.47s1.29-3.49 3.07-3.49 3.11 1.29 3.11 3.49-1.32 3.47-3.11 3.47zm0-5.91c-1.21 0-1.81 1-1.81 2.44s.63 2.44 1.81 2.44 1.85-1 1.85-2.44-.64-2.44-1.85-2.44z"/><path d="m190.84 360.46v-4.55c0-.69-.25-1.15-1-1.15a2.78 2.78 0 0 0 -1.89 1.08v4.62h-1.25v-4.55c0-.69-.25-1.15-1-1.15a2.78 2.78 0 0 0 -1.89 1.08v4.62h-1.21v-6.68h1l.15 1a3.52 3.52 0 0 1 2.33-1.11 1.67 1.67 0 0 1 1.77 1.11 3.52 3.52 0 0 1 2.35-1.11 1.74 1.74 0 0 1 1.89 2v4.86z"/><path d="m196.61 360.54a8.27 8.27 0 0 1 -2.61-.42v-9.58l1.25-.2v4.22a2.74 2.74 0 0 1 2-.92c1.44 0 2.63 1.06 2.63 3.29.01 2.44-1.33 3.61-3.27 3.61zm.46-5.8a2.45 2.45 0 0 0 -1.82 1.09v3.42a3.36 3.36 0 0 0 1.34.22c1.3 0 2-.77 2-2.49.04-1.45-.59-2.24-1.51-2.24z"/><path d="m202.2 352.43a.8.8 0 0 1 -.8-.78.81.81 0 0 1 .8-.8.79.79 0 0 1 .78.8.78.78 0 0 1 -.78.78zm-.63 8v-6.68h1.25v6.68z"/><path d="m207.59 360.6c-1.74 0-3.1-1-3.1-3.5 0-2.14 1.26-3.46 2.94-3.46 1.95 0 2.84 1.5 2.84 3.35v.27h-4.54c0 1.55.79 2.28 1.95 2.28a3.68 3.68 0 0 0 2.4-1l.18 1.12a4.16 4.16 0 0 1 -2.67.94zm-1.79-4.29h3.2c-.15-1.08-.63-1.69-1.6-1.69-.75 0-1.4.56-1.6 1.69z"/><path d="m213.89 360.6a5.48 5.48 0 0 1 -2.44-.63l.18-1.18a4.17 4.17 0 0 0 2.35.77c.85 0 1.36-.32 1.36-.88s-.38-.84-1.58-1.13c-1.57-.39-2.2-.87-2.2-2.06s.9-1.85 2.35-1.85a5.4 5.4 0 0 1 2.2.45l-.2 1.18a4.27 4.27 0 0 0 -2-.57c-.76 0-1.15.29-1.15.77s.34.7 1.39 1c1.65.42 2.4.9 2.4 2.17s-.94 1.96-2.66 1.96z"/><path d="m29.43 199a5.48 5.48 0 0 1 -2.44-.63l.18-1.18a4.17 4.17 0 0 0 2.35.77c.85 0 1.36-.32 1.36-.88s-.38-.84-1.58-1.13c-1.57-.39-2.2-.87-2.2-2.06s.9-1.89 2.36-1.89a5.4 5.4 0 0 1 2.2.45l-.2 1.18a4.27 4.27 0 0 0 -2-.57c-.76 0-1.15.29-1.15.77s.34.7 1.39 1c1.65.42 2.4.9 2.4 2.17s-.94 2-2.67 2z"/><path d="m37.64 198.86-.14-.9a3.15 3.15 0 0 1 -2.35 1 1.78 1.78 0 0 1 -2-1.86c0-1.67 1.43-2.33 4.22-2.62v-.28c0-.84-.5-1.13-1.28-1.13a5.73 5.73 0 0 0 -2.31.57l-.17-1.08a6.47 6.47 0 0 1 2.59-.56c1.63 0 2.41.66 2.41 2.14v4.68zm-.24-3.39c-2.47.24-3 .91-3 1.6a.88.88 0 0 0 1 .9 2.84 2.84 0 0 0 2-.94z"/><path d="m43.22 199.45c-.57 1.56-1.29 2-2.4 2a1.9 1.9 0 0 1 -.43-.06l-.17-1.09a2.79 2.79 0 0 0 .7.1 1.06 1.06 0 0 0 1.06-.78l.25-.69-2.44-6.61 1.23-.2 1.82 5.32 1.78-5.22h1.27z"/><path d="m27.56 213.86h-1l-1.56-5.05-1.53 5.06h-1l-2.16-6.58 1.19-.2 1.5 4.91 1.48-4.85h1.05l1.54 4.85 1.43-4.85h1.22z"/><path d="m33.55 214c-1.78 0-3.07-1.27-3.07-3.47s1.29-3.53 3.07-3.53 3.11 1.29 3.11 3.49-1.32 3.51-3.11 3.51zm0-5.91c-1.2 0-1.81 1-1.81 2.44s.63 2.44 1.81 2.44 1.85-1 1.85-2.44-.65-2.44-1.85-2.44z"/><path d="m39.48 209.91v4h-1.24v-6.68h1l.21 1.36a3 3 0 0 1 2.34-1.5l.2 1.19a3.06 3.06 0 0 0 -2.51 1.63z"/><path d="m47.58 213.86-.15-1a2.77 2.77 0 0 1 -2.18 1.14c-1.44 0-2.63-1-2.63-3.29 0-2.44 1.4-3.61 3-3.61a4.7 4.7 0 0 1 1.68.29v-3.45l1.25-.2v10.11zm-.25-5.34a3.15 3.15 0 0 0 -1.64-.38c-1.05 0-1.81.85-1.81 2.51 0 1.47.66 2.24 1.55 2.24a2.39 2.39 0 0 0 1.89-1.18z"/><path d="m52.56 214a5.48 5.48 0 0 1 -2.44-.63l.18-1.18a4.17 4.17 0 0 0 2.35.77c.85 0 1.36-.32 1.36-.88s-.38-.84-1.58-1.13c-1.57-.39-2.2-.87-2.2-2.06s.9-1.85 2.35-1.85a5.4 5.4 0 0 1 2.2.45l-.2 1.18a4.27 4.27 0 0 0 -2-.57c-.76 0-1.15.29-1.15.77s.34.7 1.39 1c1.65.42 2.4.9 2.4 2.17s-.94 1.96-2.66 1.96z"/><path d="m413.14 138.88c-.57 0-.92.24-.92.85v1.34h1.34l.15 1.05h-1.5v5.63h-1.21v-5.63h-1v-1.05h1v-1.47c0-1.33.88-1.83 2.07-1.83h.53l.18 1.13a3.74 3.74 0 0 0 -.64-.02z"/><path d="m417.57 147.9c-1.74 0-3.1-1-3.1-3.5 0-2.14 1.26-3.46 2.94-3.46 1.95 0 2.84 1.5 2.84 3.35v.27h-4.54c0 1.55.79 2.28 1.95 2.28a3.68 3.68 0 0 0 2.4-1l.18 1.12a4.16 4.16 0 0 1 -2.67.94zm-1.79-4.29h3.22c-.15-1.08-.63-1.69-1.6-1.69-.77 0-1.4.56-1.63 1.7z"/><path d="m424.55 147.9c-1.74 0-3.1-1-3.1-3.5 0-2.14 1.26-3.46 2.94-3.46 1.95 0 2.84 1.5 2.84 3.35v.27h-4.53c0 1.55.79 2.28 1.95 2.28a3.68 3.68 0 0 0 2.4-1l.18 1.12a4.16 4.16 0 0 1 -2.68.94zm-1.79-4.29h3.24c-.15-1.08-.63-1.69-1.6-1.69-.79 0-1.4.56-1.64 1.7z"/><path d="m428.92 147.76v-9.92l1.25-.2v10.11z"/><path d="m438.23 147.85a4.7 4.7 0 0 1 -1.68-.29v2.63l-1.25.18v-9.29h1l.15 1a2.81 2.81 0 0 1 2.17-1.11c1.44 0 2.63 1.06 2.63 3.29.01 2.41-1.39 3.59-3.02 3.59zm.2-5.8a2.38 2.38 0 0 0 -1.88 1.18v3.21a3.2 3.2 0 0 0 1.63.36c1 0 1.82-.85 1.82-2.51 0-1.46-.66-2.29-1.57-2.29z"/><path d="m446.88 147.76-.14-.9a3.15 3.15 0 0 1 -2.35 1 1.78 1.78 0 0 1 -2-1.86c0-1.67 1.43-2.33 4.22-2.62v-.28c0-.84-.5-1.13-1.28-1.13a5.73 5.73 0 0 0 -2.31.57l-.17-1.08a6.47 6.47 0 0 1 2.59-.56c1.63 0 2.41.66 2.41 2.14v4.68zm-.24-3.39c-2.47.24-3 .91-3 1.6a.88.88 0 0 0 1 .9 2.84 2.84 0 0 0 2-.94z"/><path d="m454 147.76v-4.55c0-.69-.29-1.15-1-1.15a2.86 2.86 0 0 0 -1.93 1.08v4.62h-1.25v-6.68h1l.15 1a3.59 3.59 0 0 1 2.37-1.11 1.78 1.78 0 0 1 1.93 2v4.86z"/><path d="m457.93 139.74a.8.8 0 0 1 -.8-.78.81.81 0 0 1 .8-.8.79.79 0 0 1 .78.8.78.78 0 0 1 -.78.78zm-.63 8v-6.68h1.25v6.68z"/><path d="m463.39 147.9c-1.79 0-3.11-1.25-3.11-3.47s1.4-3.49 3.14-3.49a3.63 3.63 0 0 1 2.19.62l-.18 1.22a3 3 0 0 0 -2-.74c-1.09 0-1.86.83-1.86 2.38s.83 2.4 2 2.4a2.74 2.74 0 0 0 1.95-.74l.18 1.12a3.52 3.52 0 0 1 -2.31.7z"/><path d="m196.38 245c-1.79 0-3.11-1.25-3.11-3.47s1.4-3.49 3.14-3.49a3.63 3.63 0 0 1 2.19.62l-.18 1.22a3 3 0 0 0 -2-.74c-1.09 0-1.86.83-1.86 2.38s.83 2.4 2 2.4a2.74 2.74 0 0 0 1.95-.74l.18 1.12a3.53 3.53 0 0 1 -2.31.7z"/><path d="m204.42 244.81v-4.55c0-.69-.29-1.15-1-1.15a2.86 2.86 0 0 0 -1.93 1.08v4.62h-1.25v-9.91l1.25-.2v4.3a3.47 3.47 0 0 1 2.27-1 1.78 1.78 0 0 1 1.93 2v4.86z"/><path d="m211.64 244.81-.14-.9a3.15 3.15 0 0 1 -2.35 1 1.78 1.78 0 0 1 -2-1.86c0-1.67 1.43-2.33 4.22-2.62v-.28c0-.84-.5-1.13-1.28-1.13a5.73 5.73 0 0 0 -2.31.57l-.17-1.08a6.47 6.47 0 0 1 2.59-.56c1.63 0 2.41.66 2.41 2.14v4.68zm-.24-3.39c-2.47.24-3 .91-3 1.6a.88.88 0 0 0 1 .9 2.84 2.84 0 0 0 2-.94z"/><path d="m218.78 244.81v-4.55c0-.69-.29-1.15-1-1.15a2.86 2.86 0 0 0 -1.93 1.08v4.62h-1.25v-6.68h1l.15 1a3.59 3.59 0 0 1 2.35-1.13 1.78 1.78 0 0 1 1.93 2v4.86z"/><path d="m224.34 247.36c-1.74 0-3.12-.55-3.12-1.72 0-.69.48-1.22 1.42-1.72a.85.85 0 0 1 -.42-.7c0-.32.25-.63.7-.91a2.16 2.16 0 0 1 -1.25-2 2.39 2.39 0 0 1 2.56-2.33 2.77 2.77 0 0 1 1.72.57l1.7-.53.18 1.12-1.27.13a2.15 2.15 0 0 1 .27 1 2.37 2.37 0 0 1 -2.56 2.3 2.8 2.8 0 0 1 -.5 0c-.2.13-.34.28-.34.41s.24.29 1.42.5l.48.08c1.42.25 2.3.7 2.3 1.74-.03 1.41-1.55 2.06-3.29 2.06zm-.81-3.07c-.77.39-1.12.79-1.12 1.25s.69.92 2 .92 2-.45 2-1c0-.41-.31-.69-1.26-.85l-.8-.14c-.35-.08-.56-.1-.82-.17zm.7-5.39a1.35 1.35 0 0 0 -1.36 1.46 1.31 1.31 0 0 0 1.36 1.37 1.41 1.41 0 0 0 0-2.83z"/><path d="m231.62 245c-1.74 0-3.1-1.05-3.1-3.5 0-2.14 1.26-3.46 2.94-3.46 1.95 0 2.84 1.5 2.84 3.35v.27h-4.54c0 1.55.79 2.28 1.95 2.28a3.68 3.68 0 0 0 2.4-1l.18 1.12a4.16 4.16 0 0 1 -2.67.94zm-1.79-4.29h3.17c-.15-1.08-.63-1.69-1.6-1.69-.72-.02-1.4.51-1.57 1.65z"/><path d="m241 245a5.48 5.48 0 0 1 -2.44-.63l.18-1.18a4.17 4.17 0 0 0 2.35.77c.85 0 1.36-.32 1.36-.88s-.38-.84-1.58-1.13c-1.57-.39-2.2-.87-2.2-2.06s.9-1.85 2.35-1.85a5.4 5.4 0 0 1 2.2.45l-.2 1.18a4.27 4.27 0 0 0 -2-.57c-.76 0-1.15.29-1.15.77s.34.7 1.39 1c1.65.42 2.4.9 2.4 2.17s-.94 1.96-2.66 1.96z"/><path d="m248.08 244.9a4.7 4.7 0 0 1 -1.68-.29v2.63l-1.25.18v-9.29h1l.15 1a2.81 2.81 0 0 1 2.17-1.11c1.44 0 2.63 1.06 2.63 3.29.01 2.41-1.39 3.59-3.02 3.59zm.2-5.8a2.38 2.38 0 0 0 -1.88 1.18v3.21a3.2 3.2 0 0 0 1.63.36c1 0 1.82-.85 1.82-2.51 0-1.46-.66-2.24-1.57-2.24z"/><path d="m255.41 245c-1.74 0-3.1-1.05-3.1-3.5 0-2.14 1.26-3.46 2.94-3.46 1.95 0 2.84 1.5 2.84 3.35v.27h-4.54c0 1.55.79 2.28 1.95 2.28a3.68 3.68 0 0 0 2.4-1l.18 1.12a4.16 4.16 0 0 1 -2.67.94zm-1.79-4.29h3.22c-.15-1.08-.63-1.69-1.6-1.69-.77-.02-1.43.51-1.63 1.65z"/><path d="m262.39 245c-1.74 0-3.1-1.05-3.1-3.5 0-2.14 1.26-3.46 2.94-3.46 1.95 0 2.84 1.5 2.84 3.35v.27h-4.54c0 1.55.79 2.28 1.95 2.28a3.68 3.68 0 0 0 2.4-1l.18 1.12a4.16 4.16 0 0 1 -2.67.94zm-1.79-4.29h3.22c-.15-1.08-.63-1.69-1.6-1.69-.77-.02-1.42.51-1.62 1.65z"/><path d="m271.24 244.81-.15-1a2.77 2.77 0 0 1 -2.17 1.11c-1.44 0-2.63-1.05-2.63-3.29 0-2.44 1.4-3.61 3-3.61a4.7 4.7 0 0 1 1.68.29v-3.41l1.25-.2v10.11zm-.25-5.34a3.15 3.15 0 0 0 -1.64-.38c-1.05 0-1.81.85-1.81 2.51 0 1.47.66 2.24 1.55 2.24a2.39 2.39 0 0 0 1.89-1.18z"/><path d="m169.19 169.51h-1.19l-2.37-6.61 1.25-.2 1.74 5.28 1.68-5.18h1.27z"/><path d="m175.32 169.62c-1.78 0-3.07-1.27-3.07-3.47s1.29-3.49 3.07-3.49 3.11 1.29 3.11 3.49-1.32 3.47-3.11 3.47zm0-5.91c-1.21 0-1.81 1-1.81 2.44s.63 2.44 1.81 2.44 1.85-1 1.85-2.44-.64-2.44-1.85-2.44z"/><path d="m182.28 169.59c-1.18 0-1.95-.42-1.95-1.77v-4h-1v-1.02h1v-2.23l1.22-.18v2.41h1.45l.17 1.05h-1.61v3.75c0 .55.22.88.92.88a3.4 3.4 0 0 0 .57 0l.17 1.06a4.66 4.66 0 0 1 -.94.05z"/><path d="m187.39 169.62c-1.74 0-3.1-1-3.1-3.5 0-2.14 1.26-3.46 2.94-3.46 1.95 0 2.84 1.5 2.84 3.35v.27h-4.54c0 1.55.79 2.28 1.95 2.28a3.68 3.68 0 0 0 2.4-1l.18 1.12a4.16 4.16 0 0 1 -2.67.94zm-1.79-4.29h3.22c-.15-1.08-.63-1.69-1.6-1.69-.77 0-1.43.56-1.62 1.69z"/><path d="m337.19 261.38h-1l-1.54-5.06-1.53 5.06h-1l-2.12-6.59 1.19-.2 1.47 4.94 1.48-4.85h1.05l1.49 4.85 1.43-4.85h1.22z"/><path d="m344.58 261.38-.14-.9a3.15 3.15 0 0 1 -2.35 1 1.78 1.78 0 0 1 -2-1.86c0-1.67 1.43-2.33 4.22-2.62v-.28c0-.84-.5-1.13-1.28-1.13a5.73 5.73 0 0 0 -2.31.57l-.17-1.08a6.47 6.47 0 0 1 2.59-.56c1.63 0 2.41.66 2.41 2.14v4.68zm-.24-3.39c-2.47.24-3 .91-3 1.6a.88.88 0 0 0 1 .9 2.84 2.84 0 0 0 2-.94z"/><path d="m347.62 261.38v-9.92l1.25-.2v10.11z"/><path d="m355.14 261.47-3-3.6v3.5h-1.25v-9.92l1.25-.2v6.23l2.59-2.8h1.5l-2.82 3 3.05 3.61z"/><path d="m363 261.49c-1.18 0-1.95-.42-1.95-1.77v-4h-1v-1.05h1v-2.23l1.22-.18v2.41h1.44l.17 1.05h-1.61v3.75c0 .55.22.88.92.88a3.4 3.4 0 0 0 .57 0l.17 1.06a4.66 4.66 0 0 1 -.93.08z"/><path d="m368.09 261.51c-1.78 0-3.07-1.27-3.07-3.47s1.29-3.49 3.07-3.49 3.11 1.29 3.11 3.49-1.32 3.47-3.11 3.47zm0-5.91c-1.2 0-1.81 1-1.81 2.44s.63 2.44 1.81 2.44 1.85-1 1.85-2.44-.65-2.44-1.85-2.44z"/><path d="m379.14 261.38h-1l-1.54-5.06-1.53 5.06h-1l-2.07-6.59 1.19-.2 1.47 4.94 1.48-4.85h1.05l1.49 4.85 1.43-4.85h1.22z"/><path d="m386.53 261.38-.14-.9a3.15 3.15 0 0 1 -2.35 1 1.78 1.78 0 0 1 -2-1.86c0-1.67 1.43-2.33 4.22-2.62v-.28c0-.84-.5-1.13-1.28-1.13a5.73 5.73 0 0 0 -2.31.57l-.17-1.08a6.47 6.47 0 0 1 2.59-.56c1.63 0 2.41.66 2.41 2.14v4.68zm-.24-3.39c-2.47.24-3 .91-3 1.6a.88.88 0 0 0 1 .9 2.84 2.84 0 0 0 2-.94z"/><path d="m390.71 257.42v4h-1.25v-6.68h1l.21 1.36a3 3 0 0 1 2.34-1.5l.2 1.19a3.06 3.06 0 0 0 -2.5 1.63z"/><path d="m398.8 261.38-.15-1a2.77 2.77 0 0 1 -2.17 1.11c-1.44 0-2.63-1-2.63-3.29 0-2.44 1.4-3.61 3-3.61a4.7 4.7 0 0 1 1.68.29v-3.45l1.25-.2v10.11zm-.25-5.34a3.15 3.15 0 0 0 -1.64-.38c-1.05 0-1.81.85-1.81 2.51 0 1.47.66 2.24 1.55 2.24a2.39 2.39 0 0 0 1.89-1.18z"/><path d="m340.47 276.46-1.41-1.39a4 4 0 0 1 -3.12 1.48c-2 0-3.18-.94-3.18-2.6a3.29 3.29 0 0 1 2.19-2.94 2.88 2.88 0 0 1 -1-2.14 2.38 2.38 0 0 1 2.63-2.34 4.87 4.87 0 0 1 2.38.6l-.21 1.32a4.18 4.18 0 0 0 -2.18-.77c-.88 0-1.32.48-1.32 1.16s.29 1.05 1 1.72l2.66 2.66a9.73 9.73 0 0 0 .67-2.47l1.15.25a9.92 9.92 0 0 1 -1 3.05l2.09 2.07zm-2.21-2.17-2.55-2.52a2.36 2.36 0 0 0 -1.64 2 1.68 1.68 0 0 0 1.88 1.63 2.88 2.88 0 0 0 2.3-1.11z"/><path d="m350.07 276.47-3-3.6v3.5h-1.25v-9.92l1.25-.2v6.23l2.59-2.8h1.5l-2.82 3 3.05 3.61z"/><path d="m353.32 268.35a.8.8 0 0 1 -.8-.78.81.81 0 0 1 .8-.8.79.79 0 0 1 .78.8.78.78 0 0 1 -.78.78zm-.63 8v-6.68h1.25v6.68z"/><path d="m356.09 276.38v-9.92l1.25-.2v10.11z"/><path d="m359.49 276.38v-9.92l1.25-.2v10.11z"/><path d="m368.8 276.46a4.7 4.7 0 0 1 -1.68-.29v2.63l-1.25.18v-9.29h1l.15 1a2.81 2.81 0 0 1 2.17-1.11c1.44 0 2.63 1.06 2.63 3.29.01 2.41-1.39 3.59-3.02 3.59zm.2-5.8a2.38 2.38 0 0 0 -1.88 1.18v3.16a3.2 3.2 0 0 0 1.63.36c1 0 1.82-.85 1.82-2.51 0-1.41-.66-2.19-1.57-2.19z"/><path d="m373.5 276.38v-9.92l1.25-.2v10.11z"/><path d="m380.86 276.38-.14-.9a3.15 3.15 0 0 1 -2.35 1 1.78 1.78 0 0 1 -2-1.86c0-1.67 1.43-2.33 4.22-2.62v-.28c0-.84-.5-1.13-1.28-1.13a5.73 5.73 0 0 0 -2.31.57l-.17-1.08a6.47 6.47 0 0 1 2.59-.56c1.63 0 2.41.66 2.41 2.14v4.68zm-.24-3.39c-2.47.24-3 .91-3 1.6a.88.88 0 0 0 1 .9 2.84 2.84 0 0 0 2-.94z"/><path d="m386.44 277c-.57 1.56-1.29 2-2.4 2a1.9 1.9 0 0 1 -.43-.06l-.17-1.09a2.79 2.79 0 0 0 .7.1 1.06 1.06 0 0 0 1.06-.78l.25-.69-2.45-6.69 1.23-.2 1.82 5.32 1.78-5.22h1.27z"/><path d="m392.92 276.51c-1.74 0-3.1-1-3.1-3.5 0-2.14 1.26-3.46 2.94-3.46 1.95 0 2.84 1.5 2.84 3.35v.27h-4.54c0 1.55.79 2.28 1.95 2.28a3.68 3.68 0 0 0 2.4-1l.18 1.12a4.16 4.16 0 0 1 -2.67.94zm-1.79-4.29h3.22c-.15-1.08-.63-1.69-1.6-1.69-.75 0-1.42.56-1.62 1.7z"/><path d="m398.44 272.42v4h-1.25v-6.68h1l.21 1.36a3 3 0 0 1 2.34-1.5l.2 1.19a3.06 3.06 0 0 0 -2.5 1.63z"/><path d="m287.59 169.58-3-3.6v3.5h-1.25v-9.92l1.25-.2v6.23l2.59-2.8h1.5l-2.82 3 3.05 3.61z"/><path d="m290.84 161.45a.8.8 0 0 1 -.8-.78.81.81 0 0 1 .8-.8.79.79 0 0 1 .78.8.78.78 0 0 1 -.78.78zm-.63 8v-6.65h1.25v6.68z"/><path d="m293.61 169.48v-9.92l1.25-.2v10.11z"/><path d="m297 169.48v-9.92l1.25-.2v10.11z"/><path d="m306 169.56a8.27 8.27 0 0 1 -2.61-.42v-9.58l1.25-.2v4.22a2.74 2.74 0 0 1 2-.92c1.44 0 2.63 1.06 2.63 3.29.01 2.44-1.34 3.61-3.27 3.61zm.46-5.8a2.45 2.45 0 0 0 -1.82 1.09v3.42a3.36 3.36 0 0 0 1.34.22c1.3 0 2-.77 2-2.49.02-1.45-.62-2.23-1.52-2.23z"/><path d="m313.5 170.07c-.57 1.56-1.29 2-2.4 2a1.9 1.9 0 0 1 -.43-.06l-.17-1.09a2.79 2.79 0 0 0 .7.1 1.06 1.06 0 0 0 1.06-.78l.25-.69-2.44-6.61 1.23-.2 1.82 5.32 1.78-5.22h1.27z"/><path d="m265.77 184.62a5.48 5.48 0 0 1 -2.44-.63l.18-1.18a4.17 4.17 0 0 0 2.35.77c.85 0 1.36-.32 1.36-.88s-.38-.84-1.58-1.13c-1.57-.39-2.2-.87-2.2-2.06s.9-1.85 2.35-1.85a5.4 5.4 0 0 1 2.2.45l-.2 1.18a4.27 4.27 0 0 0 -2-.57c-.76 0-1.15.29-1.15.77s.34.7 1.39 1c1.65.42 2.4.9 2.4 2.17s-.93 1.96-2.66 1.96z"/><path d="m274 184.48-.14-.9a3.15 3.15 0 0 1 -2.35 1 1.78 1.78 0 0 1 -2-1.86c0-1.67 1.43-2.33 4.22-2.62v-.28c0-.84-.5-1.13-1.28-1.13a5.73 5.73 0 0 0 -2.31.57l-.17-1.08a6.47 6.47 0 0 1 2.59-.56c1.63 0 2.41.66 2.41 2.14v4.68zm-.24-3.39c-2.47.24-3 .91-3 1.6a.88.88 0 0 0 1 .9 2.84 2.84 0 0 0 2-.94z"/><path d="m279.56 185.07c-.57 1.56-1.29 2-2.4 2a1.9 1.9 0 0 1 -.43-.06l-.17-1.09a2.79 2.79 0 0 0 .7.1 1.06 1.06 0 0 0 1.06-.78l.25-.69-2.44-6.61 1.23-.2 1.84 5.26 1.8-5.2h1.27z"/><path d="m284.28 176.45a.8.8 0 0 1 -.8-.78.81.81 0 0 1 .8-.8.79.79 0 0 1 .78.8.78.78 0 0 1 -.78.78zm-.63 8v-6.65h1.25v6.68z"/><path d="m291.16 184.48v-4.55c0-.69-.29-1.15-1-1.15a2.86 2.86 0 0 0 -1.93 1.08v4.62h-1.23v-6.68h1l.15 1a3.59 3.59 0 0 1 2.37-1.11 1.78 1.78 0 0 1 1.93 2v4.86z"/><path d="m296.71 187c-1.74 0-3.12-.55-3.12-1.72 0-.69.48-1.22 1.42-1.72a.85.85 0 0 1 -.42-.7c0-.32.25-.63.7-.91a2.16 2.16 0 0 1 -1.25-2 2.39 2.39 0 0 1 2.56-2.33 2.77 2.77 0 0 1 1.72.57l1.7-.53.18 1.12-1.27.13a2.15 2.15 0 0 1 .27 1 2.37 2.37 0 0 1 -2.56 2.3 2.8 2.8 0 0 1 -.5 0c-.2.13-.34.28-.34.41s.24.29 1.42.5l.48.08c1.42.25 2.3.7 2.3 1.74 0 1.43-1.55 2.06-3.29 2.06zm-.81-3c-.77.39-1.12.79-1.12 1.25s.69.92 2 .92 2-.45 2-1c0-.41-.31-.69-1.26-.85l-.8-.14c-.34-.12-.55-.18-.82-.18zm.7-5.39a1.35 1.35 0 0 0 -1.36 1.46 1.31 1.31 0 0 0 1.36 1.37 1.41 1.41 0 0 0 0-2.83z"/><path d="m311.05 184.48h-1l-1.54-5.06-1.51 5.06h-1l-2.16-6.58 1.19-.2 1.47 4.94 1.5-4.84h1.05l1.49 4.85 1.46-4.85h1.22z"/><path d="m317 184.62c-1.78 0-3.07-1.27-3.07-3.47s1.29-3.49 3.07-3.49 3.11 1.29 3.11 3.49-1.28 3.47-3.11 3.47zm0-5.91c-1.21 0-1.81 1-1.81 2.44s.63 2.44 1.81 2.44 1.85-1 1.85-2.44-.6-2.44-1.85-2.44z"/><path d="m323 180.53v4h-1.25v-6.73h1l.21 1.36a3 3 0 0 1 2.34-1.5l.2 1.19a3.06 3.06 0 0 0 -2.5 1.68z"/><path d="m331.07 184.48-.15-1a2.77 2.77 0 0 1 -2.17 1.11c-1.44 0-2.63-1-2.63-3.29 0-2.44 1.4-3.61 3-3.61a4.7 4.7 0 0 1 1.68.29v-3.45l1.25-.2v10.11zm-.25-5.34a3.15 3.15 0 0 0 -1.64-.38c-1.05 0-1.81.85-1.81 2.51 0 1.47.66 2.24 1.55 2.24a2.39 2.39 0 0 0 1.89-1.18z"/><path d="m336.05 184.62a5.48 5.48 0 0 1 -2.44-.63l.18-1.18a4.17 4.17 0 0 0 2.35.77c.85 0 1.36-.32 1.36-.88s-.38-.84-1.58-1.13c-1.57-.39-2.2-.87-2.2-2.06s.9-1.85 2.35-1.85a5.4 5.4 0 0 1 2.2.45l-.2 1.18a4.27 4.27 0 0 0 -2-.57c-.76 0-1.15.29-1.15.77s.34.7 1.39 1c1.65.42 2.4.9 2.4 2.17s-.94 1.96-2.66 1.96z"/><path d="m311.71 76.38c-.57 0-.92.24-.92.85v1.34h1.34l.15 1.05h-1.5v5.63h-1.22v-5.62h-1v-1.05h1v-1.47c0-1.33.88-1.83 2.07-1.83h.53l.18 1.13a3.74 3.74 0 0 0 -.63-.03zm2.56.85a.8.8 0 0 1 -.8-.78.81.81 0 0 1 .8-.8.8.8 0 0 1 .78.8.78.78 0 0 1 -.78.79zm-.63 8v-6.65h1.25v6.68z"/><path d="m321.14 85.26v-4.55c0-.69-.29-1.15-1-1.15a2.86 2.86 0 0 0 -1.93 1.08v4.62h-1.25v-6.68h1l.15 1a3.59 3.59 0 0 1 2.37-1.11 1.78 1.78 0 0 1 1.93 2v4.86z"/><path d="m325 77.24a.8.8 0 0 1 -.8-.78.81.81 0 0 1 .8-.8.79.79 0 0 1 .78.8.78.78 0 0 1 -.78.78zm-.63 8v-6.66h1.25v6.68z"/><path d="m329.75 85.4a5.48 5.48 0 0 1 -2.44-.63l.18-1.18a4.17 4.17 0 0 0 2.35.77c.85 0 1.36-.32 1.36-.88s-.38-.84-1.58-1.13c-1.57-.39-2.2-.87-2.2-2.06s.9-1.85 2.35-1.85a5.4 5.4 0 0 1 2.2.45l-.2 1.18a4.27 4.27 0 0 0 -2-.57c-.76 0-1.15.29-1.15.77s.34.7 1.39 1c1.65.42 2.4.9 2.4 2.17s-.94 1.96-2.66 1.96z"/><path d="m338.11 85.26v-4.55c0-.69-.29-1.15-1-1.15a2.86 2.86 0 0 0 -1.93 1.08v4.62h-1.25v-9.91l1.25-.2v4.31a3.47 3.47 0 0 1 2.27-1 1.78 1.78 0 0 1 1.93 2v4.86z"/><path d="m312 100.4c-1.79 0-3.11-1.25-3.11-3.47s1.4-3.49 3.14-3.49a3.63 3.63 0 0 1 2.19.62l-.22 1.22a3 3 0 0 0 -2-.74c-1.09 0-1.86.83-1.86 2.38s.83 2.4 2 2.4a2.74 2.74 0 0 0 1.95-.74l.18 1.12a3.53 3.53 0 0 1 -2.27.7z"/><path d="m317.05 96.31v4h-1.25v-6.73h1l.21 1.36a3 3 0 0 1 2.34-1.5l.2 1.19a3.06 3.06 0 0 0 -2.5 1.68z"/><path d="m321.55 92.24a.8.8 0 0 1 -.8-.78.81.81 0 0 1 .8-.8.79.79 0 0 1 .78.8.78.78 0 0 1 -.78.78zm-.63 8v-6.66h1.25v6.68z"/><path d="m326.49 100.38c-1.18 0-1.95-.42-1.95-1.77v-4h-1v-1.03h1v-2.22l1.22-.18v2.41h1.44l.17 1.05h-1.61v3.75c0 .55.22.88.92.88a3.4 3.4 0 0 0 .57 0l.17 1.06a4.66 4.66 0 0 1 -.93.05z"/><path d="m331.6 100.4c-1.74 0-3.1-1-3.1-3.5 0-2.14 1.26-3.46 2.94-3.46 1.95 0 2.84 1.5 2.84 3.35v.27h-4.54c0 1.55.79 2.28 1.95 2.28a3.68 3.68 0 0 0 2.4-1l.18 1.12a4.16 4.16 0 0 1 -2.67.94zm-1.79-4.29h3.19c-.15-1.08-.63-1.69-1.6-1.69-.74 0-1.4.58-1.59 1.7z"/><path d="m337.12 96.31v4h-1.25v-6.73h1l.21 1.36a3 3 0 0 1 2.34-1.5l.2 1.19a3.06 3.06 0 0 0 -2.5 1.68z"/><path d="m341.61 92.24a.8.8 0 0 1 -.8-.78.81.81 0 0 1 .8-.8.79.79 0 0 1 .78.8.78.78 0 0 1 -.78.78zm-.63 8v-6.66h1.25v6.68z"/><path d="m348.33 100.26-.14-.9a3.15 3.15 0 0 1 -2.35 1 1.78 1.78 0 0 1 -2-1.86c0-1.67 1.43-2.33 4.22-2.62v-.28c0-.84-.5-1.13-1.28-1.13a5.73 5.73 0 0 0 -2.31.57l-.13-1.04a6.47 6.47 0 0 1 2.59-.56c1.63 0 2.41.66 2.41 2.14v4.68zm-.24-3.39c-2.47.24-3 .91-3 1.6a.88.88 0 0 0 1 .9 2.84 2.84 0 0 0 2-.94z"/></svg>